<svg width="679" height="423" viewBox="0 0 679 423" fill="none" xmlns="http://www.w3.org/2000/svg">
<rect x="107.67" y="375.183" width="45.154" height="45.154" rx="0.5" fill="#D8D0E4" stroke="#211433"/>
<rect x="183.194" y="375.183" width="45.154" height="45.154" rx="0.5" fill="#D8D0E4" stroke="#211433"/>
<rect x="258.12" y="375.183" width="45.154" height="45.154" rx="0.5" fill="#D8D0E4" stroke="#211433"/>
<rect x="333.045" y="375.183" width="45.154" height="45.154" rx="0.5" fill="#D8D0E4" stroke="#211433"/>
<rect x="408.57" y="375.183" width="45.154" height="45.154" rx="0.5" fill="#D8D0E4" stroke="#211433"/>
<rect x="485.294" y="375.183" width="45.154" height="45.154" rx="0.5" fill="#D8D0E4" stroke="#211433"/>
<rect x="559.02" y="375.183" width="45.154" height="45.154" rx="0.5" fill="#D8D0E4" stroke="#211433"/>
<rect x="633.346" y="375.183" width="45.154" height="45.154" rx="0.5" fill="#D8D0E4" stroke="#211433"/>
<g clip-path="url(#clip0_21_2583)">
<path d="M41.0661 369.458H0.645508V422.465H41.0661V369.458Z" fill="#CDE6B2" stroke="#211433" stroke-miterlimit="10"/>
<path d="M6.02051 381.576H28.0015" stroke="#211433"/>
<path d="M6.02051 387.989H28.0015" stroke="#211433"/>
<path d="M6.02051 394.403H36.59" stroke="#211433"/>
<path d="M6.02051 400.817H36.59" stroke="#211433"/>
<path d="M6.02051 407.23H36.59" stroke="#211433"/>
<path d="M6.02051 413.644H36.59" stroke="#211433"/>
</g>
<rect x="0.976074" y="369.788" width="39.7594" height="52.3468" stroke="#211433"/>
<path d="M42.584 386.671V367.888H26.3901L42.584 386.671Z" fill="#CDE6B2" stroke="#211433" stroke-miterlimit="10"/>
<path d="M129.348 362.245H129.748V361.846L129.348 361.845L129.348 362.245ZM87.2667 362.551L87.7676 362.552L87.7694 361.752L87.2685 361.751L87.2667 362.551ZM88.7695 362.555L89.7714 362.557L89.7732 361.757L88.7713 361.755L88.7695 362.555ZM90.7734 362.559L91.7753 362.561L91.777 361.761L90.7751 361.759L90.7734 362.559ZM92.7772 362.564L93.7791 362.566L93.7808 361.766L92.7789 361.764L92.7772 362.564ZM94.781 362.568L95.7829 362.57L95.7846 361.77L94.7827 361.768L94.781 362.568ZM96.7848 362.573L97.7867 362.575L97.7885 361.775L96.7866 361.773L96.7848 362.573ZM98.7886 362.577L99.7905 362.579L99.7923 361.779L98.7904 361.777L98.7886 362.577ZM100.792 362.581L101.794 362.584L101.796 361.784L100.794 361.781L100.792 362.581ZM102.796 362.586L103.798 362.588L103.8 361.788L102.798 361.786L102.796 362.586ZM104.8 362.59L105.802 362.593L105.804 361.793L104.802 361.79L104.8 362.59ZM106.804 362.595L107.806 362.597L107.807 361.797L106.806 361.795L106.804 362.595ZM108.808 362.599L109.81 362.602L109.811 361.802L108.809 361.799L108.808 362.599ZM110.811 362.604L111.813 362.606L111.815 361.806L110.813 361.804L110.811 362.604ZM112.815 362.608L113.817 362.61L113.819 361.81L112.817 361.808L112.815 362.608ZM114.819 362.613L115.821 362.615L115.823 361.815L114.821 361.813L114.819 362.613ZM116.823 362.617L117.825 362.619L117.827 361.819L116.825 361.817L116.823 362.617ZM118.827 362.622L119.829 362.624L119.83 361.824L118.828 361.822L118.827 362.622ZM120.83 362.626L121.832 362.628L121.834 361.828L120.832 361.826L120.83 362.626ZM122.834 362.631L123.836 362.633L123.838 361.833L122.836 361.831L122.834 362.631ZM124.838 362.635L125.84 362.637L125.842 361.837L124.84 361.835L124.838 362.635ZM126.842 362.639L127.844 362.642L127.846 361.842L126.844 361.839L126.842 362.639ZM128.846 362.644L129.347 362.645L129.348 361.845L128.847 361.844L128.846 362.644ZM128.948 362.245V362.722H129.748V362.245H128.948ZM128.948 363.677V364.632H129.748V363.677H128.948ZM128.948 365.587V366.541H129.748V365.587H128.948ZM128.948 367.496V368.451H129.748V367.496H128.948ZM128.948 369.406V370.361H129.748V369.406H128.948ZM128.948 371.315V371.793H129.748V371.315H128.948Z" fill="#211433"/>
<path d="M87.0898 358.836H205.56V373.496" stroke="#211433" stroke-width="0.8" stroke-dasharray="1 1"/>
<path d="M87.1226 355.502H278.199V372.285" stroke="#211433" stroke-width="0.8" stroke-dasharray="1 1"/>
<path d="M87.2207 352.317H353.684V372.285" stroke="#211433" stroke-width="0.8" stroke-dasharray="1 1"/>
<path d="M87.2583 349.283L426.174 348.084V372.285" stroke="#211433" stroke-width="0.8" stroke-dasharray="1 1"/>
<path d="M87.2632 346.136H510.046V372.285" stroke="#211433" stroke-width="0.8" stroke-dasharray="1 1"/>
<path d="M87.2769 342.914H585.531V372.285" stroke="#211433" stroke-width="0.8" stroke-dasharray="1 1"/>
<path d="M87.0898 339.917H658.021V372.285" stroke="#211433" stroke-width="0.8" stroke-dasharray="1 1"/>
<path d="M53.2236 396.261L58.2236 399.148L58.2236 393.374L53.2236 396.261ZM57.7236 396.761L87.0899 396.761L87.0899 395.761L57.7236 395.761L57.7236 396.761Z" fill="#211433"/>
<path d="M87.0522 396.448L87.0522 339.627" stroke="#211433"/>
<g opacity="0.9">
<rect x="107.67" y="307.33" width="45.154" height="45.154" rx="0.5" fill="#D8D0E4" stroke="#211433"/>
<rect x="183.194" y="307.33" width="45.154" height="45.154" rx="0.5" fill="#D8D0E4" stroke="#211433"/>
<rect x="258.12" y="307.33" width="45.154" height="45.154" rx="0.5" fill="#D8D0E4" stroke="#211433"/>
<rect x="333.045" y="307.33" width="45.154" height="45.154" rx="0.5" fill="#D8D0E4" stroke="#211433"/>
<rect x="408.57" y="307.33" width="45.154" height="45.154" rx="0.5" fill="#D8D0E4" stroke="#211433"/>
<rect x="485.294" y="307.33" width="45.154" height="45.154" rx="0.5" fill="#D8D0E4" stroke="#211433"/>
<rect x="559.02" y="307.33" width="45.154" height="45.154" rx="0.5" fill="#D8D0E4" stroke="#211433"/>
<rect x="633.346" y="307.33" width="45.154" height="45.154" rx="0.5" fill="#D8D0E4" stroke="#211433"/>
<g clip-path="url(#clip1_21_2583)">
<path d="M41.0661 301.606H0.645508V354.612H41.0661V301.606Z" fill="#CDE6B2" stroke="#211433" stroke-miterlimit="10"/>
<path d="M6.02051 313.723H28.0015" stroke="#211433"/>
<path d="M6.02051 320.137H28.0015" stroke="#211433"/>
<path d="M6.02051 326.55H36.59" stroke="#211433"/>
<path d="M6.02051 332.964H36.59" stroke="#211433"/>
<path d="M6.02051 339.378H36.59" stroke="#211433"/>
<path d="M6.02051 345.791H36.59" stroke="#211433"/>
</g>
<rect x="0.976074" y="301.936" width="39.7594" height="52.3468" stroke="#211433"/>
<path d="M42.584 318.818V300.035H26.3901L42.584 318.818Z" fill="#CDE6B2" stroke="#211433" stroke-miterlimit="10"/>
<path d="M129.348 294.392H129.748V293.993L129.348 293.992L129.348 294.392ZM87.2667 294.699L87.7676 294.7L87.7694 293.9L87.2685 293.899L87.2667 294.699ZM88.7695 294.702L89.7714 294.704L89.7732 293.904L88.7713 293.902L88.7695 294.702ZM90.7734 294.707L91.7753 294.709L91.777 293.909L90.7751 293.907L90.7734 294.707ZM92.7772 294.711L93.7791 294.713L93.7808 293.913L92.7789 293.911L92.7772 294.711ZM94.781 294.716L95.7829 294.718L95.7846 293.918L94.7827 293.916L94.781 294.716ZM96.7848 294.72L97.7867 294.722L97.7885 293.922L96.7866 293.92L96.7848 294.72ZM98.7886 294.724L99.7905 294.727L99.7923 293.927L98.7904 293.924L98.7886 294.724ZM100.792 294.729L101.794 294.731L101.796 293.931L100.794 293.929L100.792 294.729ZM102.796 294.733L103.798 294.736L103.8 293.936L102.798 293.933L102.796 294.733ZM104.8 294.738L105.802 294.74L105.804 293.94L104.802 293.938L104.8 294.738ZM106.804 294.742L107.806 294.745L107.807 293.945L106.806 293.942L106.804 294.742ZM108.808 294.747L109.81 294.749L109.811 293.949L108.809 293.947L108.808 294.747ZM110.811 294.751L111.813 294.753L111.815 293.953L110.813 293.951L110.811 294.751ZM112.815 294.756L113.817 294.758L113.819 293.958L112.817 293.956L112.815 294.756ZM114.819 294.76L115.821 294.762L115.823 293.962L114.821 293.96L114.819 294.76ZM116.823 294.765L117.825 294.767L117.827 293.967L116.825 293.965L116.823 294.765ZM118.827 294.769L119.829 294.771L119.83 293.971L118.828 293.969L118.827 294.769ZM120.83 294.774L121.832 294.776L121.834 293.976L120.832 293.974L120.83 294.774ZM122.834 294.778L123.836 294.78L123.838 293.98L122.836 293.978L122.834 294.778ZM124.838 294.782L125.84 294.785L125.842 293.985L124.84 293.982L124.838 294.782ZM126.842 294.787L127.844 294.789L127.846 293.989L126.844 293.987L126.842 294.787ZM128.846 294.791L129.347 294.792L129.348 293.992L128.847 293.991L128.846 294.791ZM128.948 294.392V294.87H129.748V294.392H128.948ZM128.948 295.825V296.779H129.748V295.825H128.948ZM128.948 297.734V298.689H129.748V297.734H128.948ZM128.948 299.644V300.598H129.748V299.644H128.948ZM128.948 301.553V302.508H129.748V301.553H128.948ZM128.948 303.463V303.94H129.748V303.463H128.948Z" fill="#211433"/>
<path d="M87.0898 290.983H205.56V305.644" stroke="#211433" stroke-width="0.8" stroke-dasharray="1 1"/>
<path d="M87.1226 287.649H278.199V304.433" stroke="#211433" stroke-width="0.8" stroke-dasharray="1 1"/>
<path d="M87.2207 284.465H353.684V304.433" stroke="#211433" stroke-width="0.8" stroke-dasharray="1 1"/>
<path d="M87.2583 281.43L426.174 280.232V304.433" stroke="#211433" stroke-width="0.8" stroke-dasharray="1 1"/>
<path d="M87.2632 278.284H510.046V304.433" stroke="#211433" stroke-width="0.8" stroke-dasharray="1 1"/>
<path d="M87.2769 275.062H585.531V304.433" stroke="#211433" stroke-width="0.8" stroke-dasharray="1 1"/>
<path d="M87.0898 272.065H658.021V304.432" stroke="#211433" stroke-width="0.8" stroke-dasharray="1 1"/>
<path d="M53.2236 328.409L58.2236 331.295L58.2236 325.522L53.2236 328.409ZM57.7236 328.909L87.0899 328.909L87.0899 327.909L57.7236 327.909L57.7236 328.909Z" fill="#211433"/>
<path d="M87.0522 328.596L87.0522 271.774" stroke="#211433"/>
</g>
<g opacity="0.9">
<rect x="107.67" y="239.478" width="45.154" height="45.154" rx="0.5" fill="#D8D0E4" stroke="#211433"/>
<rect x="183.194" y="239.478" width="45.154" height="45.154" rx="0.5" fill="#D8D0E4" stroke="#211433"/>
<rect x="258.12" y="239.478" width="45.154" height="45.154" rx="0.5" fill="#D8D0E4" stroke="#211433"/>
<rect x="333.045" y="239.478" width="45.154" height="45.154" rx="0.5" fill="#D8D0E4" stroke="#211433"/>
<rect x="408.57" y="239.478" width="45.154" height="45.154" rx="0.5" fill="#D8D0E4" stroke="#211433"/>
<rect x="485.294" y="239.478" width="45.154" height="45.154" rx="0.5" fill="#D8D0E4" stroke="#211433"/>
<rect x="559.02" y="239.478" width="45.154" height="45.154" rx="0.5" fill="#D8D0E4" stroke="#211433"/>
<rect x="633.346" y="239.478" width="45.154" height="45.154" rx="0.5" fill="#D8D0E4" stroke="#211433"/>
<g clip-path="url(#clip2_21_2583)">
<path d="M41.0661 233.753H0.645508V286.76H41.0661V233.753Z" fill="#CDE6B2" stroke="#211433" stroke-miterlimit="10"/>
<path d="M6.02051 245.871H28.0015" stroke="#211433"/>
<path d="M6.02051 252.285H28.0015" stroke="#211433"/>
<path d="M6.02051 258.698H36.59" stroke="#211433"/>
<path d="M6.02051 265.112H36.59" stroke="#211433"/>
<path d="M6.02051 271.526H36.59" stroke="#211433"/>
<path d="M6.02051 277.939H36.59" stroke="#211433"/>
</g>
<rect x="0.976074" y="234.083" width="39.7594" height="52.3468" stroke="#211433"/>
<path d="M42.584 250.966V232.183H26.3901L42.584 250.966Z" fill="#CDE6B2" stroke="#211433" stroke-miterlimit="10"/>
<path d="M129.348 226.54H129.748V226.141L129.348 226.14L129.348 226.54ZM87.2667 226.847L87.7676 226.848L87.7694 226.048L87.2685 226.047L87.2667 226.847ZM88.7695 226.85L89.7714 226.852L89.7732 226.052L88.7713 226.05L88.7695 226.85ZM90.7734 226.854L91.7753 226.857L91.777 226.057L90.7751 226.054L90.7734 226.854ZM92.7772 226.859L93.7791 226.861L93.7808 226.061L92.7789 226.059L92.7772 226.859ZM94.781 226.863L95.7829 226.865L95.7846 226.065L94.7827 226.063L94.781 226.863ZM96.7848 226.868L97.7867 226.87L97.7885 226.07L96.7866 226.068L96.7848 226.868ZM98.7886 226.872L99.7905 226.874L99.7923 226.074L98.7904 226.072L98.7886 226.872ZM100.792 226.877L101.794 226.879L101.796 226.079L100.794 226.077L100.792 226.877ZM102.796 226.881L103.798 226.883L103.8 226.083L102.798 226.081L102.796 226.881ZM104.8 226.886L105.802 226.888L105.804 226.088L104.802 226.086L104.8 226.886ZM106.804 226.89L107.806 226.892L107.807 226.092L106.806 226.09L106.804 226.89ZM108.808 226.894L109.81 226.897L109.811 226.097L108.809 226.094L108.808 226.894ZM110.811 226.899L111.813 226.901L111.815 226.101L110.813 226.099L110.811 226.899ZM112.815 226.903L113.817 226.906L113.819 226.106L112.817 226.103L112.815 226.903ZM114.819 226.908L115.821 226.91L115.823 226.11L114.821 226.108L114.819 226.908ZM116.823 226.912L117.825 226.915L117.827 226.115L116.825 226.112L116.823 226.912ZM118.827 226.917L119.829 226.919L119.83 226.119L118.828 226.117L118.827 226.917ZM120.83 226.921L121.832 226.923L121.834 226.123L120.832 226.121L120.83 226.921ZM122.834 226.926L123.836 226.928L123.838 226.128L122.836 226.126L122.834 226.926ZM124.838 226.93L125.84 226.932L125.842 226.132L124.84 226.13L124.838 226.93ZM126.842 226.935L127.844 226.937L127.846 226.137L126.844 226.135L126.842 226.935ZM128.846 226.939L129.347 226.94L129.348 226.14L128.847 226.139L128.846 226.939ZM128.948 226.54V227.018H129.748V226.54H128.948ZM128.948 227.972V228.927H129.748V227.972H128.948ZM128.948 229.882V230.837H129.748V229.882H128.948ZM128.948 231.791V232.746H129.748V231.791H128.948ZM128.948 233.701V234.656H129.748V233.701H128.948ZM128.948 235.61V236.088H129.748V235.61H128.948Z" fill="#211433"/>
<path d="M87.0898 223.131H205.56V237.792" stroke="#211433" stroke-width="0.8" stroke-dasharray="1 1"/>
<path d="M87.1226 219.797H278.199V236.58" stroke="#211433" stroke-width="0.8" stroke-dasharray="1 1"/>
<path d="M87.2207 216.613H353.684V236.58" stroke="#211433" stroke-width="0.8" stroke-dasharray="1 1"/>
<path d="M87.2583 213.578L426.174 212.379V236.58" stroke="#211433" stroke-width="0.8" stroke-dasharray="1 1"/>
<path d="M87.2632 210.431H510.046V236.58" stroke="#211433" stroke-width="0.8" stroke-dasharray="1 1"/>
<path d="M87.2769 207.209H585.531V236.58" stroke="#211433" stroke-width="0.8" stroke-dasharray="1 1"/>
<path d="M87.0898 204.212H658.021V236.58" stroke="#211433" stroke-width="0.8" stroke-dasharray="1 1"/>
<path d="M53.2236 260.556L58.2236 263.443L58.2236 257.67L53.2236 260.556ZM57.7236 261.056L87.0899 261.056L87.0899 260.056L57.7236 260.056L57.7236 261.056Z" fill="#211433"/>
<path d="M87.0522 260.744L87.0522 203.922" stroke="#211433"/>
</g>
<g opacity="0.9">
<rect x="107.67" y="171.625" width="45.154" height="45.154" rx="0.5" fill="#D8D0E4" stroke="#211433"/>
<rect x="183.194" y="171.625" width="45.154" height="45.154" rx="0.5" fill="#D8D0E4" stroke="#211433"/>
<rect x="258.12" y="171.625" width="45.154" height="45.154" rx="0.5" fill="#D8D0E4" stroke="#211433"/>
<rect x="333.045" y="171.625" width="45.154" height="45.154" rx="0.5" fill="#D8D0E4" stroke="#211433"/>
<rect x="408.57" y="171.625" width="45.154" height="45.154" rx="0.5" fill="#D8D0E4" stroke="#211433"/>
<rect x="485.294" y="171.625" width="45.154" height="45.154" rx="0.5" fill="#D8D0E4" stroke="#211433"/>
<rect x="559.02" y="171.625" width="45.154" height="45.154" rx="0.5" fill="#D8D0E4" stroke="#211433"/>
<rect x="633.346" y="171.625" width="45.154" height="45.154" rx="0.5" fill="#D8D0E4" stroke="#211433"/>
<g clip-path="url(#clip3_21_2583)">
<path d="M41.0661 165.901H0.645508V218.907H41.0661V165.901Z" fill="#CDE6B2" stroke="#211433" stroke-miterlimit="10"/>
<path d="M6.02051 178.019H28.0015" stroke="#211433"/>
<path d="M6.02051 184.432H28.0015" stroke="#211433"/>
<path d="M6.02051 190.846H36.59" stroke="#211433"/>
<path d="M6.02051 197.26H36.59" stroke="#211433"/>
<path d="M6.02051 203.673H36.59" stroke="#211433"/>
<path d="M6.02051 210.087H36.59" stroke="#211433"/>
</g>
<rect x="0.976074" y="166.231" width="39.7594" height="52.3468" stroke="#211433"/>
<path d="M42.584 183.114V164.331H26.3901L42.584 183.114Z" fill="#CDE6B2" stroke="#211433" stroke-miterlimit="10"/>
<path d="M129.348 158.688H129.748V158.289L129.348 158.288L129.348 158.688ZM87.2667 158.994L87.7676 158.995L87.7694 158.195L87.2685 158.194L87.2667 158.994ZM88.7695 158.998L89.7714 159L89.7732 158.2L88.7713 158.198L88.7695 158.998ZM90.7734 159.002L91.7753 159.004L91.777 158.204L90.7751 158.202L90.7734 159.002ZM92.7772 159.007L93.7791 159.009L93.7808 158.209L92.7789 158.207L92.7772 159.007ZM94.781 159.011L95.7829 159.013L95.7846 158.213L94.7827 158.211L94.781 159.011ZM96.7848 159.015L97.7867 159.018L97.7885 158.218L96.7866 158.215L96.7848 159.015ZM98.7886 159.02L99.7905 159.022L99.7923 158.222L98.7904 158.22L98.7886 159.02ZM100.792 159.024L101.794 159.027L101.796 158.227L100.794 158.224L100.792 159.024ZM102.796 159.029L103.798 159.031L103.8 158.231L102.798 158.229L102.796 159.029ZM104.8 159.033L105.802 159.035L105.804 158.235L104.802 158.233L104.8 159.033ZM106.804 159.038L107.806 159.04L107.807 158.24L106.806 158.238L106.804 159.038ZM108.808 159.042L109.81 159.044L109.811 158.244L108.809 158.242L108.808 159.042ZM110.811 159.047L111.813 159.049L111.815 158.249L110.813 158.247L110.811 159.047ZM112.815 159.051L113.817 159.053L113.819 158.253L112.817 158.251L112.815 159.051ZM114.819 159.056L115.821 159.058L115.823 158.258L114.821 158.256L114.819 159.056ZM116.823 159.06L117.825 159.062L117.827 158.262L116.825 158.26L116.823 159.06ZM118.827 159.064L119.829 159.067L119.83 158.267L118.828 158.264L118.827 159.064ZM120.83 159.069L121.832 159.071L121.834 158.271L120.832 158.269L120.83 159.069ZM122.834 159.073L123.836 159.076L123.838 158.276L122.836 158.273L122.834 159.073ZM124.838 159.078L125.84 159.08L125.842 158.28L124.84 158.278L124.838 159.078ZM126.842 159.082L127.844 159.085L127.846 158.285L126.844 158.282L126.842 159.082ZM128.846 159.087L129.347 159.088L129.348 158.288L128.847 158.287L128.846 159.087ZM128.948 158.688V159.165H129.748V158.688H128.948ZM128.948 160.12V161.075H129.748V160.12H128.948ZM128.948 162.03V162.984H129.748V162.03H128.948ZM128.948 163.939V164.894H129.748V163.939H128.948ZM128.948 165.849V166.803H129.748V165.849H128.948ZM128.948 167.758V168.236H129.748V167.758H128.948Z" fill="#211433"/>
<path d="M87.0898 155.279H205.56V169.939" stroke="#211433" stroke-width="0.8" stroke-dasharray="1 1"/>
<path d="M87.1226 151.945H278.199V168.728" stroke="#211433" stroke-width="0.8" stroke-dasharray="1 1"/>
<path d="M87.2207 148.76H353.684V168.728" stroke="#211433" stroke-width="0.8" stroke-dasharray="1 1"/>
<path d="M87.2583 145.726L426.174 144.527V168.728" stroke="#211433" stroke-width="0.8" stroke-dasharray="1 1"/>
<path d="M87.2632 142.579H510.046V168.728" stroke="#211433" stroke-width="0.8" stroke-dasharray="1 1"/>
<path d="M87.2769 139.357H585.531V168.728" stroke="#211433" stroke-width="0.8" stroke-dasharray="1 1"/>
<path d="M87.0898 136.36H658.021V168.728" stroke="#211433" stroke-width="0.8" stroke-dasharray="1 1"/>
<path d="M53.2236 192.704L58.2236 195.591L58.2236 189.817L53.2236 192.704ZM57.7236 193.204L87.0899 193.204L87.0899 192.204L57.7236 192.204L57.7236 193.204Z" fill="#211433"/>
<path d="M87.0522 192.891L87.0522 136.07" stroke="#211433"/>
</g>
<g opacity="0.9">
<rect x="107.67" y="103.773" width="45.154" height="45.154" rx="0.5" fill="#D8D0E4" stroke="#211433"/>
<rect x="183.194" y="103.773" width="45.154" height="45.154" rx="0.5" fill="#D8D0E4" stroke="#211433"/>
<rect x="258.12" y="103.773" width="45.154" height="45.154" rx="0.5" fill="#D8D0E4" stroke="#211433"/>
<rect x="333.045" y="103.773" width="45.154" height="45.154" rx="0.5" fill="#D8D0E4" stroke="#211433"/>
<rect x="408.57" y="103.773" width="45.154" height="45.154" rx="0.5" fill="#D8D0E4" stroke="#211433"/>
<rect x="485.294" y="103.773" width="45.154" height="45.154" rx="0.5" fill="#D8D0E4" stroke="#211433"/>
<rect x="559.02" y="103.773" width="45.154" height="45.154" rx="0.5" fill="#D8D0E4" stroke="#211433"/>
<rect x="633.346" y="103.773" width="45.154" height="45.154" rx="0.5" fill="#D8D0E4" stroke="#211433"/>
<g clip-path="url(#clip4_21_2583)">
<path d="M41.0661 98.0486H0.645508V151.055H41.0661V98.0486Z" fill="#CDE6B2" stroke="#211433" stroke-miterlimit="10"/>
<path d="M6.02051 110.166H28.0015" stroke="#211433"/>
<path d="M6.02051 116.58H28.0015" stroke="#211433"/>
<path d="M6.02051 122.993H36.59" stroke="#211433"/>
<path d="M6.02051 129.407H36.59" stroke="#211433"/>
<path d="M6.02051 135.821H36.59" stroke="#211433"/>
<path d="M6.02051 142.234H36.59" stroke="#211433"/>
</g>
<rect x="0.976074" y="98.3784" width="39.7594" height="52.3468" stroke="#211433"/>
<path d="M42.584 115.261V96.4783H26.3901L42.584 115.261Z" fill="#CDE6B2" stroke="#211433" stroke-miterlimit="10"/>
<path d="M129.348 90.8354H129.748V90.4362L129.348 90.4354L129.348 90.8354ZM87.2667 91.1417L87.7676 91.1428L87.7694 90.3428L87.2685 90.3417L87.2667 91.1417ZM88.7695 91.145L89.7714 91.1473L89.7732 90.3473L88.7713 90.345L88.7695 91.145ZM90.7734 91.1495L91.7753 91.1517L91.777 90.3517L90.7751 90.3495L90.7734 91.1495ZM92.7772 91.154L93.7791 91.1562L93.7808 90.3562L92.7789 90.354L92.7772 91.154ZM94.781 91.1584L95.7829 91.1607L95.7846 90.3607L94.7827 90.3584L94.781 91.1584ZM96.7848 91.1629L97.7867 91.1651L97.7885 90.3651L96.7866 90.3629L96.7848 91.1629ZM98.7886 91.1673L99.7905 91.1696L99.7923 90.3696L98.7904 90.3673L98.7886 91.1673ZM100.792 91.1718L101.794 91.174L101.796 90.374L100.794 90.3718L100.792 91.1718ZM102.796 91.1763L103.798 91.1785L103.8 90.3785L102.798 90.3763L102.796 91.1763ZM104.8 91.1807L105.802 91.183L105.804 90.383L104.802 90.3807L104.8 91.1807ZM106.804 91.1852L107.806 91.1874L107.807 90.3874L106.806 90.3852L106.804 91.1852ZM108.808 91.1896L109.81 91.1919L109.811 90.3919L108.809 90.3896L108.808 91.1896ZM110.811 91.1941L111.813 91.1963L111.815 90.3963L110.813 90.3941L110.811 91.1941ZM112.815 91.1986L113.817 91.2008L113.819 90.4008L112.817 90.3986L112.815 91.1986ZM114.819 91.203L115.821 91.2053L115.823 90.4053L114.821 90.403L114.819 91.203ZM116.823 91.2075L117.825 91.2097L117.827 90.4097L116.825 90.4075L116.823 91.2075ZM118.827 91.2119L119.829 91.2142L119.83 90.4142L118.828 90.4119L118.827 91.2119ZM120.83 91.2164L121.832 91.2186L121.834 90.4186L120.832 90.4164L120.83 91.2164ZM122.834 91.2209L123.836 91.2231L123.838 90.4231L122.836 90.4209L122.834 91.2209ZM124.838 91.2253L125.84 91.2276L125.842 90.4276L124.84 90.4253L124.838 91.2253ZM126.842 91.2298L127.844 91.232L127.846 90.432L126.844 90.4298L126.842 91.2298ZM128.846 91.2342L129.347 91.2354L129.348 90.4354L128.847 90.4342L128.846 91.2342ZM128.948 90.8354V91.3127H129.748V90.8354H128.948ZM128.948 92.2675V93.2223H129.748V92.2675H128.948ZM128.948 94.177V95.1318H129.748V94.177H128.948ZM128.948 96.0866V97.0413H129.748V96.0866H128.948ZM128.948 97.9961V98.9508H129.748V97.9961H128.948ZM128.948 99.9056V100.383H129.748V99.9056H128.948Z" fill="#211433"/>
<path d="M87.0898 87.4263H205.56V102.087" stroke="#211433" stroke-width="0.8" stroke-dasharray="1 1"/>
<path d="M87.1226 84.092H278.199V100.875" stroke="#211433" stroke-width="0.8" stroke-dasharray="1 1"/>
<path d="M87.2207 80.9077H353.684V100.875" stroke="#211433" stroke-width="0.8" stroke-dasharray="1 1"/>
<path d="M87.2583 77.8734L426.174 76.6746V100.875" stroke="#211433" stroke-width="0.8" stroke-dasharray="1 1"/>
<path d="M87.2632 74.7263H510.046V100.875" stroke="#211433" stroke-width="0.8" stroke-dasharray="1 1"/>
<path d="M87.2769 71.5046H585.531V100.875" stroke="#211433" stroke-width="0.8" stroke-dasharray="1 1"/>
<path d="M87.0898 68.5076H658.021V100.875" stroke="#211433" stroke-width="0.8" stroke-dasharray="1 1"/>
<path d="M53.2236 124.852L58.2236 127.738L58.2236 121.965L53.2236 124.852ZM57.7236 125.352L87.0899 125.352L87.0899 124.352L57.7236 124.352L57.7236 125.352Z" fill="#211433"/>
<path d="M87.0522 125.039L87.0522 68.2173" stroke="#211433"/>
</g>
<g opacity="0.9">
<rect x="107.67" y="35.9207" width="45.154" height="45.154" rx="0.5" fill="#D8D0E4" stroke="#211433"/>
<rect x="183.194" y="35.9207" width="45.154" height="45.154" rx="0.5" fill="#D8D0E4" stroke="#211433"/>
<rect x="258.12" y="35.9207" width="45.154" height="45.154" rx="0.5" fill="#D8D0E4" stroke="#211433"/>
<rect x="333.045" y="35.9207" width="45.154" height="45.154" rx="0.5" fill="#D8D0E4" stroke="#211433"/>
<rect x="408.57" y="35.9207" width="45.154" height="45.154" rx="0.5" fill="#D8D0E4" stroke="#211433"/>
<rect x="485.294" y="35.9207" width="45.154" height="45.154" rx="0.5" fill="#D8D0E4" stroke="#211433"/>
<rect x="559.02" y="35.9207" width="45.154" height="45.154" rx="0.5" fill="#D8D0E4" stroke="#211433"/>
<rect x="633.346" y="35.9207" width="45.154" height="45.154" rx="0.5" fill="#D8D0E4" stroke="#211433"/>
<g clip-path="url(#clip5_21_2583)">
<path d="M41.0661 30.1963H0.645508V83.2027H41.0661V30.1963Z" fill="#CDE6B2" stroke="#211433" stroke-miterlimit="10"/>
<path d="M6.02051 42.314H28.0015" stroke="#211433"/>
<path d="M6.02051 48.7275H28.0015" stroke="#211433"/>
<path d="M6.02051 55.1411H36.59" stroke="#211433"/>
<path d="M6.02051 61.5547H36.59" stroke="#211433"/>
<path d="M6.02051 67.9685H36.59" stroke="#211433"/>
<path d="M6.02051 74.3821H36.59" stroke="#211433"/>
</g>
<rect x="0.976074" y="30.5261" width="39.7594" height="52.3468" stroke="#211433"/>
<path d="M42.584 47.4088V28.626H26.3901L42.584 47.4088Z" fill="#CDE6B2" stroke="#211433" stroke-miterlimit="10"/>
<path d="M129.348 22.9831H129.748V22.584L129.348 22.5831L129.348 22.9831ZM87.2667 23.2894L87.7676 23.2905L87.7694 22.4905L87.2685 22.4894L87.2667 23.2894ZM88.7695 23.2927L89.7714 23.295L89.7732 22.495L88.7713 22.4928L88.7695 23.2927ZM90.7734 23.2972L91.7753 23.2994L91.777 22.4994L90.7751 22.4972L90.7734 23.2972ZM92.7772 23.3017L93.7791 23.3039L93.7808 22.5039L92.7789 22.5017L92.7772 23.3017ZM94.781 23.3061L95.7829 23.3084L95.7846 22.5084L94.7827 22.5061L94.781 23.3061ZM96.7848 23.3106L97.7867 23.3128L97.7885 22.5128L96.7866 22.5106L96.7848 23.3106ZM98.7886 23.315L99.7905 23.3173L99.7923 22.5173L98.7904 22.515L98.7886 23.315ZM100.792 23.3195L101.794 23.3217L101.796 22.5217L100.794 22.5195L100.792 23.3195ZM102.796 23.324L103.798 23.3262L103.8 22.5262L102.798 22.524L102.796 23.324ZM104.8 23.3284L105.802 23.3307L105.804 22.5307L104.802 22.5284L104.8 23.3284ZM106.804 23.3329L107.806 23.3351L107.807 22.5351L106.806 22.5329L106.804 23.3329ZM108.808 23.3373L109.81 23.3396L109.811 22.5396L108.809 22.5373L108.808 23.3373ZM110.811 23.3418L111.813 23.344L111.815 22.544L110.813 22.5418L110.811 23.3418ZM112.815 23.3463L113.817 23.3485L113.819 22.5485L112.817 22.5463L112.815 23.3463ZM114.819 23.3507L115.821 23.353L115.823 22.553L114.821 22.5507L114.819 23.3507ZM116.823 23.3552L117.825 23.3574L117.827 22.5574L116.825 22.5552L116.823 23.3552ZM118.827 23.3596L119.829 23.3619L119.83 22.5619L118.828 22.5596L118.827 23.3596ZM120.83 23.3641L121.832 23.3663L121.834 22.5663L120.832 22.5641L120.83 23.3641ZM122.834 23.3686L123.836 23.3708L123.838 22.5708L122.836 22.5686L122.834 23.3686ZM124.838 23.373L125.84 23.3753L125.842 22.5753L124.84 22.573L124.838 23.373ZM126.842 23.3775L127.844 23.3797L127.846 22.5797L126.844 22.5775L126.842 23.3775ZM128.846 23.3819L129.347 23.3831L129.348 22.5831L128.847 22.5819L128.846 23.3819ZM128.948 22.9831V23.4604H129.748V22.9831H128.948ZM128.948 24.4152V25.37H129.748V24.4152H128.948ZM128.948 26.3247V27.2795H129.748V26.3247H128.948ZM128.948 28.2343V29.189H129.748V28.2343H128.948ZM128.948 30.1438V31.0985H129.748V30.1438H128.948ZM128.948 32.0533V32.5307H129.748V32.0533H128.948Z" fill="#211433"/>
<path d="M87.0898 19.574H205.56V34.2345" stroke="#211433" stroke-width="0.8" stroke-dasharray="1 1"/>
<path d="M87.1226 16.2397H278.199V33.023" stroke="#211433" stroke-width="0.8" stroke-dasharray="1 1"/>
<path d="M87.2207 13.0554H353.684V33.023" stroke="#211433" stroke-width="0.8" stroke-dasharray="1 1"/>
<path d="M87.2583 10.0211L426.174 8.82227V33.0232" stroke="#211433" stroke-width="0.8" stroke-dasharray="1 1"/>
<path d="M87.2632 6.87402H510.046V33.023" stroke="#211433" stroke-width="0.8" stroke-dasharray="1 1"/>
<path d="M87.2769 3.65234H585.531V33.0231" stroke="#211433" stroke-width="0.8" stroke-dasharray="1 1"/>
<path d="M87.0898 0.655273H658.021V33.023" stroke="#211433" stroke-width="0.8" stroke-dasharray="1 1"/>
<path d="M53.2236 56.9993L58.2236 59.886L58.2236 54.1125L53.2236 56.9993ZM57.7236 57.4993L87.0899 57.4993L87.0899 56.4993L57.7236 56.4993L57.7236 57.4993Z" fill="#211433"/>
<path d="M87.0522 57.1865L87.0522 0.36499" stroke="#211433"/>
</g>
<path d="M663.116 82.324L658.786 89.824L667.446 89.824L663.116 82.324ZM662.366 89.074L662.366 101.505L663.866 101.505L663.866 89.074L662.366 89.074Z" fill="#7F54C8"/>
<path d="M663.116 150.094L658.786 157.594L667.446 157.594L663.116 150.094ZM662.366 156.844L662.366 169.275L663.866 169.275L663.866 156.844L662.366 156.844Z" fill="#7F54C8"/>
<path d="M663.116 217.864L658.786 225.364L667.446 225.364L663.116 217.864ZM662.366 224.614L662.366 237.045L663.866 237.045L663.866 224.614L662.366 224.614Z" fill="#7F54C8"/>
<path d="M663.116 285.634L658.786 293.134L667.446 293.134L663.116 285.634ZM662.366 292.384L662.366 304.815L663.866 304.815L663.866 292.384L662.366 292.384Z" fill="#7F54C8"/>
<path d="M663.116 353.404L658.786 360.904L667.446 360.904L663.116 353.404ZM662.366 360.154L662.366 372.585L663.866 372.585L663.866 360.154L662.366 360.154Z" fill="#7F54C8"/>
<path d="M591.188 82.324L586.857 89.824L595.518 89.824L591.188 82.324ZM590.438 89.074L590.438 101.505L591.938 101.505L591.938 89.074L590.438 89.074Z" fill="#7F54C8"/>
<path d="M591.188 150.094L586.857 157.594L595.518 157.594L591.188 150.094ZM590.438 156.844L590.438 169.275L591.938 169.275L591.938 156.844L590.438 156.844Z" fill="#7F54C8"/>
<path d="M591.188 217.864L586.857 225.364L595.518 225.364L591.188 217.864ZM590.438 224.614L590.438 237.045L591.938 237.045L591.938 224.614L590.438 224.614Z" fill="#7F54C8"/>
<path d="M591.188 285.634L586.857 293.134L595.518 293.134L591.188 285.634ZM590.438 292.384L590.438 304.815L591.938 304.815L591.938 292.384L590.438 292.384Z" fill="#7F54C8"/>
<path d="M591.188 353.404L586.857 360.904L595.518 360.904L591.188 353.404ZM590.438 360.154L590.438 372.585L591.938 372.585L591.938 360.154L590.438 360.154Z" fill="#7F54C8"/>
<path d="M516.861 82.324L512.531 89.824L521.191 89.824L516.861 82.324ZM516.111 89.074L516.111 101.505L517.611 101.505L517.611 89.074L516.111 89.074Z" fill="#7F54C8"/>
<path d="M516.861 150.094L512.531 157.594L521.191 157.594L516.861 150.094ZM516.111 156.844L516.111 169.275L517.611 169.275L517.611 156.844L516.111 156.844Z" fill="#7F54C8"/>
<path d="M516.861 217.864L512.531 225.364L521.191 225.364L516.861 217.864ZM516.111 224.614L516.111 237.045L517.611 237.045L517.611 224.614L516.111 224.614Z" fill="#7F54C8"/>
<path d="M516.861 285.634L512.531 293.134L521.191 293.134L516.861 285.634ZM516.111 292.384L516.111 304.815L517.611 304.815L517.611 292.384L516.111 292.384Z" fill="#7F54C8"/>
<path d="M516.861 353.404L512.531 360.904L521.191 360.904L516.861 353.404ZM516.111 360.154L516.111 372.585L517.611 372.585L517.611 360.154L516.111 360.154Z" fill="#7F54C8"/>
<path d="M432.945 82.324L428.615 89.824L437.275 89.824L432.945 82.324ZM432.195 89.074L432.195 101.505L433.695 101.505L433.695 89.074L432.195 89.074Z" fill="#7F54C8"/>
<path d="M432.945 150.094L428.615 157.594L437.275 157.594L432.945 150.094ZM432.195 156.844L432.195 169.275L433.695 169.275L433.695 156.844L432.195 156.844Z" fill="#7F54C8"/>
<path d="M432.945 217.864L428.615 225.364L437.275 225.364L432.945 217.864ZM432.195 224.614L432.195 237.045L433.695 237.045L433.695 224.614L432.195 224.614Z" fill="#7F54C8"/>
<path d="M432.945 285.634L428.615 293.134L437.275 293.134L432.945 285.634ZM432.195 292.384L432.195 304.815L433.695 304.815L433.695 292.384L432.195 292.384Z" fill="#7F54C8"/>
<path d="M432.945 353.404L428.615 360.904L437.275 360.904L432.945 353.404ZM432.195 360.154L432.195 372.585L433.695 372.585L433.695 360.154L432.195 360.154Z" fill="#7F54C8"/>
<path d="M359.219 82.324L354.889 89.824L363.549 89.824L359.219 82.324ZM358.469 89.074L358.469 101.505L359.969 101.505L359.969 89.074L358.469 89.074Z" fill="#7F54C8"/>
<path d="M359.219 150.094L354.889 157.594L363.549 157.594L359.219 150.094ZM358.469 156.844L358.469 169.275L359.969 169.275L359.969 156.844L358.469 156.844Z" fill="#7F54C8"/>
<path d="M359.219 217.864L354.889 225.364L363.549 225.364L359.219 217.864ZM358.469 224.614L358.469 237.045L359.969 237.045L359.969 224.614L358.469 224.614Z" fill="#7F54C8"/>
<path d="M359.219 285.634L354.889 293.134L363.549 293.134L359.219 285.634ZM358.469 292.384L358.469 304.815L359.969 304.815L359.969 292.384L358.469 292.384Z" fill="#7F54C8"/>
<path d="M359.219 353.404L354.889 360.904L363.549 360.904L359.219 353.404ZM358.469 360.154L358.469 372.585L359.969 372.585L359.969 360.154L358.469 360.154Z" fill="#7F54C8"/>
<path d="M283.095 82.324L278.765 89.824L287.425 89.824L283.095 82.324ZM282.345 89.074L282.345 101.505L283.845 101.505L283.845 89.074L282.345 89.074Z" fill="#7F54C8"/>
<path d="M283.095 150.094L278.765 157.594L287.425 157.594L283.095 150.094ZM282.345 156.844L282.345 169.275L283.845 169.275L283.845 156.844L282.345 156.844Z" fill="#7F54C8"/>
<path d="M283.095 217.864L278.765 225.364L287.425 225.364L283.095 217.864ZM282.345 224.614L282.345 237.045L283.845 237.045L283.845 224.614L282.345 224.614Z" fill="#7F54C8"/>
<path d="M283.095 285.634L278.765 293.134L287.425 293.134L283.095 285.634ZM282.345 292.384L282.345 304.815L283.845 304.815L283.845 292.384L282.345 292.384Z" fill="#7F54C8"/>
<path d="M283.095 353.404L278.765 360.904L287.425 360.904L283.095 353.404ZM282.345 360.154L282.345 372.585L283.845 372.585L283.845 360.154L282.345 360.154Z" fill="#7F54C8"/>
<path d="M211.166 82.324L206.836 89.824L215.496 89.824L211.166 82.324ZM210.416 89.074L210.416 101.505L211.916 101.505L211.916 89.074L210.416 89.074Z" fill="#7F54C8"/>
<path d="M211.166 150.094L206.836 157.594L215.496 157.594L211.166 150.094ZM210.416 156.844L210.416 169.275L211.916 169.275L211.916 156.844L210.416 156.844Z" fill="#7F54C8"/>
<path d="M211.166 217.864L206.836 225.364L215.496 225.364L211.166 217.864ZM210.416 224.614L210.416 237.045L211.916 237.045L211.916 224.614L210.416 224.614Z" fill="#7F54C8"/>
<path d="M211.166 285.634L206.836 293.134L215.496 293.134L211.166 285.634ZM210.416 292.384L210.416 304.815L211.916 304.815L211.916 292.384L210.416 292.384Z" fill="#7F54C8"/>
<path d="M211.166 353.404L206.836 360.904L215.496 360.904L211.166 353.404ZM210.416 360.154L210.416 372.585L211.916 372.585L211.916 360.154L210.416 360.154Z" fill="#7F54C8"/>
<path d="M133.244 82.324L128.914 89.824L137.574 89.824L133.244 82.324ZM132.494 89.074L132.494 101.505L133.994 101.505L133.994 89.074L132.494 89.074Z" fill="#7F54C8"/>
<path d="M133.244 150.094L128.914 157.594L137.574 157.594L133.244 150.094ZM132.494 156.844L132.494 169.275L133.994 169.275L133.994 156.844L132.494 156.844Z" fill="#7F54C8"/>
<path d="M133.244 217.864L128.914 225.364L137.574 225.364L133.244 217.864ZM132.494 224.614L132.494 237.045L133.994 237.045L133.994 224.614L132.494 224.614Z" fill="#7F54C8"/>
<path d="M133.244 285.634L128.914 293.134L137.574 293.134L133.244 285.634ZM132.494 292.384L132.494 304.815L133.994 304.815L133.994 292.384L132.494 292.384Z" fill="#7F54C8"/>
<path d="M133.244 353.404L128.914 360.904L137.574 360.904L133.244 353.404ZM132.494 360.154L132.494 372.585L133.994 372.585L133.994 360.154L132.494 360.154Z" fill="#7F54C8"/>
<defs>
<clipPath id="clip0_21_2583">
<rect x="0.476074" y="369.288" width="40.7594" height="53.3468" fill="white"/>
</clipPath>
<clipPath id="clip1_21_2583">
<rect x="0.476074" y="301.436" width="40.7594" height="53.3468" fill="white"/>
</clipPath>
<clipPath id="clip2_21_2583">
<rect x="0.476074" y="233.583" width="40.7594" height="53.3468" fill="white"/>
</clipPath>
<clipPath id="clip3_21_2583">
<rect x="0.476074" y="165.731" width="40.7594" height="53.3468" fill="white"/>
</clipPath>
<clipPath id="clip4_21_2583">
<rect x="0.476074" y="97.8784" width="40.7594" height="53.3468" fill="white"/>
</clipPath>
<clipPath id="clip5_21_2583">
<rect x="0.476074" y="30.0261" width="40.7594" height="53.3468" fill="white"/>
</clipPath>
</defs>
</svg>
