<svg width="724" height="388" viewBox="0 0 724 388" fill="none" xmlns="http://www.w3.org/2000/svg">
<rect x="45.5" y="1.5" width="386" height="44.203" rx="3.5" transform="rotate(90 45.5 1.5)" fill="#F4F1F7" stroke="#211433"/>
<path d="M44.9463 41.5312L1.81731 41.5312" stroke="#9B88BB" stroke-dasharray="2 2"/>
<path d="M44.9463 81.5312L1.81731 81.5312" stroke="#9B88BB" stroke-dasharray="2 2"/>
<path d="M44.9463 121.531L1.81731 121.531" stroke="#9B88BB" stroke-dasharray="2 2"/>
<path d="M44.9463 301.531L1.81731 301.531" stroke="#9B88BB" stroke-dasharray="2 2"/>
<path d="M44.9463 341.531L1.81731 341.531" stroke="#9B88BB" stroke-dasharray="2 2"/>
<path d="M24.818 236.7C24.938 236.7 25.118 236.715 25.253 236.73L25.253 243.18C26.648 243 27.578 241.875 27.578 240.3C27.578 239.37 27.263 238.59 26.618 238.005L27.548 237.21C28.388 237.93 28.838 239.025 28.838 240.345C28.838 242.91 27.143 244.62 24.773 244.62C22.418 244.62 20.723 242.925 20.723 240.63C20.723 238.335 22.373 236.7 24.818 236.7ZM21.938 240.63C21.938 242.01 22.868 243.03 24.218 243.18L24.218 238.08C22.883 238.23 21.938 239.235 21.938 240.63ZM20.723 230.455C20.723 228.52 21.833 227.155 24.173 227.155L28.748 227.155L28.748 228.595L24.338 228.595C22.778 228.595 22.013 229.375 22.013 230.74C22.013 232.27 22.928 233.26 24.653 233.26L28.748 233.26L28.748 234.7L20.798 234.7L20.798 233.32L21.998 233.32C21.188 232.735 20.723 231.715 20.723 230.455ZM28.838 220.982C28.838 223.427 27.143 225.182 24.773 225.182C22.403 225.182 20.723 223.427 20.723 220.982C20.723 219.557 21.308 218.372 22.418 217.742L23.123 218.837C22.343 219.347 21.983 220.127 21.983 220.997C21.983 222.557 23.078 223.727 24.773 223.727C26.498 223.727 27.578 222.557 27.578 220.997C27.578 220.127 27.218 219.347 26.438 218.837L27.128 217.742C28.238 218.372 28.838 219.557 28.838 220.982ZM28.838 212.589C28.838 214.974 27.143 216.729 24.773 216.729C22.403 216.729 20.723 214.974 20.723 212.589C20.723 210.204 22.403 208.464 24.773 208.464C27.143 208.464 28.838 210.204 28.838 212.589ZM27.578 212.589C27.578 211.059 26.468 209.919 24.773 209.919C23.078 209.919 21.983 211.059 21.983 212.589C21.983 214.119 23.078 215.274 24.773 215.274C26.468 215.274 27.578 214.119 27.578 212.589ZM17.618 200.413L17.618 198.973L28.748 198.973L28.748 200.353L27.488 200.353C28.388 200.998 28.838 202.018 28.838 203.188C28.838 205.513 27.203 207.208 24.773 207.208C22.343 207.208 20.723 205.513 20.723 203.188C20.723 202.063 21.143 201.073 21.998 200.413L17.618 200.413ZM27.578 203.068C27.578 201.553 26.468 200.398 24.773 200.398C23.078 200.398 21.983 201.553 21.983 203.068C21.983 204.598 23.078 205.753 24.773 205.753C26.468 205.753 27.578 204.598 27.578 203.068ZM19.268 195.528C19.268 196.083 18.863 196.503 18.338 196.503C17.813 196.503 17.393 196.083 17.393 195.528C17.393 194.973 17.798 194.553 18.308 194.553C18.848 194.553 19.268 194.958 19.268 195.528ZM28.748 196.248L20.798 196.248L20.798 194.808L28.748 194.808L28.748 196.248ZM20.723 187.814C20.723 185.879 21.833 184.514 24.173 184.514L28.748 184.514L28.748 185.954L24.338 185.954C22.778 185.954 22.013 186.734 22.013 188.099C22.013 189.629 22.928 190.619 24.653 190.619L28.748 190.619L28.748 192.059L20.798 192.059L20.798 190.679L21.998 190.679C21.188 190.094 20.723 189.074 20.723 187.814ZM20.798 175.565L20.798 174.2L27.668 174.2C30.473 174.2 31.748 175.625 31.748 178.325C31.748 179.78 31.343 181.25 30.563 182.12L29.453 181.43C30.083 180.695 30.488 179.54 30.488 178.37C30.488 176.495 29.618 175.64 27.818 175.64L27.188 175.64C28.013 176.33 28.418 177.365 28.418 178.505C28.418 180.8 26.858 182.54 24.563 182.54C22.268 182.54 20.723 180.8 20.723 178.505C20.723 177.32 21.158 176.24 22.028 175.565L20.798 175.565ZM27.158 178.34C27.158 176.75 26.093 175.61 24.563 175.61C23.018 175.61 21.983 176.75 21.983 178.34C21.983 179.945 23.018 181.085 24.563 181.085C26.093 181.085 27.158 179.945 27.158 178.34Z" fill="#211433"/>
<path d="M27.248 168.67L27.248 166.1L34.248 166.1L34.248 167.09L28.118 167.09L28.118 168.67L27.248 168.67Z" fill="#211433"/>
<rect x="122.5" y="1.5" width="386" height="44.203" rx="3.5" transform="rotate(90 122.5 1.5)" fill="#F4F1F7" stroke="#211433"/>
<path d="M121.946 41.5312L78.8173 41.5312" stroke="#9B88BB" stroke-dasharray="2 2"/>
<path d="M121.946 81.5312L78.8173 81.5312" stroke="#9B88BB" stroke-dasharray="2 2"/>
<path d="M121.946 121.531L78.8173 121.531" stroke="#9B88BB" stroke-dasharray="2 2"/>
<path d="M121.946 301.531L78.8173 301.531" stroke="#9B88BB" stroke-dasharray="2 2"/>
<path d="M121.946 341.531L78.8173 341.531" stroke="#9B88BB" stroke-dasharray="2 2"/>
<path d="M101.818 236.7C101.938 236.7 102.118 236.715 102.253 236.73L102.253 243.18C103.648 243 104.578 241.875 104.578 240.3C104.578 239.37 104.263 238.59 103.618 238.005L104.548 237.21C105.388 237.93 105.838 239.025 105.838 240.345C105.838 242.91 104.143 244.62 101.773 244.62C99.418 244.62 97.723 242.925 97.723 240.63C97.723 238.335 99.373 236.7 101.818 236.7ZM98.938 240.63C98.938 242.01 99.868 243.03 101.218 243.18L101.218 238.08C99.883 238.23 98.938 239.235 98.938 240.63ZM97.723 230.455C97.723 228.52 98.833 227.155 101.173 227.155L105.748 227.155L105.748 228.595L101.338 228.595C99.778 228.595 99.013 229.375 99.013 230.74C99.013 232.27 99.928 233.26 101.653 233.26L105.748 233.26L105.748 234.7L97.798 234.7L97.798 233.32L98.998 233.32C98.188 232.735 97.723 231.715 97.723 230.455ZM105.838 220.982C105.838 223.427 104.143 225.182 101.773 225.182C99.403 225.182 97.723 223.427 97.723 220.982C97.723 219.557 98.308 218.372 99.418 217.742L100.123 218.837C99.343 219.347 98.983 220.127 98.983 220.997C98.983 222.557 100.078 223.727 101.773 223.727C103.498 223.727 104.578 222.557 104.578 220.997C104.578 220.127 104.218 219.347 103.438 218.837L104.128 217.742C105.238 218.372 105.838 219.557 105.838 220.982ZM105.838 212.589C105.838 214.974 104.143 216.729 101.773 216.729C99.403 216.729 97.723 214.974 97.723 212.589C97.723 210.204 99.403 208.464 101.773 208.464C104.143 208.464 105.838 210.204 105.838 212.589ZM104.578 212.589C104.578 211.059 103.468 209.919 101.773 209.919C100.078 209.919 98.983 211.059 98.983 212.589C98.983 214.119 100.078 215.274 101.773 215.274C103.468 215.274 104.578 214.119 104.578 212.589ZM94.618 200.413L94.618 198.973L105.748 198.973L105.748 200.353L104.488 200.353C105.388 200.998 105.838 202.018 105.838 203.188C105.838 205.513 104.203 207.208 101.773 207.208C99.343 207.208 97.723 205.513 97.723 203.188C97.723 202.063 98.143 201.073 98.998 200.413L94.618 200.413ZM104.578 203.068C104.578 201.553 103.468 200.398 101.773 200.398C100.078 200.398 98.983 201.553 98.983 203.068C98.983 204.598 100.078 205.753 101.773 205.753C103.468 205.753 104.578 204.598 104.578 203.068ZM96.268 195.528C96.268 196.083 95.863 196.503 95.338 196.503C94.813 196.503 94.393 196.083 94.393 195.528C94.393 194.973 94.798 194.553 95.308 194.553C95.848 194.553 96.268 194.958 96.268 195.528ZM105.748 196.248L97.798 196.248L97.798 194.808L105.748 194.808L105.748 196.248ZM97.723 187.814C97.723 185.879 98.833 184.514 101.173 184.514L105.748 184.514L105.748 185.954L101.338 185.954C99.778 185.954 99.013 186.734 99.013 188.099C99.013 189.629 99.928 190.619 101.653 190.619L105.748 190.619L105.748 192.059L97.798 192.059L97.798 190.679L98.998 190.679C98.188 190.094 97.723 189.074 97.723 187.814ZM97.798 175.565L97.798 174.2L104.668 174.2C107.473 174.2 108.748 175.625 108.748 178.325C108.748 179.78 108.343 181.25 107.563 182.12L106.453 181.43C107.083 180.695 107.488 179.54 107.488 178.37C107.488 176.495 106.618 175.64 104.818 175.64L104.188 175.64C105.013 176.33 105.418 177.365 105.418 178.505C105.418 180.8 103.858 182.54 101.563 182.54C99.268 182.54 97.723 180.8 97.723 178.505C97.723 177.32 98.158 176.24 99.028 175.565L97.798 175.565ZM104.158 178.34C104.158 176.75 103.093 175.61 101.563 175.61C100.018 175.61 98.983 176.75 98.983 178.34C98.983 179.945 100.018 181.085 101.563 181.085C103.093 181.085 104.158 179.945 104.158 178.34Z" fill="#211433"/>
<path d="M104.928 165.36C104.928 165.73 104.658 166.01 104.308 166.01C103.958 166.01 103.678 165.73 103.678 165.36C103.678 164.99 103.948 164.71 104.288 164.71C104.648 164.71 104.928 164.98 104.928 165.36ZM111.248 165.84L105.948 165.84L105.948 164.88L111.248 164.88L111.248 165.84Z" fill="#211433"/>
<path d="M138.92 201.535C138.92 201.085 139.27 200.715 139.75 200.715C140.25 200.715 140.58 201.085 140.58 201.535C140.58 201.985 140.25 202.355 139.75 202.355C139.27 202.355 138.92 201.985 138.92 201.535Z" fill="white"/>
<path d="M138.92 206.74C138.92 206.29 139.27 205.92 139.75 205.92C140.25 205.92 140.58 206.29 140.58 206.74C140.58 207.19 140.25 207.56 139.75 207.56C139.27 207.56 138.92 207.19 138.92 206.74Z" fill="white"/>
<path d="M138.92 211.945C138.92 211.495 139.27 211.125 139.75 211.125C140.25 211.125 140.58 211.495 140.58 211.945C140.58 212.395 140.25 212.765 139.75 212.765C139.27 212.765 138.92 212.395 138.92 211.945Z" fill="white"/>
<path d="M60.4196 201.535C60.4196 201.085 60.7696 200.715 61.2496 200.715C61.7496 200.715 62.0796 201.085 62.0796 201.535C62.0796 201.985 61.7496 202.355 61.2496 202.355C60.7696 202.355 60.4196 201.985 60.4196 201.535Z" fill="white"/>
<path d="M60.4196 206.74C60.4196 206.29 60.7696 205.92 61.2496 205.92C61.7496 205.92 62.0796 206.29 62.0796 206.74C62.0796 207.19 61.7496 207.56 61.2496 207.56C60.7696 207.56 60.4196 207.19 60.4196 206.74Z" fill="white"/>
<path d="M60.4196 211.945C60.4196 211.495 60.7696 211.125 61.2496 211.125C61.7496 211.125 62.0796 211.495 62.0796 211.945C62.0796 212.395 61.7496 212.765 61.2496 212.765C60.7696 212.765 60.4196 212.395 60.4196 211.945Z" fill="white"/>
<rect x="201.5" y="1.5" width="386" height="44.203" rx="3.5" transform="rotate(90 201.5 1.5)" fill="#F4F1F7" stroke="#211433"/>
<path d="M200.946 41.5312L157.817 41.5312" stroke="#9B88BB" stroke-dasharray="2 2"/>
<path d="M200.946 81.5312L157.817 81.5312" stroke="#9B88BB" stroke-dasharray="2 2"/>
<path d="M200.946 121.531L157.817 121.531" stroke="#9B88BB" stroke-dasharray="2 2"/>
<path d="M200.946 301.531L157.817 301.531" stroke="#9B88BB" stroke-dasharray="2 2"/>
<path d="M200.946 341.531L157.817 341.531" stroke="#9B88BB" stroke-dasharray="2 2"/>
<path d="M180.818 236.7C180.938 236.7 181.118 236.715 181.253 236.73L181.253 243.18C182.648 243 183.578 241.875 183.578 240.3C183.578 239.37 183.263 238.59 182.618 238.005L183.548 237.21C184.388 237.93 184.838 239.025 184.838 240.345C184.838 242.91 183.143 244.62 180.773 244.62C178.418 244.62 176.723 242.925 176.723 240.63C176.723 238.335 178.373 236.7 180.818 236.7ZM177.938 240.63C177.938 242.01 178.868 243.03 180.218 243.18L180.218 238.08C178.883 238.23 177.938 239.235 177.938 240.63ZM176.723 230.455C176.723 228.52 177.833 227.155 180.173 227.155L184.748 227.155L184.748 228.595L180.338 228.595C178.778 228.595 178.013 229.375 178.013 230.74C178.013 232.27 178.928 233.26 180.653 233.26L184.748 233.26L184.748 234.7L176.798 234.7L176.798 233.32L177.998 233.32C177.188 232.735 176.723 231.715 176.723 230.455ZM184.838 220.982C184.838 223.427 183.143 225.182 180.773 225.182C178.403 225.182 176.723 223.427 176.723 220.982C176.723 219.557 177.308 218.372 178.418 217.742L179.123 218.837C178.343 219.347 177.983 220.127 177.983 220.997C177.983 222.557 179.078 223.727 180.773 223.727C182.498 223.727 183.578 222.557 183.578 220.997C183.578 220.127 183.218 219.347 182.438 218.837L183.128 217.742C184.238 218.372 184.838 219.557 184.838 220.982ZM184.838 212.589C184.838 214.974 183.143 216.729 180.773 216.729C178.403 216.729 176.723 214.974 176.723 212.589C176.723 210.204 178.403 208.464 180.773 208.464C183.143 208.464 184.838 210.204 184.838 212.589ZM183.578 212.589C183.578 211.059 182.468 209.919 180.773 209.919C179.078 209.919 177.983 211.059 177.983 212.589C177.983 214.119 179.078 215.274 180.773 215.274C182.468 215.274 183.578 214.119 183.578 212.589ZM173.618 200.413L173.618 198.973L184.748 198.973L184.748 200.353L183.488 200.353C184.388 200.998 184.838 202.018 184.838 203.188C184.838 205.513 183.203 207.208 180.773 207.208C178.343 207.208 176.723 205.513 176.723 203.188C176.723 202.063 177.143 201.073 177.998 200.413L173.618 200.413ZM183.578 203.068C183.578 201.553 182.468 200.398 180.773 200.398C179.078 200.398 177.983 201.553 177.983 203.068C177.983 204.598 179.078 205.753 180.773 205.753C182.468 205.753 183.578 204.598 183.578 203.068ZM175.268 195.528C175.268 196.083 174.863 196.503 174.338 196.503C173.813 196.503 173.393 196.083 173.393 195.528C173.393 194.973 173.798 194.553 174.308 194.553C174.848 194.553 175.268 194.958 175.268 195.528ZM184.748 196.248L176.798 196.248L176.798 194.808L184.748 194.808L184.748 196.248ZM176.723 187.814C176.723 185.879 177.833 184.514 180.173 184.514L184.748 184.514L184.748 185.954L180.338 185.954C178.778 185.954 178.013 186.734 178.013 188.099C178.013 189.629 178.928 190.619 180.653 190.619L184.748 190.619L184.748 192.059L176.798 192.059L176.798 190.679L177.998 190.679C177.188 190.094 176.723 189.074 176.723 187.814ZM176.798 175.565L176.798 174.2L183.668 174.2C186.473 174.2 187.748 175.625 187.748 178.325C187.748 179.78 187.343 181.25 186.563 182.12L185.453 181.43C186.083 180.695 186.488 179.54 186.488 178.37C186.488 176.495 185.618 175.64 183.818 175.64L183.188 175.64C184.013 176.33 184.418 177.365 184.418 178.505C184.418 180.8 182.858 182.54 180.563 182.54C178.268 182.54 176.723 180.8 176.723 178.505C176.723 177.32 177.158 176.24 178.028 175.565L176.798 175.565ZM183.158 178.34C183.158 176.75 182.093 175.61 180.563 175.61C179.018 175.61 177.983 176.75 177.983 178.34C177.983 179.945 179.018 181.085 180.563 181.085C182.093 181.085 183.158 179.945 183.158 178.34Z" fill="#211433"/>
<path d="M184.898 161.21C184.898 159.92 185.638 159.04 187.198 159.04L190.248 159.04L190.248 160L187.308 160C186.268 160 185.758 160.5 185.758 161.37C185.758 162.33 186.368 162.96 187.518 162.96L190.248 162.96L190.248 163.92L187.308 163.92C186.268 163.92 185.758 164.42 185.758 165.29C185.758 166.25 186.368 166.88 187.518 166.88L190.248 166.88L190.248 167.84L184.948 167.84L184.948 166.92L185.738 166.92C185.198 166.54 184.898 165.89 184.898 165.09C184.898 164.28 185.218 163.6 185.878 163.25C185.278 162.85 184.898 162.11 184.898 161.21Z" fill="#211433"/>
<rect x="238.967" y="1.47583" width="168.533" height="37.8316" rx="18.9158" fill="#7F54C8" stroke="white"/>
<rect x="238.967" y="1.47583" width="38.3248" height="37.8316" rx="18.9158" fill="#7F54C8" stroke="white"/>
<path d="M304.708 24.8431C303.388 24.8431 302.083 24.4381 301.423 23.9131L302.023 22.7731C302.698 23.2531 303.778 23.5981 304.813 23.5981C306.148 23.5981 306.703 23.1931 306.703 22.5181C306.703 20.7331 301.678 22.2781 301.678 19.1131C301.678 17.6881 302.953 16.7281 304.993 16.7281C306.028 16.7281 307.198 16.9981 307.888 17.4481L307.273 18.5881C306.553 18.1231 305.758 17.9581 304.978 17.9581C303.718 17.9581 303.103 18.4231 303.103 19.0531C303.103 20.9281 308.143 19.3981 308.143 22.4881C308.143 23.9281 306.823 24.8431 304.708 24.8431ZM308.578 25.6831L308.578 24.7531H316.078L316.078 25.6831H308.578ZM321.658 16.7281C323.983 16.7281 325.678 18.3481 325.678 20.7781C325.678 23.2081 323.983 24.8431 321.658 24.8431C320.488 24.8431 319.468 24.3931 318.823 23.4931L318.823 24.7531H317.443L317.443 13.6231H318.883L318.883 18.0031C319.543 17.1481 320.533 16.7281 321.658 16.7281ZM321.538 23.5831C323.068 23.5831 324.223 22.4731 324.223 20.7781C324.223 19.0831 323.068 17.9881 321.538 17.9881C320.023 17.9881 318.868 19.0831 318.868 20.7781C318.868 22.4731 320.023 23.5831 321.538 23.5831ZM333.637 16.8031H335.077L335.077 24.7531H333.712L333.712 23.5531C333.127 24.3781 332.137 24.8431 331.012 24.8431C328.957 24.8431 327.592 23.7181 327.592 21.3781L327.592 16.8031H329.032L329.032 21.2131C329.032 22.7731 329.812 23.5531 331.177 23.5531C332.677 23.5531 333.637 22.6231 333.637 20.9131L333.637 16.8031ZM341.284 24.8431C338.839 24.8431 337.084 23.1481 337.084 20.7781C337.084 18.4081 338.839 16.7281 341.284 16.7281C342.709 16.7281 343.894 17.3131 344.524 18.4231L343.429 19.1281C342.919 18.3481 342.139 17.9881 341.269 17.9881C339.709 17.9881 338.539 19.0831 338.539 20.7781C338.539 22.5031 339.709 23.5831 341.269 23.5831C342.139 23.5831 342.919 23.2231 343.429 22.4431L344.524 23.1331C343.894 24.2431 342.709 24.8431 341.284 24.8431ZM352.36 24.7531L349.375 21.0481L347.725 22.5781L347.725 24.7531H346.285L346.285 13.6231H347.725L347.725 20.7631L352.06 16.8031H353.8L350.455 20.0881L354.13 24.7531H352.36ZM362.377 20.8231C362.377 20.9431 362.362 21.1231 362.347 21.2581H355.897C356.077 22.6531 357.202 23.5831 358.777 23.5831C359.707 23.5831 360.487 23.2681 361.072 22.6231L361.867 23.5531C361.147 24.3931 360.052 24.8431 358.732 24.8431C356.167 24.8431 354.457 23.1481 354.457 20.7781C354.457 18.4231 356.152 16.7281 358.447 16.7281C360.742 16.7281 362.377 18.3781 362.377 20.8231ZM358.447 17.9431C357.067 17.9431 356.047 18.8731 355.897 20.2231H360.997C360.847 18.8881 359.842 17.9431 358.447 17.9431ZM368.396 23.2531L368.846 24.2881C368.411 24.6631 367.751 24.8431 367.106 24.8431C365.501 24.8431 364.586 23.9581 364.586 22.3531L364.586 17.9881H363.236L363.236 16.8031H364.586L364.586 15.0631H366.026L366.026 16.8031H368.306L368.306 17.9881H366.026L366.026 22.2931C366.026 23.1481 366.476 23.6281 367.271 23.6281C367.691 23.6281 368.096 23.4931 368.396 23.2531Z" fill="white"/>
<path d="M373.708 20.5586H376.278L376.278 27.5586H375.288L375.288 21.4286H373.708L373.708 20.5586Z" fill="white"/>
<path d="M262.011 20.3916L257.011 17.5049V23.2784L262.011 20.3916ZM202 20.8916H257.511V19.8916H202V20.8916Z" fill="white"/>
<rect x="238.967" y="43.4758" width="168.533" height="37.8316" rx="18.9158" fill="#7F54C8" stroke="white"/>
<rect x="238.967" y="43.4758" width="38.3248" height="37.8316" rx="18.9158" fill="#7F54C8" stroke="white"/>
<path d="M304.708 66.8431C303.388 66.8431 302.083 66.4381 301.423 65.9131L302.023 64.7731C302.698 65.2531 303.778 65.5981 304.813 65.5981C306.148 65.5981 306.703 65.1931 306.703 64.5181C306.703 62.7331 301.678 64.2781 301.678 61.1131C301.678 59.6881 302.953 58.7281 304.993 58.7281C306.028 58.7281 307.198 58.9981 307.888 59.4481L307.273 60.5881C306.553 60.1231 305.758 59.9581 304.978 59.9581C303.718 59.9581 303.103 60.4231 303.103 61.0531C303.103 62.9281 308.143 61.3981 308.143 64.4881C308.143 65.9281 306.823 66.8431 304.708 66.8431ZM308.578 67.6831L308.578 66.7531H316.078L316.078 67.6831H308.578ZM321.658 58.7281C323.983 58.7281 325.678 60.3481 325.678 62.7781C325.678 65.2081 323.983 66.8431 321.658 66.8431C320.488 66.8431 319.468 66.3931 318.823 65.4931L318.823 66.7531H317.443L317.443 55.6231H318.883L318.883 60.0031C319.543 59.1481 320.533 58.7281 321.658 58.7281ZM321.538 65.5831C323.068 65.5831 324.223 64.4731 324.223 62.7781C324.223 61.0831 323.068 59.9881 321.538 59.9881C320.023 59.9881 318.868 61.0831 318.868 62.7781C318.868 64.4731 320.023 65.5831 321.538 65.5831ZM333.637 58.8031H335.077L335.077 66.7531H333.712L333.712 65.5531C333.127 66.3781 332.137 66.8431 331.012 66.8431C328.957 66.8431 327.592 65.7181 327.592 63.3781L327.592 58.8031H329.032L329.032 63.2131C329.032 64.7731 329.812 65.5531 331.177 65.5531C332.677 65.5531 333.637 64.6231 333.637 62.9131L333.637 58.8031ZM341.284 66.8431C338.839 66.8431 337.084 65.1481 337.084 62.7781C337.084 60.4081 338.839 58.7281 341.284 58.7281C342.709 58.7281 343.894 59.3131 344.524 60.4231L343.429 61.1281C342.919 60.3481 342.139 59.9881 341.269 59.9881C339.709 59.9881 338.539 61.0831 338.539 62.7781C338.539 64.5031 339.709 65.5831 341.269 65.5831C342.139 65.5831 342.919 65.2231 343.429 64.4431L344.524 65.1331C343.894 66.2431 342.709 66.8431 341.284 66.8431ZM352.36 66.7531L349.375 63.0481L347.725 64.5781L347.725 66.7531H346.285L346.285 55.6231H347.725L347.725 62.7631L352.06 58.8031H353.8L350.455 62.0881L354.13 66.7531H352.36ZM362.377 62.8231C362.377 62.9431 362.362 63.1231 362.347 63.2581H355.897C356.077 64.6531 357.202 65.5831 358.777 65.5831C359.707 65.5831 360.487 65.2681 361.072 64.6231L361.867 65.5531C361.147 66.3931 360.052 66.8431 358.732 66.8431C356.167 66.8431 354.457 65.1481 354.457 62.7781C354.457 60.4231 356.152 58.7281 358.447 58.7281C360.742 58.7281 362.377 60.3781 362.377 62.8231ZM358.447 59.9431C357.067 59.9431 356.047 60.8731 355.897 62.2231H360.997C360.847 60.8881 359.842 59.9431 358.447 59.9431ZM368.396 65.2531L368.846 66.2881C368.411 66.6631 367.751 66.8431 367.106 66.8431C365.501 66.8431 364.586 65.9581 364.586 64.3531L364.586 59.9881H363.236L363.236 58.8031H364.586L364.586 57.0631H366.026L366.026 58.8031L368.306 58.8031L368.306 59.9881L366.026 59.9881L366.026 64.2931C366.026 65.1481 366.476 65.6281 367.271 65.6281C367.691 65.6281 368.096 65.4931 368.396 65.2531Z" fill="white"/>
<path d="M375.438 68.6886H379.028L379.028 69.5586H373.998L373.998 68.8786L376.848 66.1286C377.588 65.4086 377.728 64.9686 377.728 64.5286C377.728 63.8086 377.218 63.3686 376.238 63.3686C375.488 63.3686 374.878 63.6086 374.448 64.1286L373.768 63.5386C374.308 62.8686 375.238 62.4786 376.328 62.4786C377.788 62.4786 378.728 63.2286 378.728 64.4286C378.728 65.1086 378.528 65.7186 377.578 66.6286L375.438 68.6886Z" fill="white"/>
<path d="M262.011 62.3916L257.011 59.5049V65.2784L262.011 62.3916ZM202 62.8916H257.511V61.8916H202V62.8916Z" fill="white"/>
<rect x="238.967" y="86.4758" width="168.533" height="37.8316" rx="18.9158" fill="#7F54C8" stroke="white"/>
<rect x="238.967" y="86.4758" width="38.3248" height="37.8316" rx="18.9158" fill="#7F54C8" stroke="white"/>
<path d="M304.708 109.843C303.388 109.843 302.083 109.438 301.423 108.913L302.023 107.773C302.698 108.253 303.778 108.598 304.813 108.598C306.148 108.598 306.703 108.193 306.703 107.518C306.703 105.733 301.678 107.278 301.678 104.113C301.678 102.688 302.953 101.728 304.993 101.728C306.028 101.728 307.198 101.998 307.888 102.448L307.273 103.588C306.553 103.123 305.758 102.958 304.978 102.958C303.718 102.958 303.103 103.423 303.103 104.053C303.103 105.928 308.143 104.398 308.143 107.488C308.143 108.928 306.823 109.843 304.708 109.843ZM308.578 110.683L308.578 109.753H316.078L316.078 110.683H308.578ZM321.658 101.728C323.983 101.728 325.678 103.348 325.678 105.778C325.678 108.208 323.983 109.843 321.658 109.843C320.488 109.843 319.468 109.393 318.823 108.493L318.823 109.753H317.443L317.443 98.6231H318.883L318.883 103.003C319.543 102.148 320.533 101.728 321.658 101.728ZM321.538 108.583C323.068 108.583 324.223 107.473 324.223 105.778C324.223 104.083 323.068 102.988 321.538 102.988C320.023 102.988 318.868 104.083 318.868 105.778C318.868 107.473 320.023 108.583 321.538 108.583ZM333.637 101.803H335.077L335.077 109.753H333.712L333.712 108.553C333.127 109.378 332.137 109.843 331.012 109.843C328.957 109.843 327.592 108.718 327.592 106.378L327.592 101.803H329.032L329.032 106.213C329.032 107.773 329.812 108.553 331.177 108.553C332.677 108.553 333.637 107.623 333.637 105.913L333.637 101.803ZM341.284 109.843C338.839 109.843 337.084 108.148 337.084 105.778C337.084 103.408 338.839 101.728 341.284 101.728C342.709 101.728 343.894 102.313 344.524 103.423L343.429 104.128C342.919 103.348 342.139 102.988 341.269 102.988C339.709 102.988 338.539 104.083 338.539 105.778C338.539 107.503 339.709 108.583 341.269 108.583C342.139 108.583 342.919 108.223 343.429 107.443L344.524 108.133C343.894 109.243 342.709 109.843 341.284 109.843ZM352.36 109.753L349.375 106.048L347.725 107.578L347.725 109.753H346.285L346.285 98.6231H347.725L347.725 105.763L352.06 101.803H353.8L350.455 105.088L354.13 109.753H352.36ZM362.377 105.823C362.377 105.943 362.362 106.123 362.347 106.258H355.897C356.077 107.653 357.202 108.583 358.777 108.583C359.707 108.583 360.487 108.268 361.072 107.623L361.867 108.553C361.147 109.393 360.052 109.843 358.732 109.843C356.167 109.843 354.457 108.148 354.457 105.778C354.457 103.423 356.152 101.728 358.447 101.728C360.742 101.728 362.377 103.378 362.377 105.823ZM358.447 102.943C357.067 102.943 356.047 103.873 355.897 105.223H360.997C360.847 103.888 359.842 102.943 358.447 102.943ZM368.396 108.253L368.846 109.288C368.411 109.663 367.751 109.843 367.106 109.843C365.501 109.843 364.586 108.958 364.586 107.353L364.586 102.988H363.236L363.236 101.803H364.586L364.586 100.063H366.026L366.026 101.803H368.306L368.306 102.988H366.026L366.026 107.293C366.026 108.148 366.476 108.628 367.271 108.628C367.691 108.628 368.096 108.493 368.396 108.253Z" fill="white"/>
<path d="M376.788 108.499C378.188 108.629 378.898 109.419 378.898 110.499C378.898 111.679 378.028 112.639 376.248 112.639C375.248 112.639 374.268 112.319 373.678 111.789L374.138 110.999C374.608 111.439 375.388 111.749 376.248 111.749C377.298 111.749 377.898 111.269 377.898 110.509C377.898 109.769 377.368 109.289 376.168 109.289H375.608L375.608 108.589L377.368 106.429H373.998L373.998 105.559H378.618L378.618 106.239L376.788 108.499Z" fill="white"/>
<path d="M262.011 105.392L257.011 102.505V108.278L262.011 105.392ZM202 105.892H257.511V104.892H202V105.892Z" fill="white"/>
<rect x="238.967" y="260.476" width="168.533" height="37.8316" rx="18.9158" fill="#7F54C8" stroke="white"/>
<rect x="238.967" y="260.476" width="38.3248" height="37.8316" rx="18.9158" fill="#7F54C8" stroke="white"/>
<path d="M304.708 283.843C303.388 283.843 302.083 283.438 301.423 282.913L302.023 281.773C302.698 282.253 303.778 282.598 304.813 282.598C306.148 282.598 306.703 282.193 306.703 281.518C306.703 279.733 301.678 281.278 301.678 278.113C301.678 276.688 302.953 275.728 304.993 275.728C306.028 275.728 307.198 275.998 307.888 276.448L307.273 277.588C306.553 277.123 305.758 276.958 304.978 276.958C303.718 276.958 303.103 277.423 303.103 278.053C303.103 279.928 308.143 278.398 308.143 281.488C308.143 282.928 306.823 283.843 304.708 283.843ZM308.578 284.683L308.578 283.753H316.078L316.078 284.683H308.578ZM321.658 275.728C323.983 275.728 325.678 277.348 325.678 279.778C325.678 282.208 323.983 283.843 321.658 283.843C320.488 283.843 319.468 283.393 318.823 282.493L318.823 283.753H317.443L317.443 272.623H318.883L318.883 277.003C319.543 276.148 320.533 275.728 321.658 275.728ZM321.538 282.583C323.068 282.583 324.223 281.473 324.223 279.778C324.223 278.083 323.068 276.988 321.538 276.988C320.023 276.988 318.868 278.083 318.868 279.778C318.868 281.473 320.023 282.583 321.538 282.583ZM333.637 275.803H335.077L335.077 283.753H333.712L333.712 282.553C333.127 283.378 332.137 283.843 331.012 283.843C328.957 283.843 327.592 282.718 327.592 280.378L327.592 275.803H329.032L329.032 280.213C329.032 281.773 329.812 282.553 331.177 282.553C332.677 282.553 333.637 281.623 333.637 279.913L333.637 275.803ZM341.284 283.843C338.839 283.843 337.084 282.148 337.084 279.778C337.084 277.408 338.839 275.728 341.284 275.728C342.709 275.728 343.894 276.313 344.524 277.423L343.429 278.128C342.919 277.348 342.139 276.988 341.269 276.988C339.709 276.988 338.539 278.083 338.539 279.778C338.539 281.503 339.709 282.583 341.269 282.583C342.139 282.583 342.919 282.223 343.429 281.443L344.524 282.133C343.894 283.243 342.709 283.843 341.284 283.843ZM352.36 283.753L349.375 280.048L347.725 281.578L347.725 283.753H346.285L346.285 272.623H347.725L347.725 279.763L352.06 275.803H353.8L350.455 279.088L354.13 283.753H352.36ZM362.377 279.823C362.377 279.943 362.362 280.123 362.347 280.258H355.897C356.077 281.653 357.202 282.583 358.777 282.583C359.707 282.583 360.487 282.268 361.072 281.623L361.867 282.553C361.147 283.393 360.052 283.843 358.732 283.843C356.167 283.843 354.457 282.148 354.457 279.778C354.457 277.423 356.152 275.728 358.447 275.728C360.742 275.728 362.377 277.378 362.377 279.823ZM358.447 276.943C357.067 276.943 356.047 277.873 355.897 279.223H360.997C360.847 277.888 359.842 276.943 358.447 276.943ZM368.396 282.253L368.846 283.288C368.411 283.663 367.751 283.843 367.106 283.843C365.501 283.843 364.586 282.958 364.586 281.353L364.586 276.988H363.236L363.236 275.803H364.586L364.586 274.063H366.026L366.026 275.803H368.306L368.306 276.988H366.026L366.026 281.293C366.026 282.148 366.476 282.628 367.271 282.628C367.691 282.628 368.096 282.493 368.396 282.253Z" fill="white"/>
<path d="M374.678 286.559L374.678 279.559H375.678L375.678 286.559H374.678ZM377.294 284.229L377.294 283.399H379.984L379.984 284.229H377.294ZM382.235 285.689H385.825L385.825 286.559H380.795L380.795 285.879L383.645 283.129C384.385 282.409 384.525 281.969 384.525 281.529C384.525 280.809 384.015 280.369 383.035 280.369C382.285 280.369 381.675 280.609 381.245 281.129L380.565 280.539C381.105 279.869 382.035 279.479 383.125 279.479C384.585 279.479 385.525 280.229 385.525 281.429C385.525 282.109 385.325 282.719 384.375 283.629L382.235 285.689Z" fill="white"/>
<path d="M262.011 279.392L257.011 276.505V282.278L262.011 279.392ZM202 279.892H257.511V278.892H202V279.892Z" fill="white"/>
<rect x="238.967" y="302.476" width="168.533" height="37.8316" rx="18.9158" fill="#7F54C8" stroke="white"/>
<rect x="238.967" y="302.476" width="38.3248" height="37.8316" rx="18.9158" fill="#7F54C8" stroke="white"/>
<path d="M304.708 325.843C303.388 325.843 302.083 325.438 301.423 324.913L302.023 323.773C302.698 324.253 303.778 324.598 304.813 324.598C306.148 324.598 306.703 324.193 306.703 323.518C306.703 321.733 301.678 323.278 301.678 320.113C301.678 318.688 302.953 317.728 304.993 317.728C306.028 317.728 307.198 317.998 307.888 318.448L307.273 319.588C306.553 319.123 305.758 318.958 304.978 318.958C303.718 318.958 303.103 319.423 303.103 320.053C303.103 321.928 308.143 320.398 308.143 323.488C308.143 324.928 306.823 325.843 304.708 325.843ZM308.578 326.683L308.578 325.753H316.078L316.078 326.683H308.578ZM321.658 317.728C323.983 317.728 325.678 319.348 325.678 321.778C325.678 324.208 323.983 325.843 321.658 325.843C320.488 325.843 319.468 325.393 318.823 324.493L318.823 325.753H317.443L317.443 314.623H318.883L318.883 319.003C319.543 318.148 320.533 317.728 321.658 317.728ZM321.538 324.583C323.068 324.583 324.223 323.473 324.223 321.778C324.223 320.083 323.068 318.988 321.538 318.988C320.023 318.988 318.868 320.083 318.868 321.778C318.868 323.473 320.023 324.583 321.538 324.583ZM333.637 317.803H335.077L335.077 325.753H333.712L333.712 324.553C333.127 325.378 332.137 325.843 331.012 325.843C328.957 325.843 327.592 324.718 327.592 322.378L327.592 317.803H329.032L329.032 322.213C329.032 323.773 329.812 324.553 331.177 324.553C332.677 324.553 333.637 323.623 333.637 321.913L333.637 317.803ZM341.284 325.843C338.839 325.843 337.084 324.148 337.084 321.778C337.084 319.408 338.839 317.728 341.284 317.728C342.709 317.728 343.894 318.313 344.524 319.423L343.429 320.128C342.919 319.348 342.139 318.988 341.269 318.988C339.709 318.988 338.539 320.083 338.539 321.778C338.539 323.503 339.709 324.583 341.269 324.583C342.139 324.583 342.919 324.223 343.429 323.443L344.524 324.133C343.894 325.243 342.709 325.843 341.284 325.843ZM352.36 325.753L349.375 322.048L347.725 323.578L347.725 325.753H346.285L346.285 314.623H347.725L347.725 321.763L352.06 317.803H353.8L350.455 321.088L354.13 325.753H352.36ZM362.377 321.823C362.377 321.943 362.362 322.123 362.347 322.258H355.897C356.077 323.653 357.202 324.583 358.777 324.583C359.707 324.583 360.487 324.268 361.072 323.623L361.867 324.553C361.147 325.393 360.052 325.843 358.732 325.843C356.167 325.843 354.457 324.148 354.457 321.778C354.457 319.423 356.152 317.728 358.447 317.728C360.742 317.728 362.377 319.378 362.377 321.823ZM358.447 318.943C357.067 318.943 356.047 319.873 355.897 321.223H360.997C360.847 319.888 359.842 318.943 358.447 318.943ZM368.396 324.253L368.846 325.288C368.411 325.663 367.751 325.843 367.106 325.843C365.501 325.843 364.586 324.958 364.586 323.353L364.586 318.988H363.236L363.236 317.803H364.586L364.586 316.063H366.026L366.026 317.803H368.306L368.306 318.988H366.026L366.026 323.293C366.026 324.148 366.476 324.628 367.271 324.628C367.691 324.628 368.096 324.493 368.396 324.253Z" fill="white"/>
<path d="M374.678 328.559L374.678 321.559H375.678L375.678 328.559H374.678ZM377.294 326.229L377.294 325.399H379.984L379.984 326.229H377.294ZM380.456 321.559H383.026L383.026 328.559H382.036L382.036 322.429H380.456L380.456 321.559Z" fill="white"/>
<path d="M262.011 321.392L257.011 318.505V324.278L262.011 321.392ZM202 321.892H257.511V320.892H202V321.892Z" fill="white"/>
<rect x="238.967" y="345.476" width="168.533" height="37.8316" rx="18.9158" fill="#7F54C8" stroke="white"/>
<rect x="238.967" y="345.476" width="38.3248" height="37.8316" rx="18.9158" fill="#7F54C8" stroke="white"/>
<path d="M304.708 368.843C303.388 368.843 302.083 368.438 301.423 367.913L302.023 366.773C302.698 367.253 303.778 367.598 304.813 367.598C306.148 367.598 306.703 367.193 306.703 366.518C306.703 364.733 301.678 366.278 301.678 363.113C301.678 361.688 302.953 360.728 304.993 360.728C306.028 360.728 307.198 360.998 307.888 361.448L307.273 362.588C306.553 362.123 305.758 361.958 304.978 361.958C303.718 361.958 303.103 362.423 303.103 363.053C303.103 364.928 308.143 363.398 308.143 366.488C308.143 367.928 306.823 368.843 304.708 368.843ZM308.578 369.683L308.578 368.753H316.078L316.078 369.683H308.578ZM321.658 360.728C323.983 360.728 325.678 362.348 325.678 364.778C325.678 367.208 323.983 368.843 321.658 368.843C320.488 368.843 319.468 368.393 318.823 367.493L318.823 368.753H317.443L317.443 357.623H318.883L318.883 362.003C319.543 361.148 320.533 360.728 321.658 360.728ZM321.538 367.583C323.068 367.583 324.223 366.473 324.223 364.778C324.223 363.083 323.068 361.988 321.538 361.988C320.023 361.988 318.868 363.083 318.868 364.778C318.868 366.473 320.023 367.583 321.538 367.583ZM333.637 360.803H335.077L335.077 368.753H333.712L333.712 367.553C333.127 368.378 332.137 368.843 331.012 368.843C328.957 368.843 327.592 367.718 327.592 365.378L327.592 360.803H329.032L329.032 365.213C329.032 366.773 329.812 367.553 331.177 367.553C332.677 367.553 333.637 366.623 333.637 364.913L333.637 360.803ZM341.284 368.843C338.839 368.843 337.084 367.148 337.084 364.778C337.084 362.408 338.839 360.728 341.284 360.728C342.709 360.728 343.894 361.313 344.524 362.423L343.429 363.128C342.919 362.348 342.139 361.988 341.269 361.988C339.709 361.988 338.539 363.083 338.539 364.778C338.539 366.503 339.709 367.583 341.269 367.583C342.139 367.583 342.919 367.223 343.429 366.443L344.524 367.133C343.894 368.243 342.709 368.843 341.284 368.843ZM352.36 368.753L349.375 365.048L347.725 366.578L347.725 368.753H346.285L346.285 357.623H347.725L347.725 364.763L352.06 360.803H353.8L350.455 364.088L354.13 368.753H352.36ZM362.377 364.823C362.377 364.943 362.362 365.123 362.347 365.258H355.897C356.077 366.653 357.202 367.583 358.777 367.583C359.707 367.583 360.487 367.268 361.072 366.623L361.867 367.553C361.147 368.393 360.052 368.843 358.732 368.843C356.167 368.843 354.457 367.148 354.457 364.778C354.457 362.423 356.152 360.728 358.447 360.728C360.742 360.728 362.377 362.378 362.377 364.823ZM358.447 361.943C357.067 361.943 356.047 362.873 355.897 364.223H360.997C360.847 362.888 359.842 361.943 358.447 361.943ZM368.396 367.253L368.846 368.288C368.411 368.663 367.751 368.843 367.106 368.843C365.501 368.843 364.586 367.958 364.586 366.353L364.586 361.988H363.236L363.236 360.803H364.586L364.586 359.063H366.026L366.026 360.803H368.306L368.306 361.988H366.026L366.026 366.293C366.026 367.148 366.476 367.628 367.271 367.628C367.691 367.628 368.096 367.493 368.396 367.253Z" fill="white"/>
<path d="M374.678 371.559L374.678 364.559H375.678L375.678 371.559H374.678Z" fill="white"/>
<path d="M262.011 364.392L257.011 361.505V367.278L262.011 364.392ZM202 364.892H257.511V363.892H202V364.892Z" fill="white"/>
<path d="M339.746 188.965C340.709 188.965 341.5 189.713 341.5 190.74C341.5 191.809 340.709 192.515 339.746 192.515C338.783 192.515 337.992 191.809 337.992 190.74C337.992 189.713 338.783 188.965 339.746 188.965Z" fill="white"/>
<path d="M328.612 188.965C329.575 188.965 330.366 189.713 330.366 190.74C330.366 191.809 329.575 192.515 328.612 192.515C327.65 192.515 326.858 191.809 326.858 190.74C326.858 189.713 327.65 188.965 328.612 188.965Z" fill="white"/>
<path d="M317.479 188.965C318.441 188.965 319.233 189.713 319.233 190.74C319.233 191.809 318.441 192.515 317.479 192.515C316.516 192.515 315.725 191.809 315.725 190.74C315.725 189.713 316.516 188.965 317.479 188.965Z" fill="white"/>
<path d="M505.5 92.866L503.345 87.5099L499.784 92.0546L505.5 92.866ZM412.192 20.3936L501.649 90.4842L502.266 89.697L412.808 19.6064L412.192 20.3936Z" fill="white"/>
<path d="M484 116.5L481.669 111.218L478.26 115.878L484 116.5ZM411.939 64.4035L480.073 114.247L480.663 113.44L412.529 63.5965L411.939 64.4035Z" fill="white"/>
<path d="M470.5 150.124L468.169 144.842L464.76 149.502L470.5 150.124ZM411.205 107.367L466.573 147.871L467.163 147.064L411.795 106.56L411.205 107.367Z" fill="white"/>
<path d="M505.5 288.258L503.345 293.614L499.784 289.069L505.5 288.258ZM412.192 360.73L501.649 290.64L502.266 291.427L412.808 361.518L412.192 360.73Z" fill="white"/>
<path d="M484 264.624L481.669 269.906L478.26 265.246L484 264.624ZM411.939 316.72L480.073 266.877L480.663 267.684L412.529 317.528L411.939 316.72Z" fill="white"/>
<path d="M470.5 231L468.169 236.282L464.76 231.622L470.5 231ZM411.205 273.757L466.573 233.253L467.163 234.06L411.795 274.564L411.205 273.757Z" fill="white"/>
<circle cx="584" cy="187" r="109.5" fill="white" stroke="black"/>
<path d="M547.947 83.0764C527.392 90.2072 509.414 103.273 496.286 120.621C483.157 137.97 475.468 158.821 474.19 180.54C472.913 202.258 478.104 223.868 489.108 242.636C500.111 261.404 516.433 276.487 536.009 285.979L584.001 187L547.947 83.0764Z" fill="#7EC8A2"/>
<path d="M499.091 177.495H504.425V179.315H496.837V169.515H504.243V171.335H499.091V173.463H503.641V175.227H499.091V177.495ZM510.654 171.671C512.432 171.671 513.776 172.707 513.776 175.003V179.315H511.592V175.339C511.592 174.121 511.032 173.561 510.066 173.561C509.016 173.561 508.26 174.205 508.26 175.591V179.315H506.076V171.783H508.162V172.665C508.75 172.021 509.632 171.671 510.654 171.671ZM519.478 179.427C517.028 179.427 515.278 177.817 515.278 175.549C515.278 173.281 517.028 171.671 519.478 171.671C521.06 171.671 522.306 172.357 522.852 173.589L521.158 174.499C520.752 173.785 520.15 173.463 519.464 173.463C518.358 173.463 517.49 174.233 517.49 175.549C517.49 176.865 518.358 177.635 519.464 177.635C520.15 177.635 520.752 177.327 521.158 176.599L522.852 177.523C522.306 178.727 521.06 179.427 519.478 179.427ZM527.597 179.427C525.203 179.427 523.453 177.817 523.453 175.549C523.453 173.281 525.203 171.671 527.597 171.671C529.991 171.671 531.727 173.281 531.727 175.549C531.727 177.817 529.991 179.427 527.597 179.427ZM527.597 177.635C528.689 177.635 529.515 176.851 529.515 175.549C529.515 174.247 528.689 173.463 527.597 173.463C526.505 173.463 525.665 174.247 525.665 175.549C525.665 176.851 526.505 177.635 527.597 177.635ZM538.675 168.927H540.859V179.315H538.773V178.447C538.227 179.105 537.429 179.427 536.421 179.427C534.293 179.427 532.655 177.915 532.655 175.549C532.655 173.183 534.293 171.671 536.421 171.671C537.345 171.671 538.129 171.965 538.675 172.581V168.927ZM536.799 177.635C537.877 177.635 538.717 176.851 538.717 175.549C538.717 174.247 537.877 173.463 536.799 173.463C535.707 173.463 534.867 174.247 534.867 175.549C534.867 176.851 535.707 177.635 536.799 177.635ZM550.259 175.577C550.259 175.745 550.231 175.983 550.217 176.165H544.519C544.729 177.103 545.527 177.677 546.675 177.677C547.473 177.677 548.047 177.439 548.565 176.949L549.727 178.209C549.027 179.007 547.977 179.427 546.619 179.427C544.015 179.427 542.321 177.789 542.321 175.549C542.321 173.295 544.043 171.671 546.339 171.671C548.551 171.671 550.259 173.155 550.259 175.577ZM546.353 173.323C545.359 173.323 544.645 173.925 544.491 174.891H548.201C548.047 173.939 547.333 173.323 546.353 173.323ZM557.201 168.927H559.385V179.315H557.299V178.447C556.753 179.105 555.955 179.427 554.947 179.427C552.819 179.427 551.181 177.915 551.181 175.549C551.181 173.183 552.819 171.671 554.947 171.671C555.871 171.671 556.655 171.965 557.201 172.581V168.927ZM555.325 177.635C556.403 177.635 557.243 176.851 557.243 175.549C557.243 174.247 556.403 173.463 555.325 173.463C554.233 173.463 553.393 174.247 553.393 175.549C553.393 176.851 554.233 177.635 555.325 177.635ZM517.585 196.483C516.031 196.483 514.463 196.021 513.595 195.349L514.365 193.641C515.191 194.243 516.423 194.663 517.599 194.663C518.943 194.663 519.489 194.215 519.489 193.613C519.489 191.779 513.791 193.039 513.791 189.399C513.791 187.733 515.135 186.347 517.921 186.347C519.153 186.347 520.413 186.641 521.323 187.215L520.623 188.937C519.713 188.419 518.775 188.167 517.907 188.167C516.563 188.167 516.045 188.671 516.045 189.287C516.045 191.093 521.743 189.847 521.743 193.445C521.743 195.083 520.385 196.483 517.585 196.483ZM530.516 192.577C530.516 192.745 530.488 192.983 530.474 193.165H524.776C524.986 194.103 525.784 194.677 526.932 194.677C527.73 194.677 528.304 194.439 528.822 193.949L529.984 195.209C529.284 196.007 528.234 196.427 526.876 196.427C524.272 196.427 522.578 194.789 522.578 192.549C522.578 190.295 524.3 188.671 526.596 188.671C528.808 188.671 530.516 190.155 530.516 192.577ZM526.61 190.323C525.616 190.323 524.902 190.925 524.748 191.891H528.458C528.304 190.939 527.59 190.323 526.61 190.323ZM535.61 196.427C533.16 196.427 531.41 194.817 531.41 192.549C531.41 190.281 533.16 188.671 535.61 188.671C537.192 188.671 538.438 189.357 538.984 190.589L537.29 191.499C536.884 190.785 536.282 190.463 535.596 190.463C534.49 190.463 533.622 191.233 533.622 192.549C533.622 193.865 534.49 194.635 535.596 194.635C536.282 194.635 536.884 194.327 537.29 193.599L538.984 194.523C538.438 195.727 537.192 196.427 535.61 196.427ZM544.621 194.411L545.209 195.951C544.761 196.273 544.103 196.427 543.431 196.427C541.653 196.427 540.617 195.517 540.617 193.725V190.631H539.455V188.951H540.617V187.117H542.801V188.951H544.677V190.631H542.801V193.697C542.801 194.341 543.151 194.691 543.739 194.691C544.061 194.691 544.383 194.593 544.621 194.411ZM549.787 196.427C547.393 196.427 545.643 194.817 545.643 192.549C545.643 190.281 547.393 188.671 549.787 188.671C552.181 188.671 553.917 190.281 553.917 192.549C553.917 194.817 552.181 196.427 549.787 196.427ZM549.787 194.635C550.879 194.635 551.705 193.851 551.705 192.549C551.705 191.247 550.879 190.463 549.787 190.463C548.695 190.463 547.855 191.247 547.855 192.549C547.855 193.851 548.695 194.635 549.787 194.635ZM557.463 189.777C557.995 189.049 558.891 188.671 560.053 188.671V190.687C559.871 190.673 559.731 190.659 559.563 190.659C558.359 190.659 557.561 191.317 557.561 192.759V196.315H555.377V188.783H557.463V189.777Z" fill="white"/>
<path d="M575.303 316.582C577.921 316.582 579.559 317.94 579.559 320.138C579.559 322.322 577.921 323.68 575.303 323.68H573.329V326.382H571.061V316.582H575.303ZM575.177 321.832C576.563 321.832 577.263 321.202 577.263 320.138C577.263 319.06 576.563 318.43 575.177 318.43H573.329V321.832H575.177ZM581.161 326.382V315.994H583.345V326.382H581.161ZM588.956 326.494C586.562 326.494 584.812 324.884 584.812 322.616C584.812 320.348 586.562 318.738 588.956 318.738C591.35 318.738 593.086 320.348 593.086 322.616C593.086 324.884 591.35 326.494 588.956 326.494ZM588.956 324.702C590.048 324.702 590.874 323.918 590.874 322.616C590.874 321.314 590.048 320.53 588.956 320.53C587.864 320.53 587.024 321.314 587.024 322.616C587.024 323.918 587.864 324.702 588.956 324.702ZM598.816 324.478L599.404 326.018C598.956 326.34 598.298 326.494 597.626 326.494C595.848 326.494 594.812 325.584 594.812 323.792V320.698H593.65V319.018H594.812V317.184H596.996V319.018H598.872V320.698H596.996V323.764C596.996 324.408 597.346 324.758 597.934 324.758C598.256 324.758 598.578 324.66 598.816 324.478Z" fill="white"/>
</svg>
