<svg width="724" height="452" viewBox="0 0 724 452" fill="none" xmlns="http://www.w3.org/2000/svg">
<path d="M509.918 296.148C508.4 296.327 505.364 297.398 505.364 300.256C505.364 303.114 505.364 355.705 505.364 368.505C505.274 369.904 504.292 372.702 501.077 372.702" stroke="white" stroke-width="1.3"/>
<path d="M501.077 372.717C502.595 372.895 505.631 373.967 505.631 376.825C505.631 379.682 505.631 432.273 505.631 445.073C505.721 446.472 506.703 449.271 509.918 449.271" stroke="white" stroke-width="1.3"/>
<mask id="path-3-inside-1_202_359" fill="white">
<path fill-rule="evenodd" clip-rule="evenodd" d="M656.22 294.062H520.822V310.157H520.822V451.357H676.824V314.666H676.824C676.824 314.634 676.824 314.603 676.824 314.571V310.157H676.329C674.273 300.946 666.05 294.062 656.22 294.062Z"/>
</mask>
<path fill-rule="evenodd" clip-rule="evenodd" d="M656.22 294.062H520.822V310.157H520.822V451.357H676.824V314.666H676.824C676.824 314.634 676.824 314.603 676.824 314.571V310.157H676.329C674.273 300.946 666.05 294.062 656.22 294.062Z" fill="#A2CA77"/>
<path d="M520.822 294.062V293.062H519.822V294.062H520.822ZM520.822 310.157V311.157H521.822V310.157H520.822ZM520.822 310.157V309.157H519.822V310.157H520.822ZM520.822 451.357H519.822V452.357H520.822V451.357ZM676.824 451.357V452.357H677.824V451.357H676.824ZM676.824 314.666V313.666H675.824V314.666H676.824ZM676.824 314.666V315.666H677.824V314.666H676.824ZM676.824 314.571H675.823L675.824 314.575L676.824 314.571ZM676.824 310.157H677.824V309.157H676.824V310.157ZM676.329 310.157L675.353 310.375L675.528 311.157H676.329V310.157ZM520.822 295.062H656.22V293.062H520.822V295.062ZM521.822 310.157V294.062H519.822V310.157H521.822ZM520.822 311.157H520.822V309.157H520.822V311.157ZM521.822 451.357V310.157H519.822V451.357H521.822ZM676.824 450.357H520.822V452.357H676.824V450.357ZM675.824 314.666V451.357H677.824V314.666H675.824ZM676.824 313.666H676.824V315.666H676.824V313.666ZM675.824 314.575C675.824 314.606 675.824 314.636 675.824 314.666H677.824C677.824 314.633 677.824 314.6 677.823 314.567L675.824 314.575ZM675.824 310.157V314.571H677.824V310.157H675.824ZM676.329 311.157H676.824V309.157H676.329V311.157ZM656.22 295.062C665.572 295.062 673.397 301.612 675.353 310.375L677.305 309.939C675.149 300.281 666.529 293.062 656.22 293.062V295.062Z" fill="white" mask="url(#path-3-inside-1_202_359)"/>
<path d="M599.169 384.592C599.169 384.592 607.449 386.808 613.527 382.914C619.606 379.019 621.192 370.479 621.192 370.479L606.295 370.596" stroke="white" stroke-width="1.5" stroke-miterlimit="10"/>
<path d="M598.377 384.592C598.377 384.592 590.134 386.808 584.083 382.914C578.033 379.019 576.453 370.479 576.453 370.479L591.283 370.596" stroke="white" stroke-width="1.5" stroke-miterlimit="10"/>
<path d="M606.738 367.405C606.738 376.55 598.764 383.958 598.764 383.958C598.764 383.958 590.79 376.55 590.79 367.405C590.79 358.26 598.764 350.852 598.764 350.852C598.764 350.852 606.738 358.26 606.738 367.405Z" stroke="white" stroke-width="1.5" stroke-miterlimit="10"/>
<path d="M598.764 383.958V394.567" stroke="white" stroke-width="1.5" stroke-miterlimit="10"/>
<path d="M697.787 367.811C700.592 367.811 702.347 369.266 702.347 371.621C702.347 373.961 700.592 375.416 697.787 375.416H695.672V378.311H693.242V367.811H697.787ZM697.652 373.436C699.137 373.436 699.887 372.761 699.887 371.621C699.887 370.466 699.137 369.791 697.652 369.791H695.672V373.436H697.652ZM704.063 378.311V367.181H706.403V378.311H704.063ZM712.415 378.431C709.85 378.431 707.975 376.706 707.975 374.276C707.975 371.846 709.85 370.121 712.415 370.121C714.98 370.121 716.84 371.846 716.84 374.276C716.84 376.706 714.98 378.431 712.415 378.431ZM712.415 376.511C713.585 376.511 714.47 375.671 714.47 374.276C714.47 372.881 713.585 372.041 712.415 372.041C711.245 372.041 710.345 372.881 710.345 374.276C710.345 375.671 711.245 376.511 712.415 376.511ZM722.979 376.271L723.609 377.921C723.129 378.266 722.424 378.431 721.704 378.431C719.799 378.431 718.689 377.456 718.689 375.536V372.221H717.444V370.421H718.689V368.456H721.029V370.421H723.039V372.221H721.029V375.506C721.029 376.196 721.404 376.571 722.034 376.571C722.379 376.571 722.724 376.466 722.979 376.271Z" fill="white"/>
<path d="M454.098 359.844H458.326V369.644H456.058V361.664H454.098V359.844ZM466.639 369.644V361.692H463.503V359.844H472.043V361.692H468.907V369.644H466.639ZM480.46 364.548C481.552 364.898 482.252 365.738 482.252 366.97C482.252 368.664 480.908 369.644 478.332 369.644H473.264V359.844H478.052C480.502 359.844 481.762 360.866 481.762 362.392C481.762 363.372 481.258 364.128 480.46 364.548ZM477.772 361.552H475.518V363.862H477.772C478.878 363.862 479.48 363.47 479.48 362.7C479.48 361.93 478.878 361.552 477.772 361.552ZM478.164 367.936C479.34 367.936 479.97 367.572 479.97 366.732C479.97 365.906 479.34 365.514 478.164 365.514H475.518V367.936H478.164ZM455.162 386.644V376.844H459.614C462.82 376.844 465.018 378.776 465.018 381.744C465.018 384.712 462.82 386.644 459.614 386.644H455.162ZM457.43 384.782H459.502C461.448 384.782 462.722 383.62 462.722 381.744C462.722 379.868 461.448 378.706 459.502 378.706H457.43V384.782ZM467.666 378.062C466.854 378.062 466.308 377.53 466.308 376.844C466.308 376.158 466.854 375.626 467.666 375.626C468.478 375.626 469.024 376.13 469.024 376.802C469.024 377.53 468.478 378.062 467.666 378.062ZM466.574 386.644V379.112H468.758V386.644H466.574ZM473.319 386.756C472.045 386.756 470.757 386.406 470.057 385.944L470.785 384.376C471.457 384.81 472.479 385.104 473.403 385.104C474.411 385.104 474.789 384.838 474.789 384.418C474.789 383.186 470.239 384.446 470.239 381.436C470.239 380.008 471.527 379 473.725 379C474.761 379 475.909 379.238 476.623 379.658L475.895 381.212C475.153 380.792 474.411 380.652 473.725 380.652C472.745 380.652 472.325 380.96 472.325 381.352C472.325 382.64 476.875 381.394 476.875 384.362C476.875 385.762 475.573 386.756 473.319 386.756ZM483.837 386.644L481.457 383.69L480.407 384.726V386.644H478.223V376.256H480.407V382.136L483.599 379.112H486.203L483.067 382.304L486.483 386.644H483.837Z" fill="white"/>
<path d="M51.3688 296.148C49.8507 296.327 46.8144 297.398 46.8144 300.256C46.8144 303.114 46.8144 355.705 46.8144 368.505C46.7251 369.904 45.7427 372.702 42.5278 372.702" stroke="white" stroke-width="1.3"/>
<path d="M42.5281 372.717C44.0463 372.895 47.0826 373.967 47.0826 376.825C47.0826 379.682 47.0826 432.273 47.0826 445.073C47.1719 446.472 48.1542 449.271 51.3691 449.271" stroke="white" stroke-width="1.3"/>
<rect x="59.2744" y="383.074" width="155.001" height="66.6986" fill="#A2CA77" stroke="white"/>
<path d="M137.045 427.612C137.045 427.612 143.504 429.34 148.245 426.302C152.986 423.265 154.223 416.604 154.223 416.604L142.603 416.695" stroke="white" stroke-width="1.5" stroke-miterlimit="10"/>
<path d="M136.427 427.612C136.427 427.612 129.998 429.34 125.278 426.302C120.559 423.265 119.327 416.604 119.327 416.604L130.894 416.695" stroke="white" stroke-width="1.5" stroke-miterlimit="10"/>
<path d="M142.949 414.206C142.949 421.339 136.729 427.117 136.729 427.117C136.729 427.117 130.51 421.339 130.51 414.206C130.51 407.072 136.729 401.294 136.729 401.294C136.729 401.294 142.949 407.072 142.949 414.206Z" stroke="white" stroke-width="1.5" stroke-miterlimit="10"/>
<path d="M136.729 427.117V435.392" stroke="white" stroke-width="1.5" stroke-miterlimit="10"/>
<rect x="59.2744" y="314.813" width="155.001" height="70.1873" fill="#9B88BB" stroke="white"/>
<path d="M59.2744 295.646H194.172C205.108 295.646 214.004 304.378 214.27 315.25H59.2744V295.646Z" fill="#9B88BB" stroke="white"/>
<path d="M229.028 314.121C227.363 314.121 225.683 313.626 224.753 312.906L225.578 311.076C226.463 311.721 227.783 312.171 229.043 312.171C230.483 312.171 231.068 311.691 231.068 311.046C231.068 309.081 224.963 310.431 224.963 306.531C224.963 304.746 226.403 303.261 229.388 303.261C230.708 303.261 232.058 303.576 233.033 304.191L232.283 306.036C231.308 305.481 230.303 305.211 229.373 305.211C227.933 305.211 227.378 305.751 227.378 306.411C227.378 308.346 233.483 307.011 233.483 310.866C233.483 312.621 232.028 314.121 229.028 314.121ZM239.553 311.901L240.183 313.551C239.703 313.896 238.998 314.061 238.278 314.061C236.373 314.061 235.263 313.086 235.263 311.166V307.851H234.018V306.051H235.263V304.086H237.603V306.051H239.613V307.851H237.603V311.136C237.603 311.826 237.978 312.201 238.608 312.201C238.953 312.201 239.298 312.096 239.553 311.901ZM244.752 305.751C247.212 305.751 248.637 306.891 248.637 309.336V313.941H246.447V312.936C246.012 313.671 245.172 314.061 243.987 314.061C242.097 314.061 240.972 313.011 240.972 311.616C240.972 310.191 241.977 309.201 244.437 309.201H246.297C246.297 308.196 245.697 307.611 244.437 307.611C243.582 307.611 242.697 307.896 242.112 308.361L241.272 306.726C242.157 306.096 243.462 305.751 244.752 305.751ZM244.572 312.486C245.352 312.486 246.027 312.126 246.297 311.391V310.566H244.692C243.597 310.566 243.252 310.971 243.252 311.511C243.252 312.096 243.747 312.486 244.572 312.486ZM255.329 311.901L255.959 313.551C255.479 313.896 254.774 314.061 254.054 314.061C252.149 314.061 251.039 313.086 251.039 311.166V307.851H249.794V306.051H251.039V304.086H253.379V306.051H255.389V307.851H253.379V311.136C253.379 311.826 253.754 312.201 254.384 312.201C254.729 312.201 255.074 312.096 255.329 311.901ZM264.929 309.936C264.929 310.116 264.899 310.371 264.884 310.566H258.779C259.004 311.571 259.859 312.186 261.089 312.186C261.944 312.186 262.559 311.931 263.114 311.406L264.359 312.756C263.609 313.611 262.484 314.061 261.029 314.061C258.239 314.061 256.424 312.306 256.424 309.906C256.424 307.491 258.269 305.751 260.729 305.751C263.099 305.751 264.929 307.341 264.929 309.936ZM260.744 307.521C259.679 307.521 258.914 308.166 258.749 309.201H262.724C262.559 308.181 261.794 307.521 260.744 307.521Z" fill="white"/>
<path d="M232.778 343.385H235.208V353.885H232.778V349.58H228.008V353.885H225.578V343.385H228.008V347.525H232.778V343.385ZM238.697 344.69C237.827 344.69 237.242 344.12 237.242 343.385C237.242 342.65 237.827 342.08 238.697 342.08C239.567 342.08 240.152 342.62 240.152 343.34C240.152 344.12 239.567 344.69 238.697 344.69ZM237.527 353.885V345.815H239.867V353.885H237.527ZM244.753 354.005C243.388 354.005 242.008 353.63 241.258 353.135L242.038 351.455C242.758 351.92 243.853 352.235 244.843 352.235C245.923 352.235 246.328 351.95 246.328 351.5C246.328 350.18 241.453 351.53 241.453 348.305C241.453 346.775 242.833 345.695 245.188 345.695C246.298 345.695 247.528 345.95 248.293 346.4L247.513 348.065C246.718 347.615 245.923 347.465 245.188 347.465C244.138 347.465 243.688 347.795 243.688 348.215C243.688 349.595 248.563 348.26 248.563 351.44C248.563 352.94 247.168 354.005 244.753 354.005ZM254.582 351.845L255.212 353.495C254.732 353.84 254.027 354.005 253.307 354.005C251.402 354.005 250.292 353.03 250.292 351.11V347.795H249.047V345.995H250.292V344.03H252.632V345.995H254.642V347.795H252.632V351.08C252.632 351.77 253.007 352.145 253.637 352.145C253.982 352.145 254.327 352.04 254.582 351.845ZM260.117 354.005C257.552 354.005 255.677 352.28 255.677 349.85C255.677 347.42 257.552 345.695 260.117 345.695C262.682 345.695 264.542 347.42 264.542 349.85C264.542 352.28 262.682 354.005 260.117 354.005ZM260.117 352.085C261.287 352.085 262.172 351.245 262.172 349.85C262.172 348.455 261.287 347.615 260.117 347.615C258.947 347.615 258.047 348.455 258.047 349.85C258.047 351.245 258.947 352.085 260.117 352.085ZM268.341 346.88C268.911 346.1 269.871 345.695 271.116 345.695V347.855C270.921 347.84 270.771 347.825 270.591 347.825C269.301 347.825 268.446 348.53 268.446 350.075V353.885H266.106V345.815H268.341V346.88ZM278.546 345.815H280.796L277.151 354.38C276.371 356.33 275.261 356.915 273.806 356.915C272.981 356.915 272.081 356.645 271.556 356.18L272.411 354.515C272.771 354.83 273.266 355.025 273.731 355.025C274.376 355.025 274.736 354.74 275.051 354.02L275.081 353.945L271.586 345.815H274.001L276.266 351.29L278.546 345.815Z" fill="white"/>
<path d="M230.123 411.58C232.928 411.58 234.683 413.035 234.683 415.39C234.683 417.73 232.928 419.185 230.123 419.185H228.008V422.08H225.578V411.58H230.123ZM229.988 417.205C231.473 417.205 232.223 416.53 232.223 415.39C232.223 414.235 231.473 413.56 229.988 413.56H228.008V417.205H229.988ZM236.399 422.08V410.95H238.739V422.08H236.399ZM244.751 422.2C242.186 422.2 240.311 420.475 240.311 418.045C240.311 415.615 242.186 413.89 244.751 413.89C247.316 413.89 249.176 415.615 249.176 418.045C249.176 420.475 247.316 422.2 244.751 422.2ZM244.751 420.28C245.921 420.28 246.806 419.44 246.806 418.045C246.806 416.65 245.921 415.81 244.751 415.81C243.581 415.81 242.681 416.65 242.681 418.045C242.681 419.44 243.581 420.28 244.751 420.28ZM255.315 420.04L255.945 421.69C255.465 422.035 254.76 422.2 254.04 422.2C252.135 422.2 251.025 421.225 251.025 419.305V415.99H249.78V414.19H251.025V412.225H253.365V414.19H255.375V415.99H253.365V419.275C253.365 419.965 253.74 420.34 254.37 420.34C254.715 420.34 255.06 420.235 255.315 420.04Z" fill="white"/>
<path d="M0.098 359.844H4.326V369.644H2.058V361.664H0.098V359.844ZM12.6393 369.644V361.692H9.50327V359.844H18.0433V361.692H14.9073V369.644H12.6393ZM26.4596 364.548C27.5516 364.898 28.2516 365.738 28.2516 366.97C28.2516 368.664 26.9076 369.644 24.3316 369.644H19.2636V359.844H24.0516C26.5016 359.844 27.7616 360.866 27.7616 362.392C27.7616 363.372 27.2576 364.128 26.4596 364.548ZM23.7716 361.552H21.5176V363.862H23.7716C24.8776 363.862 25.4796 363.47 25.4796 362.7C25.4796 361.93 24.8776 361.552 23.7716 361.552ZM24.1636 367.936C25.3396 367.936 25.9696 367.572 25.9696 366.732C25.9696 365.906 25.3396 365.514 24.1636 365.514H21.5176V367.936H24.1636ZM1.162 386.644V376.844H5.614C8.82 376.844 11.018 378.776 11.018 381.744C11.018 384.712 8.82 386.644 5.614 386.644H1.162ZM3.43 384.782H5.502C7.448 384.782 8.722 383.62 8.722 381.744C8.722 379.868 7.448 378.706 5.502 378.706H3.43V384.782ZM13.6664 378.062C12.8544 378.062 12.3084 377.53 12.3084 376.844C12.3084 376.158 12.8544 375.626 13.6664 375.626C14.4784 375.626 15.0244 376.13 15.0244 376.802C15.0244 377.53 14.4784 378.062 13.6664 378.062ZM12.5744 386.644V379.112H14.7584V386.644H12.5744ZM19.3193 386.756C18.0453 386.756 16.7573 386.406 16.0573 385.944L16.7853 384.376C17.4573 384.81 18.4793 385.104 19.4033 385.104C20.4113 385.104 20.7893 384.838 20.7893 384.418C20.7893 383.186 16.2393 384.446 16.2393 381.436C16.2393 380.008 17.5273 379 19.7253 379C20.7613 379 21.9093 379.238 22.6233 379.658L21.8953 381.212C21.1533 380.792 20.4113 380.652 19.7253 380.652C18.7453 380.652 18.3253 380.96 18.3253 381.352C18.3253 382.64 22.8753 381.394 22.8753 384.362C22.8753 385.762 21.5733 386.756 19.3193 386.756ZM29.8368 386.644L27.4568 383.69L26.4068 384.726V386.644H24.2228V376.256H26.4068V382.136L29.5988 379.112H32.2028L29.0668 382.304L32.4828 386.644H29.8368Z" fill="white"/>
<path d="M334.033 314.2H336.301V324H334.033V319.982H329.581V324H327.313V314.2H329.581V318.064H334.033V314.2ZM339.558 315.418C338.746 315.418 338.2 314.886 338.2 314.2C338.2 313.514 338.746 312.982 339.558 312.982C340.37 312.982 340.916 313.486 340.916 314.158C340.916 314.886 340.37 315.418 339.558 315.418ZM338.466 324V316.468H340.65V324H338.466ZM348.375 316.468H350.447V322.74C350.447 325.54 348.935 326.828 346.219 326.828C344.791 326.828 343.405 326.478 342.523 325.792L343.391 324.224C344.035 324.742 345.085 325.078 346.051 325.078C347.591 325.078 348.263 324.378 348.263 323.02V322.698C347.689 323.328 346.863 323.636 345.883 323.636C343.797 323.636 342.117 322.194 342.117 319.996C342.117 317.798 343.797 316.356 345.883 316.356C346.933 316.356 347.801 316.706 348.375 317.434V316.468ZM346.317 321.844C347.465 321.844 348.291 321.102 348.291 319.996C348.291 318.89 347.465 318.148 346.317 318.148C345.169 318.148 344.329 318.89 344.329 319.996C344.329 321.102 345.169 321.844 346.317 321.844ZM357.058 316.356C358.836 316.356 360.18 317.392 360.18 319.688V324H357.996V320.024C357.996 318.806 357.436 318.246 356.47 318.246C355.42 318.246 354.664 318.89 354.664 320.276V324H352.48V313.612H354.664V317.252C355.252 316.664 356.092 316.356 357.058 316.356ZM369.619 320.262C369.619 320.43 369.591 320.668 369.577 320.85H363.879C364.089 321.788 364.887 322.362 366.035 322.362C366.833 322.362 367.407 322.124 367.925 321.634L369.087 322.894C368.387 323.692 367.337 324.112 365.979 324.112C363.375 324.112 361.681 322.474 361.681 320.234C361.681 317.98 363.403 316.356 365.699 316.356C367.911 316.356 369.619 317.84 369.619 320.262ZM365.713 318.008C364.719 318.008 364.005 318.61 363.851 319.576H367.561C367.407 318.624 366.693 318.008 365.713 318.008ZM373.159 317.462C373.691 316.734 374.587 316.356 375.749 316.356V318.372C375.567 318.358 375.427 318.344 375.259 318.344C374.055 318.344 373.257 319.002 373.257 320.444V324H371.073V316.468H373.159V317.462ZM389.902 324H387.466L385.576 321.27H385.464H383.49V324H381.222V314.2H385.464C388.082 314.2 389.72 315.558 389.72 317.756C389.72 319.226 388.978 320.304 387.704 320.85L389.902 324ZM387.424 317.756C387.424 316.678 386.724 316.048 385.338 316.048H383.49V319.464H385.338C386.724 319.464 387.424 318.82 387.424 317.756ZM394.946 324.112C392.552 324.112 390.802 322.502 390.802 320.234C390.802 317.966 392.552 316.356 394.946 316.356C397.34 316.356 399.076 317.966 399.076 320.234C399.076 322.502 397.34 324.112 394.946 324.112ZM394.946 322.32C396.038 322.32 396.864 321.536 396.864 320.234C396.864 318.932 396.038 318.148 394.946 318.148C393.854 318.148 393.014 318.932 393.014 320.234C393.014 321.536 393.854 322.32 394.946 322.32ZM400.536 324V313.612H402.72V324H400.536ZM328.923 343.716C327.803 342.022 327.173 339.74 327.173 337.164C327.173 334.588 327.803 332.278 328.923 330.612H331.009C329.819 332.712 329.315 334.812 329.315 337.164C329.315 339.516 329.819 341.616 331.009 343.716H328.923ZM339.695 338.13C339.695 339.586 338.631 340.846 336.433 341.112V342.68H335.033V341.154C333.647 341.07 332.317 340.636 331.547 340.034L332.317 338.326C333.017 338.844 334.025 339.222 335.033 339.32V336.982C333.479 336.604 331.743 336.086 331.743 334.084C331.743 332.6 332.821 331.326 335.033 331.074V329.52H336.433V331.046C337.483 331.13 338.505 331.41 339.275 331.9L338.575 333.622C337.861 333.216 337.133 332.978 336.433 332.894V335.274C337.987 335.638 339.695 336.156 339.695 338.13ZM333.997 333.972C333.997 334.462 334.417 334.728 335.033 334.924V332.936C334.291 333.104 333.997 333.51 333.997 333.972ZM336.433 339.264C337.133 339.11 337.441 338.746 337.441 338.298C337.441 337.808 337.035 337.542 336.433 337.332V339.264ZM339.621 342.4L344.241 329.212H346.187L341.567 342.4H339.621ZM349.181 341V333.048H346.045V331.2H354.585V333.048H351.449V341H349.181ZM363.002 335.904C364.094 336.254 364.794 337.094 364.794 338.326C364.794 340.02 363.45 341 360.874 341H355.806V331.2H360.594C363.044 331.2 364.304 332.222 364.304 333.748C364.304 334.728 363.8 335.484 363.002 335.904ZM360.314 332.908H358.06V335.218H360.314C361.42 335.218 362.022 334.826 362.022 334.056C362.022 333.286 361.42 332.908 360.314 332.908ZM360.706 339.292C361.882 339.292 362.512 338.928 362.512 338.088C362.512 337.262 361.882 336.87 360.706 336.87H358.06V339.292H360.706ZM367.575 343.716H365.489C366.693 341.616 367.197 339.516 367.197 337.164C367.197 334.812 366.693 332.712 365.489 330.612H367.575C368.723 332.278 369.339 334.588 369.339 337.164C369.339 339.74 368.723 342.022 367.575 343.716Z" fill="white"/>
<mask id="path-25-inside-2_202_359" fill="white">
<path fill-rule="evenodd" clip-rule="evenodd" d="M386.167 392.442L424.199 370.484L386.167 348.526V360.43H328.9V380.538H386.167V392.442Z"/>
</mask>
<path fill-rule="evenodd" clip-rule="evenodd" d="M386.167 392.442L424.199 370.484L386.167 348.526V360.43H328.9V380.538H386.167V392.442Z" fill="#D6C8EC"/>
<path d="M424.199 370.484L424.699 371.35L426.199 370.484L424.699 369.618L424.199 370.484ZM386.167 392.442H385.167V394.174L386.667 393.308L386.167 392.442ZM386.167 348.526L386.667 347.66L385.167 346.794V348.526H386.167ZM386.167 360.43V361.43H387.167V360.43H386.167ZM328.9 360.43V359.43H327.9V360.43H328.9ZM328.9 380.538H327.9V381.538H328.9V380.538ZM386.167 380.538H387.167V379.538H386.167V380.538ZM423.699 369.618L385.667 391.576L386.667 393.308L424.699 371.35L423.699 369.618ZM385.667 349.392L423.699 371.35L424.699 369.618L386.667 347.66L385.667 349.392ZM387.167 360.43V348.526H385.167V360.43H387.167ZM328.9 361.43H386.167V359.43H328.9V361.43ZM329.9 380.538V360.43H327.9V380.538H329.9ZM386.167 379.538H328.9V381.538H386.167V379.538ZM387.167 392.442V380.538H385.167V392.442H387.167Z" fill="white" mask="url(#path-25-inside-2_202_359)"/>
<path d="M357.073 0.5V202.611H371.125" stroke="white"/>
<path d="M371.073 202.611V0.5H357.125" stroke="white"/>
<path d="M291.778 33.3491L316.174 12.5H410.415V54.1982H316.174L291.778 33.3491Z" fill="#F4F1F7" stroke="white"/>
<path d="M434.367 97.1039L409.972 117.953L315.731 117.953L315.731 76.2548L409.972 76.2548L434.367 97.1039Z" fill="#F4F1F7" stroke="white"/>
<path d="M339.882 27.2H342.15V37H339.882V32.982H335.43V37H333.162V27.2H335.43V31.064H339.882V27.2ZM347.899 37.112C345.505 37.112 343.755 35.502 343.755 33.234C343.755 30.966 345.505 29.356 347.899 29.356C350.293 29.356 352.029 30.966 352.029 33.234C352.029 35.502 350.293 37.112 347.899 37.112ZM347.899 35.32C348.991 35.32 349.817 34.536 349.817 33.234C349.817 31.932 348.991 31.148 347.899 31.148C346.807 31.148 345.967 31.932 345.967 33.234C345.967 34.536 346.807 35.32 347.899 35.32ZM358.066 29.356C359.844 29.356 361.188 30.392 361.188 32.688V37H359.004V33.024C359.004 31.806 358.444 31.246 357.478 31.246C356.428 31.246 355.672 31.89 355.672 33.276V37H353.488V29.468H355.574V30.35C356.162 29.706 357.044 29.356 358.066 29.356ZM370.628 33.262C370.628 33.43 370.6 33.668 370.586 33.85H364.888C365.098 34.788 365.896 35.362 367.044 35.362C367.842 35.362 368.416 35.124 368.934 34.634L370.096 35.894C369.396 36.692 368.346 37.112 366.988 37.112C364.384 37.112 362.69 35.474 362.69 33.234C362.69 30.98 364.412 29.356 366.708 29.356C368.92 29.356 370.628 30.84 370.628 33.262ZM366.722 31.008C365.728 31.008 365.014 31.61 364.86 32.576H368.57C368.416 31.624 367.702 31.008 366.722 31.008ZM374.616 37.112C373.342 37.112 372.054 36.762 371.354 36.3L372.082 34.732C372.754 35.166 373.776 35.46 374.7 35.46C375.708 35.46 376.086 35.194 376.086 34.774C376.086 33.542 371.536 34.802 371.536 31.792C371.536 30.364 372.824 29.356 375.022 29.356C376.058 29.356 377.206 29.594 377.92 30.014L377.192 31.568C376.45 31.148 375.708 31.008 375.022 31.008C374.042 31.008 373.622 31.316 373.622 31.708C373.622 32.996 378.172 31.75 378.172 34.718C378.172 36.118 376.87 37.112 374.616 37.112ZM383.79 35.096L384.378 36.636C383.93 36.958 383.272 37.112 382.6 37.112C380.822 37.112 379.786 36.202 379.786 34.41V31.316H378.624V29.636H379.786V27.802H381.97V29.636H383.846V31.316H381.97V34.382C381.97 35.026 382.32 35.376 382.908 35.376C383.23 35.376 383.552 35.278 383.79 35.096Z" fill="black"/>
<path d="M341.842 102.5H339.406L337.516 99.77H337.404H335.43V102.5H333.162V92.7H337.404C340.022 92.7 341.66 94.058 341.66 96.256C341.66 97.726 340.918 98.804 339.644 99.35L341.842 102.5ZM339.364 96.256C339.364 95.178 338.664 94.548 337.278 94.548H335.43V97.964H337.278C338.664 97.964 339.364 97.32 339.364 96.256ZM346.273 94.856C348.569 94.856 349.899 95.92 349.899 98.202V102.5H347.855V101.562C347.449 102.248 346.665 102.612 345.559 102.612C343.795 102.612 342.745 101.632 342.745 100.33C342.745 99 343.683 98.076 345.979 98.076H347.715C347.715 97.138 347.155 96.592 345.979 96.592C345.181 96.592 344.355 96.858 343.809 97.292L343.025 95.766C343.851 95.178 345.069 94.856 346.273 94.856ZM346.105 101.142C346.833 101.142 347.463 100.806 347.715 100.12V99.35H346.217C345.195 99.35 344.873 99.728 344.873 100.232C344.873 100.778 345.335 101.142 346.105 101.142ZM356.145 100.596L356.733 102.136C356.285 102.458 355.627 102.612 354.955 102.612C353.177 102.612 352.141 101.702 352.141 99.91V96.816H350.979V95.136H352.141V93.302H354.325V95.136H356.201V96.816H354.325V99.882C354.325 100.526 354.675 100.876 355.263 100.876C355.585 100.876 355.907 100.778 356.145 100.596ZM359.051 93.918C358.239 93.918 357.693 93.386 357.693 92.7C357.693 92.014 358.239 91.482 359.051 91.482C359.863 91.482 360.409 91.986 360.409 92.658C360.409 93.386 359.863 93.918 359.051 93.918ZM357.959 102.5V94.968H360.143V102.5H357.959ZM365.754 102.612C363.36 102.612 361.61 101.002 361.61 98.734C361.61 96.466 363.36 94.856 365.754 94.856C368.148 94.856 369.884 96.466 369.884 98.734C369.884 101.002 368.148 102.612 365.754 102.612ZM365.754 100.82C366.846 100.82 367.672 100.036 367.672 98.734C367.672 97.432 366.846 96.648 365.754 96.648C364.662 96.648 363.822 97.432 363.822 98.734C363.822 100.036 364.662 100.82 365.754 100.82ZM375.922 94.856C377.7 94.856 379.044 95.892 379.044 98.188V102.5H376.86V98.524C376.86 97.306 376.3 96.746 375.334 96.746C374.284 96.746 373.528 97.39 373.528 98.776V102.5H371.344V94.968H373.43V95.85C374.018 95.206 374.9 94.856 375.922 94.856ZM384.062 94.856C386.358 94.856 387.688 95.92 387.688 98.202V102.5H385.644V101.562C385.238 102.248 384.454 102.612 383.348 102.612C381.584 102.612 380.534 101.632 380.534 100.33C380.534 99 381.472 98.076 383.768 98.076H385.504C385.504 97.138 384.944 96.592 383.768 96.592C382.97 96.592 382.144 96.858 381.598 97.292L380.814 95.766C381.64 95.178 382.858 94.856 384.062 94.856ZM383.894 101.142C384.622 101.142 385.252 100.806 385.504 100.12V99.35H384.006C382.984 99.35 382.662 99.728 382.662 100.232C382.662 100.778 383.124 101.142 383.894 101.142ZM389.664 102.5V92.112H391.848V102.5H389.664Z" fill="black"/>
<path d="M67.0063 127.355H63.5263L60.8263 123.455H60.6663H57.8463V127.355H54.6063V113.355H60.6663C64.4063 113.355 66.7463 115.295 66.7463 118.435C66.7463 120.535 65.6863 122.075 63.8663 122.855L67.0063 127.355ZM63.4663 118.435C63.4663 116.895 62.4663 115.995 60.4863 115.995H57.8463V120.875H60.4863C62.4663 120.875 63.4663 119.955 63.4663 118.435ZM79.6333 122.015C79.6333 122.255 79.5933 122.595 79.5733 122.855H71.4333C71.7333 124.195 72.8733 125.015 74.5133 125.015C75.6533 125.015 76.4733 124.675 77.2133 123.975L78.8733 125.775C77.8733 126.915 76.3733 127.515 74.4333 127.515C70.7133 127.515 68.2933 125.175 68.2933 121.975C68.2933 118.755 70.7533 116.435 74.0333 116.435C77.1933 116.435 79.6333 118.555 79.6333 122.015ZM74.0533 118.795C72.6333 118.795 71.6133 119.655 71.3933 121.035H76.6933C76.4733 119.675 75.4533 118.795 74.0533 118.795ZM87.8105 124.635L88.6505 126.835C88.0105 127.295 87.0705 127.515 86.1105 127.515C83.5705 127.515 82.0905 126.215 82.0905 123.655V119.235H80.4305V116.835H82.0905V114.215H85.2105V116.835H87.8905V119.235H85.2105V123.615C85.2105 124.535 85.7105 125.035 86.5505 125.035C87.0105 125.035 87.4705 124.895 87.8105 124.635ZM94.7419 116.435C98.0219 116.435 99.9219 117.955 99.9219 121.215V127.355H97.0019V126.015C96.4219 126.995 95.3019 127.515 93.7219 127.515C91.2019 127.515 89.7019 126.115 89.7019 124.255C89.7019 122.355 91.0419 121.035 94.3219 121.035H96.8019C96.8019 119.695 96.0019 118.915 94.3219 118.915C93.1819 118.915 92.0019 119.295 91.2219 119.915L90.1019 117.735C91.2819 116.895 93.0219 116.435 94.7419 116.435ZM94.5019 125.415C95.5419 125.415 96.4419 124.935 96.8019 123.955V122.855H94.6619C93.2019 122.855 92.7419 123.395 92.7419 124.115C92.7419 124.895 93.4019 125.415 94.5019 125.415ZM104.306 115.095C103.146 115.095 102.366 114.335 102.366 113.355C102.366 112.375 103.146 111.615 104.306 111.615C105.466 111.615 106.246 112.335 106.246 113.295C106.246 114.335 105.466 115.095 104.306 115.095ZM102.746 127.355V116.595H105.866V127.355H102.746ZM115.301 116.435C117.841 116.435 119.761 117.915 119.761 121.195V127.355H116.641V121.675C116.641 119.935 115.841 119.135 114.461 119.135C112.961 119.135 111.881 120.055 111.881 122.035V127.355H108.761V116.595H111.741V117.855C112.581 116.935 113.841 116.435 115.301 116.435ZM134.353 124.635L135.193 126.835C134.553 127.295 133.613 127.515 132.653 127.515C130.113 127.515 128.633 126.215 128.633 123.655V119.235H126.973V116.835H128.633V114.215H131.753V116.835H134.433V119.235H131.753V123.615C131.753 124.535 132.253 125.035 133.093 125.035C133.553 125.035 134.013 124.895 134.353 124.635ZM143.485 116.435C146.025 116.435 147.945 117.915 147.945 121.195V127.355H144.825V121.675C144.825 119.935 144.025 119.135 142.645 119.135C141.145 119.135 140.065 120.055 140.065 122.035V127.355H136.945V112.515H140.065V117.715C140.905 116.875 142.105 116.435 143.485 116.435ZM161.43 122.015C161.43 122.255 161.39 122.595 161.37 122.855H153.23C153.53 124.195 154.67 125.015 156.31 125.015C157.45 125.015 158.27 124.675 159.01 123.975L160.67 125.775C159.67 126.915 158.17 127.515 156.23 127.515C152.51 127.515 150.09 125.175 150.09 121.975C150.09 118.755 152.55 116.435 155.83 116.435C158.99 116.435 161.43 118.555 161.43 122.015ZM155.85 118.795C154.43 118.795 153.41 119.655 153.19 121.035H158.49C158.27 119.675 157.25 118.795 155.85 118.795ZM175.711 116.435C178.251 116.435 180.171 117.915 180.171 121.195V127.355H177.051V121.675C177.051 119.935 176.251 119.135 174.871 119.135C173.371 119.135 172.291 120.055 172.291 122.035V127.355H169.171V112.515H172.291V117.715C173.131 116.875 174.331 116.435 175.711 116.435ZM184.56 115.095C183.4 115.095 182.62 114.335 182.62 113.355C182.62 112.375 183.4 111.615 184.56 111.615C185.72 111.615 186.5 112.335 186.5 113.295C186.5 114.335 185.72 115.095 184.56 115.095ZM183 127.355V116.595H186.12V127.355H183ZM192.635 127.515C190.815 127.515 188.975 127.015 187.975 126.355L189.015 124.115C189.975 124.735 191.435 125.155 192.755 125.155C194.195 125.155 194.735 124.775 194.735 124.175C194.735 122.415 188.235 124.215 188.235 119.915C188.235 117.875 190.075 116.435 193.215 116.435C194.695 116.435 196.335 116.775 197.355 117.375L196.315 119.595C195.255 118.995 194.195 118.795 193.215 118.795C191.815 118.795 191.215 119.235 191.215 119.795C191.215 121.635 197.715 119.855 197.715 124.095C197.715 126.095 195.855 127.515 192.635 127.515ZM205.74 124.635L206.58 126.835C205.94 127.295 205 127.515 204.04 127.515C201.5 127.515 200.02 126.215 200.02 123.655V119.235H198.36V116.835H200.02V114.215H203.14V116.835H205.82V119.235H203.14V123.615C203.14 124.535 203.64 125.035 204.48 125.035C204.94 125.035 205.4 124.895 205.74 124.635ZM213.12 127.515C209.7 127.515 207.2 125.215 207.2 121.975C207.2 118.735 209.7 116.435 213.12 116.435C216.54 116.435 219.02 118.735 219.02 121.975C219.02 125.215 216.54 127.515 213.12 127.515ZM213.12 124.955C214.68 124.955 215.86 123.835 215.86 121.975C215.86 120.115 214.68 118.995 213.12 118.995C211.56 118.995 210.36 120.115 210.36 121.975C210.36 123.835 211.56 124.955 213.12 124.955ZM224.085 118.015C224.845 116.975 226.125 116.435 227.785 116.435V119.315C227.525 119.295 227.325 119.275 227.085 119.275C225.365 119.275 224.225 120.215 224.225 122.275V127.355H221.105V116.595H224.085V118.015ZM237.691 116.595H240.691L235.831 128.015C234.791 130.615 233.311 131.395 231.371 131.395C230.271 131.395 229.071 131.035 228.371 130.415L229.511 128.195C229.991 128.615 230.651 128.875 231.271 128.875C232.131 128.875 232.611 128.495 233.031 127.535L233.071 127.435L228.411 116.595H231.631L234.651 123.895L237.691 116.595Z" fill="white"/>
<path d="M25.3999 118.31L29.8499 124.08L37.7799 113.81" stroke="white" stroke-width="2" stroke-miterlimit="10"/>
<path d="M63.8463 207.355H67.0663L61.0063 221.355H57.8063L51.7663 207.355H55.2663L59.5263 217.355L63.8463 207.355ZM77.7544 216.015C77.7544 216.255 77.7144 216.595 77.6944 216.855H69.5544C69.8544 218.195 70.9944 219.015 72.6344 219.015C73.7744 219.015 74.5944 218.675 75.3344 217.975L76.9944 219.775C75.9944 220.915 74.4944 221.515 72.5544 221.515C68.8344 221.515 66.4144 219.175 66.4144 215.975C66.4144 212.755 68.8744 210.435 72.1544 210.435C75.3144 210.435 77.7544 212.555 77.7544 216.015ZM72.1744 212.795C70.7544 212.795 69.7344 213.655 69.5144 215.035H74.8144C74.5944 213.675 73.5744 212.795 72.1744 212.795ZM82.8116 212.015C83.5716 210.975 84.8516 210.435 86.5116 210.435V213.315C86.2516 213.295 86.0516 213.275 85.8116 213.275C84.0916 213.275 82.9516 214.215 82.9516 216.275V221.355H79.8316V210.595H82.8116V212.015ZM89.9268 209.095C88.7668 209.095 87.9868 208.335 87.9868 207.355C87.9868 206.375 88.7668 205.615 89.9268 205.615C91.0868 205.615 91.8668 206.335 91.8668 207.295C91.8668 208.335 91.0868 209.095 89.9268 209.095ZM88.3668 221.355V210.595H91.4868V221.355H88.3668ZM97.8024 210.375V210.835H100.562V213.235H97.8824V221.355H94.7624V213.235H93.1024V210.835H94.7624V210.355C94.7624 207.935 96.2424 206.355 98.9224 206.355C99.8024 206.355 100.722 206.535 101.302 206.935L100.482 209.195C100.142 208.955 99.7024 208.815 99.2224 208.815C98.3024 208.815 97.8024 209.315 97.8024 210.375ZM109.992 210.595H112.992L108.132 222.015C107.092 224.615 105.612 225.395 103.672 225.395C102.572 225.395 101.372 225.035 100.672 224.415L101.812 222.195C102.292 222.615 102.952 222.875 103.572 222.875C104.432 222.875 104.912 222.495 105.332 221.535L105.372 221.435L100.712 210.595H103.932L106.952 217.895L109.992 210.595ZM126.469 210.435C129.009 210.435 130.929 211.915 130.929 215.195V221.355H127.809V215.675C127.809 213.935 127.009 213.135 125.629 213.135C124.129 213.135 123.049 214.055 123.049 216.035V221.355H119.929V210.595H122.909V211.855C123.749 210.935 125.009 210.435 126.469 210.435ZM144.415 216.015C144.415 216.255 144.375 216.595 144.355 216.855H136.215C136.515 218.195 137.655 219.015 139.295 219.015C140.435 219.015 141.255 218.675 141.995 217.975L143.655 219.775C142.655 220.915 141.155 221.515 139.215 221.515C135.495 221.515 133.075 219.175 133.075 215.975C133.075 212.755 135.535 210.435 138.815 210.435C141.975 210.435 144.415 212.555 144.415 216.015ZM138.835 212.795C137.415 212.795 136.395 213.655 136.175 215.035H141.475C141.255 213.675 140.235 212.795 138.835 212.795ZM160.816 210.595H163.576L159.676 221.355H156.676L154.256 214.675L151.756 221.355H148.756L144.876 210.595H147.816L150.356 217.875L152.996 210.595H155.636L158.196 217.875L160.816 210.595ZM177.051 210.435C180.071 210.435 182.411 212.595 182.411 215.975C182.411 219.355 180.071 221.515 177.051 221.515C175.611 221.515 174.451 221.055 173.671 220.115V221.355H170.691V206.515H173.811V211.735C174.611 210.855 175.711 210.435 177.051 210.435ZM176.511 218.955C178.071 218.955 179.251 217.835 179.251 215.975C179.251 214.115 178.071 212.995 176.511 212.995C174.951 212.995 173.771 214.115 173.771 215.975C173.771 217.835 174.951 218.955 176.511 218.955ZM184.5 221.355V206.515H187.62V221.355H184.5ZM195.635 221.515C192.215 221.515 189.715 219.215 189.715 215.975C189.715 212.735 192.215 210.435 195.635 210.435C199.055 210.435 201.535 212.735 201.535 215.975C201.535 219.215 199.055 221.515 195.635 221.515ZM195.635 218.955C197.195 218.955 198.375 217.835 198.375 215.975C198.375 214.115 197.195 212.995 195.635 212.995C194.075 212.995 192.875 214.115 192.875 215.975C192.875 217.835 194.075 218.955 195.635 218.955ZM208.821 221.515C205.321 221.515 202.821 219.215 202.821 215.975C202.821 212.735 205.321 210.435 208.821 210.435C211.081 210.435 212.861 211.415 213.641 213.175L211.221 214.475C210.641 213.455 209.781 212.995 208.801 212.995C207.221 212.995 205.981 214.095 205.981 215.975C205.981 217.855 207.221 218.955 208.801 218.955C209.781 218.955 210.641 218.515 211.221 217.475L213.641 218.795C212.861 220.515 211.081 221.515 208.821 221.515ZM223.379 221.355L219.979 217.135L218.479 218.615V221.355H215.359V206.515H218.479V214.915L223.039 210.595H226.759L222.279 215.155L227.159 221.355H223.379ZM231.831 221.515C230.011 221.515 228.171 221.015 227.171 220.355L228.211 218.115C229.171 218.735 230.631 219.155 231.951 219.155C233.391 219.155 233.931 218.775 233.931 218.175C233.931 216.415 227.431 218.215 227.431 213.915C227.431 211.875 229.271 210.435 232.411 210.435C233.891 210.435 235.531 210.775 236.551 211.375L235.511 213.595C234.451 212.995 233.391 212.795 232.411 212.795C231.011 212.795 230.411 213.235 230.411 213.795C230.411 215.635 236.911 213.855 236.911 218.095C236.911 220.095 235.051 221.515 231.831 221.515Z" fill="white"/>
<path d="M25.3999 213.72L29.8499 219.49L37.7799 209.22" stroke="white" stroke-width="2" stroke-miterlimit="10"/>
<path d="M68.6363 174.355H65.5963L65.5763 165.955L61.4563 172.875H59.9963L55.8963 166.135V174.355H52.8563V160.355H55.5363L60.7763 169.055L65.9363 160.355H68.5963L68.6363 174.355ZM76.0779 163.435C79.3579 163.435 81.2579 164.955 81.2579 168.215V174.355H78.3379V173.015C77.7579 173.995 76.6379 174.515 75.0579 174.515C72.5379 174.515 71.0379 173.115 71.0379 171.255C71.0379 169.355 72.3779 168.035 75.6579 168.035H78.1379C78.1379 166.695 77.3379 165.915 75.6579 165.915C74.5179 165.915 73.3379 166.295 72.5579 166.915L71.4379 164.735C72.6179 163.895 74.3579 163.435 76.0779 163.435ZM75.8379 172.415C76.8779 172.415 77.7779 171.935 78.1379 170.955V169.855H75.9979C74.5379 169.855 74.0779 170.395 74.0779 171.115C74.0779 171.895 74.7379 172.415 75.8379 172.415ZM85.6416 162.095C84.4816 162.095 83.7016 161.335 83.7016 160.355C83.7016 159.375 84.4816 158.615 85.6416 158.615C86.8016 158.615 87.5816 159.335 87.5816 160.295C87.5816 161.335 86.8016 162.095 85.6416 162.095ZM84.0816 174.355V163.595H87.2016V174.355H84.0816ZM96.6372 163.435C99.1772 163.435 101.097 164.915 101.097 168.195V174.355H97.9772V168.675C97.9772 166.935 97.1772 166.135 95.7972 166.135C94.2972 166.135 93.2172 167.055 93.2172 169.035V174.355H90.0972V163.595H93.0772V164.855C93.9172 163.935 95.1772 163.435 96.6372 163.435ZM110.025 171.635L110.865 173.835C110.225 174.295 109.285 174.515 108.325 174.515C105.785 174.515 104.305 173.215 104.305 170.655V166.235H102.645V163.835H104.305V161.215H107.425V163.835H110.105V166.235H107.425V170.615C107.425 171.535 107.925 172.035 108.765 172.035C109.225 172.035 109.685 171.895 110.025 171.635ZM116.957 163.435C120.237 163.435 122.137 164.955 122.137 168.215V174.355H119.217V173.015C118.637 173.995 117.517 174.515 115.937 174.515C113.417 174.515 111.917 173.115 111.917 171.255C111.917 169.355 113.257 168.035 116.537 168.035H119.017C119.017 166.695 118.217 165.915 116.537 165.915C115.397 165.915 114.217 166.295 113.437 166.915L112.317 164.735C113.497 163.895 115.237 163.435 116.957 163.435ZM116.717 172.415C117.757 172.415 118.657 171.935 119.017 170.955V169.855H116.877C115.417 169.855 114.957 170.395 114.957 171.115C114.957 171.895 115.617 172.415 116.717 172.415ZM126.521 162.095C125.361 162.095 124.581 161.335 124.581 160.355C124.581 159.375 125.361 158.615 126.521 158.615C127.681 158.615 128.461 159.335 128.461 160.295C128.461 161.335 127.681 162.095 126.521 162.095ZM124.961 174.355V163.595H128.081V174.355H124.961ZM137.516 163.435C140.056 163.435 141.976 164.915 141.976 168.195V174.355H138.856V168.675C138.856 166.935 138.056 166.135 136.676 166.135C135.176 166.135 134.096 167.055 134.096 169.035V174.355H130.976V163.595H133.956V164.855C134.796 163.935 136.056 163.435 137.516 163.435ZM156.568 171.635L157.408 173.835C156.768 174.295 155.828 174.515 154.868 174.515C152.328 174.515 150.848 173.215 150.848 170.655V166.235H149.188V163.835H150.848V161.215H153.968V163.835H156.648V166.235H153.968V170.615C153.968 171.535 154.468 172.035 155.308 172.035C155.768 172.035 156.228 171.895 156.568 171.635ZM165.7 163.435C168.24 163.435 170.16 164.915 170.16 168.195V174.355H167.04V168.675C167.04 166.935 166.24 166.135 164.86 166.135C163.36 166.135 162.28 167.055 162.28 169.035V174.355H159.16V159.515H162.28V164.715C163.12 163.875 164.32 163.435 165.7 163.435ZM183.645 169.015C183.645 169.255 183.605 169.595 183.585 169.855H175.445C175.745 171.195 176.885 172.015 178.525 172.015C179.665 172.015 180.485 171.675 181.225 170.975L182.885 172.775C181.885 173.915 180.385 174.515 178.445 174.515C174.725 174.515 172.305 172.175 172.305 168.975C172.305 165.755 174.765 163.435 178.045 163.435C181.205 163.435 183.645 165.555 183.645 169.015ZM178.065 165.795C176.645 165.795 175.625 166.655 175.405 168.035H180.705C180.485 166.675 179.465 165.795 178.065 165.795ZM195.006 174.515C193.186 174.515 191.346 174.015 190.346 173.355L191.386 171.115C192.346 171.735 193.806 172.155 195.126 172.155C196.566 172.155 197.106 171.775 197.106 171.175C197.106 169.415 190.606 171.215 190.606 166.915C190.606 164.875 192.446 163.435 195.586 163.435C197.066 163.435 198.706 163.775 199.726 164.375L198.686 166.595C197.626 165.995 196.566 165.795 195.586 165.795C194.186 165.795 193.586 166.235 193.586 166.795C193.586 168.635 200.086 166.855 200.086 171.095C200.086 173.095 198.226 174.515 195.006 174.515ZM208.111 171.635L208.951 173.835C208.311 174.295 207.371 174.515 206.411 174.515C203.871 174.515 202.391 173.215 202.391 170.655V166.235H200.731V163.835H202.391V161.215H205.511V163.835H208.191V166.235H205.511V170.615C205.511 171.535 206.011 172.035 206.851 172.035C207.311 172.035 207.771 171.895 208.111 171.635ZM215.043 163.435C218.323 163.435 220.223 164.955 220.223 168.215V174.355H217.303V173.015C216.723 173.995 215.603 174.515 214.023 174.515C211.503 174.515 210.003 173.115 210.003 171.255C210.003 169.355 211.343 168.035 214.623 168.035H217.103C217.103 166.695 216.303 165.915 214.623 165.915C213.483 165.915 212.303 166.295 211.523 166.915L210.403 164.735C211.583 163.895 213.323 163.435 215.043 163.435ZM214.803 172.415C215.843 172.415 216.743 171.935 217.103 170.955V169.855H214.963C213.503 169.855 213.043 170.395 213.043 171.115C213.043 171.895 213.703 172.415 214.803 172.415ZM229.146 171.635L229.986 173.835C229.346 174.295 228.406 174.515 227.446 174.515C224.906 174.515 223.426 173.215 223.426 170.655V166.235H221.766V163.835H223.426V161.215H226.546V163.835H229.226V166.235H226.546V170.615C226.546 171.535 227.046 172.035 227.886 172.035C228.346 172.035 228.806 171.895 229.146 171.635ZM241.946 169.015C241.946 169.255 241.906 169.595 241.886 169.855H233.746C234.046 171.195 235.186 172.015 236.826 172.015C237.966 172.015 238.786 171.675 239.526 170.975L241.186 172.775C240.186 173.915 238.686 174.515 236.746 174.515C233.026 174.515 230.606 172.175 230.606 168.975C230.606 165.755 233.066 163.435 236.346 163.435C239.506 163.435 241.946 165.555 241.946 169.015ZM236.366 165.795C234.946 165.795 233.926 166.655 233.706 168.035H239.006C238.786 166.675 237.766 165.795 236.366 165.795Z" fill="white"/>
<path d="M25.3999 165.06L29.8499 170.83L37.7799 160.56" stroke="white" stroke-width="2" stroke-miterlimit="10"/>
<circle cx="117.156" cy="45.75" r="36.25" stroke="white"/>
<g clip-path="url(#clip0_202_359)">
<path d="M126.555 37.2147C126.647 37.7541 126.692 38.3314 126.692 38.9468C126.692 44.7279 122.421 51.6332 117.152 51.6332C111.884 51.6332 107.612 44.7279 107.612 38.9468C107.612 38.3087 107.666 37.7085 107.765 37.1464" stroke="white" stroke-linecap="round" stroke-linejoin="round"/>
<path d="M125.916 28.9192C131.718 29.5573 135.654 30.8108 135.654 32.2541C135.654 34.3432 127.37 36.0373 117.153 36.0373C106.935 36.0373 98.6514 34.3432 98.6514 32.2541C98.6514 30.788 102.397 29.5953 108.351 28.9648" stroke="white" stroke-linecap="round" stroke-linejoin="round"/>
<path d="M108.496 31.3654L108.99 26.1161C108.99 24.3308 110.795 22.8799 113.026 22.8799H121.279C123.51 22.8799 125.314 24.3308 125.314 26.1161L125.809 31.3654" stroke="white" stroke-linecap="round" stroke-linejoin="round"/>
<path d="M121.599 50.0455C129.738 51.9751 135.776 58.8425 135.776 63.993C131.07 65.2085 124.987 65.9682 118.706 66.1049C114.891 66.1885 111.008 66.0442 107.308 65.6263C104.202 65.2769 101.225 64.7375 98.5371 63.993C98.5371 58.8577 104.537 52.0207 112.638 50.0683" stroke="white" stroke-linecap="round" stroke-linejoin="round"/>
<path d="M107.65 52.3929V65.5352" stroke="white" stroke-linecap="round" stroke-linejoin="round"/>
<path d="M126.662 52.1726V65.3149" stroke="white" stroke-linecap="round" stroke-linejoin="round"/>
<path d="M111.084 50.6078V57.7943H123.221V50.7217" stroke="white" stroke-linecap="round" stroke-linejoin="round"/>
<path d="M100.989 45.1305C100.989 45.1305 108.968 48.3135 117.472 46.3688" stroke="white" stroke-linecap="round" stroke-linejoin="round"/>
<path d="M102.747 43.4668L103.996 45.9509" stroke="white" stroke-linecap="round" stroke-linejoin="round"/>
<path d="M105.024 43.9075L106.402 46.5587" stroke="white" stroke-linecap="round" stroke-linejoin="round"/>
<path d="M106.432 46.6346L104.369 48.7997" stroke="white" stroke-linecap="round" stroke-linejoin="round"/>
<path d="M104.011 46.0193L101.948 48.1843" stroke="white" stroke-linecap="round" stroke-linejoin="round"/>
</g>
<path d="M155.183 88.1301C164.291 88.1301 171.675 80.7461 171.675 71.6375C171.675 62.5289 164.291 55.1449 155.183 55.1449C146.074 55.1449 138.69 62.5289 138.69 71.6375C138.69 80.7461 146.074 88.1301 155.183 88.1301Z" fill="#CDE6B2" stroke="white" stroke-miterlimit="10"/>
<path d="M177.07 50.8762L156.361 73.5405L146.809 64.8166L142.488 69.5404L152.041 78.2718L157.16 82.9435L182.19 55.5479L177.07 50.8762Z" fill="black" stroke="white" stroke-miterlimit="10"/>
<path d="M515.606 127.355V113.355H518.846V127.355H515.606ZM530.089 116.595H533.049V125.555C533.049 129.555 530.889 131.395 527.009 131.395C524.969 131.395 522.989 130.895 521.729 129.915L522.969 127.675C523.889 128.415 525.389 128.895 526.769 128.895C528.969 128.895 529.929 127.895 529.929 125.955V125.495C529.109 126.395 527.929 126.835 526.529 126.835C523.549 126.835 521.149 124.775 521.149 121.635C521.149 118.495 523.549 116.435 526.529 116.435C528.029 116.435 529.269 116.935 530.089 117.975V116.595ZM527.149 124.275C528.789 124.275 529.969 123.215 529.969 121.635C529.969 120.055 528.789 118.995 527.149 118.995C525.509 118.995 524.309 120.055 524.309 121.635C524.309 123.215 525.509 124.275 527.149 124.275ZM542.493 116.435C545.033 116.435 546.953 117.915 546.953 121.195V127.355H543.833V121.675C543.833 119.935 543.033 119.135 541.653 119.135C540.153 119.135 539.073 120.055 539.073 122.035V127.355H535.953V116.595H538.933V117.855C539.773 116.935 541.033 116.435 542.493 116.435ZM555.018 127.515C551.598 127.515 549.098 125.215 549.098 121.975C549.098 118.735 551.598 116.435 555.018 116.435C558.438 116.435 560.918 118.735 560.918 121.975C560.918 125.215 558.438 127.515 555.018 127.515ZM555.018 124.955C556.578 124.955 557.758 123.835 557.758 121.975C557.758 120.115 556.578 118.995 555.018 118.995C553.458 118.995 552.258 120.115 552.258 121.975C552.258 123.835 553.458 124.955 555.018 124.955ZM565.983 118.015C566.743 116.975 568.023 116.435 569.683 116.435V119.315C569.423 119.295 569.223 119.275 568.983 119.275C567.263 119.275 566.123 120.215 566.123 122.275V127.355H563.003V116.595H565.983V118.015ZM581.981 122.015C581.981 122.255 581.941 122.595 581.921 122.855H573.781C574.081 124.195 575.221 125.015 576.861 125.015C578.001 125.015 578.821 124.675 579.561 123.975L581.221 125.775C580.221 126.915 578.721 127.515 576.781 127.515C573.061 127.515 570.641 125.175 570.641 121.975C570.641 118.755 573.101 116.435 576.381 116.435C579.541 116.435 581.981 118.555 581.981 122.015ZM576.401 118.795C574.981 118.795 573.961 119.655 573.741 121.035H579.041C578.821 119.675 577.801 118.795 576.401 118.795ZM595.822 124.635L596.662 126.835C596.022 127.295 595.082 127.515 594.122 127.515C591.582 127.515 590.102 126.215 590.102 123.655V119.235H588.442V116.835H590.102V114.215H593.222V116.835H595.902V119.235H593.222V123.615C593.222 124.535 593.722 125.035 594.562 125.035C595.022 125.035 595.482 124.895 595.822 124.635ZM604.954 116.435C607.494 116.435 609.414 117.915 609.414 121.195V127.355H606.294V121.675C606.294 119.935 605.494 119.135 604.114 119.135C602.614 119.135 601.534 120.055 601.534 122.035V127.355H598.414V112.515H601.534V117.715C602.374 116.875 603.574 116.435 604.954 116.435ZM622.899 122.015C622.899 122.255 622.859 122.595 622.839 122.855H614.699C614.999 124.195 616.139 125.015 617.779 125.015C618.919 125.015 619.739 124.675 620.479 123.975L622.139 125.775C621.139 126.915 619.639 127.515 617.699 127.515C613.979 127.515 611.559 125.175 611.559 121.975C611.559 118.755 614.019 116.435 617.299 116.435C620.459 116.435 622.899 118.555 622.899 122.015ZM617.319 118.795C615.899 118.795 614.879 119.655 614.659 121.035H619.959C619.739 119.675 618.719 118.795 617.319 118.795ZM637.18 116.435C639.72 116.435 641.64 117.915 641.64 121.195V127.355H638.52V121.675C638.52 119.935 637.72 119.135 636.34 119.135C634.84 119.135 633.76 120.055 633.76 122.035V127.355H630.64V112.515H633.76V117.715C634.6 116.875 635.8 116.435 637.18 116.435ZM646.028 115.095C644.868 115.095 644.088 114.335 644.088 113.355C644.088 112.375 644.868 111.615 646.028 111.615C647.188 111.615 647.968 112.335 647.968 113.295C647.968 114.335 647.188 115.095 646.028 115.095ZM644.468 127.355V116.595H647.588V127.355H644.468ZM654.104 127.515C652.284 127.515 650.444 127.015 649.444 126.355L650.484 124.115C651.444 124.735 652.904 125.155 654.224 125.155C655.664 125.155 656.204 124.775 656.204 124.175C656.204 122.415 649.704 124.215 649.704 119.915C649.704 117.875 651.544 116.435 654.684 116.435C656.164 116.435 657.804 116.775 658.824 117.375L657.784 119.595C656.724 118.995 655.664 118.795 654.684 118.795C653.284 118.795 652.684 119.235 652.684 119.795C652.684 121.635 659.184 119.855 659.184 124.095C659.184 126.095 657.324 127.515 654.104 127.515ZM667.209 124.635L668.049 126.835C667.409 127.295 666.469 127.515 665.509 127.515C662.969 127.515 661.489 126.215 661.489 123.655V119.235H659.829V116.835H661.489V114.215H664.609V116.835H667.289V119.235H664.609V123.615C664.609 124.535 665.109 125.035 665.949 125.035C666.409 125.035 666.869 124.895 667.209 124.635ZM674.588 127.515C671.168 127.515 668.668 125.215 668.668 121.975C668.668 118.735 671.168 116.435 674.588 116.435C678.008 116.435 680.488 118.735 680.488 121.975C680.488 125.215 678.008 127.515 674.588 127.515ZM674.588 124.955C676.148 124.955 677.328 123.835 677.328 121.975C677.328 120.115 676.148 118.995 674.588 118.995C673.028 118.995 671.828 120.115 671.828 121.975C671.828 123.835 673.028 124.955 674.588 124.955ZM685.554 118.015C686.314 116.975 687.594 116.435 689.254 116.435V119.315C688.994 119.295 688.794 119.275 688.554 119.275C686.834 119.275 685.694 120.215 685.694 122.275V127.355H682.574V116.595H685.554V118.015ZM699.16 116.595H702.16L697.3 128.015C696.26 130.615 694.78 131.395 692.84 131.395C691.74 131.395 690.54 131.035 689.84 130.415L690.98 128.195C691.46 128.615 692.12 128.875 692.74 128.875C693.6 128.875 694.08 128.495 694.5 127.535L694.54 127.435L689.88 116.595H693.1L696.12 123.895L699.16 116.595Z" fill="white"/>
<path d="M495.6 126.58L503.53 117.125" stroke="white" stroke-width="2" stroke-miterlimit="10"/>
<path d="M503.53 126.58L495.6 117.125" stroke="white" stroke-width="2" stroke-miterlimit="10"/>
<path d="M515.606 174.355V160.355H521.966C526.546 160.355 529.686 163.115 529.686 167.355C529.686 171.595 526.546 174.355 521.966 174.355H515.606ZM518.846 171.695H521.806C524.586 171.695 526.406 170.035 526.406 167.355C526.406 164.675 524.586 163.015 521.806 163.015H518.846V171.695ZM533.47 162.095C532.31 162.095 531.53 161.335 531.53 160.355C531.53 159.375 532.31 158.615 533.47 158.615C534.63 158.615 535.41 159.335 535.41 160.295C535.41 161.335 534.63 162.095 533.47 162.095ZM531.91 174.355V163.595H535.03V174.355H531.91ZM541.545 174.515C539.725 174.515 537.885 174.015 536.885 173.355L537.925 171.115C538.885 171.735 540.345 172.155 541.665 172.155C543.105 172.155 543.645 171.775 543.645 171.175C543.645 169.415 537.145 171.215 537.145 166.915C537.145 164.875 538.985 163.435 542.125 163.435C543.605 163.435 545.245 163.775 546.265 164.375L545.225 166.595C544.165 165.995 543.105 165.795 542.125 165.795C540.725 165.795 540.125 166.235 540.125 166.795C540.125 168.635 546.625 166.855 546.625 171.095C546.625 173.095 544.765 174.515 541.545 174.515ZM553.75 174.515C550.25 174.515 547.75 172.215 547.75 168.975C547.75 165.735 550.25 163.435 553.75 163.435C556.01 163.435 557.79 164.415 558.57 166.175L556.15 167.475C555.57 166.455 554.71 165.995 553.73 165.995C552.15 165.995 550.91 167.095 550.91 168.975C550.91 170.855 552.15 171.955 553.73 171.955C554.71 171.955 555.57 171.515 556.15 170.475L558.57 171.795C557.79 173.515 556.01 174.515 553.75 174.515ZM564.707 163.435C567.987 163.435 569.887 164.955 569.887 168.215V174.355H566.967V173.015C566.387 173.995 565.267 174.515 563.687 174.515C561.167 174.515 559.667 173.115 559.667 171.255C559.667 169.355 561.007 168.035 564.287 168.035H566.767C566.767 166.695 565.967 165.915 564.287 165.915C563.147 165.915 561.967 166.295 561.187 166.915L560.067 164.735C561.247 163.895 562.987 163.435 564.707 163.435ZM564.467 172.415C565.507 172.415 566.407 171.935 566.767 170.955V169.855H564.627C563.167 169.855 562.707 170.395 562.707 171.115C562.707 171.895 563.367 172.415 564.467 172.415ZM575.691 165.015C576.451 163.975 577.731 163.435 579.391 163.435V166.315C579.131 166.295 578.931 166.275 578.691 166.275C576.971 166.275 575.831 167.215 575.831 169.275V174.355H572.711V163.595H575.691V165.015ZM588.988 159.515H592.108V174.355H589.128V173.115C588.348 174.055 587.208 174.515 585.768 174.515C582.728 174.515 580.388 172.355 580.388 168.975C580.388 165.595 582.728 163.435 585.768 163.435C587.088 163.435 588.208 163.855 588.988 164.735V159.515ZM586.308 171.955C587.848 171.955 589.048 170.835 589.048 168.975C589.048 167.115 587.848 165.995 586.308 165.995C584.748 165.995 583.548 167.115 583.548 168.975C583.548 170.835 584.748 171.955 586.308 171.955ZM606.76 171.635L607.6 173.835C606.96 174.295 606.02 174.515 605.06 174.515C602.52 174.515 601.04 173.215 601.04 170.655V166.235H599.38V163.835H601.04V161.215H604.16V163.835H606.84V166.235H604.16V170.615C604.16 171.535 604.66 172.035 605.5 172.035C605.96 172.035 606.42 171.895 606.76 171.635ZM615.891 163.435C618.431 163.435 620.351 164.915 620.351 168.195V174.355H617.231V168.675C617.231 166.935 616.431 166.135 615.051 166.135C613.551 166.135 612.471 167.055 612.471 169.035V174.355H609.351V159.515H612.471V164.715C613.311 163.875 614.511 163.435 615.891 163.435ZM633.836 169.015C633.836 169.255 633.796 169.595 633.776 169.855H625.636C625.936 171.195 627.076 172.015 628.716 172.015C629.856 172.015 630.676 171.675 631.416 170.975L633.076 172.775C632.076 173.915 630.576 174.515 628.636 174.515C624.916 174.515 622.496 172.175 622.496 168.975C622.496 165.755 624.956 163.435 628.236 163.435C631.396 163.435 633.836 165.555 633.836 169.015ZM628.256 165.795C626.836 165.795 625.816 166.655 625.596 168.035H630.896C630.676 166.675 629.656 165.795 628.256 165.795ZM645.198 174.515C643.378 174.515 641.538 174.015 640.538 173.355L641.578 171.115C642.538 171.735 643.998 172.155 645.318 172.155C646.758 172.155 647.298 171.775 647.298 171.175C647.298 169.415 640.798 171.215 640.798 166.915C640.798 164.875 642.638 163.435 645.778 163.435C647.258 163.435 648.898 163.775 649.918 164.375L648.878 166.595C647.818 165.995 646.758 165.795 645.778 165.795C644.378 165.795 643.778 166.235 643.778 166.795C643.778 168.635 650.278 166.855 650.278 171.095C650.278 173.095 648.418 174.515 645.198 174.515ZM658.303 171.635L659.143 173.835C658.503 174.295 657.563 174.515 656.603 174.515C654.063 174.515 652.583 173.215 652.583 170.655V166.235H650.923V163.835H652.583V161.215H655.703V163.835H658.383V166.235H655.703V170.615C655.703 171.535 656.203 172.035 657.043 172.035C657.503 172.035 657.963 171.895 658.303 171.635ZM665.234 163.435C668.514 163.435 670.414 164.955 670.414 168.215V174.355H667.494V173.015C666.914 173.995 665.794 174.515 664.214 174.515C661.694 174.515 660.194 173.115 660.194 171.255C660.194 169.355 661.534 168.035 664.814 168.035H667.294C667.294 166.695 666.494 165.915 664.814 165.915C663.674 165.915 662.494 166.295 661.714 166.915L660.594 164.735C661.774 163.895 663.514 163.435 665.234 163.435ZM664.994 172.415C666.034 172.415 666.934 171.935 667.294 170.955V169.855H665.154C663.694 169.855 663.234 170.395 663.234 171.115C663.234 171.895 663.894 172.415 664.994 172.415ZM679.338 171.635L680.178 173.835C679.538 174.295 678.598 174.515 677.638 174.515C675.098 174.515 673.618 173.215 673.618 170.655V166.235H671.958V163.835H673.618V161.215H676.738V163.835H679.418V166.235H676.738V170.615C676.738 171.535 677.238 172.035 678.078 172.035C678.538 172.035 678.998 171.895 679.338 171.635ZM692.137 169.015C692.137 169.255 692.097 169.595 692.077 169.855H683.937C684.237 171.195 685.377 172.015 687.017 172.015C688.157 172.015 688.977 171.675 689.717 170.975L691.377 172.775C690.377 173.915 688.877 174.515 686.937 174.515C683.217 174.515 680.797 172.175 680.797 168.975C680.797 165.755 683.257 163.435 686.537 163.435C689.697 163.435 692.137 165.555 692.137 169.015ZM686.557 165.795C685.137 165.795 684.117 166.655 683.897 168.035H689.197C688.977 166.675 687.957 165.795 686.557 165.795Z" fill="white"/>
<path d="M495.6 171.83L503.53 162.375" stroke="white" stroke-width="2" stroke-miterlimit="10"/>
<path d="M503.53 171.83L495.6 162.375" stroke="white" stroke-width="2" stroke-miterlimit="10"/>
<path d="M518.506 221.355V209.995H514.026V207.355H526.226V209.995H521.746V221.355H518.506ZM530.495 212.015C531.255 210.975 532.535 210.435 534.195 210.435V213.315C533.935 213.295 533.735 213.275 533.495 213.275C531.775 213.275 530.635 214.215 530.635 216.275V221.355H527.515V210.595H530.495V212.015ZM543.848 210.595H546.968V221.355H544.008V220.075C543.188 221.015 541.988 221.515 540.668 221.515C537.968 221.515 536.068 219.995 536.068 216.675V210.595H539.188V216.215C539.188 218.015 539.988 218.815 541.368 218.815C542.808 218.815 543.848 217.895 543.848 215.915V210.595ZM553.479 221.515C551.659 221.515 549.819 221.015 548.819 220.355L549.859 218.115C550.819 218.735 552.279 219.155 553.599 219.155C555.039 219.155 555.579 218.775 555.579 218.175C555.579 216.415 549.079 218.215 549.079 213.915C549.079 211.875 550.919 210.435 554.059 210.435C555.539 210.435 557.179 210.775 558.199 211.375L557.159 213.595C556.099 212.995 555.039 212.795 554.059 212.795C552.659 212.795 552.059 213.235 552.059 213.795C552.059 215.635 558.559 213.855 558.559 218.095C558.559 220.095 556.699 221.515 553.479 221.515ZM566.584 218.635L567.424 220.835C566.784 221.295 565.844 221.515 564.884 221.515C562.344 221.515 560.864 220.215 560.864 217.655V213.235H559.204V210.835H560.864V208.215H563.984V210.835H566.664V213.235H563.984V217.615C563.984 218.535 564.484 219.035 565.324 219.035C565.784 219.035 566.244 218.895 566.584 218.635ZM581.379 210.435C583.919 210.435 585.839 211.915 585.839 215.195V221.355H582.719V215.675C582.719 213.935 581.919 213.135 580.539 213.135C579.039 213.135 577.959 214.055 577.959 216.035V221.355H574.839V210.595H577.819V211.855C578.659 210.935 579.919 210.435 581.379 210.435ZM599.325 216.015C599.325 216.255 599.285 216.595 599.265 216.855H591.125C591.425 218.195 592.565 219.015 594.205 219.015C595.345 219.015 596.165 218.675 596.905 217.975L598.565 219.775C597.565 220.915 596.065 221.515 594.125 221.515C590.405 221.515 587.985 219.175 587.985 215.975C587.985 212.755 590.445 210.435 593.725 210.435C596.885 210.435 599.325 212.555 599.325 216.015ZM593.745 212.795C592.325 212.795 591.305 213.655 591.085 215.035H596.385C596.165 213.675 595.145 212.795 593.745 212.795ZM615.727 210.595H618.487L614.587 221.355H611.587L609.167 214.675L606.667 221.355H603.667L599.787 210.595H602.727L605.267 217.875L607.907 210.595H610.547L613.107 217.875L615.727 210.595ZM631.961 210.435C634.981 210.435 637.321 212.595 637.321 215.975C637.321 219.355 634.981 221.515 631.961 221.515C630.521 221.515 629.361 221.055 628.581 220.115V221.355H625.601V206.515H628.721V211.735C629.521 210.855 630.621 210.435 631.961 210.435ZM631.421 218.955C632.981 218.955 634.161 217.835 634.161 215.975C634.161 214.115 632.981 212.995 631.421 212.995C629.861 212.995 628.681 214.115 628.681 215.975C628.681 217.835 629.861 218.955 631.421 218.955ZM639.41 221.355V206.515H642.53V221.355H639.41ZM650.545 221.515C647.125 221.515 644.625 219.215 644.625 215.975C644.625 212.735 647.125 210.435 650.545 210.435C653.965 210.435 656.445 212.735 656.445 215.975C656.445 219.215 653.965 221.515 650.545 221.515ZM650.545 218.955C652.105 218.955 653.285 217.835 653.285 215.975C653.285 214.115 652.105 212.995 650.545 212.995C648.985 212.995 647.785 214.115 647.785 215.975C647.785 217.835 648.985 218.955 650.545 218.955ZM663.731 221.515C660.231 221.515 657.731 219.215 657.731 215.975C657.731 212.735 660.231 210.435 663.731 210.435C665.991 210.435 667.771 211.415 668.551 213.175L666.131 214.475C665.551 213.455 664.691 212.995 663.711 212.995C662.131 212.995 660.891 214.095 660.891 215.975C660.891 217.855 662.131 218.955 663.711 218.955C664.691 218.955 665.551 218.515 666.131 217.475L668.551 218.795C667.771 220.515 665.991 221.515 663.731 221.515ZM678.289 221.355L674.889 217.135L673.389 218.615V221.355H670.269V206.515H673.389V214.915L677.949 210.595H681.669L677.189 215.155L682.069 221.355H678.289ZM686.741 221.515C684.921 221.515 683.081 221.015 682.081 220.355L683.121 218.115C684.081 218.735 685.541 219.155 686.861 219.155C688.301 219.155 688.841 218.775 688.841 218.175C688.841 216.415 682.341 218.215 682.341 213.915C682.341 211.875 684.181 210.435 687.321 210.435C688.801 210.435 690.441 210.775 691.461 211.375L690.421 213.595C689.361 212.995 688.301 212.795 687.321 212.795C685.921 212.795 685.321 213.235 685.321 213.795C685.321 215.635 691.821 213.855 691.821 218.095C691.821 220.095 689.961 221.515 686.741 221.515Z" fill="white"/>
<path d="M495.6 220.83L503.53 211.375" stroke="white" stroke-width="2" stroke-miterlimit="10"/>
<path d="M503.53 220.83L495.6 211.375" stroke="white" stroke-width="2" stroke-miterlimit="10"/>
<circle cx="586.609" cy="45.75" r="36.25" stroke="white"/>
<g clip-path="url(#clip1_202_359)">
<path d="M596.008 37.2147C596.099 37.7541 596.145 38.3314 596.145 38.9468C596.145 44.7279 591.874 51.6332 586.605 51.6332C581.336 51.6332 577.065 44.7279 577.065 38.9468C577.065 38.3087 577.118 37.7085 577.217 37.1464" stroke="white" stroke-linecap="round" stroke-linejoin="round"/>
<path d="M595.369 28.9192C601.17 29.5573 605.107 30.8108 605.107 32.2541C605.107 34.3432 596.823 36.0373 586.605 36.0373C576.388 36.0373 568.104 34.3432 568.104 32.2541C568.104 30.788 571.85 29.5953 577.804 28.9648" stroke="white" stroke-linecap="round" stroke-linejoin="round"/>
<path d="M577.948 31.3654L578.443 26.1161C578.443 24.3308 580.248 22.8799 582.478 22.8799H590.732C592.962 22.8799 594.767 24.3308 594.767 26.1161L595.262 31.3654" stroke="white" stroke-linecap="round" stroke-linejoin="round"/>
<path d="M591.052 50.0455C599.191 51.9751 605.228 58.8425 605.228 63.993C600.523 65.2085 594.44 65.9682 588.158 66.1049C584.344 66.1885 580.461 66.0442 576.761 65.6263C573.654 65.2769 570.677 64.7375 567.99 63.993C567.99 58.8577 573.989 52.0207 582.09 50.0683" stroke="white" stroke-linecap="round" stroke-linejoin="round"/>
<path d="M577.103 52.3929V65.5352" stroke="white" stroke-linecap="round" stroke-linejoin="round"/>
<path d="M596.115 52.1726V65.3149" stroke="white" stroke-linecap="round" stroke-linejoin="round"/>
<path d="M580.537 50.6078V57.7943H592.673V50.7217" stroke="white" stroke-linecap="round" stroke-linejoin="round"/>
<path d="M570.441 45.1305C570.441 45.1305 578.421 48.3135 586.925 46.3688" stroke="white" stroke-linecap="round" stroke-linejoin="round"/>
<path d="M572.2 43.4668L573.448 45.9509" stroke="white" stroke-linecap="round" stroke-linejoin="round"/>
<path d="M574.477 43.9075L575.855 46.5587" stroke="white" stroke-linecap="round" stroke-linejoin="round"/>
<path d="M575.885 46.6346L573.822 48.7997" stroke="white" stroke-linecap="round" stroke-linejoin="round"/>
<path d="M573.464 46.0193L571.4 48.1843" stroke="white" stroke-linecap="round" stroke-linejoin="round"/>
</g>
<path d="M625.272 88.25C634.338 88.25 641.687 80.9008 641.687 71.835C641.687 62.7693 634.338 55.42 625.272 55.42C616.207 55.42 608.857 62.7693 608.857 71.835C608.857 80.9008 616.207 88.25 625.272 88.25Z" fill="#D8D0E4" stroke="white" stroke-miterlimit="10"/>
<path d="M640.277 60.5303L635.181 55.8732L625.273 66.7175L618.803 59.6315L613.708 64.2886L620.601 71.8351L610.269 83.1399L615.364 87.797L625.273 76.9527L631.75 84.0386L636.845 79.3815L629.952 71.8351L640.277 60.5303Z" fill="black" stroke="white" stroke-miterlimit="10"/>
<defs>
<clipPath id="clip0_202_359">
<rect width="38" height="44" fill="white" transform="translate(98.1562 22.5)"/>
</clipPath>
<clipPath id="clip1_202_359">
<rect width="38" height="44" fill="white" transform="translate(567.609 22.5)"/>
</clipPath>
</defs>
</svg>
