<svg width="611" height="447" viewBox="0 0 611 447" fill="none" xmlns="http://www.w3.org/2000/svg">
<path d="M297.874 446L211.938 396.661V376.047L233.422 384.145L254.906 371.629L297.874 346.596L340.721 371.629L383.931 376.289V396.298L372.856 402.828L362.144 408.996L340.721 421.331L297.874 446Z" fill="#9B88BB" stroke="#211433" stroke-linejoin="round"/>
<path d="M212 376.104L297.962 325.994L383.906 376.104L297.962 425.488L212 376.104Z" fill="#9B88BB" stroke="#211433" stroke-linejoin="round"/>
<path d="M337.918 375.125C337.918 383.53 333.432 391.175 326.107 396.735C318.782 402.296 308.641 405.75 297.418 405.75C286.195 405.75 276.054 402.296 268.729 396.735C261.404 391.175 256.918 383.53 256.918 375.125C256.918 366.72 261.404 359.075 268.729 353.515C276.054 347.954 286.195 344.5 297.418 344.5C308.641 344.5 318.782 347.954 326.107 353.515C333.432 359.075 337.918 366.72 337.918 375.125Z" fill="#F4F1F7" stroke="#211433"/>
<path d="M417.162 21V11.2H421.614C422.678 11.2 423.616 11.4053 424.428 11.816C425.24 12.2173 425.875 12.782 426.332 13.51C426.789 14.238 427.018 15.1013 427.018 16.1C427.018 17.0893 426.789 17.9527 426.332 18.69C425.875 19.418 425.24 19.9873 424.428 20.398C423.616 20.7993 422.678 21 421.614 21H417.162ZM419.43 19.138H421.502C422.155 19.138 422.72 19.0167 423.196 18.774C423.681 18.522 424.055 18.1673 424.316 17.71C424.587 17.2527 424.722 16.716 424.722 16.1C424.722 15.4747 424.587 14.938 424.316 14.49C424.055 14.0327 423.681 13.6827 423.196 13.44C422.72 13.188 422.155 13.062 421.502 13.062H419.43V19.138ZM427.304 21L431.672 11.2H433.912L438.294 21H435.914L432.33 12.348H433.226L429.628 21H427.304ZM429.488 18.9L430.09 17.178H435.13L435.746 18.9H429.488ZM443.934 21.168C443.159 21.168 442.44 21.042 441.778 20.79C441.124 20.538 440.555 20.1833 440.07 19.726C439.594 19.2687 439.22 18.732 438.95 18.116C438.688 17.5 438.558 16.828 438.558 16.1C438.558 15.372 438.688 14.7 438.95 14.084C439.22 13.468 439.598 12.9313 440.084 12.474C440.569 12.0167 441.138 11.662 441.792 11.41C442.445 11.158 443.154 11.032 443.92 11.032C444.694 11.032 445.404 11.158 446.048 11.41C446.701 11.662 447.266 12.0167 447.742 12.474C448.227 12.9313 448.605 13.468 448.876 14.084C449.146 14.6907 449.282 15.3627 449.282 16.1C449.282 16.828 449.146 17.5047 448.876 18.13C448.605 18.746 448.227 19.2827 447.742 19.74C447.266 20.188 446.701 20.538 446.048 20.79C445.404 21.042 444.699 21.168 443.934 21.168ZM443.92 19.236C444.358 19.236 444.76 19.1613 445.124 19.012C445.497 18.8627 445.824 18.648 446.104 18.368C446.384 18.088 446.598 17.7567 446.748 17.374C446.906 16.9913 446.986 16.5667 446.986 16.1C446.986 15.6333 446.906 15.2087 446.748 14.826C446.598 14.4433 446.384 14.112 446.104 13.832C445.833 13.552 445.511 13.3373 445.138 13.188C444.764 13.0387 444.358 12.964 443.92 12.964C443.481 12.964 443.075 13.0387 442.702 13.188C442.338 13.3373 442.016 13.552 441.736 13.832C441.456 14.112 441.236 14.4433 441.078 14.826C440.928 15.2087 440.854 15.6333 440.854 16.1C440.854 16.5573 440.928 16.982 441.078 17.374C441.236 17.7567 441.451 18.088 441.722 18.368C442.002 18.648 442.328 18.8627 442.702 19.012C443.075 19.1613 443.481 19.236 443.92 19.236ZM453.366 21.112C452.722 21.112 452.102 21.0373 451.504 20.888C450.916 20.7293 450.45 20.5333 450.104 20.3L450.832 18.732C451.178 18.9467 451.584 19.124 452.05 19.264C452.526 19.3947 452.993 19.46 453.45 19.46C453.954 19.46 454.309 19.3993 454.514 19.278C454.729 19.1567 454.836 18.9887 454.836 18.774C454.836 18.5967 454.752 18.466 454.584 18.382C454.426 18.2887 454.211 18.2187 453.94 18.172C453.67 18.1253 453.371 18.0787 453.044 18.032C452.727 17.9853 452.405 17.9247 452.078 17.85C451.752 17.766 451.453 17.6447 451.182 17.486C450.912 17.3273 450.692 17.1127 450.524 16.842C450.366 16.5713 450.286 16.2213 450.286 15.792C450.286 15.316 450.422 14.896 450.692 14.532C450.972 14.168 451.374 13.8833 451.896 13.678C452.419 13.4633 453.044 13.356 453.772 13.356C454.286 13.356 454.808 13.412 455.34 13.524C455.872 13.636 456.316 13.7993 456.67 14.014L455.942 15.568C455.578 15.3533 455.21 15.2087 454.836 15.134C454.472 15.05 454.118 15.008 453.772 15.008C453.287 15.008 452.932 15.0733 452.708 15.204C452.484 15.3347 452.372 15.5027 452.372 15.708C452.372 15.8947 452.452 16.0347 452.61 16.128C452.778 16.2213 452.998 16.296 453.268 16.352C453.539 16.408 453.833 16.4593 454.15 16.506C454.477 16.5433 454.804 16.604 455.13 16.688C455.457 16.772 455.751 16.8933 456.012 17.052C456.283 17.2013 456.502 17.4113 456.67 17.682C456.838 17.9433 456.922 18.2887 456.922 18.718C456.922 19.1847 456.782 19.6 456.502 19.964C456.222 20.3187 455.816 20.5987 455.284 20.804C454.762 21.0093 454.122 21.112 453.366 21.112Z" fill="#211433"/>
<path d="M211.938 393.397V297.5" stroke="#211433" stroke-linejoin="round" stroke-dasharray="3 3"/>
<path d="M175 257V159" stroke="#211433" stroke-linejoin="round" stroke-dasharray="3 3"/>
<path d="M421 257V159" stroke="#211433" stroke-linejoin="round" stroke-dasharray="3 3"/>
<path d="M471.371 59L467.143 49.2H469.593L473.289 57.88H471.847L475.599 49.2H477.853L473.611 59H471.371ZM478.671 59V49.2H480.939V59H478.671ZM483.265 59V49.2H487.507C488.384 49.2 489.14 49.3447 489.775 49.634C490.409 49.914 490.899 50.32 491.245 50.852C491.59 51.384 491.763 52.0187 491.763 52.756C491.763 53.484 491.59 54.114 491.245 54.646C490.899 55.1687 490.409 55.57 489.775 55.85C489.14 56.13 488.384 56.27 487.507 56.27H484.525L485.533 55.276V59H483.265ZM489.495 59L487.045 55.444H489.467L491.945 59H489.495ZM485.533 55.528L484.525 54.464H487.381C488.081 54.464 488.603 54.3147 488.949 54.016C489.294 53.708 489.467 53.288 489.467 52.756C489.467 52.2147 489.294 51.7947 488.949 51.496C488.603 51.1973 488.081 51.048 487.381 51.048H484.525L485.533 49.97V55.528ZM495.453 59V51.048H492.317V49.2H500.857V51.048H497.721V59H495.453ZM506.267 59.168C504.876 59.168 503.789 58.7807 503.005 58.006C502.221 57.2313 501.829 56.1253 501.829 54.688V49.2H504.097V54.604C504.097 55.5373 504.288 56.2093 504.671 56.62C505.054 57.0307 505.59 57.236 506.281 57.236C506.972 57.236 507.508 57.0307 507.891 56.62C508.274 56.2093 508.465 55.5373 508.465 54.604V49.2H510.705V54.688C510.705 56.1253 510.313 57.2313 509.529 58.006C508.745 58.7807 507.658 59.168 506.267 59.168ZM511.453 59L515.821 49.2H518.061L522.443 59H520.063L516.479 50.348H517.375L513.777 59H511.453ZM513.637 56.9L514.239 55.178H519.279L519.895 56.9H513.637ZM523.46 59V49.2H525.728V57.152H530.642V59H523.46ZM538.226 59L535.02 49.2H537.372L540.158 57.88H538.982L541.894 49.2H543.994L546.794 57.88H545.66L548.516 49.2H550.686L547.48 59H545.044L542.566 51.384H543.21L540.662 59H538.226ZM556.603 59.168C555.828 59.168 555.109 59.042 554.447 58.79C553.793 58.538 553.224 58.1833 552.739 57.726C552.263 57.2687 551.889 56.732 551.619 56.116C551.357 55.5 551.227 54.828 551.227 54.1C551.227 53.372 551.357 52.7 551.619 52.084C551.889 51.468 552.267 50.9313 552.753 50.474C553.238 50.0167 553.807 49.662 554.461 49.41C555.114 49.158 555.823 49.032 556.589 49.032C557.363 49.032 558.073 49.158 558.717 49.41C559.37 49.662 559.935 50.0167 560.411 50.474C560.896 50.9313 561.274 51.468 561.545 52.084C561.815 52.6907 561.951 53.3627 561.951 54.1C561.951 54.828 561.815 55.5047 561.545 56.13C561.274 56.746 560.896 57.2827 560.411 57.74C559.935 58.188 559.37 58.538 558.717 58.79C558.073 59.042 557.368 59.168 556.603 59.168ZM556.589 57.236C557.027 57.236 557.429 57.1613 557.793 57.012C558.166 56.8627 558.493 56.648 558.773 56.368C559.053 56.088 559.267 55.7567 559.417 55.374C559.575 54.9913 559.655 54.5667 559.655 54.1C559.655 53.6333 559.575 53.2087 559.417 52.826C559.267 52.4433 559.053 52.112 558.773 51.832C558.502 51.552 558.18 51.3373 557.807 51.188C557.433 51.0387 557.027 50.964 556.589 50.964C556.15 50.964 555.744 51.0387 555.371 51.188C555.007 51.3373 554.685 51.552 554.405 51.832C554.125 52.112 553.905 52.4433 553.747 52.826C553.597 53.2087 553.523 53.6333 553.523 54.1C553.523 54.5573 553.597 54.982 553.747 55.374C553.905 55.7567 554.12 56.088 554.391 56.368C554.671 56.648 554.997 56.8627 555.371 57.012C555.744 57.1613 556.15 57.236 556.589 57.236ZM563.655 59V49.2H567.897C568.774 49.2 569.53 49.3447 570.165 49.634C570.8 49.914 571.29 50.32 571.635 50.852C571.98 51.384 572.153 52.0187 572.153 52.756C572.153 53.484 571.98 54.114 571.635 54.646C571.29 55.1687 570.8 55.57 570.165 55.85C569.53 56.13 568.774 56.27 567.897 56.27H564.915L565.923 55.276V59H563.655ZM569.885 59L567.435 55.444H569.857L572.335 59H569.885ZM565.923 55.528L564.915 54.464H567.771C568.471 54.464 568.994 54.3147 569.339 54.016C569.684 53.708 569.857 53.288 569.857 52.756C569.857 52.2147 569.684 51.7947 569.339 51.496C568.994 51.1973 568.471 51.048 567.771 51.048H564.915L565.923 49.97V55.528ZM573.95 59V49.2H576.218V57.152H581.132V59H573.95ZM582.399 59V49.2H586.851C587.915 49.2 588.853 49.4053 589.665 49.816C590.477 50.2173 591.112 50.782 591.569 51.51C592.027 52.238 592.255 53.1013 592.255 54.1C592.255 55.0893 592.027 55.9527 591.569 56.69C591.112 57.418 590.477 57.9873 589.665 58.398C588.853 58.7993 587.915 59 586.851 59H582.399ZM584.667 57.138H586.739C587.393 57.138 587.957 57.0167 588.433 56.774C588.919 56.522 589.292 56.1673 589.553 55.71C589.824 55.2527 589.959 54.716 589.959 54.1C589.959 53.4747 589.824 52.938 589.553 52.49C589.292 52.0327 588.919 51.6827 588.433 51.44C587.957 51.188 587.393 51.062 586.739 51.062H584.667V57.138ZM597.186 59.168C596.402 59.168 595.65 59.0653 594.932 58.86C594.213 58.6453 593.634 58.37 593.196 58.034L593.966 56.326C594.386 56.6247 594.88 56.872 595.45 57.068C596.028 57.2547 596.612 57.348 597.2 57.348C597.648 57.348 598.007 57.306 598.278 57.222C598.558 57.1287 598.763 57.0027 598.894 56.844C599.024 56.6853 599.09 56.5033 599.09 56.298C599.09 56.0367 598.987 55.8313 598.782 55.682C598.576 55.5233 598.306 55.3973 597.97 55.304C597.634 55.2013 597.26 55.108 596.85 55.024C596.448 54.9307 596.042 54.8187 595.632 54.688C595.23 54.5573 594.862 54.3893 594.526 54.184C594.19 53.9787 593.914 53.708 593.7 53.372C593.494 53.036 593.392 52.6067 593.392 52.084C593.392 51.524 593.541 51.0153 593.84 50.558C594.148 50.0913 594.605 49.7227 595.212 49.452C595.828 49.172 596.598 49.032 597.522 49.032C598.138 49.032 598.744 49.1067 599.342 49.256C599.939 49.396 600.466 49.6107 600.924 49.9L600.224 51.622C599.766 51.3607 599.309 51.1693 598.852 51.048C598.394 50.9173 597.946 50.852 597.508 50.852C597.069 50.852 596.71 50.9033 596.43 51.006C596.15 51.1087 595.949 51.244 595.828 51.412C595.706 51.5707 595.646 51.7573 595.646 51.972C595.646 52.224 595.748 52.4293 595.954 52.588C596.159 52.7373 596.43 52.8587 596.766 52.952C597.102 53.0453 597.47 53.1387 597.872 53.232C598.282 53.3253 598.688 53.4327 599.09 53.554C599.5 53.6753 599.874 53.8387 600.21 54.044C600.546 54.2493 600.816 54.52 601.022 54.856C601.236 55.192 601.344 55.6167 601.344 56.13C601.344 56.6807 601.19 57.1847 600.882 57.642C600.574 58.0993 600.112 58.468 599.496 58.748C598.889 59.028 598.119 59.168 597.186 59.168Z" fill="#211433"/>
<path d="M514.652 150.112C513.154 150.112 511.684 149.608 510.9 148.88L511.418 147.788C512.146 148.446 513.392 148.922 514.652 148.922C516.346 148.922 517.074 148.264 517.074 147.41C517.074 145.016 511.138 146.528 511.138 142.888C511.138 141.376 512.314 140.088 514.89 140.088C516.038 140.088 517.228 140.396 518.04 140.956L517.578 142.076C516.724 141.53 515.758 141.278 514.89 141.278C513.224 141.278 512.51 141.978 512.51 142.832C512.51 145.226 518.446 143.728 518.446 147.326C518.446 148.824 517.242 150.112 514.652 150.112ZM527.001 146.332C527.001 146.444 526.987 146.612 526.973 146.738H520.953C521.121 148.04 522.171 148.908 523.641 148.908C524.509 148.908 525.237 148.614 525.783 148.012L526.525 148.88C525.853 149.664 524.831 150.084 523.599 150.084C521.205 150.084 519.609 148.502 519.609 146.29C519.609 144.092 521.191 142.51 523.333 142.51C525.475 142.51 527.001 144.05 527.001 146.332ZM523.333 143.644C522.045 143.644 521.093 144.512 520.953 145.772H525.713C525.573 144.526 524.635 143.644 523.333 143.644ZM532.83 142.51C534.636 142.51 535.91 143.546 535.91 145.73V150H534.566V145.884C534.566 144.428 533.838 143.714 532.564 143.714C531.136 143.714 530.212 144.568 530.212 146.178V150H528.868V142.58H530.156V143.7C530.702 142.944 531.654 142.51 532.83 142.51ZM544.094 139.612H545.438V150H544.15V148.824C543.548 149.664 542.596 150.084 541.504 150.084C539.334 150.084 537.752 148.558 537.752 146.29C537.752 144.022 539.334 142.51 541.504 142.51C542.554 142.51 543.478 142.902 544.094 143.7V139.612ZM541.616 148.908C543.03 148.908 544.108 147.872 544.108 146.29C544.108 144.708 543.03 143.686 541.616 143.686C540.188 143.686 539.11 144.708 539.11 146.29C539.11 147.872 540.188 148.908 541.616 148.908ZM554.975 150.084C552.693 150.084 551.055 148.502 551.055 146.29C551.055 144.078 552.693 142.51 554.975 142.51C556.305 142.51 557.411 143.056 557.999 144.092L556.977 144.75C556.501 144.022 555.773 143.686 554.961 143.686C553.505 143.686 552.413 144.708 552.413 146.29C552.413 147.9 553.505 148.908 554.961 148.908C555.773 148.908 556.501 148.572 556.977 147.844L557.999 148.488C557.411 149.524 556.305 150.084 554.975 150.084ZM562.807 150.084C560.581 150.084 558.943 148.502 558.943 146.29C558.943 144.078 560.581 142.51 562.807 142.51C565.033 142.51 566.657 144.078 566.657 146.29C566.657 148.502 565.033 150.084 562.807 150.084ZM562.807 148.908C564.235 148.908 565.299 147.872 565.299 146.29C565.299 144.708 564.235 143.686 562.807 143.686C561.379 143.686 560.301 144.708 560.301 146.29C560.301 147.872 561.379 148.908 562.807 148.908ZM572.478 142.51C574.284 142.51 575.558 143.546 575.558 145.73V150H574.214V145.884C574.214 144.428 573.486 143.714 572.212 143.714C570.784 143.714 569.86 144.568 569.86 146.178V150H568.516V142.58H569.804V143.7C570.35 142.944 571.302 142.51 572.478 142.51ZM581.797 148.6L582.217 149.566C581.811 149.916 581.195 150.084 580.593 150.084C579.095 150.084 578.241 149.258 578.241 147.76V143.686H576.981V142.58H578.241V140.956H579.585V142.58H581.713V143.686H579.585V147.704C579.585 148.502 580.005 148.95 580.747 148.95C581.139 148.95 581.517 148.824 581.797 148.6ZM585.13 143.826C585.606 142.958 586.53 142.51 587.832 142.51V143.812C587.72 143.798 587.622 143.798 587.524 143.798C586.082 143.798 585.186 144.68 585.186 146.304V150H583.842V142.58H585.13V143.826ZM592.177 142.51C594.207 142.51 595.355 143.49 595.355 145.52V150H594.081V149.02C593.633 149.692 592.807 150.084 591.645 150.084C589.965 150.084 588.901 149.188 588.901 147.9C588.901 146.71 589.671 145.73 591.883 145.73H594.011V145.464C594.011 144.33 593.353 143.672 592.023 143.672C591.141 143.672 590.245 143.98 589.671 144.47L589.111 143.462C589.881 142.846 590.987 142.51 592.177 142.51ZM591.869 149.048C592.877 149.048 593.675 148.586 594.011 147.732V146.696H591.939C590.609 146.696 590.231 147.214 590.231 147.844C590.231 148.586 590.847 149.048 591.869 149.048ZM601.117 150.084C598.835 150.084 597.197 148.502 597.197 146.29C597.197 144.078 598.835 142.51 601.117 142.51C602.447 142.51 603.553 143.056 604.141 144.092L603.119 144.75C602.643 144.022 601.915 143.686 601.103 143.686C599.647 143.686 598.555 144.708 598.555 146.29C598.555 147.9 599.647 148.908 601.103 148.908C601.915 148.908 602.643 148.572 603.119 147.844L604.141 148.488C603.553 149.524 602.447 150.084 601.117 150.084ZM609.729 148.6L610.149 149.566C609.743 149.916 609.127 150.084 608.525 150.084C607.027 150.084 606.173 149.258 606.173 147.76V143.686H604.913V142.58H606.173V140.956H607.517V142.58H609.645V143.686H607.517V147.704C607.517 148.502 607.937 148.95 608.679 148.95C609.071 148.95 609.449 148.824 609.729 148.6ZM583.809 167.084C581.527 167.084 579.889 165.502 579.889 163.29C579.889 161.078 581.527 159.51 583.809 159.51C585.139 159.51 586.245 160.056 586.833 161.092L585.811 161.75C585.335 161.022 584.607 160.686 583.795 160.686C582.339 160.686 581.247 161.708 581.247 163.29C581.247 164.9 582.339 165.908 583.795 165.908C584.607 165.908 585.335 165.572 585.811 164.844L586.833 165.488C586.245 166.524 585.139 167.084 583.809 167.084ZM591.275 159.51C593.305 159.51 594.453 160.49 594.453 162.52V167H593.179V166.02C592.731 166.692 591.905 167.084 590.743 167.084C589.063 167.084 587.999 166.188 587.999 164.9C587.999 163.71 588.769 162.73 590.981 162.73H593.109V162.464C593.109 161.33 592.451 160.672 591.121 160.672C590.239 160.672 589.343 160.98 588.769 161.47L588.209 160.462C588.979 159.846 590.085 159.51 591.275 159.51ZM590.967 166.048C591.975 166.048 592.773 165.586 593.109 164.732V163.696H591.037C589.707 163.696 589.329 164.214 589.329 164.844C589.329 165.586 589.945 166.048 590.967 166.048ZM596.94 167V156.612H598.284V167H596.94ZM600.85 167V156.612H602.194V167H600.85ZM606.888 167.084C605.656 167.084 604.438 166.706 603.822 166.216L604.382 165.152C605.012 165.6 606.02 165.922 606.986 165.922C608.232 165.922 608.75 165.544 608.75 164.914C608.75 163.248 604.06 164.69 604.06 161.736C604.06 160.406 605.25 159.51 607.154 159.51C608.12 159.51 609.212 159.762 609.856 160.182L609.282 161.246C608.61 160.812 607.868 160.658 607.14 160.658C605.964 160.658 605.39 161.092 605.39 161.68C605.39 163.43 610.094 162.002 610.094 164.886C610.094 166.23 608.862 167.084 606.888 167.084Z" fill="#211433"/>
<path d="M9.292 154L8.214 151.55H3.006L1.928 154H0.486L4.924 144.2H6.31L10.762 154H9.292ZM3.496 150.43H7.724L5.61 145.628L3.496 150.43ZM15.9619 146.51C18.1319 146.51 19.7139 148.022 19.7139 150.29C19.7139 152.572 18.1319 154.084 15.9619 154.084C14.9119 154.084 13.9879 153.678 13.3719 152.88V156.716H12.0279V146.58H13.3159V147.756C13.9179 146.93 14.8699 146.51 15.9619 146.51ZM15.8499 152.908C17.2779 152.908 18.3559 151.872 18.3559 150.29C18.3559 148.722 17.2779 147.686 15.8499 147.686C14.4359 147.686 13.3579 148.722 13.3579 150.29C13.3579 151.872 14.4359 152.908 15.8499 152.908ZM25.5049 146.51C27.6749 146.51 29.2569 148.022 29.2569 150.29C29.2569 152.572 27.6749 154.084 25.5049 154.084C24.4549 154.084 23.5309 153.678 22.9149 152.88V156.716H21.5709V146.58H22.8589V147.756C23.4609 146.93 24.4129 146.51 25.5049 146.51ZM25.3929 152.908C26.8209 152.908 27.8989 151.872 27.8989 150.29C27.8989 148.722 26.8209 147.686 25.3929 147.686C23.9789 147.686 22.9009 148.722 22.9009 150.29C22.9009 151.872 23.9789 152.908 25.3929 152.908ZM31.1138 154V143.612H32.4578V154H31.1138ZM35.696 145.152C35.178 145.152 34.786 144.774 34.786 144.284C34.786 143.794 35.178 143.402 35.696 143.402C36.214 143.402 36.606 143.78 36.606 144.256C36.606 144.76 36.228 145.152 35.696 145.152ZM35.024 154V146.58H36.368V154H35.024ZM42.1682 154.084C39.8862 154.084 38.2482 152.502 38.2482 150.29C38.2482 148.078 39.8862 146.51 42.1682 146.51C43.4982 146.51 44.6042 147.056 45.1922 148.092L44.1702 148.75C43.6942 148.022 42.9662 147.686 42.1542 147.686C40.6982 147.686 39.6062 148.708 39.6062 150.29C39.6062 151.9 40.6982 152.908 42.1542 152.908C42.9662 152.908 43.6942 152.572 44.1702 151.844L45.1922 152.488C44.6042 153.524 43.4982 154.084 42.1682 154.084ZM49.6342 146.51C51.6642 146.51 52.8122 147.49 52.8122 149.52V154H51.5382V153.02C51.0902 153.692 50.2642 154.084 49.1022 154.084C47.4222 154.084 46.3582 153.188 46.3582 151.9C46.3582 150.71 47.1282 149.73 49.3402 149.73H51.4682V149.464C51.4682 148.33 50.8102 147.672 49.4802 147.672C48.5982 147.672 47.7022 147.98 47.1282 148.47L46.5682 147.462C47.3382 146.846 48.4442 146.51 49.6342 146.51ZM49.3262 153.048C50.3342 153.048 51.1322 152.586 51.4682 151.732V150.696H49.3962C48.0662 150.696 47.6882 151.214 47.6882 151.844C47.6882 152.586 48.3042 153.048 49.3262 153.048ZM59.0514 152.6L59.4714 153.566C59.0654 153.916 58.4494 154.084 57.8474 154.084C56.3494 154.084 55.4954 153.258 55.4954 151.76V147.686H54.2354V146.58H55.4954V144.956H56.8394V146.58H58.9674V147.686H56.8394V151.704C56.8394 152.502 57.2594 152.95 58.0014 152.95C58.3934 152.95 58.7714 152.824 59.0514 152.6ZM61.7683 145.152C61.2503 145.152 60.8583 144.774 60.8583 144.284C60.8583 143.794 61.2503 143.402 61.7683 143.402C62.2863 143.402 62.6783 143.78 62.6783 144.256C62.6783 144.76 62.3003 145.152 61.7683 145.152ZM61.0963 154V146.58H62.4403V154H61.0963ZM68.1844 154.084C65.9584 154.084 64.3204 152.502 64.3204 150.29C64.3204 148.078 65.9584 146.51 68.1844 146.51C70.4104 146.51 72.0344 148.078 72.0344 150.29C72.0344 152.502 70.4104 154.084 68.1844 154.084ZM68.1844 152.908C69.6124 152.908 70.6764 151.872 70.6764 150.29C70.6764 148.708 69.6124 147.686 68.1844 147.686C66.7564 147.686 65.6784 148.708 65.6784 150.29C65.6784 151.872 66.7564 152.908 68.1844 152.908ZM77.8551 146.51C79.6611 146.51 80.9351 147.546 80.9351 149.73V154H79.5911V149.884C79.5911 148.428 78.8631 147.714 77.5891 147.714C76.1611 147.714 75.2371 148.568 75.2371 150.178V154H73.8931V146.58H75.1811V147.7C75.7271 146.944 76.6791 146.51 77.8551 146.51ZM85.5504 154.084C84.3184 154.084 83.1004 153.706 82.4844 153.216L83.0444 152.152C83.6744 152.6 84.6824 152.922 85.6484 152.922C86.8944 152.922 87.4124 152.544 87.4124 151.914C87.4124 150.248 82.7224 151.69 82.7224 148.736C82.7224 147.406 83.9124 146.51 85.8164 146.51C86.7824 146.51 87.8744 146.762 88.5184 147.182L87.9444 148.246C87.2724 147.812 86.5304 147.658 85.8024 147.658C84.6264 147.658 84.0524 148.092 84.0524 148.68C84.0524 150.43 88.7564 149.002 88.7564 151.886C88.7564 153.23 87.5244 154.084 85.5504 154.084Z" fill="#211433"/>
<path d="M1.97 257V247.2H6.1C9.25 247.2 11.392 249.188 11.392 252.1C11.392 255.012 9.25 257 6.1 257H1.97ZM3.37 255.782H6.016C8.438 255.782 9.992 254.298 9.992 252.1C9.992 249.902 8.438 248.418 6.016 248.418H3.37V255.782ZM20.0464 253.332C20.0464 253.444 20.0324 253.612 20.0184 253.738H13.9984C14.1664 255.04 15.2164 255.908 16.6864 255.908C17.5544 255.908 18.2824 255.614 18.8284 255.012L19.5704 255.88C18.8984 256.664 17.8764 257.084 16.6444 257.084C14.2504 257.084 12.6544 255.502 12.6544 253.29C12.6544 251.092 14.2364 249.51 16.3784 249.51C18.5204 249.51 20.0464 251.05 20.0464 253.332ZM16.3784 250.644C15.0904 250.644 14.1384 251.512 13.9984 252.772H18.7584C18.6184 251.526 17.6804 250.644 16.3784 250.644ZM25.1467 257.084C22.8647 257.084 21.2267 255.502 21.2267 253.29C21.2267 251.078 22.8647 249.51 25.1467 249.51C26.4767 249.51 27.5827 250.056 28.1707 251.092L27.1487 251.75C26.6727 251.022 25.9447 250.686 25.1327 250.686C23.6767 250.686 22.5847 251.708 22.5847 253.29C22.5847 254.9 23.6767 255.908 25.1327 255.908C25.9447 255.908 26.6727 255.572 27.1487 254.844L28.1707 255.488C27.5827 256.524 26.4767 257.084 25.1467 257.084ZM32.9793 257.084C30.7533 257.084 29.1153 255.502 29.1153 253.29C29.1153 251.078 30.7533 249.51 32.9793 249.51C35.2053 249.51 36.8293 251.078 36.8293 253.29C36.8293 255.502 35.2053 257.084 32.9793 257.084ZM32.9793 255.908C34.4073 255.908 35.4713 254.872 35.4713 253.29C35.4713 251.708 34.4073 250.686 32.9793 250.686C31.5513 250.686 30.4733 251.708 30.4733 253.29C30.4733 254.872 31.5513 255.908 32.9793 255.908ZM44.2601 249.58H45.6041V257H44.3301V255.88C43.7841 256.65 42.8601 257.084 41.8101 257.084C39.8921 257.084 38.6181 256.034 38.6181 253.85V249.58H39.9621V253.696C39.9621 255.152 40.6901 255.88 41.9641 255.88C43.3641 255.88 44.2601 255.012 44.2601 253.416V249.58ZM52.0967 249.51C54.2667 249.51 55.8487 251.022 55.8487 253.29C55.8487 255.572 54.2667 257.084 52.0967 257.084C51.0467 257.084 50.1227 256.678 49.5067 255.88V259.716H48.1627V249.58H49.4507V250.756C50.0527 249.93 51.0047 249.51 52.0967 249.51ZM51.9847 255.908C53.4127 255.908 54.4907 254.872 54.4907 253.29C54.4907 251.722 53.4127 250.686 51.9847 250.686C50.5707 250.686 49.4927 251.722 49.4927 253.29C49.4927 254.872 50.5707 255.908 51.9847 255.908ZM57.7056 257V246.612H59.0496V257H57.7056ZM68.3218 253.332C68.3218 253.444 68.3078 253.612 68.2938 253.738H62.2738C62.4418 255.04 63.4918 255.908 64.9618 255.908C65.8298 255.908 66.5578 255.614 67.1038 255.012L67.8458 255.88C67.1738 256.664 66.1518 257.084 64.9198 257.084C62.5258 257.084 60.9298 255.502 60.9298 253.29C60.9298 251.092 62.5118 249.51 64.6538 249.51C66.7958 249.51 68.3218 251.05 68.3218 253.332ZM64.6538 250.644C63.3658 250.644 62.4138 251.512 62.2738 252.772H67.0338C66.8938 251.526 65.9558 250.644 64.6538 250.644ZM75.8441 246.612H77.1881V257H75.9001V255.824C75.2981 256.664 74.3461 257.084 73.2541 257.084C71.0841 257.084 69.5021 255.558 69.5021 253.29C69.5021 251.022 71.0841 249.51 73.2541 249.51C74.3041 249.51 75.2281 249.902 75.8441 250.7V246.612ZM73.3661 255.908C74.7801 255.908 75.8581 254.872 75.8581 253.29C75.8581 251.708 74.7801 250.686 73.3661 250.686C71.9381 250.686 70.8601 251.708 70.8601 253.29C70.8601 254.872 71.9381 255.908 73.3661 255.908ZM3.37 272.782H9.082V274H1.97V264.2H8.886V265.418H3.37V268.428H8.284V269.618H3.37V272.782ZM17.2468 274H15.7208L13.5788 271.158L11.4088 274H9.91084L12.8368 270.206L10.0508 266.58H11.5488L13.5928 269.254L15.6228 266.58H17.0928L14.2928 270.206L17.2468 274ZM25.1734 270.332C25.1734 270.444 25.1594 270.612 25.1454 270.738H19.1254C19.2934 272.04 20.3434 272.908 21.8134 272.908C22.6814 272.908 23.4094 272.614 23.9554 272.012L24.6974 272.88C24.0254 273.664 23.0034 274.084 21.7714 274.084C19.3774 274.084 17.7814 272.502 17.7814 270.29C17.7814 268.092 19.3634 266.51 21.5054 266.51C23.6474 266.51 25.1734 268.05 25.1734 270.332ZM21.5054 267.644C20.2174 267.644 19.2654 268.512 19.1254 269.772H23.8854C23.7454 268.526 22.8074 267.644 21.5054 267.644ZM30.2736 274.084C27.9916 274.084 26.3536 272.502 26.3536 270.29C26.3536 268.078 27.9916 266.51 30.2736 266.51C31.6036 266.51 32.7096 267.056 33.2976 268.092L32.2756 268.75C31.7996 268.022 31.0716 267.686 30.2596 267.686C28.8036 267.686 27.7116 268.708 27.7116 270.29C27.7116 271.9 28.8036 272.908 30.2596 272.908C31.0716 272.908 31.7996 272.572 32.2756 271.844L33.2976 272.488C32.7096 273.524 31.6036 274.084 30.2736 274.084ZM40.6097 266.58H41.9537V274H40.6797V272.88C40.1337 273.65 39.2097 274.084 38.1597 274.084C36.2417 274.084 34.9677 273.034 34.9677 270.85V266.58H36.3117V270.696C36.3117 272.152 37.0397 272.88 38.3137 272.88C39.7137 272.88 40.6097 272.012 40.6097 270.416V266.58ZM48.2643 272.6L48.6843 273.566C48.2783 273.916 47.6623 274.084 47.0603 274.084C45.5623 274.084 44.7083 273.258 44.7083 271.76V267.686H43.4483V266.58H44.7083V264.956H46.0523V266.58H48.1803V267.686H46.0523V271.704C46.0523 272.502 46.4723 272.95 47.2143 272.95C47.6063 272.95 47.9843 272.824 48.2643 272.6ZM50.9812 265.152C50.4632 265.152 50.0712 264.774 50.0712 264.284C50.0712 263.794 50.4632 263.402 50.9812 263.402C51.4992 263.402 51.8912 263.78 51.8912 264.256C51.8912 264.76 51.5132 265.152 50.9812 265.152ZM50.3092 274V266.58H51.6532V274H50.3092ZM57.3973 274.084C55.1713 274.084 53.5333 272.502 53.5333 270.29C53.5333 268.078 55.1713 266.51 57.3973 266.51C59.6233 266.51 61.2473 268.078 61.2473 270.29C61.2473 272.502 59.6233 274.084 57.3973 274.084ZM57.3973 272.908C58.8253 272.908 59.8893 271.872 59.8893 270.29C59.8893 268.708 58.8253 267.686 57.3973 267.686C55.9693 267.686 54.8913 268.708 54.8913 270.29C54.8913 271.872 55.9693 272.908 57.3973 272.908ZM67.068 266.51C68.874 266.51 70.148 267.546 70.148 269.73V274H68.804V269.884C68.804 268.428 68.076 267.714 66.802 267.714C65.374 267.714 64.45 268.568 64.45 270.178V274H63.106V266.58H64.394V267.7C64.94 266.944 65.892 266.51 67.068 266.51Z" fill="#211433"/>
<path d="M556.509 255.782H562.221V257H555.109V247.2H562.025V248.418H556.509V251.428H561.423V252.618H556.509V255.782ZM570.386 257H568.86L566.718 254.158L564.548 257H563.05L565.976 253.206L563.19 249.58H564.688L566.732 252.254L568.762 249.58H570.232L567.432 253.206L570.386 257ZM578.312 253.332C578.312 253.444 578.298 253.612 578.284 253.738H572.264C572.432 255.04 573.482 255.908 574.952 255.908C575.82 255.908 576.548 255.614 577.094 255.012L577.836 255.88C577.164 256.664 576.142 257.084 574.91 257.084C572.516 257.084 570.92 255.502 570.92 253.29C570.92 251.092 572.502 249.51 574.644 249.51C576.786 249.51 578.312 251.05 578.312 253.332ZM574.644 250.644C573.356 250.644 572.404 251.512 572.264 252.772H577.024C576.884 251.526 575.946 250.644 574.644 250.644ZM583.412 257.084C581.13 257.084 579.492 255.502 579.492 253.29C579.492 251.078 581.13 249.51 583.412 249.51C584.742 249.51 585.848 250.056 586.436 251.092L585.414 251.75C584.938 251.022 584.21 250.686 583.398 250.686C581.942 250.686 580.85 251.708 580.85 253.29C580.85 254.9 581.942 255.908 583.398 255.908C584.21 255.908 584.938 255.572 585.414 254.844L586.436 255.488C585.848 256.524 584.742 257.084 583.412 257.084ZM593.748 249.58H595.092V257H593.818V255.88C593.272 256.65 592.348 257.084 591.298 257.084C589.38 257.084 588.106 256.034 588.106 253.85V249.58H589.45V253.696C589.45 255.152 590.178 255.88 591.452 255.88C592.852 255.88 593.748 255.012 593.748 253.416V249.58ZM601.403 255.6L601.823 256.566C601.417 256.916 600.801 257.084 600.199 257.084C598.701 257.084 597.847 256.258 597.847 254.76V250.686H596.587V249.58H597.847V247.956H599.191V249.58H601.319V250.686H599.191V254.704C599.191 255.502 599.611 255.95 600.353 255.95C600.745 255.95 601.123 255.824 601.403 255.6ZM609.908 253.332C609.908 253.444 609.894 253.612 609.88 253.738H603.86C604.028 255.04 605.078 255.908 606.548 255.908C607.416 255.908 608.144 255.614 608.69 255.012L609.432 255.88C608.76 256.664 607.738 257.084 606.506 257.084C604.112 257.084 602.516 255.502 602.516 253.29C602.516 251.092 604.098 249.51 606.24 249.51C608.382 249.51 609.908 251.05 609.908 253.332ZM606.24 250.644C604.952 250.644 604 251.512 603.86 252.772H608.62C608.48 251.526 607.542 250.644 606.24 250.644ZM527.547 272.6L527.967 273.566C527.561 273.916 526.945 274.084 526.343 274.084C524.845 274.084 523.991 273.258 523.991 271.76V267.686H522.731V266.58H523.991V264.956H525.335V266.58H527.463V267.686H525.335V271.704C525.335 272.502 525.755 272.95 526.497 272.95C526.889 272.95 527.267 272.824 527.547 272.6ZM530.88 267.826C531.356 266.958 532.28 266.51 533.582 266.51V267.812C533.47 267.798 533.372 267.798 533.274 267.798C531.832 267.798 530.936 268.68 530.936 270.304V274H529.592V266.58H530.88V267.826ZM537.927 266.51C539.957 266.51 541.105 267.49 541.105 269.52V274H539.831V273.02C539.383 273.692 538.557 274.084 537.395 274.084C535.715 274.084 534.651 273.188 534.651 271.9C534.651 270.71 535.421 269.73 537.633 269.73H539.761V269.464C539.761 268.33 539.103 267.672 537.773 267.672C536.891 267.672 535.995 267.98 535.421 268.47L534.861 267.462C535.631 266.846 536.737 266.51 537.927 266.51ZM537.619 273.048C538.627 273.048 539.425 272.586 539.761 271.732V270.696H537.689C536.359 270.696 535.981 271.214 535.981 271.844C535.981 272.586 536.597 273.048 537.619 273.048ZM547.554 266.51C549.36 266.51 550.634 267.546 550.634 269.73V274H549.29V269.884C549.29 268.428 548.562 267.714 547.288 267.714C545.86 267.714 544.936 268.568 544.936 270.178V274H543.592V266.58H544.88V267.7C545.426 266.944 546.378 266.51 547.554 266.51ZM555.25 274.084C554.018 274.084 552.8 273.706 552.184 273.216L552.744 272.152C553.374 272.6 554.382 272.922 555.348 272.922C556.594 272.922 557.112 272.544 557.112 271.914C557.112 270.248 552.422 271.69 552.422 268.736C552.422 267.406 553.612 266.51 555.516 266.51C556.482 266.51 557.574 266.762 558.218 267.182L557.644 268.246C556.972 267.812 556.23 267.658 555.502 267.658C554.326 267.658 553.752 268.092 553.752 268.68C553.752 270.43 558.456 269.002 558.456 271.886C558.456 273.23 557.224 274.084 555.25 274.084ZM562.837 266.51C564.867 266.51 566.015 267.49 566.015 269.52V274H564.741V273.02C564.293 273.692 563.467 274.084 562.305 274.084C560.625 274.084 559.561 273.188 559.561 271.9C559.561 270.71 560.331 269.73 562.543 269.73H564.671V269.464C564.671 268.33 564.013 267.672 562.683 267.672C561.801 267.672 560.905 267.98 560.331 268.47L559.771 267.462C560.541 266.846 561.647 266.51 562.837 266.51ZM562.529 273.048C563.537 273.048 564.335 272.586 564.671 271.732V270.696H562.599C561.269 270.696 560.891 271.214 560.891 271.844C560.891 272.586 561.507 273.048 562.529 273.048ZM571.778 274.084C569.496 274.084 567.858 272.502 567.858 270.29C567.858 268.078 569.496 266.51 571.778 266.51C573.108 266.51 574.214 267.056 574.802 268.092L573.78 268.75C573.304 268.022 572.576 267.686 571.764 267.686C570.308 267.686 569.216 268.708 569.216 270.29C569.216 271.9 570.308 272.908 571.764 272.908C572.576 272.908 573.304 272.572 573.78 271.844L574.802 272.488C574.214 273.524 573.108 274.084 571.778 274.084ZM580.389 272.6L580.809 273.566C580.403 273.916 579.787 274.084 579.185 274.084C577.687 274.084 576.833 273.258 576.833 271.76V267.686H575.573V266.58H576.833V264.956H578.177V266.58H580.305V267.686H578.177V271.704C578.177 272.502 578.597 272.95 579.339 272.95C579.731 272.95 580.109 272.824 580.389 272.6ZM583.106 265.152C582.588 265.152 582.196 264.774 582.196 264.284C582.196 263.794 582.588 263.402 583.106 263.402C583.624 263.402 584.016 263.78 584.016 264.256C584.016 264.76 583.638 265.152 583.106 265.152ZM582.434 274V266.58H583.778V274H582.434ZM589.522 274.084C587.296 274.084 585.658 272.502 585.658 270.29C585.658 268.078 587.296 266.51 589.522 266.51C591.748 266.51 593.372 268.078 593.372 270.29C593.372 272.502 591.748 274.084 589.522 274.084ZM589.522 272.908C590.95 272.908 592.014 271.872 592.014 270.29C592.014 268.708 590.95 267.686 589.522 267.686C588.094 267.686 587.016 268.708 587.016 270.29C587.016 271.872 588.094 272.908 589.522 272.908ZM599.193 266.51C600.999 266.51 602.273 267.546 602.273 269.73V274H600.929V269.884C600.929 268.428 600.201 267.714 598.927 267.714C597.499 267.714 596.575 268.568 596.575 270.178V274H595.231V266.58H596.519V267.7C597.065 266.944 598.017 266.51 599.193 266.51ZM606.888 274.084C605.656 274.084 604.438 273.706 603.822 273.216L604.382 272.152C605.012 272.6 606.02 272.922 606.986 272.922C608.232 272.922 608.75 272.544 608.75 271.914C608.75 270.248 604.06 271.69 604.06 268.736C604.06 267.406 605.25 266.51 607.154 266.51C608.12 266.51 609.212 266.762 609.856 267.182L609.282 268.246C608.61 267.812 607.868 267.658 607.14 267.658C605.964 267.658 605.39 268.092 605.39 268.68C605.39 270.43 610.094 269.002 610.094 271.886C610.094 273.23 608.862 274.084 606.888 274.084Z" fill="#211433"/>
<path d="M6.352 393.612C3.384 393.612 1.172 391.498 1.172 388.6C1.172 385.702 3.384 383.588 6.366 383.588C7.878 383.588 9.194 384.106 10.09 385.114L9.18 385.996C8.424 385.198 7.5 384.834 6.422 384.834C4.21 384.834 2.572 386.43 2.572 388.6C2.572 390.77 4.21 392.366 6.422 392.366C7.5 392.366 8.424 391.988 9.18 391.19L10.09 392.072C9.194 393.08 7.878 393.612 6.352 393.612ZM14.7547 393.584C12.5287 393.584 10.8907 392.002 10.8907 389.79C10.8907 387.578 12.5287 386.01 14.7547 386.01C16.9807 386.01 18.6047 387.578 18.6047 389.79C18.6047 392.002 16.9807 393.584 14.7547 393.584ZM14.7547 392.408C16.1827 392.408 17.2467 391.372 17.2467 389.79C17.2467 388.208 16.1827 387.186 14.7547 387.186C13.3267 387.186 12.2487 388.208 12.2487 389.79C12.2487 391.372 13.3267 392.408 14.7547 392.408ZM24.4255 386.01C26.2315 386.01 27.5055 387.046 27.5055 389.23V393.5H26.1615V389.384C26.1615 387.928 25.4335 387.214 24.1595 387.214C22.7315 387.214 21.8075 388.068 21.8075 389.678V393.5H20.4635V386.08H21.7515V387.2C22.2975 386.444 23.2495 386.01 24.4255 386.01ZM32.1208 393.584C30.8888 393.584 29.6708 393.206 29.0548 392.716L29.6148 391.652C30.2448 392.1 31.2528 392.422 32.2188 392.422C33.4648 392.422 33.9828 392.044 33.9828 391.414C33.9828 389.748 29.2928 391.19 29.2928 388.236C29.2928 386.906 30.4828 386.01 32.3868 386.01C33.3528 386.01 34.4448 386.262 35.0888 386.682L34.5148 387.746C33.8428 387.312 33.1008 387.158 32.3728 387.158C31.1968 387.158 30.6228 387.592 30.6228 388.18C30.6228 389.93 35.3268 388.502 35.3268 391.386C35.3268 392.73 34.0948 393.584 32.1208 393.584ZM43.7124 389.832C43.7124 389.944 43.6984 390.112 43.6844 390.238H37.6644C37.8324 391.54 38.8824 392.408 40.3524 392.408C41.2204 392.408 41.9484 392.114 42.4944 391.512L43.2364 392.38C42.5644 393.164 41.5424 393.584 40.3104 393.584C37.9164 393.584 36.3204 392.002 36.3204 389.79C36.3204 387.592 37.9024 386.01 40.0444 386.01C42.1864 386.01 43.7124 387.55 43.7124 389.832ZM40.0444 387.144C38.7564 387.144 37.8044 388.012 37.6644 389.272H42.4244C42.2844 388.026 41.3464 387.144 40.0444 387.144ZM49.5407 386.01C51.3467 386.01 52.6207 387.046 52.6207 389.23V393.5H51.2767V389.384C51.2767 387.928 50.5487 387.214 49.2747 387.214C47.8467 387.214 46.9227 388.068 46.9227 389.678V393.5H45.5787V386.08H46.8667V387.2C47.4127 386.444 48.3647 386.01 49.5407 386.01ZM57.236 393.584C56.004 393.584 54.786 393.206 54.17 392.716L54.73 391.652C55.36 392.1 56.368 392.422 57.334 392.422C58.58 392.422 59.098 392.044 59.098 391.414C59.098 389.748 54.408 391.19 54.408 388.236C54.408 386.906 55.598 386.01 57.502 386.01C58.468 386.01 59.56 386.262 60.204 386.682L59.63 387.746C58.958 387.312 58.216 387.158 57.488 387.158C56.312 387.158 55.738 387.592 55.738 388.18C55.738 389.93 60.442 388.502 60.442 391.386C60.442 392.73 59.21 393.584 57.236 393.584ZM67.6937 386.08H69.0377V393.5H67.7637V392.38C67.2177 393.15 66.2937 393.584 65.2437 393.584C63.3257 393.584 62.0517 392.534 62.0517 390.35V386.08H63.3957V390.196C63.3957 391.652 64.1237 392.38 65.3977 392.38C66.7977 392.38 67.6937 391.512 67.6937 389.916V386.08ZM73.7243 393.584C72.4923 393.584 71.2743 393.206 70.6583 392.716L71.2183 391.652C71.8483 392.1 72.8563 392.422 73.8223 392.422C75.0683 392.422 75.5863 392.044 75.5863 391.414C75.5863 389.748 70.8963 391.19 70.8963 388.236C70.8963 386.906 72.0863 386.01 73.9903 386.01C74.9563 386.01 76.0483 386.262 76.6923 386.682L76.1183 387.746C75.4463 387.312 74.7043 387.158 73.9763 387.158C72.8003 387.158 72.2263 387.592 72.2263 388.18C72.2263 389.93 76.9303 388.502 76.9303 391.386C76.9303 392.73 75.6983 393.584 73.7243 393.584ZM1.97 410.5V400.7H3.37V409.282H8.676V410.5H1.97ZM12.8295 403.01C14.8595 403.01 16.0075 403.99 16.0075 406.02V410.5H14.7335V409.52C14.2855 410.192 13.4595 410.584 12.2975 410.584C10.6175 410.584 9.55352 409.688 9.55352 408.4C9.55352 407.21 10.3235 406.23 12.5355 406.23H14.6635V405.964C14.6635 404.83 14.0055 404.172 12.6755 404.172C11.7935 404.172 10.8975 404.48 10.3235 404.97L9.76352 403.962C10.5335 403.346 11.6395 403.01 12.8295 403.01ZM12.5215 409.548C13.5295 409.548 14.3275 409.086 14.6635 408.232V407.196H12.5915C11.2615 407.196 10.8835 407.714 10.8835 408.344C10.8835 409.086 11.4995 409.548 12.5215 409.548ZM23.608 403.08H24.924L21.326 411.242C20.668 412.81 19.814 413.3 18.68 413.3C17.966 413.3 17.238 413.062 16.776 412.614L17.35 411.606C17.714 411.956 18.176 412.152 18.68 412.152C19.324 412.152 19.73 411.858 20.094 411.004L20.332 410.486L17.056 403.08H18.456L21.046 409.016L23.608 403.08ZM32.6792 406.832C32.6792 406.944 32.6652 407.112 32.6512 407.238H26.6312C26.7992 408.54 27.8492 409.408 29.3192 409.408C30.1872 409.408 30.9152 409.114 31.4612 408.512L32.2032 409.38C31.5312 410.164 30.5092 410.584 29.2772 410.584C26.8832 410.584 25.2872 409.002 25.2872 406.79C25.2872 404.592 26.8692 403.01 29.0112 403.01C31.1532 403.01 32.6792 404.55 32.6792 406.832ZM29.0112 404.144C27.7232 404.144 26.7712 405.012 26.6312 406.272H31.3912C31.2512 405.026 30.3132 404.144 29.0112 404.144ZM35.8335 404.326C36.3095 403.458 37.2335 403.01 38.5355 403.01V404.312C38.4235 404.298 38.3255 404.298 38.2275 404.298C36.7855 404.298 35.8895 405.18 35.8895 406.804V410.5H34.5455V403.08H35.8335V404.326Z" fill="#211433"/>
<path d="M527.989 383.782H533.701V385H526.589V375.2H533.505V376.418H527.989V379.428H532.903V380.618H527.989V383.782ZM539.734 377.51C541.54 377.51 542.814 378.546 542.814 380.73V385H541.47V380.884C541.47 379.428 540.742 378.714 539.468 378.714C538.04 378.714 537.116 379.568 537.116 381.178V385H535.772V377.58H537.06V378.7C537.606 377.944 538.558 377.51 539.734 377.51ZM547.429 385.084C546.197 385.084 544.979 384.706 544.363 384.216L544.923 383.152C545.553 383.6 546.561 383.922 547.527 383.922C548.773 383.922 549.291 383.544 549.291 382.914C549.291 381.248 544.601 382.69 544.601 379.736C544.601 378.406 545.791 377.51 547.695 377.51C548.661 377.51 549.753 377.762 550.397 378.182L549.823 379.246C549.151 378.812 548.409 378.658 547.681 378.658C546.505 378.658 545.931 379.092 545.931 379.68C545.931 381.43 550.635 380.002 550.635 382.886C550.635 384.23 549.403 385.084 547.429 385.084ZM557.887 377.58H559.231V385H557.957V383.88C557.411 384.65 556.487 385.084 555.437 385.084C553.519 385.084 552.245 384.034 552.245 381.85V377.58H553.589V381.696C553.589 383.152 554.317 383.88 555.591 383.88C556.991 383.88 557.887 383.012 557.887 381.416V377.58ZM563.078 378.826C563.554 377.958 564.478 377.51 565.78 377.51V378.812C565.668 378.798 565.57 378.798 565.472 378.798C564.03 378.798 563.134 379.68 563.134 381.304V385H561.79V377.58H563.078V378.826ZM574.074 381.332C574.074 381.444 574.06 381.612 574.046 381.738H568.026C568.194 383.04 569.244 383.908 570.714 383.908C571.582 383.908 572.31 383.614 572.856 383.012L573.598 383.88C572.926 384.664 571.904 385.084 570.672 385.084C568.278 385.084 566.682 383.502 566.682 381.29C566.682 379.092 568.264 377.51 570.406 377.51C572.548 377.51 574.074 379.05 574.074 381.332ZM570.406 378.644C569.118 378.644 568.166 379.512 568.026 380.772H572.786C572.646 379.526 571.708 378.644 570.406 378.644ZM585.356 374.612H586.7V385H585.412V383.824C584.81 384.664 583.858 385.084 582.766 385.084C580.596 385.084 579.014 383.558 579.014 381.29C579.014 379.022 580.596 377.51 582.766 377.51C583.816 377.51 584.74 377.902 585.356 378.7V374.612ZM582.878 383.908C584.292 383.908 585.37 382.872 585.37 381.29C585.37 379.708 584.292 378.686 582.878 378.686C581.45 378.686 580.372 379.708 580.372 381.29C580.372 382.872 581.45 383.908 582.878 383.908ZM591.945 377.51C593.975 377.51 595.123 378.49 595.123 380.52V385H593.849V384.02C593.401 384.692 592.575 385.084 591.413 385.084C589.733 385.084 588.669 384.188 588.669 382.9C588.669 381.71 589.439 380.73 591.651 380.73H593.779V380.464C593.779 379.33 593.121 378.672 591.791 378.672C590.909 378.672 590.013 378.98 589.439 379.47L588.879 378.462C589.649 377.846 590.755 377.51 591.945 377.51ZM591.637 384.048C592.645 384.048 593.443 383.586 593.779 382.732V381.696H591.707C590.377 381.696 589.999 382.214 589.999 382.844C589.999 383.586 590.615 384.048 591.637 384.048ZM601.362 383.6L601.782 384.566C601.376 384.916 600.76 385.084 600.158 385.084C598.66 385.084 597.806 384.258 597.806 382.76V378.686H596.546V377.58H597.806V375.956H599.15V377.58H601.278V378.686H599.15V382.704C599.15 383.502 599.57 383.95 600.312 383.95C600.704 383.95 601.082 383.824 601.362 383.6ZM606.109 377.51C608.139 377.51 609.287 378.49 609.287 380.52V385H608.013V384.02C607.565 384.692 606.739 385.084 605.577 385.084C603.897 385.084 602.833 384.188 602.833 382.9C602.833 381.71 603.603 380.73 605.815 380.73H607.943V380.464C607.943 379.33 607.285 378.672 605.955 378.672C605.073 378.672 604.177 378.98 603.603 379.47L603.043 378.462C603.813 377.846 604.919 377.51 606.109 377.51ZM605.801 384.048C606.809 384.048 607.607 383.586 607.943 382.732V381.696H605.871C604.541 381.696 604.163 382.214 604.163 382.844C604.163 383.586 604.779 384.048 605.801 384.048ZM504.349 394.51C506.379 394.51 507.527 395.49 507.527 397.52V402H506.253V401.02C505.805 401.692 504.979 402.084 503.817 402.084C502.137 402.084 501.073 401.188 501.073 399.9C501.073 398.71 501.843 397.73 504.055 397.73H506.183V397.464C506.183 396.33 505.525 395.672 504.195 395.672C503.313 395.672 502.417 395.98 501.843 396.47L501.283 395.462C502.053 394.846 503.159 394.51 504.349 394.51ZM504.041 401.048C505.049 401.048 505.847 400.586 506.183 399.732V398.696H504.111C502.781 398.696 502.403 399.214 502.403 399.844C502.403 400.586 503.019 401.048 504.041 401.048ZM515.128 394.58H516.444L513.196 402H511.824L508.576 394.58H509.976L512.524 400.53L515.128 394.58ZM520.167 394.51C522.197 394.51 523.345 395.49 523.345 397.52V402H522.071V401.02C521.623 401.692 520.797 402.084 519.635 402.084C517.955 402.084 516.891 401.188 516.891 399.9C516.891 398.71 517.661 397.73 519.873 397.73H522.001V397.464C522.001 396.33 521.343 395.672 520.013 395.672C519.131 395.672 518.235 395.98 517.661 396.47L517.101 395.462C517.871 394.846 518.977 394.51 520.167 394.51ZM519.859 401.048C520.867 401.048 521.665 400.586 522.001 399.732V398.696H519.929C518.599 398.696 518.221 399.214 518.221 399.844C518.221 400.586 518.837 401.048 519.859 401.048ZM526.505 393.152C525.987 393.152 525.595 392.774 525.595 392.284C525.595 391.794 525.987 391.402 526.505 391.402C527.023 391.402 527.415 391.78 527.415 392.256C527.415 392.76 527.037 393.152 526.505 393.152ZM525.833 402V394.58H527.177V402H525.833ZM529.743 402V391.612H531.087V402H529.743ZM536.355 394.51C538.385 394.51 539.533 395.49 539.533 397.52V402H538.259V401.02C537.811 401.692 536.985 402.084 535.823 402.084C534.143 402.084 533.079 401.188 533.079 399.9C533.079 398.71 533.849 397.73 536.061 397.73H538.189V397.464C538.189 396.33 537.531 395.672 536.201 395.672C535.319 395.672 534.423 395.98 533.849 396.47L533.289 395.462C534.059 394.846 535.165 394.51 536.355 394.51ZM536.047 401.048C537.055 401.048 537.853 400.586 538.189 399.732V398.696H536.117C534.787 398.696 534.409 399.214 534.409 399.844C534.409 400.586 535.025 401.048 536.047 401.048ZM545.954 394.51C548.124 394.51 549.706 396.022 549.706 398.29C549.706 400.558 548.124 402.084 545.954 402.084C544.862 402.084 543.91 401.664 543.308 400.824V402H542.02V391.612H543.364V395.7C543.98 394.902 544.904 394.51 545.954 394.51ZM545.842 400.908C547.27 400.908 548.348 399.872 548.348 398.29C548.348 396.708 547.27 395.686 545.842 395.686C544.428 395.686 543.35 396.708 543.35 398.29C543.35 399.872 544.428 400.908 545.842 400.908ZM552.235 393.152C551.717 393.152 551.325 392.774 551.325 392.284C551.325 391.794 551.717 391.402 552.235 391.402C552.753 391.402 553.145 391.78 553.145 392.256C553.145 392.76 552.767 393.152 552.235 393.152ZM551.563 402V394.58H552.907V402H551.563ZM555.473 402V391.612H556.817V402H555.473ZM560.055 393.152C559.537 393.152 559.145 392.774 559.145 392.284C559.145 391.794 559.537 391.402 560.055 391.402C560.573 391.402 560.965 391.78 560.965 392.256C560.965 392.76 560.587 393.152 560.055 393.152ZM559.383 402V394.58H560.727V402H559.383ZM567.046 400.6L567.466 401.566C567.06 401.916 566.444 402.084 565.842 402.084C564.344 402.084 563.49 401.258 563.49 399.76V395.686H562.23V394.58H563.49V392.956H564.834V394.58H566.962V395.686H564.834V399.704C564.834 400.502 565.254 400.95 565.996 400.95C566.388 400.95 566.766 400.824 567.046 400.6ZM574.204 394.58H575.52L571.922 402.742C571.264 404.31 570.41 404.8 569.276 404.8C568.562 404.8 567.834 404.562 567.372 404.114L567.946 403.106C568.31 403.456 568.772 403.652 569.276 403.652C569.92 403.652 570.326 403.358 570.69 402.504L570.928 401.986L567.652 394.58H569.052L571.642 400.516L574.204 394.58ZM583.236 394.51C585.266 394.51 586.414 395.49 586.414 397.52V402H585.14V401.02C584.692 401.692 583.866 402.084 582.704 402.084C581.024 402.084 579.96 401.188 579.96 399.9C579.96 398.71 580.73 397.73 582.942 397.73H585.07V397.464C585.07 396.33 584.412 395.672 583.082 395.672C582.2 395.672 581.304 395.98 580.73 396.47L580.17 395.462C580.94 394.846 582.046 394.51 583.236 394.51ZM582.928 401.048C583.936 401.048 584.734 400.586 585.07 399.732V398.696H582.998C581.668 398.696 581.29 399.214 581.29 399.844C581.29 400.586 581.906 401.048 582.928 401.048ZM592.863 394.51C594.669 394.51 595.943 395.546 595.943 397.73V402H594.599V397.884C594.599 396.428 593.871 395.714 592.597 395.714C591.169 395.714 590.245 396.568 590.245 398.178V402H588.901V394.58H590.189V395.7C590.735 394.944 591.687 394.51 592.863 394.51ZM604.127 391.612H605.471V402H604.183V400.824C603.581 401.664 602.629 402.084 601.537 402.084C599.367 402.084 597.785 400.558 597.785 398.29C597.785 396.022 599.367 394.51 601.537 394.51C602.587 394.51 603.511 394.902 604.127 395.7V391.612ZM601.649 400.908C603.063 400.908 604.141 399.872 604.141 398.29C604.141 396.708 603.063 395.686 601.649 395.686C600.221 395.686 599.143 396.708 599.143 398.29C599.143 399.872 600.221 400.908 601.649 400.908ZM540.086 419.084C537.804 419.084 536.166 417.502 536.166 415.29C536.166 413.078 537.804 411.51 540.086 411.51C541.416 411.51 542.522 412.056 543.11 413.092L542.088 413.75C541.612 413.022 540.884 412.686 540.072 412.686C538.616 412.686 537.524 413.708 537.524 415.29C537.524 416.9 538.616 417.908 540.072 417.908C540.884 417.908 541.612 417.572 542.088 416.844L543.11 417.488C542.522 418.524 541.416 419.084 540.086 419.084ZM547.919 419.084C545.693 419.084 544.055 417.502 544.055 415.29C544.055 413.078 545.693 411.51 547.919 411.51C550.145 411.51 551.769 413.078 551.769 415.29C551.769 417.502 550.145 419.084 547.919 419.084ZM547.919 417.908C549.347 417.908 550.411 416.872 550.411 415.29C550.411 413.708 549.347 412.686 547.919 412.686C546.491 412.686 545.413 413.708 545.413 415.29C545.413 416.872 546.491 417.908 547.919 417.908ZM557.59 411.51C559.396 411.51 560.67 412.546 560.67 414.73V419H559.326V414.884C559.326 413.428 558.598 412.714 557.324 412.714C555.896 412.714 554.972 413.568 554.972 415.178V419H553.628V411.58H554.916V412.7C555.462 411.944 556.414 411.51 557.59 411.51ZM565.285 419.084C564.053 419.084 562.835 418.706 562.219 418.216L562.779 417.152C563.409 417.6 564.417 417.922 565.383 417.922C566.629 417.922 567.147 417.544 567.147 416.914C567.147 415.248 562.457 416.69 562.457 413.736C562.457 412.406 563.647 411.51 565.551 411.51C566.517 411.51 567.609 411.762 568.253 412.182L567.679 413.246C567.007 412.812 566.265 412.658 565.537 412.658C564.361 412.658 563.787 413.092 563.787 413.68C563.787 415.43 568.491 414.002 568.491 416.886C568.491 418.23 567.259 419.084 565.285 419.084ZM576.876 415.332C576.876 415.444 576.862 415.612 576.848 415.738H570.828C570.996 417.04 572.046 417.908 573.516 417.908C574.384 417.908 575.112 417.614 575.658 417.012L576.4 417.88C575.728 418.664 574.706 419.084 573.474 419.084C571.08 419.084 569.484 417.502 569.484 415.29C569.484 413.092 571.066 411.51 573.208 411.51C575.35 411.51 576.876 413.05 576.876 415.332ZM573.208 412.644C571.92 412.644 570.968 413.512 570.828 414.772H575.588C575.448 413.526 574.51 412.644 573.208 412.644ZM582.705 411.51C584.511 411.51 585.785 412.546 585.785 414.73V419H584.441V414.884C584.441 413.428 583.713 412.714 582.439 412.714C581.011 412.714 580.087 413.568 580.087 415.178V419H578.743V411.58H580.031V412.7C580.577 411.944 581.529 411.51 582.705 411.51ZM590.4 419.084C589.168 419.084 587.95 418.706 587.334 418.216L587.894 417.152C588.524 417.6 589.532 417.922 590.498 417.922C591.744 417.922 592.262 417.544 592.262 416.914C592.262 415.248 587.572 416.69 587.572 413.736C587.572 412.406 588.762 411.51 590.666 411.51C591.632 411.51 592.724 411.762 593.368 412.182L592.794 413.246C592.122 412.812 591.38 412.658 590.652 412.658C589.476 412.658 588.902 413.092 588.902 413.68C588.902 415.43 593.606 414.002 593.606 416.886C593.606 418.23 592.374 419.084 590.4 419.084ZM600.858 411.58H602.202V419H600.928V417.88C600.382 418.65 599.458 419.084 598.408 419.084C596.49 419.084 595.216 418.034 595.216 415.85V411.58H596.56V415.696C596.56 417.152 597.288 417.88 598.562 417.88C599.962 417.88 600.858 417.012 600.858 415.416V411.58ZM606.888 419.084C605.656 419.084 604.438 418.706 603.822 418.216L604.382 417.152C605.012 417.6 606.02 417.922 606.986 417.922C608.232 417.922 608.75 417.544 608.75 416.914C608.75 415.248 604.06 416.69 604.06 413.736C604.06 412.406 605.25 411.51 607.154 411.51C608.12 411.51 609.212 411.762 609.856 412.182L609.282 413.246C608.61 412.812 607.868 412.658 607.14 412.658C605.964 412.658 605.39 413.092 605.39 413.68C605.39 415.43 610.094 414.002 610.094 416.886C610.094 418.23 608.862 419.084 606.888 419.084Z" fill="#211433"/>
<path d="M131.686 18L130.818 15.9H126.268L125.4 18H123.076L127.444 8.2H129.684L134.066 18H131.686ZM126.996 14.178H130.104L128.55 10.426L126.996 14.178ZM141.568 15.816V12.946H143.64V16.922C142.562 17.734 141.078 18.168 139.678 18.168C136.598 18.168 134.33 16.054 134.33 13.1C134.33 10.146 136.598 8.032 139.72 8.032C141.442 8.032 142.87 8.62 143.822 9.726L142.366 11.07C141.652 10.314 140.826 9.964 139.832 9.964C137.928 9.964 136.626 11.238 136.626 13.1C136.626 14.934 137.928 16.236 139.804 16.236C140.42 16.236 140.994 16.124 141.568 15.816ZM148.001 16.18H153.335V18H145.747V8.2H153.153V10.02H148.001V12.148H152.551V13.912H148.001V16.18ZM161.888 8.2H164.128V18H162.266L157.38 12.05V18H155.14V8.2H157.016L161.888 14.15V8.2ZM168.476 18V10.048H165.34V8.2H173.88V10.048H170.744V18H168.476ZM178.252 18.168C176.698 18.168 175.13 17.706 174.262 17.034L175.032 15.326C175.858 15.928 177.09 16.348 178.266 16.348C179.61 16.348 180.156 15.9 180.156 15.298C180.156 13.464 174.458 14.724 174.458 11.084C174.458 9.418 175.802 8.032 178.588 8.032C179.82 8.032 181.08 8.326 181.99 8.9L181.29 10.622C180.38 10.104 179.442 9.852 178.574 9.852C177.23 9.852 176.712 10.356 176.712 10.972C176.712 12.778 182.41 11.532 182.41 15.13C182.41 16.768 181.052 18.168 178.252 18.168Z" fill="#211433"/>
<path d="M79.162 59V49.2H83.614C84.678 49.2 85.616 49.4053 86.428 49.816C87.24 50.2173 87.8747 50.782 88.332 51.51C88.7893 52.238 89.018 53.1013 89.018 54.1C89.018 55.0893 88.7893 55.9527 88.332 56.69C87.8747 57.418 87.24 57.9873 86.428 58.398C85.616 58.7993 84.678 59 83.614 59H79.162ZM81.43 57.138H83.502C84.1553 57.138 84.72 57.0167 85.196 56.774C85.6813 56.522 86.0547 56.1673 86.316 55.71C86.5867 55.2527 86.722 54.716 86.722 54.1C86.722 53.4747 86.5867 52.938 86.316 52.49C86.0547 52.0327 85.6813 51.6827 85.196 51.44C84.72 51.188 84.1553 51.062 83.502 51.062H81.43V57.138ZM90.7284 59V49.2H92.9964V59H90.7284ZM95.3222 59V49.2H99.7742C100.838 49.2 101.776 49.4053 102.588 49.816C103.4 50.2173 104.035 50.782 104.492 51.51C104.949 52.238 105.178 53.1013 105.178 54.1C105.178 55.0893 104.949 55.9527 104.492 56.69C104.035 57.418 103.4 57.9873 102.588 58.398C101.776 58.7993 100.838 59 99.7742 59H95.3222ZM97.5902 57.138H99.6622C100.315 57.138 100.88 57.0167 101.356 56.774C101.841 56.522 102.215 56.1673 102.476 55.71C102.747 55.2527 102.882 54.716 102.882 54.1C102.882 53.4747 102.747 52.938 102.476 52.49C102.215 52.0327 101.841 51.6827 101.356 51.44C100.88 51.188 100.315 51.062 99.6622 51.062H97.5902V57.138ZM109.269 59.112C108.625 59.112 108.004 59.0373 107.407 58.888C106.819 58.7293 106.352 58.5333 106.007 58.3L106.735 56.732C107.08 56.9467 107.486 57.124 107.953 57.264C108.429 57.3947 108.895 57.46 109.353 57.46C109.857 57.46 110.211 57.3993 110.417 57.278C110.631 57.1567 110.739 56.9887 110.739 56.774C110.739 56.5967 110.655 56.466 110.487 56.382C110.328 56.2887 110.113 56.2187 109.843 56.172C109.572 56.1253 109.273 56.0787 108.947 56.032C108.629 55.9853 108.307 55.9247 107.981 55.85C107.654 55.766 107.355 55.6447 107.085 55.486C106.814 55.3273 106.595 55.1127 106.427 54.842C106.268 54.5713 106.189 54.2213 106.189 53.792C106.189 53.316 106.324 52.896 106.595 52.532C106.875 52.168 107.276 51.8833 107.799 51.678C108.321 51.4633 108.947 51.356 109.675 51.356C110.188 51.356 110.711 51.412 111.243 51.524C111.775 51.636 112.218 51.7993 112.573 52.014L111.845 53.568C111.481 53.3533 111.112 53.2087 110.739 53.134C110.375 53.05 110.02 53.008 109.675 53.008C109.189 53.008 108.835 53.0733 108.611 53.204C108.387 53.3347 108.275 53.5027 108.275 53.708C108.275 53.8947 108.354 54.0347 108.513 54.128C108.681 54.2213 108.9 54.296 109.171 54.352C109.441 54.408 109.735 54.4593 110.053 54.506C110.379 54.5433 110.706 54.604 111.033 54.688C111.359 54.772 111.653 54.8933 111.915 55.052C112.185 55.2013 112.405 55.4113 112.573 55.682C112.741 55.9433 112.825 56.2887 112.825 56.718C112.825 57.1847 112.685 57.6 112.405 57.964C112.125 58.3187 111.719 58.5987 111.187 58.804C110.664 59.0093 110.025 59.112 109.269 59.112Z" fill="#211433"/>
<path d="M383.969 394.406V298.509" stroke="#211433" stroke-linejoin="round" stroke-dasharray="3 3"/>
<path d="M298 446L298 215" stroke="#211433" stroke-linejoin="round" stroke-dasharray="3 3"/>
<path d="M297.96 347.111L174.573 276.207V257.675L205.419 258.22L236.266 240.233L297.96 204.26L359.48 240.233L421.521 258.022V275.685L405.62 285.07L390.24 293.933L359.48 311.659L297.96 347.111Z" fill="#D6C8EC" stroke="#211433" stroke-linejoin="round"/>
<path d="M174.572 257.849L297.959 185.902L420.999 257.849L297.959 328.753L174.572 257.849Z" fill="#F4F1F7" stroke="#211433" stroke-linejoin="round"/>
<path fill-rule="evenodd" clip-rule="evenodd" d="M283.539 298.533L278.359 303.702L286.631 302.214L288.75 304.737L269.75 308.156L281.647 296.281L283.539 298.533Z" fill="#BA9FE7"/>
<path fill-rule="evenodd" clip-rule="evenodd" d="M303.164 286.908L297.984 292.077L306.256 290.589L308.375 293.112L289.375 296.531L301.272 284.656L303.164 286.908Z" fill="#BA9FE7"/>
<path fill-rule="evenodd" clip-rule="evenodd" d="M322.164 274.908L316.984 280.077L325.256 278.589L327.375 281.112L308.375 284.531L320.272 272.656L322.164 274.908Z" fill="#BA9FE7"/>
<path fill-rule="evenodd" clip-rule="evenodd" d="M341.664 263.908L336.484 269.077L344.756 267.589L346.875 270.112L327.875 273.531L339.772 261.656L341.664 263.908Z" fill="#BA9FE7"/>
<path fill-rule="evenodd" clip-rule="evenodd" d="M359.664 253.283L354.484 258.452L362.756 256.964L364.875 259.487L345.875 262.906L357.772 251.031L359.664 253.283Z" fill="#BA9FE7"/>
<path fill-rule="evenodd" clip-rule="evenodd" d="M378.039 242.533L372.859 247.702L381.131 246.214L383.25 248.737L364.25 252.156L376.147 240.281L378.039 242.533Z" fill="#BA9FE7"/>
<path fill-rule="evenodd" clip-rule="evenodd" d="M234.812 285.744C239.541 285.744 243.375 283.348 243.375 280.392C243.375 277.437 239.541 275.041 234.812 275.041C230.084 275.041 226.25 277.437 226.25 280.392C226.25 283.348 230.084 285.744 234.812 285.744ZM234.922 282.719C237.65 282.719 239.862 281.677 239.862 280.392C239.862 279.107 237.65 278.066 234.922 278.066C232.194 278.066 229.982 279.107 229.982 280.392C229.982 281.677 232.194 282.719 234.922 282.719Z" fill="#C8AFF0"/>
<path fill-rule="evenodd" clip-rule="evenodd" d="M251.938 275.744C256.666 275.744 260.5 273.348 260.5 270.392C260.5 267.437 256.666 265.041 251.938 265.041C247.209 265.041 243.375 267.437 243.375 270.392C243.375 273.348 247.209 275.744 251.938 275.744ZM252.047 272.719C254.775 272.719 256.987 271.677 256.987 270.392C256.987 269.107 254.775 268.066 252.047 268.066C249.319 268.066 247.107 269.107 247.107 270.392C247.107 271.677 249.319 272.719 252.047 272.719Z" fill="#C8AFF0"/>
<path fill-rule="evenodd" clip-rule="evenodd" d="M268.812 266.119C273.541 266.119 277.375 263.723 277.375 260.767C277.375 257.812 273.541 255.416 268.812 255.416C264.084 255.416 260.25 257.812 260.25 260.767C260.25 263.723 264.084 266.119 268.812 266.119ZM268.922 263.094C271.65 263.094 273.862 262.052 273.862 260.767C273.862 259.482 271.65 258.441 268.922 258.441C266.194 258.441 263.982 259.482 263.982 260.767C263.982 262.052 266.194 263.094 268.922 263.094Z" fill="#C8AFF0"/>
<path fill-rule="evenodd" clip-rule="evenodd" d="M285.562 256.369C290.291 256.369 294.125 253.973 294.125 251.017C294.125 248.062 290.291 245.666 285.562 245.666C280.834 245.666 277 248.062 277 251.017C277 253.973 280.834 256.369 285.562 256.369ZM285.672 253.344C288.4 253.344 290.612 252.302 290.612 251.017C290.612 249.732 288.4 248.691 285.672 248.691C282.944 248.691 280.732 249.732 280.732 251.017C280.732 252.302 282.944 253.344 285.672 253.344Z" fill="#C8AFF0"/>
<path fill-rule="evenodd" clip-rule="evenodd" d="M303.938 245.869C308.666 245.869 312.5 243.473 312.5 240.517C312.5 237.562 308.666 235.166 303.938 235.166C299.209 235.166 295.375 237.562 295.375 240.517C295.375 243.473 299.209 245.869 303.938 245.869ZM304.047 242.844C306.775 242.844 308.987 241.802 308.987 240.517C308.987 239.232 306.775 238.191 304.047 238.191C301.319 238.191 299.107 239.232 299.107 240.517C299.107 241.802 301.319 242.844 304.047 242.844Z" fill="#C8AFF0"/>
<path fill-rule="evenodd" clip-rule="evenodd" d="M337.188 225.744C341.916 225.744 345.75 223.348 345.75 220.392C345.75 217.437 341.916 215.041 337.188 215.041C332.459 215.041 328.625 217.437 328.625 220.392C328.625 223.348 332.459 225.744 337.188 225.744ZM337.297 222.719C340.025 222.719 342.237 221.677 342.237 220.392C342.237 219.107 340.025 218.066 337.297 218.066C334.569 218.066 332.357 219.107 332.357 220.392C332.357 221.677 334.569 222.719 337.297 222.719Z" fill="#C8AFF0"/>
<path fill-rule="evenodd" clip-rule="evenodd" d="M319.938 235.744C324.666 235.744 328.5 233.348 328.5 230.392C328.5 227.437 324.666 225.041 319.938 225.041C315.209 225.041 311.375 227.437 311.375 230.392C311.375 233.348 315.209 235.744 319.938 235.744ZM320.047 232.719C322.775 232.719 324.987 231.677 324.987 230.392C324.987 229.107 322.775 228.066 320.047 228.066C317.319 228.066 315.107 229.107 315.107 230.392C315.107 231.677 317.319 232.719 320.047 232.719Z" fill="#C8AFF0"/>
<path fill-rule="evenodd" clip-rule="evenodd" d="M277 316.533L298.261 328.751L421.301 257.847L397.622 244L277 316.533Z" fill="#D6C8EC"/>
<path fill-rule="evenodd" clip-rule="evenodd" d="M236 292.533L257.261 304.751L380.301 233.847L356.622 220L236 292.533Z" fill="#D6C8EC"/>
<path fill-rule="evenodd" clip-rule="evenodd" d="M194 268.533L215.261 280.751L338.301 209.847L314.622 196L194 268.533Z" fill="#D6C8EC"/>
<path fill-rule="evenodd" clip-rule="evenodd" d="M211.613 261.734C211.213 264.589 212.672 267.419 215.341 268.537C218.011 269.656 221.051 268.709 222.805 266.421C222.89 267.581 222.707 268.792 222.22 269.956C220.653 273.696 216.538 275.536 213.026 274.066C209.515 272.595 207.939 268.371 209.505 264.631C209.992 263.467 210.727 262.487 211.613 261.734Z" fill="#BA9FE7"/>
<path fill-rule="evenodd" clip-rule="evenodd" d="M227.613 252.015C227.213 254.87 228.672 257.701 231.341 258.819C234.011 259.937 237.051 258.99 238.805 256.702C238.89 257.862 238.707 259.073 238.22 260.237C236.653 263.977 232.538 265.817 229.026 264.347C225.515 262.876 223.939 258.653 225.505 254.913C225.992 253.749 226.727 252.769 227.613 252.015Z" fill="#BA9FE7"/>
<path fill-rule="evenodd" clip-rule="evenodd" d="M243.488 242.297C243.088 245.152 244.547 247.982 247.216 249.1C249.886 250.218 252.926 249.271 254.68 246.983C254.765 248.144 254.582 249.354 254.095 250.518C252.528 254.258 248.413 256.098 244.901 254.628C241.39 253.158 239.814 248.934 241.38 245.194C241.867 244.03 242.602 243.05 243.488 242.297Z" fill="#BA9FE7"/>
<path fill-rule="evenodd" clip-rule="evenodd" d="M259.238 232.578C258.838 235.433 260.297 238.263 262.966 239.381C265.636 240.499 268.676 239.553 270.43 237.265C270.515 238.425 270.332 239.636 269.845 240.8C268.278 244.54 264.163 246.38 260.651 244.909C257.14 243.439 255.564 239.215 257.13 235.475C257.617 234.311 258.352 233.331 259.238 232.578Z" fill="#BA9FE7"/>
<path fill-rule="evenodd" clip-rule="evenodd" d="M275.863 222.859C275.463 225.714 276.922 228.544 279.591 229.662C282.261 230.781 285.301 229.834 287.055 227.546C287.14 228.706 286.957 229.917 286.47 231.081C284.903 234.821 280.788 236.661 277.276 235.191C273.765 233.72 272.189 229.496 273.755 225.756C274.242 224.592 274.977 223.612 275.863 222.859Z" fill="#BA9FE7"/>
<path d="M174.572 257.849L297.959 185.902L420.999 257.849L297.959 328.753L174.572 257.849Z" stroke="#211433" stroke-linejoin="round"/>
<ellipse cx="299.715" cy="314.664" rx="8.46512" ry="4.78946" fill="#BA9FE7"/>
<ellipse cx="318.726" cy="303.286" rx="8.46512" ry="4.78946" fill="#BA9FE7"/>
<ellipse cx="337.737" cy="292.068" rx="8.46512" ry="4.78946" fill="#BA9FE7"/>
<ellipse cx="357.293" cy="280.35" rx="8.46512" ry="4.78946" fill="#BA9FE7"/>
<ellipse cx="377.762" cy="268.314" rx="8.46512" ry="4.78946" fill="#BA9FE7"/>
<ellipse cx="396.59" cy="258.164" rx="8.46512" ry="4.78946" fill="#BA9FE7"/>
<path d="M277 334.5L276.812 317.156L256.5 305.5V322.688L277 334.5Z" fill="#F4F1F7"/>
<path d="M235.75 310.812L235.562 293.469L215.25 281.812V299L235.75 310.812Z" fill="#F4F1F7"/>
<path d="M193.531 286.469L193.438 269.266L175.062 258.703V275.891L193.531 286.469Z" fill="#F4F1F7"/>
<path d="M194.312 248.76L196.431 254.195H203.288L197.741 257.553L199.86 262.988L194.312 259.629L188.765 262.988L190.884 257.553L185.337 254.195H192.194L194.312 248.76Z" fill="#C8AFF0"/>
<path d="M211.062 238.385L213.181 243.82H220.038L214.491 247.178L216.61 252.613L211.062 249.254L205.515 252.613L207.634 247.178L202.087 243.82H208.944L211.062 238.385Z" fill="#C8AFF0"/>
<path d="M228.188 228.26L230.306 233.695H237.163L231.616 237.053L233.735 242.488L228.188 239.129L222.64 242.488L224.759 237.053L219.212 233.695H226.069L228.188 228.26Z" fill="#C8AFF0"/>
<path d="M246.062 218.01L248.181 223.445H255.038L249.491 226.803L251.61 232.238L246.062 228.879L240.515 232.238L242.634 226.803L237.087 223.445H243.944L246.062 218.01Z" fill="#C8AFF0"/>
<path d="M263.312 207.76L265.431 213.195H272.288L266.741 216.553L268.86 221.988L263.312 218.629L257.765 221.988L259.884 216.553L254.337 213.195H261.194L263.312 207.76Z" fill="#C8AFF0"/>
<path d="M257.619 285L268.115 293.705H247.124L257.619 285Z" fill="#BA9FE7"/>
<path d="M277.369 273.625L287.865 282.33H266.874L277.369 273.625Z" fill="#BA9FE7"/>
<path d="M296.869 262.25L307.365 270.955H286.374L296.869 262.25Z" fill="#BA9FE7"/>
<path d="M316.869 250.875L327.365 259.58H306.374L316.869 250.875Z" fill="#BA9FE7"/>
<path d="M335.744 239.5L346.24 248.205H325.249L335.744 239.5Z" fill="#BA9FE7"/>
<path d="M354.369 228.125L364.865 236.83H343.874L354.369 228.125Z" fill="#BA9FE7"/>
<path d="M297.918 232.256L115.077 127.186V107.357L160.787 100.533L206.497 73.8791L297.918 20.5718L389.081 73.8791L481.017 107.872V126.414L457.454 140.32L434.663 153.454L389.081 179.721L297.918 232.256Z" fill="#CDE6B2" stroke="#211433" stroke-linejoin="round"/>
<path d="M115.076 107.615L297.918 1L480.244 107.615L297.918 212.684L115.076 107.615Z" fill="#CDE6B2" stroke="#211433" stroke-linejoin="round"/>
<ellipse cx="224.77" cy="65.8459" rx="13.3142" ry="7.85196" fill="#A2CA77"/>
<ellipse cx="355.314" cy="85.852" rx="13.3142" ry="7.85196" fill="#A2CA77"/>
<path fill-rule="evenodd" clip-rule="evenodd" d="M316.5 97.2051C321.747 97.2051 326 94.6968 326 91.6026C326 88.5084 321.747 86 316.5 86C311.253 86 307 88.5084 307 91.6026C307 94.6968 311.253 97.2051 316.5 97.2051ZM316.622 94.0385C319.649 94.0385 322.103 92.9479 322.103 91.6026C322.103 90.2572 319.649 89.1667 316.622 89.1667C313.595 89.1667 311.141 90.2572 311.141 91.6026C311.141 92.9479 313.595 94.0385 316.622 94.0385Z" fill="#A2CA77"/>
<path fill-rule="evenodd" clip-rule="evenodd" d="M356 157.615C360.971 157.615 365 155.239 365 152.308C365 149.376 360.971 147 356 147C351.029 147 347 149.376 347 152.308C347 155.239 351.029 157.615 356 157.615ZM356.115 154.615C358.983 154.615 361.308 153.582 361.308 152.308C361.308 151.033 358.983 150 356.115 150C353.248 150 350.923 151.033 350.923 152.308C350.923 153.582 353.248 154.615 356.115 154.615Z" fill="#A2CA77"/>
<path fill-rule="evenodd" clip-rule="evenodd" d="M244.913 85.6466C248.683 85.6466 251.74 83.736 251.74 81.3792C251.74 79.0224 248.683 77.1118 244.913 77.1118C241.142 77.1118 238.085 79.0224 238.085 81.3792C238.085 83.736 241.142 85.6466 244.913 85.6466ZM245 83.2346C247.175 83.2346 248.939 82.4039 248.939 81.3792C248.939 80.3545 247.175 79.5238 245 79.5238C242.824 79.5238 241.061 80.3545 241.061 81.3792C241.061 82.4039 242.824 83.2346 245 83.2346Z" fill="#A2CA77"/>
<path fill-rule="evenodd" clip-rule="evenodd" d="M312.828 49.5347C316.599 49.5347 319.656 47.6242 319.656 45.2674C319.656 42.9106 316.599 41 312.828 41C309.057 41 306 42.9106 306 45.2674C306 47.6242 309.057 49.5347 312.828 49.5347ZM312.915 47.1227C315.09 47.1227 316.854 46.2921 316.854 45.2674C316.854 44.2427 315.09 43.412 312.915 43.412C310.739 43.412 308.976 44.2427 308.976 45.2674C308.976 46.2921 310.739 47.1227 312.915 47.1227Z" fill="#A2CA77"/>
<path fill-rule="evenodd" clip-rule="evenodd" d="M447.828 108.535C451.599 108.535 454.656 106.624 454.656 104.267C454.656 101.911 451.599 100 447.828 100C444.057 100 441 101.911 441 104.267C441 106.624 444.057 108.535 447.828 108.535ZM447.915 106.123C450.09 106.123 451.854 105.292 451.854 104.267C451.854 103.243 450.09 102.412 447.915 102.412C445.739 102.412 443.976 103.243 443.976 104.267C443.976 105.292 445.739 106.123 447.915 106.123Z" fill="#A2CA77"/>
<path fill-rule="evenodd" clip-rule="evenodd" d="M208.828 138.535C212.599 138.535 215.656 136.624 215.656 134.267C215.656 131.911 212.599 130 208.828 130C205.057 130 202 131.911 202 134.267C202 136.624 205.057 138.535 208.828 138.535ZM208.915 136.123C211.091 136.123 212.854 135.292 212.854 134.267C212.854 133.243 211.091 132.412 208.915 132.412C206.74 132.412 204.976 133.243 204.976 134.267C204.976 135.292 206.74 136.123 208.915 136.123Z" fill="#A2CA77"/>
<path fill-rule="evenodd" clip-rule="evenodd" d="M295.241 47.7769C293.103 50.2707 292.764 53.8819 294.639 56.5947C296.514 59.3074 300.011 60.2662 303.1 59.1486C302.469 60.3139 301.549 61.3632 300.367 62.1806C296.567 64.8069 291.487 64.0441 289.022 60.4767C286.556 56.9093 287.638 51.8882 291.438 49.2619C292.621 48.4444 293.927 47.9553 295.241 47.7769Z" fill="#A2CA77"/>
<path fill-rule="evenodd" clip-rule="evenodd" d="M188.683 109.293C186.546 111.787 186.206 115.398 188.081 118.111C189.956 120.824 193.454 121.783 196.542 120.665C195.911 121.83 194.992 122.88 193.809 123.697C190.009 126.323 184.93 125.56 182.464 121.993C179.999 118.426 181.081 113.405 184.881 110.778C186.063 109.961 187.37 109.472 188.683 109.293Z" fill="#A2CA77"/>
<path fill-rule="evenodd" clip-rule="evenodd" d="M406.666 118.303C408.768 120.827 412.272 121.764 415.259 120.369C418.247 118.973 419.777 115.684 419.19 112.453C420.234 113.27 421.115 114.351 421.723 115.654C423.678 119.839 422.078 124.72 418.149 126.555C414.22 128.39 409.45 126.485 407.495 122.3C406.887 120.997 406.623 119.627 406.666 118.303Z" fill="#A2CA77"/>
<path fill-rule="evenodd" clip-rule="evenodd" d="M245.913 137.697C244.2 139.89 244.107 143.104 245.883 145.546C247.66 147.989 250.746 148.89 253.361 147.935C252.879 148.965 252.14 149.888 251.16 150.6C248.012 152.89 243.567 152.143 241.23 148.931C238.894 145.719 239.552 141.259 242.7 138.969C243.68 138.257 244.785 137.838 245.913 137.697Z" fill="#A2CA77"/>
<path fill-rule="evenodd" clip-rule="evenodd" d="M291.861 194.799C293.388 192.447 293.129 189.054 291.025 186.515C288.921 183.976 285.635 183.091 283.04 184.155C283.424 183.058 284.085 182.068 285.018 181.295C288.015 178.811 292.688 179.505 295.455 182.844C298.222 186.183 298.035 190.903 295.038 193.387C294.105 194.16 293.01 194.625 291.861 194.799Z" fill="#A2CA77"/>
<ellipse cx="226.314" cy="117.852" rx="13.3142" ry="7.85196" fill="#A2CA77"/>
<ellipse cx="268.292" cy="62.0725" rx="5.29154" ry="3.07251" fill="#A2CA77"/>
<ellipse cx="295.292" cy="127.073" rx="5.29154" ry="3.07251" fill="#A2CA77"/>
<ellipse cx="230.292" cy="152.073" rx="5.29154" ry="3.07251" fill="#A2CA77"/>
<ellipse cx="384.292" cy="98.0725" rx="5.29154" ry="3.07251" fill="#A2CA77"/>
<ellipse cx="340.292" cy="169.073" rx="5.29154" ry="3.07251" fill="#A2CA77"/>
<path d="M276 34.5317L298.873 12L312.529 28.0453L276 34.5317Z" fill="#A2CA77"/>
<path d="M407 101L417.645 90L424 97.8333L407 101Z" fill="#A2CA77"/>
<path d="M320.515 186.995L297.194 170.534L313.376 160.127L320.515 186.995Z" fill="#A2CA77"/>
<path fill-rule="evenodd" clip-rule="evenodd" d="M289.856 100.59L283.9 106.535L293.412 104.823L295.849 107.724L274 111.656L287.681 98L289.856 100.59Z" fill="#A2CA77"/>
<path fill-rule="evenodd" clip-rule="evenodd" d="M180.582 96.3352L182.938 88.2565L175.426 94.3381L171.894 92.9695L189.147 78.9999L183.736 97.557L180.582 96.3352Z" fill="#A2CA77"/>
<path fill-rule="evenodd" clip-rule="evenodd" d="M344.856 37.5899L338.9 43.5348L348.412 41.8234L350.849 44.7244L329 48.6556L342.681 35L344.856 37.5899Z" fill="#A2CA77"/>
<path fill-rule="evenodd" clip-rule="evenodd" d="M358.856 121.59L352.9 127.535L362.412 125.823L364.849 128.724L343 132.656L356.681 119L358.856 121.59Z" fill="#A2CA77"/>
<path fill-rule="evenodd" clip-rule="evenodd" d="M321.368 71.6077L326.659 65.0642L317.383 67.7754L314.652 65.1492L335.96 58.9215L323.805 73.9519L321.368 71.6077Z" fill="#A2CA77"/>
<path fill-rule="evenodd" clip-rule="evenodd" d="M270.959 164.288L264.396 169.555L274.037 168.881L276.146 172.029L254 173.576L269.077 161.478L270.959 164.288Z" fill="#A2CA77"/>
<path d="M212.606 82L216.783 87.8974H230.301L219.365 91.5421L223.542 97.4395L212.606 93.7947L201.67 97.4395L205.847 91.5421L194.911 87.8974H208.428L212.606 82Z" fill="#A2CA77"/>
<path d="M254.3 96.9124L264.796 105.618H243.805L254.3 96.9124Z" fill="#A2CA77"/>
<path d="M347.119 103L357.615 111.705H336.624L347.119 103Z" fill="#A2CA77"/>
<path d="M280.825 135L285.5 141.841H300.63L288.39 146.069L293.065 152.91L280.825 148.682L268.584 152.91L273.26 146.069L261.019 141.841H276.149L280.825 135Z" fill="#A2CA77"/>
<path d="M314.5 108L317.755 112.837H328.29L319.767 115.826L323.023 120.663L314.5 117.674L305.977 120.663L309.233 115.826L300.71 112.837H311.245L314.5 108Z" fill="#A2CA77"/>
<path d="M383.5 133L386.755 137.837H397.29L388.767 140.826L392.023 145.663L383.5 142.674L374.977 145.663L378.233 140.826L369.71 137.837H380.245L383.5 133Z" fill="#A2CA77"/>
<path d="M365 52L367.694 58.9098H376.413L369.359 63.1803L372.053 70.0902L365 65.8197L357.947 70.0902L360.641 63.1803L353.587 58.9098H362.306L365 52Z" fill="#A2CA77"/>
<path d="M257 35L259.694 41.9098H268.413L261.359 46.1803L264.053 53.0902L257 48.8197L249.947 53.0902L252.641 46.1803L245.587 41.9098H254.306L257 35Z" fill="#A2CA77"/>
<path d="M158 94L160.694 100.91H169.413L162.359 105.18L165.053 112.09L158 107.82L150.947 112.09L153.641 105.18L146.587 100.91H155.306L158 94Z" fill="#A2CA77"/>
<path d="M284.045 72L268 80.0227L281.656 89.5816L298.896 81.0468L284.045 72Z" fill="#A2CA77"/>
<path d="M323.045 135L307 143.023L320.656 152.582L337.896 144.047L323.045 135Z" fill="#A2CA77"/>
<path d="M395.045 68L379 76.0227L392.656 85.5816L409.896 77.0468L395.045 68Z" fill="#A2CA77"/>
<path d="M261.906 116L251 121.476L260.282 128L272 122.175L261.906 116Z" fill="#A2CA77"/>
<path d="M386.348 111L377 116.019L384.956 122L395 116.66L386.348 111Z" fill="#A2CA77"/>
<path d="M297.918 212.684V231.998" stroke="#211433" stroke-linejoin="round"/>
<path d="M297.918 328.569L298 346.5" stroke="#211433" stroke-linejoin="round"/>
<path d="M297.918 425.398V446" stroke="#211433" stroke-linejoin="round"/>
<path d="M301.289 380.461H287.984V385.307H302.153C304.399 385.307 306.213 384.634 307.466 383.266C308.546 382.099 309.108 380.686 309.108 379.025C309.108 377.365 308.546 375.929 307.466 374.785C306.17 373.439 304.399 372.743 302.153 372.743H294.723C294.464 372.743 294.205 372.698 293.946 372.451C293.686 372.182 293.557 371.846 293.557 371.442C293.557 371.015 293.686 370.656 293.989 370.365C294.248 370.073 294.55 370.028 294.766 370.028H308.028V365.227H293.902C291.656 365.227 289.842 365.9 288.546 367.246C287.423 368.39 286.861 369.804 286.861 371.442C286.861 373.08 287.423 374.515 288.546 375.66C289.842 376.984 291.656 377.679 293.902 377.679H301.332C301.548 377.679 301.807 377.724 302.066 377.971C302.326 378.24 302.455 378.599 302.455 379.025C302.455 379.452 302.326 379.81 302.066 380.125C301.764 380.461 301.505 380.461 301.375 380.461H301.289Z" stroke="#211433"/>
<path d="M319.352 365.38C319.348 365.377 319.343 365.374 319.336 365.37C319.301 365.352 319.248 365.333 319.179 365.317L318.902 365.289L317.647 365.818C317.592 365.844 317.56 365.869 317.541 365.886C319.921 369.454 320.85 373.513 320.228 377.619L320.228 377.621C318.883 386.306 310.616 391.887 300.391 392.976L300.39 392.976C295.117 393.524 290.01 392.635 285.513 390.368C277.61 386.4 273.272 379.941 274.663 372.228L319.352 365.38ZM319.352 365.38L319.412 365.488L319.475 365.521C322.033 369.389 323.01 373.772 322.179 378.193L322.179 378.194C320.588 386.808 312.046 393.826 301.273 395.132C299.95 395.287 298.631 395.375 297.358 395.375C292.808 395.375 288.392 394.381 284.447 392.442L284.446 392.442C275.791 388.189 271.201 380.218 272.623 372.135C274.173 363.479 282.713 356.438 293.574 355.111C297.403 354.647 301.186 354.868 304.796 355.772L304.995 355.822L305.172 355.718C305.703 355.404 306.395 355.245 307.102 355.263C307.809 355.281 308.49 355.474 309.002 355.815L309.002 355.816L309.008 355.819C309.877 356.383 310.143 357.202 309.849 357.983L309.849 357.983L309.847 357.988C309.616 358.621 308.959 359.183 307.993 359.424L307.988 359.425C307.223 359.624 306.419 359.585 305.693 359.327C304.624 358.93 304.078 358.164 304.078 357.397V357.396V357.396V357.396V357.396V357.396V357.396V357.396V357.396V357.395V357.395V357.395V357.395V357.395V357.395L303.078 357.395V357.395V357.395V357.395V357.395V357.395V357.395V357.395V357.396V357.396V357.396V357.396V357.396V357.396V357.396V357.396V357.396V357.397V357.397V357.397V357.397V357.398V357.398V357.398V357.399V357.399V357.4V357.4V357.4V357.401V357.402V357.402V357.403V357.403V357.404V357.404V357.405V357.406V357.406V357.407V357.408V357.409V357.409V357.41V357.411V357.412V357.413V357.413V357.414V357.415V357.416V357.417V357.418V357.419V357.42V357.421V357.422V357.423V357.424V357.425V357.426V357.428V357.429V357.43V357.431V357.432V357.433V357.435V357.436V357.437V357.439V357.44V357.441V357.442V357.444V357.445V357.447V357.448V357.449V357.451V357.452V357.454V357.455V357.457V357.458V357.46V357.461V357.463V357.464V357.466V357.468V357.469V357.471V357.473V357.474V357.476V357.478V357.479V357.481V357.483V357.485V357.486V357.488V357.49V357.492V357.494V357.495V357.497V357.499V357.501V357.503V357.505V357.507V357.509V357.511V357.513V357.515V357.517V357.519V357.521V357.523V357.525V357.527V357.529V357.531V357.533V357.535V357.537V357.539V357.542V357.544V357.546V357.548V357.55V357.552V357.555V357.557V357.559V357.561V357.564V357.566V357.568V357.57V357.573V357.575V357.577V357.58V357.582V357.584V357.587V357.589V357.591V357.594V357.596V357.598V357.601V357.603V357.606V357.608V357.611V357.613V357.616V357.618V357.62V357.623V357.625V357.628V357.63V357.633V357.635V357.638V357.641V357.643V357.646V357.648V357.651V357.653V357.656V357.659V357.661V357.664V357.666V357.669V357.672V357.674V357.677V357.68V357.682V357.685V357.688V357.69V357.693V357.696V357.698V357.699C300.093 357.063 296.965 356.929 293.838 357.335C284.093 358.583 276.143 363.983 274.663 372.228L319.352 365.38ZM322.671 378.285C321.029 387.17 312.26 394.304 301.332 395.628C299.993 395.785 298.654 395.875 297.358 395.875L322.671 378.285ZM322.671 378.285C323.535 373.685 322.498 369.131 319.82 365.137L322.671 378.285ZM319.36 365.385C319.361 365.386 319.361 365.386 319.361 365.386L319.36 365.385Z" stroke="#211433"/>
<path d="M218.029 392.864L220.811 388.004L223.019 389.268C223.546 389.57 223.953 389.938 224.24 390.372C224.528 390.801 224.683 391.261 224.703 391.752C224.723 392.243 224.592 392.736 224.308 393.232C224.027 393.722 223.669 394.085 223.233 394.321C222.799 394.553 222.323 394.655 221.804 394.628C221.287 394.597 220.765 394.43 220.237 394.128L218.029 392.864ZM219.682 392.584L220.71 393.173C221.034 393.358 221.349 393.458 221.654 393.473C221.966 393.486 222.252 393.416 222.511 393.263C222.775 393.113 222.995 392.885 223.169 392.58C223.347 392.27 223.432 391.965 223.425 391.666C223.425 391.365 223.339 391.086 223.168 390.827C223.003 390.567 222.759 390.345 222.435 390.159L221.407 389.571L219.682 392.584ZM223.059 395.743L228.007 392.122L229.118 392.758L228.509 398.862L227.329 398.187L228.007 392.878L228.452 393.133L224.211 396.402L223.059 395.743ZM224.738 395.321L225.525 394.638L228.025 396.069L227.842 397.097L224.738 395.321ZM229.776 399.587L232.033 395.644L230.478 394.753L231.003 393.837L235.238 396.261L234.714 397.177L233.158 396.287L230.901 400.231L229.776 399.587ZM232.179 400.962L237.127 397.342L238.238 397.978L237.629 404.082L236.449 403.406L237.127 398.098L237.572 398.352L233.331 401.622L232.179 400.962ZM233.858 400.541L234.645 399.858L237.145 401.288L236.962 402.317L233.858 400.541ZM239.461 405.13L244.409 401.51L245.52 402.145L244.911 408.25L243.731 407.574L244.409 402.266L244.854 402.52L240.614 405.79L239.461 405.13ZM241.14 404.709L241.928 404.025L244.427 405.456L244.244 406.485L241.14 404.709ZM246.609 409.221L247.294 403.161L248.509 403.856L247.878 409.21L247.163 408.801L251.488 405.561L252.606 406.201L247.72 409.857L246.609 409.221ZM249.428 410.835L254.376 407.214L255.487 407.85L254.879 413.954L253.698 413.279L254.377 407.97L254.821 408.225L250.581 411.494L249.428 410.835ZM251.108 410.413L251.895 409.73L254.394 411.161L254.211 412.189L251.108 410.413ZM255.383 414.243L258.165 409.382L259.29 410.026L256.508 414.887L255.383 414.243ZM257.661 415.547L260.443 410.686L261.568 411.33L259.311 415.274L261.748 416.669L261.223 417.585L257.661 415.547ZM261.24 417.595L266.188 413.974L267.299 414.61L266.69 420.714L265.51 420.039L266.188 414.731L266.633 414.985L262.393 418.255L261.24 417.595ZM262.919 417.173L263.707 416.49L266.206 417.921L266.023 418.95L262.919 417.173ZM267.195 421.003L269.976 416.143L272.351 417.502C272.962 417.851 273.354 418.229 273.527 418.636C273.705 419.045 273.685 419.439 273.468 419.818C273.322 420.073 273.132 420.259 272.899 420.378C272.668 420.491 272.414 420.537 272.139 420.514C271.863 420.491 271.584 420.399 271.301 420.238L271.596 420.028C271.902 420.203 272.143 420.409 272.321 420.646C272.502 420.878 272.601 421.129 272.619 421.398C272.642 421.669 272.573 421.946 272.411 422.228C272.173 422.645 271.822 422.877 271.358 422.925C270.897 422.968 270.347 422.807 269.708 422.441L267.195 421.003ZM268.797 420.796L270.11 421.547C270.401 421.714 270.648 421.793 270.849 421.785C271.057 421.776 271.221 421.666 271.34 421.458C271.457 421.255 271.466 421.06 271.369 420.876C271.28 420.689 271.089 420.512 270.797 420.345L269.402 419.547L269.87 418.727L271.072 419.415C271.345 419.571 271.58 419.644 271.776 419.634C271.98 419.621 272.137 419.518 272.249 419.323C272.357 419.134 272.364 418.95 272.269 418.773C272.181 418.593 272 418.426 271.727 418.269L270.609 417.629L268.797 420.796ZM272.504 424.041L275.286 419.181L276.41 419.825L273.629 424.685L272.504 424.041ZM274.782 425.345L277.564 420.485L278.689 421.129L276.432 425.073L278.869 426.467L278.344 427.384L274.782 425.345ZM278.973 427.744L281.754 422.883L282.879 423.527L280.097 428.387L278.973 427.744ZM282.258 429.624L284.515 425.68L282.959 424.79L283.484 423.873L287.719 426.297L287.195 427.214L285.639 426.324L283.382 430.268L282.258 429.624ZM286.656 432.141L287.793 430.155L287.66 430.983L287.556 426.204L288.75 426.887L288.827 430.554L288.14 430.161L291.347 428.374L292.451 429.005L288.278 431.336L288.917 430.799L287.781 432.785L286.656 432.141Z" fill="#211433"/>
<path d="M218.019 392.858L220.801 387.998L223.009 389.262C224.599 390.172 225.14 391.754 224.298 393.226C223.455 394.698 221.817 395.032 220.227 394.122L218.019 392.858ZM219.672 392.579L220.7 393.167C221.665 393.719 222.627 393.504 223.159 392.574C223.692 391.644 223.39 390.706 222.425 390.153L221.397 389.565L219.672 392.579ZM227.319 398.181L227.484 396.893L225.228 395.601L224.201 396.397L223.049 395.737L227.997 392.117L229.108 392.752L228.499 398.856L227.319 398.181ZM226.078 394.954L227.619 395.836L227.913 393.534L226.078 394.954ZM229.766 399.581L232.023 395.638L230.468 394.748L230.992 393.831L235.228 396.255L234.703 397.172L233.148 396.281L230.891 400.225L229.766 399.581ZM236.439 403.4L236.604 402.112L234.348 400.821L233.321 401.616L232.169 400.956L237.117 397.336L238.227 397.972L237.619 404.076L236.439 403.4ZM235.198 400.174L236.739 401.056L237.033 398.754L235.198 400.174ZM243.721 407.568L243.887 406.28L241.63 404.989L240.603 405.784L239.451 405.124L244.399 401.504L245.51 402.14L244.901 408.244L243.721 407.568ZM242.48 404.341L244.021 405.224L244.315 402.922L242.48 404.341ZM251.478 405.555L252.596 406.195L247.71 409.851L246.599 409.216L247.284 403.155L248.499 403.851L247.991 408.169L251.478 405.555ZM253.688 413.273L253.854 411.985L251.597 410.693L250.571 411.489L249.418 410.829L254.366 407.208L255.477 407.844L254.869 413.948L253.688 413.273ZM252.447 410.046L253.989 410.928L254.283 408.626L252.447 410.046ZM255.373 414.237L258.155 409.377L259.279 410.02L256.498 414.881L255.373 414.237ZM257.651 415.541L260.433 410.681L261.558 411.324L259.301 415.268L261.738 416.663L261.213 417.579L257.651 415.541ZM265.514 420.041L265.679 418.753L263.423 417.461L262.396 418.256L261.243 417.597L266.191 413.976L267.302 414.612L266.694 420.716L265.514 420.041ZM264.272 416.814L265.814 417.696L266.108 415.394L264.272 416.814ZM272.213 420.52C272.656 421.004 272.764 421.619 272.415 422.23C271.934 423.07 270.989 423.175 269.712 422.443L267.198 421.005L269.98 416.145L272.354 417.504C273.569 418.199 273.904 419.064 273.471 419.82C273.193 420.306 272.728 420.538 272.213 420.52ZM271.731 418.271L270.613 417.631L269.957 418.777L271.075 419.417C271.624 419.731 272.033 419.707 272.252 419.325C272.471 418.943 272.279 418.585 271.731 418.271ZM270.113 421.549C270.696 421.882 271.112 421.881 271.351 421.464C271.585 421.054 271.384 420.681 270.801 420.347L269.488 419.596L268.801 420.798L270.113 421.549ZM272.507 424.043L275.289 419.183L276.414 419.827L273.632 424.687L272.507 424.043ZM274.786 425.347L277.567 420.487L278.692 421.131L276.435 425.075L278.872 426.469L278.347 427.386L274.786 425.347ZM278.976 427.746L281.758 422.885L282.882 423.529L280.101 428.389L278.976 427.746ZM282.261 429.626L284.518 425.682L282.963 424.792L283.487 423.875L287.723 426.299L287.198 427.216L285.643 426.326L283.386 430.269L282.261 429.626ZM292.461 429.011L288.777 431.069L287.791 432.791L286.666 432.147L287.66 430.411L287.566 426.21L288.76 426.893L288.823 429.796L291.357 428.379L292.461 429.011Z" fill="#211433"/>
<path d="M323.485 424.236C321.984 425.109 320.256 424.717 319.407 423.258C318.558 421.799 319.071 420.103 320.578 419.226C321.415 418.739 322.29 418.637 323.068 418.925L322.736 420.007C322.193 419.823 321.673 419.867 321.189 420.148C320.283 420.675 320.01 421.686 320.541 422.598C321.072 423.511 322.086 423.773 322.992 423.246C323.476 422.964 323.771 422.533 323.874 421.964L324.98 422.209C324.849 423.035 324.328 423.745 323.485 424.236ZM328.482 421.328C326.954 422.217 325.214 421.804 324.377 420.366C323.54 418.928 324.041 417.211 325.569 416.322C327.09 415.437 328.832 415.839 329.673 417.284C330.514 418.729 330.003 420.443 328.482 421.328ZM327.927 420.374C328.791 419.871 329.075 418.863 328.539 417.944C328.004 417.024 326.988 416.773 326.124 417.276C325.26 417.779 324.976 418.787 325.511 419.706C326.046 420.626 327.062 420.877 327.927 420.374ZM332.44 412.434L333.546 411.791L336.363 416.631L335.443 417.166L331.32 415.632L333.03 418.57L331.924 419.214L329.107 414.374L330.033 413.835L334.15 415.373L332.44 412.434ZM339.146 415.122C338.379 415.568 337.472 415.791 336.85 415.708L336.739 414.643C337.32 414.703 338.049 414.557 338.63 414.219C339.294 413.832 339.435 413.454 339.262 413.157C338.735 412.251 336.283 414.511 335.236 412.713C334.758 411.891 335.023 410.82 336.399 410.019C337.007 409.665 337.714 409.448 338.329 409.47L338.478 410.522C337.88 410.527 337.344 410.672 336.915 410.922C336.251 411.308 336.14 411.706 336.317 412.01C336.837 412.902 339.293 410.649 340.327 412.426C340.798 413.235 340.529 414.317 339.146 415.122ZM342.507 411.851L345.141 410.318L345.665 411.217L341.917 413.398L339.1 408.558L342.758 406.429L343.281 407.328L340.737 408.809L341.348 409.86L343.595 408.552L344.102 409.423L341.855 410.731L342.507 411.851ZM347.072 403.919L348.178 403.275L350.995 408.115L350.075 408.65L345.952 407.116L347.662 410.055L346.556 410.698L343.739 405.858L344.666 405.319L348.782 406.857L347.072 403.919ZM353.779 406.606C353.011 407.053 352.104 407.275 351.482 407.193L351.371 406.128C351.952 406.188 352.682 406.041 353.262 405.703C353.926 405.317 354.067 404.939 353.894 404.641C353.367 403.736 350.915 405.996 349.869 404.198C349.39 403.375 349.655 402.304 351.031 401.504C351.64 401.149 352.346 400.932 352.961 400.954L353.11 402.006C352.512 402.012 351.976 402.157 351.547 402.406C350.884 402.793 350.773 403.191 350.95 403.495C351.469 404.387 353.925 402.134 354.959 403.911C355.43 404.72 355.161 405.801 353.779 406.606ZM358.748 403.714C357.372 404.515 356.097 404.201 355.268 402.777L353.691 400.067L354.811 399.415L356.364 402.084C356.899 403.003 357.522 403.15 358.199 402.756C358.884 402.358 359.057 401.748 358.522 400.828L356.968 398.159L358.075 397.516L359.652 400.226C360.481 401.65 360.124 402.913 358.748 403.714ZM363.637 400.869C362.869 401.316 361.962 401.538 361.34 401.456L361.23 400.391C361.811 400.451 362.54 400.304 363.121 399.966C363.784 399.58 363.925 399.201 363.752 398.904C363.225 397.998 360.773 400.258 359.727 398.461C359.248 397.638 359.514 396.567 360.889 395.766C361.498 395.412 362.205 395.195 362.819 395.217L362.968 396.269C362.37 396.275 361.834 396.42 361.406 396.669C360.742 397.055 360.631 397.453 360.808 397.758C361.327 398.649 363.783 396.396 364.817 398.173C365.288 398.982 365.02 400.064 363.637 400.869Z" fill="#211433"/>
</svg>
