<svg width="714" height="356" viewBox="0 0 714 356" fill="none" xmlns="http://www.w3.org/2000/svg">
<path d="M31.1619 15.2484H39.8869V17.9984H31.1619V15.2484ZM31.4369 24.6984H28.1869V7.19836H40.9619V9.92336H31.4369V24.6984ZM51.5904 24.6984V21.9984L51.4154 21.4234V16.6984C51.4154 15.7817 51.1404 15.0734 50.5904 14.5734C50.0404 14.0567 49.2071 13.7984 48.0904 13.7984C47.3404 13.7984 46.5988 13.915 45.8654 14.1484C45.1488 14.3817 44.5404 14.7067 44.0404 15.1234L42.8154 12.8484C43.5321 12.2984 44.3821 11.89 45.3654 11.6234C46.3654 11.34 47.3988 11.1984 48.4654 11.1984C50.3988 11.1984 51.8904 11.665 52.9404 12.5984C54.0071 13.515 54.5404 14.94 54.5404 16.8734V24.6984H51.5904ZM47.3904 24.8734C46.3904 24.8734 45.5154 24.7067 44.7654 24.3734C44.0154 24.0234 43.4321 23.5484 43.0154 22.9484C42.6154 22.3317 42.4154 21.64 42.4154 20.8734C42.4154 20.1234 42.5904 19.4484 42.9404 18.8484C43.3071 18.2484 43.8988 17.7734 44.7154 17.4234C45.5321 17.0734 46.6154 16.8984 47.9654 16.8984H51.8404V18.9734H48.1904C47.1238 18.9734 46.4071 19.1484 46.0404 19.4984C45.6738 19.8317 45.4904 20.2484 45.4904 20.7484C45.4904 21.315 45.7154 21.765 46.1654 22.0984C46.6154 22.4317 47.2404 22.5984 48.0404 22.5984C48.8071 22.5984 49.4904 22.4234 50.0904 22.0734C50.7071 21.7234 51.1488 21.2067 51.4154 20.5234L51.9404 22.3984C51.6404 23.1817 51.0988 23.79 50.3154 24.2234C49.5488 24.6567 48.5738 24.8734 47.3904 24.8734ZM58.551 24.6984V11.3484H61.526V15.0234L61.176 13.9484C61.576 13.0484 62.201 12.365 63.051 11.8984C63.9176 11.4317 64.9926 11.1984 66.276 11.1984V14.1734C66.1426 14.14 66.0176 14.1234 65.901 14.1234C65.7843 14.1067 65.6676 14.0984 65.551 14.0984C64.3676 14.0984 63.426 14.4484 62.726 15.1484C62.026 15.8317 61.676 16.8567 61.676 18.2234V24.6984H58.551ZM85.777 11.1984C86.8436 11.1984 87.7853 11.4067 88.602 11.8234C89.4353 12.24 90.0853 12.8817 90.552 13.7484C91.0186 14.5984 91.252 15.6984 91.252 17.0484V24.6984H88.127V17.4484C88.127 16.265 87.8686 15.3817 87.352 14.7984C86.8353 14.215 86.0936 13.9234 85.127 13.9234C84.4436 13.9234 83.8353 14.0734 83.302 14.3734C82.7853 14.6734 82.377 15.115 82.077 15.6984C81.7936 16.2817 81.652 17.0234 81.652 17.9234V24.6984H78.527V17.4484C78.527 16.265 78.2686 15.3817 77.752 14.7984C77.2353 14.215 76.4936 13.9234 75.527 13.9234C74.8436 13.9234 74.2353 14.0734 73.702 14.3734C73.1853 14.6734 72.777 15.115 72.477 15.6984C72.1936 16.2817 72.052 17.0234 72.052 17.9234V24.6984H68.927V11.3484H71.902V14.8984L71.377 13.8484C71.827 12.9817 72.477 12.3234 73.327 11.8734C74.1936 11.4234 75.177 11.1984 76.277 11.1984C77.527 11.1984 78.6103 11.5067 79.527 12.1234C80.4603 12.74 81.077 13.6734 81.377 14.9234L80.152 14.4984C80.5853 13.4984 81.302 12.6984 82.302 12.0984C83.302 11.4984 84.4603 11.1984 85.777 11.1984ZM101.545 24.8734C100.061 24.8734 98.7614 24.5817 97.6447 23.9984C96.5447 23.3984 95.6864 22.5817 95.0697 21.5484C94.4697 20.515 94.1697 19.34 94.1697 18.0234C94.1697 16.69 94.4614 15.515 95.0447 14.4984C95.6447 13.465 96.4614 12.6567 97.4947 12.0734C98.5447 11.49 99.7364 11.1984 101.07 11.1984C102.37 11.1984 103.528 11.4817 104.545 12.0484C105.561 12.615 106.361 13.415 106.945 14.4484C107.528 15.4817 107.82 16.6984 107.82 18.0984C107.82 18.2317 107.811 18.3817 107.795 18.5484C107.795 18.715 107.786 18.8734 107.77 19.0234H96.6447V16.9484H106.12L104.895 17.5984C104.911 16.8317 104.753 16.1567 104.42 15.5734C104.086 14.99 103.628 14.5317 103.045 14.1984C102.478 13.865 101.82 13.6984 101.07 13.6984C100.303 13.6984 99.6281 13.865 99.0447 14.1984C98.4781 14.5317 98.0281 14.9984 97.6947 15.5984C97.3781 16.1817 97.2197 16.8734 97.2197 17.6734V18.1734C97.2197 18.9734 97.4031 19.6817 97.7697 20.2984C98.1364 20.915 98.6531 21.39 99.3197 21.7234C99.9864 22.0567 100.753 22.2234 101.62 22.2234C102.37 22.2234 103.045 22.1067 103.645 21.8734C104.245 21.64 104.778 21.2734 105.245 20.7734L106.92 22.6984C106.32 23.3984 105.561 23.94 104.645 24.3234C103.745 24.69 102.711 24.8734 101.545 24.8734ZM110.821 24.6984V11.3484H113.796V15.0234L113.446 13.9484C113.846 13.0484 114.471 12.365 115.321 11.8984C116.188 11.4317 117.263 11.1984 118.546 11.1984V14.1734C118.413 14.14 118.288 14.1234 118.171 14.1234C118.055 14.1067 117.938 14.0984 117.821 14.0984C116.638 14.0984 115.696 14.4484 114.996 15.1484C114.296 15.8317 113.946 16.8567 113.946 18.2234V24.6984H110.821ZM125.445 24.8734C124.328 24.8734 123.253 24.7317 122.22 24.4484C121.203 24.1484 120.395 23.79 119.795 23.3734L120.995 20.9984C121.595 21.3817 122.311 21.6984 123.145 21.9484C123.978 22.1984 124.811 22.3234 125.645 22.3234C126.628 22.3234 127.336 22.19 127.77 21.9234C128.22 21.6567 128.445 21.2984 128.445 20.8484C128.445 20.4817 128.295 20.2067 127.995 20.0234C127.695 19.8234 127.303 19.6734 126.82 19.5734C126.336 19.4734 125.795 19.3817 125.195 19.2984C124.611 19.215 124.02 19.1067 123.42 18.9734C122.836 18.8234 122.303 18.615 121.82 18.3484C121.336 18.065 120.945 17.69 120.645 17.2234C120.345 16.7567 120.195 16.14 120.195 15.3734C120.195 14.5234 120.436 13.79 120.92 13.1734C121.403 12.54 122.078 12.0567 122.945 11.7234C123.828 11.3734 124.87 11.1984 126.07 11.1984C126.97 11.1984 127.878 11.2984 128.795 11.4984C129.711 11.6984 130.47 11.9817 131.07 12.3484L129.87 14.7234C129.236 14.34 128.595 14.0817 127.945 13.9484C127.311 13.7984 126.678 13.7234 126.045 13.7234C125.095 13.7234 124.386 13.865 123.92 14.1484C123.47 14.4317 123.245 14.79 123.245 15.2234C123.245 15.6234 123.395 15.9234 123.695 16.1234C123.995 16.3234 124.386 16.4817 124.87 16.5984C125.353 16.715 125.886 16.815 126.47 16.8984C127.07 16.965 127.661 17.0734 128.245 17.2234C128.828 17.3734 129.361 17.5817 129.845 17.8484C130.345 18.0984 130.745 18.4567 131.045 18.9234C131.345 19.39 131.495 19.9984 131.495 20.7484C131.495 21.5817 131.245 22.3067 130.745 22.9234C130.261 23.54 129.57 24.0234 128.67 24.3734C127.77 24.7067 126.695 24.8734 125.445 24.8734ZM146.445 24.9484C145.228 24.9484 144.137 24.7484 143.17 24.3484C142.203 23.9484 141.445 23.3984 140.895 22.6984C140.345 21.9984 140.07 21.19 140.07 20.2734C140.07 19.44 140.253 18.69 140.62 18.0234C140.987 17.3567 141.57 16.7234 142.37 16.1234C143.17 15.5067 144.195 14.89 145.445 14.2734C146.428 13.79 147.195 13.365 147.745 12.9984C148.312 12.6317 148.703 12.2817 148.92 11.9484C149.153 11.615 149.27 11.265 149.27 10.8984C149.27 10.3984 149.095 9.99836 148.745 9.69836C148.395 9.3817 147.895 9.22336 147.245 9.22336C146.545 9.22336 145.995 9.39836 145.595 9.74836C145.212 10.0817 145.02 10.5234 145.02 11.0734C145.02 11.3567 145.07 11.6317 145.17 11.8984C145.287 12.165 145.487 12.465 145.77 12.7984C146.053 13.1317 146.462 13.5567 146.995 14.0734L156.245 22.9484L154.52 24.9734L144.52 15.3734C143.953 14.8234 143.495 14.315 143.145 13.8484C142.795 13.3817 142.545 12.9317 142.395 12.4984C142.245 12.0484 142.17 11.59 142.17 11.1234C142.17 10.3067 142.378 9.59003 142.795 8.97336C143.212 8.34003 143.803 7.8567 144.57 7.52336C145.337 7.17336 146.228 6.99836 147.245 6.99836C148.195 6.99836 149.012 7.1567 149.695 7.47336C150.395 7.77336 150.937 8.21503 151.32 8.79836C151.72 9.36503 151.92 10.0484 151.92 10.8484C151.92 11.5484 151.745 12.1984 151.395 12.7984C151.045 13.3817 150.495 13.94 149.745 14.4734C149.012 15.0067 148.028 15.565 146.795 16.1484C145.878 16.5984 145.153 17.0234 144.62 17.4234C144.087 17.8234 143.703 18.2234 143.47 18.6234C143.237 19.0234 143.12 19.465 143.12 19.9484C143.12 20.4317 143.262 20.8567 143.545 21.2234C143.845 21.59 144.262 21.8817 144.795 22.0984C145.328 22.2984 145.953 22.3984 146.67 22.3984C147.737 22.3984 148.703 22.165 149.57 21.6984C150.453 21.215 151.195 20.4984 151.795 19.5484C152.395 18.5984 152.828 17.4234 153.095 16.0234L155.62 16.8484C155.27 18.5317 154.662 19.9817 153.795 21.1984C152.945 22.3984 151.895 23.3234 150.645 23.9734C149.395 24.6234 147.995 24.9484 146.445 24.9484ZM178.255 7.19836H181.505V24.6984H178.255V7.19836ZM169.205 24.6984H165.955V7.19836H169.205V24.6984ZM178.505 17.1984H168.93V14.4234H178.505V17.1984ZM191.895 24.8734C190.528 24.8734 189.311 24.5817 188.245 23.9984C187.178 23.3984 186.336 22.5817 185.72 21.5484C185.103 20.515 184.795 19.34 184.795 18.0234C184.795 16.69 185.103 15.515 185.72 14.4984C186.336 13.465 187.178 12.6567 188.245 12.0734C189.311 11.49 190.528 11.1984 191.895 11.1984C193.278 11.1984 194.503 11.49 195.57 12.0734C196.653 12.6567 197.495 13.4567 198.095 14.4734C198.711 15.49 199.02 16.6734 199.02 18.0234C199.02 19.34 198.711 20.515 198.095 21.5484C197.495 22.5817 196.653 23.3984 195.57 23.9984C194.503 24.5817 193.278 24.8734 191.895 24.8734ZM191.895 22.1984C192.661 22.1984 193.345 22.0317 193.945 21.6984C194.545 21.365 195.011 20.8817 195.345 20.2484C195.695 19.615 195.87 18.8734 195.87 18.0234C195.87 17.1567 195.695 16.415 195.345 15.7984C195.011 15.165 194.545 14.6817 193.945 14.3484C193.345 14.015 192.67 13.8484 191.92 13.8484C191.153 13.8484 190.47 14.015 189.87 14.3484C189.286 14.6817 188.82 15.165 188.47 15.7984C188.12 16.415 187.945 17.1567 187.945 18.0234C187.945 18.8734 188.12 19.615 188.47 20.2484C188.82 20.8817 189.286 21.365 189.87 21.6984C190.47 22.0317 191.145 22.1984 191.895 22.1984ZM202.008 24.6984V6.14836H205.133V24.6984H202.008ZM214.885 24.8734C213.601 24.8734 212.443 24.59 211.41 24.0234C210.393 23.44 209.593 22.64 209.01 21.6234C208.426 20.6067 208.135 19.4067 208.135 18.0234C208.135 16.64 208.426 15.44 209.01 14.4234C209.593 13.4067 210.393 12.615 211.41 12.0484C212.443 11.4817 213.601 11.1984 214.885 11.1984C216.001 11.1984 217.001 11.4484 217.885 11.9484C218.768 12.4317 219.468 13.1734 219.985 14.1734C220.501 15.1734 220.76 16.4567 220.76 18.0234C220.76 19.5734 220.51 20.8567 220.01 21.8734C219.51 22.8734 218.818 23.6234 217.935 24.1234C217.051 24.6234 216.035 24.8734 214.885 24.8734ZM215.26 22.1984C216.01 22.1984 216.676 22.0317 217.26 21.6984C217.86 21.365 218.335 20.8817 218.685 20.2484C219.051 19.615 219.235 18.8734 219.235 18.0234C219.235 17.1567 219.051 16.415 218.685 15.7984C218.335 15.165 217.86 14.6817 217.26 14.3484C216.676 14.015 216.01 13.8484 215.26 13.8484C214.51 13.8484 213.835 14.015 213.235 14.3484C212.651 14.6817 212.176 15.165 211.81 15.7984C211.46 16.415 211.285 17.1567 211.285 18.0234C211.285 18.8734 211.46 19.615 211.81 20.2484C212.176 20.8817 212.651 21.365 213.235 21.6984C213.835 22.0317 214.51 22.1984 215.26 22.1984ZM219.31 24.6984V21.5484L219.435 17.9984L219.185 14.4484V6.14836H222.285V24.6984H219.31ZM232.673 24.8734C231.189 24.8734 229.889 24.5817 228.773 23.9984C227.673 23.3984 226.814 22.5817 226.198 21.5484C225.598 20.515 225.298 19.34 225.298 18.0234C225.298 16.69 225.589 15.515 226.173 14.4984C226.773 13.465 227.589 12.6567 228.623 12.0734C229.673 11.49 230.864 11.1984 232.198 11.1984C233.498 11.1984 234.656 11.4817 235.673 12.0484C236.689 12.615 237.489 13.415 238.073 14.4484C238.656 15.4817 238.948 16.6984 238.948 18.0984C238.948 18.2317 238.939 18.3817 238.923 18.5484C238.923 18.715 238.914 18.8734 238.898 19.0234H227.773V16.9484H237.248L236.023 17.5984C236.039 16.8317 235.881 16.1567 235.548 15.5734C235.214 14.99 234.756 14.5317 234.173 14.1984C233.606 13.865 232.948 13.6984 232.198 13.6984C231.431 13.6984 230.756 13.865 230.173 14.1984C229.606 14.5317 229.156 14.9984 228.823 15.5984C228.506 16.1817 228.348 16.8734 228.348 17.6734V18.1734C228.348 18.9734 228.531 19.6817 228.898 20.2984C229.264 20.915 229.781 21.39 230.448 21.7234C231.114 22.0567 231.881 22.2234 232.748 22.2234C233.498 22.2234 234.173 22.1067 234.773 21.8734C235.373 21.64 235.906 21.2734 236.373 20.7734L238.048 22.6984C237.448 23.3984 236.689 23.94 235.773 24.3234C234.873 24.69 233.839 24.8734 232.673 24.8734ZM241.949 24.6984V11.3484H244.924V15.0234L244.574 13.9484C244.974 13.0484 245.599 12.365 246.449 11.8984C247.316 11.4317 248.391 11.1984 249.674 11.1984V14.1734C249.541 14.14 249.416 14.1234 249.299 14.1234C249.183 14.1067 249.066 14.0984 248.949 14.0984C247.766 14.0984 246.824 14.4484 246.124 15.1484C245.424 15.8317 245.074 16.8567 245.074 18.2234V24.6984H241.949ZM256.572 24.8734C255.456 24.8734 254.381 24.7317 253.347 24.4484C252.331 24.1484 251.522 23.79 250.922 23.3734L252.122 20.9984C252.722 21.3817 253.439 21.6984 254.272 21.9484C255.106 22.1984 255.939 22.3234 256.772 22.3234C257.756 22.3234 258.464 22.19 258.897 21.9234C259.347 21.6567 259.572 21.2984 259.572 20.8484C259.572 20.4817 259.422 20.2067 259.122 20.0234C258.822 19.8234 258.431 19.6734 257.947 19.5734C257.464 19.4734 256.922 19.3817 256.322 19.2984C255.739 19.215 255.147 19.1067 254.547 18.9734C253.964 18.8234 253.431 18.615 252.947 18.3484C252.464 18.065 252.072 17.69 251.772 17.2234C251.472 16.7567 251.322 16.14 251.322 15.3734C251.322 14.5234 251.564 13.79 252.047 13.1734C252.531 12.54 253.206 12.0567 254.072 11.7234C254.956 11.3734 255.997 11.1984 257.197 11.1984C258.097 11.1984 259.006 11.2984 259.922 11.4984C260.839 11.6984 261.597 11.9817 262.197 12.3484L260.997 14.7234C260.364 14.34 259.722 14.0817 259.072 13.9484C258.439 13.7984 257.806 13.7234 257.172 13.7234C256.222 13.7234 255.514 13.865 255.047 14.1484C254.597 14.4317 254.372 14.79 254.372 15.2234C254.372 15.6234 254.522 15.9234 254.822 16.1234C255.122 16.3234 255.514 16.4817 255.997 16.5984C256.481 16.715 257.014 16.815 257.597 16.8984C258.197 16.965 258.789 17.0734 259.372 17.2234C259.956 17.3734 260.489 17.5817 260.972 17.8484C261.472 18.0984 261.872 18.4567 262.172 18.9234C262.472 19.39 262.622 19.9984 262.622 20.7484C262.622 21.5817 262.372 22.3067 261.872 22.9234C261.389 23.54 260.697 24.0234 259.797 24.3734C258.897 24.7067 257.822 24.8734 256.572 24.8734Z" fill="white"/>
<path d="M303.962 97.7567C306.522 97.7567 308.282 99.2367 308.282 102.257V108.357H306.862V102.397C306.862 100.177 305.702 99.0367 303.702 99.0367C301.442 99.0367 300.022 100.437 300.022 102.837V108.357H298.602V97.8367H299.962V99.7767C300.722 98.4967 302.142 97.7567 303.962 97.7567ZM316.476 108.457C313.396 108.457 311.116 106.217 311.116 103.097C311.116 99.9767 313.396 97.7567 316.476 97.7567C319.556 97.7567 321.816 99.9767 321.816 103.097C321.816 106.217 319.556 108.457 316.476 108.457ZM316.476 107.197C318.716 107.197 320.376 105.557 320.376 103.097C320.376 100.637 318.716 98.9967 316.476 98.9967C314.236 98.9967 312.556 100.637 312.556 103.097C312.556 105.557 314.236 107.197 316.476 107.197ZM337.835 97.7567C340.395 97.7567 342.075 99.2367 342.075 102.257V108.357H340.655V102.397C340.655 100.177 339.535 99.0367 337.635 99.0367C335.475 99.0367 334.115 100.437 334.115 102.837V108.357H332.695V102.397C332.695 100.177 331.575 99.0367 329.655 99.0367C327.515 99.0367 326.135 100.437 326.135 102.837V108.357H324.715V97.8367H326.075V99.7567C326.815 98.4967 328.175 97.7567 329.935 97.7567C331.675 97.7567 333.035 98.4967 333.675 99.9767C334.435 98.6167 335.935 97.7567 337.835 97.7567ZM346.646 95.5367C346.066 95.5367 345.606 95.0767 345.606 94.5167C345.606 93.9767 346.066 93.5167 346.646 93.5167C347.226 93.5167 347.686 93.9567 347.686 94.4967C347.686 95.0767 347.246 95.5367 346.646 95.5367ZM345.926 108.357V97.8367H347.346V108.357H345.926ZM356.657 97.7567C359.217 97.7567 360.977 99.2367 360.977 102.257V108.357H359.557V102.397C359.557 100.177 358.397 99.0367 356.397 99.0367C354.137 99.0367 352.717 100.437 352.717 102.837V108.357H351.297V97.8367H352.657V99.7767C353.417 98.4967 354.837 97.7567 356.657 97.7567ZM368.513 97.7567C371.233 97.7567 372.773 99.1167 372.773 101.837V108.357H371.413V106.717C370.773 107.797 369.533 108.457 367.793 108.457C365.413 108.457 363.953 107.217 363.953 105.397C363.953 103.777 364.993 102.417 368.013 102.417H371.353V101.777C371.353 99.9767 370.333 98.9967 368.373 98.9967C367.013 98.9967 365.733 99.4767 364.873 100.237L364.233 99.1767C365.293 98.2767 366.853 97.7567 368.513 97.7567ZM368.013 107.337C369.613 107.337 370.793 106.577 371.353 105.197V103.477H368.053C366.013 103.477 365.353 104.277 365.353 105.357C365.353 106.577 366.333 107.337 368.013 107.337ZM381.669 106.697L382.169 107.717C381.609 108.217 380.769 108.457 379.949 108.457C377.969 108.457 376.869 107.337 376.869 105.397V99.0367H374.989V97.8367H376.869V95.5367H378.289V97.8367H381.489V99.0367H378.289V105.317C378.289 106.557 378.929 107.237 380.109 107.237C380.689 107.237 381.269 107.057 381.669 106.697ZM385.474 95.5367C384.894 95.5367 384.434 95.0767 384.434 94.5167C384.434 93.9767 384.894 93.5167 385.474 93.5167C386.054 93.5167 386.514 93.9567 386.514 94.4967C386.514 95.0767 386.074 95.5367 385.474 95.5367ZM384.754 108.357V97.8367H386.174V108.357H384.754ZM394.426 108.457C391.346 108.457 389.066 106.217 389.066 103.097C389.066 99.9767 391.346 97.7567 394.426 97.7567C397.506 97.7567 399.766 99.9767 399.766 103.097C399.766 106.217 397.506 108.457 394.426 108.457ZM394.426 107.197C396.666 107.197 398.326 105.557 398.326 103.097C398.326 100.637 396.666 98.9967 394.426 98.9967C392.186 98.9967 390.506 100.637 390.506 103.097C390.506 105.557 392.186 107.197 394.426 107.197ZM408.025 97.7567C410.585 97.7567 412.345 99.2367 412.345 102.257V108.357H410.925V102.397C410.925 100.177 409.765 99.0367 407.765 99.0367C405.505 99.0367 404.085 100.437 404.085 102.837V108.357H402.665V97.8367H404.025V99.7767C404.785 98.4967 406.205 97.7567 408.025 97.7567ZM419.02 108.457C417.28 108.457 415.6 107.897 414.74 107.157L415.38 106.037C416.22 106.697 417.64 107.217 419.12 107.217C421.12 107.217 421.94 106.537 421.94 105.497C421.94 102.757 415.12 104.917 415.12 100.757C415.12 99.0367 416.6 97.7567 419.28 97.7567C420.64 97.7567 422.12 98.1367 423 98.7367L422.38 99.8767C421.46 99.2367 420.36 98.9767 419.28 98.9767C417.38 98.9767 416.54 99.7167 416.54 100.717C416.54 103.557 423.36 101.417 423.36 105.457C423.36 107.277 421.76 108.457 419.02 108.457Z" fill="white"/>
<path d="M303.962 97.7567C306.522 97.7567 308.282 99.2367 308.282 102.257V108.357H306.862V102.397C306.862 100.177 305.702 99.0367 303.702 99.0367C301.442 99.0367 300.022 100.437 300.022 102.837V108.357H298.602V97.8367H299.962V99.7767C300.722 98.4967 302.142 97.7567 303.962 97.7567ZM316.476 108.457C313.396 108.457 311.116 106.217 311.116 103.097C311.116 99.9767 313.396 97.7567 316.476 97.7567C319.556 97.7567 321.816 99.9767 321.816 103.097C321.816 106.217 319.556 108.457 316.476 108.457ZM316.476 107.197C318.716 107.197 320.376 105.557 320.376 103.097C320.376 100.637 318.716 98.9967 316.476 98.9967C314.236 98.9967 312.556 100.637 312.556 103.097C312.556 105.557 314.236 107.197 316.476 107.197ZM337.835 97.7567C340.395 97.7567 342.075 99.2367 342.075 102.257V108.357H340.655V102.397C340.655 100.177 339.535 99.0367 337.635 99.0367C335.475 99.0367 334.115 100.437 334.115 102.837V108.357H332.695V102.397C332.695 100.177 331.575 99.0367 329.655 99.0367C327.515 99.0367 326.135 100.437 326.135 102.837V108.357H324.715V97.8367H326.075V99.7567C326.815 98.4967 328.175 97.7567 329.935 97.7567C331.675 97.7567 333.035 98.4967 333.675 99.9767C334.435 98.6167 335.935 97.7567 337.835 97.7567ZM346.646 95.5367C346.066 95.5367 345.606 95.0767 345.606 94.5167C345.606 93.9767 346.066 93.5167 346.646 93.5167C347.226 93.5167 347.686 93.9567 347.686 94.4967C347.686 95.0767 347.246 95.5367 346.646 95.5367ZM345.926 108.357V97.8367H347.346V108.357H345.926ZM356.657 97.7567C359.217 97.7567 360.977 99.2367 360.977 102.257V108.357H359.557V102.397C359.557 100.177 358.397 99.0367 356.397 99.0367C354.137 99.0367 352.717 100.437 352.717 102.837V108.357H351.297V97.8367H352.657V99.7767C353.417 98.4967 354.837 97.7567 356.657 97.7567ZM368.513 97.7567C371.233 97.7567 372.773 99.1167 372.773 101.837V108.357H371.413V106.717C370.773 107.797 369.533 108.457 367.793 108.457C365.413 108.457 363.953 107.217 363.953 105.397C363.953 103.777 364.993 102.417 368.013 102.417H371.353V101.777C371.353 99.9767 370.333 98.9967 368.373 98.9967C367.013 98.9967 365.733 99.4767 364.873 100.237L364.233 99.1767C365.293 98.2767 366.853 97.7567 368.513 97.7567ZM368.013 107.337C369.613 107.337 370.793 106.577 371.353 105.197V103.477H368.053C366.013 103.477 365.353 104.277 365.353 105.357C365.353 106.577 366.333 107.337 368.013 107.337ZM381.669 106.697L382.169 107.717C381.609 108.217 380.769 108.457 379.949 108.457C377.969 108.457 376.869 107.337 376.869 105.397V99.0367H374.989V97.8367H376.869V95.5367H378.289V97.8367H381.489V99.0367H378.289V105.317C378.289 106.557 378.929 107.237 380.109 107.237C380.689 107.237 381.269 107.057 381.669 106.697ZM385.474 95.5367C384.894 95.5367 384.434 95.0767 384.434 94.5167C384.434 93.9767 384.894 93.5167 385.474 93.5167C386.054 93.5167 386.514 93.9567 386.514 94.4967C386.514 95.0767 386.074 95.5367 385.474 95.5367ZM384.754 108.357V97.8367H386.174V108.357H384.754ZM394.426 108.457C391.346 108.457 389.066 106.217 389.066 103.097C389.066 99.9767 391.346 97.7567 394.426 97.7567C397.506 97.7567 399.766 99.9767 399.766 103.097C399.766 106.217 397.506 108.457 394.426 108.457ZM394.426 107.197C396.666 107.197 398.326 105.557 398.326 103.097C398.326 100.637 396.666 98.9967 394.426 98.9967C392.186 98.9967 390.506 100.637 390.506 103.097C390.506 105.557 392.186 107.197 394.426 107.197ZM408.025 97.7567C410.585 97.7567 412.345 99.2367 412.345 102.257V108.357H410.925V102.397C410.925 100.177 409.765 99.0367 407.765 99.0367C405.505 99.0367 404.085 100.437 404.085 102.837V108.357H402.665V97.8367H404.025V99.7767C404.785 98.4967 406.205 97.7567 408.025 97.7567ZM419.02 108.457C417.28 108.457 415.6 107.897 414.74 107.157L415.38 106.037C416.22 106.697 417.64 107.217 419.12 107.217C421.12 107.217 421.94 106.537 421.94 105.497C421.94 102.757 415.12 104.917 415.12 100.757C415.12 99.0367 416.6 97.7567 419.28 97.7567C420.64 97.7567 422.12 98.1367 423 98.7367L422.38 99.8767C421.46 99.2367 420.36 98.9767 419.28 98.9767C417.38 98.9767 416.54 99.7167 416.54 100.717C416.54 103.557 423.36 101.417 423.36 105.457C423.36 107.277 421.76 108.457 419.02 108.457Z" fill="white"/>
<path d="M593.09 24.9484C587.665 24.9484 583.665 21.1234 583.665 15.9484C583.665 10.7734 587.665 6.94836 593.09 6.94836C598.515 6.94836 602.515 10.7484 602.515 15.9484C602.515 21.1484 598.515 24.9484 593.09 24.9484ZM593.09 22.0984C596.615 22.0984 599.24 19.5234 599.24 15.9484C599.24 12.3734 596.615 9.79836 593.09 9.79836C589.565 9.79836 586.94 12.3734 586.94 15.9484C586.94 19.5234 589.565 22.0984 593.09 22.0984ZM613.06 11.1984C616.96 11.1984 619.835 13.8984 619.835 18.0234C619.835 22.1734 616.96 24.8734 613.06 24.8734C611.36 24.8734 609.86 24.2984 608.785 23.0734V29.5484H605.66V11.3484H608.635V13.0984C609.685 11.8234 611.235 11.1984 613.06 11.1984ZM612.71 22.1984C614.96 22.1984 616.66 20.5734 616.66 18.0234C616.66 15.4734 614.96 13.8484 612.71 13.8484C610.46 13.8484 608.735 15.4734 608.735 18.0234C608.735 20.5734 610.46 22.1984 612.71 22.1984ZM635.349 18.0984C635.349 18.3484 635.324 18.7234 635.299 19.0234H624.824C625.199 20.9734 626.824 22.2234 629.149 22.2234C630.649 22.2234 631.824 21.7484 632.774 20.7734L634.449 22.6984C633.249 24.1234 631.374 24.8734 629.074 24.8734C624.599 24.8734 621.699 21.9984 621.699 18.0234C621.699 14.0484 624.624 11.1984 628.599 11.1984C632.499 11.1984 635.349 13.9234 635.349 18.0984ZM628.599 13.6984C626.574 13.6984 625.099 14.9984 624.799 16.9484H632.374C632.124 15.0234 630.649 13.6984 628.599 13.6984ZM641.326 13.2984C642.226 11.8984 643.851 11.1984 646.076 11.1984V14.1734C645.801 14.1234 645.576 14.0984 645.351 14.0984C642.976 14.0984 641.476 15.4984 641.476 18.2234V24.6984H638.351V11.3484H641.326V13.2984ZM653.754 11.1984C657.604 11.1984 659.829 13.0234 659.829 16.8734V24.6984H656.879V23.0734C656.129 24.2234 654.679 24.8734 652.679 24.8734C649.629 24.8734 647.704 23.1984 647.704 20.8734C647.704 18.6484 649.204 16.8984 653.254 16.8984H656.704V16.6984C656.704 14.8734 655.604 13.7984 653.379 13.7984C651.879 13.7984 650.329 14.2984 649.329 15.1234L648.104 12.8484C649.529 11.7484 651.604 11.1984 653.754 11.1984ZM653.329 22.5984C654.854 22.5984 656.179 21.8984 656.704 20.5234V18.9734H653.479C651.354 18.9734 650.779 19.7734 650.779 20.7484C650.779 21.8734 651.729 22.5984 653.329 22.5984ZM670.989 21.7484L671.864 23.9734C671.114 24.5734 669.989 24.8734 668.864 24.8734C665.939 24.8734 664.264 23.3234 664.264 20.3734V13.9484H662.064V11.4484H664.264V8.39836H667.389V11.4484H670.964V13.9484H667.389V20.2984C667.389 21.5984 668.039 22.2984 669.239 22.2984C669.889 22.2984 670.514 22.1234 670.989 21.7484ZM679.995 24.8734C675.895 24.8734 672.895 22.0234 672.895 18.0234C672.895 14.0234 675.895 11.1984 679.995 11.1984C684.145 11.1984 687.12 14.0234 687.12 18.0234C687.12 22.0234 684.145 24.8734 679.995 24.8734ZM679.995 22.1984C682.27 22.1984 683.97 20.5734 683.97 18.0234C683.97 15.4734 682.27 13.8484 679.995 13.8484C677.745 13.8484 676.045 15.4734 676.045 18.0234C676.045 20.5734 677.745 22.1984 679.995 22.1984ZM693.084 13.2984C693.984 11.8984 695.609 11.1984 697.834 11.1984V14.1734C697.559 14.1234 697.334 14.0984 697.109 14.0984C694.734 14.0984 693.234 15.4984 693.234 18.2234V24.6984H690.109V11.3484H693.084V13.2984ZM704.658 24.8734C702.433 24.8734 700.208 24.2234 699.008 23.3734L700.208 20.9984C701.383 21.7734 703.183 22.3234 704.858 22.3234C706.833 22.3234 707.658 21.7734 707.658 20.8484C707.658 18.2984 699.408 20.6984 699.408 15.3734C699.408 12.8484 701.683 11.1984 705.283 11.1984C707.058 11.1984 709.083 11.6234 710.283 12.3484L709.083 14.7234C707.808 13.9734 706.533 13.7234 705.258 13.7234C703.358 13.7234 702.458 14.3484 702.458 15.2234C702.458 17.9234 710.708 15.5234 710.708 20.7484C710.708 23.2484 708.408 24.8734 704.658 24.8734Z" fill="white"/>
<circle cx="5.75342" cy="79.3618" r="5.18701" fill="#CDE6B2" stroke="white"/>
<circle cx="20.7534" cy="79.3618" r="5.18701" fill="#CDE6B2" stroke="white"/>
<circle cx="35.7534" cy="79.3618" r="5.18701" fill="#CDE6B2" stroke="white"/>
<circle cx="50.7534" cy="79.3618" r="5.18701" fill="#CDE6B2" stroke="white"/>
<circle cx="65.7534" cy="79.3618" r="5.18701" fill="#CDE6B2" stroke="white"/>
<circle cx="5.75342" cy="95.1118" r="5.18701" fill="#CDE6B2" stroke="white"/>
<circle cx="20.7534" cy="95.1118" r="5.18701" fill="#CDE6B2" stroke="white"/>
<circle cx="35.7534" cy="95.1118" r="5.18701" fill="#CDE6B2" stroke="white"/>
<circle cx="50.7534" cy="95.1118" r="5.18701" fill="#CDE6B2" stroke="white"/>
<circle cx="65.7534" cy="95.1118" r="5.18701" fill="#CDE6B2" stroke="white"/>
<circle cx="5.75342" cy="110.862" r="5.18701" fill="#CDE6B2" stroke="white"/>
<circle cx="20.7534" cy="110.862" r="5.18701" fill="#CDE6B2" stroke="white"/>
<circle cx="35.7534" cy="110.862" r="5.18701" fill="#CDE6B2" stroke="white"/>
<circle cx="50.7534" cy="110.862" r="5.18701" fill="#CDE6B2" stroke="white"/>
<circle cx="65.7534" cy="110.862" r="5.18701" fill="#CDE6B2" stroke="white"/>
<circle cx="5.75342" cy="126.612" r="5.18701" fill="#CDE6B2" stroke="white"/>
<circle cx="20.7534" cy="126.612" r="5.18701" fill="#CDE6B2" stroke="white"/>
<circle cx="35.7534" cy="126.612" r="5.18701" fill="#CDE6B2" stroke="white"/>
<circle cx="50.7534" cy="126.612" r="5.18701" fill="#CDE6B2" stroke="white"/>
<circle cx="65.7534" cy="126.612" r="5.18701" fill="#CDE6B2" stroke="white"/>
<circle cx="5.75342" cy="142.362" r="5.18701" fill="#CDE6B2" stroke="white"/>
<circle cx="20.7534" cy="142.362" r="5.18701" fill="#CDE6B2" stroke="white"/>
<circle cx="35.7534" cy="142.362" r="5.18701" fill="#CDE6B2" stroke="white"/>
<circle cx="50.7534" cy="142.362" r="5.18701" fill="#CDE6B2" stroke="white"/>
<circle cx="65.7534" cy="142.362" r="5.18701" fill="#CDE6B2" stroke="white"/>
<circle cx="5.75342" cy="172.755" r="5.18701" fill="#91C757" stroke="white"/>
<circle cx="20.7534" cy="172.755" r="5.18701" fill="#91C757" stroke="white"/>
<circle cx="35.7534" cy="172.755" r="5.18701" fill="#91C757" stroke="white"/>
<circle cx="50.7534" cy="172.755" r="5.18701" fill="#91C757" stroke="white"/>
<circle cx="65.7534" cy="172.755" r="5.18701" fill="#91C757" stroke="white"/>
<circle cx="5.75342" cy="188.505" r="5.18701" fill="#91C757" stroke="white"/>
<circle cx="20.7534" cy="188.505" r="5.18701" fill="#91C757" stroke="white"/>
<circle cx="35.7534" cy="188.505" r="5.18701" fill="#91C757" stroke="white"/>
<circle cx="50.7534" cy="188.505" r="5.18701" fill="#91C757" stroke="white"/>
<circle cx="65.7534" cy="188.505" r="5.18701" fill="#91C757" stroke="white"/>
<circle cx="5.75342" cy="204.255" r="5.18701" fill="#91C757" stroke="white"/>
<circle cx="20.7534" cy="204.255" r="5.18701" fill="#91C757" stroke="white"/>
<circle cx="35.7534" cy="204.255" r="5.18701" fill="#91C757" stroke="white"/>
<circle cx="50.7534" cy="204.255" r="5.18701" fill="#91C757" stroke="white"/>
<circle cx="65.7534" cy="204.255" r="5.18701" fill="#91C757" stroke="white"/>
<circle cx="5.75342" cy="220.005" r="5.18701" fill="#91C757" stroke="white"/>
<circle cx="20.7534" cy="220.005" r="5.18701" fill="#91C757" stroke="white"/>
<circle cx="35.7534" cy="220.005" r="5.18701" fill="#91C757" stroke="white"/>
<circle cx="50.7534" cy="220.005" r="5.18701" fill="#91C757" stroke="white"/>
<circle cx="65.7534" cy="220.005" r="5.18701" fill="#91C757" stroke="white"/>
<circle cx="5.75342" cy="235.755" r="5.18701" fill="#91C757" stroke="white"/>
<circle cx="20.7534" cy="235.755" r="5.18701" fill="#91C757" stroke="white"/>
<circle cx="35.7534" cy="235.755" r="5.18701" fill="#91C757" stroke="white"/>
<circle cx="50.7534" cy="235.755" r="5.18701" fill="#91C757" stroke="white"/>
<circle cx="65.7534" cy="235.755" r="5.18701" fill="#91C757" stroke="white"/>
<circle cx="5.75342" cy="265.755" r="5.18701" fill="#BA9FE7" stroke="white"/>
<circle cx="20.7534" cy="265.755" r="5.18701" fill="#BA9FE7" stroke="white"/>
<circle cx="35.7534" cy="265.755" r="5.18701" fill="#BA9FE7" stroke="white"/>
<circle cx="50.7534" cy="265.755" r="5.18701" fill="#BA9FE7" stroke="white"/>
<circle cx="65.7534" cy="265.755" r="5.18701" fill="#BA9FE7" stroke="white"/>
<circle cx="5.75342" cy="281.505" r="5.18701" fill="#BA9FE7" stroke="white"/>
<circle cx="20.7534" cy="281.505" r="5.18701" fill="#BA9FE7" stroke="white"/>
<circle cx="35.7534" cy="281.505" r="5.18701" fill="#BA9FE7" stroke="white"/>
<circle cx="50.7534" cy="281.505" r="5.18701" fill="#BA9FE7" stroke="white"/>
<circle cx="65.7534" cy="281.505" r="5.18701" fill="#BA9FE7" stroke="white"/>
<circle cx="5.75342" cy="297.255" r="5.18701" fill="#BA9FE7" stroke="white"/>
<circle cx="20.7534" cy="297.255" r="5.18701" fill="#BA9FE7" stroke="white"/>
<circle cx="35.7534" cy="297.255" r="5.18701" fill="#BA9FE7" stroke="white"/>
<circle cx="50.7534" cy="297.255" r="5.18701" fill="#BA9FE7" stroke="white"/>
<circle cx="65.7534" cy="297.255" r="5.18701" fill="#BA9FE7" stroke="white"/>
<circle cx="5.75342" cy="343.005" r="5.18701" fill="#BA9FE7" stroke="white"/>
<circle cx="20.7534" cy="343.005" r="5.18701" fill="#BA9FE7" stroke="white"/>
<circle cx="35.7534" cy="343.005" r="5.18701" fill="#BA9FE7" stroke="white"/>
<circle cx="50.7534" cy="343.005" r="5.18701" fill="#BA9FE7" stroke="white"/>
<circle cx="65.7534" cy="343.005" r="5.18701" fill="#BA9FE7" stroke="white"/>
<circle cx="5.75342" cy="328.755" r="5.18701" fill="#BA9FE7" stroke="white"/>
<circle cx="20.7534" cy="328.755" r="5.18701" fill="#BA9FE7" stroke="white"/>
<circle cx="35.7534" cy="328.755" r="5.18701" fill="#BA9FE7" stroke="white"/>
<circle cx="50.7534" cy="328.755" r="5.18701" fill="#BA9FE7" stroke="white"/>
<circle cx="65.7534" cy="328.755" r="5.18701" fill="#BA9FE7" stroke="white"/>
<circle cx="97.7212" cy="157.755" r="5.18701" fill="#91C757" stroke="white"/>
<circle cx="112.721" cy="157.755" r="5.18701" fill="#91C757" stroke="white"/>
<circle cx="127.721" cy="157.755" r="5.18701" fill="#91C757" stroke="white"/>
<circle cx="142.721" cy="157.755" r="5.18701" fill="#91C757" stroke="white"/>
<circle cx="157.721" cy="157.755" r="5.18701" fill="#91C757" stroke="white"/>
<circle cx="173.007" cy="157.755" r="5.18701" fill="#91C757" stroke="white"/>
<circle cx="188.007" cy="157.755" r="5.18701" fill="#91C757" stroke="white"/>
<circle cx="173.007" cy="172.505" r="5.18701" fill="#91C757" stroke="white"/>
<circle cx="188.007" cy="172.505" r="5.18701" fill="#91C757" stroke="white"/>
<circle cx="97.7212" cy="172.505" r="5.18701" fill="#91C757" stroke="white"/>
<circle cx="112.721" cy="172.505" r="5.18701" fill="#91C757" stroke="white"/>
<circle cx="127.721" cy="172.505" r="5.18701" fill="#91C757" stroke="white"/>
<circle cx="142.721" cy="172.505" r="5.18701" fill="#91C757" stroke="white"/>
<circle cx="157.721" cy="172.505" r="5.18701" fill="#91C757" stroke="white"/>
<circle cx="97.7212" cy="204.255" r="5.18701" fill="#91C757" stroke="white"/>
<circle cx="112.721" cy="204.255" r="5.18701" fill="#91C757" stroke="white"/>
<circle cx="127.721" cy="204.255" r="5.18701" fill="#91C757" stroke="white"/>
<circle cx="97.7212" cy="220.005" r="5.18701" fill="#91C757" stroke="white"/>
<circle cx="112.721" cy="220.005" r="5.18701" fill="#91C757" stroke="white"/>
<circle cx="127.721" cy="220.005" r="5.18701" fill="#91C757" stroke="white"/>
<circle cx="97.7212" cy="235.755" r="5.18701" fill="#91C757" stroke="white"/>
<circle cx="112.721" cy="235.755" r="5.18701" fill="#91C757" stroke="white"/>
<circle cx="127.721" cy="235.755" r="5.18701" fill="#91C757" stroke="white"/>
<circle cx="159.471" cy="204.255" r="5.18701" fill="#91C757" stroke="white"/>
<circle cx="174.471" cy="204.255" r="5.18701" fill="#91C757" stroke="white"/>
<circle cx="189.471" cy="204.255" r="5.18701" fill="#91C757" stroke="white"/>
<circle cx="159.471" cy="220.005" r="5.18701" fill="#91C757" stroke="white"/>
<circle cx="174.471" cy="220.005" r="5.18701" fill="#91C757" stroke="white"/>
<circle cx="189.471" cy="220.005" r="5.18701" fill="#91C757" stroke="white"/>
<circle cx="159.471" cy="235.755" r="5.18701" fill="#91C757" stroke="white"/>
<circle cx="174.471" cy="235.755" r="5.18701" fill="#91C757" stroke="white"/>
<circle cx="189.471" cy="235.755" r="5.18701" fill="#91C757" stroke="white"/>
<circle cx="97.0073" cy="78.4911" r="5.18701" fill="#CDE6B2" stroke="white"/>
<circle cx="112.007" cy="78.4911" r="5.18701" fill="#CDE6B2" stroke="white"/>
<circle cx="127.007" cy="78.4911" r="5.18701" fill="#CDE6B2" stroke="white"/>
<circle cx="142.007" cy="78.4911" r="5.18701" fill="#CDE6B2" stroke="white"/>
<circle cx="157.007" cy="78.4911" r="5.18701" fill="#CDE6B2" stroke="white"/>
<circle cx="97.0073" cy="94.2411" r="5.18701" fill="#CDE6B2" stroke="white"/>
<circle cx="112.007" cy="94.2411" r="5.18701" fill="#CDE6B2" stroke="white"/>
<circle cx="127.007" cy="94.2411" r="5.18701" fill="#CDE6B2" stroke="white"/>
<circle cx="142.007" cy="94.2411" r="5.18701" fill="#CDE6B2" stroke="white"/>
<circle cx="157.007" cy="94.2411" r="5.18701" fill="#CDE6B2" stroke="white"/>
<circle cx="97.0073" cy="109.991" r="5.18701" fill="#CDE6B2" stroke="white"/>
<circle cx="112.007" cy="109.991" r="5.18701" fill="#CDE6B2" stroke="white"/>
<circle cx="127.007" cy="109.991" r="5.18701" fill="#CDE6B2" stroke="white"/>
<circle cx="142.007" cy="109.991" r="5.18701" fill="#CDE6B2" stroke="white"/>
<circle cx="157.007" cy="109.991" r="5.18701" fill="#CDE6B2" stroke="white"/>
<circle cx="97.0073" cy="125.741" r="5.18701" fill="#CDE6B2" stroke="white"/>
<circle cx="112.007" cy="125.741" r="5.18701" fill="#CDE6B2" stroke="white"/>
<circle cx="127.007" cy="125.741" r="5.18701" fill="#CDE6B2" stroke="white"/>
<circle cx="142.007" cy="125.741" r="5.18701" fill="#CDE6B2" stroke="white"/>
<circle cx="157.007" cy="125.741" r="5.18701" fill="#CDE6B2" stroke="white"/>
<circle cx="97.0073" cy="141.491" r="5.18701" fill="#CDE6B2" stroke="white"/>
<circle cx="112.007" cy="141.491" r="5.18701" fill="#CDE6B2" stroke="white"/>
<circle cx="127.007" cy="141.491" r="5.18701" fill="#CDE6B2" stroke="white"/>
<circle cx="142.007" cy="141.491" r="5.18701" fill="#CDE6B2" stroke="white"/>
<circle cx="157.007" cy="141.491" r="5.18701" fill="#CDE6B2" stroke="white"/>
<circle cx="173.007" cy="78.4911" r="5.18701" fill="#CDE6B2" stroke="white"/>
<circle cx="188.007" cy="78.4911" r="5.18701" fill="#CDE6B2" stroke="white"/>
<circle cx="173.007" cy="94.2411" r="5.18701" fill="#CDE6B2" stroke="white"/>
<circle cx="188.007" cy="94.2411" r="5.18701" fill="#CDE6B2" stroke="white"/>
<circle cx="173.007" cy="109.991" r="5.18701" fill="#CDE6B2" stroke="white"/>
<circle cx="188.007" cy="109.991" r="5.18701" fill="#CDE6B2" stroke="white"/>
<circle cx="173.007" cy="125.741" r="5.18701" fill="#CDE6B2" stroke="white"/>
<circle cx="188.007" cy="125.741" r="5.18701" fill="#CDE6B2" stroke="white"/>
<circle cx="173.007" cy="141.491" r="5.18701" fill="#CDE6B2" stroke="white"/>
<circle cx="188.007" cy="141.491" r="5.18701" fill="#CDE6B2" stroke="white"/>
<circle cx="97.0073" cy="265.491" r="5.18701" fill="#BA9FE7" stroke="white"/>
<circle cx="112.007" cy="265.491" r="5.18701" fill="#BA9FE7" stroke="white"/>
<circle cx="127.007" cy="265.491" r="5.18701" fill="#BA9FE7" stroke="white"/>
<circle cx="142.007" cy="265.491" r="5.18701" fill="#BA9FE7" stroke="white"/>
<circle cx="157.007" cy="265.491" r="5.18701" fill="#BA9FE7" stroke="white"/>
<circle cx="97.0073" cy="281.241" r="5.18701" fill="#BA9FE7" stroke="white"/>
<circle cx="112.007" cy="281.241" r="5.18701" fill="#BA9FE7" stroke="white"/>
<circle cx="127.007" cy="281.241" r="5.18701" fill="#BA9FE7" stroke="white"/>
<circle cx="142.007" cy="281.241" r="5.18701" fill="#BA9FE7" stroke="white"/>
<circle cx="157.007" cy="281.241" r="5.18701" fill="#BA9FE7" stroke="white"/>
<circle cx="97.0073" cy="296.991" r="5.18701" fill="#BA9FE7" stroke="white"/>
<circle cx="112.007" cy="296.991" r="5.18701" fill="#BA9FE7" stroke="white"/>
<circle cx="127.007" cy="296.991" r="5.18701" fill="#BA9FE7" stroke="white"/>
<circle cx="142.007" cy="296.991" r="5.18701" fill="#BA9FE7" stroke="white"/>
<circle cx="157.007" cy="296.991" r="5.18701" fill="#BA9FE7" stroke="white"/>
<circle cx="97.0073" cy="312.741" r="5.18701" fill="#BA9FE7" stroke="white"/>
<circle cx="112.007" cy="312.741" r="5.18701" fill="#BA9FE7" stroke="white"/>
<circle cx="127.007" cy="312.741" r="5.18701" fill="#BA9FE7" stroke="white"/>
<circle cx="142.007" cy="312.741" r="5.18701" fill="#BA9FE7" stroke="white"/>
<circle cx="157.007" cy="312.741" r="5.18701" fill="#BA9FE7" stroke="white"/>
<circle cx="173.007" cy="265.491" r="5.18701" fill="#BA9FE7" stroke="white"/>
<circle cx="188.007" cy="265.491" r="5.18701" fill="#BA9FE7" stroke="white"/>
<circle cx="173.007" cy="281.241" r="5.18701" fill="#BA9FE7" stroke="white"/>
<circle cx="188.007" cy="281.241" r="5.18701" fill="#BA9FE7" stroke="white"/>
<circle cx="173.007" cy="296.991" r="5.18701" fill="#BA9FE7" stroke="white"/>
<circle cx="188.007" cy="296.991" r="5.18701" fill="#BA9FE7" stroke="white"/>
<circle cx="173.007" cy="312.741" r="5.18701" fill="#BA9FE7" stroke="white"/>
<circle cx="188.007" cy="312.741" r="5.18701" fill="#BA9FE7" stroke="white"/>
<circle cx="97.0073" cy="328.491" r="5.18701" fill="#BA9FE7" stroke="white"/>
<circle cx="112.007" cy="328.491" r="5.18701" fill="#BA9FE7" stroke="white"/>
<circle cx="127.007" cy="328.491" r="5.18701" fill="#BA9FE7" stroke="white"/>
<circle cx="142.007" cy="328.491" r="5.18701" fill="#BA9FE7" stroke="white"/>
<circle cx="157.007" cy="328.491" r="5.18701" fill="#BA9FE7" stroke="white"/>
<circle cx="173.007" cy="328.491" r="5.18701" fill="#BA9FE7" stroke="white"/>
<circle cx="188.007" cy="328.491" r="5.18701" fill="#BA9FE7" stroke="white"/>
<circle cx="97.0073" cy="343.005" r="5.18701" fill="#BA9FE7" stroke="white"/>
<circle cx="112.007" cy="343.005" r="5.18701" fill="#BA9FE7" stroke="white"/>
<circle cx="127.007" cy="343.005" r="5.18701" fill="#BA9FE7" stroke="white"/>
<circle cx="142.007" cy="343.005" r="5.18701" fill="#BA9FE7" stroke="white"/>
<circle cx="157.007" cy="343.005" r="5.18701" fill="#BA9FE7" stroke="white"/>
<circle cx="173.007" cy="343.005" r="5.18701" fill="#BA9FE7" stroke="white"/>
<circle cx="188.007" cy="343.005" r="5.18701" fill="#BA9FE7" stroke="white"/>
<rect x="591.225" y="92.6133" width="122.146" height="46.0009" rx="3.5" fill="#CDE6B2" stroke="white"/>
<rect x="591.225" y="187.119" width="122.146" height="46.0009" rx="3.5" fill="#91C757" stroke="white"/>
<rect x="591.225" y="284.404" width="122.146" height="46.0009" rx="3.5" fill="#BA9FE7" stroke="white"/>
<path d="M584.283 209.39C560.365 209.625 545.358 198.265 536.321 190.973C534.336 189.579 527.611 183.565 516.281 175.077C499.867 162.78 466.57 159.033 443.121 158.096L193.597 158.096" stroke="white"/>
<path d="M194.94 203.772L583.149 210.646" stroke="white"/>
<path d="M578.492 209.545C554.675 209.644 539.731 204.862 530.731 201.792C528.755 201.205 522.059 198.674 510.776 195.1C494.431 189.924 461.274 188.346 437.923 187.952L71.125 187.952" stroke="white"/>
<path d="M578.645 211.126C548.687 210.951 537.522 226.866 514.184 238.983C492.346 250.321 472.018 248.971 449.955 249.496L136.204 249.496C131.438 249.496 127.575 245.633 127.575 240.868V240.868" stroke="white"/>
<path d="M590.893 210.582L576.299 217.78L576.299 203.383L590.893 210.582Z" fill="white"/>
<path d="M581.54 305.868C557.226 306.107 541.97 294.509 532.783 287.064C530.766 285.641 523.93 279.5 512.412 270.834C495.726 258.279 461.877 254.453 438.04 253.496L68.5891 253.496C66.7072 253.496 65.1816 255.022 65.1816 256.903V256.903L65.1816 260.069" stroke="white"/>
<path d="M193.657 312.56L580.729 306.332" stroke="white"/>
<path d="M580.459 306.922C557.882 306.702 543.716 317.359 535.185 324.199C533.312 325.506 526.964 331.148 516.269 339.11C500.775 350.645 469.344 354.161 447.21 355.04L72.732 355.04C68.7633 355.04 65.546 351.822 65.5461 347.854V347.854" stroke="white"/>
<path d="M591.399 306.582L576.806 313.78L576.806 299.383L591.399 306.582Z" fill="white"/>
<path d="M193.492 141.71L462.069 141.71C479.166 141.208 503.445 139.2 515.413 132.609C523.674 128.06 528.577 124.836 530.025 124.089C536.614 120.181 547.556 114.093 564.996 114.218L590.563 114.218" stroke="white"/>
<path d="M584.283 113.587C561.54 113.834 547.269 101.888 538.676 94.2206C536.789 92.7548 530.394 86.4304 519.621 77.5049C504.012 64.5743 472.35 60.6336 450.052 59.6484L79.8935 59.6484C71.9858 59.6484 65.5753 66.059 65.5754 73.9667V73.9667" stroke="white"/>
<path d="M591.06 113.779L576.466 106.58L576.466 120.978L591.06 113.779Z" fill="white"/>
</svg>
