<svg width="547" height="416" viewBox="0 0 547 416" fill="none" xmlns="http://www.w3.org/2000/svg">
<path d="M1.48764 4.91211C1.48764 2.97911 3.05464 1.41211 4.98764 1.41211H542.312C544.245 1.41211 545.812 2.97912 545.812 4.91211V48.2511C545.812 50.1841 544.245 51.7511 542.312 51.7511H4.98763C3.05464 51.7511 1.48764 50.1841 1.48764 48.2511V4.91211Z" fill="#CDE6B2" stroke="#211433"/>
<path d="M2.68872 5.86128C16.1955 5.86128 22.8028 17.0822 29.1925 27.9305C35.1559 38.0569 40.7873 47.6257 51.8673 47.6257C62.9474 47.6257 68.5836 38.0569 74.547 27.9305C80.9309 17.0822 87.5372 5.86128 101.045 5.86128C114.553 5.86128 121.159 17.0822 127.549 27.9305C133.512 38.0569 139.144 47.6257 150.228 47.6257C161.313 47.6257 166.94 38.0569 172.903 27.9305C179.291 17.0822 185.893 5.86128 199.405 5.86128C212.917 5.86128 219.519 17.0822 225.904 27.9305C231.872 38.0569 237.504 47.6257 248.584 47.6257C259.664 47.6257 265.295 38.0569 271.263 27.9305C277.647 17.0822 284.254 5.86128 297.761 5.86128C311.269 5.86128 317.875 17.0822 324.265 27.9305C330.229 38.0569 335.86 47.6257 346.94 47.6257C358.02 47.6257 363.656 38.0569 369.62 27.9305C376.007 17.0822 382.61 5.86128 396.121 5.86128C409.633 5.86128 416.236 17.0822 422.625 27.9305C428.589 38.0569 434.22 47.6257 445.3 47.6257C456.38 47.6257 462.016 38.0569 467.98 27.9305C474.363 17.0822 480.97 5.86128 494.482 5.86128C507.993 5.86128 514.596 17.0822 520.981 27.9305C526.949 38.0569 532.58 47.6257 543.66 47.6257" stroke="#83BB46" stroke-width="2" stroke-miterlimit="10"/>
<path d="M57.8231 1.61555V52.1695" stroke="black" stroke-dasharray="2 2"/>
<path d="M116.454 1.61555V52.1695" stroke="black" stroke-dasharray="2 2"/>
<path d="M496.954 1.61555V52.1695" stroke="black" stroke-dasharray="2 2"/>
<path d="M440.717 1.61555V52.1695" stroke="black" stroke-dasharray="2 2"/>
<path d="M384.479 1.61555V52.1695" stroke="black" stroke-dasharray="2 2"/>
<path d="M1.48764 105.422C1.48764 103.489 3.05464 101.922 4.98764 101.922H542.312C544.245 101.922 545.812 103.489 545.812 105.422V148.761C545.812 150.694 544.245 152.261 542.312 152.261H4.98763C3.05464 152.261 1.48764 150.694 1.48764 148.761V105.422Z" fill="#F4F1F7" stroke="#211433"/>
<path d="M57.8231 102.125V152.679" stroke="black" stroke-dasharray="2 2"/>
<path d="M116.454 102.125V152.679" stroke="black" stroke-dasharray="2 2"/>
<path d="M496.954 102.125V152.679" stroke="black" stroke-dasharray="2 2"/>
<path d="M440.717 102.125V152.679" stroke="black" stroke-dasharray="2 2"/>
<path d="M384.479 102.125V152.679" stroke="black" stroke-dasharray="2 2"/>
<path d="M1.48764 256.186C1.48764 254.253 3.05464 252.686 4.98764 252.686H542.312C544.245 252.686 545.812 254.253 545.812 256.186V299.525C545.812 301.458 544.245 303.025 542.312 303.025H4.98763C3.05464 303.025 1.48764 301.458 1.48764 299.525V256.186Z" fill="#F4F1F7" stroke="#211433"/>
<path d="M57.8231 252.889V303.443" stroke="black" stroke-dasharray="2 2"/>
<path d="M116.454 252.889V303.443" stroke="black" stroke-dasharray="2 2"/>
<path d="M496.954 252.889V303.443" stroke="black" stroke-dasharray="2 2"/>
<path d="M440.717 252.889V303.443" stroke="black" stroke-dasharray="2 2"/>
<path d="M384.479 252.889V303.443" stroke="black" stroke-dasharray="2 2"/>
<path d="M1.48764 368.661C1.48764 366.728 3.05464 365.161 4.98764 365.161H542.312C544.245 365.161 545.812 366.728 545.812 368.661V412C545.812 413.933 544.245 415.5 542.312 415.5H4.98763C3.05464 415.5 1.48764 413.933 1.48764 412V368.661Z" fill="#F4F1F7" stroke="#211433"/>
<path d="M57.8231 365.364V415.918" stroke="black" stroke-dasharray="2 2"/>
<path d="M116.454 365.364V415.918" stroke="black" stroke-dasharray="2 2"/>
<path d="M496.954 365.364V415.918" stroke="black" stroke-dasharray="2 2"/>
<path d="M440.717 365.364V415.918" stroke="black" stroke-dasharray="2 2"/>
<path d="M384.479 365.364V415.918" stroke="black" stroke-dasharray="2 2"/>
<path d="M236.905 133.09C236.055 133.09 235.305 132.915 234.655 132.565C234.015 132.215 233.515 131.735 233.155 131.125C232.805 130.515 232.63 129.815 232.63 129.025C232.63 128.235 232.8 127.535 233.14 126.925C233.49 126.315 233.965 125.84 234.565 125.5C235.175 125.15 235.86 124.975 236.62 124.975C237.39 124.975 238.07 125.145 238.66 125.485C239.25 125.825 239.71 126.305 240.04 126.925C240.38 127.535 240.55 128.25 240.55 129.07C240.55 129.13 240.545 129.2 240.535 129.28C240.535 129.36 240.53 129.435 240.52 129.505H233.755V128.47H239.77L239.185 128.83C239.195 128.32 239.09 127.865 238.87 127.465C238.65 127.065 238.345 126.755 237.955 126.535C237.575 126.305 237.13 126.19 236.62 126.19C236.12 126.19 235.675 126.305 235.285 126.535C234.895 126.755 234.59 127.07 234.37 127.48C234.15 127.88 234.04 128.34 234.04 128.86V129.1C234.04 129.63 234.16 130.105 234.4 130.525C234.65 130.935 234.995 131.255 235.435 131.485C235.875 131.715 236.38 131.83 236.95 131.83C237.42 131.83 237.845 131.75 238.225 131.59C238.615 131.43 238.955 131.19 239.245 130.87L240.04 131.8C239.68 132.22 239.23 132.54 238.69 132.76C238.16 132.98 237.565 133.09 236.905 133.09ZM241.175 133L244.595 128.56L244.58 129.295L241.325 125.05H242.93L245.42 128.32H244.805L247.295 125.05H248.87L245.57 129.325L245.585 128.56L249.035 133H247.4L244.775 129.52L245.36 129.61L242.78 133H241.175ZM253.336 133.09C252.536 133.09 251.916 132.875 251.476 132.445C251.036 132.015 250.816 131.4 250.816 130.6V123.31H252.256V130.54C252.256 130.97 252.361 131.3 252.571 131.53C252.791 131.76 253.101 131.875 253.501 131.875C253.951 131.875 254.326 131.75 254.626 131.5L255.076 132.535C254.856 132.725 254.591 132.865 254.281 132.955C253.981 133.045 253.666 133.09 253.336 133.09ZM249.466 126.235V125.05H254.536V126.235H249.466ZM260.093 133.09C259.243 133.09 258.493 132.915 257.843 132.565C257.203 132.215 256.703 131.735 256.343 131.125C255.993 130.515 255.818 129.815 255.818 129.025C255.818 128.235 255.988 127.535 256.328 126.925C256.678 126.315 257.153 125.84 257.753 125.5C258.363 125.15 259.048 124.975 259.808 124.975C260.578 124.975 261.258 125.145 261.848 125.485C262.438 125.825 262.898 126.305 263.228 126.925C263.568 127.535 263.738 128.25 263.738 129.07C263.738 129.13 263.733 129.2 263.723 129.28C263.723 129.36 263.718 129.435 263.708 129.505H256.943V128.47H262.958L262.373 128.83C262.383 128.32 262.278 127.865 262.058 127.465C261.838 127.065 261.533 126.755 261.143 126.535C260.763 126.305 260.318 126.19 259.808 126.19C259.308 126.19 258.863 126.305 258.473 126.535C258.083 126.755 257.778 127.07 257.558 127.48C257.338 127.88 257.228 128.34 257.228 128.86V129.1C257.228 129.63 257.348 130.105 257.588 130.525C257.838 130.935 258.183 131.255 258.623 131.485C259.063 131.715 259.568 131.83 260.138 131.83C260.608 131.83 261.033 131.75 261.413 131.59C261.803 131.43 262.143 131.19 262.433 130.87L263.228 131.8C262.868 132.22 262.418 132.54 261.878 132.76C261.348 132.98 260.753 133.09 260.093 133.09ZM269.983 124.975C270.633 124.975 271.203 125.1 271.693 125.35C272.193 125.6 272.583 125.98 272.863 126.49C273.143 127 273.283 127.645 273.283 128.425V133H271.843V128.59C271.843 127.82 271.653 127.24 271.273 126.85C270.903 126.46 270.378 126.265 269.698 126.265C269.188 126.265 268.743 126.365 268.363 126.565C267.983 126.765 267.688 127.06 267.478 127.45C267.278 127.84 267.178 128.325 267.178 128.905V133H265.738V125.05H267.118V127.195L266.893 126.625C267.153 126.105 267.553 125.7 268.093 125.41C268.633 125.12 269.263 124.975 269.983 124.975ZM278.228 133.09C277.568 133.09 276.938 133 276.338 132.82C275.748 132.64 275.283 132.42 274.943 132.16L275.543 131.02C275.883 131.25 276.303 131.445 276.803 131.605C277.303 131.765 277.813 131.845 278.333 131.845C279.003 131.845 279.483 131.75 279.773 131.56C280.073 131.37 280.223 131.105 280.223 130.765C280.223 130.515 280.133 130.32 279.953 130.18C279.773 130.04 279.533 129.935 279.233 129.865C278.943 129.795 278.618 129.735 278.258 129.685C277.898 129.625 277.538 129.555 277.178 129.475C276.818 129.385 276.488 129.265 276.188 129.115C275.888 128.955 275.648 128.74 275.468 128.47C275.288 128.19 275.198 127.82 275.198 127.36C275.198 126.88 275.333 126.46 275.603 126.1C275.873 125.74 276.253 125.465 276.743 125.275C277.243 125.075 277.833 124.975 278.513 124.975C279.033 124.975 279.558 125.04 280.088 125.17C280.628 125.29 281.068 125.465 281.408 125.695L280.793 126.835C280.433 126.595 280.058 126.43 279.668 126.34C279.278 126.25 278.888 126.205 278.498 126.205C277.868 126.205 277.398 126.31 277.088 126.52C276.778 126.72 276.623 126.98 276.623 127.3C276.623 127.57 276.713 127.78 276.893 127.93C277.083 128.07 277.323 128.18 277.613 128.26C277.913 128.34 278.243 128.41 278.603 128.47C278.963 128.52 279.323 128.59 279.683 128.68C280.043 128.76 280.368 128.875 280.658 129.025C280.958 129.175 281.198 129.385 281.378 129.655C281.568 129.925 281.663 130.285 281.663 130.735C281.663 131.215 281.523 131.63 281.243 131.98C280.963 132.33 280.568 132.605 280.058 132.805C279.548 132.995 278.938 133.09 278.228 133.09ZM283.463 133V125.05H284.903V133H283.463ZM284.183 123.52C283.903 123.52 283.668 123.43 283.478 123.25C283.298 123.07 283.208 122.85 283.208 122.59C283.208 122.32 283.298 122.095 283.478 121.915C283.668 121.735 283.903 121.645 284.183 121.645C284.463 121.645 284.693 121.735 284.873 121.915C285.063 122.085 285.158 122.3 285.158 122.56C285.158 122.83 285.068 123.06 284.888 123.25C284.708 123.43 284.473 123.52 284.183 123.52ZM291.057 133.09C290.257 133.09 289.547 132.915 288.927 132.565C288.307 132.215 287.817 131.735 287.457 131.125C287.097 130.505 286.917 129.805 286.917 129.025C286.917 128.235 287.097 127.535 287.457 126.925C287.817 126.315 288.307 125.84 288.927 125.5C289.547 125.15 290.257 124.975 291.057 124.975C291.847 124.975 292.552 125.15 293.172 125.5C293.802 125.84 294.292 126.315 294.642 126.925C295.002 127.525 295.182 128.225 295.182 129.025C295.182 129.815 295.002 130.515 294.642 131.125C294.292 131.735 293.802 132.215 293.172 132.565C292.552 132.915 291.847 133.09 291.057 133.09ZM291.057 131.83C291.567 131.83 292.022 131.715 292.422 131.485C292.832 131.255 293.152 130.93 293.382 130.51C293.612 130.08 293.727 129.585 293.727 129.025C293.727 128.455 293.612 127.965 293.382 127.555C293.152 127.135 292.832 126.81 292.422 126.58C292.022 126.35 291.567 126.235 291.057 126.235C290.547 126.235 290.092 126.35 289.692 126.58C289.292 126.81 288.972 127.135 288.732 127.555C288.492 127.965 288.372 128.455 288.372 129.025C288.372 129.585 288.492 130.08 288.732 130.51C288.972 130.93 289.292 131.255 289.692 131.485C290.092 131.715 290.547 131.83 291.057 131.83ZM301.419 124.975C302.069 124.975 302.639 125.1 303.129 125.35C303.629 125.6 304.019 125.98 304.299 126.49C304.579 127 304.719 127.645 304.719 128.425V133H303.279V128.59C303.279 127.82 303.089 127.24 302.709 126.85C302.339 126.46 301.814 126.265 301.134 126.265C300.624 126.265 300.179 126.365 299.799 126.565C299.419 126.765 299.124 127.06 298.914 127.45C298.714 127.84 298.614 128.325 298.614 128.905V133H297.174V125.05H298.554V127.195L298.329 126.625C298.589 126.105 298.989 125.7 299.529 125.41C300.069 125.12 300.699 124.975 301.419 124.975Z" fill="#211433"/>
<path d="M249.025 32.7102V24.6402H251.26V26.9202L250.945 26.2602C251.185 25.6902 251.57 25.2602 252.1 24.9702C252.63 24.6702 253.275 24.5202 254.035 24.5202V26.6802C253.935 26.6702 253.845 26.6652 253.765 26.6652C253.685 26.6552 253.6 26.6502 253.51 26.6502C252.87 26.6502 252.35 26.8352 251.95 27.2052C251.56 27.5652 251.365 28.1302 251.365 28.9002V32.7102H249.025ZM259.373 32.8302C258.453 32.8302 257.643 32.6502 256.943 32.2902C256.253 31.9302 255.718 31.4402 255.338 30.8202C254.958 30.1902 254.768 29.4752 254.768 28.6752C254.768 27.8652 254.953 27.1502 255.323 26.5302C255.703 25.9002 256.218 25.4102 256.868 25.0602C257.518 24.7002 258.253 24.5202 259.073 24.5202C259.863 24.5202 260.573 24.6902 261.203 25.0302C261.843 25.3602 262.348 25.8402 262.718 26.4702C263.088 27.0902 263.273 27.8352 263.273 28.7052C263.273 28.7952 263.268 28.9002 263.258 29.0202C263.248 29.1302 263.238 29.2352 263.228 29.3352H256.673V27.9702H261.998L261.098 28.3752C261.098 27.9552 261.013 27.5902 260.843 27.2802C260.673 26.9702 260.438 26.7302 260.138 26.5602C259.838 26.3802 259.488 26.2902 259.088 26.2902C258.688 26.2902 258.333 26.3802 258.023 26.5602C257.723 26.7302 257.488 26.9752 257.318 27.2952C257.148 27.6052 257.063 27.9752 257.063 28.4052V28.7652C257.063 29.2052 257.158 29.5952 257.348 29.9352C257.548 30.2652 257.823 30.5202 258.173 30.7002C258.533 30.8702 258.953 30.9552 259.433 30.9552C259.863 30.9552 260.238 30.8902 260.558 30.7602C260.888 30.6302 261.188 30.4352 261.458 30.1752L262.703 31.5252C262.333 31.9452 261.868 32.2702 261.308 32.5002C260.748 32.7202 260.103 32.8302 259.373 32.8302ZM268.731 32.8302C267.861 32.8302 267.086 32.6552 266.406 32.3052C265.726 31.9452 265.191 31.4502 264.801 30.8202C264.421 30.1902 264.231 29.4752 264.231 28.6752C264.231 27.8652 264.421 27.1502 264.801 26.5302C265.191 25.9002 265.726 25.4102 266.406 25.0602C267.086 24.7002 267.861 24.5202 268.731 24.5202C269.581 24.5202 270.321 24.7002 270.951 25.0602C271.581 25.4102 272.046 25.9152 272.346 26.5752L270.531 27.5502C270.321 27.1702 270.056 26.8902 269.736 26.7102C269.426 26.5302 269.086 26.4402 268.716 26.4402C268.316 26.4402 267.956 26.5302 267.636 26.7102C267.316 26.8902 267.061 27.1452 266.871 27.4752C266.691 27.8052 266.601 28.2052 266.601 28.6752C266.601 29.1452 266.691 29.5452 266.871 29.8752C267.061 30.2052 267.316 30.4602 267.636 30.6402C267.956 30.8202 268.316 30.9102 268.716 30.9102C269.086 30.9102 269.426 30.8252 269.736 30.6552C270.056 30.4752 270.321 30.1902 270.531 29.8002L272.346 30.7902C272.046 31.4402 271.581 31.9452 270.951 32.3052C270.321 32.6552 269.581 32.8302 268.731 32.8302ZM277.431 32.8302C276.571 32.8302 275.806 32.6502 275.136 32.2902C274.476 31.9302 273.951 31.4402 273.561 30.8202C273.181 30.1902 272.991 29.4752 272.991 28.6752C272.991 27.8652 273.181 27.1502 273.561 26.5302C273.951 25.9002 274.476 25.4102 275.136 25.0602C275.806 24.7002 276.571 24.5202 277.431 24.5202C278.281 24.5202 279.041 24.7002 279.711 25.0602C280.381 25.4102 280.906 25.8952 281.286 26.5152C281.666 27.1352 281.856 27.8552 281.856 28.6752C281.856 29.4752 281.666 30.1902 281.286 30.8202C280.906 31.4402 280.381 31.9302 279.711 32.2902C279.041 32.6502 278.281 32.8302 277.431 32.8302ZM277.431 30.9102C277.821 30.9102 278.171 30.8202 278.481 30.6402C278.791 30.4602 279.036 30.2052 279.216 29.8752C279.396 29.5352 279.486 29.1352 279.486 28.6752C279.486 28.2052 279.396 27.8052 279.216 27.4752C279.036 27.1452 278.791 26.8902 278.481 26.7102C278.171 26.5302 277.821 26.4402 277.431 26.4402C277.041 26.4402 276.691 26.5302 276.381 26.7102C276.071 26.8902 275.821 27.1452 275.631 27.4752C275.451 27.8052 275.361 28.2052 275.361 28.6752C275.361 29.1352 275.451 29.5352 275.631 29.8752C275.821 30.2052 276.071 30.4602 276.381 30.6402C276.691 30.8202 277.041 30.9102 277.431 30.9102ZM283.42 32.7102V24.6402H285.655V26.9202L285.34 26.2602C285.58 25.6902 285.965 25.2602 286.495 24.9702C287.025 24.6702 287.67 24.5202 288.43 24.5202V26.6802C288.33 26.6702 288.24 26.6652 288.16 26.6652C288.08 26.6552 287.995 26.6502 287.905 26.6502C287.265 26.6502 286.745 26.8352 286.345 27.2052C285.955 27.5652 285.76 28.1302 285.76 28.9002V32.7102H283.42ZM293.228 32.8302C292.468 32.8302 291.783 32.6602 291.173 32.3202C290.563 31.9702 290.078 31.4852 289.718 30.8652C289.368 30.2452 289.193 29.5152 289.193 28.6752C289.193 27.8252 289.368 27.0902 289.718 26.4702C290.078 25.8502 290.563 25.3702 291.173 25.0302C291.783 24.6902 292.468 24.5202 293.228 24.5202C293.908 24.5202 294.503 24.6702 295.013 24.9702C295.523 25.2702 295.918 25.7252 296.198 26.3352C296.478 26.9452 296.618 27.7252 296.618 28.6752C296.618 29.6152 296.483 30.3952 296.213 31.0152C295.943 31.6252 295.553 32.0802 295.043 32.3802C294.543 32.6802 293.938 32.8302 293.228 32.8302ZM293.633 30.9102C294.013 30.9102 294.358 30.8202 294.668 30.6402C294.978 30.4602 295.223 30.2052 295.403 29.8752C295.593 29.5352 295.688 29.1352 295.688 28.6752C295.688 28.2052 295.593 27.8052 295.403 27.4752C295.223 27.1452 294.978 26.8902 294.668 26.7102C294.358 26.5302 294.013 26.4402 293.633 26.4402C293.243 26.4402 292.893 26.5302 292.583 26.7102C292.273 26.8902 292.023 27.1452 291.833 27.4752C291.653 27.8052 291.563 28.2052 291.563 28.6752C291.563 29.1352 291.653 29.5352 291.833 29.8752C292.023 30.2052 292.273 30.4602 292.583 30.6402C292.893 30.8202 293.243 30.9102 293.633 30.9102ZM295.748 32.7102V31.0602L295.793 28.6602L295.643 26.2752V21.5802H297.983V32.7102H295.748Z" fill="#211433"/>
<path d="M219.733 273.566C222.058 273.566 223.753 275.186 223.753 277.616C223.753 280.061 222.058 281.681 219.733 281.681C218.608 281.681 217.618 281.246 216.958 280.391V284.501H215.518V273.641H216.898V274.901C217.543 274.016 218.563 273.566 219.733 273.566ZM219.613 280.421C221.143 280.421 222.298 279.311 222.298 277.616C222.298 275.936 221.143 274.826 219.613 274.826C218.098 274.826 216.943 275.936 216.943 277.616C216.943 279.311 218.098 280.421 219.613 280.421ZM227.123 274.976C227.633 274.046 228.623 273.566 230.018 273.566V274.961C229.898 274.946 229.793 274.946 229.688 274.946C228.143 274.946 227.183 275.891 227.183 277.631V281.591H225.743V273.641H227.123V274.976ZM235.124 281.681C232.739 281.681 230.984 279.986 230.984 277.616C230.984 275.246 232.739 273.566 235.124 273.566C237.509 273.566 239.249 275.246 239.249 277.616C239.249 279.986 237.509 281.681 235.124 281.681ZM235.124 280.421C236.654 280.421 237.794 279.311 237.794 277.616C237.794 275.921 236.654 274.826 235.124 274.826C233.594 274.826 232.439 275.921 232.439 277.616C232.439 279.311 233.594 280.421 235.124 280.421ZM244.646 281.681C242.261 281.681 240.506 279.986 240.506 277.616C240.506 275.246 242.261 273.566 244.646 273.566C247.031 273.566 248.771 275.246 248.771 277.616C248.771 279.986 247.031 281.681 244.646 281.681ZM244.646 280.421C246.176 280.421 247.316 279.311 247.316 277.616C247.316 275.921 246.176 274.826 244.646 274.826C243.116 274.826 241.961 275.921 241.961 277.616C241.961 279.311 243.116 280.421 244.646 280.421ZM253.672 271.556C252.817 271.556 252.382 272.036 252.382 272.951V273.641H254.692V274.826H252.412V281.591H250.972V274.826H249.622V273.641H250.972V272.936C250.972 271.391 251.902 270.371 253.597 270.371C254.212 270.371 254.812 270.521 255.217 270.836L254.782 271.931C254.482 271.706 254.092 271.556 253.672 271.556ZM258.33 281.681C257.01 281.681 255.705 281.276 255.045 280.751L255.645 279.611C256.32 280.091 257.4 280.436 258.435 280.436C259.77 280.436 260.325 280.031 260.325 279.356C260.325 277.571 255.3 279.116 255.3 275.951C255.3 274.526 256.575 273.566 258.615 273.566C259.65 273.566 260.82 273.836 261.51 274.286L260.895 275.426C260.175 274.961 259.38 274.796 258.6 274.796C257.34 274.796 256.725 275.261 256.725 275.891C256.725 277.766 261.765 276.236 261.765 279.326C261.765 280.766 260.445 281.681 258.33 281.681ZM263.055 278.096V276.851H267.09V278.096H263.055ZM272.859 281.681C270.474 281.681 268.719 279.986 268.719 277.616C268.719 275.246 270.474 273.566 272.859 273.566C275.244 273.566 276.984 275.246 276.984 277.616C276.984 279.986 275.244 281.681 272.859 281.681ZM272.859 280.421C274.389 280.421 275.529 279.311 275.529 277.616C275.529 275.921 274.389 274.826 272.859 274.826C271.329 274.826 270.174 275.921 270.174 277.616C270.174 279.311 271.329 280.421 272.859 280.421ZM281.885 271.556C281.03 271.556 280.595 272.036 280.595 272.951V273.641H282.905V274.826H280.625V281.591H279.185V274.826H277.835V273.641H279.185V272.936C279.185 271.391 280.115 270.371 281.81 270.371C282.425 270.371 283.025 270.521 283.43 270.836L282.995 271.931C282.695 271.706 282.305 271.556 281.885 271.556ZM283.607 278.096V276.851H287.642V278.096H283.607ZM292.139 281.681C290.819 281.681 289.514 281.276 288.854 280.751L289.454 279.611C290.129 280.091 291.209 280.436 292.244 280.436C293.579 280.436 294.134 280.031 294.134 279.356C294.134 277.571 289.109 279.116 289.109 275.951C289.109 274.526 290.384 273.566 292.424 273.566C293.459 273.566 294.629 273.836 295.319 274.286L294.704 275.426C293.984 274.961 293.189 274.796 292.409 274.796C291.149 274.796 290.534 275.261 290.534 275.891C290.534 277.766 295.574 276.236 295.574 279.326C295.574 280.766 294.254 281.681 292.139 281.681ZM301.589 273.566C303.914 273.566 305.609 275.186 305.609 277.616C305.609 280.061 303.914 281.681 301.589 281.681C300.464 281.681 299.474 281.246 298.814 280.391V284.501H297.374V273.641H298.754V274.901C299.399 274.016 300.419 273.566 301.589 273.566ZM301.469 280.421C302.999 280.421 304.154 279.311 304.154 277.616C304.154 275.936 302.999 274.826 301.469 274.826C299.954 274.826 298.799 275.936 298.799 277.616C298.799 279.311 299.954 280.421 301.469 280.421ZM310.42 273.566C312.595 273.566 313.825 274.616 313.825 276.791V281.591H312.46V280.541C311.98 281.261 311.095 281.681 309.85 281.681C308.05 281.681 306.91 280.721 306.91 279.341C306.91 278.066 307.735 277.016 310.105 277.016H312.385V276.731C312.385 275.516 311.68 274.811 310.255 274.811C309.31 274.811 308.35 275.141 307.735 275.666L307.135 274.586C307.96 273.926 309.145 273.566 310.42 273.566ZM310.09 280.571C311.17 280.571 312.025 280.076 312.385 279.161V278.051H310.165C308.74 278.051 308.335 278.606 308.335 279.281C308.335 280.076 308.995 280.571 310.09 280.571ZM319.999 281.681C317.554 281.681 315.799 279.986 315.799 277.616C315.799 275.246 317.554 273.566 319.999 273.566C321.424 273.566 322.609 274.151 323.239 275.261L322.144 275.966C321.634 275.186 320.854 274.826 319.984 274.826C318.424 274.826 317.254 275.921 317.254 277.616C317.254 279.341 318.424 280.421 319.984 280.421C320.854 280.421 321.634 280.061 322.144 279.281L323.239 279.971C322.609 281.081 321.424 281.681 319.999 281.681ZM332.171 277.661C332.171 277.781 332.156 277.961 332.141 278.096H325.691C325.871 279.491 326.996 280.421 328.571 280.421C329.501 280.421 330.281 280.106 330.866 279.461L331.661 280.391C330.941 281.231 329.846 281.681 328.526 281.681C325.961 281.681 324.251 279.986 324.251 277.616C324.251 275.261 325.946 273.566 328.241 273.566C330.536 273.566 332.171 275.216 332.171 277.661ZM328.241 274.781C326.861 274.781 325.841 275.711 325.691 277.061H330.791C330.641 275.726 329.636 274.781 328.241 274.781Z" fill="#211433"/>
<path d="M245.865 391.333C245.865 391.453 245.85 391.633 245.835 391.768H239.385C239.565 393.163 240.69 394.093 242.265 394.093C243.195 394.093 243.975 393.778 244.56 393.133L245.355 394.063C244.635 394.903 243.54 395.353 242.22 395.353C239.655 395.353 237.945 393.658 237.945 391.288C237.945 388.933 239.64 387.238 241.935 387.238C244.23 387.238 245.865 388.888 245.865 391.333ZM241.935 388.453C240.555 388.453 239.535 389.383 239.385 390.733H244.485C244.335 389.398 243.33 388.453 241.935 388.453ZM252.11 387.238C254.045 387.238 255.41 388.348 255.41 390.688V395.263H253.97V390.853C253.97 389.293 253.19 388.528 251.825 388.528C250.295 388.528 249.305 389.443 249.305 391.168V395.263H247.865V387.313H249.245V388.513C249.83 387.703 250.85 387.238 252.11 387.238ZM261.584 395.353C259.139 395.353 257.384 393.658 257.384 391.288C257.384 388.918 259.139 387.238 261.584 387.238C263.009 387.238 264.194 387.823 264.824 388.933L263.729 389.638C263.219 388.858 262.439 388.498 261.569 388.498C260.009 388.498 258.839 389.593 258.839 391.288C258.839 393.013 260.009 394.093 261.569 394.093C262.439 394.093 263.219 393.733 263.729 392.953L264.824 393.643C264.194 394.753 263.009 395.353 261.584 395.353ZM269.976 395.353C267.591 395.353 265.836 393.658 265.836 391.288C265.836 388.918 267.591 387.238 269.976 387.238C272.361 387.238 274.101 388.918 274.101 391.288C274.101 393.658 272.361 395.353 269.976 395.353ZM269.976 394.093C271.506 394.093 272.646 392.983 272.646 391.288C272.646 389.593 271.506 388.498 269.976 388.498C268.446 388.498 267.291 389.593 267.291 391.288C267.291 392.983 268.446 394.093 269.976 394.093ZM282.152 384.133H283.592V395.263H282.212V394.003C281.567 394.903 280.547 395.353 279.377 395.353C277.052 395.353 275.357 393.718 275.357 391.288C275.357 388.858 277.052 387.238 279.377 387.238C280.502 387.238 281.492 387.658 282.152 388.513V384.133ZM279.497 394.093C281.012 394.093 282.167 392.983 282.167 391.288C282.167 389.593 281.012 388.498 279.497 388.498C277.967 388.498 276.812 389.593 276.812 391.288C276.812 392.983 277.967 394.093 279.497 394.093ZM287.037 385.783C286.482 385.783 286.062 385.378 286.062 384.853C286.062 384.328 286.482 383.908 287.037 383.908C287.592 383.908 288.012 384.313 288.012 384.823C288.012 385.363 287.607 385.783 287.037 385.783ZM286.317 395.263V387.313H287.757V395.263H286.317ZM294.751 387.238C296.686 387.238 298.051 388.348 298.051 390.688V395.263H296.611V390.853C296.611 389.293 295.831 388.528 294.466 388.528C292.936 388.528 291.946 389.443 291.946 391.168V395.263H290.506V387.313H291.886V388.513C292.471 387.703 293.491 387.238 294.751 387.238ZM307 387.313H308.365V394.183C308.365 396.988 306.94 398.263 304.24 398.263C302.785 398.263 301.315 397.858 300.445 397.078L301.135 395.968C301.87 396.598 303.025 397.003 304.195 397.003C306.07 397.003 306.925 396.133 306.925 394.333V393.703C306.235 394.528 305.2 394.933 304.06 394.933C301.765 394.933 300.025 393.373 300.025 391.078C300.025 388.783 301.765 387.238 304.06 387.238C305.245 387.238 306.325 387.673 307 388.543V387.313ZM304.225 393.673C305.815 393.673 306.955 392.608 306.955 391.078C306.955 389.533 305.815 388.498 304.225 388.498C302.62 388.498 301.48 389.533 301.48 391.078C301.48 392.608 302.62 393.673 304.225 393.673Z" fill="#211433"/>
<path d="M296.541 200.729C297.693 200.729 298.64 201.625 298.64 202.853C298.64 204.133 297.693 204.977 296.541 204.977C295.39 204.977 294.443 204.133 294.443 202.853C294.443 201.625 295.39 200.729 296.541 200.729Z" fill="#F4F1F7"/>
<path d="M283.219 200.729C284.371 200.729 285.318 201.625 285.318 202.853C285.318 204.133 284.371 204.977 283.219 204.977C282.068 204.977 281.121 204.133 281.121 202.853C281.121 201.625 282.068 200.729 283.219 200.729Z" fill="#F4F1F7"/>
<path d="M269.898 200.729C271.049 200.729 271.996 201.625 271.996 202.853C271.996 204.133 271.049 204.977 269.898 204.977C268.746 204.977 267.799 204.133 267.799 202.853C267.799 201.625 268.746 200.729 269.898 200.729Z" fill="#F4F1F7"/>
<path d="M517.894 152.978V252.728" stroke="#F4F1F7"/>
<circle cx="517.894" cy="202.853" r="8.7732" transform="rotate(-45 517.894 202.853)" fill="#292929" stroke="#F4F1F7"/>
<path d="M511.403 196.363L524.385 209.344" stroke="#F4F1F7"/>
<path d="M524.467 196.447L511.32 209.26" stroke="#F4F1F7"/>
<path d="M517.894 363.57L520.781 358.57H515.007L517.894 363.57ZM517.394 302.983V359.07H518.394V302.983H517.394Z" fill="#F4F1F7"/>
<path d="M467.34 152.978V252.728" stroke="#F4F1F7"/>
<circle cx="467.34" cy="202.853" r="8.7732" transform="rotate(-45 467.34 202.853)" fill="#292929" stroke="#F4F1F7"/>
<path d="M460.849 196.363L473.831 209.344" stroke="#F4F1F7"/>
<path d="M473.914 196.447L460.766 209.26" stroke="#F4F1F7"/>
<path d="M467.34 363.57L470.227 358.57H464.453L467.34 363.57ZM466.84 302.983V359.07H467.84V302.983H466.84Z" fill="#F4F1F7"/>
<path d="M147.564 152.978V252.728" stroke="#F4F1F7"/>
<circle cx="147.564" cy="202.853" r="8.7732" transform="rotate(-45 147.564 202.853)" fill="#292929" stroke="#F4F1F7"/>
<path d="M141.073 196.363L154.055 209.344" stroke="#F4F1F7"/>
<path d="M154.138 196.447L140.99 209.26" stroke="#F4F1F7"/>
<path d="M144.872 363.57L147.759 358.57H141.985L144.872 363.57ZM144.372 302.983V359.07H145.372V302.983H144.372Z" fill="#F4F1F7"/>
<path d="M33.2943 152.978V252.728" stroke="#F4F1F7"/>
<circle cx="33.2943" cy="202.853" r="8.7732" transform="rotate(-90 33.2943 202.853)" fill="#292929" stroke="#F4F1F7"/>
<path d="M26.8036 196.363L39.785 209.344" stroke="#F4F1F7"/>
<path d="M39.8677 196.447L26.7206 209.26" stroke="#F4F1F7"/>
<path d="M34.4908 363.57L37.3776 358.57H31.6041L34.4908 363.57ZM33.9908 302.983V359.07H34.9908V302.983H33.9908Z" fill="#F4F1F7"/>
<path d="M412 152.978V252.728" stroke="#F4F1F7"/>
<circle cx="412" cy="202.853" r="8.7732" transform="rotate(-45 412 202.853)" fill="#292929" stroke="#F4F1F7"/>
<path d="M405.509 196.363L418.491 209.344" stroke="#F4F1F7"/>
<path d="M418.573 196.447L405.426 209.26" stroke="#F4F1F7"/>
<path d="M412 363.57L414.887 358.57H409.113L412 363.57ZM411.5 302.983V359.07H412.5V302.983H411.5Z" fill="#F4F1F7"/>
<path d="M273.65 99.1338L276.537 94.1338H270.763L273.65 99.1338ZM273.15 52.9056V94.6338H274.15V52.9056H273.15Z" fill="#83BB46"/>
<path d="M87.4378 152.978V252.728" stroke="#F4F1F7"/>
<circle cx="87.4378" cy="202.853" r="8.7732" transform="rotate(-45 87.4378 202.853)" fill="#292929" stroke="#F4F1F7"/>
<path d="M80.9471 196.363L93.9285 209.344" stroke="#F4F1F7"/>
<path d="M94.0113 196.447L80.8641 209.26" stroke="#F4F1F7"/>
<path d="M87.4378 363.57L90.3246 358.57H84.5511L87.4378 363.57ZM86.9378 302.983V359.07H87.9378V302.983H86.9378Z" fill="#F4F1F7"/>
</svg>
