<svg width="505" height="444" viewBox="0 0 505 444" fill="none" xmlns="http://www.w3.org/2000/svg">
<path d="M500.184 442.537L194.184 442.537C192.251 442.537 190.684 440.97 190.684 439.037L190.684 4.96286C190.684 3.02985 192.251 1.46283 194.184 1.46283L500.184 1.46286C502.117 1.46286 503.684 3.02988 503.684 4.96286L503.684 439.037C503.684 440.97 502.117 442.537 500.184 442.537Z" fill="#CDE6B2" stroke="#211433"/>
<path d="M340.892 52.1732C343.622 52.1732 345.272 53.5532 345.272 55.8332C345.272 58.1132 343.622 59.4932 340.892 59.4932H338.297V62.6732H336.797V52.1732H340.892ZM340.847 58.1882C342.767 58.1882 343.772 57.3332 343.772 55.8332C343.772 54.3332 342.767 53.4782 340.847 53.4782H338.297V58.1882H340.847ZM350.642 62.7632C348.257 62.7632 346.502 61.0682 346.502 58.6982C346.502 56.3282 348.257 54.6482 350.642 54.6482C353.027 54.6482 354.767 56.3282 354.767 58.6982C354.767 61.0682 353.027 62.7632 350.642 62.7632ZM350.642 61.5032C352.172 61.5032 353.312 60.3932 353.312 58.6982C353.312 57.0032 352.172 55.9082 350.642 55.9082C349.112 55.9082 347.957 57.0032 347.957 58.6982C347.957 60.3932 349.112 61.5032 350.642 61.5032ZM360.028 62.7932C358.423 62.7932 356.848 62.2532 356.008 61.4732L356.563 60.3032C357.343 61.0082 358.678 61.5182 360.028 61.5182C361.843 61.5182 362.623 60.8132 362.623 59.8982C362.623 57.3332 356.263 58.9532 356.263 55.0532C356.263 53.4332 357.523 52.0532 360.283 52.0532C361.513 52.0532 362.788 52.3832 363.658 52.9832L363.163 54.1832C362.248 53.5982 361.213 53.3282 360.283 53.3282C358.498 53.3282 357.733 54.0782 357.733 54.9932C357.733 57.5582 364.093 55.9532 364.093 59.8082C364.093 61.4132 362.803 62.7932 360.028 62.7932ZM372.398 62.6732V53.4782H368.798V52.1732H377.483V53.4782H373.883V62.6732H372.398ZM381.377 54.6482C383.552 54.6482 384.782 55.6982 384.782 57.8732V62.6732H383.417V61.6232C382.937 62.3432 382.052 62.7632 380.807 62.7632C379.007 62.7632 377.867 61.8032 377.867 60.4232C377.867 59.1482 378.692 58.0982 381.062 58.0982H383.342V57.8132C383.342 56.5982 382.637 55.8932 381.212 55.8932C380.267 55.8932 379.307 56.2232 378.692 56.7482L378.092 55.6682C378.917 55.0082 380.102 54.6482 381.377 54.6482ZM381.047 61.6532C382.127 61.6532 382.982 61.1582 383.342 60.2432V59.1332H381.122C379.697 59.1332 379.292 59.6882 379.292 60.3632C379.292 61.1582 379.952 61.6532 381.047 61.6532ZM391.662 54.6482C393.987 54.6482 395.682 56.2682 395.682 58.6982C395.682 61.1282 393.987 62.7632 391.662 62.7632C390.492 62.7632 389.472 62.3132 388.827 61.4132V62.6732H387.447V51.5432H388.887V55.9232C389.547 55.0682 390.537 54.6482 391.662 54.6482ZM391.542 61.5032C393.072 61.5032 394.227 60.3932 394.227 58.6982C394.227 57.0032 393.072 55.9082 391.542 55.9082C390.027 55.9082 388.872 57.0032 388.872 58.6982C388.872 60.3932 390.027 61.5032 391.542 61.5032ZM397.671 62.6732V51.5432H399.111V62.6732H397.671ZM409.046 58.7432C409.046 58.8632 409.031 59.0432 409.016 59.1782H402.566C402.746 60.5732 403.871 61.5032 405.446 61.5032C406.376 61.5032 407.156 61.1882 407.741 60.5432L408.536 61.4732C407.816 62.3132 406.721 62.7632 405.401 62.7632C402.836 62.7632 401.126 61.0682 401.126 58.6982C401.126 56.3432 402.821 54.6482 405.116 54.6482C407.411 54.6482 409.046 56.2982 409.046 58.7432ZM405.116 55.8632C403.736 55.8632 402.716 56.7932 402.566 58.1432H407.666C407.516 56.8082 406.511 55.8632 405.116 55.8632Z" fill="#211433"/>
<circle cx="293.684" cy="57.4421" r="22.875" fill="#A2CA77" stroke="#211433"/>
<path d="M286.966 45.0426L286.966 45.0422C288.307 42.2119 289.834 40.2632 290.06 39.9759C290.066 39.9674 290.072 39.9603 290.076 39.9547L290.233 39.7612L290.472 39.8707C290.474 39.8718 290.477 39.873 290.48 39.8744C290.695 39.9776 293.014 41.0854 295.577 43.1018C299.102 45.8887 301.339 49.0585 302.106 52.2567C302.865 55.4551 302.305 59.2618 300.406 63.268L300.406 63.2681C299.065 66.0983 297.538 68.0471 297.313 68.3344C297.306 68.3429 297.301 68.3499 297.296 68.3555L297.139 68.549L296.896 68.4377L296.896 68.4377L296.893 68.4359L296.892 68.4358L296.892 68.4355L296.889 68.4345L296.881 68.4308L296.854 68.4182C296.832 68.4076 296.801 68.3928 296.762 68.3738C296.683 68.3357 296.573 68.281 296.435 68.2098C296.158 68.0674 295.769 67.8595 295.301 67.5878C294.363 67.0439 293.11 66.2464 291.796 65.209C288.27 62.4218 286.034 59.2517 285.266 56.0532C284.499 52.8556 285.059 49.0573 286.966 45.0426Z" fill="#A2CA77" stroke="#211433"/>
<path d="M290.164 39.7954C296.349 50.6956 298.571 63.739 296.283 75.7389" stroke="#211433" stroke-linecap="round" stroke-linejoin="round"/>
<path d="M463.684 407.612L230.684 407.612C228.751 407.612 227.184 406.045 227.184 404.112L227.184 108.112C227.184 106.179 228.751 104.612 230.684 104.612L463.684 104.612C465.617 104.612 467.184 106.179 467.184 108.112L467.184 404.112C467.184 406.045 465.617 407.612 463.684 407.612Z" fill="#F4F1F7" stroke="#211433"/>
<path d="M226.809 163.112H467.559" stroke="black"/>
<path d="M226.809 225.112H467.559" stroke="black"/>
<path d="M327.184 104.737L327.184 407.112" stroke="black"/>
<path d="M226.809 287.112H467.559" stroke="black"/>
<path d="M226.809 349.112H467.559" stroke="black"/>
<path d="M280.047 140.331H278.427L275.087 135.931L271.727 140.331H270.127L274.287 134.931L270.327 129.811H271.927L275.087 133.931L278.247 129.811H279.807L275.847 134.931L280.047 140.331Z" fill="#211433"/>
<path d="M286.373 138.531H289.691V148.331H288.683V139.427H286.373V138.531Z" fill="#211433"/>
<path d="M280.047 202.331H278.427L275.087 197.931L271.727 202.331H270.127L274.287 196.931L270.327 191.811H271.927L275.087 195.931L278.247 191.811H279.807L275.847 196.931L280.047 202.331Z" fill="#211433"/>
<path d="M288.277 209.435H293.667V210.331H286.793V209.617L290.867 205.627C291.973 204.535 292.183 203.877 292.183 203.205C292.183 202.071 291.385 201.371 289.887 201.371C288.739 201.371 287.857 201.721 287.213 202.463L286.499 201.847C287.255 200.951 288.473 200.447 289.971 200.447C291.959 200.447 293.219 201.455 293.219 203.093C293.219 204.031 292.925 204.871 291.609 206.159L288.277 209.435Z" fill="#211433"/>
<path d="M270.117 262.431C269.537 262.431 269.057 261.951 269.057 261.331C269.057 260.711 269.537 260.251 270.117 260.251C270.697 260.251 271.197 260.711 271.197 261.331C271.197 261.951 270.697 262.431 270.117 262.431ZM279.59 262.431C279.01 262.431 278.53 261.951 278.53 261.331C278.53 260.711 279.01 260.251 279.59 260.251C280.17 260.251 280.67 260.711 280.67 261.331C280.67 261.951 280.17 262.431 279.59 262.431ZM289.062 262.431C288.482 262.431 288.002 261.951 288.002 261.331C288.002 260.711 288.482 260.251 289.062 260.251C289.642 260.251 290.142 260.711 290.142 261.331C290.142 261.951 289.642 262.431 289.062 262.431Z" fill="#211433"/>
<path d="M383.867 262.431C383.287 262.431 382.807 261.951 382.807 261.331C382.807 260.711 383.287 260.251 383.867 260.251C384.447 260.251 384.947 260.711 384.947 261.331C384.947 261.951 384.447 262.431 383.867 262.431ZM393.34 262.431C392.76 262.431 392.28 261.951 392.28 261.331C392.28 260.711 392.76 260.251 393.34 260.251C393.92 260.251 394.42 260.711 394.42 261.331C394.42 261.951 393.92 262.431 393.34 262.431ZM402.812 262.431C402.232 262.431 401.752 261.951 401.752 261.331C401.752 260.711 402.232 260.251 402.812 260.251C403.392 260.251 403.892 260.711 403.892 261.331C403.892 261.951 403.392 262.431 402.812 262.431Z" fill="#211433"/>
<path d="M270.117 382.431C269.537 382.431 269.057 381.951 269.057 381.331C269.057 380.711 269.537 380.251 270.117 380.251C270.697 380.251 271.197 380.711 271.197 381.331C271.197 381.951 270.697 382.431 270.117 382.431ZM279.59 382.431C279.01 382.431 278.53 381.951 278.53 381.331C278.53 380.711 279.01 380.251 279.59 380.251C280.17 380.251 280.67 380.711 280.67 381.331C280.67 381.951 280.17 382.431 279.59 382.431ZM289.062 382.431C288.482 382.431 288.002 381.951 288.002 381.331C288.002 380.711 288.482 380.251 289.062 380.251C289.642 380.251 290.142 380.711 290.142 381.331C290.142 381.951 289.642 382.431 289.062 382.431Z" fill="#211433"/>
<path d="M383.867 382.431C383.287 382.431 382.807 381.951 382.807 381.331C382.807 380.711 383.287 380.251 383.867 380.251C384.447 380.251 384.947 380.711 384.947 381.331C384.947 381.951 384.447 382.431 383.867 382.431ZM393.34 382.431C392.76 382.431 392.28 381.951 392.28 381.331C392.28 380.711 392.76 380.251 393.34 380.251C393.92 380.251 394.42 380.711 394.42 381.331C394.42 381.951 393.92 382.431 393.34 382.431ZM402.812 382.431C402.232 382.431 401.752 381.951 401.752 381.331C401.752 380.711 402.232 380.251 402.812 380.251C403.392 380.251 403.892 380.711 403.892 381.331C403.892 381.951 403.392 382.431 402.812 382.431Z" fill="#211433"/>
<path d="M280.047 324.081H278.427L275.087 319.681L271.727 324.081H270.127L274.287 318.681L270.327 313.561H271.927L275.087 317.681L278.247 313.561H279.807L275.847 318.681L280.047 324.081Z" fill="#211433"/>
<path d="M288.137 323.107C287.731 323.107 287.409 322.785 287.409 322.393C287.409 322.015 287.731 321.693 288.137 321.693C288.543 321.693 288.865 322.001 288.865 322.379C288.865 322.785 288.557 323.107 288.137 323.107ZM287.633 332.081V324.717H288.627V332.081H287.633Z" fill="#211433"/>
<path d="M353.957 128.091C352.737 128.091 352.097 128.771 352.097 130.071V131.311H355.337V132.511H352.137V141.831H350.717V132.511H348.837V131.311H350.717V130.011C350.717 128.131 351.837 126.891 353.897 126.891C354.677 126.891 355.477 127.111 355.997 127.551L355.517 128.611C355.117 128.271 354.557 128.091 353.957 128.091ZM359.674 145.711C358.194 143.291 357.354 140.031 357.354 136.351C357.354 132.671 358.194 129.371 359.674 126.991H361.034C359.454 129.731 358.754 132.791 358.754 136.351C358.754 139.911 359.454 142.971 361.034 145.711H359.674ZM366.656 141.931C364.916 141.931 363.236 141.371 362.376 140.631L363.016 139.511C363.856 140.171 365.276 140.691 366.756 140.691C368.756 140.691 369.576 140.011 369.576 138.971C369.576 136.231 362.756 138.391 362.756 134.231C362.756 132.511 364.236 131.231 366.916 131.231C368.276 131.231 369.756 131.611 370.636 132.211L370.016 133.351C369.096 132.711 367.996 132.451 366.916 132.451C365.016 132.451 364.176 133.191 364.176 134.191C364.176 137.031 370.996 134.891 370.996 138.931C370.996 140.751 369.396 141.931 366.656 141.931ZM382.802 136.571C382.802 136.691 382.782 136.851 382.782 137.011H373.982C374.142 139.211 375.822 140.671 378.122 140.671C379.402 140.671 380.542 140.211 381.342 139.291L382.142 140.211C381.202 141.331 379.742 141.931 378.082 141.931C374.802 141.931 372.562 139.691 372.562 136.571C372.562 133.451 374.742 131.231 377.702 131.231C380.662 131.231 382.802 133.411 382.802 136.571ZM377.702 132.451C375.662 132.451 374.162 133.891 373.982 135.951H381.442C381.262 133.891 379.762 132.451 377.702 132.451ZM394.872 136.571C394.872 136.691 394.852 136.851 394.852 137.011H386.052C386.212 139.211 387.892 140.671 390.192 140.671C391.472 140.671 392.612 140.211 393.412 139.291L394.212 140.211C393.272 141.331 391.812 141.931 390.152 141.931C386.872 141.931 384.632 139.691 384.632 136.571C384.632 133.451 386.812 131.231 389.772 131.231C392.732 131.231 394.872 133.411 394.872 136.571ZM389.772 132.451C387.732 132.451 386.232 133.891 386.052 135.951H393.512C393.332 133.891 391.832 132.451 389.772 132.451ZM405.942 126.991H407.362V141.831H406.002V139.751C405.142 141.171 403.682 141.931 401.942 141.931C398.942 141.931 396.702 139.751 396.702 136.571C396.702 133.391 398.942 131.231 401.942 131.231C403.622 131.231 405.062 131.951 405.942 133.311V126.991ZM402.062 140.671C404.282 140.671 405.962 139.031 405.962 136.571C405.962 134.111 404.282 132.471 402.062 132.471C399.822 132.471 398.142 134.111 398.142 136.571C398.142 139.031 399.822 140.671 402.062 140.671ZM411.477 139.751C412.097 139.751 412.537 140.231 412.537 140.831C412.537 141.171 412.457 141.431 412.257 141.991L411.417 144.751H410.457L411.137 141.851C410.717 141.731 410.417 141.351 410.417 140.831C410.417 140.211 410.877 139.751 411.477 139.751ZM429.11 141.831H427.49L424.15 137.431L420.79 141.831H419.19L423.35 136.431L419.39 131.311H420.99L424.15 135.431L427.31 131.311H428.87L424.91 136.431L429.11 141.831ZM442.122 145.711H440.762C442.362 142.971 443.062 139.911 443.062 136.351C443.062 132.791 442.362 129.731 440.762 126.991H442.122C443.622 129.371 444.462 132.671 444.462 136.351C444.462 140.031 443.622 143.291 442.122 145.711Z" fill="#211433"/>
<path d="M433.123 137.031H436.441V146.831H435.433V137.927H433.123V137.031Z" fill="#211433"/>
<path d="M353.957 188.591C352.737 188.591 352.097 189.271 352.097 190.571V191.811H355.337V193.011H352.137V202.331H350.717V193.011H348.837V191.811H350.717V190.511C350.717 188.631 351.837 187.391 353.897 187.391C354.677 187.391 355.477 187.611 355.997 188.051L355.517 189.111C355.117 188.771 354.557 188.591 353.957 188.591ZM359.674 206.211C358.194 203.791 357.354 200.531 357.354 196.851C357.354 193.171 358.194 189.871 359.674 187.491H361.034C359.454 190.231 358.754 193.291 358.754 196.851C358.754 200.411 359.454 203.471 361.034 206.211H359.674ZM366.656 202.431C364.916 202.431 363.236 201.871 362.376 201.131L363.016 200.011C363.856 200.671 365.276 201.191 366.756 201.191C368.756 201.191 369.576 200.511 369.576 199.471C369.576 196.731 362.756 198.891 362.756 194.731C362.756 193.011 364.236 191.731 366.916 191.731C368.276 191.731 369.756 192.111 370.636 192.711L370.016 193.851C369.096 193.211 367.996 192.951 366.916 192.951C365.016 192.951 364.176 193.691 364.176 194.691C364.176 197.531 370.996 195.391 370.996 199.431C370.996 201.251 369.396 202.431 366.656 202.431ZM382.802 197.071C382.802 197.191 382.782 197.351 382.782 197.511H373.982C374.142 199.711 375.822 201.171 378.122 201.171C379.402 201.171 380.542 200.711 381.342 199.791L382.142 200.711C381.202 201.831 379.742 202.431 378.082 202.431C374.802 202.431 372.562 200.191 372.562 197.071C372.562 193.951 374.742 191.731 377.702 191.731C380.662 191.731 382.802 193.911 382.802 197.071ZM377.702 192.951C375.662 192.951 374.162 194.391 373.982 196.451H381.442C381.262 194.391 379.762 192.951 377.702 192.951ZM394.872 197.071C394.872 197.191 394.852 197.351 394.852 197.511H386.052C386.212 199.711 387.892 201.171 390.192 201.171C391.472 201.171 392.612 200.711 393.412 199.791L394.212 200.711C393.272 201.831 391.812 202.431 390.152 202.431C386.872 202.431 384.632 200.191 384.632 197.071C384.632 193.951 386.812 191.731 389.772 191.731C392.732 191.731 394.872 193.911 394.872 197.071ZM389.772 192.951C387.732 192.951 386.232 194.391 386.052 196.451H393.512C393.332 194.391 391.832 192.951 389.772 192.951ZM405.942 187.491H407.362V202.331H406.002V200.251C405.142 201.671 403.682 202.431 401.942 202.431C398.942 202.431 396.702 200.251 396.702 197.071C396.702 193.891 398.942 191.731 401.942 191.731C403.622 191.731 405.062 192.451 405.942 193.811V187.491ZM402.062 201.171C404.282 201.171 405.962 199.531 405.962 197.071C405.962 194.611 404.282 192.971 402.062 192.971C399.822 192.971 398.142 194.611 398.142 197.071C398.142 199.531 399.822 201.171 402.062 201.171ZM411.477 200.251C412.097 200.251 412.537 200.731 412.537 201.331C412.537 201.671 412.457 201.931 412.257 202.491L411.417 205.251H410.457L411.137 202.351C410.717 202.231 410.417 201.851 410.417 201.331C410.417 200.711 410.877 200.251 411.477 200.251ZM429.11 202.331H427.49L424.15 197.931L420.79 202.331H419.19L423.35 196.931L419.39 191.811H420.99L424.15 195.931L427.31 191.811H428.87L424.91 196.931L429.11 202.331ZM442.122 206.211H440.762C442.362 203.471 443.062 200.411 443.062 196.851C443.062 193.291 442.362 190.231 440.762 187.491H442.122C443.622 189.871 444.462 193.171 444.462 196.851C444.462 200.531 443.622 203.791 442.122 206.211Z" fill="#211433"/>
<path d="M432.027 206.435H437.417V207.331H430.543V206.617L434.617 202.627C435.723 201.535 435.933 200.877 435.933 200.205C435.933 199.071 435.135 198.371 433.637 198.371C432.489 198.371 431.607 198.721 430.963 199.463L430.249 198.847C431.005 197.951 432.223 197.447 433.721 197.447C435.709 197.447 436.969 198.455 436.969 200.093C436.969 201.031 436.675 201.871 435.359 203.159L432.027 206.435Z" fill="#211433"/>
<path d="M353.957 311.841C352.737 311.841 352.097 312.521 352.097 313.821V315.061H355.337V316.261H352.137V325.581H350.717V316.261H348.837V315.061H350.717V313.761C350.717 311.881 351.837 310.641 353.897 310.641C354.677 310.641 355.477 310.861 355.997 311.301L355.517 312.361C355.117 312.021 354.557 311.841 353.957 311.841ZM359.674 329.461C358.194 327.041 357.354 323.781 357.354 320.101C357.354 316.421 358.194 313.121 359.674 310.741H361.034C359.454 313.481 358.754 316.541 358.754 320.101C358.754 323.661 359.454 326.721 361.034 329.461H359.674ZM366.656 325.681C364.916 325.681 363.236 325.121 362.376 324.381L363.016 323.261C363.856 323.921 365.276 324.441 366.756 324.441C368.756 324.441 369.576 323.761 369.576 322.721C369.576 319.981 362.756 322.141 362.756 317.981C362.756 316.261 364.236 314.981 366.916 314.981C368.276 314.981 369.756 315.361 370.636 315.961L370.016 317.101C369.096 316.461 367.996 316.201 366.916 316.201C365.016 316.201 364.176 316.941 364.176 317.941C364.176 320.781 370.996 318.641 370.996 322.681C370.996 324.501 369.396 325.681 366.656 325.681ZM382.802 320.321C382.802 320.441 382.782 320.601 382.782 320.761H373.982C374.142 322.961 375.822 324.421 378.122 324.421C379.402 324.421 380.542 323.961 381.342 323.041L382.142 323.961C381.202 325.081 379.742 325.681 378.082 325.681C374.802 325.681 372.562 323.441 372.562 320.321C372.562 317.201 374.742 314.981 377.702 314.981C380.662 314.981 382.802 317.161 382.802 320.321ZM377.702 316.201C375.662 316.201 374.162 317.641 373.982 319.701H381.442C381.262 317.641 379.762 316.201 377.702 316.201ZM394.872 320.321C394.872 320.441 394.852 320.601 394.852 320.761H386.052C386.212 322.961 387.892 324.421 390.192 324.421C391.472 324.421 392.612 323.961 393.412 323.041L394.212 323.961C393.272 325.081 391.812 325.681 390.152 325.681C386.872 325.681 384.632 323.441 384.632 320.321C384.632 317.201 386.812 314.981 389.772 314.981C392.732 314.981 394.872 317.161 394.872 320.321ZM389.772 316.201C387.732 316.201 386.232 317.641 386.052 319.701H393.512C393.332 317.641 391.832 316.201 389.772 316.201ZM405.942 310.741H407.362V325.581H406.002V323.501C405.142 324.921 403.682 325.681 401.942 325.681C398.942 325.681 396.702 323.501 396.702 320.321C396.702 317.141 398.942 314.981 401.942 314.981C403.622 314.981 405.062 315.701 405.942 317.061V310.741ZM402.062 324.421C404.282 324.421 405.962 322.781 405.962 320.321C405.962 317.861 404.282 316.221 402.062 316.221C399.822 316.221 398.142 317.861 398.142 320.321C398.142 322.781 399.822 324.421 402.062 324.421ZM411.477 323.501C412.097 323.501 412.537 323.981 412.537 324.581C412.537 324.921 412.457 325.181 412.257 325.741L411.417 328.501H410.457L411.137 325.601C410.717 325.481 410.417 325.101 410.417 324.581C410.417 323.961 410.877 323.501 411.477 323.501ZM429.11 325.581H427.49L424.15 321.181L420.79 325.581H419.19L423.35 320.181L419.39 315.061H420.99L424.15 319.181L427.31 315.061H428.87L424.91 320.181L429.11 325.581ZM442.122 329.461H440.762C442.362 326.721 443.062 323.661 443.062 320.101C443.062 316.541 442.362 313.481 440.762 310.741H442.122C443.622 313.121 444.462 316.421 444.462 320.101C444.462 323.781 443.622 327.041 442.122 329.461Z" fill="#211433"/>
<path d="M432.887 321.607C432.481 321.607 432.159 321.285 432.159 320.893C432.159 320.515 432.481 320.193 432.887 320.193C433.293 320.193 433.615 320.501 433.615 320.879C433.615 321.285 433.307 321.607 432.887 321.607ZM432.383 330.581V323.217H433.377V330.581H432.383Z" fill="#211433"/>
<path d="M16.3572 298.669C14.7522 298.669 13.1772 298.129 12.3372 297.349L12.8922 296.179C13.6722 296.884 15.0072 297.394 16.3572 297.394C18.1722 297.394 18.9522 296.689 18.9522 295.774C18.9522 293.209 12.5922 294.829 12.5922 290.929C12.5922 289.309 13.8522 287.929 16.6122 287.929C17.8422 287.929 19.1172 288.259 19.9872 288.859L19.4922 290.059C18.5772 289.474 17.5422 289.204 16.6122 289.204C14.8272 289.204 14.0622 289.954 14.0622 290.869C14.0622 293.434 20.4222 291.829 20.4222 295.684C20.4222 297.289 19.1322 298.669 16.3572 298.669ZM29.5886 294.619C29.5886 294.739 29.5736 294.919 29.5586 295.054H23.1086C23.2886 296.449 24.4136 297.379 25.9886 297.379C26.9186 297.379 27.6986 297.064 28.2836 296.419L29.0786 297.349C28.3586 298.189 27.2636 298.639 25.9436 298.639C23.3786 298.639 21.6686 296.944 21.6686 294.574C21.6686 292.219 23.3636 290.524 25.6586 290.524C27.9536 290.524 29.5886 292.174 29.5886 294.619ZM25.6586 291.739C24.2786 291.739 23.2586 292.669 23.1086 294.019H28.2086C28.0586 292.684 27.0536 291.739 25.6586 291.739ZM38.7731 294.619C38.7731 294.739 38.7581 294.919 38.7431 295.054H32.2931C32.4731 296.449 33.5981 297.379 35.1731 297.379C36.1031 297.379 36.8831 297.064 37.4681 296.419L38.2631 297.349C37.5431 298.189 36.4481 298.639 35.1281 298.639C32.5631 298.639 30.8531 296.944 30.8531 294.574C30.8531 292.219 32.5481 290.524 34.8431 290.524C37.1381 290.524 38.7731 292.174 38.7731 294.619ZM34.8431 291.739C33.4631 291.739 32.4431 292.669 32.2931 294.019H37.3931C37.2431 292.684 36.2381 291.739 34.8431 291.739ZM46.8327 287.419H48.2727V298.549H46.8927V297.289C46.2477 298.189 45.2277 298.639 44.0577 298.639C41.7327 298.639 40.0377 297.004 40.0377 294.574C40.0377 292.144 41.7327 290.524 44.0577 290.524C45.1827 290.524 46.1727 290.944 46.8327 291.799V287.419ZM44.1777 297.379C45.6927 297.379 46.8477 296.269 46.8477 294.574C46.8477 292.879 45.6927 291.784 44.1777 291.784C42.6477 291.784 41.4927 292.879 41.4927 294.574C41.4927 296.269 42.6477 297.379 44.1777 297.379Z" fill="#F4F1F7"/>
<path d="M27.8387 267.862C14.5463 267.324 0.588745 258.612 0.838733 246.237C0.454171 240.736 5.21969 237.166 5.21969 237.166C11.8387 232.237 24.6207 229.632 36.59 232.657C48.5593 235.681 57.8583 245.854 62.3398 252.104C64.4685 255.055 63.5348 258.574 60.2298 260.169C53.2461 263.523 41.5463 268.574 27.8387 267.862Z" fill="#D8D0E4" stroke="white" stroke-linecap="round" stroke-linejoin="round"/>
<path d="M37.1732 181.783L37.1732 181.783C37.0362 188.917 33.3658 195.262 29.6029 199.913C25.8459 204.556 22.0442 207.452 21.7438 207.677L20.8819 208.322L20.0475 207.637L20.0457 207.636L20.0455 207.635C19.7451 207.387 16.077 204.349 12.5179 199.574C8.94478 194.78 5.5267 188.295 5.66365 181.161C5.8006 174.027 9.47099 167.682 13.234 163.031C16.9896 158.39 20.79 155.495 21.0927 155.267C21.0928 155.267 21.0929 155.267 21.093 155.267L21.9549 154.623L22.7894 155.307L22.7911 155.309L22.7952 155.312C23.1223 155.583 26.7794 158.611 30.3261 163.364C33.9013 168.156 37.3193 174.64 37.1732 181.783Z" fill="#83BB46" stroke="white"/>
<path d="M23.5653 213.534L23.5646 213.533L22.9306 212.686L23.6319 211.891C23.632 211.891 23.6321 211.891 23.6321 211.891C23.8059 211.695 26.1236 209.125 29.7603 206.607C33.4051 204.084 38.3227 201.649 43.7043 201.649H43.7058H43.7074H43.7089H43.7104H43.712H43.7135H43.715H43.7166H43.7181H43.7197H43.7212H43.7227H43.7243H43.7258H43.7273H43.7289H43.7304H43.732H43.7335H43.735H43.7366H43.7381H43.7397H43.7412H43.7427H43.7443H43.7458H43.7474H43.7489H43.7505H43.752H43.7535H43.7551H43.7566H43.7582H43.7597H43.7613H43.7628H43.7644H43.7659H43.7675H43.769H43.7706H43.7721H43.7737H43.7752H43.7768H43.7783H43.7799H43.7814H43.783H43.7845H43.7861H43.7876H43.7892H43.7907H43.7923H43.7938H43.7954H43.7969H43.7985H43.8H43.8016H43.8031H43.8047H43.8063H43.8078H43.8094H43.8109H43.8125H43.814H43.8156H43.8172H43.8187H43.8203H43.8218H43.8234H43.825H43.8265H43.8281H43.8296H43.8312H43.8328H43.8343H43.8359H43.8374H43.839H43.8406H43.8421H43.8437H43.8453H43.8468H43.8484H43.85H43.8515H43.8531H43.8547H43.8562H43.8578H43.8593H43.8609H43.8625H43.864H43.8656H43.8672H43.8687H43.8703H43.8719H43.8735H43.875H43.8766H43.8782H43.8797H43.8813H43.8829H43.8844H43.886H43.8876H43.8892H43.8907H43.8923H43.8939H43.8954H43.897H43.8986H43.9002H43.9017H43.9033H43.9049H43.9064H43.908H43.9096H43.9112H43.9127H43.9143H43.9159H43.9175H43.919H43.9206H43.9222H43.9238H43.9253H43.9269H43.9285H43.9301H43.9316H43.9332H43.9348H43.9364H43.9379H43.9395H43.9411H43.9427H43.9443H43.9458H43.9474H43.949H43.9506H43.9521H43.9537H43.9553H43.9569H43.9585H43.96H43.9616H43.9632H43.9648H43.9664H43.9679H43.9695H43.9711H43.9727H43.9743H43.9758H43.9774H43.979H43.9806H43.9822H43.9837H43.9853H43.9869H43.9885H43.9901H43.9917H43.9932H43.9948H43.9964H43.998H43.9996H44.0012H44.0027H44.0043H44.0059H44.0075H44.0091H44.0107H44.0122H44.0138H44.0154H44.017H44.0186H44.0202H44.0217H44.0233H44.0249H44.0265H44.0281H44.0297H44.0312H44.0328H44.0344H44.036H44.0376H44.0392H44.0408H44.0423H44.0439H44.0455H44.0471H44.0487H44.0503H44.0519H44.0534H44.055H44.0566H44.0582H44.0598H44.0614H44.063H44.0645H44.0661H44.0677H44.0693H44.0709H44.0725H44.0741H44.0756H44.0772H44.0788H44.0804H44.082H44.0836H44.0852H44.0867H44.0883H44.0899H44.0915H44.0931H44.0947H44.0963H44.0978H44.0994H44.101H44.1026H44.1042H44.1058H44.1074H44.109H44.1105H44.1121H44.1137H44.1153H44.1169H44.1185H44.1201H44.1216H44.1232H44.1248H44.1264H44.128H44.1296H44.1312H44.1327H44.1343H44.1359H44.1375H44.1391H44.1407H44.1423H44.1439H44.1454H44.147H44.1486H44.1502H44.1518H44.1534H44.155H44.1565H44.1581H44.1597H44.1613H44.1629H44.1645H44.1661H44.1676H44.1692H44.1708H44.1724H44.174H44.1756H44.1771H44.1787H44.1803H44.1819H44.1835H44.1851H44.1867H44.1882H44.1898H44.1914H44.193H44.1946H44.1962H44.1977H44.1993H44.2009H44.2025H44.2041H44.2057H44.2072H44.2088H44.2104H44.212H44.2136H44.2152H44.2167H44.2183H44.2199H44.2215H44.2231H44.2246H44.2262H44.2278H44.2294H44.231H44.2326H44.2341H44.2357H44.2373H44.2389H44.2405H44.242H44.2436H44.2452H44.2468H44.2484H44.2499H44.2515H44.2531H44.2547H44.2563H44.2578H44.2594H44.261H44.2626H44.2641H44.2657H44.2673H44.2689H44.2705H44.272H44.2736H44.2752H44.2768H44.2783H44.2799H44.2815H44.2831H44.2846H44.2862H44.2878H44.2894H44.291H44.2925H44.2941H44.2957H44.2973H44.2988H44.3004H44.302H44.3035H44.3051H44.3067H44.3083H44.3098H44.3114H44.313H44.3146H44.3161H44.3177H44.3193H44.3208H44.3224H44.324H44.3256H44.3271H44.3287H44.3303H44.3318H44.3334H44.335H44.3365H44.3381H44.3397H44.3412H44.3428H44.3444H44.3459H44.3475H44.3491H44.3506H44.3522H44.3538H44.3553H44.3569H44.3585H44.36H44.3616H44.3632H44.3647H44.3663H44.3679H44.3694H44.371H44.3725H44.3741H44.3757H44.3772H44.3788H44.3804H44.3819H44.3835H44.385H44.3866H44.3882H44.3897H44.3913H44.3928H44.3944H44.396H44.3975H44.3991H44.4006H44.4022H44.4037H44.4053H44.4069H44.4084H44.41H44.4115H44.4131H44.4146H44.4162H44.4177H44.4193H44.4208H44.4224H44.424H44.4255H44.4271H44.4286H44.4302H44.4317H44.4333H44.4348H44.4364H44.4379H44.4395H44.441H44.4426H44.4441H44.4457H44.4472H44.4487H44.4503H44.4518H44.4534H44.4549H44.4565H44.458H44.4596H44.4611H44.4627H44.4642H44.4657H44.4673H44.4688H44.4704H44.4719H44.4734H44.475H44.4765H44.4781H44.4796H44.4811H44.4827H44.4842H44.4858H44.4873H44.4888H44.4904H44.4919H44.4934H44.495H44.4959C50.0411 201.902 54.8972 204.767 58.4375 207.671C61.9737 210.572 64.1446 213.469 64.3101 213.691L64.3109 213.692L64.9449 214.54L64.2436 215.334C64.2435 215.334 64.2434 215.334 64.2432 215.334C64.069 215.531 61.7514 218.101 58.1152 220.618C54.4704 223.142 49.5528 225.577 44.1711 225.577H44.1696H44.1681H44.1665H44.165H44.1635H44.1619H44.1604H44.1589H44.1573H44.1558H44.1543H44.1527H44.1512H44.1496H44.1481H44.1466H44.145H44.1435H44.142H44.1404H44.1389H44.1373H44.1358H44.1343H44.1327H44.1312H44.1296H44.1281H44.1265H44.125H44.1235H44.1219H44.1204H44.1188H44.1173H44.1157H44.1142H44.1126H44.1111H44.1095H44.108H44.1064H44.1049H44.1033H44.1018H44.1003H44.0987H44.0971H44.0956H44.094H44.0925H44.0909H44.0894H44.0878H44.0863H44.0847H44.0832H44.0816H44.0801H44.0785H44.077H44.0754H44.0739H44.0723H44.0707H44.0692H44.0676H44.0661H44.0645H44.063H44.0614H44.0598H44.0583H44.0567H44.0552H44.0536H44.052H44.0505H44.0489H44.0474H44.0458H44.0442H44.0427H44.0411H44.0396H44.038H44.0364H44.0349H44.0333H44.0317H44.0302H44.0286H44.0271H44.0255H44.0239H44.0224H44.0208H44.0192H44.0177H44.0161H44.0145H44.013H44.0114H44.0098H44.0083H44.0067H44.0051H44.0036H44.002H44.0004H43.9989H43.9973H43.9957H43.9942H43.9926H43.991H43.9894H43.9879H43.9863H43.9847H43.9832H43.9816H43.98H43.9784H43.9769H43.9753H43.9737H43.9722H43.9706H43.969H43.9674H43.9659H43.9643H43.9627H43.9611H43.9596H43.958H43.9564H43.9548H43.9533H43.9517H43.9501H43.9485H43.947H43.9454H43.9438H43.9422H43.9407H43.9391H43.9375H43.9359H43.9343H43.9328H43.9312H43.9296H43.928H43.9265H43.9249H43.9233H43.9217H43.9201H43.9186H43.917H43.9154H43.9138H43.9122H43.9107H43.9091H43.9075H43.9059H43.9043H43.9028H43.9012H43.8996H43.898H43.8964H43.8949H43.8933H43.8917H43.8901H43.8885H43.887H43.8854H43.8838H43.8822H43.8806H43.879H43.8775H43.8759H43.8743H43.8727H43.8711H43.8695H43.868H43.8664H43.8648H43.8632H43.8616H43.86H43.8585H43.8569H43.8553H43.8537H43.8521H43.8505H43.849H43.8474H43.8458H43.8442H43.8426H43.841H43.8395H43.8379H43.8363H43.8347H43.8331H43.8315H43.8299H43.8284H43.8268H43.8252H43.8236H43.822H43.8204H43.8188H43.8173H43.8157H43.8141H43.8125H43.8109H43.8093H43.8077H43.8062H43.8046H43.803H43.8014H43.7998H43.7982H43.7966H43.7951H43.7935H43.7919H43.7903H43.7887H43.7871H43.7855H43.7839H43.7824H43.7808H43.7792H43.7776H43.776H43.7744H43.7728H43.7713H43.7697H43.7681H43.7665H43.7649H43.7633H43.7617H43.7602H43.7586H43.757H43.7554H43.7538H43.7522H43.7506H43.749H43.7475H43.7459H43.7443H43.7427H43.7411H43.7395H43.7379H43.7364H43.7348H43.7332H43.7316H43.73H43.7284H43.7268H43.7253H43.7237H43.7221H43.7205H43.7189H43.7173H43.7157H43.7142H43.7126H43.711H43.7094H43.7078H43.7062H43.7046H43.7031H43.7015H43.6999H43.6983H43.6967H43.6951H43.6936H43.692H43.6904H43.6888H43.6872H43.6856H43.684H43.6825H43.6809H43.6793H43.6777H43.6761H43.6745H43.673H43.6714H43.6698H43.6682H43.6666H43.665H43.6635H43.6619H43.6603H43.6587H43.6571H43.6555H43.654H43.6524H43.6508H43.6492H43.6476H43.6461H43.6445H43.6429H43.6413H43.6397H43.6382H43.6366H43.635H43.6334H43.6318H43.6303H43.6287H43.6271H43.6255H43.6239H43.6224H43.6208H43.6192H43.6176H43.616H43.6145H43.6129H43.6113H43.6097H43.6081H43.6066H43.605H43.6034H43.6018H43.6003H43.5987H43.5971H43.5955H43.594H43.5924H43.5908H43.5892H43.5877H43.5861H43.5845H43.5829H43.5814H43.5798H43.5782H43.5766H43.5751H43.5735H43.5719H43.5703H43.5688H43.5672H43.5656H43.564H43.5625H43.5609H43.5593H43.5578H43.5562H43.5546H43.553H43.5515H43.5499H43.5483H43.5468H43.5452H43.5436H43.5421H43.5405H43.5389H43.5373H43.5358H43.5342H43.5326H43.5311H43.5295H43.5279H43.5264H43.5248H43.5232H43.5217H43.5201H43.5185H43.517H43.5154H43.5138H43.5123H43.5107H43.5092H43.5076H43.506H43.5045H43.5029H43.5013H43.4998H43.4982H43.4967H43.4951H43.4935H43.492H43.4904H43.4888H43.4873H43.4857H43.4842H43.4826H43.4811H43.4795H43.4779H43.4764H43.4748H43.4733H43.4717H43.4702H43.4686H43.467H43.4655H43.4639H43.4624H43.4608H43.4593H43.4577H43.4562H43.4546H43.4531H43.4515H43.4499H43.4484H43.4468H43.4453H43.4437H43.4422H43.4406H43.4391H43.4375H43.436H43.4344H43.4329H43.4313H43.4298H43.4283H43.4267H43.4252H43.4236H43.4221H43.4205H43.419H43.4174H43.4159H43.4143H43.4128H43.4113H43.4097H43.4082H43.4066H43.4051H43.4035H43.402H43.4005H43.3989H43.3974H43.3958H43.3943H43.3928H43.3912H43.3897H43.3882H43.3866H43.3851H43.3835H43.382H43.3805H43.3796C37.8344 225.324 32.9783 222.459 29.438 219.554C25.9018 216.653 23.7309 213.756 23.5653 213.534Z" fill="#83BB46" stroke="white"/>
<path d="M63.7028 214.602C47.9617 209.452 30.3532 209.818 15.1536 215.592" stroke="white" stroke-linecap="round" stroke-linejoin="round"/>
<path d="M62.4639 258.112C36.2139 235.237 27.5889 259.362 6.99352 246.385C0.532736 242.06 0.924864 232.437 5.59306 226.278C10.2613 220.12 16.7034 215.152 20.0645 208.224C24.8634 198.271 24.658 181.995 18.1785 169.751" stroke="white" stroke-linecap="round" stroke-linejoin="round"/>
<path d="M173.684 229.037L168.684 226.15V231.924L173.684 229.037ZM86.6836 229.537H169.184V228.537H86.6836V229.537Z" fill="white"/>
</svg>
