<svg width="1356" height="418" viewBox="0 0 1356 418" fill="none" xmlns="http://www.w3.org/2000/svg">
<path d="M113.656 27.7524L142.6 27.8064" stroke="#F4F1F7" stroke-linecap="round" stroke-linejoin="round"/>
<path d="M113.303 68.4042L142.259 68.4514" stroke="#F4F1F7" stroke-linecap="round" stroke-linejoin="round"/>
<path d="M113.349 64.8805L142.286 64.9223" stroke="#F4F1F7" stroke-linecap="round" stroke-linejoin="round"/>
<path d="M139.776 68.212C140.617 57.0456 135.717 53.5435 131.419 50.4593C131.102 50.2354 129.688 49.3088 129.701 48.1678C129.719 46.3686 131.775 45.4868 133.721 44.2026C135.427 43.067 136.917 41.5401 137.969 40.0955C140.264 36.9409 140.076 31.2471 139.767 28.1279" stroke="#F4F1F7" stroke-linecap="round" stroke-linejoin="round"/>
<path d="M115.779 68.1677C115.123 56.9996 120.087 53.5183 124.45 50.4338C124.762 50.2129 126.2 49.29 126.206 48.1367C126.224 46.3375 124.176 45.4582 122.251 44.1598C120.557 43.0202 119.095 41.4818 118.082 40.0296C115.845 36.8592 116.123 31.1633 116.494 28.0512" stroke="#F4F1F7" stroke-linecap="round" stroke-linejoin="round"/>
<path d="M1356 103.042L1346 97.2685L1346 108.816L1356 103.042ZM92 104.042L1347 104.042L1347 102.042L92 102.042L92 104.042Z" fill="#91C757"/>
<path d="M182.618 164.844C180.819 163.74 179.47 163.046 176.718 163.046C172.617 163.046 169.879 166.67 170.301 169.776C170.724 172.882 172.086 174.054 176.146 175.948C181.46 178.414 183.612 179.831 183.857 184.504C184.184 190.757 178.503 192.051 174.239 191.752C171.582 191.561 169.484 189.79 168.939 188.005" stroke="#F4F1F7"/>
<path d="M178.694 158.577L174.402 196.52" stroke="#F4F1F7"/>
<path d="M175.996 205.771C191.135 205.771 203.408 193.498 203.408 178.359C203.408 163.22 191.135 150.948 175.996 150.948C160.857 150.948 148.584 163.22 148.584 178.359C148.584 193.498 160.857 205.771 175.996 205.771Z" stroke="#F4F1F7"/>
<path d="M211.174 214L194.743 197.569" stroke="#F4F1F7"/>
<path d="M178 264.042L183.774 254.042L172.226 254.042L178 264.042ZM177 211.5L177 255.042L179 255.042L179 211.5L177 211.5Z" fill="#91C757"/>
<path d="M178 27L178 146" stroke="#91C757" stroke-width="2"/>
<path d="M1356 352.042L1346 346.269L1346 357.816L1356 352.042ZM92 353.042L1347 353.042L1347 351.042L92 351.042L92 353.042Z" fill="#F4F1F7"/>
<path d="M235.686 383.427V376.734V355.749V316.33L177.505 282.716L119.299 316.33V383.531L177.505 417.119L235.686 383.427Z" fill="#7F54C8"/>
<path d="M236 383.315V316.33L177.82 282.716L119.614 316.33V383.531L177.82 417.119L235.95 383.315" fill="#BA9FE7"/>
<path d="M236 383.315V316.33L177.82 282.716L119.614 316.33V383.531L177.82 417.119L235.95 383.315" stroke="#BA9FE7" stroke-linecap="round" stroke-linejoin="round"/>
<path d="M235.34 316.569L178.297 349.525L178.225 383.069L178.188 399.841L178.17 408.227L178.161 416.5L206.622 399.91L220.853 391.615L227.968 387.467L235.211 383.342V316.715" fill="#7F54C8"/>
<path d="M236 316.531L177.82 350.144L119.614 316.531" stroke="#7F54C8" stroke-linecap="round" stroke-linejoin="round"/>
<path d="M177.821 350.144V417.119" stroke="#7F54C8" stroke-linecap="round" stroke-linejoin="round"/>
<path d="M210.103 372.69H202.6V377.953H210.591C211.858 377.953 212.881 377.222 213.587 375.736C214.196 374.469 214.513 372.934 214.513 371.131C214.513 369.328 214.196 367.769 213.587 366.527C212.856 365.065 211.858 364.31 210.591 364.31H206.4C206.254 364.31 206.108 364.261 205.962 363.993C205.816 363.701 205.742 363.335 205.742 362.897C205.742 362.434 205.816 362.044 205.986 361.727C206.132 361.411 206.303 361.362 206.425 361.362H213.904V356.148H205.937C204.671 356.148 203.647 356.879 202.916 358.341C202.283 359.583 201.966 361.118 201.966 362.897C201.966 364.675 202.283 366.234 202.916 367.477C203.647 368.914 204.671 369.669 205.937 369.669H210.128C210.25 369.669 210.396 369.718 210.542 369.986C210.688 370.279 210.761 370.668 210.761 371.131C210.761 371.594 210.688 371.984 210.542 372.325C210.371 372.69 210.225 372.69 210.152 372.69H210.103Z" stroke="#BA9FE7"/>
<path d="M219.547 356.673L220.077 356.242L220.09 356.288L220.125 356.323C221.595 360.583 222.457 365.415 221.982 370.279L221.982 370.28C221.526 375.03 220.005 379.298 217.853 382.546C215.699 385.799 212.94 387.991 210.02 388.672C209.295 388.836 208.578 388.928 207.891 388.928C205.434 388.928 203.019 387.897 200.828 385.824L200.828 385.824C195.99 381.247 192.826 372.464 193.643 363.523C194.087 358.753 195.652 354.488 197.856 351.244C200.064 347.996 202.887 345.806 205.837 345.112C207.916 344.627 209.968 344.856 211.937 345.806L212.279 345.971L212.53 345.686C212.794 345.386 213.096 345.273 213.37 345.286C213.645 345.299 213.956 345.444 214.22 345.785L214.22 345.785L214.225 345.79C214.696 346.379 214.907 347.365 214.709 348.378L214.708 348.381C214.556 349.186 214.159 349.723 213.741 349.924L213.741 349.924L213.734 349.927C213.422 350.083 213.105 350.062 212.782 349.843C212.277 349.48 211.899 348.666 211.899 347.646V347.646V347.645V347.645V347.645V347.644V347.644V347.644V347.644V347.643V347.643V347.643V347.642V347.642V347.642V347.642V347.641V347.641V347.641V347.64V347.64V347.64V347.639V347.639V347.639V347.639V347.638V347.638V347.638V347.637V347.637V347.637V347.636V347.636V347.636V347.636V347.635V347.635V347.635V347.634V347.634V347.634V347.633V347.633V347.633V347.633V347.632V347.632V347.632V347.631V347.631V347.631V347.63V347.63V347.63V347.629V347.629V347.629V347.628V347.628V347.628V347.628V347.627V347.627V347.627V347.626V347.626V347.626V347.625V347.625V347.625V347.624V347.624V347.624V347.623V347.623V347.623V347.622V347.622V347.622V347.621V347.621V347.621V347.62V347.62V347.62V347.62V347.619V347.619V347.619V347.618V347.618V347.618V347.617V347.617V347.617V347.616V347.616V347.616V347.615V347.615V347.615V347.614V347.614V347.614V347.613V347.613V347.613V347.612V347.612V347.612V347.611V347.611V347.611V347.61V347.61V347.61V347.609V347.609V347.609V347.608V347.608V347.608V347.607V347.607V347.607V347.606V347.606V347.606V347.605V347.605V347.605V347.604V347.604V347.603V347.603V347.603V347.602V347.602V347.602V347.601V347.601V347.601V347.6V347.6V347.6V347.599V347.599V347.599V347.598V347.598V347.598V347.597V347.597V347.597V347.596V347.596V347.596V347.595V347.595V347.595V347.594V347.594V347.594V347.593V347.593V347.592V347.592V347.592V347.591V347.591V347.591V347.59V347.59V347.59V347.589V347.589V347.589V347.588V347.588V347.588V347.587V347.587V347.587V347.586V347.586V347.585V347.585V347.585V347.584V347.584V347.584V347.583V347.583V347.583V347.582V347.582V347.582V347.581V347.581V347.581V347.58V347.58V347.579V347.579V347.579V347.578V347.578V347.578V347.577V347.577V347.577V347.576V347.576V347.576V347.575V347.575V347.575V347.574V347.574V347.573V347.573V347.573V347.572V347.572V347.572V347.571V347.571V347.571V347.57V347.57V347.57V347.569V347.569V347.568V347.568V347.568V347.567V347.567V347.567V347.566V347.566V347.566V347.565V347.565V347.565V347.564V347.564V347.563V347.563V347.563V347.562V347.562V347.562V347.561V347.561V347.561V347.56V347.56V347.56V347.559V347.559V347.558V347.558V347.558V347.557V347.557V347.557V347.556V347.556V347.556V347.555V347.555V347.555V347.554V347.554V347.553V347.553V347.553V347.552V347.552V347.552V347.551V347.551V347.551V347.55V347.55V347.55V347.549V347.549V347.548V347.548V347.548V347.547V347.547V347.547V347.546V347.546V347.546V347.545V347.545V347.545V347.544V347.544V347.544V347.543V347.543V347.542V347.542V347.542V347.541V347.541V347.541V347.54V347.54V347.54V347.539V347.539V347.539V347.538V347.538V347.538V347.537V347.537V347.536V347.536V347.536V347.535V347.535V347.535V347.534V347.534V347.534V347.533V347.533V347.533V347.532V347.532V347.532V347.531V347.531V347.531V347.53V347.53V347.529V347.529V347.529V347.528V347.528V347.528V347.527V347.527V347.527V347.526V347.526V347.526V347.525V347.525V347.525V347.524V347.524V347.524V347.523V347.523V347.523V347.522V347.522V347.522V347.521V347.521V347.52V347.52V347.52V347.519V347.519V347.519V347.518V347.518V347.518V347.517V347.517V347.517V347.516V347.516V347.516V347.515V347.515V347.515V347.514V347.514V347.514V347.513V347.513V347.513V347.512V347.512V347.512V347.511V347.511V347.511V347.51V347.51V347.51V347.509V347.509V347.509V347.508V347.508V347.508V347.507V347.507V347.507V347.506V347.506V347.506V347.505V347.505V347.505V347.504V347.504V347.504V347.503V347.503V347.503V347.502V347.502V347.502V347.501V347.501V347.501V347.5V347.5V347.5V347.499V347.499V347.499V347.498V347.498V347.498V347.498V347.497V347.497V347.497V347.496V347.496V347.496V347.495V347.495V347.495V347.494V347.494V347.494V347.493V347.493V347.493V347.492V347.492V347.492V347.492V347.491V347.491V347.491V347.49V347.49V347.49V347.489V347.489V347.489V347.488V347.488V347.488V347.487V347.487V347.487V347.487V347.486V347.486V347.486V347.485V347.485V347.485V347.484V347.484V347.484V347.484V347.483V347.483V347.483V347.482V347.482V347.482V347.481V347.481V347.481V347.481V347.48V347.48V347.48V347.479V347.479V347.479V347.479V347.478V347.478V347.478V347.477V347.477V347.477V347.476V347.476V347.476V347.476V347.475V347.155L211.607 347.021C209.755 346.172 207.788 345.963 205.821 346.454C202.939 347.165 200.402 349.346 198.495 352.397C196.585 355.453 195.279 359.422 194.871 363.801C194.106 371.969 196.607 380.079 201.13 384.452C203.702 386.948 206.547 388.033 209.67 387.409L209.672 387.408C212.698 386.788 215.351 384.597 217.328 381.457C219.308 378.312 220.638 374.175 221.009 369.564L221.009 369.563C221.355 365.165 220.838 360.809 219.498 356.962C219.457 356.837 219.5 356.72 219.547 356.673Z" stroke="#BA9FE7"/>
<path d="M278.207 164.844C276.409 163.74 275.06 163.046 272.308 163.046C268.207 163.046 265.468 166.67 265.891 169.776C266.313 172.882 267.676 174.054 271.735 175.948C277.049 178.414 279.202 179.831 279.447 184.504C279.774 190.757 274.092 192.051 269.828 191.752C267.171 191.561 265.073 189.79 264.528 188.005" stroke="#F4F1F7"/>
<path d="M274.283 158.577L269.992 196.52" stroke="#F4F1F7"/>
<path d="M271.586 205.771C286.725 205.771 298.997 193.498 298.997 178.359C298.997 163.22 286.725 150.948 271.586 150.948C256.446 150.948 244.174 163.22 244.174 178.359C244.174 193.498 256.446 205.771 271.586 205.771Z" stroke="#F4F1F7"/>
<path d="M306.763 214L290.333 197.569" stroke="#F4F1F7"/>
<path d="M273.589 27L273.589 146" stroke="#91C757" stroke-width="2"/>
<path d="M373.796 164.844C371.998 163.74 370.649 163.046 367.897 163.046C363.796 163.046 361.058 166.67 361.48 169.776C361.902 172.882 363.265 174.054 367.325 175.948C372.638 178.414 374.791 179.831 375.036 184.504C375.363 190.757 369.682 192.051 365.417 191.752C362.761 191.561 360.663 189.79 360.118 188.005" stroke="#F4F1F7"/>
<path d="M369.873 158.577L365.581 196.52" stroke="#F4F1F7"/>
<path d="M367.175 205.771C382.314 205.771 394.587 193.498 394.587 178.359C394.587 163.22 382.314 150.948 367.175 150.948C352.036 150.948 339.763 163.22 339.763 178.359C339.763 193.498 352.036 205.771 367.175 205.771Z" stroke="#F4F1F7"/>
<path d="M402.353 214L385.922 197.569" stroke="#F4F1F7"/>
<path d="M369.179 264.042L374.952 254.042L363.405 254.042L369.179 264.042ZM368.179 211.5L368.179 255.042L370.179 255.042L370.179 211.5L368.179 211.5Z" fill="#91C757"/>
<path d="M369.179 27L369.179 146" stroke="#91C757" stroke-width="2"/>
<path d="M428.686 383.427V376.734V355.749V316.33L370.505 282.716L312.299 316.33V383.531L370.505 417.119L428.686 383.427Z" fill="#7F54C8"/>
<path d="M429 383.315V316.33L370.82 282.716L312.614 316.33V383.531L370.82 417.119L428.95 383.315" fill="#BA9FE7"/>
<path d="M429 383.315V316.33L370.82 282.716L312.614 316.33V383.531L370.82 417.119L428.95 383.315" stroke="#BA9FE7" stroke-linecap="round" stroke-linejoin="round"/>
<path d="M427.993 317.069L371.022 349.983L370.949 383.486L370.913 400.237L370.895 408.613L370.886 416.875L399.311 400.306L413.524 392.021L420.631 387.879L427.864 383.758V317.214" fill="#7F54C8"/>
<path d="M429 316.531L370.82 350.144L312.614 316.531" stroke="#7F54C8" stroke-linecap="round" stroke-linejoin="round"/>
<path d="M370.821 350.144V417.119" stroke="#7F54C8" stroke-linecap="round" stroke-linejoin="round"/>
<path d="M403.103 372.69H395.6V377.953H403.591C404.858 377.953 405.881 377.222 406.587 375.736C407.196 374.469 407.513 372.934 407.513 371.131C407.513 369.328 407.196 367.769 406.587 366.527C405.856 365.065 404.858 364.31 403.591 364.31H399.4C399.254 364.31 399.108 364.261 398.962 363.993C398.816 363.701 398.742 363.335 398.742 362.897C398.742 362.434 398.816 362.044 398.986 361.727C399.132 361.411 399.303 361.362 399.425 361.362H406.904V356.148H398.937C397.671 356.148 396.647 356.879 395.916 358.341C395.283 359.583 394.966 361.118 394.966 362.897C394.966 364.675 395.283 366.234 395.916 367.477C396.647 368.914 397.671 369.669 398.937 369.669H403.128C403.25 369.669 403.396 369.718 403.542 369.986C403.688 370.279 403.761 370.668 403.761 371.131C403.761 371.594 403.688 371.984 403.542 372.325C403.371 372.69 403.225 372.69 403.152 372.69H403.103Z" stroke="#BA9FE7"/>
<path d="M412.547 356.673L413.077 356.242L413.09 356.288L413.125 356.323C414.595 360.583 415.457 365.415 414.982 370.279L414.982 370.28C414.526 375.03 413.005 379.298 410.853 382.546C408.699 385.799 405.94 387.991 403.02 388.672C402.295 388.836 401.578 388.928 400.891 388.928C398.434 388.928 396.019 387.897 393.828 385.824L393.828 385.824C388.99 381.247 385.826 372.464 386.643 363.523C387.087 358.753 388.652 354.488 390.856 351.244C393.064 347.996 395.887 345.806 398.837 345.112C400.916 344.627 402.968 344.856 404.937 345.806L405.279 345.971L405.53 345.686C405.794 345.386 406.096 345.273 406.37 345.286C406.645 345.299 406.956 345.444 407.22 345.785L407.22 345.785L407.225 345.79C407.696 346.379 407.907 347.365 407.709 348.378L407.708 348.381C407.556 349.186 407.159 349.723 406.741 349.924L406.741 349.924L406.734 349.927C406.422 350.083 406.105 350.062 405.782 349.843C405.277 349.48 404.899 348.666 404.899 347.646V347.646V347.645V347.645V347.645V347.644V347.644V347.644V347.644V347.643V347.643V347.643V347.642V347.642V347.642V347.642V347.641V347.641V347.641V347.64V347.64V347.64V347.639V347.639V347.639V347.639V347.638V347.638V347.638V347.637V347.637V347.637V347.636V347.636V347.636V347.636V347.635V347.635V347.635V347.634V347.634V347.634V347.633V347.633V347.633V347.633V347.632V347.632V347.632V347.631V347.631V347.631V347.63V347.63V347.63V347.629V347.629V347.629V347.628V347.628V347.628V347.628V347.627V347.627V347.627V347.626V347.626V347.626V347.625V347.625V347.625V347.624V347.624V347.624V347.623V347.623V347.623V347.622V347.622V347.622V347.621V347.621V347.621V347.62V347.62V347.62V347.62V347.619V347.619V347.619V347.618V347.618V347.618V347.617V347.617V347.617V347.616V347.616V347.616V347.615V347.615V347.615V347.614V347.614V347.614V347.613V347.613V347.613V347.612V347.612V347.612V347.611V347.611V347.611V347.61V347.61V347.61V347.609V347.609V347.609V347.608V347.608V347.608V347.607V347.607V347.607V347.606V347.606V347.606V347.605V347.605V347.605V347.604V347.604V347.603V347.603V347.603V347.602V347.602V347.602V347.601V347.601V347.601V347.6V347.6V347.6V347.599V347.599V347.599V347.598V347.598V347.598V347.597V347.597V347.597V347.596V347.596V347.596V347.595V347.595V347.595V347.594V347.594V347.594V347.593V347.593V347.592V347.592V347.592V347.591V347.591V347.591V347.59V347.59V347.59V347.589V347.589V347.589V347.588V347.588V347.588V347.587V347.587V347.587V347.586V347.586V347.585V347.585V347.585V347.584V347.584V347.584V347.583V347.583V347.583V347.582V347.582V347.582V347.581V347.581V347.581V347.58V347.58V347.579V347.579V347.579V347.578V347.578V347.578V347.577V347.577V347.577V347.576V347.576V347.576V347.575V347.575V347.575V347.574V347.574V347.573V347.573V347.573V347.572V347.572V347.572V347.571V347.571V347.571V347.57V347.57V347.57V347.569V347.569V347.568V347.568V347.568V347.567V347.567V347.567V347.566V347.566V347.566V347.565V347.565V347.565V347.564V347.564V347.563V347.563V347.563V347.562V347.562V347.562V347.561V347.561V347.561V347.56V347.56V347.56V347.559V347.559V347.558V347.558V347.558V347.557V347.557V347.557V347.556V347.556V347.556V347.555V347.555V347.555V347.554V347.554V347.553V347.553V347.553V347.552V347.552V347.552V347.551V347.551V347.551V347.55V347.55V347.55V347.549V347.549V347.548V347.548V347.548V347.547V347.547V347.547V347.546V347.546V347.546V347.545V347.545V347.545V347.544V347.544V347.544V347.543V347.543V347.542V347.542V347.542V347.541V347.541V347.541V347.54V347.54V347.54V347.539V347.539V347.539V347.538V347.538V347.538V347.537V347.537V347.536V347.536V347.536V347.535V347.535V347.535V347.534V347.534V347.534V347.533V347.533V347.533V347.532V347.532V347.532V347.531V347.531V347.531V347.53V347.53V347.529V347.529V347.529V347.528V347.528V347.528V347.527V347.527V347.527V347.526V347.526V347.526V347.525V347.525V347.525V347.524V347.524V347.524V347.523V347.523V347.523V347.522V347.522V347.522V347.521V347.521V347.52V347.52V347.52V347.519V347.519V347.519V347.518V347.518V347.518V347.517V347.517V347.517V347.516V347.516V347.516V347.515V347.515V347.515V347.514V347.514V347.514V347.513V347.513V347.513V347.512V347.512V347.512V347.511V347.511V347.511V347.51V347.51V347.51V347.509V347.509V347.509V347.508V347.508V347.508V347.507V347.507V347.507V347.506V347.506V347.506V347.505V347.505V347.505V347.504V347.504V347.504V347.503V347.503V347.503V347.502V347.502V347.502V347.501V347.501V347.501V347.5V347.5V347.5V347.499V347.499V347.499V347.498V347.498V347.498V347.498V347.497V347.497V347.497V347.496V347.496V347.496V347.495V347.495V347.495V347.494V347.494V347.494V347.493V347.493V347.493V347.492V347.492V347.492V347.492V347.491V347.491V347.491V347.49V347.49V347.49V347.489V347.489V347.489V347.488V347.488V347.488V347.487V347.487V347.487V347.487V347.486V347.486V347.486V347.485V347.485V347.485V347.484V347.484V347.484V347.484V347.483V347.483V347.483V347.482V347.482V347.482V347.481V347.481V347.481V347.481V347.48V347.48V347.48V347.479V347.479V347.479V347.479V347.478V347.478V347.478V347.477V347.477V347.477V347.476V347.476V347.476V347.476V347.475V347.155L404.607 347.021C402.755 346.172 400.788 345.963 398.821 346.454C395.939 347.165 393.402 349.346 391.495 352.397C389.585 355.453 388.279 359.422 387.871 363.801C387.106 371.969 389.607 380.079 394.13 384.452C396.702 386.948 399.547 388.033 402.67 387.409L402.672 387.408C405.698 386.788 408.351 384.597 410.328 381.457C412.308 378.312 413.638 374.175 414.009 369.564L414.009 369.563C414.355 365.165 413.838 360.809 412.498 356.962C412.457 356.837 412.5 356.72 412.547 356.673Z" stroke="#BA9FE7"/>
<path d="M469.386 164.844C467.587 163.74 466.238 163.046 463.486 163.046C459.386 163.046 456.647 166.67 457.069 169.776C457.492 172.882 458.854 174.054 462.914 175.948C468.228 178.414 470.38 179.831 470.625 184.504C470.952 190.757 465.271 192.051 461.007 191.752C458.35 191.561 456.252 189.79 455.707 188.005" stroke="#F4F1F7"/>
<path d="M465.462 158.577L461.17 196.52" stroke="#F4F1F7"/>
<path d="M462.764 205.771C477.903 205.771 490.176 193.498 490.176 178.359C490.176 163.22 477.903 150.948 462.764 150.948C447.625 150.948 435.353 163.22 435.353 178.359C435.353 193.498 447.625 205.771 462.764 205.771Z" stroke="#F4F1F7"/>
<path d="M497.942 214L481.511 197.569" stroke="#F4F1F7"/>
<path d="M464.768 27L464.768 146" stroke="#91C757" stroke-width="2"/>
<path d="M564.975 164.844C563.177 163.74 561.828 163.046 559.076 163.046C554.975 163.046 552.236 166.67 552.659 169.776C553.081 172.882 554.444 174.054 558.504 175.948C563.817 178.414 565.97 179.831 566.215 184.504C566.542 190.757 560.861 192.051 556.596 191.752C553.939 191.561 551.841 189.79 551.296 188.005" stroke="#F4F1F7"/>
<path d="M561.051 158.577L556.76 196.52" stroke="#F4F1F7"/>
<path d="M558.354 205.771C573.493 205.771 585.765 193.498 585.765 178.359C585.765 163.22 573.493 150.948 558.354 150.948C543.215 150.948 530.942 163.22 530.942 178.359C530.942 193.498 543.215 205.771 558.354 205.771Z" stroke="#F4F1F7"/>
<path d="M593.531 214L577.101 197.569" stroke="#F4F1F7"/>
<path d="M560.357 264.042L566.131 254.042L554.584 254.042L560.357 264.042ZM559.357 211.5L559.357 255.042L561.357 255.042L561.357 211.5L559.357 211.5Z" fill="#91C757"/>
<path d="M560.357 27L560.357 146" stroke="#91C757" stroke-width="2"/>
<path d="M619.686 383.427V376.734V355.749V316.33L561.505 282.716L503.299 316.33V383.531L561.505 417.119L619.686 383.427Z" fill="#7F54C8"/>
<path d="M620 383.315V316.33L561.82 282.716L503.614 316.33V383.531L561.82 417.119L619.95 383.315" fill="#BA9FE7"/>
<path d="M620 383.315V316.33L561.82 282.716L503.614 316.33V383.531L561.82 417.119L619.95 383.315" stroke="#BA9FE7" stroke-linecap="round" stroke-linejoin="round"/>
<path d="M618.865 317.569L562.271 350.266L562.199 383.547L562.163 400.187L562.145 408.507L562.136 416.715L590.373 400.256L604.492 392.026L611.552 387.911L618.737 383.817V317.713" fill="#7F54C8"/>
<path d="M620 316.531L561.82 350.144L503.614 316.531" stroke="#7F54C8" stroke-linecap="round" stroke-linejoin="round"/>
<path d="M561.821 350.144V417.119" stroke="#7F54C8" stroke-linecap="round" stroke-linejoin="round"/>
<path d="M594.103 372.69H586.6V377.953H594.591C595.858 377.953 596.881 377.222 597.587 375.736C598.196 374.469 598.513 372.934 598.513 371.131C598.513 369.328 598.196 367.769 597.587 366.527C596.856 365.065 595.858 364.31 594.591 364.31H590.4C590.254 364.31 590.108 364.261 589.962 363.993C589.816 363.701 589.742 363.335 589.742 362.897C589.742 362.434 589.816 362.044 589.986 361.727C590.132 361.411 590.303 361.362 590.425 361.362H597.904V356.148H589.937C588.671 356.148 587.647 356.879 586.916 358.341C586.283 359.583 585.966 361.118 585.966 362.897C585.966 364.675 586.283 366.234 586.916 367.477C587.647 368.914 588.671 369.669 589.937 369.669H594.128C594.25 369.669 594.396 369.718 594.542 369.986C594.688 370.279 594.761 370.668 594.761 371.131C594.761 371.594 594.688 371.984 594.542 372.325C594.371 372.69 594.225 372.69 594.152 372.69H594.103Z" stroke="#BA9FE7"/>
<path d="M603.547 356.673L604.077 356.242L604.09 356.288L604.125 356.323C605.595 360.583 606.457 365.415 605.982 370.279L605.982 370.28C605.526 375.03 604.005 379.298 601.853 382.546C599.699 385.799 596.94 387.991 594.02 388.672C593.295 388.836 592.578 388.928 591.891 388.928C589.434 388.928 587.019 387.897 584.828 385.824L584.828 385.824C579.99 381.247 576.826 372.464 577.643 363.523C578.087 358.753 579.652 354.488 581.856 351.244C584.064 347.996 586.887 345.806 589.837 345.112C591.916 344.627 593.968 344.856 595.937 345.806L596.279 345.971L596.53 345.686C596.794 345.386 597.096 345.273 597.37 345.286C597.645 345.299 597.956 345.444 598.22 345.785L598.22 345.785L598.225 345.79C598.696 346.379 598.907 347.365 598.709 348.378L598.708 348.381C598.556 349.186 598.159 349.723 597.741 349.924L597.741 349.924L597.734 349.927C597.422 350.083 597.105 350.062 596.782 349.843C596.277 349.48 595.899 348.666 595.899 347.646V347.646V347.645V347.645V347.645V347.644V347.644V347.644V347.644V347.643V347.643V347.643V347.642V347.642V347.642V347.642V347.641V347.641V347.641V347.64V347.64V347.64V347.639V347.639V347.639V347.639V347.638V347.638V347.638V347.637V347.637V347.637V347.636V347.636V347.636V347.636V347.635V347.635V347.635V347.634V347.634V347.634V347.633V347.633V347.633V347.633V347.632V347.632V347.632V347.631V347.631V347.631V347.63V347.63V347.63V347.629V347.629V347.629V347.628V347.628V347.628V347.628V347.627V347.627V347.627V347.626V347.626V347.626V347.625V347.625V347.625V347.624V347.624V347.624V347.623V347.623V347.623V347.622V347.622V347.622V347.621V347.621V347.621V347.62V347.62V347.62V347.62V347.619V347.619V347.619V347.618V347.618V347.618V347.617V347.617V347.617V347.616V347.616V347.616V347.615V347.615V347.615V347.614V347.614V347.614V347.613V347.613V347.613V347.612V347.612V347.612V347.611V347.611V347.611V347.61V347.61V347.61V347.609V347.609V347.609V347.608V347.608V347.608V347.607V347.607V347.607V347.606V347.606V347.606V347.605V347.605V347.605V347.604V347.604V347.603V347.603V347.603V347.602V347.602V347.602V347.601V347.601V347.601V347.6V347.6V347.6V347.599V347.599V347.599V347.598V347.598V347.598V347.597V347.597V347.597V347.596V347.596V347.596V347.595V347.595V347.595V347.594V347.594V347.594V347.593V347.593V347.592V347.592V347.592V347.591V347.591V347.591V347.59V347.59V347.59V347.589V347.589V347.589V347.588V347.588V347.588V347.587V347.587V347.587V347.586V347.586V347.585V347.585V347.585V347.584V347.584V347.584V347.583V347.583V347.583V347.582V347.582V347.582V347.581V347.581V347.581V347.58V347.58V347.579V347.579V347.579V347.578V347.578V347.578V347.577V347.577V347.577V347.576V347.576V347.576V347.575V347.575V347.575V347.574V347.574V347.573V347.573V347.573V347.572V347.572V347.572V347.571V347.571V347.571V347.57V347.57V347.57V347.569V347.569V347.568V347.568V347.568V347.567V347.567V347.567V347.566V347.566V347.566V347.565V347.565V347.565V347.564V347.564V347.563V347.563V347.563V347.562V347.562V347.562V347.561V347.561V347.561V347.56V347.56V347.56V347.559V347.559V347.558V347.558V347.558V347.557V347.557V347.557V347.556V347.556V347.556V347.555V347.555V347.555V347.554V347.554V347.553V347.553V347.553V347.552V347.552V347.552V347.551V347.551V347.551V347.55V347.55V347.55V347.549V347.549V347.548V347.548V347.548V347.547V347.547V347.547V347.546V347.546V347.546V347.545V347.545V347.545V347.544V347.544V347.544V347.543V347.543V347.542V347.542V347.542V347.541V347.541V347.541V347.54V347.54V347.54V347.539V347.539V347.539V347.538V347.538V347.538V347.537V347.537V347.536V347.536V347.536V347.535V347.535V347.535V347.534V347.534V347.534V347.533V347.533V347.533V347.532V347.532V347.532V347.531V347.531V347.531V347.53V347.53V347.529V347.529V347.529V347.528V347.528V347.528V347.527V347.527V347.527V347.526V347.526V347.526V347.525V347.525V347.525V347.524V347.524V347.524V347.523V347.523V347.523V347.522V347.522V347.522V347.521V347.521V347.52V347.52V347.52V347.519V347.519V347.519V347.518V347.518V347.518V347.517V347.517V347.517V347.516V347.516V347.516V347.515V347.515V347.515V347.514V347.514V347.514V347.513V347.513V347.513V347.512V347.512V347.512V347.511V347.511V347.511V347.51V347.51V347.51V347.509V347.509V347.509V347.508V347.508V347.508V347.507V347.507V347.507V347.506V347.506V347.506V347.505V347.505V347.505V347.504V347.504V347.504V347.503V347.503V347.503V347.502V347.502V347.502V347.501V347.501V347.501V347.5V347.5V347.5V347.499V347.499V347.499V347.498V347.498V347.498V347.498V347.497V347.497V347.497V347.496V347.496V347.496V347.495V347.495V347.495V347.494V347.494V347.494V347.493V347.493V347.493V347.492V347.492V347.492V347.492V347.491V347.491V347.491V347.49V347.49V347.49V347.489V347.489V347.489V347.488V347.488V347.488V347.487V347.487V347.487V347.487V347.486V347.486V347.486V347.485V347.485V347.485V347.484V347.484V347.484V347.484V347.483V347.483V347.483V347.482V347.482V347.482V347.481V347.481V347.481V347.481V347.48V347.48V347.48V347.479V347.479V347.479V347.479V347.478V347.478V347.478V347.477V347.477V347.477V347.476V347.476V347.476V347.476V347.475V347.155L595.607 347.021C593.755 346.172 591.788 345.963 589.821 346.454C586.939 347.165 584.402 349.346 582.495 352.397C580.585 355.453 579.279 359.422 578.871 363.801C578.106 371.969 580.607 380.079 585.13 384.452C587.702 386.948 590.547 388.033 593.67 387.409L593.672 387.408C596.698 386.788 599.351 384.597 601.328 381.457C603.308 378.312 604.638 374.175 605.009 369.564L605.009 369.563C605.355 365.165 604.838 360.809 603.498 356.962C603.457 356.837 603.5 356.72 603.547 356.673Z" stroke="#BA9FE7"/>
<path d="M802.618 164.844C800.819 163.74 799.47 163.046 796.718 163.046C792.617 163.046 789.879 166.67 790.301 169.776C790.724 172.882 792.086 174.054 796.146 175.948C801.46 178.414 803.612 179.831 803.857 184.504C804.184 190.757 798.503 192.051 794.239 191.752C791.582 191.561 789.484 189.79 788.939 188.005" stroke="#F4F1F7"/>
<path d="M798.694 158.577L794.402 196.52" stroke="#F4F1F7"/>
<path d="M795.996 205.771C811.135 205.771 823.408 193.498 823.408 178.359C823.408 163.22 811.135 150.948 795.996 150.948C780.857 150.948 768.584 163.22 768.584 178.359C768.584 193.498 780.857 205.771 795.996 205.771Z" stroke="#F4F1F7"/>
<path d="M831.174 214L814.743 197.569" stroke="#F4F1F7"/>
<path d="M798 27L798 146" stroke="#91C757" stroke-width="2"/>
<path d="M902.618 164.844C900.819 163.74 899.47 163.046 896.718 163.046C892.617 163.046 889.879 166.67 890.301 169.776C890.724 172.882 892.086 174.054 896.146 175.948C901.46 178.414 903.612 179.831 903.857 184.504C904.184 190.757 898.503 192.051 894.239 191.752C891.582 191.561 889.484 189.79 888.939 188.005" stroke="#F4F1F7"/>
<path d="M898.694 158.577L894.402 196.52" stroke="#F4F1F7"/>
<path d="M895.996 205.771C911.135 205.771 923.408 193.498 923.408 178.359C923.408 163.22 911.135 150.948 895.996 150.948C880.857 150.948 868.584 163.22 868.584 178.359C868.584 193.498 880.857 205.771 895.996 205.771Z" stroke="#F4F1F7"/>
<path d="M931.174 214L914.743 197.569" stroke="#F4F1F7"/>
<path d="M898 264.042L903.774 254.042L892.226 254.042L898 264.042ZM897 211.5L897 255.042L899 255.042L899 211.5L897 211.5Z" fill="#91C757"/>
<path d="M898 27L898 146" stroke="#91C757" stroke-width="2"/>
<path d="M987 27L987 146" stroke="#91C757" stroke-width="2"/>
<path d="M1263.59 27L1263.59 146" stroke="#91C757" stroke-width="2"/>
<path d="M1076 27L1076 146" stroke="#91C757" stroke-width="2"/>
<path d="M956.686 383.427V376.734V355.749V316.33L898.505 282.716L840.299 316.33V383.531L898.505 417.119L956.686 383.427Z" fill="#7F54C8"/>
<path d="M957 383.315V316.33L898.82 282.716L840.614 316.33V383.531L898.82 417.119L956.95 383.315" fill="#BA9FE7"/>
<path d="M957 383.315V316.33L898.82 282.716L840.614 316.33V383.531L898.82 417.119L956.95 383.315" stroke="#BA9FE7" stroke-linecap="round" stroke-linejoin="round"/>
<path d="M955.865 317.319L899.271 350.016L899.199 383.297L899.163 399.937L899.145 408.257L899.136 416.465L927.373 400.006L941.492 391.776L948.552 387.661L955.737 383.567V317.463" fill="#7F54C8"/>
<path d="M957 316.531L898.82 350.144L840.614 316.531" stroke="#7F54C8" stroke-linecap="round" stroke-linejoin="round"/>
<path d="M898.821 350.144V417.119" stroke="#7F54C8" stroke-linecap="round" stroke-linejoin="round"/>
<path d="M931.103 372.69H923.6V377.953H931.591C932.858 377.953 933.881 377.222 934.587 375.736C935.196 374.469 935.513 372.934 935.513 371.131C935.513 369.328 935.196 367.769 934.587 366.527C933.856 365.065 932.858 364.31 931.591 364.31H927.4C927.254 364.31 927.108 364.261 926.962 363.993C926.816 363.701 926.742 363.335 926.742 362.897C926.742 362.434 926.816 362.044 926.986 361.727C927.132 361.411 927.303 361.362 927.425 361.362H934.904V356.148H926.937C925.671 356.148 924.647 356.879 923.916 358.341C923.283 359.583 922.966 361.118 922.966 362.897C922.966 364.675 923.283 366.234 923.916 367.477C924.647 368.914 925.671 369.669 926.937 369.669H931.128C931.25 369.669 931.396 369.718 931.542 369.986C931.688 370.279 931.761 370.668 931.761 371.131C931.761 371.594 931.688 371.984 931.542 372.325C931.371 372.69 931.225 372.69 931.152 372.69H931.103Z" stroke="#BA9FE7"/>
<path d="M940.547 356.673L941.077 356.242L941.09 356.288L941.125 356.323C942.595 360.583 943.457 365.415 942.982 370.279L942.982 370.28C942.526 375.03 941.005 379.298 938.853 382.546C936.699 385.799 933.94 387.991 931.02 388.672C930.295 388.836 929.578 388.928 928.891 388.928C926.434 388.928 924.019 387.897 921.828 385.824L921.828 385.824C916.99 381.247 913.826 372.464 914.643 363.523C915.087 358.753 916.652 354.488 918.856 351.244C921.064 347.996 923.887 345.806 926.837 345.112C928.916 344.627 930.968 344.856 932.937 345.806L933.279 345.971L933.53 345.686C933.794 345.386 934.096 345.273 934.37 345.286C934.645 345.299 934.956 345.444 935.22 345.785L935.22 345.785L935.225 345.79C935.696 346.379 935.907 347.365 935.709 348.378L935.708 348.381C935.556 349.186 935.159 349.723 934.741 349.924L934.741 349.924L934.734 349.927C934.422 350.083 934.105 350.062 933.782 349.843C933.277 349.48 932.899 348.666 932.899 347.646V347.646V347.645V347.645V347.645V347.644V347.644V347.644V347.644V347.643V347.643V347.643V347.642V347.642V347.642V347.642V347.641V347.641V347.641V347.64V347.64V347.64V347.639V347.639V347.639V347.639V347.638V347.638V347.638V347.637V347.637V347.637V347.636V347.636V347.636V347.636V347.635V347.635V347.635V347.634V347.634V347.634V347.633V347.633V347.633V347.633V347.632V347.632V347.632V347.631V347.631V347.631V347.63V347.63V347.63V347.629V347.629V347.629V347.628V347.628V347.628V347.628V347.627V347.627V347.627V347.626V347.626V347.626V347.625V347.625V347.625V347.624V347.624V347.624V347.623V347.623V347.623V347.622V347.622V347.622V347.621V347.621V347.621V347.62V347.62V347.62V347.62V347.619V347.619V347.619V347.618V347.618V347.618V347.617V347.617V347.617V347.616V347.616V347.616V347.615V347.615V347.615V347.614V347.614V347.614V347.613V347.613V347.613V347.612V347.612V347.612V347.611V347.611V347.611V347.61V347.61V347.61V347.609V347.609V347.609V347.608V347.608V347.608V347.607V347.607V347.607V347.606V347.606V347.606V347.605V347.605V347.605V347.604V347.604V347.603V347.603V347.603V347.602V347.602V347.602V347.601V347.601V347.601V347.6V347.6V347.6V347.599V347.599V347.599V347.598V347.598V347.598V347.597V347.597V347.597V347.596V347.596V347.596V347.595V347.595V347.595V347.594V347.594V347.594V347.593V347.593V347.592V347.592V347.592V347.591V347.591V347.591V347.59V347.59V347.59V347.589V347.589V347.589V347.588V347.588V347.588V347.587V347.587V347.587V347.586V347.586V347.585V347.585V347.585V347.584V347.584V347.584V347.583V347.583V347.583V347.582V347.582V347.582V347.581V347.581V347.581V347.58V347.58V347.579V347.579V347.579V347.578V347.578V347.578V347.577V347.577V347.577V347.576V347.576V347.576V347.575V347.575V347.575V347.574V347.574V347.573V347.573V347.573V347.572V347.572V347.572V347.571V347.571V347.571V347.57V347.57V347.57V347.569V347.569V347.568V347.568V347.568V347.567V347.567V347.567V347.566V347.566V347.566V347.565V347.565V347.565V347.564V347.564V347.563V347.563V347.563V347.562V347.562V347.562V347.561V347.561V347.561V347.56V347.56V347.56V347.559V347.559V347.558V347.558V347.558V347.557V347.557V347.557V347.556V347.556V347.556V347.555V347.555V347.555V347.554V347.554V347.553V347.553V347.553V347.552V347.552V347.552V347.551V347.551V347.551V347.55V347.55V347.55V347.549V347.549V347.548V347.548V347.548V347.547V347.547V347.547V347.546V347.546V347.546V347.545V347.545V347.545V347.544V347.544V347.544V347.543V347.543V347.542V347.542V347.542V347.541V347.541V347.541V347.54V347.54V347.54V347.539V347.539V347.539V347.538V347.538V347.538V347.537V347.537V347.536V347.536V347.536V347.535V347.535V347.535V347.534V347.534V347.534V347.533V347.533V347.533V347.532V347.532V347.532V347.531V347.531V347.531V347.53V347.53V347.529V347.529V347.529V347.528V347.528V347.528V347.527V347.527V347.527V347.526V347.526V347.526V347.525V347.525V347.525V347.524V347.524V347.524V347.523V347.523V347.523V347.522V347.522V347.522V347.521V347.521V347.52V347.52V347.52V347.519V347.519V347.519V347.518V347.518V347.518V347.517V347.517V347.517V347.516V347.516V347.516V347.515V347.515V347.515V347.514V347.514V347.514V347.513V347.513V347.513V347.512V347.512V347.512V347.511V347.511V347.511V347.51V347.51V347.51V347.509V347.509V347.509V347.508V347.508V347.508V347.507V347.507V347.507V347.506V347.506V347.506V347.505V347.505V347.505V347.504V347.504V347.504V347.503V347.503V347.503V347.502V347.502V347.502V347.501V347.501V347.501V347.5V347.5V347.5V347.499V347.499V347.499V347.498V347.498V347.498V347.498V347.497V347.497V347.497V347.496V347.496V347.496V347.495V347.495V347.495V347.494V347.494V347.494V347.493V347.493V347.493V347.492V347.492V347.492V347.492V347.491V347.491V347.491V347.49V347.49V347.49V347.489V347.489V347.489V347.488V347.488V347.488V347.487V347.487V347.487V347.487V347.486V347.486V347.486V347.485V347.485V347.485V347.484V347.484V347.484V347.484V347.483V347.483V347.483V347.482V347.482V347.482V347.481V347.481V347.481V347.481V347.48V347.48V347.48V347.479V347.479V347.479V347.479V347.478V347.478V347.478V347.477V347.477V347.477V347.476V347.476V347.476V347.476V347.475V347.155L932.607 347.021C930.755 346.172 928.788 345.963 926.821 346.454C923.939 347.165 921.402 349.346 919.495 352.397C917.585 355.453 916.279 359.422 915.871 363.801C915.106 371.969 917.607 380.079 922.13 384.452C924.702 386.948 927.547 388.033 930.67 387.409L930.672 387.408C933.698 386.788 936.351 384.597 938.328 381.457C940.308 378.312 941.638 374.175 942.009 369.564L942.009 369.563C942.355 365.165 941.838 360.809 940.498 356.962C940.457 356.837 940.5 356.72 940.547 356.673Z" stroke="#BA9FE7"/>
<path d="M698.618 164.844C696.819 163.74 695.47 163.046 692.718 163.046C688.617 163.046 685.879 166.67 686.301 169.776C686.724 172.882 688.086 174.054 692.146 175.948C697.46 178.414 699.612 179.831 699.857 184.504C700.184 190.757 694.503 192.051 690.239 191.752C687.582 191.561 685.484 189.79 684.939 188.005" stroke="#F4F1F7"/>
<path d="M694.694 158.577L690.402 196.52" stroke="#F4F1F7"/>
<path d="M691.996 205.771C707.135 205.771 719.408 193.498 719.408 178.359C719.408 163.22 707.135 150.948 691.996 150.948C676.857 150.948 664.584 163.22 664.584 178.359C664.584 193.498 676.857 205.771 691.996 205.771Z" stroke="#F4F1F7"/>
<path d="M727.174 214L710.743 197.569" stroke="#F4F1F7"/>
<path d="M694 264.042L699.774 254.042L688.226 254.042L694 264.042ZM693 211.5L693 255.042L695 255.042L695 211.5L693 211.5Z" fill="#91C757"/>
<path d="M694 27L694 146" stroke="#91C757" stroke-width="2"/>
<path d="M752.686 383.427V376.734V355.749V316.33L694.505 282.716L636.299 316.33V383.531L694.505 417.119L752.686 383.427Z" fill="#7F54C8"/>
<path d="M753 383.315V316.33L694.82 282.716L636.614 316.33V383.531L694.82 417.119L752.95 383.315" fill="#BA9FE7"/>
<path d="M753 383.315V316.33L694.82 282.716L636.614 316.33V383.531L694.82 417.119L752.95 383.315" stroke="#BA9FE7" stroke-linecap="round" stroke-linejoin="round"/>
<path d="M751.99 317.319L695.396 350.016L695.324 383.297L695.288 399.937L695.27 408.257L695.261 416.465L723.498 400.006L737.617 391.776L744.677 387.661L751.862 383.567V317.463" fill="#7F54C8"/>
<path d="M753 316.531L694.82 350.144L636.614 316.531" stroke="#7F54C8" stroke-linecap="round" stroke-linejoin="round"/>
<path d="M694.821 350.144V417.119" stroke="#7F54C8" stroke-linecap="round" stroke-linejoin="round"/>
<path d="M727.103 372.69H719.6V377.953H727.591C728.858 377.953 729.881 377.222 730.587 375.736C731.196 374.469 731.513 372.934 731.513 371.131C731.513 369.328 731.196 367.769 730.587 366.527C729.856 365.065 728.858 364.31 727.591 364.31H723.4C723.254 364.31 723.108 364.261 722.962 363.993C722.816 363.701 722.742 363.335 722.742 362.897C722.742 362.434 722.816 362.044 722.986 361.727C723.132 361.411 723.303 361.362 723.425 361.362H730.904V356.148H722.937C721.671 356.148 720.647 356.879 719.916 358.341C719.283 359.583 718.966 361.118 718.966 362.897C718.966 364.675 719.283 366.234 719.916 367.477C720.647 368.914 721.671 369.669 722.937 369.669H727.128C727.25 369.669 727.396 369.718 727.542 369.986C727.688 370.279 727.761 370.668 727.761 371.131C727.761 371.594 727.688 371.984 727.542 372.325C727.371 372.69 727.225 372.69 727.152 372.69H727.103Z" stroke="#BA9FE7"/>
<path d="M736.547 356.673L737.077 356.242L737.09 356.288L737.125 356.323C738.595 360.583 739.457 365.415 738.982 370.279L738.982 370.28C738.526 375.03 737.005 379.298 734.853 382.546C732.699 385.799 729.94 387.991 727.02 388.672C726.295 388.836 725.578 388.928 724.891 388.928C722.434 388.928 720.019 387.897 717.828 385.824L717.828 385.824C712.99 381.247 709.826 372.464 710.643 363.523C711.087 358.753 712.652 354.488 714.856 351.244C717.064 347.996 719.887 345.806 722.837 345.112C724.916 344.627 726.968 344.856 728.937 345.806L729.279 345.971L729.53 345.686C729.794 345.386 730.096 345.273 730.37 345.286C730.645 345.299 730.956 345.444 731.22 345.785L731.22 345.785L731.225 345.79C731.696 346.379 731.907 347.365 731.709 348.378L731.708 348.381C731.556 349.186 731.159 349.723 730.741 349.924L730.741 349.924L730.734 349.927C730.422 350.083 730.105 350.062 729.782 349.843C729.277 349.48 728.899 348.666 728.899 347.646V347.646V347.645V347.645V347.645V347.644V347.644V347.644V347.644V347.643V347.643V347.643V347.642V347.642V347.642V347.642V347.641V347.641V347.641V347.64V347.64V347.64V347.639V347.639V347.639V347.639V347.638V347.638V347.638V347.637V347.637V347.637V347.636V347.636V347.636V347.636V347.635V347.635V347.635V347.634V347.634V347.634V347.633V347.633V347.633V347.633V347.632V347.632V347.632V347.631V347.631V347.631V347.63V347.63V347.63V347.629V347.629V347.629V347.628V347.628V347.628V347.628V347.627V347.627V347.627V347.626V347.626V347.626V347.625V347.625V347.625V347.624V347.624V347.624V347.623V347.623V347.623V347.622V347.622V347.622V347.621V347.621V347.621V347.62V347.62V347.62V347.62V347.619V347.619V347.619V347.618V347.618V347.618V347.617V347.617V347.617V347.616V347.616V347.616V347.615V347.615V347.615V347.614V347.614V347.614V347.613V347.613V347.613V347.612V347.612V347.612V347.611V347.611V347.611V347.61V347.61V347.61V347.609V347.609V347.609V347.608V347.608V347.608V347.607V347.607V347.607V347.606V347.606V347.606V347.605V347.605V347.605V347.604V347.604V347.603V347.603V347.603V347.602V347.602V347.602V347.601V347.601V347.601V347.6V347.6V347.6V347.599V347.599V347.599V347.598V347.598V347.598V347.597V347.597V347.597V347.596V347.596V347.596V347.595V347.595V347.595V347.594V347.594V347.594V347.593V347.593V347.592V347.592V347.592V347.591V347.591V347.591V347.59V347.59V347.59V347.589V347.589V347.589V347.588V347.588V347.588V347.587V347.587V347.587V347.586V347.586V347.585V347.585V347.585V347.584V347.584V347.584V347.583V347.583V347.583V347.582V347.582V347.582V347.581V347.581V347.581V347.58V347.58V347.579V347.579V347.579V347.578V347.578V347.578V347.577V347.577V347.577V347.576V347.576V347.576V347.575V347.575V347.575V347.574V347.574V347.573V347.573V347.573V347.572V347.572V347.572V347.571V347.571V347.571V347.57V347.57V347.57V347.569V347.569V347.568V347.568V347.568V347.567V347.567V347.567V347.566V347.566V347.566V347.565V347.565V347.565V347.564V347.564V347.563V347.563V347.563V347.562V347.562V347.562V347.561V347.561V347.561V347.56V347.56V347.56V347.559V347.559V347.558V347.558V347.558V347.557V347.557V347.557V347.556V347.556V347.556V347.555V347.555V347.555V347.554V347.554V347.553V347.553V347.553V347.552V347.552V347.552V347.551V347.551V347.551V347.55V347.55V347.55V347.549V347.549V347.548V347.548V347.548V347.547V347.547V347.547V347.546V347.546V347.546V347.545V347.545V347.545V347.544V347.544V347.544V347.543V347.543V347.542V347.542V347.542V347.541V347.541V347.541V347.54V347.54V347.54V347.539V347.539V347.539V347.538V347.538V347.538V347.537V347.537V347.536V347.536V347.536V347.535V347.535V347.535V347.534V347.534V347.534V347.533V347.533V347.533V347.532V347.532V347.532V347.531V347.531V347.531V347.53V347.53V347.529V347.529V347.529V347.528V347.528V347.528V347.527V347.527V347.527V347.526V347.526V347.526V347.525V347.525V347.525V347.524V347.524V347.524V347.523V347.523V347.523V347.522V347.522V347.522V347.521V347.521V347.52V347.52V347.52V347.519V347.519V347.519V347.518V347.518V347.518V347.517V347.517V347.517V347.516V347.516V347.516V347.515V347.515V347.515V347.514V347.514V347.514V347.513V347.513V347.513V347.512V347.512V347.512V347.511V347.511V347.511V347.51V347.51V347.51V347.509V347.509V347.509V347.508V347.508V347.508V347.507V347.507V347.507V347.506V347.506V347.506V347.505V347.505V347.505V347.504V347.504V347.504V347.503V347.503V347.503V347.502V347.502V347.502V347.501V347.501V347.501V347.5V347.5V347.5V347.499V347.499V347.499V347.498V347.498V347.498V347.498V347.497V347.497V347.497V347.496V347.496V347.496V347.495V347.495V347.495V347.494V347.494V347.494V347.493V347.493V347.493V347.492V347.492V347.492V347.492V347.491V347.491V347.491V347.49V347.49V347.49V347.489V347.489V347.489V347.488V347.488V347.488V347.487V347.487V347.487V347.487V347.486V347.486V347.486V347.485V347.485V347.485V347.484V347.484V347.484V347.484V347.483V347.483V347.483V347.482V347.482V347.482V347.481V347.481V347.481V347.481V347.48V347.48V347.48V347.479V347.479V347.479V347.479V347.478V347.478V347.478V347.477V347.477V347.477V347.476V347.476V347.476V347.476V347.475V347.155L728.607 347.021C726.755 346.172 724.788 345.963 722.821 346.454C719.939 347.165 717.402 349.346 715.495 352.397C713.585 355.453 712.279 359.422 711.871 363.801C711.106 371.969 713.607 380.079 718.13 384.452C720.702 386.948 723.547 388.033 726.67 387.409L726.672 387.408C729.698 386.788 732.351 384.597 734.328 381.457C736.308 378.312 737.638 374.175 738.009 369.564L738.009 369.563C738.355 365.165 737.838 360.809 736.498 356.962C736.457 356.837 736.5 356.72 736.547 356.673Z" stroke="#BA9FE7"/>
<path d="M1172.03 164.844C1170.23 163.74 1168.89 163.046 1166.13 163.046C1162.03 163.046 1159.29 166.67 1159.72 169.776C1160.14 172.882 1161.5 174.054 1165.56 175.948C1170.88 178.414 1173.03 179.831 1173.27 184.504C1173.6 190.757 1167.92 192.051 1163.65 191.752C1161 191.561 1158.9 189.79 1158.35 188.005" stroke="#F4F1F7"/>
<path d="M1168.11 158.577L1163.82 196.52" stroke="#F4F1F7"/>
<path d="M1165.41 205.771C1180.55 205.771 1192.82 193.498 1192.82 178.359C1192.82 163.22 1180.55 150.948 1165.41 150.948C1150.27 150.948 1138 163.22 1138 178.359C1138 193.498 1150.27 205.771 1165.41 205.771Z" stroke="#F4F1F7"/>
<path d="M1200.59 214L1184.16 197.569" stroke="#F4F1F7"/>
<path d="M1167.42 264.042L1173.19 254.042L1161.64 254.042L1167.42 264.042ZM1166.42 211.5L1166.42 255.042L1168.42 255.042L1168.42 211.5L1166.42 211.5Z" fill="#91C757"/>
<path d="M1167.42 27L1167.42 146" stroke="#91C757" stroke-width="2"/>
<path d="M1226.69 383.427V376.734V355.749V316.33L1168.51 282.716L1110.3 316.33V383.531L1168.51 417.119L1226.69 383.427Z" fill="#7F54C8"/>
<path d="M1227 383.315V316.33L1168.82 282.716L1110.61 316.33V383.531L1168.82 417.119L1226.95 383.315" fill="#BA9FE7"/>
<path d="M1227 383.315V316.33L1168.82 282.716L1110.61 316.33V383.531L1168.82 417.119L1226.95 383.315" stroke="#BA9FE7" stroke-linecap="round" stroke-linejoin="round"/>
<path d="M1225.74 317.319L1169.15 350.016L1169.07 383.297L1169.04 399.937L1169.02 408.257L1169.01 416.465L1197.25 400.006L1211.37 391.776L1218.43 387.661L1225.61 383.567V317.463" fill="#7F54C8"/>
<path d="M1227 316.531L1168.82 350.144L1110.61 316.531" stroke="#7F54C8" stroke-linecap="round" stroke-linejoin="round"/>
<path d="M1168.82 350.144V417.119" stroke="#7F54C8" stroke-linecap="round" stroke-linejoin="round"/>
<path d="M1201.1 372.69H1193.6V377.953H1201.59C1202.86 377.953 1203.88 377.222 1204.59 375.736C1205.2 374.469 1205.51 372.934 1205.51 371.131C1205.51 369.328 1205.2 367.769 1204.59 366.527C1203.86 365.065 1202.86 364.31 1201.59 364.31H1197.4C1197.25 364.31 1197.11 364.261 1196.96 363.993C1196.82 363.701 1196.74 363.335 1196.74 362.897C1196.74 362.434 1196.82 362.044 1196.99 361.727C1197.13 361.411 1197.3 361.362 1197.42 361.362H1204.9V356.148H1196.94C1195.67 356.148 1194.65 356.879 1193.92 358.341C1193.28 359.583 1192.97 361.118 1192.97 362.897C1192.97 364.675 1193.28 366.234 1193.92 367.477C1194.65 368.914 1195.67 369.669 1196.94 369.669H1201.13C1201.25 369.669 1201.4 369.718 1201.54 369.986C1201.69 370.279 1201.76 370.668 1201.76 371.131C1201.76 371.594 1201.69 371.984 1201.54 372.325C1201.37 372.69 1201.23 372.69 1201.15 372.69H1201.1Z" stroke="#BA9FE7"/>
<path d="M1210.55 356.673L1211.08 356.242L1211.09 356.288L1211.12 356.323C1212.59 360.583 1213.46 365.415 1212.98 370.279L1212.98 370.28C1212.53 375.03 1211 379.298 1208.85 382.546C1206.7 385.799 1203.94 387.991 1201.02 388.672C1200.29 388.836 1199.58 388.928 1198.89 388.928C1196.43 388.928 1194.02 387.897 1191.83 385.824L1191.83 385.824C1186.99 381.247 1183.83 372.464 1184.64 363.523C1185.09 358.753 1186.65 354.488 1188.86 351.244C1191.06 347.996 1193.89 345.806 1196.84 345.112C1198.92 344.627 1200.97 344.856 1202.94 345.806L1203.28 345.971L1203.53 345.686C1203.79 345.386 1204.1 345.273 1204.37 345.286C1204.65 345.299 1204.96 345.444 1205.22 345.785L1205.22 345.785L1205.22 345.79C1205.7 346.379 1205.91 347.365 1205.71 348.378L1205.71 348.381C1205.56 349.186 1205.16 349.723 1204.74 349.924L1204.74 349.924L1204.73 349.927C1204.42 350.083 1204.11 350.062 1203.78 349.843C1203.28 349.48 1202.9 348.666 1202.9 347.646V347.646V347.645V347.645V347.645V347.644V347.644V347.644V347.644V347.643V347.643V347.643V347.642V347.642V347.642V347.642V347.641V347.641V347.641V347.64V347.64V347.64V347.639V347.639V347.639V347.639V347.638V347.638V347.638V347.637V347.637V347.637V347.636V347.636V347.636V347.636V347.635V347.635V347.635V347.634V347.634V347.634V347.633V347.633V347.633V347.633V347.632V347.632V347.632V347.631V347.631V347.631V347.63V347.63V347.63V347.629V347.629V347.629V347.628V347.628V347.628V347.628V347.627V347.627V347.627V347.626V347.626V347.626V347.625V347.625V347.625V347.624V347.624V347.624V347.623V347.623V347.623V347.622V347.622V347.622V347.621V347.621V347.621V347.62V347.62V347.62V347.62V347.619V347.619V347.619V347.618V347.618V347.618V347.617V347.617V347.617V347.616V347.616V347.616V347.615V347.615V347.615V347.614V347.614V347.614V347.613V347.613V347.613V347.612V347.612V347.612V347.611V347.611V347.611V347.61V347.61V347.61V347.609V347.609V347.609V347.608V347.608V347.608V347.607V347.607V347.607V347.606V347.606V347.606V347.605V347.605V347.605V347.604V347.604V347.603V347.603V347.603V347.602V347.602V347.602V347.601V347.601V347.601V347.6V347.6V347.6V347.599V347.599V347.599V347.598V347.598V347.598V347.597V347.597V347.597V347.596V347.596V347.596V347.595V347.595V347.595V347.594V347.594V347.594V347.593V347.593V347.592V347.592V347.592V347.591V347.591V347.591V347.59V347.59V347.59V347.589V347.589V347.589V347.588V347.588V347.588V347.587V347.587V347.587V347.586V347.586V347.585V347.585V347.585V347.584V347.584V347.584V347.583V347.583V347.583V347.582V347.582V347.582V347.581V347.581V347.581V347.58V347.58V347.579V347.579V347.579V347.578V347.578V347.578V347.577V347.577V347.577V347.576V347.576V347.576V347.575V347.575V347.575V347.574V347.574V347.573V347.573V347.573V347.572V347.572V347.572V347.571V347.571V347.571V347.57V347.57V347.57V347.569V347.569V347.568V347.568V347.568V347.567V347.567V347.567V347.566V347.566V347.566V347.565V347.565V347.565V347.564V347.564V347.563V347.563V347.563V347.562V347.562V347.562V347.561V347.561V347.561V347.56V347.56V347.56V347.559V347.559V347.558V347.558V347.558V347.557V347.557V347.557V347.556V347.556V347.556V347.555V347.555V347.555V347.554V347.554V347.553V347.553V347.553V347.552V347.552V347.552V347.551V347.551V347.551V347.55V347.55V347.55V347.549V347.549V347.548V347.548V347.548V347.547V347.547V347.547V347.546V347.546V347.546V347.545V347.545V347.545V347.544V347.544V347.544V347.543V347.543V347.542V347.542V347.542V347.541V347.541V347.541V347.54V347.54V347.54V347.539V347.539V347.539V347.538V347.538V347.538V347.537V347.537V347.536V347.536V347.536V347.535V347.535V347.535V347.534V347.534V347.534V347.533V347.533V347.533V347.532V347.532V347.532V347.531V347.531V347.531V347.53V347.53V347.529V347.529V347.529V347.528V347.528V347.528V347.527V347.527V347.527V347.526V347.526V347.526V347.525V347.525V347.525V347.524V347.524V347.524V347.523V347.523V347.523V347.522V347.522V347.522V347.521V347.521V347.52V347.52V347.52V347.519V347.519V347.519V347.518V347.518V347.518V347.517V347.517V347.517V347.516V347.516V347.516V347.515V347.515V347.515V347.514V347.514V347.514V347.513V347.513V347.513V347.512V347.512V347.512V347.511V347.511V347.511V347.51V347.51V347.51V347.509V347.509V347.509V347.508V347.508V347.508V347.507V347.507V347.507V347.506V347.506V347.506V347.505V347.505V347.505V347.504V347.504V347.504V347.503V347.503V347.503V347.502V347.502V347.502V347.501V347.501V347.501V347.5V347.5V347.5V347.499V347.499V347.499V347.498V347.498V347.498V347.498V347.497V347.497V347.497V347.496V347.496V347.496V347.495V347.495V347.495V347.494V347.494V347.494V347.493V347.493V347.493V347.492V347.492V347.492V347.492V347.491V347.491V347.491V347.49V347.49V347.49V347.489V347.489V347.489V347.488V347.488V347.488V347.487V347.487V347.487V347.487V347.486V347.486V347.486V347.485V347.485V347.485V347.484V347.484V347.484V347.484V347.483V347.483V347.483V347.482V347.482V347.482V347.481V347.481V347.481V347.481V347.48V347.48V347.48V347.479V347.479V347.479V347.479V347.478V347.478V347.478V347.477V347.477V347.477V347.476V347.476V347.476V347.476V347.475V347.155L1202.61 347.021C1200.76 346.172 1198.79 345.963 1196.82 346.454C1193.94 347.165 1191.4 349.346 1189.5 352.397C1187.58 355.453 1186.28 359.422 1185.87 363.801C1185.11 371.969 1187.61 380.079 1192.13 384.452C1194.7 386.948 1197.55 388.033 1200.67 387.409L1200.67 387.408C1203.7 386.788 1206.35 384.597 1208.33 381.457C1210.31 378.312 1211.64 374.175 1212.01 369.564L1212.01 369.563C1212.36 365.165 1211.84 360.809 1210.5 356.962C1210.46 356.837 1210.5 356.72 1210.55 356.673Z" stroke="#BA9FE7"/>
<path d="M29.8583 110.862C29.1436 110.862 28.4556 110.771 27.7943 110.59C27.1436 110.398 26.6263 110.169 26.2423 109.902L27.0103 108.382C27.3943 108.627 27.8529 108.83 28.3863 108.99C28.9196 109.15 29.4529 109.23 29.9863 109.23C30.6156 109.23 31.0689 109.145 31.3463 108.974C31.6343 108.803 31.7783 108.574 31.7783 108.286C31.7783 108.051 31.6823 107.875 31.4903 107.758C31.2983 107.63 31.0476 107.534 30.7383 107.47C30.4289 107.406 30.0823 107.347 29.6983 107.294C29.3249 107.241 28.9463 107.171 28.5623 107.086C28.1889 106.99 27.8476 106.857 27.5383 106.686C27.2289 106.505 26.9783 106.265 26.7863 105.966C26.5943 105.667 26.4983 105.273 26.4983 104.782C26.4983 104.238 26.6529 103.769 26.9622 103.374C27.2716 102.969 27.7036 102.659 28.2582 102.446C28.8236 102.222 29.4903 102.11 30.2583 102.11C30.8343 102.11 31.4156 102.174 32.0023 102.302C32.5889 102.43 33.0743 102.611 33.4583 102.846L32.6903 104.366C32.2849 104.121 31.8743 103.955 31.4583 103.87C31.0529 103.774 30.6476 103.726 30.2423 103.726C29.6343 103.726 29.1809 103.817 28.8823 103.998C28.5943 104.179 28.4503 104.409 28.4503 104.686C28.4503 104.942 28.5463 105.134 28.7383 105.262C28.9303 105.39 29.1809 105.491 29.4903 105.566C29.7996 105.641 30.1409 105.705 30.5143 105.758C30.8983 105.801 31.2769 105.87 31.6503 105.966C32.0236 106.062 32.3649 106.195 32.6743 106.366C32.9943 106.526 33.2503 106.755 33.4423 107.054C33.6343 107.353 33.7303 107.742 33.7303 108.222C33.7303 108.755 33.5703 109.219 33.2503 109.614C32.9409 110.009 32.4983 110.318 31.9223 110.542C31.3463 110.755 30.6583 110.862 29.8583 110.862ZM35.4526 110.75V98.878H37.4526V110.75H35.4526ZM43.9176 110.862C43.043 110.862 42.2643 110.675 41.5816 110.302C40.899 109.918 40.3603 109.395 39.9656 108.734C39.571 108.073 39.3736 107.321 39.3736 106.478C39.3736 105.625 39.571 104.873 39.9656 104.222C40.3603 103.561 40.899 103.043 41.5816 102.67C42.2643 102.297 43.043 102.11 43.9176 102.11C44.803 102.11 45.587 102.297 46.2696 102.67C46.963 103.043 47.5016 103.555 47.8856 104.206C48.2803 104.857 48.4776 105.614 48.4776 106.478C48.4776 107.321 48.2803 108.073 47.8856 108.734C47.5016 109.395 46.963 109.918 46.2696 110.302C45.587 110.675 44.803 110.862 43.9176 110.862ZM43.9176 109.15C44.4083 109.15 44.8456 109.043 45.2296 108.83C45.6136 108.617 45.9123 108.307 46.1256 107.902C46.3496 107.497 46.4616 107.022 46.4616 106.478C46.4616 105.923 46.3496 105.449 46.1256 105.054C45.9123 104.649 45.6136 104.339 45.2296 104.126C44.8456 103.913 44.4136 103.806 43.9336 103.806C43.443 103.806 43.0056 103.913 42.6216 104.126C42.2483 104.339 41.9496 104.649 41.7256 105.054C41.5016 105.449 41.3896 105.923 41.3896 106.478C41.3896 107.022 41.5016 107.497 41.7256 107.902C41.9496 108.307 42.2483 108.617 42.6216 108.83C43.0056 109.043 43.4376 109.15 43.9176 109.15ZM53.6061 110.862C52.6675 110.862 51.9421 110.622 51.4301 110.142C50.9181 109.651 50.6621 108.931 50.6621 107.982V100.318H52.6621V107.934C52.6621 108.339 52.7635 108.654 52.9661 108.878C53.1795 109.102 53.4728 109.214 53.8461 109.214C54.2941 109.214 54.6675 109.097 54.9661 108.862L55.5261 110.286C55.2915 110.478 55.0035 110.622 54.6621 110.718C54.3208 110.814 53.9688 110.862 53.6061 110.862ZM49.2541 103.87V102.27H54.9501V103.87H49.2541ZM59.8114 110.862C59.0967 110.862 58.4087 110.771 57.7474 110.59C57.0967 110.398 56.5794 110.169 56.1954 109.902L56.9634 108.382C57.3474 108.627 57.806 108.83 58.3394 108.99C58.8727 109.15 59.406 109.23 59.9394 109.23C60.5687 109.23 61.022 109.145 61.2994 108.974C61.5874 108.803 61.7314 108.574 61.7314 108.286C61.7314 108.051 61.6354 107.875 61.4434 107.758C61.2514 107.63 61.0007 107.534 60.6914 107.47C60.382 107.406 60.0354 107.347 59.6514 107.294C59.278 107.241 58.8994 107.171 58.5154 107.086C58.142 106.99 57.8007 106.857 57.4914 106.686C57.182 106.505 56.9314 106.265 56.7394 105.966C56.5474 105.667 56.4514 105.273 56.4514 104.782C56.4514 104.238 56.606 103.769 56.9154 103.374C57.2247 102.969 57.6567 102.659 58.2114 102.446C58.7767 102.222 59.4434 102.11 60.2114 102.11C60.7874 102.11 61.3687 102.174 61.9554 102.302C62.542 102.43 63.0274 102.611 63.4114 102.846L62.6434 104.366C62.238 104.121 61.8274 103.955 61.4114 103.87C61.006 103.774 60.6007 103.726 60.1954 103.726C59.5874 103.726 59.134 103.817 58.8354 103.998C58.5474 104.179 58.4034 104.409 58.4034 104.686C58.4034 104.942 58.4994 105.134 58.6914 105.262C58.8834 105.39 59.134 105.491 59.4434 105.566C59.7527 105.641 60.094 105.705 60.4674 105.758C60.8514 105.801 61.23 105.87 61.6034 105.966C61.9767 106.062 62.318 106.195 62.6274 106.366C62.9474 106.526 63.2034 106.755 63.3954 107.054C63.5874 107.353 63.6834 107.742 63.6834 108.222C63.6834 108.755 63.5234 109.219 63.2034 109.614C62.894 110.009 62.4514 110.318 61.8754 110.542C61.2994 110.755 60.6114 110.862 59.8114 110.862Z" fill="#F5F5F5"/>
<path d="M1304.42 138.862C1303.48 138.862 1302.75 138.622 1302.24 138.142C1301.73 137.651 1301.47 136.931 1301.47 135.982V128.318H1303.47V135.934C1303.47 136.339 1303.58 136.654 1303.78 136.878C1303.99 137.102 1304.29 137.214 1304.66 137.214C1305.11 137.214 1305.48 137.097 1305.78 136.862L1306.34 138.286C1306.1 138.478 1305.82 138.622 1305.47 138.718C1305.13 138.814 1304.78 138.862 1304.42 138.862ZM1300.07 131.87V130.27H1305.76V131.87H1300.07ZM1307.98 138.75V130.206H1309.98V138.75H1307.98ZM1308.99 128.798C1308.62 128.798 1308.31 128.681 1308.06 128.446C1307.83 128.211 1307.71 127.929 1307.71 127.598C1307.71 127.257 1307.83 126.974 1308.06 126.75C1308.31 126.515 1308.62 126.398 1308.99 126.398C1309.37 126.398 1309.67 126.51 1309.9 126.734C1310.15 126.947 1310.27 127.219 1310.27 127.55C1310.27 127.902 1310.15 128.201 1309.92 128.446C1309.69 128.681 1309.38 128.798 1308.99 128.798ZM1323.39 130.11C1324.08 130.11 1324.68 130.243 1325.2 130.51C1325.73 130.777 1326.15 131.187 1326.45 131.742C1326.75 132.286 1326.9 132.99 1326.9 133.854V138.75H1324.9V134.11C1324.9 133.353 1324.73 132.787 1324.4 132.414C1324.07 132.041 1323.6 131.854 1322.98 131.854C1322.54 131.854 1322.15 131.95 1321.81 132.142C1321.48 132.334 1321.22 132.617 1321.02 132.99C1320.84 133.363 1320.75 133.838 1320.75 134.414V138.75H1318.75V134.11C1318.75 133.353 1318.59 132.787 1318.26 132.414C1317.93 132.041 1317.45 131.854 1316.83 131.854C1316.4 131.854 1316.01 131.95 1315.66 132.142C1315.33 132.334 1315.07 132.617 1314.88 132.99C1314.7 133.363 1314.61 133.838 1314.61 134.414V138.75H1312.61V130.206H1314.51V132.478L1314.18 131.806C1314.46 131.251 1314.88 130.83 1315.42 130.542C1315.98 130.254 1316.61 130.11 1317.31 130.11C1318.11 130.11 1318.81 130.307 1319.39 130.702C1319.99 131.097 1320.38 131.694 1320.58 132.494L1319.79 132.222C1320.07 131.582 1320.53 131.07 1321.17 130.686C1321.81 130.302 1322.55 130.11 1323.39 130.11ZM1333.48 138.862C1332.53 138.862 1331.7 138.675 1330.99 138.302C1330.28 137.918 1329.73 137.395 1329.34 136.734C1328.96 136.073 1328.76 135.321 1328.76 134.478C1328.76 133.625 1328.95 132.873 1329.32 132.222C1329.71 131.561 1330.23 131.043 1330.89 130.67C1331.56 130.297 1332.33 130.11 1333.18 130.11C1334.01 130.11 1334.75 130.291 1335.4 130.654C1336.05 131.017 1336.57 131.529 1336.94 132.19C1337.31 132.851 1337.5 133.63 1337.5 134.526C1337.5 134.611 1337.49 134.707 1337.48 134.814C1337.48 134.921 1337.48 135.022 1337.47 135.118H1330.35V133.79H1336.41L1335.63 134.206C1335.64 133.715 1335.54 133.283 1335.32 132.91C1335.11 132.537 1334.82 132.243 1334.44 132.03C1334.08 131.817 1333.66 131.71 1333.18 131.71C1332.69 131.71 1332.26 131.817 1331.88 132.03C1331.52 132.243 1331.23 132.542 1331.02 132.926C1330.82 133.299 1330.72 133.742 1330.72 134.254V134.574C1330.72 135.086 1330.83 135.539 1331.07 135.934C1331.3 136.329 1331.63 136.633 1332.06 136.846C1332.49 137.059 1332.98 137.166 1333.53 137.166C1334.01 137.166 1334.44 137.091 1334.83 136.942C1335.21 136.793 1335.55 136.558 1335.85 136.238L1336.92 137.47C1336.54 137.918 1336.05 138.265 1335.47 138.51C1334.89 138.745 1334.23 138.862 1333.48 138.862Z" fill="#F5F5F5"/>
<path d="M226.449 70.75V60.35L227.361 61.294H224.081V59.55H228.529V70.75H226.449Z" fill="#F5F5F5"/>
<path d="M316.404 70.75V69.358L320.852 65.134C321.225 64.782 321.502 64.4727 321.684 64.206C321.865 63.9393 321.982 63.694 322.036 63.47C322.1 63.2353 322.132 63.0167 322.132 62.814C322.132 62.302 321.956 61.9073 321.604 61.63C321.252 61.342 320.734 61.198 320.052 61.198C319.508 61.198 319.012 61.294 318.564 61.486C318.126 61.678 317.748 61.9713 317.428 62.366L315.972 61.246C316.409 60.6593 316.996 60.206 317.732 59.886C318.478 59.5553 319.31 59.39 320.228 59.39C321.038 59.39 321.742 59.5233 322.34 59.79C322.948 60.046 323.412 60.414 323.732 60.894C324.062 61.374 324.228 61.9447 324.228 62.606C324.228 62.9687 324.18 63.3313 324.084 63.694C323.988 64.046 323.806 64.4193 323.54 64.814C323.273 65.2087 322.884 65.6513 322.372 66.142L318.548 69.774L318.116 68.99H324.66V70.75H316.404Z" fill="#F5F5F5"/>
<path d="M414.068 70.91C413.278 70.91 412.505 70.798 411.748 70.574C411.001 70.3393 410.372 70.0193 409.86 69.614L410.756 67.998C411.161 68.3287 411.652 68.5953 412.228 68.798C412.804 69.0007 413.406 69.102 414.036 69.102C414.782 69.102 415.364 68.9527 415.78 68.654C416.196 68.3447 416.404 67.9287 416.404 67.406C416.404 66.894 416.212 66.4887 415.828 66.19C415.444 65.8913 414.825 65.742 413.972 65.742H412.948V64.318L416.148 60.51L416.42 61.294H410.404V59.55H418.036V60.942L414.836 64.75L413.748 64.11H414.372C415.748 64.11 416.777 64.4193 417.46 65.038C418.153 65.646 418.5 66.43 418.5 67.39C418.5 68.0193 418.34 68.6007 418.02 69.134C417.7 69.6673 417.209 70.0993 416.548 70.43C415.897 70.75 415.07 70.91 414.068 70.91Z" fill="#F5F5F5"/>
<path d="M504.114 68.206V66.766L509.634 59.55H511.858L506.418 66.766L505.378 66.446H514.258V68.206H504.114ZM510.258 70.75V68.206L510.322 66.446V64.19H512.274V70.75H510.258Z" fill="#F5F5F5"/>
<path d="M740.671 70.862C740.308 70.862 739.999 70.7393 739.743 70.494C739.487 70.238 739.359 69.918 739.359 69.534C739.359 69.1287 739.487 68.8087 739.743 68.574C739.999 68.3287 740.308 68.206 740.671 68.206C741.033 68.206 741.343 68.3287 741.599 68.574C741.855 68.8087 741.983 69.1287 741.983 69.534C741.983 69.918 741.855 70.238 741.599 70.494C741.343 70.7393 741.033 70.862 740.671 70.862ZM748.999 70.862C748.636 70.862 748.327 70.7393 748.071 70.494C747.815 70.238 747.687 69.918 747.687 69.534C747.687 69.1287 747.815 68.8087 748.071 68.574C748.327 68.3287 748.636 68.206 748.999 68.206C749.362 68.206 749.671 68.3287 749.927 68.574C750.183 68.8087 750.311 69.1287 750.311 69.534C750.311 69.918 750.183 70.238 749.927 70.494C749.671 70.7393 749.362 70.862 748.999 70.862ZM757.327 70.862C756.964 70.862 756.655 70.7393 756.399 70.494C756.143 70.238 756.015 69.918 756.015 69.534C756.015 69.1287 756.143 68.8087 756.399 68.574C756.655 68.3287 756.964 68.206 757.327 68.206C757.69 68.206 757.999 68.3287 758.255 68.574C758.511 68.8087 758.639 69.1287 758.639 69.534C758.639 69.918 758.511 70.238 758.255 70.494C757.999 70.7393 757.69 70.862 757.327 70.862Z" fill="#BA9FE7"/>
<path d="M33.9754 174.862C33.2608 174.862 32.5728 174.771 31.9114 174.59C31.2608 174.398 30.7434 174.169 30.3594 173.902L31.1274 172.382C31.5114 172.627 31.9701 172.83 32.5034 172.99C33.0368 173.15 33.5701 173.23 34.1034 173.23C34.7328 173.23 35.1861 173.145 35.4634 172.974C35.7514 172.803 35.8954 172.574 35.8954 172.286C35.8954 172.051 35.7994 171.875 35.6074 171.758C35.4154 171.63 35.1648 171.534 34.8554 171.47C34.5461 171.406 34.1994 171.347 33.8154 171.294C33.4421 171.241 33.0634 171.171 32.6794 171.086C32.3061 170.99 31.9648 170.857 31.6554 170.686C31.3461 170.505 31.0954 170.265 30.9034 169.966C30.7114 169.667 30.6154 169.273 30.6154 168.782C30.6154 168.238 30.7701 167.769 31.0794 167.374C31.3888 166.969 31.8208 166.659 32.3754 166.446C32.9408 166.222 33.6074 166.11 34.3754 166.11C34.9514 166.11 35.5328 166.174 36.1194 166.302C36.7061 166.43 37.1914 166.611 37.5754 166.846L36.8074 168.366C36.4021 168.121 35.9914 167.955 35.5754 167.87C35.1701 167.774 34.7648 167.726 34.3594 167.726C33.7514 167.726 33.2981 167.817 32.9994 167.998C32.7114 168.179 32.5674 168.409 32.5674 168.686C32.5674 168.942 32.6634 169.134 32.8554 169.262C33.0474 169.39 33.2981 169.491 33.6074 169.566C33.9168 169.641 34.2581 169.705 34.6314 169.758C35.0154 169.801 35.3941 169.87 35.7674 169.966C36.1408 170.062 36.4821 170.195 36.7914 170.366C37.1114 170.526 37.3674 170.755 37.5594 171.054C37.7514 171.353 37.8474 171.742 37.8474 172.222C37.8474 172.755 37.6874 173.219 37.3674 173.614C37.0581 174.009 36.6154 174.318 36.0394 174.542C35.4634 174.755 34.7754 174.862 33.9754 174.862ZM39.5698 174.75V162.878H41.5698V174.75H39.5698ZM48.0348 174.862C47.1601 174.862 46.3815 174.675 45.6988 174.302C45.0161 173.918 44.4775 173.395 44.0828 172.734C43.6881 172.073 43.4908 171.321 43.4908 170.478C43.4908 169.625 43.6881 168.873 44.0828 168.222C44.4775 167.561 45.0161 167.043 45.6988 166.67C46.3815 166.297 47.1601 166.11 48.0348 166.11C48.9201 166.11 49.7041 166.297 50.3868 166.67C51.0801 167.043 51.6188 167.555 52.0028 168.206C52.3975 168.857 52.5948 169.614 52.5948 170.478C52.5948 171.321 52.3975 172.073 52.0028 172.734C51.6188 173.395 51.0801 173.918 50.3868 174.302C49.7041 174.675 48.9201 174.862 48.0348 174.862ZM48.0348 173.15C48.5255 173.15 48.9628 173.043 49.3468 172.83C49.7308 172.617 50.0295 172.307 50.2428 171.902C50.4668 171.497 50.5788 171.022 50.5788 170.478C50.5788 169.923 50.4668 169.449 50.2428 169.054C50.0295 168.649 49.7308 168.339 49.3468 168.126C48.9628 167.913 48.5308 167.806 48.0508 167.806C47.5601 167.806 47.1228 167.913 46.7388 168.126C46.3655 168.339 46.0668 168.649 45.8428 169.054C45.6188 169.449 45.5068 169.923 45.5068 170.478C45.5068 171.022 45.6188 171.497 45.8428 171.902C46.0668 172.307 46.3655 172.617 46.7388 172.83C47.1228 173.043 47.5548 173.15 48.0348 173.15ZM57.7233 174.862C56.7846 174.862 56.0593 174.622 55.5473 174.142C55.0353 173.651 54.7793 172.931 54.7793 171.982V164.318H56.7793V171.934C56.7793 172.339 56.8806 172.654 57.0833 172.878C57.2966 173.102 57.59 173.214 57.9633 173.214C58.4113 173.214 58.7846 173.097 59.0833 172.862L59.6433 174.286C59.4086 174.478 59.1206 174.622 58.7793 174.718C58.438 174.814 58.086 174.862 57.7233 174.862ZM53.3713 167.87V166.27H59.0673V167.87H53.3713ZM5.55231 194.862C4.65631 194.862 3.85631 194.675 3.15231 194.302C2.45898 193.918 1.91498 193.395 1.52031 192.734C1.12565 192.073 0.928313 191.321 0.928313 190.478C0.928313 189.625 1.12565 188.873 1.52031 188.222C1.91498 187.561 2.45898 187.043 3.15231 186.67C3.85631 186.297 4.65631 186.11 5.55231 186.11C6.38431 186.11 7.11498 186.281 7.74431 186.622C8.38431 186.953 8.86965 187.443 9.20031 188.094L7.66431 188.99C7.40831 188.585 7.09365 188.286 6.72031 188.094C6.35765 187.902 5.96298 187.806 5.53631 187.806C5.04565 187.806 4.60298 187.913 4.20831 188.126C3.81365 188.339 3.50431 188.649 3.28031 189.054C3.05631 189.449 2.94431 189.923 2.94431 190.478C2.94431 191.033 3.05631 191.513 3.28031 191.918C3.50431 192.313 3.81365 192.617 4.20831 192.83C4.60298 193.043 5.04565 193.15 5.53631 193.15C5.96298 193.15 6.35765 193.054 6.72031 192.862C7.09365 192.67 7.40831 192.371 7.66431 191.966L9.20031 192.862C8.86965 193.502 8.38431 193.998 7.74431 194.35C7.11498 194.691 6.38431 194.862 5.55231 194.862ZM15.6991 186.11C16.3817 186.11 16.9897 186.243 17.5231 186.51C18.0671 186.777 18.4937 187.187 18.8031 187.742C19.1124 188.286 19.2671 188.99 19.2671 189.854V194.75H17.2671V190.11C17.2671 189.353 17.0857 188.787 16.7231 188.414C16.3711 188.041 15.8751 187.854 15.2351 187.854C14.7657 187.854 14.3497 187.95 13.9871 188.142C13.6244 188.334 13.3417 188.622 13.1391 189.006C12.9471 189.379 12.8511 189.854 12.8511 190.43V194.75H10.8511V182.878H12.8511V188.51L12.4191 187.806C12.7177 187.262 13.1497 186.846 13.7151 186.558C14.2911 186.259 14.9524 186.11 15.6991 186.11ZM27.0682 194.75V193.022L26.9562 192.654V189.63C26.9562 189.043 26.7802 188.59 26.4282 188.27C26.0762 187.939 25.5429 187.774 24.8282 187.774C24.3482 187.774 23.8735 187.849 23.4042 187.998C22.9455 188.147 22.5562 188.355 22.2362 188.622L21.4522 187.166C21.9109 186.814 22.4549 186.553 23.0842 186.382C23.7242 186.201 24.3855 186.11 25.0682 186.11C26.3055 186.11 27.2602 186.409 27.9322 187.006C28.6149 187.593 28.9562 188.505 28.9562 189.742V194.75H27.0682ZM24.3802 194.862C23.7402 194.862 23.1802 194.755 22.7002 194.542C22.2202 194.318 21.8469 194.014 21.5802 193.63C21.3242 193.235 21.1962 192.793 21.1962 192.302C21.1962 191.822 21.3082 191.39 21.5322 191.006C21.7669 190.622 22.1455 190.318 22.6682 190.094C23.1909 189.87 23.8842 189.758 24.7482 189.758H27.2282V191.086H24.8922C24.2095 191.086 23.7509 191.198 23.5162 191.422C23.2815 191.635 23.1642 191.902 23.1642 192.222C23.1642 192.585 23.3082 192.873 23.5962 193.086C23.8842 193.299 24.2842 193.406 24.7962 193.406C25.2869 193.406 25.7242 193.294 26.1082 193.07C26.5029 192.846 26.7855 192.515 26.9562 192.078L27.2922 193.278C27.1002 193.779 26.7535 194.169 26.2522 194.446C25.7615 194.723 25.1375 194.862 24.3802 194.862ZM31.5229 194.75V182.878H33.5229V194.75H31.5229ZM36.1479 194.75V182.878H38.1479V194.75H36.1479ZM44.7889 194.862C43.8396 194.862 43.0076 194.675 42.2929 194.302C41.5889 193.918 41.0396 193.395 40.6449 192.734C40.2609 192.073 40.0689 191.321 40.0689 190.478C40.0689 189.625 40.2556 188.873 40.6289 188.222C41.0129 187.561 41.5356 187.043 42.1969 186.67C42.8689 186.297 43.6316 186.11 44.4849 186.11C45.3169 186.11 46.0583 186.291 46.7089 186.654C47.3596 187.017 47.8716 187.529 48.2449 188.19C48.6183 188.851 48.8049 189.63 48.8049 190.526C48.8049 190.611 48.7996 190.707 48.7889 190.814C48.7889 190.921 48.7836 191.022 48.7729 191.118H41.6529V189.79H47.7169L46.9329 190.206C46.9436 189.715 46.8423 189.283 46.6289 188.91C46.4156 188.537 46.1223 188.243 45.7489 188.03C45.3863 187.817 44.9649 187.71 44.4849 187.71C43.9943 187.71 43.5623 187.817 43.1889 188.03C42.8263 188.243 42.5383 188.542 42.3249 188.926C42.1223 189.299 42.0209 189.742 42.0209 190.254V190.574C42.0209 191.086 42.1383 191.539 42.3729 191.934C42.6076 192.329 42.9383 192.633 43.3649 192.846C43.7916 193.059 44.2823 193.166 44.8369 193.166C45.3169 193.166 45.7489 193.091 46.1329 192.942C46.5169 192.793 46.8583 192.558 47.1569 192.238L48.2289 193.47C47.8449 193.918 47.3596 194.265 46.7729 194.51C46.1969 194.745 45.5356 194.862 44.7889 194.862ZM55.5741 186.11C56.2567 186.11 56.8647 186.243 57.3981 186.51C57.9421 186.777 58.3687 187.187 58.6781 187.742C58.9874 188.286 59.1421 188.99 59.1421 189.854V194.75H57.1421V190.11C57.1421 189.353 56.9607 188.787 56.5981 188.414C56.2461 188.041 55.7501 187.854 55.1101 187.854C54.6407 187.854 54.2247 187.95 53.8621 188.142C53.4994 188.334 53.2167 188.622 53.0141 189.006C52.8221 189.379 52.7261 189.854 52.7261 190.43V194.75H50.7261V186.206H52.6301V188.51L52.2941 187.806C52.5927 187.262 53.0247 186.846 53.5901 186.558C54.1661 186.259 54.8274 186.11 55.5741 186.11ZM65.5668 197.966C64.7775 197.966 64.0041 197.859 63.2468 197.646C62.5001 197.443 61.8868 197.145 61.4068 196.75L62.3028 195.246C62.6761 195.555 63.1455 195.801 63.7108 195.982C64.2868 196.174 64.8681 196.27 65.4548 196.27C66.3935 196.27 67.0815 196.051 67.5188 195.614C67.9561 195.187 68.1748 194.542 68.1748 193.678V192.158L68.3348 190.222L68.2708 188.286V186.206H70.1748V193.454C70.1748 195.001 69.7801 196.137 68.9908 196.862C68.2015 197.598 67.0601 197.966 65.5668 197.966ZM65.3108 194.366C64.5001 194.366 63.7641 194.195 63.1028 193.854C62.4521 193.502 61.9348 193.017 61.5508 192.398C61.1775 191.779 60.9908 191.054 60.9908 190.222C60.9908 189.401 61.1775 188.681 61.5508 188.062C61.9348 187.443 62.4521 186.963 63.1028 186.622C63.7641 186.281 64.5001 186.11 65.3108 186.11C66.0361 186.11 66.6868 186.254 67.2628 186.542C67.8388 186.83 68.2975 187.278 68.6388 187.886C68.9908 188.494 69.1668 189.273 69.1668 190.222C69.1668 191.171 68.9908 191.955 68.6388 192.574C68.2975 193.182 67.8388 193.635 67.2628 193.934C66.6868 194.222 66.0361 194.366 65.3108 194.366ZM65.6148 192.67C66.1161 192.67 66.5641 192.569 66.9588 192.366C67.3535 192.153 67.6575 191.865 67.8708 191.502C68.0948 191.129 68.2068 190.702 68.2068 190.222C68.2068 189.742 68.0948 189.321 67.8708 188.958C67.6575 188.585 67.3535 188.302 66.9588 188.11C66.5641 187.907 66.1161 187.806 65.6148 187.806C65.1135 187.806 64.6601 187.907 64.2548 188.11C63.8601 188.302 63.5508 188.585 63.3268 188.958C63.1135 189.321 63.0068 189.742 63.0068 190.222C63.0068 190.702 63.1135 191.129 63.3268 191.502C63.5508 191.865 63.8601 192.153 64.2548 192.366C64.6601 192.569 65.1135 192.67 65.6148 192.67ZM76.8202 194.862C75.8709 194.862 75.0389 194.675 74.3242 194.302C73.6202 193.918 73.0709 193.395 72.6762 192.734C72.2922 192.073 72.1002 191.321 72.1002 190.478C72.1002 189.625 72.2869 188.873 72.6602 188.222C73.0442 187.561 73.5669 187.043 74.2282 186.67C74.9002 186.297 75.6629 186.11 76.5162 186.11C77.3482 186.11 78.0895 186.291 78.7402 186.654C79.3909 187.017 79.9029 187.529 80.2762 188.19C80.6495 188.851 80.8362 189.63 80.8362 190.526C80.8362 190.611 80.8309 190.707 80.8202 190.814C80.8202 190.921 80.8149 191.022 80.8042 191.118H73.6842V189.79H79.7482L78.9642 190.206C78.9749 189.715 78.8735 189.283 78.6602 188.91C78.4469 188.537 78.1535 188.243 77.7802 188.03C77.4175 187.817 76.9962 187.71 76.5162 187.71C76.0255 187.71 75.5935 187.817 75.2202 188.03C74.8575 188.243 74.5695 188.542 74.3562 188.926C74.1535 189.299 74.0522 189.742 74.0522 190.254V190.574C74.0522 191.086 74.1695 191.539 74.4042 191.934C74.6389 192.329 74.9695 192.633 75.3962 192.846C75.8229 193.059 76.3135 193.166 76.8682 193.166C77.3482 193.166 77.7802 193.091 78.1642 192.942C78.5482 192.793 78.8895 192.558 79.1882 192.238L80.2602 193.47C79.8762 193.918 79.3909 194.265 78.8042 194.51C78.2282 194.745 77.5669 194.862 76.8202 194.862ZM85.3973 194.862C84.6826 194.862 83.9946 194.771 83.3333 194.59C82.6826 194.398 82.1653 194.169 81.7813 193.902L82.5493 192.382C82.9333 192.627 83.392 192.83 83.9253 192.99C84.4586 193.15 84.992 193.23 85.5253 193.23C86.1546 193.23 86.608 193.145 86.8853 192.974C87.1733 192.803 87.3173 192.574 87.3173 192.286C87.3173 192.051 87.2213 191.875 87.0293 191.758C86.8373 191.63 86.5866 191.534 86.2773 191.47C85.968 191.406 85.6213 191.347 85.2373 191.294C84.864 191.241 84.4853 191.171 84.1013 191.086C83.728 190.99 83.3866 190.857 83.0773 190.686C82.768 190.505 82.5173 190.265 82.3253 189.966C82.1333 189.667 82.0373 189.273 82.0373 188.782C82.0373 188.238 82.192 187.769 82.5013 187.374C82.8106 186.969 83.2426 186.659 83.7973 186.446C84.3626 186.222 85.0293 186.11 85.7973 186.11C86.3733 186.11 86.9546 186.174 87.5413 186.302C88.128 186.43 88.6133 186.611 88.9973 186.846L88.2293 188.366C87.824 188.121 87.4133 187.955 86.9973 187.87C86.592 187.774 86.1866 187.726 85.7813 187.726C85.1733 187.726 84.72 187.817 84.4213 187.998C84.1333 188.179 83.9893 188.409 83.9893 188.686C83.9893 188.942 84.0853 189.134 84.2773 189.262C84.4693 189.39 84.72 189.491 85.0293 189.566C85.3386 189.641 85.68 189.705 86.0533 189.758C86.4373 189.801 86.816 189.87 87.1893 189.966C87.5626 190.062 87.904 190.195 88.2133 190.366C88.5333 190.526 88.7893 190.755 88.9813 191.054C89.1733 191.353 89.2693 191.742 89.2693 192.222C89.2693 192.755 89.1093 193.219 88.7893 193.614C88.48 194.009 88.0373 194.318 87.4613 194.542C86.8853 194.755 86.1973 194.862 85.3973 194.862Z" fill="#F5F5F5"/>
<path d="M24.4152 354.862C23.6899 354.862 23.0445 354.702 22.4792 354.382C21.9139 354.062 21.4659 353.582 21.1352 352.942C20.8152 352.291 20.6552 351.47 20.6552 350.478C20.6552 349.475 20.8205 348.654 21.1512 348.014C21.4925 347.374 21.9459 346.899 22.5112 346.59C23.0872 346.27 23.7219 346.11 24.4152 346.11C25.2579 346.11 25.9992 346.291 26.6392 346.654C27.2899 347.017 27.8019 347.523 28.1752 348.174C28.5592 348.825 28.7512 349.593 28.7512 350.478C28.7512 351.363 28.5592 352.131 28.1752 352.782C27.8019 353.433 27.2899 353.945 26.6392 354.318C25.9992 354.681 25.2579 354.862 24.4152 354.862ZM19.6792 354.75V342.878H21.6792V348.19L21.5192 350.462L21.5832 352.734V354.75H19.6792ZM24.1912 353.15C24.6712 353.15 25.0979 353.043 25.4712 352.83C25.8552 352.617 26.1592 352.307 26.3832 351.902C26.6072 351.497 26.7192 351.022 26.7192 350.478C26.7192 349.923 26.6072 349.449 26.3832 349.054C26.1592 348.649 25.8552 348.339 25.4712 348.126C25.0979 347.913 24.6712 347.806 24.1912 347.806C23.7112 347.806 23.2792 347.913 22.8952 348.126C22.5112 348.339 22.2072 348.649 21.9832 349.054C21.7592 349.449 21.6472 349.923 21.6472 350.478C21.6472 351.022 21.7592 351.497 21.9832 351.902C22.2072 352.307 22.5112 352.617 22.8952 352.83C23.2792 353.043 23.7112 353.15 24.1912 353.15ZM30.6479 354.75V342.878H32.6479V354.75H30.6479ZM39.1129 354.862C38.2383 354.862 37.4596 354.675 36.7769 354.302C36.0943 353.918 35.5556 353.395 35.1609 352.734C34.7663 352.073 34.5689 351.321 34.5689 350.478C34.5689 349.625 34.7663 348.873 35.1609 348.222C35.5556 347.561 36.0943 347.043 36.7769 346.67C37.4596 346.297 38.2383 346.11 39.1129 346.11C39.9983 346.11 40.7823 346.297 41.4649 346.67C42.1583 347.043 42.6969 347.555 43.0809 348.206C43.4756 348.857 43.6729 349.614 43.6729 350.478C43.6729 351.321 43.4756 352.073 43.0809 352.734C42.6969 353.395 42.1583 353.918 41.4649 354.302C40.7823 354.675 39.9983 354.862 39.1129 354.862ZM39.1129 353.15C39.6036 353.15 40.0409 353.043 40.4249 352.83C40.8089 352.617 41.1076 352.307 41.3209 351.902C41.5449 351.497 41.6569 351.022 41.6569 350.478C41.6569 349.923 41.5449 349.449 41.3209 349.054C41.1076 348.649 40.8089 348.339 40.4249 348.126C40.0409 347.913 39.6089 347.806 39.1289 347.806C38.6383 347.806 38.2009 347.913 37.8169 348.126C37.4436 348.339 37.1449 348.649 36.9209 349.054C36.6969 349.449 36.5849 349.923 36.5849 350.478C36.5849 351.022 36.6969 351.497 36.9209 351.902C37.1449 352.307 37.4436 352.617 37.8169 352.83C38.2009 353.043 38.6329 353.15 39.1129 353.15ZM49.5054 354.862C48.6094 354.862 47.8094 354.675 47.1054 354.302C46.4121 353.918 45.8681 353.395 45.4734 352.734C45.0788 352.073 44.8814 351.321 44.8814 350.478C44.8814 349.625 45.0788 348.873 45.4734 348.222C45.8681 347.561 46.4121 347.043 47.1054 346.67C47.8094 346.297 48.6094 346.11 49.5054 346.11C50.3374 346.11 51.0681 346.281 51.6974 346.622C52.3374 346.953 52.8228 347.443 53.1534 348.094L51.6174 348.99C51.3614 348.585 51.0468 348.286 50.6734 348.094C50.3108 347.902 49.9161 347.806 49.4894 347.806C48.9988 347.806 48.5561 347.913 48.1614 348.126C47.7668 348.339 47.4574 348.649 47.2334 349.054C47.0094 349.449 46.8974 349.923 46.8974 350.478C46.8974 351.033 47.0094 351.513 47.2334 351.918C47.4574 352.313 47.7668 352.617 48.1614 352.83C48.5561 353.043 48.9988 353.15 49.4894 353.15C49.9161 353.15 50.3108 353.054 50.6734 352.862C51.0468 352.67 51.3614 352.371 51.6174 351.966L53.1534 352.862C52.8228 353.502 52.3374 353.998 51.6974 354.35C51.0681 354.691 50.3374 354.862 49.5054 354.862ZM56.4362 352.846L56.4842 350.334L60.9482 346.206H63.3482L59.5562 350.014L58.5002 350.894L56.4362 352.846ZM54.8042 354.75V342.878H56.8042V354.75H54.8042ZM61.2522 354.75L58.1322 350.894L59.3962 349.294L63.6842 354.75H61.2522ZM67.3504 354.862C66.6358 354.862 65.9478 354.771 65.2864 354.59C64.6358 354.398 64.1184 354.169 63.7344 353.902L64.5024 352.382C64.8864 352.627 65.3451 352.83 65.8784 352.99C66.4118 353.15 66.9451 353.23 67.4784 353.23C68.1078 353.23 68.5611 353.145 68.8384 352.974C69.1264 352.803 69.2704 352.574 69.2704 352.286C69.2704 352.051 69.1744 351.875 68.9824 351.758C68.7904 351.63 68.5398 351.534 68.2304 351.47C67.9211 351.406 67.5744 351.347 67.1904 351.294C66.8171 351.241 66.4384 351.171 66.0544 351.086C65.6811 350.99 65.3398 350.857 65.0304 350.686C64.7211 350.505 64.4704 350.265 64.2784 349.966C64.0864 349.667 63.9904 349.273 63.9904 348.782C63.9904 348.238 64.1451 347.769 64.4544 347.374C64.7638 346.969 65.1958 346.659 65.7504 346.446C66.3158 346.222 66.9824 346.11 67.7504 346.11C68.3264 346.11 68.9078 346.174 69.4944 346.302C70.0811 346.43 70.5664 346.611 70.9504 346.846L70.1824 348.366C69.7771 348.121 69.3664 347.955 68.9504 347.87C68.5451 347.774 68.1398 347.726 67.7344 347.726C67.1264 347.726 66.6731 347.817 66.3744 347.998C66.0864 348.179 65.9424 348.409 65.9424 348.686C65.9424 348.942 66.0384 349.134 66.2304 349.262C66.4224 349.39 66.6731 349.491 66.9824 349.566C67.2918 349.641 67.6331 349.705 68.0064 349.758C68.3904 349.801 68.7691 349.87 69.1424 349.966C69.5158 350.062 69.8571 350.195 70.1664 350.366C70.4864 350.526 70.7424 350.755 70.9344 351.054C71.1264 351.353 71.2224 351.742 71.2224 352.222C71.2224 352.755 71.0624 353.219 70.7424 353.614C70.4331 354.009 69.9904 354.318 69.4144 354.542C68.8384 354.755 68.1504 354.862 67.3504 354.862Z" fill="#F5F5F5"/>
</svg>
