<svg width="1035" height="387" viewBox="0 0 1035 387" fill="none" xmlns="http://www.w3.org/2000/svg">
<circle cx="895" cy="197" r="109.5" fill="white" stroke="#211433"/>
<mask id="path-2-inside-1_206_796" fill="white">
<path d="M858.947 93.0764C838.392 100.207 820.414 113.273 807.286 130.621C794.157 147.969 786.468 168.821 785.19 190.54C783.913 212.258 789.104 233.868 800.108 252.636C811.111 271.404 827.433 286.487 847.009 295.979L895.001 197L858.947 93.0764Z"/>
</mask>
<path d="M858.947 93.0764C838.392 100.207 820.414 113.273 807.286 130.621C794.157 147.969 786.468 168.821 785.19 190.54C783.913 212.258 789.104 233.868 800.108 252.636C811.111 271.404 827.433 286.487 847.009 295.979L895.001 197L858.947 93.0764Z" fill="#7EC8A2" stroke="#211433" stroke-width="2" mask="url(#path-2-inside-1_206_796)"/>
<path d="M824.56 189.315V179.515H828.802C829.679 179.515 830.435 179.66 831.07 179.949C831.705 180.229 832.195 180.635 832.54 181.167C832.885 181.699 833.058 182.334 833.058 183.071C833.058 183.799 832.885 184.429 832.54 184.961C832.195 185.484 831.705 185.885 831.07 186.165C830.435 186.445 829.679 186.585 828.802 186.585H825.82L826.828 185.591V189.315H824.56ZM830.79 189.315L828.34 185.759H830.762L833.24 189.315H830.79ZM826.828 185.843L825.82 184.779H828.676C829.376 184.779 829.899 184.63 830.244 184.331C830.589 184.023 830.762 183.603 830.762 183.071C830.762 182.53 830.589 182.11 830.244 181.811C829.899 181.512 829.376 181.363 828.676 181.363H825.82L826.828 180.285V185.843ZM839.253 189.315V187.845L839.113 187.523V184.891C839.113 184.424 838.968 184.06 838.679 183.799C838.399 183.538 837.965 183.407 837.377 183.407C836.975 183.407 836.579 183.472 836.187 183.603C835.804 183.724 835.477 183.892 835.207 184.107L834.423 182.581C834.833 182.292 835.328 182.068 835.907 181.909C836.485 181.75 837.073 181.671 837.671 181.671C838.819 181.671 839.71 181.942 840.345 182.483C840.979 183.024 841.297 183.869 841.297 185.017V189.315H839.253ZM836.957 189.427C836.369 189.427 835.865 189.329 835.445 189.133C835.025 188.928 834.703 188.652 834.479 188.307C834.255 187.962 834.143 187.574 834.143 187.145C834.143 186.697 834.25 186.305 834.465 185.969C834.689 185.633 835.039 185.372 835.515 185.185C835.991 184.989 836.611 184.891 837.377 184.891H839.379V186.165H837.615C837.101 186.165 836.747 186.249 836.551 186.417C836.364 186.585 836.271 186.795 836.271 187.047C836.271 187.327 836.378 187.551 836.593 187.719C836.817 187.878 837.12 187.957 837.503 187.957C837.867 187.957 838.193 187.873 838.483 187.705C838.772 187.528 838.982 187.271 839.113 186.935L839.449 187.943C839.29 188.428 839.001 188.797 838.581 189.049C838.161 189.301 837.619 189.427 836.957 189.427ZM844.858 189.315L842.142 181.783H844.2L846.454 188.265H845.474L847.826 181.783H849.674L851.956 188.265H850.976L853.3 181.783H855.232L852.502 189.315H850.388L848.386 183.757H849.03L846.958 189.315H844.858ZM827.78 206.483C826.996 206.483 826.245 206.38 825.526 206.175C824.807 205.96 824.229 205.685 823.79 205.349L824.56 203.641C824.98 203.94 825.475 204.187 826.044 204.383C826.623 204.57 827.206 204.663 827.794 204.663C828.242 204.663 828.601 204.621 828.872 204.537C829.152 204.444 829.357 204.318 829.488 204.159C829.619 204 829.684 203.818 829.684 203.613C829.684 203.352 829.581 203.146 829.376 202.997C829.171 202.838 828.9 202.712 828.564 202.619C828.228 202.516 827.855 202.423 827.444 202.339C827.043 202.246 826.637 202.134 826.226 202.003C825.825 201.872 825.456 201.704 825.12 201.499C824.784 201.294 824.509 201.023 824.294 200.687C824.089 200.351 823.986 199.922 823.986 199.399C823.986 198.839 824.135 198.33 824.434 197.873C824.742 197.406 825.199 197.038 825.806 196.767C826.422 196.487 827.192 196.347 828.116 196.347C828.732 196.347 829.339 196.422 829.936 196.571C830.533 196.711 831.061 196.926 831.518 197.215L830.818 198.937C830.361 198.676 829.903 198.484 829.446 198.363C828.989 198.232 828.541 198.167 828.102 198.167C827.663 198.167 827.304 198.218 827.024 198.321C826.744 198.424 826.543 198.559 826.422 198.727C826.301 198.886 826.24 199.072 826.24 199.287C826.24 199.539 826.343 199.744 826.548 199.903C826.753 200.052 827.024 200.174 827.36 200.267C827.696 200.36 828.065 200.454 828.466 200.547C828.877 200.64 829.283 200.748 829.684 200.869C830.095 200.99 830.468 201.154 830.804 201.359C831.14 201.564 831.411 201.835 831.616 202.171C831.831 202.507 831.938 202.932 831.938 203.445C831.938 203.996 831.784 204.5 831.476 204.957C831.168 205.414 830.706 205.783 830.09 206.063C829.483 206.343 828.713 206.483 827.78 206.483ZM837.072 206.427C836.213 206.427 835.457 206.259 834.804 205.923C834.16 205.587 833.66 205.13 833.306 204.551C832.951 203.963 832.774 203.296 832.774 202.549C832.774 201.793 832.946 201.126 833.292 200.547C833.646 199.959 834.127 199.502 834.734 199.175C835.34 198.839 836.026 198.671 836.792 198.671C837.529 198.671 838.192 198.83 838.78 199.147C839.377 199.455 839.848 199.903 840.194 200.491C840.539 201.07 840.712 201.765 840.712 202.577C840.712 202.661 840.707 202.759 840.698 202.871C840.688 202.974 840.679 203.072 840.67 203.165H834.552V201.891H839.522L838.682 202.269C838.682 201.877 838.602 201.536 838.444 201.247C838.285 200.958 838.066 200.734 837.786 200.575C837.506 200.407 837.179 200.323 836.806 200.323C836.432 200.323 836.101 200.407 835.812 200.575C835.532 200.734 835.312 200.962 835.154 201.261C834.995 201.55 834.916 201.896 834.916 202.297V202.633C834.916 203.044 835.004 203.408 835.182 203.725C835.368 204.033 835.625 204.271 835.952 204.439C836.288 204.598 836.68 204.677 837.128 204.677C837.529 204.677 837.879 204.616 838.178 204.495C838.486 204.374 838.766 204.192 839.018 203.949L840.18 205.209C839.834 205.601 839.4 205.904 838.878 206.119C838.355 206.324 837.753 206.427 837.072 206.427ZM845.806 206.427C844.994 206.427 844.27 206.264 843.636 205.937C843.001 205.601 842.502 205.139 842.138 204.551C841.783 203.963 841.606 203.296 841.606 202.549C841.606 201.793 841.783 201.126 842.138 200.547C842.502 199.959 843.001 199.502 843.636 199.175C844.27 198.839 844.994 198.671 845.806 198.671C846.599 198.671 847.29 198.839 847.878 199.175C848.466 199.502 848.9 199.973 849.18 200.589L847.486 201.499C847.29 201.144 847.042 200.883 846.744 200.715C846.454 200.547 846.137 200.463 845.792 200.463C845.418 200.463 845.082 200.547 844.784 200.715C844.485 200.883 844.247 201.121 844.07 201.429C843.902 201.737 843.818 202.11 843.818 202.549C843.818 202.988 843.902 203.361 844.07 203.669C844.247 203.977 844.485 204.215 844.784 204.383C845.082 204.551 845.418 204.635 845.792 204.635C846.137 204.635 846.454 204.556 846.744 204.397C847.042 204.229 847.29 203.963 847.486 203.599L849.18 204.523C848.9 205.13 848.466 205.601 847.878 205.937C847.29 206.264 846.599 206.427 845.806 206.427ZM853.627 206.427C852.74 206.427 852.049 206.203 851.555 205.755C851.06 205.298 850.813 204.621 850.813 203.725V197.117H852.997V203.697C852.997 204.014 853.081 204.262 853.249 204.439C853.417 204.607 853.645 204.691 853.935 204.691C854.28 204.691 854.574 204.598 854.817 204.411L855.405 205.951C855.181 206.11 854.91 206.231 854.593 206.315C854.285 206.39 853.963 206.427 853.627 206.427ZM849.651 200.631V198.951H854.873V200.631H849.651ZM859.982 206.427C859.179 206.427 858.465 206.259 857.84 205.923C857.224 205.587 856.734 205.13 856.37 204.551C856.015 203.963 855.838 203.296 855.838 202.549C855.838 201.793 856.015 201.126 856.37 200.547C856.734 199.959 857.224 199.502 857.84 199.175C858.465 198.839 859.179 198.671 859.982 198.671C860.775 198.671 861.485 198.839 862.11 199.175C862.735 199.502 863.225 199.954 863.58 200.533C863.935 201.112 864.112 201.784 864.112 202.549C864.112 203.296 863.935 203.963 863.58 204.551C863.225 205.13 862.735 205.587 862.11 205.923C861.485 206.259 860.775 206.427 859.982 206.427ZM859.982 204.635C860.346 204.635 860.673 204.551 860.962 204.383C861.251 204.215 861.48 203.977 861.648 203.669C861.816 203.352 861.9 202.978 861.9 202.549C861.9 202.11 861.816 201.737 861.648 201.429C861.48 201.121 861.251 200.883 860.962 200.715C860.673 200.547 860.346 200.463 859.982 200.463C859.618 200.463 859.291 200.547 859.002 200.715C858.713 200.883 858.479 201.121 858.302 201.429C858.134 201.737 858.05 202.11 858.05 202.549C858.05 202.978 858.134 203.352 858.302 203.669C858.479 203.977 858.713 204.215 859.002 204.383C859.291 204.551 859.618 204.635 859.982 204.635ZM865.572 206.315V198.783H867.658V200.911L867.364 200.295C867.588 199.763 867.947 199.362 868.442 199.091C868.937 198.811 869.539 198.671 870.248 198.671V200.687C870.155 200.678 870.071 200.673 869.996 200.673C869.921 200.664 869.842 200.659 869.758 200.659C869.161 200.659 868.675 200.832 868.302 201.177C867.938 201.513 867.756 202.04 867.756 202.759V206.315H865.572Z" fill="#211433"/>
<path d="M886.303 326.582C888.921 326.582 890.559 327.94 890.559 330.138C890.559 332.322 888.921 333.68 886.303 333.68H884.329V336.382H882.061V326.582H886.303ZM886.177 331.832C887.563 331.832 888.263 331.202 888.263 330.138C888.263 329.06 887.563 328.43 886.177 328.43H884.329V331.832H886.177ZM892.161 336.382V325.994H894.345V336.382H892.161ZM899.956 336.494C897.562 336.494 895.812 334.884 895.812 332.616C895.812 330.348 897.562 328.738 899.956 328.738C902.35 328.738 904.086 330.348 904.086 332.616C904.086 334.884 902.35 336.494 899.956 336.494ZM899.956 334.702C901.048 334.702 901.874 333.918 901.874 332.616C901.874 331.314 901.048 330.53 899.956 330.53C898.864 330.53 898.024 331.314 898.024 332.616C898.024 333.918 898.864 334.702 899.956 334.702ZM909.816 334.478L910.404 336.018C909.956 336.34 909.298 336.494 908.626 336.494C906.848 336.494 905.812 335.584 905.812 333.792V330.698H904.65V329.018H905.812V327.184H907.996V329.018H909.872V330.698H907.996V333.764C907.996 334.408 908.346 334.758 908.934 334.758C909.256 334.758 909.578 334.66 909.816 334.478Z" fill="#211433"/>
<path d="M886.303 326.582C888.921 326.582 890.559 327.94 890.559 330.138C890.559 332.322 888.921 333.68 886.303 333.68H884.329V336.382H882.061V326.582H886.303ZM886.177 331.832C887.563 331.832 888.263 331.202 888.263 330.138C888.263 329.06 887.563 328.43 886.177 328.43H884.329V331.832H886.177ZM892.161 336.382V325.994H894.345V336.382H892.161ZM899.956 336.494C897.562 336.494 895.812 334.884 895.812 332.616C895.812 330.348 897.562 328.738 899.956 328.738C902.35 328.738 904.086 330.348 904.086 332.616C904.086 334.884 902.35 336.494 899.956 336.494ZM899.956 334.702C901.048 334.702 901.874 333.918 901.874 332.616C901.874 331.314 901.048 330.53 899.956 330.53C898.864 330.53 898.024 331.314 898.024 332.616C898.024 333.918 898.864 334.702 899.956 334.702ZM909.816 334.478L910.404 336.018C909.956 336.34 909.298 336.494 908.626 336.494C906.848 336.494 905.812 335.584 905.812 333.792V330.698H904.65V329.018H905.812V327.184H907.996V329.018H909.872V330.698H907.996V333.764C907.996 334.408 908.346 334.758 908.934 334.758C909.256 334.758 909.578 334.66 909.816 334.478Z" fill="#211433"/>
<path d="M59.0867 164.992H63.7907V166.812H59.0867V164.992ZM59.2547 170.382H56.9867V160.582H64.3927V162.402H59.2547V170.382ZM68.7744 170.494C68.149 170.494 67.589 170.373 67.0944 170.13C66.609 169.888 66.231 169.519 65.9604 169.024C65.6897 168.52 65.5544 167.881 65.5544 167.106V162.85H67.7384V166.784C67.7384 167.41 67.869 167.872 68.1304 168.17C68.401 168.46 68.779 168.604 69.2644 168.604C69.6004 168.604 69.899 168.534 70.1604 168.394C70.4217 168.245 70.627 168.021 70.7764 167.722C70.9257 167.414 71.0004 167.032 71.0004 166.574V162.85H73.1844V170.382H71.1124V168.31L71.4904 168.912C71.2384 169.435 70.865 169.832 70.3704 170.102C69.885 170.364 69.353 170.494 68.7744 170.494ZM75.2077 170.382V159.994H77.3917V170.382H75.2077ZM79.4186 170.382V159.994H81.6026V170.382H79.4186ZM19.167 190.098C18.607 189.249 18.173 188.269 17.865 187.158C17.5664 186.038 17.417 184.834 17.417 183.546C17.417 182.258 17.5664 181.054 17.865 179.934C18.173 178.805 18.607 177.825 19.167 176.994H21.253C20.665 178.049 20.2357 179.113 19.965 180.186C19.6944 181.25 19.559 182.37 19.559 183.546C19.559 184.722 19.6944 185.847 19.965 186.92C20.2357 187.984 20.665 189.044 21.253 190.098H19.167ZM27.2509 187.55C26.4949 187.55 25.7903 187.429 25.1369 187.186C24.4929 186.934 23.9329 186.58 23.4569 186.122C22.9809 185.665 22.6076 185.128 22.3369 184.512C22.0756 183.896 21.9449 183.22 21.9449 182.482C21.9449 181.745 22.0756 181.068 22.3369 180.452C22.6076 179.836 22.9809 179.3 23.4569 178.842C23.9423 178.385 24.5069 178.035 25.1509 177.792C25.7949 177.54 26.4996 177.414 27.2649 177.414C28.1143 177.414 28.8796 177.564 29.5609 177.862C30.2516 178.152 30.8303 178.581 31.2969 179.15L29.8409 180.494C29.5049 180.112 29.1316 179.827 28.7209 179.64C28.3103 179.444 27.8623 179.346 27.3769 179.346C26.9196 179.346 26.4996 179.421 26.1169 179.57C25.7343 179.72 25.4029 179.934 25.1229 180.214C24.8429 180.494 24.6236 180.826 24.4649 181.208C24.3156 181.591 24.2409 182.016 24.2409 182.482C24.2409 182.949 24.3156 183.374 24.4649 183.756C24.6236 184.139 24.8429 184.47 25.1229 184.75C25.4029 185.03 25.7343 185.245 26.1169 185.394C26.4996 185.544 26.9196 185.618 27.3769 185.618C27.8623 185.618 28.3103 185.525 28.7209 185.338C29.1316 185.142 29.5049 184.848 29.8409 184.456L31.2969 185.8C30.8303 186.37 30.2516 186.804 29.5609 187.102C28.8796 187.401 28.1096 187.55 27.2509 187.55ZM35.6748 187.494C35.0494 187.494 34.4894 187.373 33.9948 187.13C33.5094 186.888 33.1314 186.519 32.8608 186.024C32.5901 185.52 32.4548 184.881 32.4548 184.106V179.85H34.6388V183.784C34.6388 184.41 34.7694 184.872 35.0308 185.17C35.3014 185.46 35.6794 185.604 36.1648 185.604C36.5008 185.604 36.7994 185.534 37.0608 185.394C37.3221 185.245 37.5274 185.021 37.6768 184.722C37.8261 184.414 37.9008 184.032 37.9008 183.574V179.85H40.0848V187.382H38.0128V185.31L38.3908 185.912C38.1388 186.435 37.7654 186.832 37.2708 187.102C36.7854 187.364 36.2534 187.494 35.6748 187.494ZM42.1081 187.382V179.85H44.1941V181.978L43.9001 181.362C44.1241 180.83 44.4834 180.429 44.9781 180.158C45.4728 179.878 46.0748 179.738 46.7841 179.738V181.754C46.6908 181.745 46.6068 181.74 46.5321 181.74C46.4574 181.731 46.3781 181.726 46.2941 181.726C45.6968 181.726 45.2114 181.899 44.8381 182.244C44.4741 182.58 44.2921 183.108 44.2921 183.826V187.382H42.1081ZM48.0964 187.382V179.85H50.1824V181.978L49.8884 181.362C50.1124 180.83 50.4717 180.429 50.9664 180.158C51.461 179.878 52.063 179.738 52.7724 179.738V181.754C52.679 181.745 52.595 181.74 52.5204 181.74C52.4457 181.731 52.3664 181.726 52.2824 181.726C51.685 181.726 51.1997 181.899 50.8264 182.244C50.4624 182.58 50.2804 183.108 50.2804 183.826V187.382H48.0964ZM57.7543 187.494C56.8956 187.494 56.1396 187.326 55.4863 186.99C54.8423 186.654 54.343 186.197 53.9883 185.618C53.6336 185.03 53.4563 184.363 53.4563 183.616C53.4563 182.86 53.629 182.193 53.9743 181.614C54.329 181.026 54.8096 180.569 55.4163 180.242C56.023 179.906 56.709 179.738 57.4743 179.738C58.2116 179.738 58.8743 179.897 59.4623 180.214C60.0596 180.522 60.531 180.97 60.8763 181.558C61.2216 182.137 61.3943 182.832 61.3943 183.644C61.3943 183.728 61.3896 183.826 61.3803 183.938C61.371 184.041 61.3616 184.139 61.3523 184.232H55.2343V182.958H60.2043L59.3643 183.336C59.3643 182.944 59.285 182.604 59.1263 182.314C58.9676 182.025 58.7483 181.801 58.4683 181.642C58.1883 181.474 57.8616 181.39 57.4883 181.39C57.115 181.39 56.7836 181.474 56.4943 181.642C56.2143 181.801 55.995 182.03 55.8363 182.328C55.6776 182.618 55.5983 182.963 55.5983 183.364V183.7C55.5983 184.111 55.687 184.475 55.8643 184.792C56.051 185.1 56.3076 185.338 56.6343 185.506C56.9703 185.665 57.3623 185.744 57.8103 185.744C58.2116 185.744 58.5616 185.684 58.8603 185.562C59.1683 185.441 59.4483 185.259 59.7003 185.016L60.8623 186.276C60.517 186.668 60.083 186.972 59.5603 187.186C59.0376 187.392 58.4356 187.494 57.7543 187.494ZM67.4263 179.738C68.0237 179.738 68.5557 179.86 69.0223 180.102C69.4983 180.336 69.8717 180.7 70.1423 181.194C70.413 181.68 70.5483 182.305 70.5483 183.07V187.382H68.3643V183.406C68.3643 182.8 68.229 182.352 67.9583 182.062C67.697 181.773 67.3237 181.628 66.8383 181.628C66.493 181.628 66.1803 181.703 65.9003 181.852C65.6297 181.992 65.415 182.212 65.2563 182.51C65.107 182.809 65.0323 183.192 65.0323 183.658V187.382H62.8483V179.85H64.9343V181.936L64.5423 181.306C64.813 180.802 65.2003 180.415 65.7043 180.144C66.2083 179.874 66.7823 179.738 67.4263 179.738ZM75.608 187.494C74.7214 187.494 74.0307 187.27 73.536 186.822C73.0414 186.365 72.794 185.688 72.794 184.792V178.184H74.978V184.764C74.978 185.082 75.062 185.329 75.23 185.506C75.398 185.674 75.6267 185.758 75.916 185.758C76.2614 185.758 76.5554 185.665 76.798 185.478L77.386 187.018C77.162 187.177 76.8914 187.298 76.574 187.382C76.266 187.457 75.944 187.494 75.608 187.494ZM71.632 181.698V180.018H76.854V181.698H71.632ZM79.83 190.098H77.744C78.3507 189.044 78.7847 187.984 79.046 186.92C79.3167 185.847 79.452 184.722 79.452 183.546C79.452 182.37 79.3167 181.25 79.046 180.186C78.7847 179.113 78.3507 178.049 77.744 176.994H79.83C80.4087 177.825 80.8473 178.805 81.146 179.934C81.4447 181.054 81.594 182.258 81.594 183.546C81.594 184.834 81.4447 186.038 81.146 187.158C80.8473 188.269 80.4087 189.249 79.83 190.098ZM2.09413 204.382V194.582H6.88213C8.11413 194.582 9.03813 194.816 9.65413 195.282C10.2795 195.749 10.5921 196.365 10.5921 197.13C10.5921 197.644 10.4661 198.092 10.2141 198.474C9.96213 198.848 9.6168 199.137 9.17813 199.342C8.73946 199.548 8.23546 199.65 7.66613 199.65L7.93213 199.076C8.54813 199.076 9.09413 199.179 9.57013 199.384C10.0461 199.58 10.4148 199.874 10.6761 200.266C10.9468 200.658 11.0821 201.139 11.0821 201.708C11.0821 202.548 10.7508 203.206 10.0881 203.682C9.42546 204.149 8.45013 204.382 7.16213 204.382H2.09413ZM4.34813 202.674H6.99413C7.58213 202.674 8.02546 202.581 8.32413 202.394C8.63213 202.198 8.78613 201.89 8.78613 201.47C8.78613 201.06 8.63213 200.756 8.32413 200.56C8.02546 200.355 7.58213 200.252 6.99413 200.252H4.18013V198.6H6.60213C7.1528 198.6 7.5728 198.507 7.86213 198.32C8.1608 198.124 8.31013 197.83 8.31013 197.438C8.31013 197.056 8.1608 196.771 7.86213 196.584C7.5728 196.388 7.1528 196.29 6.60213 196.29H4.34813V202.674ZM12.6452 204.382V193.994H14.8292V204.382H12.6452ZM20.4401 204.494C19.6375 204.494 18.9235 204.326 18.2981 203.99C17.6821 203.654 17.1921 203.197 16.8281 202.618C16.4735 202.03 16.2961 201.363 16.2961 200.616C16.2961 199.86 16.4735 199.193 16.8281 198.614C17.1921 198.026 17.6821 197.569 18.2981 197.242C18.9235 196.906 19.6375 196.738 20.4401 196.738C21.2335 196.738 21.9428 196.906 22.5681 197.242C23.1935 197.569 23.6835 198.022 24.0381 198.6C24.3928 199.179 24.5701 199.851 24.5701 200.616C24.5701 201.363 24.3928 202.03 24.0381 202.618C23.6835 203.197 23.1935 203.654 22.5681 203.99C21.9428 204.326 21.2335 204.494 20.4401 204.494ZM20.4401 202.702C20.8041 202.702 21.1308 202.618 21.4201 202.45C21.7095 202.282 21.9381 202.044 22.1061 201.736C22.2741 201.419 22.3581 201.046 22.3581 200.616C22.3581 200.178 22.2741 199.804 22.1061 199.496C21.9381 199.188 21.7095 198.95 21.4201 198.782C21.1308 198.614 20.8041 198.53 20.4401 198.53C20.0761 198.53 19.7495 198.614 19.4601 198.782C19.1708 198.95 18.9375 199.188 18.7601 199.496C18.5921 199.804 18.5081 200.178 18.5081 200.616C18.5081 201.046 18.5921 201.419 18.7601 201.736C18.9375 202.044 19.1708 202.282 19.4601 202.45C19.7495 202.618 20.0761 202.702 20.4401 202.702ZM29.67 204.494C28.858 204.494 28.1346 204.331 27.5 204.004C26.8653 203.668 26.366 203.206 26.002 202.618C25.6473 202.03 25.47 201.363 25.47 200.616C25.47 199.86 25.6473 199.193 26.002 198.614C26.366 198.026 26.8653 197.569 27.5 197.242C28.1346 196.906 28.858 196.738 29.67 196.738C30.4633 196.738 31.154 196.906 31.742 197.242C32.33 197.569 32.764 198.04 33.044 198.656L31.35 199.566C31.154 199.212 30.9066 198.95 30.608 198.782C30.3186 198.614 30.0013 198.53 29.656 198.53C29.2826 198.53 28.9466 198.614 28.648 198.782C28.3493 198.95 28.1113 199.188 27.934 199.496C27.766 199.804 27.682 200.178 27.682 200.616C27.682 201.055 27.766 201.428 27.934 201.736C28.1113 202.044 28.3493 202.282 28.648 202.45C28.9466 202.618 29.2826 202.702 29.656 202.702C30.0013 202.702 30.3186 202.623 30.608 202.464C30.9066 202.296 31.154 202.03 31.35 201.666L33.044 202.59C32.764 203.197 32.33 203.668 31.742 204.004C31.154 204.331 30.4633 204.494 29.67 204.494ZM36.0664 202.842L36.1224 200.182L39.6364 196.85H42.2404L38.8664 200.28L37.7324 201.204L36.0664 202.842ZM34.2604 204.382V193.994H36.4444V204.382H34.2604ZM39.8744 204.382L37.3264 201.218L38.6984 199.524L42.5204 204.382H39.8744ZM46.8282 204.494C46.0162 204.494 45.2928 204.331 44.6582 204.004C44.0235 203.668 43.5242 203.206 43.1602 202.618C42.8055 202.03 42.6282 201.363 42.6282 200.616C42.6282 199.86 42.8055 199.193 43.1602 198.614C43.5242 198.026 44.0235 197.569 44.6582 197.242C45.2928 196.906 46.0162 196.738 46.8282 196.738C47.6215 196.738 48.3122 196.906 48.9002 197.242C49.4882 197.569 49.9222 198.04 50.2022 198.656L48.5082 199.566C48.3122 199.212 48.0648 198.95 47.7662 198.782C47.4768 198.614 47.1595 198.53 46.8142 198.53C46.4408 198.53 46.1048 198.614 45.8062 198.782C45.5075 198.95 45.2695 199.188 45.0922 199.496C44.9242 199.804 44.8402 200.178 44.8402 200.616C44.8402 201.055 44.9242 201.428 45.0922 201.736C45.2695 202.044 45.5075 202.282 45.8062 202.45C46.1048 202.618 46.4408 202.702 46.8142 202.702C47.1595 202.702 47.4768 202.623 47.7662 202.464C48.0648 202.296 48.3122 202.03 48.5082 201.666L50.2022 202.59C49.9222 203.197 49.4882 203.668 48.9002 204.004C48.3122 204.331 47.6215 204.494 46.8282 204.494ZM55.9966 196.738C56.594 196.738 57.126 196.86 57.5926 197.102C58.0686 197.336 58.442 197.7 58.7126 198.194C58.9833 198.68 59.1186 199.305 59.1186 200.07V204.382H56.9346V200.406C56.9346 199.8 56.7993 199.352 56.5286 199.062C56.2673 198.773 55.894 198.628 55.4086 198.628C55.0633 198.628 54.7506 198.703 54.4706 198.852C54.2 198.992 53.9853 199.212 53.8266 199.51C53.6773 199.809 53.6026 200.192 53.6026 200.658V204.382H51.4186V193.994H53.6026V198.936L53.1126 198.306C53.3833 197.802 53.7706 197.415 54.2746 197.144C54.7786 196.874 55.3526 196.738 55.9966 196.738ZM65.7183 204.382V202.912L65.5783 202.59V199.958C65.5783 199.492 65.4337 199.128 65.1443 198.866C64.8643 198.605 64.4303 198.474 63.8423 198.474C63.441 198.474 63.0443 198.54 62.6523 198.67C62.2697 198.792 61.943 198.96 61.6723 199.174L60.8883 197.648C61.299 197.359 61.7937 197.135 62.3723 196.976C62.951 196.818 63.539 196.738 64.1363 196.738C65.2843 196.738 66.1757 197.009 66.8103 197.55C67.445 198.092 67.7623 198.936 67.7623 200.084V204.382H65.7183ZM63.4223 204.494C62.8343 204.494 62.3303 204.396 61.9103 204.2C61.4903 203.995 61.1683 203.72 60.9443 203.374C60.7203 203.029 60.6083 202.642 60.6083 202.212C60.6083 201.764 60.7157 201.372 60.9303 201.036C61.1543 200.7 61.5043 200.439 61.9803 200.252C62.4563 200.056 63.077 199.958 63.8423 199.958H65.8443V201.232H64.0803C63.567 201.232 63.2123 201.316 63.0163 201.484C62.8297 201.652 62.7363 201.862 62.7363 202.114C62.7363 202.394 62.8437 202.618 63.0583 202.786C63.2823 202.945 63.5857 203.024 63.9683 203.024C64.3323 203.024 64.659 202.94 64.9483 202.772C65.2377 202.595 65.4477 202.338 65.5783 202.002L65.9143 203.01C65.7557 203.496 65.4663 203.864 65.0463 204.116C64.6263 204.368 64.085 204.494 63.4223 204.494ZM69.739 204.382V196.85H71.923V204.382H69.739ZM70.831 195.8C70.4296 195.8 70.103 195.684 69.851 195.45C69.599 195.217 69.473 194.928 69.473 194.582C69.473 194.237 69.599 193.948 69.851 193.714C70.103 193.481 70.4296 193.364 70.831 193.364C71.2323 193.364 71.559 193.476 71.811 193.7C72.063 193.915 72.189 194.195 72.189 194.54C72.189 194.904 72.063 195.208 71.811 195.45C71.5683 195.684 71.2416 195.8 70.831 195.8ZM78.5279 196.738C79.1252 196.738 79.6572 196.86 80.1239 197.102C80.5999 197.336 80.9732 197.7 81.2439 198.194C81.5146 198.68 81.6499 199.305 81.6499 200.07V204.382H79.4659V200.406C79.4659 199.8 79.3306 199.352 79.0599 199.062C78.7986 198.773 78.4252 198.628 77.9399 198.628C77.5946 198.628 77.2819 198.703 77.0019 198.852C76.7312 198.992 76.5166 199.212 76.3579 199.51C76.2086 199.809 76.1339 200.192 76.1339 200.658V204.382H73.9499V196.85H76.0359V198.936L75.6439 198.306C75.9146 197.802 76.3019 197.415 76.8059 197.144C77.3099 196.874 77.8839 196.738 78.5279 196.738ZM37.9216 211.582H40.1896V221.382H37.9216V211.582ZM33.4696 221.382H31.2016V211.582H33.4696V221.382ZM38.0896 217.364H33.3016V215.446H38.0896V217.364ZM42.3542 221.382V213.85H44.5382V221.382H42.3542ZM43.4462 212.8C43.0449 212.8 42.7182 212.684 42.4662 212.45C42.2142 212.217 42.0882 211.928 42.0882 211.582C42.0882 211.237 42.2142 210.948 42.4662 210.714C42.7182 210.481 43.0449 210.364 43.4462 210.364C43.8475 210.364 44.1742 210.476 44.4262 210.7C44.6782 210.915 44.8042 211.195 44.8042 211.54C44.8042 211.904 44.6782 212.208 44.4262 212.45C44.1835 212.684 43.8569 212.8 43.4462 212.8ZM49.0991 221.494C48.4551 221.494 47.8345 221.42 47.2371 221.27C46.6491 221.112 46.1825 220.916 45.8371 220.682L46.5651 219.114C46.9105 219.329 47.3165 219.506 47.7831 219.646C48.2591 219.777 48.7258 219.842 49.1831 219.842C49.6871 219.842 50.0418 219.782 50.2471 219.66C50.4618 219.539 50.5691 219.371 50.5691 219.156C50.5691 218.979 50.4851 218.848 50.3171 218.764C50.1585 218.671 49.9438 218.601 49.6731 218.554C49.4025 218.508 49.1038 218.461 48.7771 218.414C48.4598 218.368 48.1378 218.307 47.8111 218.232C47.4845 218.148 47.1858 218.027 46.9151 217.868C46.6445 217.71 46.4251 217.495 46.2571 217.224C46.0985 216.954 46.0191 216.604 46.0191 216.174C46.0191 215.698 46.1545 215.278 46.4251 214.914C46.7051 214.55 47.1065 214.266 47.6291 214.06C48.1518 213.846 48.7771 213.738 49.5051 213.738C50.0185 213.738 50.5411 213.794 51.0731 213.906C51.6051 214.018 52.0485 214.182 52.4031 214.396L51.6751 215.95C51.3111 215.736 50.9425 215.591 50.5691 215.516C50.2051 215.432 49.8505 215.39 49.5051 215.39C49.0198 215.39 48.6651 215.456 48.4411 215.586C48.2171 215.717 48.1051 215.885 48.1051 216.09C48.1051 216.277 48.1845 216.417 48.3431 216.51C48.5111 216.604 48.7305 216.678 49.0011 216.734C49.2718 216.79 49.5658 216.842 49.8831 216.888C50.2098 216.926 50.5365 216.986 50.8631 217.07C51.1898 217.154 51.4838 217.276 51.7451 217.434C52.0158 217.584 52.2351 217.794 52.4031 218.064C52.5711 218.326 52.6551 218.671 52.6551 219.1C52.6551 219.567 52.5151 219.982 52.2351 220.346C51.9551 220.701 51.5491 220.981 51.0171 221.186C50.4945 221.392 49.8551 221.494 49.0991 221.494ZM57.0826 221.494C56.196 221.494 55.5053 221.27 55.0106 220.822C54.516 220.365 54.2686 219.688 54.2686 218.792V212.184H56.4526V218.764C56.4526 219.082 56.5366 219.329 56.7046 219.506C56.8726 219.674 57.1013 219.758 57.3906 219.758C57.736 219.758 58.03 219.665 58.2726 219.478L58.8606 221.018C58.6366 221.177 58.366 221.298 58.0486 221.382C57.7406 221.457 57.4186 221.494 57.0826 221.494ZM53.1066 215.698V214.018H58.3286V215.698H53.1066ZM63.4382 221.494C62.6355 221.494 61.9215 221.326 61.2962 220.99C60.6802 220.654 60.1902 220.197 59.8262 219.618C59.4715 219.03 59.2942 218.363 59.2942 217.616C59.2942 216.86 59.4715 216.193 59.8262 215.614C60.1902 215.026 60.6802 214.569 61.2962 214.242C61.9215 213.906 62.6355 213.738 63.4382 213.738C64.2315 213.738 64.9409 213.906 65.5662 214.242C66.1915 214.569 66.6815 215.022 67.0362 215.6C67.3909 216.179 67.5682 216.851 67.5682 217.616C67.5682 218.363 67.3909 219.03 67.0362 219.618C66.6815 220.197 66.1915 220.654 65.5662 220.99C64.9409 221.326 64.2315 221.494 63.4382 221.494ZM63.4382 219.702C63.8022 219.702 64.1289 219.618 64.4182 219.45C64.7075 219.282 64.9362 219.044 65.1042 218.736C65.2722 218.419 65.3562 218.046 65.3562 217.616C65.3562 217.178 65.2722 216.804 65.1042 216.496C64.9362 216.188 64.7075 215.95 64.4182 215.782C64.1289 215.614 63.8022 215.53 63.4382 215.53C63.0742 215.53 62.7475 215.614 62.4582 215.782C62.1689 215.95 61.9355 216.188 61.7582 216.496C61.5902 216.804 61.5062 217.178 61.5062 217.616C61.5062 218.046 61.5902 218.419 61.7582 218.736C61.9355 219.044 62.1689 219.282 62.4582 219.45C62.7475 219.618 63.0742 219.702 63.4382 219.702ZM69.028 221.382V213.85H71.114V215.978L70.82 215.362C71.044 214.83 71.4034 214.429 71.898 214.158C72.3927 213.878 72.9947 213.738 73.704 213.738V215.754C73.6107 215.745 73.5267 215.74 73.452 215.74C73.3774 215.731 73.298 215.726 73.214 215.726C72.6167 215.726 72.1314 215.899 71.758 216.244C71.394 216.58 71.212 217.108 71.212 217.826V221.382H69.028ZM76.2144 224.21C75.8224 224.21 75.4351 224.15 75.0524 224.028C74.6697 223.907 74.3571 223.739 74.1144 223.524L74.9124 221.97C75.0804 222.12 75.2717 222.236 75.4864 222.32C75.7104 222.404 75.9297 222.446 76.1444 222.446C76.4524 222.446 76.6951 222.372 76.8724 222.222C77.0591 222.082 77.2271 221.844 77.3764 221.508L77.7684 220.584L77.9364 220.346L80.6384 213.85H82.7384L79.3364 221.844C79.0937 222.451 78.8137 222.927 78.4964 223.272C78.1884 223.618 77.8431 223.86 77.4604 224C77.0871 224.14 76.6717 224.21 76.2144 224.21ZM77.5024 221.676L74.1424 213.85H76.3964L79.0004 220.15L77.5024 221.676Z" fill="#211433"/>
<rect x="133.75" y="12.442" width="206.75" height="43.7932" rx="3.5" fill="#D8D0E4" stroke="#211433"/>
<rect x="133.75" y="70.1503" width="206.75" height="43.7932" rx="3.5" fill="#D8D0E4" stroke="#211433"/>
<rect x="133.75" y="159.82" width="206.75" height="43.7932" rx="3.5" fill="#D8D0E4" stroke="#211433"/>
<rect x="518.75" y="105.442" width="206.75" height="43.7932" rx="3.5" fill="#CDE6B2" stroke="#211433"/>
<rect x="518.75" y="163.15" width="206.75" height="43.7932" rx="3.5" fill="#CDE6B2" stroke="#211433"/>
<rect x="518.75" y="252.82" width="206.75" height="43.7932" rx="3.5" fill="#CDE6B2" stroke="#211433"/>
<rect x="133.75" y="249.49" width="206.75" height="43.7932" rx="3.5" fill="#D8D0E4" stroke="#211433"/>
<rect x="133.75" y="339.16" width="206.75" height="43.7932" rx="3.5" fill="#D8D0E4" stroke="#211433"/>
<path d="M108.268 1.1875C106.072 1.35142 101.681 2.33497 101.681 4.95776C101.681 7.58055 101.681 177.953 101.681 189.701C101.552 190.985 100.132 193.553 95.4824 193.553" stroke="#211433"/>
<path d="M108.268 386C106.072 385.836 101.681 384.853 101.681 382.23C101.681 379.607 101.681 209.235 101.681 197.487C101.552 196.203 100.132 193.635 95.4824 193.635" stroke="#211433"/>
<path d="M343.077 92C399.152 95.2647 424.033 128.299 437.949 156.3C465.971 212.681 434.997 273.966 508.375 275.375" stroke="#211433"/>
<path d="M516.442 275.321L506.694 270.793L506.694 279.849L516.442 275.321Z" fill="#211433"/>
<path d="M516.442 126.684L506.694 131.212L506.694 122.156L516.442 126.684Z" fill="#211433"/>
<path d="M516.442 185.684L506.694 190.212L506.694 181.156L516.442 185.684Z" fill="#211433"/>
<path d="M343.077 271.55C359.769 271.129 384.29 272.658 401.349 253.385C415.247 237.683 418.762 224.65 422.316 202.196C427.647 168.878 442.928 125.96 482.375 126.505L509.25 126.505" stroke="#211433"/>
<path d="M343.077 364.55C359.769 364.031 384.29 365.914 401.349 342.19C415.247 322.861 418.762 306.818 422.316 279.179C427.647 238.165 442.928 185.335 482.375 186.006L509.25 186.006" stroke="#211433"/>
<path d="M215.486 31.2279C217.811 31.2279 219.506 32.8479 219.506 35.2779C219.506 37.7229 217.811 39.3429 215.486 39.3429C214.361 39.3429 213.371 38.9079 212.711 38.0529L212.711 42.1629H211.271L211.271 31.3029H212.651L212.651 32.5629C213.296 31.6779 214.316 31.2279 215.486 31.2279ZM215.366 38.0829C216.896 38.0829 218.051 36.9729 218.051 35.2779C218.051 33.5979 216.896 32.4879 215.366 32.4879C213.851 32.4879 212.696 33.5979 212.696 35.2779C212.696 36.9729 213.851 38.0829 215.366 38.0829ZM222.216 29.7729C221.661 29.7729 221.241 29.3679 221.241 28.8429C221.241 28.3179 221.661 27.8979 222.216 27.8979C222.771 27.8979 223.191 28.3029 223.191 28.8129C223.191 29.3529 222.786 29.7729 222.216 29.7729ZM221.496 39.2529L221.496 31.3029H222.936L222.936 39.2529H221.496ZM232.871 35.3229C232.871 35.4429 232.856 35.6229 232.841 35.7579H226.391C226.571 37.1529 227.696 38.0829 229.271 38.0829C230.201 38.0829 230.981 37.7679 231.566 37.1229L232.361 38.0529C231.641 38.8929 230.546 39.3429 229.226 39.3429C226.661 39.3429 224.951 37.6479 224.951 35.2779C224.951 32.9229 226.646 31.2279 228.941 31.2279C231.236 31.2279 232.871 32.8779 232.871 35.3229ZM228.941 32.4429C227.561 32.4429 226.541 33.3729 226.391 34.7229H231.491C231.341 33.3879 230.336 32.4429 228.941 32.4429ZM238.335 39.3429C235.89 39.3429 234.135 37.6479 234.135 35.2779C234.135 32.9079 235.89 31.2279 238.335 31.2279C239.76 31.2279 240.945 31.8129 241.575 32.9229L240.48 33.6279C239.97 32.8479 239.19 32.4879 238.32 32.4879C236.76 32.4879 235.59 33.5829 235.59 35.2779C235.59 37.0029 236.76 38.0829 238.32 38.0829C239.19 38.0829 239.97 37.7229 240.48 36.9429L241.575 37.6329C240.945 38.7429 239.76 39.3429 238.335 39.3429ZM250.507 35.3229C250.507 35.4429 250.492 35.6229 250.477 35.7579H244.027C244.207 37.1529 245.332 38.0829 246.907 38.0829C247.837 38.0829 248.617 37.7679 249.202 37.1229L249.997 38.0529C249.277 38.8929 248.182 39.3429 246.862 39.3429C244.297 39.3429 242.587 37.6479 242.587 35.2779C242.587 32.9229 244.282 31.2279 246.577 31.2279C248.872 31.2279 250.507 32.8779 250.507 35.3229ZM246.577 32.4429C245.197 32.4429 244.177 33.3729 244.027 34.7229H249.127C248.977 33.3879 247.972 32.4429 246.577 32.4429Z" fill="#211433"/>
<path d="M255.052 35.0585H257.622L257.622 42.0585H256.632L256.632 35.9285H255.052L255.052 35.0585Z" fill="#211433"/>
<path d="M594.073 125.638C594.583 124.708 595.573 124.228 596.968 124.228L596.968 125.623C596.848 125.608 596.743 125.608 596.638 125.608C595.093 125.608 594.133 126.553 594.133 128.293L594.133 132.253H592.693L592.693 124.303H594.073L594.073 125.638ZM605.855 128.323C605.855 128.443 605.84 128.623 605.825 128.758H599.375C599.555 130.153 600.68 131.083 602.255 131.083C603.185 131.083 603.965 130.768 604.55 130.123L605.345 131.053C604.625 131.893 603.53 132.343 602.21 132.343C599.645 132.343 597.935 130.648 597.935 128.278C597.935 125.923 599.63 124.228 601.925 124.228C604.22 124.228 605.855 125.878 605.855 128.323ZM601.925 125.443C600.545 125.443 599.525 126.373 599.375 127.723H604.475C604.325 126.388 603.32 125.443 601.925 125.443ZM611.319 132.343C608.874 132.343 607.119 130.648 607.119 128.278C607.119 125.908 608.874 124.228 611.319 124.228C612.744 124.228 613.929 124.813 614.559 125.923L613.464 126.628C612.954 125.848 612.174 125.488 611.304 125.488C609.744 125.488 608.574 126.583 608.574 128.278C608.574 130.003 609.744 131.083 611.304 131.083C612.174 131.083 612.954 130.723 613.464 129.943L614.559 130.633C613.929 131.743 612.744 132.343 611.319 132.343ZM619.711 132.343C617.326 132.343 615.571 130.648 615.571 128.278C615.571 125.908 617.326 124.228 619.711 124.228C622.096 124.228 623.836 125.908 623.836 128.278C623.836 130.648 622.096 132.343 619.711 132.343ZM619.711 131.083C621.241 131.083 622.381 129.973 622.381 128.278C622.381 126.583 621.241 125.488 619.711 125.488C618.181 125.488 617.026 126.583 617.026 128.278C617.026 129.973 618.181 131.083 619.711 131.083ZM627.208 125.638C627.718 124.708 628.708 124.228 630.103 124.228L630.103 125.623C629.983 125.608 629.878 125.608 629.773 125.608C628.228 125.608 627.268 126.553 627.268 128.293L627.268 132.253H625.828L625.828 124.303H627.208L627.208 125.638ZM637.864 121.123H639.304L639.304 132.253H637.924L637.924 130.993C637.279 131.893 636.259 132.343 635.089 132.343C632.764 132.343 631.069 130.708 631.069 128.278C631.069 125.848 632.764 124.228 635.089 124.228C636.214 124.228 637.204 124.648 637.864 125.503L637.864 121.123ZM635.209 131.083C636.724 131.083 637.879 129.973 637.879 128.278C637.879 126.583 636.724 125.488 635.209 125.488C633.679 125.488 632.524 126.583 632.524 128.278C632.524 129.973 633.679 131.083 635.209 131.083Z" fill="#211433"/>
<path d="M643.63 128.058H646.2L646.2 135.058H645.21L645.21 128.928H643.63L643.63 128.058Z" fill="#211433"/>
<path d="M594.073 183.138C594.583 182.208 595.573 181.728 596.968 181.728L596.968 183.123C596.848 183.108 596.743 183.108 596.638 183.108C595.093 183.108 594.133 184.053 594.133 185.793L594.133 189.753H592.693L592.693 181.803H594.073L594.073 183.138ZM605.855 185.823C605.855 185.943 605.84 186.123 605.825 186.258H599.375C599.555 187.653 600.68 188.583 602.255 188.583C603.185 188.583 603.965 188.268 604.55 187.623L605.345 188.553C604.625 189.393 603.53 189.843 602.21 189.843C599.645 189.843 597.935 188.148 597.935 185.778C597.935 183.423 599.63 181.728 601.925 181.728C604.22 181.728 605.855 183.378 605.855 185.823ZM601.925 182.943C600.545 182.943 599.525 183.873 599.375 185.223H604.475C604.325 183.888 603.32 182.943 601.925 182.943ZM611.319 189.843C608.874 189.843 607.119 188.148 607.119 185.778C607.119 183.408 608.874 181.728 611.319 181.728C612.744 181.728 613.929 182.313 614.559 183.423L613.464 184.128C612.954 183.348 612.174 182.988 611.304 182.988C609.744 182.988 608.574 184.083 608.574 185.778C608.574 187.503 609.744 188.583 611.304 188.583C612.174 188.583 612.954 188.223 613.464 187.443L614.559 188.133C613.929 189.243 612.744 189.843 611.319 189.843ZM619.711 189.843C617.326 189.843 615.571 188.148 615.571 185.778C615.571 183.408 617.326 181.728 619.711 181.728C622.096 181.728 623.836 183.408 623.836 185.778C623.836 188.148 622.096 189.843 619.711 189.843ZM619.711 188.583C621.241 188.583 622.381 187.473 622.381 185.778C622.381 184.083 621.241 182.988 619.711 182.988C618.181 182.988 617.026 184.083 617.026 185.778C617.026 187.473 618.181 188.583 619.711 188.583ZM627.208 183.138C627.718 182.208 628.708 181.728 630.103 181.728L630.103 183.123C629.983 183.108 629.878 183.108 629.773 183.108C628.228 183.108 627.268 184.053 627.268 185.793L627.268 189.753H625.828L625.828 181.803H627.208L627.208 183.138ZM637.864 178.623H639.304L639.304 189.753H637.924L637.924 188.493C637.279 189.393 636.259 189.843 635.089 189.843C632.764 189.843 631.069 188.208 631.069 185.778C631.069 183.348 632.764 181.728 635.089 181.728C636.214 181.728 637.204 182.148 637.864 183.003L637.864 178.623ZM635.209 188.583C636.724 188.583 637.879 187.473 637.879 185.778C637.879 184.083 636.724 182.988 635.209 182.988C633.679 182.988 632.524 184.083 632.524 185.778C632.524 187.473 633.679 188.583 635.209 188.583Z" fill="#211433"/>
<path d="M645.36 191.688H648.95L648.95 192.558H643.92L643.92 191.878L646.77 189.128C647.51 188.408 647.65 187.968 647.65 187.528C647.65 186.808 647.14 186.368 646.16 186.368C645.41 186.368 644.8 186.608 644.37 187.128L643.69 186.538C644.23 185.868 645.16 185.478 646.25 185.478C647.71 185.478 648.65 186.228 648.65 187.428C648.65 188.108 648.45 188.718 647.5 189.628L645.36 191.688Z" fill="#211433"/>
<path d="M594.073 273.638C594.583 272.708 595.573 272.228 596.968 272.228L596.968 273.623C596.848 273.608 596.743 273.608 596.638 273.608C595.093 273.608 594.133 274.553 594.133 276.293L594.133 280.253H592.693L592.693 272.303H594.073L594.073 273.638ZM605.855 276.323C605.855 276.443 605.84 276.623 605.825 276.758H599.375C599.555 278.153 600.68 279.083 602.255 279.083C603.185 279.083 603.965 278.768 604.55 278.123L605.345 279.053C604.625 279.893 603.53 280.343 602.21 280.343C599.645 280.343 597.935 278.648 597.935 276.278C597.935 273.923 599.63 272.228 601.925 272.228C604.22 272.228 605.855 273.878 605.855 276.323ZM601.925 273.443C600.545 273.443 599.525 274.373 599.375 275.723H604.475C604.325 274.388 603.32 273.443 601.925 273.443ZM611.319 280.343C608.874 280.343 607.119 278.648 607.119 276.278C607.119 273.908 608.874 272.228 611.319 272.228C612.744 272.228 613.929 272.813 614.559 273.923L613.464 274.628C612.954 273.848 612.174 273.488 611.304 273.488C609.744 273.488 608.574 274.583 608.574 276.278C608.574 278.003 609.744 279.083 611.304 279.083C612.174 279.083 612.954 278.723 613.464 277.943L614.559 278.633C613.929 279.743 612.744 280.343 611.319 280.343ZM619.711 280.343C617.326 280.343 615.571 278.648 615.571 276.278C615.571 273.908 617.326 272.228 619.711 272.228C622.096 272.228 623.836 273.908 623.836 276.278C623.836 278.648 622.096 280.343 619.711 280.343ZM619.711 279.083C621.241 279.083 622.381 277.973 622.381 276.278C622.381 274.583 621.241 273.488 619.711 273.488C618.181 273.488 617.026 274.583 617.026 276.278C617.026 277.973 618.181 279.083 619.711 279.083ZM627.208 273.638C627.718 272.708 628.708 272.228 630.103 272.228L630.103 273.623C629.983 273.608 629.878 273.608 629.773 273.608C628.228 273.608 627.268 274.553 627.268 276.293L627.268 280.253H625.828L625.828 272.303H627.208L627.208 273.638ZM637.864 269.123H639.304L639.304 280.253H637.924L637.924 278.993C637.279 279.893 636.259 280.343 635.089 280.343C632.764 280.343 631.069 278.708 631.069 276.278C631.069 273.848 632.764 272.228 635.089 272.228C636.214 272.228 637.204 272.648 637.864 273.503L637.864 269.123ZM635.209 279.083C636.724 279.083 637.879 277.973 637.879 276.278C637.879 274.583 636.724 273.488 635.209 273.488C633.679 273.488 632.524 274.583 632.524 276.278C632.524 277.973 633.679 279.083 635.209 279.083Z" fill="#211433"/>
<path d="M651.09 277.708C652.38 277.708 653.26 278.448 653.26 280.008L653.26 283.058H652.3L652.3 280.118C652.3 279.078 651.8 278.568 650.93 278.568C649.97 278.568 649.34 279.178 649.34 280.328L649.34 283.058H648.38L648.38 280.118C648.38 279.078 647.88 278.568 647.01 278.568C646.05 278.568 645.42 279.178 645.42 280.328L645.42 283.058H644.46L644.46 277.758H645.38L645.38 278.548C645.76 278.008 646.41 277.708 647.21 277.708C648.02 277.708 648.7 278.028 649.05 278.688C649.45 278.088 650.19 277.708 651.09 277.708Z" fill="#211433"/>
<path d="M215.486 89.7279C217.811 89.7279 219.506 91.3479 219.506 93.7779C219.506 96.2229 217.811 97.8429 215.486 97.8429C214.361 97.8429 213.371 97.4079 212.711 96.5529L212.711 100.663H211.271L211.271 89.8029H212.651L212.651 91.0629C213.296 90.1779 214.316 89.7279 215.486 89.7279ZM215.366 96.5829C216.896 96.5829 218.051 95.4729 218.051 93.7779C218.051 92.0979 216.896 90.9879 215.366 90.9879C213.851 90.9879 212.696 92.0979 212.696 93.7779C212.696 95.4729 213.851 96.5829 215.366 96.5829ZM222.216 88.2729C221.661 88.2729 221.241 87.8679 221.241 87.3429C221.241 86.8179 221.661 86.3979 222.216 86.3979C222.771 86.3979 223.191 86.8029 223.191 87.3129C223.191 87.8529 222.786 88.2729 222.216 88.2729ZM221.496 97.7529L221.496 89.8029H222.936L222.936 97.7529H221.496ZM232.871 93.8229C232.871 93.9429 232.856 94.1229 232.841 94.2579H226.391C226.571 95.6529 227.696 96.5829 229.271 96.5829C230.201 96.5829 230.981 96.2679 231.566 95.6229L232.361 96.5529C231.641 97.3929 230.546 97.8429 229.226 97.8429C226.661 97.8429 224.951 96.1479 224.951 93.7779C224.951 91.4229 226.646 89.7279 228.941 89.7279C231.236 89.7279 232.871 91.3779 232.871 93.8229ZM228.941 90.9429C227.561 90.9429 226.541 91.8729 226.391 93.2229H231.491C231.341 91.8879 230.336 90.9429 228.941 90.9429ZM238.335 97.8429C235.89 97.8429 234.135 96.1479 234.135 93.7779C234.135 91.4079 235.89 89.7279 238.335 89.7279C239.76 89.7279 240.945 90.3129 241.575 91.4229L240.48 92.1279C239.97 91.3479 239.19 90.9879 238.32 90.9879C236.76 90.9879 235.59 92.0829 235.59 93.7779C235.59 95.5029 236.76 96.5829 238.32 96.5829C239.19 96.5829 239.97 96.2229 240.48 95.4429L241.575 96.1329C240.945 97.2429 239.76 97.8429 238.335 97.8429ZM250.507 93.8229C250.507 93.9429 250.492 94.1229 250.477 94.2579H244.027C244.207 95.6529 245.332 96.5829 246.907 96.5829C247.837 96.5829 248.617 96.2679 249.202 95.6229L249.997 96.5529C249.277 97.3929 248.182 97.8429 246.862 97.8429C244.297 97.8429 242.587 96.1479 242.587 93.7779C242.587 91.4229 244.282 89.7279 246.577 89.7279C248.872 89.7279 250.507 91.3779 250.507 93.8229ZM246.577 90.9429C245.197 90.9429 244.177 91.8729 244.027 93.2229H249.127C248.977 91.8879 247.972 90.9429 246.577 90.9429Z" fill="#211433"/>
<path d="M256.782 99.6885H260.372L260.372 100.558H255.342L255.342 99.8785L258.192 97.1285C258.932 96.4085 259.072 95.9685 259.072 95.5285C259.072 94.8085 258.562 94.3685 257.582 94.3685C256.832 94.3685 256.222 94.6085 255.792 95.1285L255.112 94.5385C255.652 93.8685 256.582 93.4785 257.672 93.4785C259.132 93.4785 260.072 94.2285 260.072 95.4285C260.072 96.1085 259.872 96.7185 258.922 97.6285L256.782 99.6885Z" fill="#211433"/>
<path d="M215.486 179.728C217.811 179.728 219.506 181.348 219.506 183.778C219.506 186.223 217.811 187.843 215.486 187.843C214.361 187.843 213.371 187.408 212.711 186.553L212.711 190.663H211.271L211.271 179.803H212.651L212.651 181.063C213.296 180.178 214.316 179.728 215.486 179.728ZM215.366 186.583C216.896 186.583 218.051 185.473 218.051 183.778C218.051 182.098 216.896 180.988 215.366 180.988C213.851 180.988 212.696 182.098 212.696 183.778C212.696 185.473 213.851 186.583 215.366 186.583ZM222.216 178.273C221.661 178.273 221.241 177.868 221.241 177.343C221.241 176.818 221.661 176.398 222.216 176.398C222.771 176.398 223.191 176.803 223.191 177.313C223.191 177.853 222.786 178.273 222.216 178.273ZM221.496 187.753L221.496 179.803H222.936L222.936 187.753H221.496ZM232.871 183.823C232.871 183.943 232.856 184.123 232.841 184.258H226.391C226.571 185.653 227.696 186.583 229.271 186.583C230.201 186.583 230.981 186.268 231.566 185.623L232.361 186.553C231.641 187.393 230.546 187.843 229.226 187.843C226.661 187.843 224.951 186.148 224.951 183.778C224.951 181.423 226.646 179.728 228.941 179.728C231.236 179.728 232.871 181.378 232.871 183.823ZM228.941 180.943C227.561 180.943 226.541 181.873 226.391 183.223H231.491C231.341 181.888 230.336 180.943 228.941 180.943ZM238.335 187.843C235.89 187.843 234.135 186.148 234.135 183.778C234.135 181.408 235.89 179.728 238.335 179.728C239.76 179.728 240.945 180.313 241.575 181.423L240.48 182.128C239.97 181.348 239.19 180.988 238.32 180.988C236.76 180.988 235.59 182.083 235.59 183.778C235.59 185.503 236.76 186.583 238.32 186.583C239.19 186.583 239.97 186.223 240.48 185.443L241.575 186.133C240.945 187.243 239.76 187.843 238.335 187.843ZM250.507 183.823C250.507 183.943 250.492 184.123 250.477 184.258H244.027C244.207 185.653 245.332 186.583 246.907 186.583C247.837 186.583 248.617 186.268 249.202 185.623L249.997 186.553C249.277 187.393 248.182 187.843 246.862 187.843C244.297 187.843 242.587 186.148 242.587 183.778C242.587 181.423 244.282 179.728 246.577 179.728C248.872 179.728 250.507 181.378 250.507 183.823ZM246.577 180.943C245.197 180.943 244.177 181.873 244.027 183.223H249.127C248.977 181.888 247.972 180.943 246.577 180.943Z" fill="#211433"/>
<path d="M256.362 184.238C255.992 184.238 255.712 183.968 255.712 183.618C255.712 183.268 255.992 182.988 256.362 182.988C256.732 182.988 257.012 183.258 257.012 183.598C257.012 183.958 256.742 184.238 256.362 184.238ZM255.882 190.558L255.882 185.258H256.842L256.842 190.558H255.882Z" fill="#211433"/>
<path d="M215.486 268.728C217.811 268.728 219.506 270.348 219.506 272.778C219.506 275.223 217.811 276.843 215.486 276.843C214.361 276.843 213.371 276.408 212.711 275.553L212.711 279.663H211.271L211.271 268.803H212.651L212.651 270.063C213.296 269.178 214.316 268.728 215.486 268.728ZM215.366 275.583C216.896 275.583 218.051 274.473 218.051 272.778C218.051 271.098 216.896 269.988 215.366 269.988C213.851 269.988 212.696 271.098 212.696 272.778C212.696 274.473 213.851 275.583 215.366 275.583ZM222.216 267.273C221.661 267.273 221.241 266.868 221.241 266.343C221.241 265.818 221.661 265.398 222.216 265.398C222.771 265.398 223.191 265.803 223.191 266.313C223.191 266.853 222.786 267.273 222.216 267.273ZM221.496 276.753L221.496 268.803H222.936L222.936 276.753H221.496ZM232.871 272.823C232.871 272.943 232.856 273.123 232.841 273.258H226.391C226.571 274.653 227.696 275.583 229.271 275.583C230.201 275.583 230.981 275.268 231.566 274.623L232.361 275.553C231.641 276.393 230.546 276.843 229.226 276.843C226.661 276.843 224.951 275.148 224.951 272.778C224.951 270.423 226.646 268.728 228.941 268.728C231.236 268.728 232.871 270.378 232.871 272.823ZM228.941 269.943C227.561 269.943 226.541 270.873 226.391 272.223H231.491C231.341 270.888 230.336 269.943 228.941 269.943ZM238.335 276.843C235.89 276.843 234.135 275.148 234.135 272.778C234.135 270.408 235.89 268.728 238.335 268.728C239.76 268.728 240.945 269.313 241.575 270.423L240.48 271.128C239.97 270.348 239.19 269.988 238.32 269.988C236.76 269.988 235.59 271.083 235.59 272.778C235.59 274.503 236.76 275.583 238.32 275.583C239.19 275.583 239.97 275.223 240.48 274.443L241.575 275.133C240.945 276.243 239.76 276.843 238.335 276.843ZM250.507 272.823C250.507 272.943 250.492 273.123 250.477 273.258H244.027C244.207 274.653 245.332 275.583 246.907 275.583C247.837 275.583 248.617 275.268 249.202 274.623L249.997 275.553C249.277 276.393 248.182 276.843 246.862 276.843C244.297 276.843 242.587 275.148 242.587 272.778C242.587 270.423 244.282 268.728 246.577 268.728C248.872 268.728 250.507 270.378 250.507 272.823ZM246.577 269.943C245.197 269.943 244.177 270.873 244.027 272.223H249.127C248.977 270.888 247.972 269.943 246.577 269.943Z" fill="#211433"/>
<path d="M256.412 273.238C256.042 273.238 255.762 272.968 255.762 272.618C255.762 272.268 256.042 271.988 256.412 271.988C256.782 271.988 257.062 272.258 257.062 272.598C257.062 272.958 256.792 273.238 256.412 273.238ZM255.202 281.558C254.762 281.558 254.322 281.458 254.052 281.238L254.362 280.498C254.552 280.658 254.832 280.748 255.142 280.748C255.652 280.748 255.932 280.428 255.932 279.818L255.932 274.258H256.892L256.892 279.798C256.892 280.878 256.292 281.558 255.202 281.558Z" fill="#211433"/>
<path d="M215.486 359.728C217.811 359.728 219.506 361.348 219.506 363.778C219.506 366.223 217.811 367.843 215.486 367.843C214.361 367.843 213.371 367.408 212.711 366.553L212.711 370.663H211.271L211.271 359.803H212.651L212.651 361.063C213.296 360.178 214.316 359.728 215.486 359.728ZM215.366 366.583C216.896 366.583 218.051 365.473 218.051 363.778C218.051 362.098 216.896 360.988 215.366 360.988C213.851 360.988 212.696 362.098 212.696 363.778C212.696 365.473 213.851 366.583 215.366 366.583ZM222.216 358.273C221.661 358.273 221.241 357.868 221.241 357.343C221.241 356.818 221.661 356.398 222.216 356.398C222.771 356.398 223.191 356.803 223.191 357.313C223.191 357.853 222.786 358.273 222.216 358.273ZM221.496 367.753L221.496 359.803H222.936L222.936 367.753H221.496ZM232.871 363.823C232.871 363.943 232.856 364.123 232.841 364.258H226.391C226.571 365.653 227.696 366.583 229.271 366.583C230.201 366.583 230.981 366.268 231.566 365.623L232.361 366.553C231.641 367.393 230.546 367.843 229.226 367.843C226.661 367.843 224.951 366.148 224.951 363.778C224.951 361.423 226.646 359.728 228.941 359.728C231.236 359.728 232.871 361.378 232.871 363.823ZM228.941 360.943C227.561 360.943 226.541 361.873 226.391 363.223H231.491C231.341 361.888 230.336 360.943 228.941 360.943ZM238.335 367.843C235.89 367.843 234.135 366.148 234.135 363.778C234.135 361.408 235.89 359.728 238.335 359.728C239.76 359.728 240.945 360.313 241.575 361.423L240.48 362.128C239.97 361.348 239.19 360.988 238.32 360.988C236.76 360.988 235.59 362.083 235.59 363.778C235.59 365.503 236.76 366.583 238.32 366.583C239.19 366.583 239.97 366.223 240.48 365.443L241.575 366.133C240.945 367.243 239.76 367.843 238.335 367.843ZM250.507 363.823C250.507 363.943 250.492 364.123 250.477 364.258H244.027C244.207 365.653 245.332 366.583 246.907 366.583C247.837 366.583 248.617 366.268 249.202 365.623L249.997 366.553C249.277 367.393 248.182 367.843 246.862 367.843C244.297 367.843 242.587 366.148 242.587 363.778C242.587 361.423 244.282 359.728 246.577 359.728C248.872 359.728 250.507 361.378 250.507 363.823ZM246.577 360.943C245.197 360.943 244.177 361.873 244.027 363.223H249.127C248.977 361.888 247.972 360.943 246.577 360.943Z" fill="#211433"/>
<path d="M261.042 363.558H262.042L262.042 370.558H261.222L257.022 365.338L257.022 370.558H256.022L256.022 363.558H256.842L261.042 368.778L261.042 363.558Z" fill="#211433"/>
<path d="M767 200.73C764.185 200.398 758.553 198.411 758.553 193.111C758.553 187.811 758.553 139.007 758.553 115.267C758.388 112.672 756.566 107.483 750.603 107.483" stroke="#211433"/>
<path d="M750.603 294.142C753.419 293.811 759.05 291.824 759.05 286.524C759.05 281.224 759.05 232.419 759.05 208.68C759.216 206.085 761.037 200.895 767 200.895" stroke="#211433"/>
<path d="M236.022 129.304C236.022 128.706 236.487 128.215 237.125 128.215C237.789 128.215 238.228 128.706 238.228 129.304C238.228 129.902 237.789 130.394 237.125 130.394C236.487 130.394 236.022 129.902 236.022 129.304Z" fill="black"/>
<path d="M236.022 136.22C236.022 135.622 236.487 135.131 237.125 135.131C237.789 135.131 238.228 135.622 238.228 136.22C238.228 136.818 237.789 137.31 237.125 137.31C236.487 137.31 236.022 136.818 236.022 136.22Z" fill="black"/>
<path d="M236.022 143.136C236.022 142.539 236.487 142.047 237.125 142.047C237.789 142.047 238.228 142.539 238.228 143.136C238.228 143.734 237.789 144.226 237.125 144.226C236.487 144.226 236.022 143.734 236.022 143.136Z" fill="black"/>
<path d="M236.022 219.054C236.022 218.456 236.487 217.965 237.125 217.965C237.789 217.965 238.228 218.456 238.228 219.054C238.228 219.652 237.789 220.144 237.125 220.144C236.487 220.144 236.022 219.652 236.022 219.054Z" fill="black"/>
<path d="M236.022 225.97C236.022 225.372 236.487 224.881 237.125 224.881C237.789 224.881 238.228 225.372 238.228 225.97C238.228 226.568 237.789 227.06 237.125 227.06C236.487 227.06 236.022 226.568 236.022 225.97Z" fill="black"/>
<path d="M236.022 232.886C236.022 232.289 236.487 231.797 237.125 231.797C237.789 231.797 238.228 232.289 238.228 232.886C238.228 233.484 237.789 233.976 237.125 233.976C236.487 233.976 236.022 233.484 236.022 232.886Z" fill="black"/>
<path d="M236.022 310.304C236.022 309.706 236.487 309.215 237.125 309.215C237.789 309.215 238.228 309.706 238.228 310.304C238.228 310.902 237.789 311.394 237.125 311.394C236.487 311.394 236.022 310.902 236.022 310.304Z" fill="black"/>
<path d="M236.022 317.22C236.022 316.622 236.487 316.131 237.125 316.131C237.789 316.131 238.228 316.622 238.228 317.22C238.228 317.818 237.789 318.31 237.125 318.31C236.487 318.31 236.022 317.818 236.022 317.22Z" fill="black"/>
<path d="M236.022 324.136C236.022 323.539 236.487 323.047 237.125 323.047C237.789 323.047 238.228 323.539 238.228 324.136C238.228 324.734 237.789 325.226 237.125 325.226C236.487 325.226 236.022 324.734 236.022 324.136Z" fill="black"/>
<path d="M621.022 221.804C621.022 221.206 621.487 220.715 622.125 220.715C622.789 220.715 623.228 221.206 623.228 221.804C623.228 222.402 622.789 222.894 622.125 222.894C621.487 222.894 621.022 222.402 621.022 221.804Z" fill="black"/>
<path d="M621.022 228.72C621.022 228.122 621.487 227.631 622.125 227.631C622.789 227.631 623.228 228.122 623.228 228.72C623.228 229.318 622.789 229.81 622.125 229.81C621.487 229.81 621.022 229.318 621.022 228.72Z" fill="black"/>
<path d="M621.022 235.636C621.022 235.039 621.487 234.547 622.125 234.547C622.789 234.547 623.228 235.039 623.228 235.636C623.228 236.234 622.789 236.726 622.125 236.726C621.487 236.726 621.022 236.234 621.022 235.636Z" fill="black"/>
</svg>
