<svg width="710" height="466" viewBox="0 0 710 466" fill="none" xmlns="http://www.w3.org/2000/svg">
<rect x="559.615" y="55.0469" width="72" height="41.9061" rx="3.5" fill="#9B88BB" stroke="#F4F1F7"/>
<rect x="559.615" y="97.0469" width="72" height="41.9061" rx="3.5" fill="#9B88BB" stroke="#F4F1F7"/>
<rect x="559.615" y="366.047" width="72" height="41.9061" rx="3.5" fill="#9B88BB" stroke="#F4F1F7"/>
<rect x="430.432" y="261.047" width="72" height="41.9061" rx="3.5" fill="#D8D0E4" stroke="#F4F1F7"/>
<rect x="430.432" y="366.047" width="72" height="41.9061" rx="3.5" fill="#D8D0E4" stroke="#F4F1F7"/>
<rect x="430.432" y="55.0469" width="72" height="41.9061" rx="3.5" fill="#CDE6B2" stroke="#F4F1F7"/>
<rect x="430.432" y="97.0469" width="72" height="41.9061" rx="3.5" fill="#CDE6B2" stroke="#F4F1F7"/>
<rect x="430.432" y="189.047" width="72" height="41.9061" rx="3.5" fill="#CDE6B2" stroke="#F4F1F7"/>
<path d="M98 430.67C98.2589 432.865 99.8122 437.256 103.955 437.256C108.097 437.256 377.172 437.256 395.726 437.256C397.754 437.385 401.81 438.806 401.81 443.455" stroke="#F4F1F7"/>
<path d="M705.75 430.67C705.491 432.865 703.938 437.256 699.795 437.256C695.653 437.256 426.578 437.256 408.024 437.256C405.996 437.385 401.94 438.806 401.94 443.455" stroke="#F4F1F7"/>
<rect x="97.75" y="55.0469" width="303" height="41.9061" rx="3.5" fill="#F4F1F7" stroke="#F4F1F7"/>
<rect x="331" y="56.0469" width="68.7812" height="39.9375" rx="2.5" fill="#F4F1F7" stroke="#9B88BB" stroke-dasharray="2 2"/>
<rect x="98.5" y="56.0469" width="68.7812" height="39.9375" rx="2.5" fill="#F4F1F7" stroke="#9B88BB" stroke-dasharray="2 2"/>
<rect x="97.75" y="97.0469" width="303" height="41.9061" rx="3.5" fill="#F4F1F7" stroke="#211433"/>
<rect x="331" y="98.0469" width="68.7812" height="39.9375" rx="2.5" fill="#F4F1F7" stroke="#9B88BB" stroke-dasharray="2 2"/>
<rect x="98.5" y="98.0469" width="68.7812" height="39.9375" rx="2.5" fill="#F4F1F7" stroke="#9B88BB" stroke-dasharray="2 2"/>
<rect x="97.75" y="189.047" width="303" height="41.9061" rx="3.5" fill="#F4F1F7" stroke="#F4F1F7"/>
<rect x="331" y="190.047" width="68.7812" height="39.9375" rx="2.5" fill="#F4F1F7" stroke="#9B88BB" stroke-dasharray="2 2"/>
<rect x="98.5" y="190.047" width="68.7812" height="39.9375" rx="2.5" fill="#F4F1F7" stroke="#9B88BB" stroke-dasharray="2 2"/>
<path d="M81.625 50.625C79.5 50.875 75.25 52.375 75.25 56.375C75.25 60.375 75.25 117.208 75.25 135.125C75.125 137.083 73.75 141 69.25 141" stroke="#F4F1F7"/>
<path d="M69.25 141.125C71.375 141.375 75.625 142.875 75.625 146.875C75.625 150.875 75.625 207.708 75.625 225.625C75.75 227.583 77.125 231.5 81.625 231.5" stroke="#F4F1F7"/>
<rect x="97.75" y="366.047" width="303" height="41.9061" rx="3.5" fill="#F4F1F7" stroke="#F4F1F7"/>
<rect x="331" y="367.047" width="68.7812" height="39.9375" rx="2.5" fill="#F4F1F7" stroke="#9B88BB" stroke-dasharray="2 2"/>
<rect x="98.5" y="367.047" width="68.7812" height="39.9375" rx="2.5" fill="#F4F1F7" stroke="#9B88BB" stroke-dasharray="2 2"/>
<rect x="97.75" y="265.047" width="303" height="41.9061" rx="3.5" fill="#F4F1F7" stroke="#F4F1F7"/>
<rect x="331" y="266.047" width="68.7812" height="39.9375" rx="2.5" fill="#F4F1F7" stroke="#9B88BB" stroke-dasharray="2 2"/>
<rect x="98.5" y="266.047" width="68.7812" height="39.9375" rx="2.5" fill="#F4F1F7" stroke="#9B88BB" stroke-dasharray="2 2"/>
<path d="M69.25 338.125C71.375 338.375 75.625 339.875 75.625 343.875C75.625 347.875 75.625 384.708 75.625 402.625C75.75 404.583 77.125 408.5 81.625 408.5" stroke="#F4F1F7"/>
<path d="M81.625 267.625C79.5 267.875 75.25 269.375 75.25 273.375C75.25 277.375 75.25 314.208 75.25 332.125C75.125 334.083 73.75 338 69.25 338" stroke="#F4F1F7"/>
<rect x="708.75" y="107.937" width="204" height="51.9531" rx="3.5" transform="rotate(90 708.75 107.937)" fill="#7EC8A2" stroke="#F4F1F7"/>
<path d="M501.706 92.75C527.492 94.8731 564.107 103.366 582.157 131.232C594.616 150.467 602.011 164.096 604.193 167.255C614.131 183.78 630.634 209.523 656.935 208.992" stroke="#F4F1F7"/>
<path d="M502.877 122C528.249 123.603 564.278 130.013 582.038 151.048C594.298 165.567 601.574 175.855 603.722 178.24C613.5 190.713 629.739 210.145 655.618 209.744" stroke="#F4F1F7"/>
<path d="M502.75 389.5C528.265 386.231 564.496 373.154 582.357 330.246C594.685 300.629 602.002 279.642 604.162 274.778C613.995 249.334 630.325 209.695 656.35 210.512" stroke="#F4F1F7"/>
<path d="M502.877 288C528.273 286.582 564.337 280.912 582.114 262.304C594.385 249.46 601.669 240.359 603.818 238.25C613.606 227.216 629.86 210.026 655.765 210.38" stroke="#F4F1F7"/>
<path d="M502.808 209.938L656.057 209.938" stroke="#F4F1F7"/>
<path d="M664.25 210.188L649.657 217.386L649.657 202.989L664.25 210.188Z" fill="#F4F1F7"/>
<path d="M21.75 205.5L27.5235 195.5H15.9765L21.75 205.5ZM22.75 196.5V20.5H20.75V196.5H22.75Z" fill="#9B88BB"/>
<path d="M206 21.5L196 15.7265L196 27.2735L206 21.5ZM197 20.5L21 20.5L21 22.5L197 22.5L197 20.5Z" fill="#9B88BB"/>
<path d="M92.924 12.084C90.896 12.084 89.456 10.716 89.456 8.796C89.456 6.876 90.896 5.52 92.924 5.52C94.172 5.52 95.168 6.036 95.66 7.008L94.508 7.68C94.124 7.068 93.548 6.792 92.912 6.792C91.808 6.792 90.968 7.56 90.968 8.796C90.968 10.044 91.808 10.8 92.912 10.8C93.548 10.8 94.124 10.524 94.508 9.912L95.66 10.584C95.168 11.544 94.172 12.084 92.924 12.084ZM99.7429 12.084C97.7749 12.084 96.3349 10.716 96.3349 8.796C96.3349 6.876 97.7749 5.52 99.7429 5.52C101.735 5.52 103.163 6.876 103.163 8.796C103.163 10.716 101.735 12.084 99.7429 12.084ZM99.7429 10.8C100.835 10.8 101.651 10.02 101.651 8.796C101.651 7.572 100.835 6.792 99.7429 6.792C98.6629 6.792 97.8469 7.572 97.8469 8.796C97.8469 10.02 98.6629 10.8 99.7429 10.8ZM112.685 5.52C114.233 5.52 115.313 6.396 115.313 8.328V12H113.813V8.52C113.813 7.38 113.285 6.828 112.373 6.828C111.389 6.828 110.705 7.476 110.705 8.748V12H109.205V8.52C109.205 7.38 108.677 6.828 107.765 6.828C106.769 6.828 106.097 7.476 106.097 8.748V12H104.597V5.592H106.025V6.408C106.505 5.832 107.249 5.52 108.125 5.52C109.061 5.52 109.841 5.868 110.285 6.588C110.801 5.928 111.665 5.52 112.685 5.52ZM125.318 5.52C126.866 5.52 127.946 6.396 127.946 8.328V12H126.446V8.52C126.446 7.38 125.918 6.828 125.006 6.828C124.022 6.828 123.338 7.476 123.338 8.748V12H121.838V8.52C121.838 7.38 121.31 6.828 120.398 6.828C119.402 6.828 118.73 7.476 118.73 8.748V12H117.23V5.592H118.658V6.408C119.138 5.832 119.882 5.52 120.758 5.52C121.694 5.52 122.474 5.868 122.918 6.588C123.434 5.928 124.298 5.52 125.318 5.52ZM130.619 4.536C130.067 4.536 129.659 4.14 129.659 3.636C129.659 3.132 130.067 2.736 130.619 2.736C131.171 2.736 131.579 3.108 131.579 3.6C131.579 4.128 131.183 4.536 130.619 4.536ZM129.863 12V5.592H131.363V12H129.863ZM136.764 10.584L137.184 11.652C136.824 11.94 136.284 12.084 135.744 12.084C134.34 12.084 133.536 11.34 133.536 9.924V6.84H132.48V5.64H133.536V4.176H135.036V5.64H136.752V6.84H135.036V9.888C135.036 10.512 135.348 10.848 135.924 10.848C136.236 10.848 136.536 10.764 136.764 10.584Z" fill="#9B88BB"/>
<path d="M445.856 36.084C443.828 36.084 442.388 34.716 442.388 32.796C442.388 30.876 443.828 29.52 445.856 29.52C447.104 29.52 448.1 30.036 448.592 31.008L447.44 31.68C447.056 31.068 446.48 30.792 445.844 30.792C444.74 30.792 443.9 31.56 443.9 32.796C443.9 34.044 444.74 34.8 445.844 34.8C446.48 34.8 447.056 34.524 447.44 33.912L448.592 34.584C448.1 35.544 447.104 36.084 445.856 36.084ZM452.675 36.084C450.707 36.084 449.267 34.716 449.267 32.796C449.267 30.876 450.707 29.52 452.675 29.52C454.667 29.52 456.095 30.876 456.095 32.796C456.095 34.716 454.667 36.084 452.675 36.084ZM452.675 34.8C453.767 34.8 454.583 34.02 454.583 32.796C454.583 31.572 453.767 30.792 452.675 30.792C451.595 30.792 450.779 31.572 450.779 32.796C450.779 34.02 451.595 34.8 452.675 34.8ZM465.618 29.52C467.166 29.52 468.246 30.396 468.246 32.328V36H466.746V32.52C466.746 31.38 466.218 30.828 465.306 30.828C464.322 30.828 463.638 31.476 463.638 32.748V36H462.138V32.52C462.138 31.38 461.61 30.828 460.698 30.828C459.702 30.828 459.03 31.476 459.03 32.748V36H457.53V29.592H458.958V30.408C459.438 29.832 460.182 29.52 461.058 29.52C461.994 29.52 462.774 29.868 463.218 30.588C463.734 29.928 464.598 29.52 465.618 29.52ZM478.25 29.52C479.798 29.52 480.878 30.396 480.878 32.328V36H479.378V32.52C479.378 31.38 478.85 30.828 477.938 30.828C476.954 30.828 476.27 31.476 476.27 32.748V36H474.77V32.52C474.77 31.38 474.242 30.828 473.33 30.828C472.334 30.828 471.662 31.476 471.662 32.748V36H470.162V29.592H471.59V30.408C472.07 29.832 472.814 29.52 473.69 29.52C474.626 29.52 475.406 29.868 475.85 30.588C476.366 29.928 477.23 29.52 478.25 29.52ZM483.551 28.536C482.999 28.536 482.591 28.14 482.591 27.636C482.591 27.132 482.999 26.736 483.551 26.736C484.103 26.736 484.511 27.108 484.511 27.6C484.511 28.128 484.115 28.536 483.551 28.536ZM482.795 36V29.592H484.295V36H482.795ZM489.696 34.584L490.116 35.652C489.756 35.94 489.216 36.084 488.676 36.084C487.272 36.084 486.468 35.34 486.468 33.924V30.84H485.412V29.64H486.468V28.176H487.968V29.64H489.684V30.84H487.968V33.888C487.968 34.512 488.28 34.848 488.856 34.848C489.168 34.848 489.468 34.764 489.696 34.584Z" fill="#F4F1F7"/>
<path d="M61.5163 159.098C61.5163 160.166 61.2043 161.234 60.7963 161.81L59.6563 161.234C60.0283 160.67 60.2923 159.806 60.2923 159.002C60.2923 158.054 60.0283 157.658 59.5843 157.658C58.3603 157.658 59.5123 161.618 56.9563 161.618C55.7443 161.618 54.9523 160.526 54.9523 158.798C54.9523 157.946 55.1563 156.974 55.5043 156.398L56.6443 156.974C56.2843 157.586 56.1643 158.198 56.1643 158.81C56.1643 159.722 56.4643 160.154 56.8843 160.154C58.1803 160.154 57.0283 156.194 59.5363 156.194C60.7363 156.194 61.5163 157.298 61.5163 159.098ZM61.5163 152.023C61.5163 153.991 60.1483 155.431 58.2283 155.431C56.3083 155.431 54.9523 153.991 54.9523 152.023C54.9523 150.031 56.3083 148.603 58.2283 148.603C60.1483 148.603 61.5163 150.031 61.5163 152.023ZM60.2323 152.023C60.2323 150.931 59.4523 150.115 58.2283 150.115C57.0043 150.115 56.2243 150.931 56.2243 152.023C56.2243 153.103 57.0043 153.919 58.2283 153.919C59.4523 153.919 60.2323 153.103 60.2323 152.023ZM55.0243 142.464L55.0243 140.964L61.4323 140.964L61.4323 142.392L60.6163 142.392C61.2043 142.872 61.5163 143.628 61.5163 144.456C61.5163 146.1 60.6163 147.216 58.6843 147.216L55.0243 147.216L55.0243 145.716L58.4803 145.716C59.6443 145.716 60.1963 145.164 60.1963 144.216C60.1963 143.172 59.5483 142.464 58.2643 142.464L55.0243 142.464ZM55.9603 137.572C55.2883 137.14 54.9523 136.36 54.9523 135.292L56.3803 135.292C56.3563 135.424 56.3443 135.532 56.3443 135.64C56.3443 136.78 57.0163 137.5 58.3243 137.5L61.4323 137.5L61.4323 139L55.0243 139L55.0243 137.572L55.9603 137.572ZM61.5163 131.138C61.5163 133.166 60.1483 134.606 58.2283 134.606C56.3083 134.606 54.9523 133.166 54.9523 131.138C54.9523 129.89 55.4683 128.894 56.4403 128.402L57.1123 129.554C56.5003 129.938 56.2243 130.514 56.2243 131.15C56.2243 132.254 56.9923 133.094 58.2283 133.094C59.4763 133.094 60.2323 132.254 60.2323 131.15C60.2323 130.514 59.9563 129.938 59.3443 129.554L60.0163 128.402C60.9763 128.894 61.5163 129.89 61.5163 131.138ZM58.2643 121.176C58.3843 121.176 58.5643 121.188 58.7083 121.2L58.7083 126.228C59.6443 126.048 60.2443 125.268 60.2443 124.152C60.2443 123.432 60.0163 122.868 59.5483 122.412L60.4723 121.608C61.1563 122.184 61.5163 123.084 61.5163 124.188C61.5163 126.336 60.1363 127.728 58.2283 127.728C56.3203 127.728 54.9523 126.324 54.9523 124.416C54.9523 122.544 56.2603 121.176 58.2643 121.176ZM56.1523 124.416C56.1523 125.388 56.7763 126.096 57.7123 126.24L57.7123 122.604C56.7883 122.724 56.1523 123.432 56.1523 124.416Z" fill="#F4F1F7"/>
<path d="M58.2643 361.554C58.3843 361.554 58.5643 361.566 58.7083 361.578L58.7083 366.606C59.6443 366.426 60.2443 365.646 60.2443 364.53C60.2443 363.81 60.0163 363.246 59.5483 362.79L60.4723 361.986C61.1563 362.562 61.5163 363.462 61.5163 364.566C61.5163 366.714 60.1363 368.106 58.2283 368.106C56.3203 368.106 54.9523 366.702 54.9523 364.794C54.9523 362.922 56.2603 361.554 58.2643 361.554ZM56.1523 364.794C56.1523 365.766 56.7763 366.474 57.7123 366.618L57.7123 362.982C56.7883 363.102 56.1523 363.81 56.1523 364.794ZM61.4323 354.517L61.4323 356.209L59.2123 357.853L61.4323 359.509L61.4323 361.165L58.1803 358.669L55.0243 361.057L55.0243 359.389L57.1243 357.817L55.0243 356.245L55.0243 354.625L58.1563 357.025L61.4323 354.517ZM60.0163 349.979L61.0843 349.559C61.3723 349.919 61.5163 350.459 61.5163 350.999C61.5163 352.403 60.7723 353.207 59.3563 353.207L56.2723 353.207L56.2723 354.263L55.0723 354.263L55.0723 353.207L53.6083 353.207L53.6083 351.707L55.0723 351.707L55.0723 349.991L56.2723 349.991L56.2723 351.707L59.3203 351.707C59.9443 351.707 60.2803 351.395 60.2803 350.819C60.2803 350.507 60.1963 350.207 60.0163 349.979ZM58.2643 342.512C58.3843 342.512 58.5643 342.524 58.7083 342.536L58.7083 347.564C59.6443 347.384 60.2443 346.604 60.2443 345.488C60.2443 344.768 60.0163 344.204 59.5483 343.748L60.4723 342.944C61.1563 343.52 61.5163 344.42 61.5163 345.524C61.5163 347.672 60.1363 349.064 58.2283 349.064C56.3203 349.064 54.9523 347.66 54.9523 345.752C54.9523 343.88 56.2603 342.512 58.2643 342.512ZM56.1523 345.752C56.1523 346.724 56.7763 347.432 57.7123 347.576L57.7123 343.94C56.7883 344.06 56.1523 344.768 56.1523 345.752ZM54.9523 337.435C54.9523 335.899 55.8283 334.759 57.7603 334.759L61.4323 334.759L61.4323 336.259L57.9523 336.259C56.8123 336.259 56.2603 336.823 56.2603 337.783C56.2603 338.851 56.9083 339.571 58.1923 339.571L61.4323 339.571L61.4323 341.071L55.0243 341.071L55.0243 339.643L55.8523 339.643C55.2643 339.151 54.9523 338.371 54.9523 337.435ZM61.5163 330.876C61.5163 331.944 61.2043 333.012 60.7963 333.588L59.6563 333.012C60.0283 332.448 60.2923 331.584 60.2923 330.78C60.2923 329.832 60.0283 329.436 59.5843 329.436C58.3603 329.436 59.5123 333.396 56.9563 333.396C55.7443 333.396 54.9523 332.304 54.9523 330.576C54.9523 329.724 55.1563 328.752 55.5043 328.176L56.6443 328.752C56.2843 329.364 56.1643 329.976 56.1643 330.588C56.1643 331.5 56.4643 331.932 56.8843 331.932C58.1803 331.932 57.0283 327.972 59.5363 327.972C60.7363 327.972 61.5163 329.076 61.5163 330.876ZM53.9683 325.924C53.9683 326.476 53.5723 326.884 53.0683 326.884C52.5643 326.884 52.1683 326.476 52.1683 325.924C52.1683 325.372 52.5403 324.964 53.0323 324.964C53.5603 324.964 53.9683 325.36 53.9683 325.924ZM61.4323 326.68L55.0243 326.68L55.0243 325.18L61.4323 325.18L61.4323 326.68ZM61.5163 320.331C61.5163 322.299 60.1483 323.739 58.2283 323.739C56.3083 323.739 54.9523 322.299 54.9523 320.331C54.9523 318.339 56.3083 316.911 58.2283 316.911C60.1483 316.911 61.5163 318.339 61.5163 320.331ZM60.2323 320.331C60.2323 319.239 59.4523 318.423 58.2283 318.423C57.0043 318.423 56.2243 319.239 56.2243 320.331C56.2243 321.411 57.0043 322.227 58.2283 322.227C59.4523 322.227 60.2323 321.411 60.2323 320.331ZM54.9523 311.841C54.9523 310.305 55.8283 309.165 57.7603 309.165L61.4323 309.165L61.4323 310.665L57.9523 310.665C56.8123 310.665 56.2603 311.229 56.2603 312.189C56.2603 313.257 56.9083 313.977 58.1923 313.977L61.4323 313.977L61.4323 315.477L55.0243 315.477L55.0243 314.049L55.8523 314.049C55.2643 313.557 54.9523 312.777 54.9523 311.841Z" fill="#F4F1F7"/>
<path d="M582.651 29.52C584.523 29.52 585.903 30.816 585.903 32.796C585.903 34.788 584.523 36.084 582.651 36.084C581.835 36.084 581.115 35.808 580.599 35.22V38.328H579.099V29.592H580.527V30.432C581.031 29.82 581.775 29.52 582.651 29.52ZM582.483 34.8C583.563 34.8 584.379 34.02 584.379 32.796C584.379 31.572 583.563 30.792 582.483 30.792C581.403 30.792 580.575 31.572 580.575 32.796C580.575 34.02 581.403 34.8 582.483 34.8ZM588.753 30.528C589.185 29.856 589.965 29.52 591.033 29.52V30.948C590.901 30.924 590.793 30.912 590.685 30.912C589.545 30.912 588.825 31.584 588.825 32.892V36H587.325V29.592H588.753V30.528ZM595.127 36.084C593.159 36.084 591.719 34.716 591.719 32.796C591.719 30.876 593.159 29.52 595.127 29.52C597.119 29.52 598.547 30.876 598.547 32.796C598.547 34.716 597.119 36.084 595.127 36.084ZM595.127 34.8C596.219 34.8 597.035 34.02 597.035 32.796C597.035 31.572 596.219 30.792 595.127 30.792C594.047 30.792 593.231 31.572 593.231 32.796C593.231 34.02 594.047 34.8 595.127 34.8ZM604.366 29.592H605.806L603.058 36H601.51L598.762 29.592H600.322L602.314 34.344L604.366 29.592ZM612.591 32.832C612.591 32.952 612.579 33.132 612.567 33.276H607.539C607.719 34.212 608.499 34.812 609.615 34.812C610.335 34.812 610.899 34.584 611.355 34.116L612.159 35.04C611.583 35.724 610.683 36.084 609.579 36.084C607.431 36.084 606.039 34.704 606.039 32.796C606.039 30.888 607.443 29.52 609.351 29.52C611.223 29.52 612.591 30.828 612.591 32.832ZM609.351 30.72C608.379 30.72 607.671 31.344 607.527 32.28H611.163C611.043 31.356 610.335 30.72 609.351 30.72Z" fill="#F4F1F7"/>
<path d="M9.582 146.492C9.702 146.492 9.882 146.504 10.026 146.516L10.026 151.544C10.962 151.364 11.562 150.584 11.562 149.468C11.562 148.748 11.334 148.184 10.866 147.728L11.79 146.924C12.474 147.5 12.834 148.4 12.834 149.504C12.834 151.652 11.454 153.044 9.546 153.044C7.638 153.044 6.27 151.64 6.27 149.732C6.27 147.86 7.578 146.492 9.582 146.492ZM7.47 149.732C7.47 150.704 8.094 151.412 9.03 151.556L9.03 147.92C8.106 148.04 7.47 148.748 7.47 149.732ZM7.278 143.623C6.606 143.191 6.27 142.411 6.27 141.343L7.698 141.343C7.674 141.475 7.662 141.583 7.662 141.691C7.662 142.831 8.334 143.551 9.642 143.551L12.75 143.551L12.75 145.051L6.342 145.051L6.342 143.623L7.278 143.623ZM6.27 137.658C6.27 135.81 7.146 134.742 8.994 134.742L12.75 134.742L12.75 136.158L11.97 136.158C12.522 136.518 12.834 137.214 12.834 138.174C12.834 139.638 12.03 140.562 10.914 140.562C9.846 140.562 9.006 139.842 9.006 137.898L9.006 136.242L8.91 136.242C8.034 136.242 7.518 136.77 7.518 137.838C7.518 138.558 7.758 139.302 8.154 139.782L7.062 140.37C6.534 139.686 6.27 138.69 6.27 137.658ZM11.742 137.862C11.742 137.13 11.406 136.494 10.746 136.242L10.002 136.242L10.002 137.79C10.002 138.81 10.386 139.086 10.854 139.086C11.394 139.086 11.742 138.63 11.742 137.862ZM12.834 130.837C12.834 131.905 12.522 132.973 12.114 133.549L10.974 132.973C11.346 132.409 11.61 131.545 11.61 130.741C11.61 129.793 11.346 129.397 10.902 129.397C9.678 129.397 10.83 133.357 8.274 133.357C7.062 133.357 6.27 132.265 6.27 130.537C6.27 129.685 6.474 128.713 6.822 128.137L7.962 128.713C7.602 129.325 7.482 129.937 7.482 130.549C7.482 131.461 7.782 131.893 8.202 131.893C9.498 131.893 8.346 127.933 10.854 127.933C12.054 127.933 12.834 129.037 12.834 130.837ZM6.342 121.937L6.342 120.437L12.75 120.437L12.75 121.865L11.934 121.865C12.522 122.345 12.834 123.101 12.834 123.929C12.834 125.573 11.934 126.689 10.002 126.689L6.342 126.689L6.342 125.189L9.798 125.189C10.962 125.189 11.514 124.637 11.514 123.689C11.514 122.645 10.866 121.937 9.582 121.937L6.342 121.937ZM7.278 117.045C6.606 116.613 6.27 115.833 6.27 114.765L7.698 114.765C7.674 114.897 7.662 115.005 7.662 115.113C7.662 116.253 8.334 116.973 9.642 116.973L12.75 116.973L12.75 118.473L6.342 118.473L6.342 117.045L7.278 117.045ZM9.582 107.527C9.702 107.527 9.882 107.539 10.026 107.551L10.026 112.579C10.962 112.399 11.562 111.619 11.562 110.503C11.562 109.783 11.334 109.219 10.866 108.763L11.79 107.959C12.474 108.535 12.834 109.435 12.834 110.539C12.834 112.687 11.454 114.079 9.546 114.079C7.638 114.079 6.27 112.675 6.27 110.767C6.27 108.895 7.578 107.527 9.582 107.527ZM7.47 110.767C7.47 111.739 8.094 112.447 9.03 112.591L9.03 108.955C8.106 109.075 7.47 109.783 7.47 110.767ZM12.834 99.8299C12.834 101.858 11.466 103.298 9.546 103.298C7.626 103.298 6.27 101.858 6.27 99.8299C6.27 98.5819 6.786 97.5859 7.758 97.0939L8.43 98.2459C7.818 98.6299 7.542 99.2059 7.542 99.8419C7.542 100.946 8.31 101.786 9.546 101.786C10.794 101.786 11.55 100.946 11.55 99.8419C11.55 99.2059 11.274 98.6299 10.662 98.2459L11.334 97.0939C12.294 97.5859 12.834 98.5819 12.834 99.8299ZM12.834 93.011C12.834 94.979 11.466 96.419 9.546 96.419C7.626 96.419 6.27 94.979 6.27 93.011C6.27 91.019 7.626 89.591 9.546 89.591C11.466 89.591 12.834 91.019 12.834 93.011ZM11.55 93.011C11.55 91.919 10.77 91.103 9.546 91.103C8.322 91.103 7.542 91.919 7.542 93.011C7.542 94.091 8.322 94.907 9.546 94.907C10.77 94.907 11.55 94.091 11.55 93.011ZM3.846 83.3806L3.846 81.8806L12.75 81.8806L12.75 83.3206L11.922 83.3206C12.534 83.8246 12.834 84.5686 12.834 85.4446C12.834 87.3046 11.538 88.6846 9.546 88.6846C7.554 88.6846 6.27 87.3046 6.27 85.4446C6.27 84.6166 6.546 83.8846 7.134 83.3806L3.846 83.3806ZM11.55 85.2646C11.55 84.1846 10.77 83.3566 9.546 83.3566C8.322 83.3566 7.542 84.1846 7.542 85.2646C7.542 86.3446 8.322 87.1726 9.546 87.1726C10.77 87.1726 11.55 86.3446 11.55 85.2646ZM9.582 73.8943C9.702 73.8943 9.882 73.9063 10.026 73.9183L10.026 78.9463C10.962 78.7663 11.562 77.9863 11.562 76.8703C11.562 76.1503 11.334 75.5863 10.866 75.1303L11.79 74.3263C12.474 74.9023 12.834 75.8023 12.834 76.9063C12.834 79.0543 11.454 80.4463 9.546 80.4463C7.638 80.4463 6.27 79.0423 6.27 77.1343C6.27 75.2623 7.578 73.8943 9.582 73.8943ZM7.47 77.1343C7.47 78.1063 8.094 78.8143 9.03 78.9583L9.03 75.3223C8.106 75.4423 7.47 76.1503 7.47 77.1343Z" fill="#9B88BB"/>
<path d="M464.919 160.035C464.919 159.585 465.269 159.215 465.749 159.215C466.249 159.215 466.579 159.585 466.579 160.035C466.579 160.485 466.249 160.855 465.749 160.855C465.269 160.855 464.919 160.485 464.919 160.035Z" fill="#F4F1F7"/>
<path d="M464.919 165.24C464.919 164.79 465.269 164.42 465.749 164.42C466.249 164.42 466.579 164.79 466.579 165.24C466.579 165.69 466.249 166.06 465.749 166.06C465.269 166.06 464.919 165.69 464.919 165.24Z" fill="#F4F1F7"/>
<path d="M464.919 170.445C464.919 169.995 465.269 169.625 465.749 169.625C466.249 169.625 466.579 169.995 466.579 170.445C466.579 170.895 466.249 171.265 465.749 171.265C465.269 171.265 464.919 170.895 464.919 170.445Z" fill="#F4F1F7"/>
<path d="M568.954 201.41C569.404 201.41 569.774 201.76 569.774 202.24C569.774 202.74 569.404 203.07 568.954 203.07C568.504 203.07 568.134 202.74 568.134 202.24C568.134 201.76 568.504 201.41 568.954 201.41Z" fill="#F4F1F7"/>
<path d="M563.749 201.41C564.199 201.41 564.569 201.76 564.569 202.24C564.569 202.74 564.199 203.07 563.749 203.07C563.299 203.07 562.929 202.74 562.929 202.24C562.929 201.76 563.299 201.41 563.749 201.41Z" fill="#F4F1F7"/>
<path d="M558.544 201.41C558.994 201.41 559.364 201.76 559.364 202.24C559.364 202.74 558.994 203.07 558.544 203.07C558.094 203.07 557.724 202.74 557.724 202.24C557.724 201.76 558.094 201.41 558.544 201.41Z" fill="#F4F1F7"/>
<path d="M330.919 160.035C330.919 159.585 331.269 159.215 331.749 159.215C332.249 159.215 332.579 159.585 332.579 160.035C332.579 160.485 332.249 160.855 331.749 160.855C331.269 160.855 330.919 160.485 330.919 160.035Z" fill="#F4F1F7"/>
<path d="M330.919 165.24C330.919 164.79 331.269 164.42 331.749 164.42C332.249 164.42 332.579 164.79 332.579 165.24C332.579 165.69 332.249 166.06 331.749 166.06C331.269 166.06 330.919 165.69 330.919 165.24Z" fill="#F4F1F7"/>
<path d="M330.919 170.445C330.919 169.995 331.269 169.625 331.749 169.625C332.249 169.625 332.579 169.995 332.579 170.445C332.579 170.895 332.249 171.265 331.749 171.265C331.269 171.265 330.919 170.895 330.919 170.445Z" fill="#F4F1F7"/>
<path d="M166.419 160.035C166.419 159.585 166.769 159.215 167.249 159.215C167.749 159.215 168.079 159.585 168.079 160.035C168.079 160.485 167.749 160.855 167.249 160.855C166.769 160.855 166.419 160.485 166.419 160.035Z" fill="#F4F1F7"/>
<path d="M166.419 165.24C166.419 164.79 166.769 164.42 167.249 164.42C167.749 164.42 168.079 164.79 168.079 165.24C168.079 165.69 167.749 166.06 167.249 166.06C166.769 166.06 166.419 165.69 166.419 165.24Z" fill="#F4F1F7"/>
<path d="M166.419 170.445C166.419 169.995 166.769 169.625 167.249 169.625C167.749 169.625 168.079 169.995 168.079 170.445C168.079 170.895 167.749 171.265 167.249 171.265C166.769 171.265 166.419 170.895 166.419 170.445Z" fill="#F4F1F7"/>
<path d="M330.919 330.035C330.919 329.585 331.269 329.215 331.749 329.215C332.249 329.215 332.579 329.585 332.579 330.035C332.579 330.485 332.249 330.855 331.749 330.855C331.269 330.855 330.919 330.485 330.919 330.035Z" fill="#F4F1F7"/>
<path d="M330.919 335.24C330.919 334.79 331.269 334.42 331.749 334.42C332.249 334.42 332.579 334.79 332.579 335.24C332.579 335.69 332.249 336.06 331.749 336.06C331.269 336.06 330.919 335.69 330.919 335.24Z" fill="#F4F1F7"/>
<path d="M330.919 340.445C330.919 339.995 331.269 339.625 331.749 339.625C332.249 339.625 332.579 339.995 332.579 340.445C332.579 340.895 332.249 341.265 331.749 341.265C331.269 341.265 330.919 340.895 330.919 340.445Z" fill="#F4F1F7"/>
<path d="M166.419 330.035C166.419 329.585 166.769 329.215 167.249 329.215C167.749 329.215 168.079 329.585 168.079 330.035C168.079 330.485 167.749 330.855 167.249 330.855C166.769 330.855 166.419 330.485 166.419 330.035Z" fill="#F4F1F7"/>
<path d="M166.419 335.24C166.419 334.79 166.769 334.42 167.249 334.42C167.749 334.42 168.079 334.79 168.079 335.24C168.079 335.69 167.749 336.06 167.249 336.06C166.769 336.06 166.419 335.69 166.419 335.24Z" fill="#F4F1F7"/>
<path d="M166.419 340.445C166.419 339.995 166.769 339.625 167.249 339.625C167.749 339.625 168.079 339.995 168.079 340.445C168.079 340.895 167.749 341.265 167.249 341.265C166.769 341.265 166.419 340.895 166.419 340.445Z" fill="#F4F1F7"/>
<path d="M463.856 82.17C460.218 82.17 457.498 79.603 457.498 76.05C457.498 72.497 460.218 69.93 463.873 69.93C465.811 69.93 467.477 70.627 468.582 71.919L467.154 73.262C466.287 72.327 465.216 71.868 463.975 71.868C461.51 71.868 459.725 73.602 459.725 76.05C459.725 78.498 461.51 80.232 463.975 80.232C465.216 80.232 466.287 79.773 467.154 78.821L468.582 80.181C467.477 81.473 465.811 82.17 463.856 82.17Z" fill="#211433"/>
<path d="M474.11 85.1C472.45 85.1 471.19 83.8 471.19 81.5C471.19 79.2 472.45 77.9 474.11 77.9C475.78 77.9 477.04 79.2 477.04 81.5C477.04 83.8 475.78 85.1 474.11 85.1ZM474.11 83.97C475.07 83.97 475.73 83.19 475.73 81.5C475.73 79.81 475.07 79.03 474.11 79.03C473.16 79.03 472.5 79.81 472.5 81.5C472.5 83.19 473.16 83.97 474.11 83.97Z" fill="#211433"/>
<path d="M600.631 70.6H602.739L598.795 82.5H596.449L593.508 73.694L590.516 82.5H588.153L584.209 70.6H586.504L589.462 79.644L592.539 70.6H594.579L597.588 79.695L600.631 70.6Z" fill="#211433"/>
<path d="M606.61 85.6C604.95 85.6 603.69 84.3 603.69 82C603.69 79.7 604.95 78.4 606.61 78.4C608.28 78.4 609.54 79.7 609.54 82C609.54 84.3 608.28 85.6 606.61 85.6ZM606.61 84.47C607.57 84.47 608.23 83.69 608.23 82C608.23 80.31 607.57 79.53 606.61 79.53C605.66 79.53 605 80.31 605 82C605 83.69 605.66 84.47 606.61 84.47Z" fill="#211433"/>
<path d="M463.856 123.67C460.218 123.67 457.498 121.103 457.498 117.55C457.498 113.997 460.218 111.43 463.873 111.43C465.811 111.43 467.477 112.127 468.582 113.419L467.154 114.762C466.287 113.827 465.216 113.368 463.975 113.368C461.51 113.368 459.725 115.102 459.725 117.55C459.725 119.998 461.51 121.732 463.975 121.732C465.216 121.732 466.287 121.273 467.154 120.321L468.582 121.681C467.477 122.973 465.811 123.67 463.856 123.67Z" fill="#211433"/>
<path d="M470.83 119.5H473.61V126.5H472.31V120.59H470.83V119.5Z" fill="#211433"/>
<path d="M463.856 215.17C460.218 215.17 457.498 212.603 457.498 209.05C457.498 205.497 460.218 202.93 463.873 202.93C465.811 202.93 467.477 203.627 468.582 204.919L467.154 206.262C466.287 205.327 465.216 204.868 463.975 204.868C461.51 204.868 459.725 206.602 459.725 209.05C459.725 211.498 461.51 213.232 463.975 213.232C465.216 213.232 466.287 212.773 467.154 211.821L468.582 213.181C467.477 214.473 465.811 215.17 463.856 215.17Z" fill="#211433"/>
<path d="M470.83 211H473.61V218H472.31V212.09H470.83V211ZM476.769 216.9H480.069V218H474.909V217.13L477.689 214.49C478.369 213.84 478.489 213.43 478.489 213.04C478.489 212.4 478.049 212.03 477.189 212.03C476.509 212.03 475.939 212.26 475.549 212.76L474.639 212.06C475.179 211.33 476.149 210.9 477.299 210.9C478.819 210.9 479.799 211.67 479.799 212.91C479.799 213.59 479.609 214.21 478.639 215.12L476.769 216.9ZM480.63 211H486.07V211.87L483.35 218H481.96L484.59 212.1H481.84V213.29H480.63V211Z" fill="#211433"/>
<path d="M463.856 290.17C460.218 290.17 457.498 287.603 457.498 284.05C457.498 280.497 460.218 277.93 463.873 277.93C465.811 277.93 467.477 278.627 468.582 279.919L467.154 281.262C466.287 280.327 465.216 279.868 463.975 279.868C461.51 279.868 459.725 281.602 459.725 284.05C459.725 286.498 461.51 288.232 463.975 288.232C465.216 288.232 466.287 287.773 467.154 286.821L468.582 288.181C467.477 289.473 465.811 290.17 463.856 290.17Z" fill="#211433"/>
<path d="M470.83 286H473.61V293H472.31V287.09H470.83V286ZM476.769 291.9H480.069V293H474.909V292.13L477.689 289.49C478.369 288.84 478.489 288.43 478.489 288.04C478.489 287.4 478.049 287.03 477.189 287.03C476.509 287.03 475.939 287.26 475.549 287.76L474.639 287.06C475.179 286.33 476.149 285.9 477.299 285.9C478.819 285.9 479.799 286.67 479.799 287.91C479.799 288.59 479.609 289.21 478.639 290.12L476.769 291.9ZM485.359 289.32C486.089 289.65 486.499 290.22 486.499 290.99C486.499 292.29 485.369 293.1 483.629 293.1C481.889 293.1 480.779 292.29 480.779 290.99C480.779 290.22 481.179 289.65 481.899 289.32C481.339 289.01 481.029 288.51 481.029 287.85C481.029 286.65 482.079 285.9 483.629 285.9C485.189 285.9 486.249 286.65 486.249 287.85C486.249 288.51 485.929 289.01 485.359 289.32ZM483.629 286.92C482.829 286.92 482.309 287.28 482.309 287.91C482.309 288.51 482.809 288.89 483.629 288.89C484.459 288.89 484.969 288.51 484.969 287.91C484.969 287.28 484.429 286.92 483.629 286.92ZM483.629 292.08C484.589 292.08 485.189 291.66 485.189 290.95C485.189 290.26 484.589 289.83 483.629 289.83C482.669 289.83 482.089 290.26 482.089 290.95C482.089 291.66 482.669 292.08 483.629 292.08Z" fill="#211433"/>
<path d="M463.856 393.67C460.218 393.67 457.498 391.103 457.498 387.55C457.498 383.997 460.218 381.43 463.873 381.43C465.811 381.43 467.477 382.127 468.582 383.419L467.154 384.762C466.287 383.827 465.216 383.368 463.975 383.368C461.51 383.368 459.725 385.102 459.725 387.55C459.725 389.998 461.51 391.732 463.975 391.732C465.216 391.732 466.287 391.273 467.154 390.321L468.582 391.681C467.477 392.973 465.811 393.67 463.856 393.67Z" fill="#211433"/>
<path d="M472.96 395.4H476.26V396.5H471.1V395.63L473.88 392.99C474.56 392.34 474.68 391.93 474.68 391.54C474.68 390.9 474.24 390.53 473.38 390.53C472.7 390.53 472.13 390.76 471.74 391.26L470.83 390.56C471.37 389.83 472.34 389.4 473.49 389.4C475.01 389.4 475.99 390.17 475.99 391.41C475.99 392.09 475.8 392.71 474.83 393.62L472.96 395.4ZM479.2 392.21C481.27 392.21 482.1 393.11 482.1 394.35C482.1 395.58 481.21 396.6 479.33 396.6C478.34 396.6 477.34 396.3 476.7 395.79L477.25 394.78C477.76 395.2 478.52 395.47 479.31 395.47C480.24 395.47 480.79 395.06 480.79 394.4C480.79 393.73 480.36 393.31 478.91 393.31H477.22L477.58 389.5H481.69V390.59H478.68L478.53 392.21H479.2ZM484.991 392.21C487.061 392.21 487.891 393.11 487.891 394.35C487.891 395.58 487.001 396.6 485.121 396.6C484.131 396.6 483.131 396.3 482.491 395.79L483.041 394.78C483.551 395.2 484.311 395.47 485.101 395.47C486.031 395.47 486.581 395.06 486.581 394.4C486.581 393.73 486.151 393.31 484.701 393.31H483.011L483.371 389.5H487.481V390.59H484.471L484.321 392.21H484.991Z" fill="#211433"/>
<path d="M600.631 113.6H602.739L598.795 125.5H596.449L593.508 116.694L590.516 125.5H588.153L584.209 113.6H586.504L589.462 122.644L592.539 113.6H594.579L597.588 122.695L600.631 113.6Z" fill="#211433"/>
<path d="M603.33 121.5H606.11V128.5H604.81V122.59H603.33V121.5Z" fill="#211433"/>
<path d="M600.631 381.1H602.739L598.795 393H596.449L593.508 384.194L590.516 393H588.153L584.209 381.1H586.504L589.462 390.144L592.539 381.1H594.579L597.588 390.195L600.631 381.1Z" fill="#211433"/>
<path d="M605.46 394.9H608.76V396H603.6V395.13L606.38 392.49C607.06 391.84 607.18 391.43 607.18 391.04C607.18 390.4 606.74 390.03 605.88 390.03C605.2 390.03 604.63 390.26 604.24 390.76L603.33 390.06C603.87 389.33 604.84 388.9 605.99 388.9C607.51 388.9 608.49 389.67 608.49 390.91C608.49 391.59 608.3 392.21 607.33 393.12L605.46 394.9ZM611.7 391.71C613.77 391.71 614.6 392.61 614.6 393.85C614.6 395.08 613.71 396.1 611.83 396.1C610.84 396.1 609.84 395.8 609.2 395.29L609.75 394.28C610.26 394.7 611.02 394.97 611.81 394.97C612.74 394.97 613.29 394.56 613.29 393.9C613.29 393.23 612.86 392.81 611.41 392.81H609.72L610.08 389H614.19V390.09H611.18L611.03 391.71H611.7ZM617.491 391.71C619.561 391.71 620.391 392.61 620.391 393.85C620.391 395.08 619.501 396.1 617.621 396.1C616.631 396.1 615.631 395.8 614.991 395.29L615.541 394.28C616.051 394.7 616.811 394.97 617.601 394.97C618.531 394.97 619.081 394.56 619.081 393.9C619.081 393.23 618.651 392.81 617.201 392.81H615.511L615.871 389H619.981V390.09H616.971L616.821 391.71H617.491Z" fill="#211433"/>
<path d="M119.292 81.316C117.499 81.316 116.212 80.073 116.212 78.335C116.212 76.597 117.499 75.365 119.292 75.365C120.337 75.365 121.206 75.794 121.668 76.608L120.865 77.125C120.491 76.553 119.919 76.289 119.281 76.289C118.137 76.289 117.279 77.092 117.279 78.335C117.279 79.6 118.137 80.392 119.281 80.392C119.919 80.392 120.491 80.128 120.865 79.556L121.668 80.062C121.206 80.876 120.337 81.316 119.292 81.316ZM126.073 75.365C127.492 75.365 128.493 76.179 128.493 77.895V81.25H127.437V78.016C127.437 76.872 126.865 76.311 125.864 76.311C124.742 76.311 124.016 76.982 124.016 78.247V81.25H122.96V73.088H124.016V76.245C124.456 75.684 125.182 75.365 126.073 75.365ZM134.825 75.42H135.881V81.25H134.88V80.37C134.451 80.975 133.725 81.316 132.9 81.316C131.393 81.316 130.392 80.491 130.392 78.775V75.42H131.448V78.654C131.448 79.798 132.02 80.37 133.021 80.37C134.121 80.37 134.825 79.688 134.825 78.434V75.42ZM141.005 75.365C142.424 75.365 143.425 76.179 143.425 77.895V81.25H142.369V78.016C142.369 76.872 141.797 76.311 140.796 76.311C139.674 76.311 138.948 76.982 138.948 78.247V81.25H137.892V75.42H138.904V76.3C139.333 75.706 140.081 75.365 141.005 75.365ZM149.834 81.25L147.645 78.533L146.435 79.655V81.25H145.379V73.088H146.435V78.324L149.614 75.42H150.89L148.437 77.829L151.132 81.25H149.834Z" fill="#9B88BB"/>
<path d="M350.792 391.816C348.999 391.816 347.712 390.573 347.712 388.835C347.712 387.097 348.999 385.865 350.792 385.865C351.837 385.865 352.706 386.294 353.168 387.108L352.365 387.625C351.991 387.053 351.419 386.789 350.781 386.789C349.637 386.789 348.779 387.592 348.779 388.835C348.779 390.1 349.637 390.892 350.781 390.892C351.419 390.892 351.991 390.628 352.365 390.056L353.168 390.562C352.706 391.376 351.837 391.816 350.792 391.816ZM357.573 385.865C358.992 385.865 359.993 386.679 359.993 388.395V391.75H358.937V388.516C358.937 387.372 358.365 386.811 357.364 386.811C356.242 386.811 355.516 387.482 355.516 388.747V391.75H354.46V383.588H355.516V386.745C355.956 386.184 356.682 385.865 357.573 385.865ZM366.325 385.92H367.381V391.75H366.38V390.87C365.951 391.475 365.225 391.816 364.4 391.816C362.893 391.816 361.892 390.991 361.892 389.275V385.92H362.948V389.154C362.948 390.298 363.52 390.87 364.521 390.87C365.621 390.87 366.325 390.188 366.325 388.934V385.92ZM372.505 385.865C373.924 385.865 374.925 386.679 374.925 388.395V391.75H373.869V388.516C373.869 387.372 373.297 386.811 372.296 386.811C371.174 386.811 370.448 387.482 370.448 388.747V391.75H369.392V385.92H370.404V386.8C370.833 386.206 371.581 385.865 372.505 385.865ZM381.334 391.75L379.145 389.033L377.935 390.155V391.75H376.879V383.588H377.935V388.824L381.114 385.92H382.39L379.937 388.329L382.632 391.75H381.334Z" fill="#9B88BB"/>
<path d="M227.763 75.899C228.137 75.217 228.863 74.865 229.886 74.865V75.888C229.798 75.877 229.721 75.877 229.644 75.877C228.511 75.877 227.807 76.57 227.807 77.846V80.75H226.751V74.92H227.763V75.899ZM236.403 77.868C236.403 77.956 236.392 78.088 236.381 78.187H231.651C231.783 79.21 232.608 79.892 233.763 79.892C234.445 79.892 235.017 79.661 235.446 79.188L236.029 79.87C235.501 80.486 234.698 80.816 233.73 80.816C231.849 80.816 230.595 79.573 230.595 77.835C230.595 76.108 231.838 74.865 233.521 74.865C235.204 74.865 236.403 76.075 236.403 77.868ZM233.521 75.756C232.509 75.756 231.761 76.438 231.651 77.428H235.391C235.281 76.449 234.544 75.756 233.521 75.756ZM240.41 80.816C238.617 80.816 237.33 79.573 237.33 77.835C237.33 76.097 238.617 74.865 240.41 74.865C241.455 74.865 242.324 75.294 242.786 76.108L241.983 76.625C241.609 76.053 241.037 75.789 240.399 75.789C239.255 75.789 238.397 76.592 238.397 77.835C238.397 79.1 239.255 79.892 240.399 79.892C241.037 79.892 241.609 79.628 241.983 79.056L242.786 79.562C242.324 80.376 241.455 80.816 240.41 80.816ZM246.564 80.816C244.815 80.816 243.528 79.573 243.528 77.835C243.528 76.097 244.815 74.865 246.564 74.865C248.313 74.865 249.589 76.097 249.589 77.835C249.589 79.573 248.313 80.816 246.564 80.816ZM246.564 79.892C247.686 79.892 248.522 79.078 248.522 77.835C248.522 76.592 247.686 75.789 246.564 75.789C245.442 75.789 244.595 76.592 244.595 77.835C244.595 79.078 245.442 79.892 246.564 79.892ZM252.062 75.899C252.436 75.217 253.162 74.865 254.185 74.865V75.888C254.097 75.877 254.02 75.877 253.943 75.877C252.81 75.877 252.106 76.57 252.106 77.846V80.75H251.05V74.92H252.062V75.899ZM259.877 72.588H260.933V80.75H259.921V79.826C259.448 80.486 258.7 80.816 257.842 80.816C256.137 80.816 254.894 79.617 254.894 77.835C254.894 76.053 256.137 74.865 257.842 74.865C258.667 74.865 259.393 75.173 259.877 75.8V72.588ZM257.93 79.892C259.041 79.892 259.888 79.078 259.888 77.835C259.888 76.592 259.041 75.789 257.93 75.789C256.808 75.789 255.961 76.592 255.961 77.835C255.961 79.078 256.808 79.892 257.93 79.892ZM268.558 80.838C266.754 80.838 265.412 79.408 265.412 76.9C265.412 74.392 266.754 72.962 268.558 72.962C270.351 72.962 271.693 74.392 271.693 76.9C271.693 79.408 270.351 80.838 268.558 80.838ZM268.558 79.859C269.757 79.859 270.593 78.869 270.593 76.9C270.593 74.931 269.757 73.941 268.558 73.941C267.348 73.941 266.512 74.931 266.512 76.9C266.512 78.869 267.348 79.859 268.558 79.859Z" fill="#211433"/>
<path d="M227.763 117.399C228.137 116.717 228.863 116.365 229.886 116.365V117.388C229.798 117.377 229.721 117.377 229.644 117.377C228.511 117.377 227.807 118.07 227.807 119.346V122.25H226.751V116.42H227.763V117.399ZM236.403 119.368C236.403 119.456 236.392 119.588 236.381 119.687H231.651C231.783 120.71 232.608 121.392 233.763 121.392C234.445 121.392 235.017 121.161 235.446 120.688L236.029 121.37C235.501 121.986 234.698 122.316 233.73 122.316C231.849 122.316 230.595 121.073 230.595 119.335C230.595 117.608 231.838 116.365 233.521 116.365C235.204 116.365 236.403 117.575 236.403 119.368ZM233.521 117.256C232.509 117.256 231.761 117.938 231.651 118.928H235.391C235.281 117.949 234.544 117.256 233.521 117.256ZM240.41 122.316C238.617 122.316 237.33 121.073 237.33 119.335C237.33 117.597 238.617 116.365 240.41 116.365C241.455 116.365 242.324 116.794 242.786 117.608L241.983 118.125C241.609 117.553 241.037 117.289 240.399 117.289C239.255 117.289 238.397 118.092 238.397 119.335C238.397 120.6 239.255 121.392 240.399 121.392C241.037 121.392 241.609 121.128 241.983 120.556L242.786 121.062C242.324 121.876 241.455 122.316 240.41 122.316ZM246.564 122.316C244.815 122.316 243.528 121.073 243.528 119.335C243.528 117.597 244.815 116.365 246.564 116.365C248.313 116.365 249.589 117.597 249.589 119.335C249.589 121.073 248.313 122.316 246.564 122.316ZM246.564 121.392C247.686 121.392 248.522 120.578 248.522 119.335C248.522 118.092 247.686 117.289 246.564 117.289C245.442 117.289 244.595 118.092 244.595 119.335C244.595 120.578 245.442 121.392 246.564 121.392ZM252.062 117.399C252.436 116.717 253.162 116.365 254.185 116.365V117.388C254.097 117.377 254.02 117.377 253.943 117.377C252.81 117.377 252.106 118.07 252.106 119.346V122.25H251.05V116.42H252.062V117.399ZM259.877 114.088H260.933V122.25H259.921V121.326C259.448 121.986 258.7 122.316 257.842 122.316C256.137 122.316 254.894 121.117 254.894 119.335C254.894 117.553 256.137 116.365 257.842 116.365C258.667 116.365 259.393 116.673 259.877 117.3V114.088ZM257.93 121.392C259.041 121.392 259.888 120.578 259.888 119.335C259.888 118.092 259.041 117.289 257.93 117.289C256.808 117.289 255.961 118.092 255.961 119.335C255.961 120.578 256.808 121.392 257.93 121.392ZM264.972 114.55H267.799V122.25H266.71V115.507H264.972V114.55Z" fill="#211433"/>
<path d="M227.763 209.899C228.137 209.217 228.863 208.865 229.886 208.865V209.888C229.798 209.877 229.721 209.877 229.644 209.877C228.511 209.877 227.807 210.57 227.807 211.846V214.75H226.751V208.92H227.763V209.899ZM236.403 211.868C236.403 211.956 236.392 212.088 236.381 212.187H231.651C231.783 213.21 232.608 213.892 233.763 213.892C234.445 213.892 235.017 213.661 235.446 213.188L236.029 213.87C235.501 214.486 234.698 214.816 233.73 214.816C231.849 214.816 230.595 213.573 230.595 211.835C230.595 210.108 231.838 208.865 233.521 208.865C235.204 208.865 236.403 210.075 236.403 211.868ZM233.521 209.756C232.509 209.756 231.761 210.438 231.651 211.428H235.391C235.281 210.449 234.544 209.756 233.521 209.756ZM240.41 214.816C238.617 214.816 237.33 213.573 237.33 211.835C237.33 210.097 238.617 208.865 240.41 208.865C241.455 208.865 242.324 209.294 242.786 210.108L241.983 210.625C241.609 210.053 241.037 209.789 240.399 209.789C239.255 209.789 238.397 210.592 238.397 211.835C238.397 213.1 239.255 213.892 240.399 213.892C241.037 213.892 241.609 213.628 241.983 213.056L242.786 213.562C242.324 214.376 241.455 214.816 240.41 214.816ZM246.564 214.816C244.815 214.816 243.528 213.573 243.528 211.835C243.528 210.097 244.815 208.865 246.564 208.865C248.313 208.865 249.589 210.097 249.589 211.835C249.589 213.573 248.313 214.816 246.564 214.816ZM246.564 213.892C247.686 213.892 248.522 213.078 248.522 211.835C248.522 210.592 247.686 209.789 246.564 209.789C245.442 209.789 244.595 210.592 244.595 211.835C244.595 213.078 245.442 213.892 246.564 213.892ZM252.062 209.899C252.436 209.217 253.162 208.865 254.185 208.865V209.888C254.097 209.877 254.02 209.877 253.943 209.877C252.81 209.877 252.106 210.57 252.106 211.846V214.75H251.05V208.92H252.062V209.899ZM259.877 206.588H260.933V214.75H259.921V213.826C259.448 214.486 258.7 214.816 257.842 214.816C256.137 214.816 254.894 213.617 254.894 211.835C254.894 210.053 256.137 208.865 257.842 208.865C258.667 208.865 259.393 209.173 259.877 209.8V206.588ZM257.93 213.892C259.041 213.892 259.888 213.078 259.888 211.835C259.888 210.592 259.041 209.789 257.93 209.789C256.808 209.789 255.961 210.592 255.961 211.835C255.961 213.078 256.808 213.892 257.93 213.892ZM264.972 207.05H267.799V214.75H266.71V208.007H264.972V207.05ZM270.946 213.793H274.895V214.75H269.362V214.002L272.497 210.977C273.311 210.185 273.465 209.701 273.465 209.217C273.465 208.425 272.904 207.941 271.826 207.941C271.001 207.941 270.33 208.205 269.857 208.777L269.109 208.128C269.703 207.391 270.726 206.962 271.925 206.962C273.531 206.962 274.565 207.787 274.565 209.107C274.565 209.855 274.345 210.526 273.3 211.527L270.946 213.793ZM275.569 207.05H281.377V207.798L278.264 214.75H277.098L280.145 208.007H276.625V209.382H275.569V207.05Z" fill="#211433"/>
<path d="M227.763 285.399C228.137 284.717 228.863 284.365 229.886 284.365V285.388C229.798 285.377 229.721 285.377 229.644 285.377C228.511 285.377 227.807 286.07 227.807 287.346V290.25H226.751V284.42H227.763V285.399ZM236.403 287.368C236.403 287.456 236.392 287.588 236.381 287.687H231.651C231.783 288.71 232.608 289.392 233.763 289.392C234.445 289.392 235.017 289.161 235.446 288.688L236.029 289.37C235.501 289.986 234.698 290.316 233.73 290.316C231.849 290.316 230.595 289.073 230.595 287.335C230.595 285.608 231.838 284.365 233.521 284.365C235.204 284.365 236.403 285.575 236.403 287.368ZM233.521 285.256C232.509 285.256 231.761 285.938 231.651 286.928H235.391C235.281 285.949 234.544 285.256 233.521 285.256ZM240.41 290.316C238.617 290.316 237.33 289.073 237.33 287.335C237.33 285.597 238.617 284.365 240.41 284.365C241.455 284.365 242.324 284.794 242.786 285.608L241.983 286.125C241.609 285.553 241.037 285.289 240.399 285.289C239.255 285.289 238.397 286.092 238.397 287.335C238.397 288.6 239.255 289.392 240.399 289.392C241.037 289.392 241.609 289.128 241.983 288.556L242.786 289.062C242.324 289.876 241.455 290.316 240.41 290.316ZM246.564 290.316C244.815 290.316 243.528 289.073 243.528 287.335C243.528 285.597 244.815 284.365 246.564 284.365C248.313 284.365 249.589 285.597 249.589 287.335C249.589 289.073 248.313 290.316 246.564 290.316ZM246.564 289.392C247.686 289.392 248.522 288.578 248.522 287.335C248.522 286.092 247.686 285.289 246.564 285.289C245.442 285.289 244.595 286.092 244.595 287.335C244.595 288.578 245.442 289.392 246.564 289.392ZM252.062 285.399C252.436 284.717 253.162 284.365 254.185 284.365V285.388C254.097 285.377 254.02 285.377 253.943 285.377C252.81 285.377 252.106 286.07 252.106 287.346V290.25H251.05V284.42H252.062V285.399ZM259.877 282.088H260.933V290.25H259.921V289.326C259.448 289.986 258.7 290.316 257.842 290.316C256.137 290.316 254.894 289.117 254.894 287.335C254.894 285.553 256.137 284.365 257.842 284.365C258.667 284.365 259.393 284.673 259.877 285.3V282.088ZM257.93 289.392C259.041 289.392 259.888 288.578 259.888 287.335C259.888 286.092 259.041 285.289 257.93 285.289C256.808 285.289 255.961 286.092 255.961 287.335C255.961 288.578 256.808 289.392 257.93 289.392ZM264.972 282.55H267.799V290.25H266.71V283.507H264.972V282.55ZM270.946 289.293H274.895V290.25H269.362V289.502L272.497 286.477C273.311 285.685 273.465 285.201 273.465 284.717C273.465 283.925 272.904 283.441 271.826 283.441C271.001 283.441 270.33 283.705 269.857 284.277L269.109 283.628C269.703 282.891 270.726 282.462 271.925 282.462C273.531 282.462 274.565 283.287 274.565 284.607C274.565 285.355 274.345 286.026 273.3 287.027L270.946 289.293ZM280.507 286.213C281.387 286.554 281.871 287.192 281.871 288.072C281.871 289.469 280.683 290.338 278.802 290.338C276.932 290.338 275.755 289.469 275.755 288.072C275.755 287.192 276.239 286.543 277.108 286.213C276.404 285.883 276.03 285.311 276.03 284.552C276.03 283.265 277.141 282.462 278.802 282.462C280.474 282.462 281.596 283.265 281.596 284.552C281.596 285.311 281.211 285.883 280.507 286.213ZM278.802 283.353C277.768 283.353 277.119 283.826 277.119 284.596C277.119 285.355 277.746 285.828 278.802 285.828C279.869 285.828 280.518 285.355 280.518 284.596C280.518 283.826 279.836 283.353 278.802 283.353ZM278.802 289.447C280.023 289.447 280.771 288.908 280.771 288.039C280.771 287.192 280.023 286.664 278.802 286.664C277.581 286.664 276.855 287.192 276.855 288.039C276.855 288.908 277.581 289.447 278.802 289.447Z" fill="#211433"/>
<path d="M227.763 386.899C228.137 386.217 228.863 385.865 229.886 385.865V386.888C229.798 386.877 229.721 386.877 229.644 386.877C228.511 386.877 227.807 387.57 227.807 388.846V391.75H226.751V385.92H227.763V386.899ZM236.403 388.868C236.403 388.956 236.392 389.088 236.381 389.187H231.651C231.783 390.21 232.608 390.892 233.763 390.892C234.445 390.892 235.017 390.661 235.446 390.188L236.029 390.87C235.501 391.486 234.698 391.816 233.73 391.816C231.849 391.816 230.595 390.573 230.595 388.835C230.595 387.108 231.838 385.865 233.521 385.865C235.204 385.865 236.403 387.075 236.403 388.868ZM233.521 386.756C232.509 386.756 231.761 387.438 231.651 388.428H235.391C235.281 387.449 234.544 386.756 233.521 386.756ZM240.41 391.816C238.617 391.816 237.33 390.573 237.33 388.835C237.33 387.097 238.617 385.865 240.41 385.865C241.455 385.865 242.324 386.294 242.786 387.108L241.983 387.625C241.609 387.053 241.037 386.789 240.399 386.789C239.255 386.789 238.397 387.592 238.397 388.835C238.397 390.1 239.255 390.892 240.399 390.892C241.037 390.892 241.609 390.628 241.983 390.056L242.786 390.562C242.324 391.376 241.455 391.816 240.41 391.816ZM246.564 391.816C244.815 391.816 243.528 390.573 243.528 388.835C243.528 387.097 244.815 385.865 246.564 385.865C248.313 385.865 249.589 387.097 249.589 388.835C249.589 390.573 248.313 391.816 246.564 391.816ZM246.564 390.892C247.686 390.892 248.522 390.078 248.522 388.835C248.522 387.592 247.686 386.789 246.564 386.789C245.442 386.789 244.595 387.592 244.595 388.835C244.595 390.078 245.442 390.892 246.564 390.892ZM252.062 386.899C252.436 386.217 253.162 385.865 254.185 385.865V386.888C254.097 386.877 254.02 386.877 253.943 386.877C252.81 386.877 252.106 387.57 252.106 388.846V391.75H251.05V385.92H252.062V386.899ZM259.877 383.588H260.933V391.75H259.921V390.826C259.448 391.486 258.7 391.816 257.842 391.816C256.137 391.816 254.894 390.617 254.894 388.835C254.894 387.053 256.137 385.865 257.842 385.865C258.667 385.865 259.393 386.173 259.877 386.8V383.588ZM257.93 390.892C259.041 390.892 259.888 390.078 259.888 388.835C259.888 387.592 259.041 386.789 257.93 386.789C256.808 386.789 255.961 387.592 255.961 388.835C255.961 390.078 256.808 390.892 257.93 390.892ZM266.875 390.793H270.824V391.75H265.291V391.002L268.426 387.977C269.24 387.185 269.394 386.701 269.394 386.217C269.394 385.425 268.833 384.941 267.755 384.941C266.93 384.941 266.259 385.205 265.786 385.777L265.038 385.128C265.632 384.391 266.655 383.962 267.854 383.962C269.46 383.962 270.494 384.787 270.494 386.107C270.494 386.855 270.274 387.526 269.229 388.527L266.875 390.793ZM273.928 387.119C276.227 387.119 277.129 388.076 277.129 389.44C277.129 390.771 276.183 391.838 274.214 391.838C273.125 391.838 272.047 391.486 271.387 390.903L271.893 390.034C272.41 390.518 273.268 390.859 274.203 390.859C275.369 390.859 276.029 390.32 276.029 389.484C276.029 388.615 275.479 388.076 273.697 388.076H271.948L272.355 384.05H276.7V385.007H273.279L273.07 387.119H273.928ZM280.191 387.119C282.49 387.119 283.392 388.076 283.392 389.44C283.392 390.771 282.446 391.838 280.477 391.838C279.388 391.838 278.31 391.486 277.65 390.903L278.156 390.034C278.673 390.518 279.531 390.859 280.466 390.859C281.632 390.859 282.292 390.32 282.292 389.484C282.292 388.615 281.742 388.076 279.96 388.076H278.211L278.618 384.05H282.963V385.007H279.542L279.333 387.119H280.191Z" fill="#211433"/>
<path d="M690.666 185.187C690.666 184.119 690.978 183.051 691.386 182.475L692.526 183.051C692.154 183.615 691.89 184.479 691.89 185.283C691.89 186.231 692.154 186.627 692.598 186.627C693.822 186.627 692.67 182.667 695.226 182.667C696.438 182.667 697.23 183.759 697.23 185.487C697.23 186.339 697.026 187.311 696.678 187.887L695.538 187.311C695.898 186.699 696.018 186.087 696.018 185.475C696.018 184.563 695.718 184.131 695.298 184.131C694.002 184.131 695.154 188.091 692.646 188.091C691.446 188.091 690.666 186.987 690.666 185.187ZM693.918 195.406C693.798 195.406 693.618 195.394 693.474 195.382L693.474 190.354C692.538 190.534 691.938 191.314 691.938 192.43C691.938 193.15 692.166 193.714 692.634 194.17L691.71 194.974C691.026 194.398 690.666 193.498 690.666 192.394C690.666 190.246 692.046 188.854 693.954 188.854C695.862 188.854 697.23 190.258 697.23 192.166C697.23 194.038 695.922 195.406 693.918 195.406ZM696.03 192.166C696.03 191.194 695.406 190.486 694.47 190.342L694.47 193.978C695.394 193.858 696.03 193.15 696.03 192.166ZM697.158 201.779L697.158 203.207L691.722 203.207C689.394 203.207 688.338 201.995 688.338 199.751C688.338 198.551 688.65 197.363 689.25 196.631L690.378 197.303C689.91 197.867 689.61 198.779 689.61 199.667C689.61 201.083 690.258 201.707 691.554 201.707L691.89 201.707C691.314 201.179 691.038 200.423 691.038 199.559C691.038 197.723 692.286 196.319 694.146 196.319C696.006 196.319 697.23 197.723 697.23 199.559C697.23 200.459 696.942 201.251 696.306 201.779L697.158 201.779ZM692.31 199.787C692.31 200.915 693.054 201.731 694.146 201.731C695.226 201.731 695.958 200.915 695.958 199.787C695.958 198.647 695.226 197.831 694.146 197.831C693.054 197.831 692.31 198.647 692.31 199.787ZM697.23 213.267C697.23 214.815 696.354 215.895 694.422 215.895L690.75 215.895L690.75 214.395L694.23 214.395C695.37 214.395 695.922 213.867 695.922 212.955C695.922 211.971 695.274 211.287 694.002 211.287L690.75 211.287L690.75 209.787L694.23 209.787C695.37 209.787 695.922 209.259 695.922 208.347C695.922 207.351 695.274 206.679 694.002 206.679L690.75 206.679L690.75 205.179L697.158 205.179L697.158 206.607L696.342 206.607C696.918 207.087 697.23 207.831 697.23 208.707C697.23 209.643 696.882 210.423 696.162 210.867C696.822 211.383 697.23 212.247 697.23 213.267ZM693.918 223.895C693.798 223.895 693.618 223.883 693.474 223.871L693.474 218.843C692.538 219.023 691.938 219.803 691.938 220.919C691.938 221.639 692.166 222.203 692.634 222.659L691.71 223.463C691.026 222.887 690.666 221.987 690.666 220.883C690.666 218.735 692.046 217.343 693.954 217.343C695.862 217.343 697.23 218.747 697.23 220.655C697.23 222.527 695.922 223.895 693.918 223.895ZM696.03 220.655C696.03 219.683 695.406 218.975 694.47 218.831L694.47 222.467C695.394 222.347 696.03 221.639 696.03 220.655ZM697.23 228.972C697.23 230.508 696.354 231.648 694.422 231.648L690.75 231.648L690.75 230.148L694.23 230.148C695.37 230.148 695.922 229.584 695.922 228.624C695.922 227.556 695.274 226.836 693.99 226.836L690.75 226.836L690.75 225.336L697.158 225.336L697.158 226.764L696.33 226.764C696.918 227.256 697.23 228.036 697.23 228.972ZM692.166 236.982L691.098 237.402C690.81 237.042 690.666 236.502 690.666 235.962C690.666 234.558 691.41 233.754 692.826 233.754L695.91 233.754L695.91 232.698L697.11 232.698L697.11 233.754L698.574 233.754L698.574 235.254L697.11 235.254L697.11 236.97L695.91 236.97L695.91 235.254L692.862 235.254C692.238 235.254 691.902 235.566 691.902 236.142C691.902 236.454 691.986 236.754 692.166 236.982ZM675.666 163.928C675.666 161.9 677.034 160.46 678.954 160.46C680.874 160.46 682.23 161.9 682.23 163.928C682.23 165.176 681.714 166.172 680.742 166.664L680.07 165.512C680.682 165.128 680.958 164.552 680.958 163.916C680.958 162.812 680.19 161.972 678.954 161.972C677.706 161.972 676.95 162.812 676.95 163.916C676.95 164.552 677.226 165.128 677.838 165.512L677.166 166.664C676.206 166.172 675.666 165.176 675.666 163.928ZM675.666 170.747C675.666 168.779 677.034 167.339 678.954 167.339C680.874 167.339 682.23 168.779 682.23 170.747C682.23 172.739 680.874 174.167 678.954 174.167C677.034 174.167 675.666 172.739 675.666 170.747ZM676.95 170.747C676.95 171.839 677.73 172.655 678.954 172.655C680.178 172.655 680.958 171.839 680.958 170.747C680.958 169.667 680.178 168.851 678.954 168.851C677.73 168.851 676.95 169.667 676.95 170.747ZM682.23 183.689C682.23 185.237 681.354 186.317 679.422 186.317L675.75 186.317L675.75 184.817L679.23 184.817C680.37 184.817 680.922 184.289 680.922 183.377C680.922 182.393 680.274 181.709 679.002 181.709L675.75 181.709L675.75 180.209L679.23 180.209C680.37 180.209 680.922 179.681 680.922 178.769C680.922 177.773 680.274 177.101 679.002 177.101L675.75 177.101L675.75 175.601L682.158 175.601L682.158 177.029L681.342 177.029C681.918 177.509 682.23 178.253 682.23 179.129C682.23 180.065 681.882 180.845 681.162 181.289C681.822 181.805 682.23 182.669 682.23 183.689ZM682.23 196.322C682.23 197.87 681.354 198.95 679.422 198.95L675.75 198.95L675.75 197.45L679.23 197.45C680.37 197.45 680.922 196.922 680.922 196.01C680.922 195.026 680.274 194.342 679.002 194.342L675.75 194.342L675.75 192.842L679.23 192.842C680.37 192.842 680.922 192.314 680.922 191.402C680.922 190.406 680.274 189.734 679.002 189.734L675.75 189.734L675.75 188.234L682.158 188.234L682.158 189.662L681.342 189.662C681.918 190.142 682.23 190.886 682.23 191.762C682.23 192.698 681.882 193.478 681.162 193.922C681.822 194.438 682.23 195.302 682.23 196.322ZM683.214 201.623C683.214 201.071 683.61 200.663 684.114 200.663C684.618 200.663 685.014 201.071 685.014 201.623C685.014 202.175 684.642 202.583 684.15 202.583C683.622 202.583 683.214 202.187 683.214 201.623ZM675.75 200.867L682.158 200.867L682.158 202.367L675.75 202.367L675.75 200.867ZM677.166 207.768L676.098 208.188C675.81 207.828 675.666 207.288 675.666 206.748C675.666 205.344 676.41 204.54 677.826 204.54L680.91 204.54L680.91 203.484L682.11 203.484L682.11 204.54L683.574 204.54L683.574 206.04L682.11 206.04L682.11 207.756L680.91 207.756L680.91 206.04L677.862 206.04C677.238 206.04 676.902 206.352 676.902 206.928C676.902 207.24 676.986 207.54 677.166 207.768ZM682.23 217.509C682.23 219.057 681.354 220.137 679.422 220.137L675.75 220.137L675.75 218.637L679.23 218.637C680.37 218.637 680.922 218.109 680.922 217.197C680.922 216.213 680.274 215.529 679.002 215.529L675.75 215.529L675.75 214.029L679.23 214.029C680.37 214.029 680.922 213.501 680.922 212.589C680.922 211.593 680.274 210.921 679.002 210.921L675.75 210.921L675.75 209.421L682.158 209.421L682.158 210.849L681.342 210.849C681.918 211.329 682.23 212.073 682.23 212.949C682.23 213.885 681.882 214.665 681.162 215.109C681.822 215.625 682.23 216.489 682.23 217.509ZM678.918 228.137C678.798 228.137 678.618 228.125 678.474 228.113L678.474 223.085C677.538 223.265 676.938 224.045 676.938 225.161C676.938 225.881 677.166 226.445 677.634 226.901L676.71 227.705C676.026 227.129 675.666 226.229 675.666 225.125C675.666 222.977 677.046 221.585 678.954 221.585C680.862 221.585 682.23 222.989 682.23 224.897C682.23 226.769 680.922 228.137 678.918 228.137ZM681.03 224.897C681.03 223.925 680.406 223.217 679.47 223.073L679.47 226.709C680.394 226.589 681.03 225.881 681.03 224.897ZM682.23 233.214C682.23 234.75 681.354 235.89 679.422 235.89L675.75 235.89L675.75 234.39L679.23 234.39C680.37 234.39 680.922 233.826 680.922 232.866C680.922 231.798 680.274 231.078 678.99 231.078L675.75 231.078L675.75 229.578L682.158 229.578L682.158 231.006L681.33 231.006C681.918 231.498 682.23 232.278 682.23 233.214ZM677.166 241.225L676.098 241.645C675.81 241.285 675.666 240.745 675.666 240.205C675.666 238.801 676.41 237.997 677.826 237.997L680.91 237.997L680.91 236.941L682.11 236.941L682.11 237.997L683.574 237.997L683.574 239.497L682.11 239.497L682.11 241.213L680.91 241.213L680.91 239.497L677.862 239.497C677.238 239.497 676.902 239.809 676.902 240.385C676.902 240.697 676.986 240.997 677.166 241.225ZM675.63 250.227C675.63 247.659 677.442 245.739 679.95 245.739C682.458 245.739 684.27 247.659 684.27 250.239C684.27 251.607 683.778 252.783 682.866 253.563L681.918 252.555C682.578 251.943 682.902 251.187 682.902 250.311C682.902 248.571 681.678 247.311 679.95 247.311C678.222 247.311 676.998 248.571 676.998 250.311C676.998 251.187 677.322 251.943 677.994 252.555L677.034 253.563C676.122 252.783 675.63 251.607 675.63 250.227ZM675.666 256.659C675.666 255.591 675.978 254.523 676.386 253.947L677.526 254.523C677.154 255.087 676.89 255.951 676.89 256.755C676.89 257.703 677.154 258.099 677.598 258.099C678.822 258.099 677.67 254.139 680.226 254.139C681.438 254.139 682.23 255.231 682.23 256.959C682.23 257.811 682.026 258.783 681.678 259.359L680.538 258.783C680.898 258.171 681.018 257.559 681.018 256.947C681.018 256.035 680.718 255.603 680.298 255.603C679.002 255.603 680.154 259.563 677.646 259.563C676.446 259.563 675.666 258.459 675.666 256.659Z" fill="#F4F1F7"/>
<path d="M359.807 456.52C361.655 456.52 362.723 457.396 362.723 459.244V463H361.307V462.22C360.947 462.772 360.251 463.084 359.291 463.084C357.827 463.084 356.903 462.28 356.903 461.164C356.903 460.096 357.623 459.256 359.567 459.256H361.223V459.16C361.223 458.284 360.695 457.768 359.627 457.768C358.907 457.768 358.163 458.008 357.683 458.404L357.095 457.312C357.779 456.784 358.775 456.52 359.807 456.52ZM359.603 461.992C360.335 461.992 360.971 461.656 361.223 460.996V460.252H359.675C358.655 460.252 358.379 460.636 358.379 461.104C358.379 461.644 358.835 461.992 359.603 461.992ZM366.076 457.528C366.508 456.856 367.288 456.52 368.356 456.52V457.948C368.224 457.924 368.116 457.912 368.008 457.912C366.868 457.912 366.148 458.584 366.148 459.892V463H364.648V456.592H366.076V457.528ZM372.51 463.084C370.482 463.084 369.042 461.716 369.042 459.796C369.042 457.876 370.482 456.52 372.51 456.52C373.758 456.52 374.754 457.036 375.246 458.008L374.094 458.68C373.71 458.068 373.134 457.792 372.498 457.792C371.394 457.792 370.554 458.56 370.554 459.796C370.554 461.044 371.394 461.8 372.498 461.8C373.134 461.8 373.71 461.524 374.094 460.912L375.246 461.584C374.754 462.544 373.758 463.084 372.51 463.084ZM380.12 456.52C381.656 456.52 382.796 457.396 382.796 459.328V463H381.296V459.52C381.296 458.38 380.732 457.828 379.772 457.828C378.704 457.828 377.984 458.476 377.984 459.76V463H376.484V454.096H377.984V457.336C378.476 456.808 379.232 456.52 380.12 456.52ZM385.455 455.536C384.903 455.536 384.495 455.14 384.495 454.636C384.495 454.132 384.903 453.736 385.455 453.736C386.007 453.736 386.415 454.108 386.415 454.6C386.415 455.128 386.019 455.536 385.455 455.536ZM384.699 463V456.592H386.199V463H384.699ZM392.728 456.592H394.168L391.42 463H389.872L387.124 456.592H388.684L390.676 461.344L392.728 456.592ZM400.953 459.832C400.953 459.952 400.941 460.132 400.929 460.276H395.901C396.081 461.212 396.861 461.812 397.977 461.812C398.697 461.812 399.261 461.584 399.717 461.116L400.521 462.04C399.945 462.724 399.045 463.084 397.941 463.084C395.793 463.084 394.401 461.704 394.401 459.796C394.401 457.888 395.805 456.52 397.713 456.52C399.585 456.52 400.953 457.828 400.953 459.832ZM397.713 457.72C396.741 457.72 396.033 458.344 395.889 459.28H399.525C399.405 458.356 398.697 457.72 397.713 457.72ZM407.17 454.096H408.67V463H407.23V462.172C406.726 462.784 405.982 463.084 405.106 463.084C403.246 463.084 401.866 461.788 401.866 459.796C401.866 457.804 403.246 456.52 405.106 456.52C405.934 456.52 406.666 456.796 407.17 457.384V454.096ZM405.286 461.8C406.366 461.8 407.194 461.02 407.194 459.796C407.194 458.572 406.366 457.792 405.286 457.792C404.206 457.792 403.378 458.572 403.378 459.796C403.378 461.02 404.206 461.8 405.286 461.8ZM417.501 456.52C419.373 456.52 420.753 457.816 420.753 459.796C420.753 461.788 419.373 463.084 417.501 463.084C416.685 463.084 415.965 462.808 415.449 462.22V465.328H413.949V456.592H415.377V457.432C415.881 456.82 416.625 456.52 417.501 456.52ZM417.333 461.8C418.413 461.8 419.229 461.02 419.229 459.796C419.229 458.572 418.413 457.792 417.333 457.792C416.253 457.792 415.425 458.572 415.425 459.796C415.425 461.02 416.253 461.8 417.333 461.8ZM422.931 455.536C422.379 455.536 421.971 455.14 421.971 454.636C421.971 454.132 422.379 453.736 422.931 453.736C423.483 453.736 423.891 454.108 423.891 454.6C423.891 455.128 423.495 455.536 422.931 455.536ZM422.175 463V456.592H423.675V463H422.175ZM431.668 459.832C431.668 459.952 431.656 460.132 431.644 460.276H426.616C426.796 461.212 427.576 461.812 428.692 461.812C429.412 461.812 429.976 461.584 430.432 461.116L431.236 462.04C430.66 462.724 429.76 463.084 428.656 463.084C426.508 463.084 425.116 461.704 425.116 459.796C425.116 457.888 426.52 456.52 428.428 456.52C430.3 456.52 431.668 457.828 431.668 459.832ZM428.428 457.72C427.456 457.72 426.748 458.344 426.604 459.28H430.24C430.12 458.356 429.412 457.72 428.428 457.72ZM436.049 463.084C434.021 463.084 432.581 461.716 432.581 459.796C432.581 457.876 434.021 456.52 436.049 456.52C437.297 456.52 438.293 457.036 438.785 458.008L437.633 458.68C437.249 458.068 436.673 457.792 436.037 457.792C434.933 457.792 434.093 458.56 434.093 459.796C434.093 461.044 434.933 461.8 436.037 461.8C436.673 461.8 437.249 461.524 437.633 460.912L438.785 461.584C438.293 462.544 437.297 463.084 436.049 463.084ZM446.012 459.832C446.012 459.952 446 460.132 445.988 460.276H440.96C441.14 461.212 441.92 461.812 443.036 461.812C443.756 461.812 444.32 461.584 444.776 461.116L445.58 462.04C445.004 462.724 444.104 463.084 443 463.084C440.852 463.084 439.46 461.704 439.46 459.796C439.46 457.888 440.864 456.52 442.772 456.52C444.644 456.52 446.012 457.828 446.012 459.832ZM442.772 457.72C441.8 457.72 441.092 458.344 440.948 459.28H444.584C444.464 458.356 443.756 457.72 442.772 457.72Z" fill="#F4F1F7"/>
</svg>
