<svg width="597" height="481" viewBox="0 0 597 481" fill="none" xmlns="http://www.w3.org/2000/svg">
<rect x="1.24597" y="0.5" width="66.0795" height="67.4148" rx="3.5" fill="#CDE6B2" stroke="#211433"/>
<path d="M34.6119 45.3951C34.6119 45.3951 42.4079 47.481 48.1304 43.8146C53.8529 40.1482 55.3469 32.1078 55.3469 32.1078L41.3214 32.2181" stroke="#211433" stroke-width="1.5" stroke-miterlimit="10"/>
<path d="M33.8653 45.3951C33.8653 45.3951 26.1047 47.481 20.4083 43.8146C14.7118 40.1482 13.2245 32.1078 13.2245 32.1078L27.1864 32.2181" stroke="#211433" stroke-width="1.5" stroke-miterlimit="10"/>
<path d="M41.738 29.2132C41.738 37.8232 34.2306 44.7977 34.2306 44.7977C34.2306 44.7977 26.7232 37.8232 26.7232 29.2132C26.7232 20.6031 34.2306 13.6287 34.2306 13.6287C34.2306 13.6287 41.738 20.6031 41.738 29.2132Z" stroke="#211433" stroke-width="1.5" stroke-miterlimit="10"/>
<path d="M34.2306 44.7977V54.7861" stroke="#211433" stroke-width="1.5" stroke-miterlimit="10"/>
<rect x="1.24597" y="114.443" width="66.0795" height="67.4148" rx="3.5" fill="#CDE6B2" stroke="#211433"/>
<path d="M34.6119 159.339C34.6119 159.339 42.4079 161.425 48.1304 157.758C53.8529 154.092 55.3469 146.051 55.3469 146.051L41.3214 146.162" stroke="black" stroke-width="1.5" stroke-miterlimit="10"/>
<path d="M33.8653 159.339C33.8653 159.339 26.1047 161.425 20.4083 157.758C14.7118 154.092 13.2245 146.051 13.2245 146.051L27.1864 146.162" stroke="black" stroke-width="1.5" stroke-miterlimit="10"/>
<path d="M41.738 143.157C41.738 151.767 34.2306 158.741 34.2306 158.741C34.2306 158.741 26.7232 151.767 26.7232 143.157C26.7232 134.547 34.2306 127.572 34.2306 127.572C34.2306 127.572 41.738 134.547 41.738 143.157Z" stroke="black" stroke-width="1.5" stroke-miterlimit="10"/>
<path d="M34.2306 158.741V168.73" stroke="black" stroke-width="1.5" stroke-miterlimit="10"/>
<rect x="1.24597" y="287.196" width="66.0795" height="67.4148" rx="3.5" fill="#CDE6B2" stroke="#211433"/>
<path d="M34.6119 332.091C34.6119 332.091 42.4079 334.177 48.1304 330.511C53.8529 326.844 55.3469 318.804 55.3469 318.804L41.3214 318.914" stroke="black" stroke-width="1.5" stroke-miterlimit="10"/>
<path d="M33.8653 332.091C33.8653 332.091 26.1047 334.177 20.4083 330.511C14.7118 326.844 13.2245 318.804 13.2245 318.804L27.1864 318.914" stroke="black" stroke-width="1.5" stroke-miterlimit="10"/>
<path d="M41.738 315.909C41.738 324.52 34.2306 331.494 34.2306 331.494C34.2306 331.494 26.7232 324.52 26.7232 315.909C26.7232 307.299 34.2306 300.325 34.2306 300.325C34.2306 300.325 41.738 307.299 41.738 315.909Z" stroke="black" stroke-width="1.5" stroke-miterlimit="10"/>
<path d="M34.2306 331.494V341.482" stroke="black" stroke-width="1.5" stroke-miterlimit="10"/>
<rect x="1.24597" y="399.302" width="66.0795" height="67.4148" rx="3.5" fill="#CDE6B2" stroke="#211433"/>
<path d="M34.6119 444.197C34.6119 444.197 42.4079 446.283 48.1304 442.616C53.8529 438.95 55.3469 430.91 55.3469 430.91L41.3214 431.02" stroke="black" stroke-width="1.5" stroke-miterlimit="10"/>
<path d="M33.8653 444.197C33.8653 444.197 26.1047 446.283 20.4083 442.616C14.7118 438.95 13.2245 430.91 13.2245 430.91L27.1864 431.02" stroke="black" stroke-width="1.5" stroke-miterlimit="10"/>
<path d="M41.738 428.015C41.738 436.625 34.2306 443.599 34.2306 443.599C34.2306 443.599 26.7232 436.625 26.7232 428.015C26.7232 419.405 34.2306 412.43 34.2306 412.43C34.2306 412.43 41.738 419.405 41.738 428.015Z" stroke="black" stroke-width="1.5" stroke-miterlimit="10"/>
<path d="M34.2306 443.599V453.588" stroke="black" stroke-width="1.5" stroke-miterlimit="10"/>
<path d="M499.983 61.0025H499.972C499.972 60.9364 499.994 60.8813 499.994 60.8151C499.994 57.6743 490.946 55.1285 479.771 55.1285C468.597 55.1285 459.549 57.6743 459.549 60.8151C459.549 60.8813 459.549 60.9474 459.571 61.0025H459.56V103.024C459.56 103.024 459.56 103.035 459.56 103.046C459.56 103.057 459.56 103.057 459.56 103.068V103.123C459.714 106.231 468.696 108.732 479.771 108.732C490.847 108.732 499.829 106.231 499.983 103.123V103.068C499.983 103.068 499.983 103.057 499.983 103.046C499.983 103.035 499.983 103.035 499.983 103.024V61.0025Z" fill="#D8D0E4"/>
<path d="M459.554 61.0026V103.024C459.554 103.024 459.554 103.035 459.554 103.046C459.554 103.057 459.554 103.057 459.554 103.068V103.123C459.708 106.231 468.69 108.732 479.766 108.732C490.841 108.732 499.823 106.231 499.977 103.123V103.068C499.977 103.068 499.977 103.057 499.977 103.046C499.977 103.035 499.977 103.035 499.977 103.024V61.0026" stroke="black" stroke-linecap="round" stroke-linejoin="round"/>
<path d="M479.777 66.502C490.946 66.502 499.999 63.956 499.999 60.8154C499.999 57.6748 490.946 55.1288 479.777 55.1288C468.608 55.1288 459.554 57.6748 459.554 60.8154C459.554 63.956 468.608 66.502 479.777 66.502Z" stroke="black" stroke-linecap="round" stroke-linejoin="round"/>
<path d="M499.988 89.3915C499.988 92.5323 490.941 95.0781 479.766 95.0781C468.591 95.0781 459.543 92.5323 459.543 89.3915" stroke="black" stroke-linecap="round" stroke-linejoin="round"/>
<path d="M499.988 75.1088C499.988 78.2496 490.941 80.7954 479.766 80.7954C468.591 80.7954 459.543 78.2496 459.543 75.1088" stroke="black" stroke-linecap="round" stroke-linejoin="round"/>
<path d="M499.983 159.371H499.972C499.972 159.305 499.994 159.25 499.994 159.184C499.994 156.043 490.946 153.497 479.771 153.497C468.597 153.497 459.549 156.043 459.549 159.184C459.549 159.25 459.549 159.316 459.571 159.371H459.56V201.392C459.56 201.392 459.56 201.403 459.56 201.414C459.56 201.425 459.56 201.425 459.56 201.436V201.491C459.714 204.599 468.696 207.101 479.771 207.101C490.847 207.101 499.829 204.599 499.983 201.491V201.436C499.983 201.436 499.983 201.425 499.983 201.414C499.983 201.403 499.983 201.403 499.983 201.392V159.371Z" fill="#9B88BB"/>
<path d="M459.554 159.371V201.392C459.554 201.392 459.554 201.403 459.554 201.414C459.554 201.425 459.554 201.425 459.554 201.436V201.492C459.708 204.599 468.69 207.101 479.766 207.101C490.841 207.101 499.823 204.599 499.977 201.492V201.436C499.977 201.436 499.977 201.425 499.977 201.414C499.977 201.403 499.977 201.403 499.977 201.392V159.371" fill="#9B88BB"/>
<path d="M459.554 159.371V201.392C459.554 201.392 459.554 201.403 459.554 201.414C459.554 201.425 459.554 201.425 459.554 201.436V201.492C459.708 204.599 468.69 207.101 479.766 207.101C490.841 207.101 499.823 204.599 499.977 201.492V201.436C499.977 201.436 499.977 201.425 499.977 201.414C499.977 201.403 499.977 201.403 499.977 201.392V159.371" stroke="black" stroke-linecap="round" stroke-linejoin="round"/>
<path d="M479.777 164.87C490.946 164.87 499.999 162.324 499.999 159.184C499.999 156.043 490.946 153.497 479.777 153.497C468.608 153.497 459.554 156.043 459.554 159.184C459.554 162.324 468.608 164.87 479.777 164.87Z" fill="#9B88BB" stroke="black" stroke-linecap="round" stroke-linejoin="round"/>
<path d="M499.988 187.76C499.988 190.901 490.941 193.447 479.766 193.447C468.591 193.447 459.543 190.901 459.543 187.76" fill="#9B88BB"/>
<path d="M499.988 187.76C499.988 190.901 490.941 193.447 479.766 193.447C468.591 193.447 459.543 190.901 459.543 187.76" stroke="black" stroke-linecap="round" stroke-linejoin="round"/>
<path d="M499.988 173.477C499.988 176.618 490.941 179.164 479.766 179.164C468.591 179.164 459.543 176.618 459.543 173.477" fill="#9B88BB"/>
<path d="M499.988 173.477C499.988 176.618 490.941 179.164 479.766 179.164C468.591 179.164 459.543 176.618 459.543 173.477" stroke="black" stroke-linecap="round" stroke-linejoin="round"/>
<path d="M499.983 257.165H499.972C499.972 257.099 499.994 257.044 499.994 256.978C499.994 253.837 490.946 251.291 479.771 251.291C468.597 251.291 459.549 253.837 459.549 256.978C459.549 257.044 459.549 257.11 459.571 257.165H459.56V299.186C459.56 299.186 459.56 299.197 459.56 299.208C459.56 299.219 459.56 299.219 459.56 299.23V299.285C459.714 302.393 468.696 304.895 479.771 304.895C490.847 304.895 499.829 302.393 499.983 299.285V299.23C499.983 299.23 499.983 299.219 499.983 299.208C499.983 299.197 499.983 299.197 499.983 299.186V257.165Z" fill="#CDE6B2"/>
<path d="M459.554 257.165V299.186C459.554 299.186 459.554 299.197 459.554 299.208C459.554 299.219 459.554 299.219 459.554 299.23V299.285C459.708 302.393 468.69 304.895 479.766 304.895C490.841 304.895 499.823 302.393 499.977 299.285V299.23C499.977 299.23 499.977 299.219 499.977 299.208C499.977 299.197 499.977 299.197 499.977 299.186V257.165" fill="#CDE6B2"/>
<path d="M459.554 257.165V299.186C459.554 299.186 459.554 299.197 459.554 299.208C459.554 299.219 459.554 299.219 459.554 299.23V299.285C459.708 302.393 468.69 304.895 479.766 304.895C490.841 304.895 499.823 302.393 499.977 299.285V299.23C499.977 299.23 499.977 299.219 499.977 299.208C499.977 299.197 499.977 299.197 499.977 299.186V257.165" stroke="black" stroke-linecap="round" stroke-linejoin="round"/>
<path d="M479.777 262.664C490.946 262.664 499.999 260.118 499.999 256.978C499.999 253.837 490.946 251.291 479.777 251.291C468.608 251.291 459.554 253.837 459.554 256.978C459.554 260.118 468.608 262.664 479.777 262.664Z" fill="#CDE6B2" stroke="black" stroke-linecap="round" stroke-linejoin="round"/>
<path d="M499.988 285.554C499.988 288.695 490.941 291.24 479.766 291.24C468.591 291.24 459.543 288.695 459.543 285.554" fill="#CDE6B2"/>
<path d="M499.988 285.554C499.988 288.695 490.941 291.24 479.766 291.24C468.591 291.24 459.543 288.695 459.543 285.554" stroke="black" stroke-linecap="round" stroke-linejoin="round"/>
<path d="M499.988 271.271C499.988 274.412 490.941 276.957 479.766 276.957C468.591 276.957 459.543 274.412 459.543 271.271" fill="#CDE6B2"/>
<path d="M499.988 271.271C499.988 274.412 490.941 276.957 479.766 276.957C468.591 276.957 459.543 274.412 459.543 271.271" stroke="black" stroke-linecap="round" stroke-linejoin="round"/>
<path d="M283.695 159.371H283.684C283.684 159.305 283.706 159.25 283.706 159.184C283.706 156.043 274.658 153.497 263.483 153.497C252.308 153.497 243.26 156.043 243.26 159.184C243.26 159.25 243.26 159.316 243.282 159.371H243.271V201.392C243.271 201.392 243.271 201.403 243.271 201.414C243.271 201.425 243.271 201.425 243.271 201.436V201.492C243.426 204.599 252.407 207.101 263.483 207.101C274.559 207.101 283.54 204.599 283.695 201.492V201.436C283.695 201.436 283.695 201.425 283.695 201.414C283.695 201.403 283.695 201.403 283.695 201.392V159.371Z" fill="#7EC8A2"/>
<path d="M243.266 159.371V201.392C243.266 201.392 243.266 201.403 243.266 201.414C243.266 201.425 243.266 201.425 243.266 201.436V201.491C243.42 204.599 252.402 207.101 263.477 207.101C274.553 207.101 283.535 204.599 283.689 201.491V201.436C283.689 201.436 283.689 201.425 283.689 201.414C283.689 201.403 283.689 201.403 283.689 201.392V159.371" fill="#7EC8A2"/>
<path d="M243.266 159.371V201.392C243.266 201.392 243.266 201.403 243.266 201.414C243.266 201.425 243.266 201.425 243.266 201.436V201.491C243.42 204.599 252.402 207.101 263.477 207.101C274.553 207.101 283.535 204.599 283.689 201.491V201.436C283.689 201.436 283.689 201.425 283.689 201.414C283.689 201.403 283.689 201.403 283.689 201.392V159.371" stroke="black" stroke-linecap="round" stroke-linejoin="round"/>
<path d="M263.488 164.87C274.657 164.87 283.711 162.324 283.711 159.184C283.711 156.043 274.657 153.497 263.488 153.497C252.32 153.497 243.266 156.043 243.266 159.184C243.266 162.324 252.32 164.87 263.488 164.87Z" fill="#7EC8A2" stroke="black" stroke-linecap="round" stroke-linejoin="round"/>
<path d="M283.7 187.76C283.7 190.901 274.652 193.446 263.477 193.446C252.303 193.446 243.255 190.901 243.255 187.76" fill="#7EC8A2"/>
<path d="M283.7 187.76C283.7 190.901 274.652 193.446 263.477 193.446C252.303 193.446 243.255 190.901 243.255 187.76" stroke="black" stroke-linecap="round" stroke-linejoin="round"/>
<path d="M283.7 173.477C283.7 176.618 274.652 179.164 263.477 179.164C252.303 179.164 243.255 176.618 243.255 173.477" fill="#7EC8A2"/>
<path d="M283.7 173.477C283.7 176.618 274.652 179.164 263.477 179.164C252.303 179.164 243.255 176.618 243.255 173.477" stroke="black" stroke-linecap="round" stroke-linejoin="round"/>
<path d="M213.652 180.707C204.961 180.707 202.306 188.271 202.064 192.053C202.064 226.654 202.064 336.413 202.064 344.137C202.064 351.862 193.857 354.759 189.753 355.242L114.522 355.242" stroke="#F4F1F7" stroke-width="1.3"/>
<path d="M213.652 180.465C209.548 179.983 201.34 177.086 201.34 169.361C201.34 161.636 201.34 51.8773 201.34 17.276C201.099 13.494 198.443 5.93 189.753 5.93L114.062 5.92999" stroke="#F4F1F7" stroke-width="1.3"/>
<path d="M514.013 298.352C516.34 298.078 520.995 296.435 520.995 292.054C520.995 287.673 520.995 207.049 520.995 187.425C521.132 185.281 522.638 180.991 527.566 180.991" stroke="#F4F1F7" stroke-width="1.3"/>
<path d="M527.566 180.969C525.239 180.695 520.584 179.052 520.584 174.671C520.584 170.29 520.584 89.6652 520.584 70.0419C520.447 67.897 518.941 63.6073 514.013 63.6073" stroke="#F4F1F7" stroke-width="1.3"/>
<path d="M485.067 430.461L491.567 434.213V426.708L485.067 430.461ZM527.402 181.63H591.254V180.33H527.402V181.63ZM595.604 185.98V425.461H596.904V185.98H595.604ZM591.254 429.811H490.917V431.111H591.254V429.811ZM595.604 425.461C595.604 427.863 593.656 429.811 591.254 429.811V431.111C594.374 431.111 596.904 428.581 596.904 425.461H595.604ZM591.254 181.63C593.656 181.63 595.604 183.577 595.604 185.98H596.904C596.904 182.859 594.374 180.33 591.254 180.33V181.63Z" fill="#F4F1F7"/>
<path d="M114.062 430.461L120.562 434.213V426.708L114.062 430.461ZM413.623 429.811H119.912V431.111H413.623V429.811Z" fill="#F4F1F7"/>
<path d="M452.538 417.32C451.326 416.576 450.416 416.107 448.56 416.107C445.794 416.107 443.947 418.552 444.232 420.647C444.517 422.742 445.435 423.532 448.174 424.809C451.757 426.472 453.209 427.428 453.375 430.58C453.595 434.798 449.763 435.671 446.887 435.468C445.095 435.34 443.68 434.145 443.313 432.942" stroke="#F4F1F7"/>
<path d="M449.892 413.094L446.997 438.685" stroke="#F4F1F7"/>
<path d="M448.073 444.924C458.283 444.924 466.561 436.647 466.561 426.436C466.561 416.225 458.283 407.948 448.073 407.948C437.862 407.948 429.584 416.225 429.584 426.436C429.584 436.647 437.862 444.924 448.073 444.924Z" stroke="#F4F1F7"/>
<path d="M471.798 450.474L460.717 439.392" stroke="#F4F1F7"/>
<circle cx="65.0162" cy="60.03" r="17.5334" fill="white" stroke="#211433"/>
<path d="M60.6217 51.1721H67.5717V68.6721H64.3217V53.8971H60.6217V51.1721Z" fill="#D8D0E4"/>
<path d="M60.6217 51.1721V50.1721H59.6217V51.1721H60.6217ZM67.5717 51.1721H68.5717V50.1721H67.5717V51.1721ZM67.5717 68.6721V69.6721H68.5717V68.6721H67.5717ZM64.3217 68.6721H63.3217V69.6721H64.3217V68.6721ZM64.3217 53.8971H65.3217V52.8971H64.3217V53.8971ZM60.6217 53.8971H59.6217V54.8971H60.6217V53.8971ZM60.6217 52.1721H67.5717V50.1721H60.6217V52.1721ZM66.5717 51.1721V68.6721H68.5717V51.1721H66.5717ZM67.5717 67.6721H64.3217V69.6721H67.5717V67.6721ZM65.3217 68.6721V53.8971H63.3217V68.6721H65.3217ZM64.3217 52.8971H60.6217V54.8971H64.3217V52.8971ZM61.6217 53.8971V51.1721H59.6217V53.8971H61.6217Z" fill="#211433"/>
<circle cx="65.0162" cy="177.189" r="17.5334" fill="white" stroke="#211433"/>
<path d="M63.6494 183.082H71.8994V185.832H58.9994V183.657L65.9494 177.057C67.6494 175.432 67.9494 174.407 67.9494 173.432C67.9494 171.832 66.8494 170.907 64.6994 170.907C62.9994 170.907 61.5744 171.482 60.5994 172.732L58.3244 170.982C59.6744 169.157 62.0994 168.082 64.9744 168.082C68.7744 168.082 71.2244 170.007 71.2244 173.107C71.2244 174.807 70.7494 176.357 68.3244 178.632L63.6494 183.082Z" fill="#CDE6B2"/>
<path d="M63.6494 183.082L62.96 182.357L61.1485 184.082H63.6494V183.082ZM71.8994 183.082H72.8994V182.082H71.8994V183.082ZM71.8994 185.832V186.832H72.8994V185.832H71.8994ZM58.9994 185.832H57.9994V186.832H58.9994V185.832ZM58.9994 183.657L58.3108 182.932L57.9994 183.227V183.657H58.9994ZM65.9494 177.057L66.638 177.782L66.6404 177.78L65.9494 177.057ZM60.5994 172.732L59.9897 173.524L60.777 174.13L61.3879 173.347L60.5994 172.732ZM58.3244 170.982L57.5205 170.387L56.9369 171.176L57.7147 171.774L58.3244 170.982ZM68.3244 178.632L67.6402 177.902L67.635 177.907L68.3244 178.632ZM63.6494 184.082H71.8994V182.082H63.6494V184.082ZM70.8994 183.082V185.832H72.8994V183.082H70.8994ZM71.8994 184.832H58.9994V186.832H71.8994V184.832ZM59.9994 185.832V183.657H57.9994V185.832H59.9994ZM59.688 184.382L66.638 177.782L65.2608 176.332L58.3108 182.932L59.688 184.382ZM66.6404 177.78C67.5397 176.92 68.1263 176.165 68.4833 175.444C68.8513 174.7 68.9494 174.043 68.9494 173.432H66.9494C66.9494 173.796 66.8976 174.139 66.6906 174.557C66.4725 174.998 66.0591 175.568 65.2584 176.334L66.6404 177.78ZM68.9494 173.432C68.9494 172.383 68.5761 171.439 67.7521 170.786C66.9651 170.162 65.8974 169.907 64.6994 169.907V171.907C65.6514 171.907 66.2087 172.114 66.5093 172.353C66.7728 172.562 66.9494 172.88 66.9494 173.432H68.9494ZM64.6994 169.907C62.7601 169.907 61.0141 170.574 59.8109 172.117L61.3879 173.347C62.1348 172.389 63.2387 171.907 64.6994 171.907V169.907ZM61.2091 171.939L58.9341 170.189L57.7147 171.774L59.9897 173.524L61.2091 171.939ZM59.1284 171.576C60.2444 170.068 62.3314 169.082 64.9744 169.082V167.082C61.8674 167.082 59.1045 168.246 57.5205 170.387L59.1284 171.576ZM64.9744 169.082C66.7167 169.082 68.0374 169.524 68.9003 170.213C69.7389 170.883 70.2244 171.846 70.2244 173.107H72.2244C72.2244 171.267 71.4849 169.718 70.1486 168.65C68.8365 167.602 67.0321 167.082 64.9744 167.082V169.082ZM70.2244 173.107C70.2244 173.849 70.1231 174.506 69.7812 175.223C69.4308 175.958 68.7983 176.816 67.6402 177.902L69.0086 179.361C70.2756 178.172 71.093 177.118 71.5864 176.084C72.0882 175.032 72.2244 174.064 72.2244 173.107H70.2244ZM67.635 177.907L62.96 182.357L64.3389 183.806L69.0139 179.356L67.635 177.907Z" fill="#211433"/>
<circle cx="65.0162" cy="177.189" r="17.5334" fill="white" stroke="#211433"/>
<path d="M63.6494 183.082H71.8994V185.832H58.9994V183.657L65.9494 177.057C67.6494 175.432 67.9494 174.407 67.9494 173.432C67.9494 171.832 66.8494 170.907 64.6994 170.907C62.9994 170.907 61.5744 171.482 60.5994 172.732L58.3244 170.982C59.6744 169.157 62.0994 168.082 64.9744 168.082C68.7744 168.082 71.2244 170.007 71.2244 173.107C71.2244 174.807 70.7494 176.357 68.3244 178.632L63.6494 183.082Z" fill="#CDE6B2"/>
<path d="M63.6494 183.082L62.96 182.357L61.1485 184.082H63.6494V183.082ZM71.8994 183.082H72.8994V182.082H71.8994V183.082ZM71.8994 185.832V186.832H72.8994V185.832H71.8994ZM58.9994 185.832H57.9994V186.832H58.9994V185.832ZM58.9994 183.657L58.3108 182.932L57.9994 183.227V183.657H58.9994ZM65.9494 177.057L66.638 177.782L66.6404 177.78L65.9494 177.057ZM60.5994 172.732L59.9897 173.524L60.777 174.13L61.3879 173.347L60.5994 172.732ZM58.3244 170.982L57.5205 170.387L56.9369 171.176L57.7147 171.774L58.3244 170.982ZM68.3244 178.632L67.6402 177.902L67.635 177.907L68.3244 178.632ZM63.6494 184.082H71.8994V182.082H63.6494V184.082ZM70.8994 183.082V185.832H72.8994V183.082H70.8994ZM71.8994 184.832H58.9994V186.832H71.8994V184.832ZM59.9994 185.832V183.657H57.9994V185.832H59.9994ZM59.688 184.382L66.638 177.782L65.2608 176.332L58.3108 182.932L59.688 184.382ZM66.6404 177.78C67.5397 176.92 68.1263 176.165 68.4833 175.444C68.8513 174.7 68.9494 174.043 68.9494 173.432H66.9494C66.9494 173.796 66.8976 174.139 66.6906 174.557C66.4725 174.998 66.0591 175.568 65.2584 176.334L66.6404 177.78ZM68.9494 173.432C68.9494 172.383 68.5761 171.439 67.7521 170.786C66.9651 170.162 65.8974 169.907 64.6994 169.907V171.907C65.6514 171.907 66.2087 172.114 66.5093 172.353C66.7728 172.562 66.9494 172.88 66.9494 173.432H68.9494ZM64.6994 169.907C62.7601 169.907 61.0141 170.574 59.8109 172.117L61.3879 173.347C62.1348 172.389 63.2387 171.907 64.6994 171.907V169.907ZM61.2091 171.939L58.9341 170.189L57.7147 171.774L59.9897 173.524L61.2091 171.939ZM59.1284 171.576C60.2444 170.068 62.3314 169.082 64.9744 169.082V167.082C61.8674 167.082 59.1045 168.246 57.5205 170.387L59.1284 171.576ZM64.9744 169.082C66.7167 169.082 68.0374 169.524 68.9003 170.213C69.7389 170.883 70.2244 171.846 70.2244 173.107H72.2244C72.2244 171.267 71.4849 169.718 70.1486 168.65C68.8365 167.602 67.0321 167.082 64.9744 167.082V169.082ZM70.2244 173.107C70.2244 173.849 70.1231 174.506 69.7812 175.223C69.4308 175.958 68.7983 176.816 67.6402 177.902L69.0086 179.361C70.2756 178.172 71.093 177.118 71.5864 176.084C72.0882 175.032 72.2244 174.064 72.2244 173.107H70.2244ZM67.635 177.907L62.96 182.357L64.3389 183.806L69.0139 179.356L67.635 177.907Z" fill="#211433"/>
<circle cx="65.0162" cy="177.189" r="17.5334" fill="white" stroke="#211433"/>
<path d="M63.6494 183.082H71.8994V185.832H58.9994V183.657L65.9494 177.057C67.6494 175.432 67.9494 174.407 67.9494 173.432C67.9494 171.832 66.8494 170.907 64.6994 170.907C62.9994 170.907 61.5744 171.482 60.5994 172.732L58.3244 170.982C59.6744 169.157 62.0994 168.082 64.9744 168.082C68.7744 168.082 71.2244 170.007 71.2244 173.107C71.2244 174.807 70.7494 176.357 68.3244 178.632L63.6494 183.082Z" fill="#CDE6B2"/>
<path d="M63.6494 183.082L62.96 182.357L61.1485 184.082H63.6494V183.082ZM71.8994 183.082H72.8994V182.082H71.8994V183.082ZM71.8994 185.832V186.832H72.8994V185.832H71.8994ZM58.9994 185.832H57.9994V186.832H58.9994V185.832ZM58.9994 183.657L58.3108 182.932L57.9994 183.227V183.657H58.9994ZM65.9494 177.057L66.638 177.782L66.6404 177.78L65.9494 177.057ZM60.5994 172.732L59.9897 173.524L60.777 174.13L61.3879 173.347L60.5994 172.732ZM58.3244 170.982L57.5205 170.387L56.9369 171.176L57.7147 171.774L58.3244 170.982ZM68.3244 178.632L67.6402 177.902L67.635 177.907L68.3244 178.632ZM63.6494 184.082H71.8994V182.082H63.6494V184.082ZM70.8994 183.082V185.832H72.8994V183.082H70.8994ZM71.8994 184.832H58.9994V186.832H71.8994V184.832ZM59.9994 185.832V183.657H57.9994V185.832H59.9994ZM59.688 184.382L66.638 177.782L65.2608 176.332L58.3108 182.932L59.688 184.382ZM66.6404 177.78C67.5397 176.92 68.1263 176.165 68.4833 175.444C68.8513 174.7 68.9494 174.043 68.9494 173.432H66.9494C66.9494 173.796 66.8976 174.139 66.6906 174.557C66.4725 174.998 66.0591 175.568 65.2584 176.334L66.6404 177.78ZM68.9494 173.432C68.9494 172.383 68.5761 171.439 67.7521 170.786C66.9651 170.162 65.8974 169.907 64.6994 169.907V171.907C65.6514 171.907 66.2087 172.114 66.5093 172.353C66.7728 172.562 66.9494 172.88 66.9494 173.432H68.9494ZM64.6994 169.907C62.7601 169.907 61.0141 170.574 59.8109 172.117L61.3879 173.347C62.1348 172.389 63.2387 171.907 64.6994 171.907V169.907ZM61.2091 171.939L58.9341 170.189L57.7147 171.774L59.9897 173.524L61.2091 171.939ZM59.1284 171.576C60.2444 170.068 62.3314 169.082 64.9744 169.082V167.082C61.8674 167.082 59.1045 168.246 57.5205 170.387L59.1284 171.576ZM64.9744 169.082C66.7167 169.082 68.0374 169.524 68.9003 170.213C69.7389 170.883 70.2244 171.846 70.2244 173.107H72.2244C72.2244 171.267 71.4849 169.718 70.1486 168.65C68.8365 167.602 67.0321 167.082 64.9744 167.082V169.082ZM70.2244 173.107C70.2244 173.849 70.1231 174.506 69.7812 175.223C69.4308 175.958 68.7983 176.816 67.6402 177.902L69.0086 179.361C70.2756 178.172 71.093 177.118 71.5864 176.084C72.0882 175.032 72.2244 174.064 72.2244 173.107H70.2244ZM67.635 177.907L62.96 182.357L64.3389 183.806L69.0139 179.356L67.635 177.907Z" fill="#211433"/>
<circle cx="65.0162" cy="349.942" r="17.5334" fill="white" stroke="#211433"/>
<path d="M64.9656 343.034C63.8156 343.034 62.9656 342.209 62.9656 341.159C62.9656 340.109 63.8156 339.284 64.9656 339.284C66.1156 339.284 66.9656 340.059 66.9656 341.084C66.9656 342.184 66.1406 343.034 64.9656 343.034ZM63.3906 358.584V345.234H66.5156V358.584H63.3906Z" fill="#9B88BB"/>
<path d="M63.3906 358.584H62.3906V359.584H63.3906V358.584ZM63.3906 345.234V344.234H62.3906V345.234H63.3906ZM66.5156 345.234H67.5156V344.234H66.5156V345.234ZM66.5156 358.584V359.584H67.5156V358.584H66.5156ZM64.9656 342.034C64.3162 342.034 63.9656 341.607 63.9656 341.159H61.9656C61.9656 342.812 63.3149 344.034 64.9656 344.034V342.034ZM63.9656 341.159C63.9656 340.712 64.3162 340.284 64.9656 340.284V338.284C63.3149 338.284 61.9656 339.507 61.9656 341.159H63.9656ZM64.9656 340.284C65.6612 340.284 65.9656 340.705 65.9656 341.084H67.9656C67.9656 339.414 66.57 338.284 64.9656 338.284V340.284ZM65.9656 341.084C65.9656 341.624 65.5967 342.034 64.9656 342.034V344.034C66.6845 344.034 67.9656 342.745 67.9656 341.084H65.9656ZM64.3906 358.584V345.234H62.3906V358.584H64.3906ZM63.3906 346.234H66.5156V344.234H63.3906V346.234ZM65.5156 345.234V358.584H67.5156V345.234H65.5156ZM66.5156 357.584H63.3906V359.584H66.5156V357.584Z" fill="#211433"/>
<circle cx="65.0162" cy="462.967" r="17.5334" fill="white" stroke="#211433"/>
<path d="M63.6744 465.809C63.6744 462.109 67.8494 461.409 67.8494 458.909C67.8494 457.509 66.6494 456.559 64.7244 456.559C62.8744 456.559 61.5244 457.259 60.6494 458.484L58.2244 456.909C59.6244 455.009 61.8744 453.859 64.9994 453.859C68.6744 453.859 71.1244 455.534 71.1244 458.409C71.1244 462.484 66.8494 462.859 66.8494 465.809H63.6744ZM65.2744 471.784C64.0994 471.784 63.2744 470.909 63.2744 469.834C63.2744 468.759 64.0994 467.909 65.2744 467.909C66.4244 467.909 67.2494 468.759 67.2494 469.834C67.2494 470.909 66.4244 471.784 65.2744 471.784Z" fill="#7EC8A2"/>
<path d="M63.6744 465.809H62.6744V466.809H63.6744V465.809ZM60.6494 458.484L60.1047 459.323L60.9071 459.844L61.4632 459.065L60.6494 458.484ZM58.2244 456.909L57.4194 456.316L56.7901 457.17L57.6797 457.748L58.2244 456.909ZM66.8494 465.809V466.809H67.8494V465.809H66.8494ZM64.6744 465.809C64.6744 464.415 65.4205 463.572 66.435 462.648C66.909 462.217 67.5175 461.705 67.9688 461.157C68.4479 460.576 68.8494 459.845 68.8494 458.909H66.8494C66.8494 459.222 66.7291 459.517 66.4253 459.885C66.0939 460.288 65.6585 460.651 65.0888 461.169C64.0158 462.146 62.6744 463.503 62.6744 465.809H64.6744ZM68.8494 458.909C68.8494 457.893 68.4003 457.013 67.6154 456.414C66.8544 455.833 65.84 455.559 64.7244 455.559V457.559C65.5338 457.559 66.0819 457.76 66.4022 458.004C66.6985 458.23 66.8494 458.525 66.8494 458.909H68.8494ZM64.7244 455.559C62.5893 455.559 60.9193 456.386 59.8357 457.903L61.4632 459.065C62.1295 458.132 63.1596 457.559 64.7244 457.559V455.559ZM61.1941 457.645L58.7691 456.07L57.6797 457.748L60.1047 459.323L61.1941 457.645ZM59.0295 457.502C60.2133 455.896 62.1423 454.859 64.9994 454.859V452.859C61.6065 452.859 59.0356 454.122 57.4194 456.316L59.0295 457.502ZM64.9994 454.859C66.7009 454.859 68.0036 455.249 68.8526 455.865C69.6669 456.456 70.1244 457.294 70.1244 458.409H72.1244C72.1244 456.649 71.3569 455.212 70.0275 454.247C68.7328 453.307 66.9729 452.859 64.9994 452.859V454.859ZM70.1244 458.409C70.1244 460 69.3393 460.859 68.3141 461.791C67.3733 462.646 65.8494 463.796 65.8494 465.809H67.8494C67.8494 464.871 68.463 464.359 69.6597 463.271C70.7721 462.259 72.1244 460.892 72.1244 458.409H70.1244ZM66.8494 464.809H63.6744V466.809H66.8494V464.809ZM65.2744 470.784C64.6517 470.784 64.2744 470.357 64.2744 469.834H62.2744C62.2744 471.461 63.5471 472.784 65.2744 472.784V470.784ZM64.2744 469.834C64.2744 469.328 64.6348 468.909 65.2744 468.909V466.909C63.564 466.909 62.2744 468.19 62.2744 469.834H64.2744ZM65.2744 468.909C65.8806 468.909 66.2494 469.32 66.2494 469.834H68.2494C68.2494 468.198 66.9682 466.909 65.2744 466.909V468.909ZM66.2494 469.834C66.2494 470.365 65.8638 470.784 65.2744 470.784V472.784C66.9851 472.784 68.2494 471.453 68.2494 469.834H66.2494Z" fill="#211433"/>
<path d="M34.348 358.786L30.5952 365.286L38.1007 365.286L34.348 358.786ZM33.698 365.463L33.698 369.914L34.998 369.914L34.998 365.463L33.698 365.463ZM33.698 374.365L33.698 378.816L34.998 378.816L34.998 374.365L33.698 374.365ZM33.698 383.267L33.698 387.717L34.998 387.717L34.998 383.267L33.698 383.267ZM33.698 392.168L33.698 394.394L34.998 394.394L34.998 392.168L33.698 392.168Z" fill="#F4F1F7"/>
<path d="M34.348 73.9283L30.5952 80.4283L38.1007 80.4283L34.348 73.9283ZM33.698 80.6047L33.698 85.0556L34.998 85.0556L34.998 80.6047L33.698 80.6047ZM33.698 89.5065L33.698 93.9574L34.998 93.9574L34.998 89.5065L33.698 89.5065ZM33.698 98.4084L33.698 102.859L34.998 102.859L34.998 98.4084L33.698 98.4084ZM33.698 107.31L33.698 109.536L34.998 109.536L34.998 107.31L33.698 107.31Z" fill="#F4F1F7"/>
<path d="M34.348 189.709L30.5952 196.209L38.1007 196.209L34.348 189.709ZM33.698 196.888L33.698 201.674L34.998 201.674L34.998 196.888L33.698 196.888ZM33.698 206.46L33.698 211.246L34.998 211.246L34.998 206.46L33.698 206.46ZM33.698 216.032L33.698 220.818L34.998 220.818L34.998 216.032L33.698 216.032ZM33.698 225.604L33.698 230.39L34.998 230.39L34.998 225.604L33.698 225.604ZM33.698 235.176L33.698 239.961L34.998 239.961L34.998 235.176L33.698 235.176ZM33.698 244.747L33.698 249.533L34.998 249.533L34.998 244.747L33.698 244.747ZM33.698 254.319L33.698 259.105L34.998 259.105L34.998 254.319L33.698 254.319ZM33.698 263.891L33.698 268.677L34.998 268.677L34.998 263.891L33.698 263.891ZM33.698 273.463L33.698 275.856L34.998 275.856L34.998 273.463L33.698 273.463Z" fill="#F4F1F7"/>
<path d="M448.886 275.052L443.915 272.115L443.857 277.888L448.886 275.052ZM448.886 84.3806L443.857 81.5448L443.915 87.318L448.886 84.3806ZM442.943 84.0619C441.62 84.1428 440.305 84.2505 438.998 84.3846L439.1 85.3793C440.394 85.2467 441.695 85.1401 443.004 85.06L442.943 84.0619ZM435.063 84.8701C433.751 85.0597 432.448 85.2758 431.154 85.5179L431.337 86.5009C432.618 86.2613 433.908 86.0474 435.206 85.8598L435.063 84.8701ZM427.275 86.3273C425.985 86.6246 424.705 86.9481 423.435 87.297L423.7 88.2613C424.956 87.916 426.223 87.596 427.5 87.3017L427.275 86.3273ZM419.638 88.4256C418.378 88.829 417.129 89.2578 415.893 89.7113L416.237 90.6502C417.461 90.2014 418.696 89.7772 419.943 89.378L419.638 88.4256ZM412.201 91.1529C410.979 91.6597 409.769 92.1911 408.573 92.7465L408.994 93.6535C410.178 93.104 411.375 92.5781 412.584 92.0766L412.201 91.1529ZM405.015 94.4892C403.84 95.0953 402.679 95.725 401.533 96.3777L402.028 97.2467C403.162 96.6009 404.311 95.9777 405.473 95.3779L405.015 94.4892ZM398.132 98.4086C397.011 99.1095 395.906 99.833 394.817 100.578L395.382 101.403C396.46 100.666 397.553 99.95 398.662 99.2564L398.132 98.4086ZM391.595 102.883C390.537 103.674 389.495 104.486 388.47 105.318L389.101 106.094C390.115 105.27 391.146 104.466 392.194 103.684L391.595 102.883ZM385.449 107.88C384.459 108.755 383.487 109.65 382.535 110.564L383.227 111.286C384.17 110.381 385.131 109.495 386.111 108.63L385.449 107.88ZM379.734 113.365C378.819 114.318 377.924 115.289 377.05 116.279L377.799 116.941C378.665 115.962 379.55 115 380.455 114.058L379.734 113.365ZM374.488 119.301C373.655 120.325 372.843 121.367 372.052 122.426L372.854 123.024C373.636 121.976 374.44 120.945 375.264 119.932L374.488 119.301ZM369.748 125.648C369.002 126.737 368.279 127.842 367.578 128.962L368.426 129.492C369.12 128.384 369.835 127.29 370.573 126.213L369.748 125.648ZM365.547 132.363C364.895 133.509 364.265 134.67 363.659 135.846L364.547 136.304C365.147 135.141 365.77 133.992 366.416 132.858L365.547 132.363ZM361.916 139.404C361.361 140.6 360.829 141.809 360.322 143.031L361.246 143.414C361.748 142.205 362.274 141.008 362.823 139.825L361.916 139.404ZM358.881 146.723C358.427 147.96 357.999 149.209 357.595 150.469L358.548 150.774C358.947 149.527 359.371 148.291 359.82 147.067L358.881 146.723ZM356.467 154.265C356.118 155.535 355.794 156.815 355.497 158.106L356.471 158.33C356.766 157.054 357.086 155.787 357.431 154.53L356.467 154.265ZM354.687 161.984C354.445 163.278 354.229 164.582 354.04 165.894L355.029 166.037C355.217 164.739 355.431 163.449 355.67 162.168L354.687 161.984ZM353.554 169.828C353.42 171.136 353.312 172.451 353.231 173.773L354.23 173.834C354.31 172.526 354.416 171.224 354.549 169.93L353.554 169.828ZM353.07 177.729C353.057 178.39 353.05 179.052 353.05 179.716H354.05C354.05 179.059 354.057 178.403 354.07 177.749L353.07 177.729ZM353.05 179.716C353.05 180.38 353.057 181.043 353.07 181.704L354.07 181.683C354.057 181.029 354.05 180.374 354.05 179.716H353.05ZM353.231 185.659C353.312 186.982 353.42 188.297 353.554 189.604L354.549 189.502C354.416 188.208 354.31 186.907 354.23 185.598L353.231 185.659ZM354.04 193.539C354.229 194.851 354.445 196.154 354.688 197.449L355.67 197.265C355.431 195.984 355.217 194.694 355.029 193.396L354.04 193.539ZM355.497 201.327C355.794 202.617 356.118 203.898 356.467 205.167L357.431 204.902C357.086 203.646 356.766 202.379 356.471 201.102L355.497 201.327ZM357.595 208.964C357.999 210.224 358.427 211.473 358.881 212.71L359.82 212.365C359.371 211.141 358.947 209.906 358.548 208.659L357.595 208.964ZM360.322 216.401C360.829 217.623 361.361 218.833 361.916 220.029L362.823 219.608C362.274 218.424 361.748 217.228 361.246 216.018L360.322 216.401ZM363.659 223.587C364.265 224.762 364.895 225.923 365.547 227.069L366.416 226.575C365.77 225.44 365.147 224.291 364.547 223.129L363.659 223.587ZM367.578 230.47C368.279 231.591 369.003 232.696 369.748 233.785L370.573 233.22C369.835 232.142 369.12 231.049 368.426 229.94L367.578 230.47ZM372.052 237.007C372.843 238.065 373.655 239.107 374.488 240.132L375.264 239.501C374.44 238.487 373.636 237.456 372.854 236.408L372.052 237.007ZM377.05 243.153C377.924 244.143 378.819 245.115 379.734 246.067L380.455 245.375C379.55 244.432 378.665 243.471 377.799 242.491L377.05 243.153ZM382.535 248.869C383.487 249.783 384.459 250.678 385.449 251.552L386.111 250.803C385.131 249.937 384.17 249.052 383.227 248.147L382.535 248.869ZM388.47 254.114C389.495 254.947 390.537 255.759 391.595 256.55L392.194 255.749C391.146 254.966 390.115 254.162 389.101 253.338L388.47 254.114ZM394.817 258.854C395.906 259.6 397.011 260.323 398.132 261.024L398.662 260.176C397.553 259.483 396.46 258.767 395.382 258.029L394.817 258.854ZM401.533 263.055C402.679 263.708 403.84 264.337 405.015 264.943L405.473 264.055C404.311 263.455 403.162 262.832 402.028 262.186L401.533 263.055ZM408.573 266.686C409.769 267.241 410.979 267.773 412.201 268.28L412.584 267.356C411.375 266.854 410.178 266.329 408.994 265.779L408.573 266.686ZM415.893 269.721C417.13 270.175 418.378 270.604 419.638 271.007L419.943 270.055C418.696 269.655 417.461 269.231 416.237 268.782L415.893 269.721ZM423.435 272.136C424.705 272.484 425.985 272.808 427.275 273.105L427.5 272.131C426.223 271.837 424.956 271.517 423.7 271.171L423.435 272.136ZM431.154 273.915C432.448 274.157 433.751 274.373 435.063 274.562L435.206 273.573C433.908 273.385 432.618 273.171 431.337 272.932L431.154 273.915ZM438.998 275.048C440.305 275.182 441.62 275.29 442.943 275.371L443.004 274.373C441.695 274.292 440.394 274.186 439.1 274.053L438.998 275.048Z" fill="#F4F1F7"/>
<path d="M443.717 180.299L438.717 177.412L438.717 183.186L443.717 180.299ZM296.693 180.799L298.735 180.799L298.735 179.799L296.693 179.799L296.693 180.799ZM302.819 180.799L306.903 180.799L306.903 179.799L302.819 179.799L302.819 180.799ZM310.987 180.799L315.071 180.799L315.071 179.799L310.987 179.799L310.987 180.799ZM319.155 180.799L323.239 180.799L323.239 179.799L319.155 179.799L319.155 180.799ZM327.323 180.799L331.407 180.799L331.407 179.799L327.323 179.799L327.323 180.799ZM335.491 180.799L339.575 180.799L339.575 179.799L335.491 179.799L335.491 180.799ZM343.659 180.799L347.743 180.799L347.743 179.799L343.659 179.799L343.659 180.799ZM351.827 180.799L355.911 180.799L355.911 179.799L351.827 179.799L351.827 180.799ZM359.995 180.799L364.079 180.799L364.079 179.799L359.995 179.799L359.995 180.799ZM368.163 180.799L372.247 180.799L372.247 179.799L368.163 179.799L368.163 180.799ZM376.331 180.799L380.415 180.799L380.415 179.799L376.331 179.799L376.331 180.799ZM384.499 180.799L388.583 180.799L388.583 179.799L384.499 179.799L384.499 180.799ZM392.667 180.799L396.751 180.799L396.751 179.799L392.667 179.799L392.667 180.799ZM400.835 180.799L404.919 180.799L404.919 179.799L400.835 179.799L400.835 180.799ZM409.003 180.799L413.087 180.799L413.087 179.799L409.003 179.799L409.003 180.799ZM417.171 180.799L421.255 180.799L421.255 179.799L417.171 179.799L417.171 180.799ZM425.339 180.799L429.423 180.799L429.423 179.799L425.339 179.799L425.339 180.799ZM433.507 180.799L437.591 180.799L437.591 179.799L433.507 179.799L433.507 180.799Z" fill="#F4F1F7"/>
<path d="M262.892 22.0958C263.819 16.5768 261.444 10.7849 256.396 7.58035C249.642 3.28982 240.664 5.24815 236.339 11.948C232.014 18.6539 233.988 27.5613 240.741 31.8459C247.495 36.1365 256.473 34.1781 260.798 27.4782" stroke="#F4F1F7" stroke-linecap="round" stroke-linejoin="round"/>
<path d="M264.692 19.9357L262.82 22.618L261.414 19.6627" stroke="#F4F1F7" stroke-linecap="round" stroke-linejoin="round"/>
<path d="M248.242 9.21228L258.986 15.1822" stroke="#F4F1F7" stroke-linecap="round" stroke-linejoin="round"/>
<path d="M239.754 24.244L250.504 30.214" stroke="#F4F1F7" stroke-linecap="round" stroke-linejoin="round"/>
<path d="M240.496 22.9445L251.239 28.9085" stroke="#F4F1F7" stroke-linecap="round" stroke-linejoin="round"/>
<path d="M249.63 29.6146C252.238 25.6386 251.138 23.3301 250.175 21.3006C250.103 21.1522 249.768 20.5172 250.007 20.0959C250.384 19.4312 251.329 19.5262 252.316 19.449C253.183 19.3778 254.051 19.1167 254.739 18.7963C256.24 18.096 257.341 15.9418 257.867 14.7194" stroke="#F4F1F7" stroke-linecap="round" stroke-linejoin="round"/>
<path d="M240.723 24.6654C242.775 20.3808 245.335 20.1078 247.59 19.8585C247.752 19.8407 248.476 19.7933 248.715 19.366C249.092 18.7013 248.512 17.9536 248.063 17.0753C247.668 16.3039 247.441 15.4315 247.363 14.6838C247.184 13.0459 248.458 10.9867 249.235 9.90662" stroke="#F4F1F7" stroke-linecap="round" stroke-linejoin="round"/>
<path d="M276.864 8.42153C279.072 8.42153 280.44 9.54953 280.44 11.4095C280.44 13.2575 279.072 14.3975 276.864 14.3975H274.968V16.8215H273.408V8.42153H276.864ZM276.792 13.0775C278.16 13.0775 278.868 12.4655 278.868 11.4095C278.868 10.3535 278.16 9.74153 276.792 9.74153H274.968V13.0775H276.792ZM281.971 16.8215V7.91753H283.471V16.8215H281.971ZM288.32 16.9055C286.352 16.9055 284.912 15.5375 284.912 13.6175C284.912 11.6975 286.352 10.3415 288.32 10.3415C290.312 10.3415 291.74 11.6975 291.74 13.6175C291.74 15.5375 290.312 16.9055 288.32 16.9055ZM288.32 15.6215C289.412 15.6215 290.228 14.8415 290.228 13.6175C290.228 12.3935 289.412 11.6135 288.32 11.6135C287.24 11.6135 286.424 12.3935 286.424 13.6175C286.424 14.8415 287.24 15.6215 288.32 15.6215ZM296.606 15.4055L297.026 16.4735C296.666 16.7615 296.126 16.9055 295.586 16.9055C294.182 16.9055 293.378 16.1615 293.378 14.7455V11.6615H292.322V10.4615H293.378V8.99753H294.878V10.4615H296.594V11.6615H294.878V14.7095C294.878 15.3335 295.19 15.6695 295.766 15.6695C296.078 15.6695 296.378 15.5855 296.606 15.4055ZM301.54 15.4055L301.96 16.4735C301.6 16.7615 301.06 16.9055 300.52 16.9055C299.116 16.9055 298.312 16.1615 298.312 14.7455V11.6615H297.256V10.4615H298.312V8.99753H299.812V10.4615H301.528V11.6615H299.812V14.7095C299.812 15.3335 300.124 15.6695 300.7 15.6695C301.012 15.6695 301.312 15.5855 301.54 15.4055ZM303.95 9.35753C303.398 9.35753 302.99 8.96153 302.99 8.45753C302.99 7.95353 303.398 7.55753 303.95 7.55753C304.502 7.55753 304.91 7.92953 304.91 8.42153C304.91 8.94953 304.514 9.35753 303.95 9.35753ZM303.194 16.8215V10.4135H304.694V16.8215H303.194ZM310.299 10.3415C311.835 10.3415 312.975 11.2175 312.975 13.1495V16.8215H311.475V13.3415C311.475 12.2015 310.911 11.6495 309.951 11.6495C308.883 11.6495 308.163 12.2975 308.163 13.5815V16.8215H306.663V10.4135H308.091V11.2415C308.583 10.6535 309.363 10.3415 310.299 10.3415ZM319.868 10.4135H321.296V15.8495C321.296 18.1775 320.084 19.2335 317.84 19.2335C316.64 19.2335 315.452 18.9215 314.72 18.3215L315.392 17.1935C315.956 17.6615 316.868 17.9615 317.756 17.9615C319.172 17.9615 319.796 17.3135 319.796 16.0175V15.6815C319.268 16.2575 318.512 16.5335 317.648 16.5335C315.812 16.5335 314.408 15.2855 314.408 13.4255C314.408 11.5655 315.812 10.3415 317.648 10.3415C318.548 10.3415 319.34 10.6295 319.868 11.2655V10.4135ZM317.876 15.2615C319.004 15.2615 319.82 14.5175 319.82 13.4255C319.82 12.3455 319.004 11.6135 317.876 11.6135C316.736 11.6135 315.92 12.3455 315.92 13.4255C315.92 14.5175 316.736 15.2615 317.876 15.2615ZM276.864 23.4215C279.072 23.4215 280.44 24.5495 280.44 26.4095C280.44 28.2575 279.072 29.3975 276.864 29.3975H274.968V31.8215H273.408V23.4215H276.864ZM276.792 28.0775C278.16 28.0775 278.868 27.4655 278.868 26.4095C278.868 25.3535 278.16 24.7415 276.792 24.7415H274.968V28.0775H276.792ZM285.607 25.3415C287.143 25.3415 288.283 26.2175 288.283 28.1495V31.8215H286.783V28.3415C286.783 27.2015 286.219 26.6495 285.259 26.6495C284.191 26.6495 283.471 27.2975 283.471 28.5815V31.8215H281.971V22.9175H283.471V26.1575C283.963 25.6295 284.719 25.3415 285.607 25.3415ZM292.634 25.3415C294.482 25.3415 295.55 26.2175 295.55 28.0655V31.8215H294.134V31.0415C293.774 31.5935 293.078 31.9055 292.118 31.9055C290.654 31.9055 289.73 31.1015 289.73 29.9855C289.73 28.9175 290.45 28.0775 292.394 28.0775H294.05V27.9815C294.05 27.1055 293.522 26.5895 292.454 26.5895C291.734 26.5895 290.99 26.8295 290.51 27.2255L289.922 26.1335C290.606 25.6055 291.602 25.3415 292.634 25.3415ZM292.43 30.8135C293.162 30.8135 293.798 30.4775 294.05 29.8175V29.0735H292.502C291.482 29.0735 291.206 29.4575 291.206 29.9255C291.206 30.4655 291.662 30.8135 292.43 30.8135ZM299.455 31.9055C298.387 31.9055 297.319 31.5935 296.743 31.1855L297.319 30.0455C297.883 30.4175 298.747 30.6815 299.551 30.6815C300.499 30.6815 300.895 30.4175 300.895 29.9735C300.895 28.7495 296.935 29.9015 296.935 27.3455C296.935 26.1335 298.027 25.3415 299.755 25.3415C300.607 25.3415 301.579 25.5455 302.155 25.8935L301.579 27.0335C300.967 26.6735 300.355 26.5535 299.743 26.5535C298.831 26.5535 298.399 26.8535 298.399 27.2735C298.399 28.5695 302.359 27.4175 302.359 29.9255C302.359 31.1255 301.255 31.9055 299.455 31.9055ZM309.675 28.6535C309.675 28.7735 309.663 28.9535 309.651 29.0975H304.623C304.803 30.0335 305.583 30.6335 306.699 30.6335C307.419 30.6335 307.983 30.4055 308.439 29.9375L309.243 30.8615C308.667 31.5455 307.767 31.9055 306.663 31.9055C304.515 31.9055 303.123 30.5255 303.123 28.6175C303.123 26.7095 304.527 25.3415 306.435 25.3415C308.307 25.3415 309.675 26.6495 309.675 28.6535ZM306.435 26.5415C305.463 26.5415 304.755 27.1655 304.611 28.1015H308.247C308.127 27.1775 307.419 26.5415 306.435 26.5415Z" fill="#F4F1F7"/>
<path d="M388.427 363.381H394.923V369.354C394.923 369.749 394.675 370.107 394.308 370.245C394.198 370.291 394.087 370.31 393.968 370.31C393.701 370.31 393.435 370.199 393.251 369.988C392.709 369.372 391.919 369.014 391.101 369.014C389.52 369.014 388.234 370.3 388.234 371.881C388.234 373.461 389.52 374.748 391.101 374.748C391.928 374.748 392.709 374.389 393.251 373.774C393.435 373.562 393.701 373.452 393.968 373.452C394.078 373.452 394.198 373.471 394.308 373.517C394.675 373.654 394.923 374.013 394.923 374.408V380.84H388.491C388.096 380.84 387.738 381.088 387.6 381.456C387.462 381.833 387.563 382.246 387.866 382.513C388.482 383.055 388.84 383.845 388.84 384.663C388.84 386.243 387.554 387.53 385.973 387.53C384.393 387.53 383.106 386.243 383.106 384.663C383.106 383.836 383.465 383.055 384.08 382.513C384.384 382.246 384.485 381.833 384.347 381.456C384.209 381.079 383.851 380.84 383.456 380.84H377.023V374.408C377.023 374.013 376.775 373.654 376.408 373.517C376.297 373.471 376.187 373.452 376.068 373.452C375.801 373.452 375.535 373.562 375.351 373.774C374.809 374.389 374.019 374.748 373.201 374.748C371.62 374.748 370.334 373.461 370.334 371.881C370.334 370.3 371.62 369.014 373.201 369.014C374.028 369.014 374.809 369.372 375.351 369.988C375.535 370.199 375.801 370.31 376.068 370.31C376.178 370.31 376.297 370.291 376.408 370.245C376.784 370.107 377.023 369.749 377.023 369.354V363.381H383.382C383.52 363.381 383.658 363.473 383.704 363.602C383.759 363.739 383.722 363.886 383.612 363.978C382.858 364.64 382.436 365.596 382.436 366.588C382.436 368.509 383.998 370.071 385.918 370.071C386.846 370.071 387.719 369.712 388.381 369.051C389.042 368.389 389.401 367.516 389.401 366.588C389.401 365.596 388.969 364.64 388.225 363.978C388.114 363.886 388.078 363.73 388.133 363.602C388.188 363.464 388.317 363.381 388.454 363.381M388.454 362.462C387.931 362.462 387.462 362.793 387.269 363.28C387.085 363.776 387.214 364.328 387.618 364.677C388.17 365.164 388.482 365.862 388.482 366.597C388.482 367.277 388.215 367.92 387.728 368.407C387.241 368.894 386.598 369.161 385.918 369.161C384.503 369.161 383.355 368.012 383.355 366.597C383.355 365.862 383.667 365.164 384.218 364.677C384.613 364.328 384.751 363.776 384.567 363.28C384.384 362.793 383.906 362.462 383.382 362.462H376.104V369.354L376.068 369.391C375.323 368.564 374.285 368.095 373.201 368.095C372.19 368.095 371.234 368.49 370.527 369.207C369.782 369.914 369.387 370.87 369.387 371.881C369.387 372.892 369.782 373.847 370.499 374.555C371.216 375.272 372.162 375.667 373.173 375.667C374.257 375.667 375.296 375.198 376.013 374.38L376.996 374.399H376.077V380.831V381.75H383.428L383.456 381.814C382.638 382.531 382.169 383.569 382.169 384.654C382.169 385.664 382.564 386.62 383.281 387.328C383.998 388.044 384.944 388.439 385.955 388.439C388.041 388.439 389.741 386.739 389.741 384.654C389.741 383.569 389.272 382.531 388.454 381.814L388.473 381.75H394.905H395.824V374.399C395.824 373.627 395.337 372.919 394.611 372.644C394.4 372.561 394.179 372.524 393.949 372.524C393.407 372.524 392.902 372.754 392.543 373.158C392.176 373.581 391.643 373.82 391.082 373.82C390.007 373.82 389.134 372.947 389.134 371.872C389.134 370.797 390.007 369.924 391.082 369.924C391.643 369.924 392.176 370.163 392.543 370.585C392.893 370.99 393.407 371.219 393.949 371.219C394.179 371.219 394.4 371.182 394.611 371.1C395.337 370.824 395.824 370.117 395.824 369.345V363.381V362.462H394.905H388.408H388.454Z" fill="#F4F1F7"/>
<path d="M410.537 372.688C407.969 372.688 406.049 370.876 406.049 368.368C406.049 365.86 407.969 364.048 410.549 364.048C411.917 364.048 413.093 364.54 413.873 365.452L412.865 366.4C412.253 365.74 411.497 365.416 410.621 365.416C408.881 365.416 407.621 366.64 407.621 368.368C407.621 370.096 408.881 371.32 410.621 371.32C411.497 371.32 412.253 370.996 412.865 370.324L413.873 371.284C413.093 372.196 411.917 372.688 410.537 372.688ZM417.869 372.652C415.901 372.652 414.461 371.284 414.461 369.364C414.461 367.444 415.901 366.088 417.869 366.088C419.861 366.088 421.289 367.444 421.289 369.364C421.289 371.284 419.861 372.652 417.869 372.652ZM417.869 371.368C418.961 371.368 419.777 370.588 419.777 369.364C419.777 368.14 418.961 367.36 417.869 367.36C416.789 367.36 415.973 368.14 415.973 369.364C415.973 370.588 416.789 371.368 417.869 371.368ZM426.359 366.088C427.895 366.088 429.035 366.964 429.035 368.896V372.568H427.535V369.088C427.535 367.948 426.971 367.396 426.011 367.396C424.943 367.396 424.223 368.044 424.223 369.328V372.568H422.723V366.16H424.151V366.988C424.643 366.4 425.423 366.088 426.359 366.088ZM432.918 372.652C431.85 372.652 430.782 372.34 430.206 371.932L430.782 370.792C431.346 371.164 432.21 371.428 433.014 371.428C433.962 371.428 434.358 371.164 434.358 370.72C434.358 369.496 430.398 370.648 430.398 368.092C430.398 366.88 431.49 366.088 433.218 366.088C434.07 366.088 435.042 366.292 435.618 366.64L435.042 367.78C434.43 367.42 433.818 367.3 433.206 367.3C432.294 367.3 431.862 367.6 431.862 368.02C431.862 369.316 435.822 368.164 435.822 370.672C435.822 371.872 434.718 372.652 432.918 372.652ZM443.138 369.4C443.138 369.52 443.126 369.7 443.114 369.844H438.086C438.266 370.78 439.046 371.38 440.162 371.38C440.882 371.38 441.446 371.152 441.902 370.684L442.706 371.608C442.13 372.292 441.23 372.652 440.126 372.652C437.978 372.652 436.586 371.272 436.586 369.364C436.586 367.456 437.99 366.088 439.898 366.088C441.77 366.088 443.138 367.396 443.138 369.4ZM439.898 367.288C438.926 367.288 438.218 367.912 438.074 368.848H441.71C441.59 367.924 440.882 367.288 439.898 367.288ZM448.215 366.088C449.751 366.088 450.891 366.964 450.891 368.896V372.568H449.391V369.088C449.391 367.948 448.827 367.396 447.867 367.396C446.799 367.396 446.079 368.044 446.079 369.328V372.568H444.579V366.16H446.007V366.988C446.499 366.4 447.279 366.088 448.215 366.088ZM454.774 372.652C453.706 372.652 452.638 372.34 452.062 371.932L452.638 370.792C453.202 371.164 454.066 371.428 454.87 371.428C455.818 371.428 456.214 371.164 456.214 370.72C456.214 369.496 452.254 370.648 452.254 368.092C452.254 366.88 453.346 366.088 455.074 366.088C455.926 366.088 456.898 366.292 457.474 366.64L456.898 367.78C456.286 367.42 455.674 367.3 455.062 367.3C454.15 367.3 453.718 367.6 453.718 368.02C453.718 369.316 457.678 368.164 457.678 370.672C457.678 371.872 456.574 372.652 454.774 372.652ZM463.673 366.16H465.173V372.568H463.745V371.752C463.265 372.34 462.509 372.652 461.681 372.652C460.037 372.652 458.921 371.752 458.921 369.82V366.16H460.421V369.616C460.421 370.78 460.973 371.332 461.921 371.332C462.965 371.332 463.673 370.684 463.673 369.4V366.16ZM469.117 372.652C468.049 372.652 466.981 372.34 466.405 371.932L466.981 370.792C467.545 371.164 468.409 371.428 469.213 371.428C470.161 371.428 470.557 371.164 470.557 370.72C470.557 369.496 466.597 370.648 466.597 368.092C466.597 366.88 467.689 366.088 469.417 366.088C470.269 366.088 471.241 366.292 471.817 366.64L471.241 367.78C470.629 367.42 470.017 367.3 469.405 367.3C468.493 367.3 468.061 367.6 468.061 368.02C468.061 369.316 472.021 368.164 472.021 370.672C472.021 371.872 470.917 372.652 469.117 372.652ZM410.105 379.168C412.313 379.168 413.681 380.296 413.681 382.156C413.681 384.004 412.313 385.144 410.105 385.144H408.209V387.568H406.649V379.168H410.105ZM410.033 383.824C411.401 383.824 412.109 383.212 412.109 382.156C412.109 381.1 411.401 380.488 410.033 380.488H408.209V383.824H410.033ZM418.848 381.088C420.384 381.088 421.524 381.964 421.524 383.896V387.568H420.024V384.088C420.024 382.948 419.46 382.396 418.5 382.396C417.432 382.396 416.712 383.044 416.712 384.328V387.568H415.212V378.664H416.712V381.904C417.204 381.376 417.96 381.088 418.848 381.088ZM425.874 381.088C427.722 381.088 428.79 381.964 428.79 383.812V387.568H427.374V386.788C427.014 387.34 426.318 387.652 425.358 387.652C423.894 387.652 422.97 386.848 422.97 385.732C422.97 384.664 423.69 383.824 425.634 383.824H427.29V383.728C427.29 382.852 426.762 382.336 425.694 382.336C424.974 382.336 424.23 382.576 423.75 382.972L423.162 381.88C423.846 381.352 424.842 381.088 425.874 381.088ZM425.67 386.56C426.402 386.56 427.038 386.224 427.29 385.564V384.82H425.742C424.722 384.82 424.446 385.204 424.446 385.672C424.446 386.212 424.902 386.56 425.67 386.56ZM432.696 387.652C431.628 387.652 430.56 387.34 429.984 386.932L430.56 385.792C431.124 386.164 431.988 386.428 432.792 386.428C433.74 386.428 434.136 386.164 434.136 385.72C434.136 384.496 430.176 385.648 430.176 383.092C430.176 381.88 431.268 381.088 432.996 381.088C433.848 381.088 434.82 381.292 435.396 381.64L434.82 382.78C434.208 382.42 433.596 382.3 432.984 382.3C432.072 382.3 431.64 382.6 431.64 383.02C431.64 384.316 435.6 383.164 435.6 385.672C435.6 386.872 434.496 387.652 432.696 387.652ZM442.915 384.4C442.915 384.52 442.903 384.7 442.891 384.844H437.863C438.043 385.78 438.823 386.38 439.939 386.38C440.659 386.38 441.223 386.152 441.679 385.684L442.483 386.608C441.907 387.292 441.007 387.652 439.903 387.652C437.755 387.652 436.363 386.272 436.363 384.364C436.363 382.456 437.767 381.088 439.675 381.088C441.547 381.088 442.915 382.396 442.915 384.4ZM439.675 382.288C438.703 382.288 437.995 382.912 437.851 383.848H441.487C441.367 382.924 440.659 382.288 439.675 382.288Z" fill="#F4F1F7"/>
</svg>
