<svg width="641" height="469" viewBox="0 0 641 469" fill="none" xmlns="http://www.w3.org/2000/svg">
<path d="M179.525 24.25C174.1 24.25 170.1 20.425 170.1 15.25C170.1 10.075 174.1 6.25 179.525 6.25C184.95 6.25 188.95 10.05 188.95 15.25C188.95 20.45 184.95 24.25 179.525 24.25ZM179.525 21.4C183.05 21.4 185.675 18.825 185.675 15.25C185.675 11.675 183.05 9.1 179.525 9.1C176 9.1 173.375 11.675 173.375 15.25C173.375 18.825 176 21.4 179.525 21.4ZM199.495 10.5C203.395 10.5 206.27 13.2 206.27 17.325C206.27 21.475 203.395 24.175 199.495 24.175C197.795 24.175 196.295 23.6 195.22 22.375V28.85H192.095V10.65H195.07V12.4C196.12 11.125 197.67 10.5 199.495 10.5ZM199.145 21.5C201.395 21.5 203.095 19.875 203.095 17.325C203.095 14.775 201.395 13.15 199.145 13.15C196.895 13.15 195.17 14.775 195.17 17.325C195.17 19.875 196.895 21.5 199.145 21.5ZM221.784 17.4C221.784 17.65 221.759 18.025 221.734 18.325H211.259C211.634 20.275 213.259 21.525 215.584 21.525C217.084 21.525 218.259 21.05 219.209 20.075L220.884 22C219.684 23.425 217.809 24.175 215.509 24.175C211.034 24.175 208.134 21.3 208.134 17.325C208.134 13.35 211.059 10.5 215.034 10.5C218.934 10.5 221.784 13.225 221.784 17.4ZM215.034 13C213.009 13 211.534 14.3 211.234 16.25H218.809C218.559 14.325 217.084 13 215.034 13ZM227.76 12.6C228.66 11.2 230.285 10.5 232.51 10.5V13.475C232.235 13.425 232.01 13.4 231.785 13.4C229.41 13.4 227.91 14.8 227.91 17.525V24H224.785V10.65H227.76V12.6ZM240.188 10.5C244.038 10.5 246.263 12.325 246.263 16.175V24H243.313V22.375C242.563 23.525 241.113 24.175 239.113 24.175C236.063 24.175 234.138 22.5 234.138 20.175C234.138 17.95 235.638 16.2 239.688 16.2H243.138V16C243.138 14.175 242.038 13.1 239.813 13.1C238.313 13.1 236.763 13.6 235.763 14.425L234.538 12.15C235.963 11.05 238.038 10.5 240.188 10.5ZM239.763 21.9C241.288 21.9 242.613 21.2 243.138 19.825V18.275H239.913C237.788 18.275 237.213 19.075 237.213 20.05C237.213 21.175 238.163 21.9 239.763 21.9ZM257.424 21.05L258.299 23.275C257.549 23.875 256.424 24.175 255.299 24.175C252.374 24.175 250.699 22.625 250.699 19.675V13.25H248.499V10.75H250.699V7.7H253.824V10.75H257.399V13.25H253.824V19.6C253.824 20.9 254.474 21.6 255.674 21.6C256.324 21.6 256.949 21.425 257.424 21.05ZM266.43 24.175C262.33 24.175 259.33 21.325 259.33 17.325C259.33 13.325 262.33 10.5 266.43 10.5C270.58 10.5 273.555 13.325 273.555 17.325C273.555 21.325 270.58 24.175 266.43 24.175ZM266.43 21.5C268.705 21.5 270.405 19.875 270.405 17.325C270.405 14.775 268.705 13.15 266.43 13.15C264.18 13.15 262.48 14.775 262.48 17.325C262.48 19.875 264.18 21.5 266.43 21.5ZM279.518 12.6C280.418 11.2 282.043 10.5 284.268 10.5V13.475C283.993 13.425 283.768 13.4 283.543 13.4C281.168 13.4 279.668 14.8 279.668 17.525V24H276.543V10.65H279.518V12.6ZM288.945 5.275C290.12 5.275 290.97 6.125 290.97 7.325C290.97 7.9 290.87 8.325 290.42 9.475L289.12 13.025H287.095L288.095 9.175C287.395 8.9 286.92 8.25 286.92 7.325C286.92 6.1 287.795 5.275 288.945 5.275ZM297.734 24.175C295.509 24.175 293.284 23.525 292.084 22.675L293.284 20.3C294.459 21.075 296.259 21.625 297.934 21.625C299.909 21.625 300.734 21.075 300.734 20.15C300.734 17.6 292.484 20 292.484 14.675C292.484 12.15 294.759 10.5 298.359 10.5C300.134 10.5 302.159 10.925 303.359 11.65L302.159 14.025C300.884 13.275 299.609 13.025 298.334 13.025C296.434 13.025 295.534 13.65 295.534 14.525C295.534 17.225 303.784 14.825 303.784 20.05C303.784 22.55 301.484 24.175 297.734 24.175ZM320.534 21.05L321.409 23.275C320.659 23.875 319.534 24.175 318.409 24.175C315.484 24.175 313.809 22.625 313.809 19.675V13.25H311.609V10.75H313.809V7.7H316.934V10.75H320.509V13.25H316.934V19.6C316.934 20.9 317.584 21.6 318.784 21.6C319.434 21.6 320.059 21.425 320.534 21.05ZM329.54 24.175C325.44 24.175 322.44 21.325 322.44 17.325C322.44 13.325 325.44 10.5 329.54 10.5C333.69 10.5 336.665 13.325 336.665 17.325C336.665 21.325 333.69 24.175 329.54 24.175ZM329.54 21.5C331.815 21.5 333.515 19.875 333.515 17.325C333.515 14.775 331.815 13.15 329.54 13.15C327.29 13.15 325.59 14.775 325.59 17.325C325.59 19.875 327.29 21.5 329.54 21.5ZM346.804 21.05L347.679 23.275C346.929 23.875 345.804 24.175 344.679 24.175C341.754 24.175 340.079 22.625 340.079 19.675V13.25H337.879V10.75H340.079V7.7H343.204V10.75H346.779V13.25H343.204V19.6C343.204 20.9 343.854 21.6 345.054 21.6C345.704 21.6 346.329 21.425 346.804 21.05ZM355.349 10.5C359.199 10.5 361.424 12.325 361.424 16.175V24H358.474V22.375C357.724 23.525 356.274 24.175 354.274 24.175C351.224 24.175 349.299 22.5 349.299 20.175C349.299 17.95 350.799 16.2 354.849 16.2H358.299V16C358.299 14.175 357.199 13.1 354.974 13.1C353.474 13.1 351.924 13.6 350.924 14.425L349.699 12.15C351.124 11.05 353.199 10.5 355.349 10.5ZM354.924 21.9C356.449 21.9 357.774 21.2 358.299 19.825V18.275H355.074C352.949 18.275 352.374 19.075 352.374 20.05C352.374 21.175 353.324 21.9 354.924 21.9ZM365.435 24V5.45H368.56V24H365.435ZM383.696 24.175C381.471 24.175 379.246 23.525 378.046 22.675L379.246 20.3C380.421 21.075 382.221 21.625 383.896 21.625C385.871 21.625 386.696 21.075 386.696 20.15C386.696 17.6 378.446 20 378.446 14.675C378.446 12.15 380.721 10.5 384.321 10.5C386.096 10.5 388.121 10.925 389.321 11.65L388.121 14.025C386.846 13.275 385.571 13.025 384.296 13.025C382.396 13.025 381.496 13.65 381.496 14.525C381.496 17.225 389.746 14.825 389.746 20.05C389.746 22.55 387.446 24.175 383.696 24.175ZM399.587 21.05L400.462 23.275C399.712 23.875 398.587 24.175 397.462 24.175C394.537 24.175 392.862 22.625 392.862 19.675V13.25H390.662V10.75H392.862V7.7H395.987V10.75H399.562V13.25H395.987V19.6C395.987 20.9 396.637 21.6 397.837 21.6C398.487 21.6 399.112 21.425 399.587 21.05ZM408.132 10.5C411.982 10.5 414.207 12.325 414.207 16.175V24H411.257V22.375C410.507 23.525 409.057 24.175 407.057 24.175C404.007 24.175 402.082 22.5 402.082 20.175C402.082 17.95 403.582 16.2 407.632 16.2H411.082V16C411.082 14.175 409.982 13.1 407.757 13.1C406.257 13.1 404.707 13.6 403.707 14.425L402.482 12.15C403.907 11.05 405.982 10.5 408.132 10.5ZM407.707 21.9C409.232 21.9 410.557 21.2 411.082 19.825V18.275H407.857C405.732 18.275 405.157 19.075 405.157 20.05C405.157 21.175 406.107 21.9 407.707 21.9ZM428.293 24L423.668 18.275L421.343 20.475V24H418.218V5.45H421.343V16.65L427.818 10.65H431.568L425.993 16.25L432.093 24H428.293ZM446.1 17.4C446.1 17.65 446.075 18.025 446.05 18.325H435.575C435.95 20.275 437.575 21.525 439.9 21.525C441.4 21.525 442.575 21.05 443.525 20.075L445.2 22C444 23.425 442.125 24.175 439.825 24.175C435.35 24.175 432.45 21.3 432.45 17.325C432.45 13.35 435.375 10.5 439.35 10.5C443.25 10.5 446.1 13.225 446.1 17.4ZM439.35 13C437.325 13 435.85 14.3 435.55 16.25H443.125C442.875 14.325 441.4 13 439.35 13Z" fill="white"/>
<mask id="path-2-inside-1_202_365" fill="white">
<path fill-rule="evenodd" clip-rule="evenodd" d="M328.343 451.672C486.437 451.672 614.598 378.358 614.598 287.921C614.598 285.868 614.532 283.823 614.401 281.788V229.756H596.013C555.004 168.034 450.628 124.171 328.343 124.171C206.059 124.171 101.683 168.034 60.6733 229.756H42.5684V278.364C42.2502 281.526 42.0889 284.713 42.0889 287.921C42.0889 378.358 170.249 451.672 328.343 451.672Z"/>
</mask>
<path fill-rule="evenodd" clip-rule="evenodd" d="M328.343 451.672C486.437 451.672 614.598 378.358 614.598 287.921C614.598 285.868 614.532 283.823 614.401 281.788V229.756H596.013C555.004 168.034 450.628 124.171 328.343 124.171C206.059 124.171 101.683 168.034 60.6733 229.756H42.5684V278.364C42.2502 281.526 42.0889 284.713 42.0889 287.921C42.0889 378.358 170.249 451.672 328.343 451.672Z" fill="#413846"/>
<path d="M614.401 281.788H613.401V281.82L613.403 281.852L614.401 281.788ZM614.401 229.756H615.401V228.756H614.401V229.756ZM596.013 229.756L595.181 230.31L595.477 230.756H596.013V229.756ZM60.6733 229.756V230.756H61.2095L61.5062 230.31L60.6733 229.756ZM42.5684 229.756V228.756H41.5684V229.756H42.5684ZM42.5684 278.364L43.5633 278.464L43.5684 278.414V278.364H42.5684ZM613.598 287.921C613.598 332.627 581.912 373.295 530.259 402.843C478.634 432.375 407.248 450.672 328.343 450.672V452.672C407.532 452.672 479.274 434.313 531.252 404.579C583.203 374.86 615.598 333.653 615.598 287.921H613.598ZM613.403 281.852C613.532 283.866 613.598 285.889 613.598 287.921H615.598C615.598 285.846 615.531 283.78 615.399 281.724L613.403 281.852ZM613.401 229.756V281.788H615.401V229.756H613.401ZM596.013 230.756H614.401V228.756H596.013V230.756ZM328.343 125.171C389.371 125.171 445.908 136.116 492.284 154.745C538.673 173.38 574.824 199.671 595.181 230.31L596.846 229.203C576.193 198.119 539.651 171.617 493.029 152.889C446.394 134.156 389.601 123.171 328.343 123.171V125.171ZM61.5062 230.31C81.863 199.671 118.014 173.38 164.403 154.745C210.779 136.116 267.316 125.171 328.343 125.171V123.171C267.086 123.171 210.293 134.156 163.657 152.889C117.035 171.617 80.4933 198.119 59.8404 229.203L61.5062 230.31ZM42.5684 230.756H60.6733V228.756H42.5684V230.756ZM43.5684 278.364V229.756H41.5684V278.364H43.5684ZM43.0889 287.921C43.0889 284.747 43.2485 281.593 43.5633 278.464L41.5734 278.264C41.2518 281.459 41.0889 284.68 41.0889 287.921H43.0889ZM328.343 450.672C249.438 450.672 178.052 432.375 126.427 402.843C74.7744 373.295 43.0889 332.627 43.0889 287.921H41.0889C41.0889 333.653 73.4836 374.86 125.434 404.579C177.413 434.313 249.154 452.672 328.343 452.672V450.672Z" fill="white" mask="url(#path-2-inside-1_202_365)"/>
<path d="M614.243 235.829C614.243 283.646 582.354 327.019 530.62 358.464C478.896 389.904 407.407 409.366 328.416 409.366C249.425 409.366 177.936 389.904 126.212 358.464C74.4783 327.019 42.5889 283.646 42.5889 235.829C42.5889 188.011 74.4783 144.638 126.212 113.193C177.936 81.7534 249.425 62.2914 328.416 62.2914C407.407 62.2914 478.896 81.7534 530.62 113.193C582.354 144.638 614.243 188.011 614.243 235.829Z" fill="#413846" stroke="white"/>
<path d="M332.754 127.428C329.529 127.428 327.159 125.133 327.159 122.058C327.159 118.983 329.529 116.688 332.754 116.688C335.949 116.688 338.319 118.968 338.319 122.058C338.319 125.148 335.949 127.428 332.754 127.428ZM332.754 126.093C335.079 126.093 336.819 124.383 336.819 122.058C336.819 119.733 335.079 118.023 332.754 118.023C330.399 118.023 328.659 119.733 328.659 122.058C328.659 124.383 330.399 126.093 332.754 126.093ZM344.617 119.283C346.942 119.283 348.637 120.903 348.637 123.333C348.637 125.778 346.942 127.398 344.617 127.398C343.492 127.398 342.502 126.963 341.842 126.108V130.218H340.402V119.358H341.782V120.618C342.427 119.733 343.447 119.283 344.617 119.283ZM344.497 126.138C346.027 126.138 347.182 125.028 347.182 123.333C347.182 121.653 346.027 120.543 344.497 120.543C342.982 120.543 341.827 121.653 341.827 123.333C341.827 125.028 342.982 126.138 344.497 126.138ZM357.812 123.378C357.812 123.498 357.797 123.678 357.782 123.813H351.332C351.512 125.208 352.637 126.138 354.212 126.138C355.142 126.138 355.922 125.823 356.507 125.178L357.302 126.108C356.582 126.948 355.487 127.398 354.167 127.398C351.602 127.398 349.892 125.703 349.892 123.333C349.892 120.978 351.587 119.283 353.882 119.283C356.177 119.283 357.812 120.933 357.812 123.378ZM353.882 120.498C352.502 120.498 351.482 121.428 351.332 122.778H356.432C356.282 121.443 355.277 120.498 353.882 120.498ZM361.191 120.693C361.701 119.763 362.691 119.283 364.086 119.283V120.678C363.966 120.663 363.861 120.663 363.756 120.663C362.211 120.663 361.251 121.608 361.251 123.348V127.308H359.811V119.358H361.191V120.693ZM368.741 119.283C370.916 119.283 372.146 120.333 372.146 122.508V127.308H370.781V126.258C370.301 126.978 369.416 127.398 368.171 127.398C366.371 127.398 365.231 126.438 365.231 125.058C365.231 123.783 366.056 122.733 368.426 122.733H370.706V122.448C370.706 121.233 370.001 120.528 368.576 120.528C367.631 120.528 366.671 120.858 366.056 121.383L365.456 120.303C366.281 119.643 367.466 119.283 368.741 119.283ZM368.411 126.288C369.491 126.288 370.346 125.793 370.706 124.878V123.768H368.486C367.061 123.768 366.656 124.323 366.656 124.998C366.656 125.793 367.316 126.288 368.411 126.288ZM378.831 125.808L379.281 126.843C378.846 127.218 378.186 127.398 377.541 127.398C375.936 127.398 375.021 126.513 375.021 124.908V120.543H373.671V119.358H375.021V117.618H376.461V119.358H378.741V120.543H376.461V124.848C376.461 125.703 376.911 126.183 377.706 126.183C378.126 126.183 378.531 126.048 378.831 125.808ZM384.164 127.398C381.779 127.398 380.024 125.703 380.024 123.333C380.024 120.963 381.779 119.283 384.164 119.283C386.549 119.283 388.289 120.963 388.289 123.333C388.289 125.703 386.549 127.398 384.164 127.398ZM384.164 126.138C385.694 126.138 386.834 125.028 386.834 123.333C386.834 121.638 385.694 120.543 384.164 120.543C382.634 120.543 381.479 121.638 381.479 123.333C381.479 125.028 382.634 126.138 384.164 126.138ZM391.66 120.693C392.17 119.763 393.16 119.283 394.555 119.283V120.678C394.435 120.663 394.33 120.663 394.225 120.663C392.68 120.663 391.72 121.608 391.72 123.348V127.308H390.28V119.358H391.66V120.693ZM397.29 116.088C397.86 116.088 398.265 116.523 398.265 117.108C398.265 117.393 398.22 117.618 398.025 118.173L397.305 120.273H396.36L396.915 118.038C396.54 117.903 396.285 117.558 396.285 117.108C396.285 116.508 396.72 116.088 397.29 116.088ZM402.36 127.398C401.04 127.398 399.735 126.993 399.075 126.468L399.675 125.328C400.35 125.808 401.43 126.153 402.465 126.153C403.8 126.153 404.355 125.748 404.355 125.073C404.355 123.288 399.33 124.833 399.33 121.668C399.33 120.243 400.605 119.283 402.645 119.283C403.68 119.283 404.85 119.553 405.54 120.003L404.925 121.143C404.205 120.678 403.41 120.513 402.63 120.513C401.37 120.513 400.755 120.978 400.755 121.608C400.755 123.483 405.795 121.953 405.795 125.043C405.795 126.483 404.475 127.398 402.36 127.398ZM330.084 145.398C328.764 145.398 327.459 144.993 326.799 144.468L327.399 143.328C328.074 143.808 329.154 144.153 330.189 144.153C331.524 144.153 332.079 143.748 332.079 143.073C332.079 141.288 327.054 142.833 327.054 139.668C327.054 138.243 328.329 137.283 330.369 137.283C331.404 137.283 332.574 137.553 333.264 138.003L332.649 139.143C331.929 138.678 331.134 138.513 330.354 138.513C329.094 138.513 328.479 138.978 328.479 139.608C328.479 141.483 333.519 139.953 333.519 143.043C333.519 144.483 332.199 145.398 330.084 145.398ZM339.339 143.808L339.789 144.843C339.354 145.218 338.694 145.398 338.049 145.398C336.444 145.398 335.529 144.513 335.529 142.908V138.543H334.179V137.358H335.529V135.618H336.969V137.358H339.249V138.543H336.969V142.848C336.969 143.703 337.419 144.183 338.214 144.183C338.634 144.183 339.039 144.048 339.339 143.808ZM344.425 137.283C346.6 137.283 347.83 138.333 347.83 140.508V145.308H346.465V144.258C345.985 144.978 345.1 145.398 343.855 145.398C342.055 145.398 340.915 144.438 340.915 143.058C340.915 141.783 341.74 140.733 344.11 140.733H346.39V140.448C346.39 139.233 345.685 138.528 344.26 138.528C343.315 138.528 342.355 138.858 341.74 139.383L341.14 138.303C341.965 137.643 343.15 137.283 344.425 137.283ZM344.095 144.288C345.175 144.288 346.03 143.793 346.39 142.878V141.768H344.17C342.745 141.768 342.34 142.323 342.34 142.998C342.34 143.793 343 144.288 344.095 144.288ZM356.57 145.308L353.585 141.603L351.935 143.133V145.308H350.495V134.178H351.935V141.318L356.27 137.358H358.01L354.665 140.643L358.34 145.308H356.57ZM366.586 141.378C366.586 141.498 366.571 141.678 366.556 141.813H360.106C360.286 143.208 361.411 144.138 362.986 144.138C363.916 144.138 364.696 143.823 365.281 143.178L366.076 144.108C365.356 144.948 364.261 145.398 362.941 145.398C360.376 145.398 358.666 143.703 358.666 141.333C358.666 138.978 360.361 137.283 362.656 137.283C364.951 137.283 366.586 138.933 366.586 141.378ZM362.656 138.498C361.276 138.498 360.256 139.428 360.106 140.778H365.206C365.056 139.443 364.051 138.498 362.656 138.498Z" fill="white"/>
<path d="M320.739 320.364H314.829V324.024H320.094V325.314H314.829V329.559H313.329V319.059H320.739V320.364ZM325.257 321.534C327.432 321.534 328.662 322.584 328.662 324.759V329.559H327.297V328.509C326.817 329.229 325.932 329.649 324.687 329.649C322.887 329.649 321.747 328.689 321.747 327.309C321.747 326.034 322.572 324.984 324.942 324.984H327.222V324.699C327.222 323.484 326.517 322.779 325.092 322.779C324.147 322.779 323.187 323.109 322.572 323.634L321.972 322.554C322.797 321.894 323.982 321.534 325.257 321.534ZM324.927 328.539C326.007 328.539 326.862 328.044 327.222 327.129V326.019H325.002C323.577 326.019 323.172 326.574 323.172 327.249C323.172 328.044 323.832 328.539 324.927 328.539ZM332.707 322.944C333.217 322.014 334.207 321.534 335.602 321.534V322.929C335.482 322.914 335.377 322.914 335.272 322.914C333.727 322.914 332.767 323.859 332.767 325.599V329.559H331.327V321.609H332.707V322.944ZM347.322 321.534C349.257 321.534 350.577 322.644 350.577 324.984V329.559H349.137V325.149C349.137 323.589 348.387 322.824 347.082 322.824C345.642 322.824 344.697 323.739 344.697 325.464V329.559H343.257V325.149C343.257 323.589 342.507 322.824 341.202 322.824C339.762 322.824 338.817 323.739 338.817 325.464V329.559H337.377V321.609H338.757V322.794C339.327 321.984 340.302 321.534 341.502 321.534C342.717 321.534 343.737 322.014 344.262 323.004C344.862 322.104 345.972 321.534 347.322 321.534ZM360.455 325.629C360.455 325.749 360.44 325.929 360.425 326.064H353.975C354.155 327.459 355.28 328.389 356.855 328.389C357.785 328.389 358.565 328.074 359.15 327.429L359.945 328.359C359.225 329.199 358.13 329.649 356.81 329.649C354.245 329.649 352.535 327.954 352.535 325.584C352.535 323.229 354.23 321.534 356.525 321.534C358.82 321.534 360.455 323.184 360.455 325.629ZM356.525 322.749C355.145 322.749 354.125 323.679 353.975 325.029H359.075C358.925 323.694 357.92 322.749 356.525 322.749ZM363.835 322.944C364.345 322.014 365.335 321.534 366.73 321.534V322.929C366.61 322.914 366.505 322.914 366.4 322.914C364.855 322.914 363.895 323.859 363.895 325.599V329.559H362.455V321.609H363.835V322.944ZM370.843 329.649C369.523 329.649 368.218 329.244 367.558 328.719L368.158 327.579C368.833 328.059 369.913 328.404 370.948 328.404C372.283 328.404 372.838 327.999 372.838 327.324C372.838 325.539 367.813 327.084 367.813 323.919C367.813 322.494 369.088 321.534 371.128 321.534C372.163 321.534 373.333 321.804 374.023 322.254L373.408 323.394C372.688 322.929 371.893 322.764 371.113 322.764C369.853 322.764 369.238 323.229 369.238 323.859C369.238 325.734 374.278 324.204 374.278 327.294C374.278 328.734 372.958 329.649 370.843 329.649ZM317.364 339.534C319.299 339.534 320.664 340.644 320.664 342.984V347.559H319.224V343.149C319.224 341.589 318.444 340.824 317.079 340.824C315.549 340.824 314.559 341.739 314.559 343.464V347.559H313.119V339.609H314.499V340.809C315.084 339.999 316.104 339.534 317.364 339.534ZM326.778 347.649C324.393 347.649 322.638 345.954 322.638 343.584C322.638 341.214 324.393 339.534 326.778 339.534C329.163 339.534 330.903 341.214 330.903 343.584C330.903 345.954 329.163 347.649 326.778 347.649ZM326.778 346.389C328.308 346.389 329.448 345.279 329.448 343.584C329.448 341.889 328.308 340.794 326.778 340.794C325.248 340.794 324.093 341.889 324.093 343.584C324.093 345.279 325.248 346.389 326.778 346.389ZM342.839 339.534C344.774 339.534 346.094 340.644 346.094 342.984V347.559H344.654V343.149C344.654 341.589 343.904 340.824 342.599 340.824C341.159 340.824 340.214 341.739 340.214 343.464V347.559H338.774V343.149C338.774 341.589 338.024 340.824 336.719 340.824C335.279 340.824 334.334 341.739 334.334 343.464V347.559H332.894V339.609H334.274V340.794C334.844 339.984 335.819 339.534 337.019 339.534C338.234 339.534 339.254 340.014 339.779 341.004C340.379 340.104 341.489 339.534 342.839 339.534ZM349.464 338.079C348.909 338.079 348.489 337.674 348.489 337.149C348.489 336.624 348.909 336.204 349.464 336.204C350.019 336.204 350.439 336.609 350.439 337.119C350.439 337.659 350.034 338.079 349.464 338.079ZM348.744 347.559V339.609H350.184V347.559H348.744ZM357.178 339.534C359.113 339.534 360.478 340.644 360.478 342.984V347.559H359.038V343.149C359.038 341.589 358.258 340.824 356.893 340.824C355.363 340.824 354.373 341.739 354.373 343.464V347.559H352.933V339.609H354.313V340.809C354.898 339.999 355.918 339.534 357.178 339.534ZM366.038 339.534C368.213 339.534 369.443 340.584 369.443 342.759V347.559H368.078V346.509C367.598 347.229 366.713 347.649 365.468 347.649C363.668 347.649 362.528 346.689 362.528 345.309C362.528 344.034 363.353 342.984 365.723 342.984H368.003V342.699C368.003 341.484 367.298 340.779 365.873 340.779C364.928 340.779 363.968 341.109 363.353 341.634L362.753 340.554C363.578 339.894 364.763 339.534 366.038 339.534ZM365.708 346.539C366.788 346.539 367.643 346.044 368.003 345.129V344.019H365.783C364.358 344.019 363.953 344.574 363.953 345.249C363.953 346.044 364.613 346.539 365.708 346.539ZM376.128 346.059L376.578 347.094C376.143 347.469 375.483 347.649 374.838 347.649C373.233 347.649 372.318 346.764 372.318 345.159V340.794H370.968V339.609H372.318V337.869H373.758V339.609H376.038V340.794H373.758V345.099C373.758 345.954 374.208 346.434 375.003 346.434C375.423 346.434 375.828 346.299 376.128 346.059ZM385.24 343.629C385.24 343.749 385.225 343.929 385.21 344.064H378.76C378.94 345.459 380.065 346.389 381.64 346.389C382.57 346.389 383.35 346.074 383.935 345.429L384.73 346.359C384.01 347.199 382.915 347.649 381.595 347.649C379.03 347.649 377.32 345.954 377.32 343.584C377.32 341.229 379.015 339.534 381.31 339.534C383.605 339.534 385.24 341.184 385.24 343.629ZM381.31 340.749C379.93 340.749 378.91 341.679 378.76 343.029H383.86C383.71 341.694 382.705 340.749 381.31 340.749ZM393.3 336.429H394.74V347.559H393.36V346.299C392.715 347.199 391.695 347.649 390.525 347.649C388.2 347.649 386.505 346.014 386.505 343.584C386.505 341.154 388.2 339.534 390.525 339.534C391.65 339.534 392.64 339.954 393.3 340.809V336.429ZM390.645 346.389C392.16 346.389 393.315 345.279 393.315 343.584C393.315 341.889 392.16 340.794 390.645 340.794C389.115 340.794 387.96 341.889 387.96 343.584C387.96 345.279 389.115 346.389 390.645 346.389ZM403.773 347.649C402.453 347.649 401.148 347.244 400.488 346.719L401.088 345.579C401.763 346.059 402.843 346.404 403.878 346.404C405.213 346.404 405.768 345.999 405.768 345.324C405.768 343.539 400.743 345.084 400.743 341.919C400.743 340.494 402.018 339.534 404.058 339.534C405.093 339.534 406.263 339.804 406.953 340.254L406.338 341.394C405.618 340.929 404.823 340.764 404.043 340.764C402.783 340.764 402.168 341.229 402.168 341.859C402.168 343.734 407.208 342.204 407.208 345.294C407.208 346.734 405.888 347.649 403.773 347.649ZM413.028 346.059L413.478 347.094C413.043 347.469 412.383 347.649 411.738 347.649C410.133 347.649 409.218 346.764 409.218 345.159V340.794H407.868V339.609H409.218V337.869H410.658V339.609H412.938V340.794H410.658V345.099C410.658 345.954 411.108 346.434 411.903 346.434C412.323 346.434 412.728 346.299 413.028 346.059ZM418.114 339.534C420.289 339.534 421.519 340.584 421.519 342.759V347.559H420.154V346.509C419.674 347.229 418.789 347.649 417.544 347.649C415.744 347.649 414.604 346.689 414.604 345.309C414.604 344.034 415.429 342.984 417.799 342.984H420.079V342.699C420.079 341.484 419.374 340.779 417.949 340.779C417.004 340.779 416.044 341.109 415.429 341.634L414.829 340.554C415.654 339.894 416.839 339.534 418.114 339.534ZM417.784 346.539C418.864 346.539 419.719 346.044 420.079 345.129V344.019H417.859C416.434 344.019 416.029 344.574 416.029 345.249C416.029 346.044 416.689 346.539 417.784 346.539ZM430.258 347.559L427.273 343.854L425.623 345.384V347.559H424.183V336.429H425.623V343.569L429.958 339.609H431.698L428.353 342.894L432.028 347.559H430.258ZM440.275 343.629C440.275 343.749 440.26 343.929 440.245 344.064H433.795C433.975 345.459 435.1 346.389 436.675 346.389C437.605 346.389 438.385 346.074 438.97 345.429L439.765 346.359C439.045 347.199 437.95 347.649 436.63 347.649C434.065 347.649 432.355 345.954 432.355 343.584C432.355 341.229 434.05 339.534 436.345 339.534C438.64 339.534 440.275 341.184 440.275 343.629ZM436.345 340.749C434.965 340.749 433.945 341.679 433.795 343.029H438.895C438.745 341.694 437.74 340.749 436.345 340.749ZM444.554 347.649C443.234 347.649 441.929 347.244 441.269 346.719L441.869 345.579C442.544 346.059 443.624 346.404 444.659 346.404C445.994 346.404 446.549 345.999 446.549 345.324C446.549 343.539 441.524 345.084 441.524 341.919C441.524 340.494 442.799 339.534 444.839 339.534C445.874 339.534 447.044 339.804 447.734 340.254L447.119 341.394C446.399 340.929 445.604 340.764 444.824 340.764C443.564 340.764 442.949 341.229 442.949 341.859C442.949 343.734 447.989 342.204 447.989 345.294C447.989 346.734 446.669 347.649 444.554 347.649Z" fill="white"/>
<path d="M153.96 295.832V286.637H150.36V285.332H159.045V286.637H155.445V295.832H153.96ZM163.053 295.922C160.668 295.922 158.913 294.227 158.913 291.857C158.913 289.487 160.668 287.807 163.053 287.807C165.438 287.807 167.178 289.487 167.178 291.857C167.178 294.227 165.438 295.922 163.053 295.922ZM163.053 294.662C164.583 294.662 165.723 293.552 165.723 291.857C165.723 290.162 164.583 289.067 163.053 289.067C161.523 289.067 160.368 290.162 160.368 291.857C160.368 293.552 161.523 294.662 163.053 294.662ZM175.245 295.832L172.26 292.127L170.61 293.657V295.832H169.17V284.702H170.61V291.842L174.945 287.882H176.685L173.34 291.167L177.015 295.832H175.245ZM185.261 291.902C185.261 292.022 185.246 292.202 185.231 292.337H178.781C178.961 293.732 180.086 294.662 181.661 294.662C182.591 294.662 183.371 294.347 183.956 293.702L184.751 294.632C184.031 295.472 182.936 295.922 181.616 295.922C179.051 295.922 177.341 294.227 177.341 291.857C177.341 289.502 179.036 287.807 181.331 287.807C183.626 287.807 185.261 289.457 185.261 291.902ZM181.331 289.022C179.951 289.022 178.931 289.952 178.781 291.302H183.881C183.731 289.967 182.726 289.022 181.331 289.022ZM191.506 287.807C193.441 287.807 194.806 288.917 194.806 291.257V295.832H193.366V291.422C193.366 289.862 192.586 289.097 191.221 289.097C189.691 289.097 188.701 290.012 188.701 291.737V295.832H187.261V287.882H188.641V289.082C189.226 288.272 190.246 287.807 191.506 287.807ZM205.744 287.807C207.679 287.807 209.044 288.917 209.044 291.257V295.832H207.604V291.422C207.604 289.862 206.824 289.097 205.459 289.097C203.929 289.097 202.939 290.012 202.939 291.737V295.832H201.499V284.702H202.939V289.007C203.539 288.242 204.529 287.807 205.744 287.807ZM215.158 295.922C212.773 295.922 211.018 294.227 211.018 291.857C211.018 289.487 212.773 287.807 215.158 287.807C217.543 287.807 219.283 289.487 219.283 291.857C219.283 294.227 217.543 295.922 215.158 295.922ZM215.158 294.662C216.688 294.662 217.828 293.552 217.828 291.857C217.828 290.162 216.688 289.067 215.158 289.067C213.628 289.067 212.473 290.162 212.473 291.857C212.473 293.552 213.628 294.662 215.158 294.662ZM221.274 295.832V284.702H222.714V295.832H221.274ZM231.524 284.702H232.964V295.832H231.584V294.572C230.939 295.472 229.919 295.922 228.749 295.922C226.424 295.922 224.729 294.287 224.729 291.857C224.729 289.427 226.424 287.807 228.749 287.807C229.874 287.807 230.864 288.227 231.524 289.082V284.702ZM228.869 294.662C230.384 294.662 231.539 293.552 231.539 291.857C231.539 290.162 230.384 289.067 228.869 289.067C227.339 289.067 226.184 290.162 226.184 291.857C226.184 293.552 227.339 294.662 228.869 294.662ZM242.873 291.902C242.873 292.022 242.858 292.202 242.843 292.337H236.393C236.573 293.732 237.698 294.662 239.273 294.662C240.203 294.662 240.983 294.347 241.568 293.702L242.363 294.632C241.643 295.472 240.548 295.922 239.228 295.922C236.663 295.922 234.953 294.227 234.953 291.857C234.953 289.502 236.648 287.807 238.943 287.807C241.238 287.807 242.873 289.457 242.873 291.902ZM238.943 289.022C237.563 289.022 236.543 289.952 236.393 291.302H241.493C241.343 289.967 240.338 289.022 238.943 289.022ZM246.253 289.217C246.763 288.287 247.753 287.807 249.148 287.807V289.202C249.028 289.187 248.923 289.187 248.818 289.187C247.273 289.187 246.313 290.132 246.313 291.872V295.832H244.873V287.882H246.253V289.217ZM253.261 295.922C251.941 295.922 250.636 295.517 249.976 294.992L250.576 293.852C251.251 294.332 252.331 294.677 253.366 294.677C254.701 294.677 255.256 294.272 255.256 293.597C255.256 291.812 250.231 293.357 250.231 290.192C250.231 288.767 251.506 287.807 253.546 287.807C254.581 287.807 255.751 288.077 256.441 288.527L255.826 289.667C255.106 289.202 254.311 289.037 253.531 289.037C252.271 289.037 251.656 289.502 251.656 290.132C251.656 292.007 256.696 290.477 256.696 293.567C256.696 295.007 255.376 295.922 253.261 295.922ZM155.91 305.807C157.845 305.807 159.21 306.917 159.21 309.257V313.832H157.77V309.422C157.77 307.862 156.99 307.097 155.625 307.097C154.095 307.097 153.105 308.012 153.105 309.737V313.832H151.665V305.882H153.045V307.082C153.63 306.272 154.65 305.807 155.91 305.807ZM165.324 313.922C162.939 313.922 161.184 312.227 161.184 309.857C161.184 307.487 162.939 305.807 165.324 305.807C167.709 305.807 169.449 307.487 169.449 309.857C169.449 312.227 167.709 313.922 165.324 313.922ZM165.324 312.662C166.854 312.662 167.994 311.552 167.994 309.857C167.994 308.162 166.854 307.067 165.324 307.067C163.794 307.067 162.639 308.162 162.639 309.857C162.639 311.552 163.794 312.662 165.324 312.662ZM181.385 305.807C183.32 305.807 184.64 306.917 184.64 309.257V313.832H183.2V309.422C183.2 307.862 182.45 307.097 181.145 307.097C179.705 307.097 178.76 308.012 178.76 309.737V313.832H177.32V309.422C177.32 307.862 176.57 307.097 175.265 307.097C173.825 307.097 172.88 308.012 172.88 309.737V313.832H171.44V305.882H172.82V307.067C173.39 306.257 174.365 305.807 175.565 305.807C176.78 305.807 177.8 306.287 178.325 307.277C178.925 306.377 180.035 305.807 181.385 305.807ZM188.01 304.352C187.455 304.352 187.035 303.947 187.035 303.422C187.035 302.897 187.455 302.477 188.01 302.477C188.565 302.477 188.985 302.882 188.985 303.392C188.985 303.932 188.58 304.352 188.01 304.352ZM187.29 313.832V305.882H188.73V313.832H187.29ZM195.724 305.807C197.659 305.807 199.024 306.917 199.024 309.257V313.832H197.584V309.422C197.584 307.862 196.804 307.097 195.439 307.097C193.909 307.097 192.919 308.012 192.919 309.737V313.832H191.479V305.882H192.859V307.082C193.444 306.272 194.464 305.807 195.724 305.807ZM204.584 305.807C206.759 305.807 207.989 306.857 207.989 309.032V313.832H206.624V312.782C206.144 313.502 205.259 313.922 204.014 313.922C202.214 313.922 201.074 312.962 201.074 311.582C201.074 310.307 201.899 309.257 204.269 309.257H206.549V308.972C206.549 307.757 205.844 307.052 204.419 307.052C203.474 307.052 202.514 307.382 201.899 307.907L201.299 306.827C202.124 306.167 203.309 305.807 204.584 305.807ZM204.254 312.812C205.334 312.812 206.189 312.317 206.549 311.402V310.292H204.329C202.904 310.292 202.499 310.847 202.499 311.522C202.499 312.317 203.159 312.812 204.254 312.812ZM214.674 312.332L215.124 313.367C214.689 313.742 214.029 313.922 213.384 313.922C211.779 313.922 210.864 313.037 210.864 311.432V307.067H209.514V305.882H210.864V304.142H212.304V305.882H214.584V307.067H212.304V311.372C212.304 312.227 212.754 312.707 213.549 312.707C213.969 312.707 214.374 312.572 214.674 312.332ZM223.786 309.902C223.786 310.022 223.771 310.202 223.756 310.337H217.306C217.486 311.732 218.611 312.662 220.186 312.662C221.116 312.662 221.896 312.347 222.481 311.702L223.276 312.632C222.556 313.472 221.461 313.922 220.141 313.922C217.576 313.922 215.866 312.227 215.866 309.857C215.866 307.502 217.561 305.807 219.856 305.807C222.151 305.807 223.786 307.457 223.786 309.902ZM219.856 307.022C218.476 307.022 217.456 307.952 217.306 309.302H222.406C222.256 307.967 221.251 307.022 219.856 307.022ZM231.846 302.702H233.286V313.832H231.906V312.572C231.261 313.472 230.241 313.922 229.071 313.922C226.746 313.922 225.051 312.287 225.051 309.857C225.051 307.427 226.746 305.807 229.071 305.807C230.196 305.807 231.186 306.227 231.846 307.082V302.702ZM229.191 312.662C230.706 312.662 231.861 311.552 231.861 309.857C231.861 308.162 230.706 307.067 229.191 307.067C227.661 307.067 226.506 308.162 226.506 309.857C226.506 311.552 227.661 312.662 229.191 312.662ZM153.945 331.922C152.625 331.922 151.32 331.517 150.66 330.992L151.26 329.852C151.935 330.332 153.015 330.677 154.05 330.677C155.385 330.677 155.94 330.272 155.94 329.597C155.94 327.812 150.915 329.357 150.915 326.192C150.915 324.767 152.19 323.807 154.23 323.807C155.265 323.807 156.435 324.077 157.125 324.527L156.51 325.667C155.79 325.202 154.995 325.037 154.215 325.037C152.955 325.037 152.34 325.502 152.34 326.132C152.34 328.007 157.38 326.477 157.38 329.567C157.38 331.007 156.06 331.922 153.945 331.922ZM163.199 330.332L163.649 331.367C163.214 331.742 162.554 331.922 161.909 331.922C160.304 331.922 159.389 331.037 159.389 329.432V325.067H158.039V323.882H159.389V322.142H160.829V323.882H163.109V325.067H160.829V329.372C160.829 330.227 161.279 330.707 162.074 330.707C162.494 330.707 162.899 330.572 163.199 330.332ZM168.285 323.807C170.46 323.807 171.69 324.857 171.69 327.032V331.832H170.325V330.782C169.845 331.502 168.96 331.922 167.715 331.922C165.915 331.922 164.775 330.962 164.775 329.582C164.775 328.307 165.6 327.257 167.97 327.257H170.25V326.972C170.25 325.757 169.545 325.052 168.12 325.052C167.175 325.052 166.215 325.382 165.6 325.907L165 324.827C165.825 324.167 167.01 323.807 168.285 323.807ZM167.955 330.812C169.035 330.812 169.89 330.317 170.25 329.402V328.292H168.03C166.605 328.292 166.2 328.847 166.2 329.522C166.2 330.317 166.86 330.812 167.955 330.812ZM180.43 331.832L177.445 328.127L175.795 329.657V331.832H174.355V320.702H175.795V327.842L180.13 323.882H181.87L178.525 327.167L182.2 331.832H180.43ZM190.446 327.902C190.446 328.022 190.431 328.202 190.416 328.337H183.966C184.146 329.732 185.271 330.662 186.846 330.662C187.776 330.662 188.556 330.347 189.141 329.702L189.936 330.632C189.216 331.472 188.121 331.922 186.801 331.922C184.236 331.922 182.526 330.227 182.526 327.857C182.526 325.502 184.221 323.807 186.516 323.807C188.811 323.807 190.446 325.457 190.446 327.902ZM186.516 325.022C185.136 325.022 184.116 325.952 183.966 327.302H189.066C188.916 325.967 187.911 325.022 186.516 325.022ZM194.726 331.922C193.406 331.922 192.101 331.517 191.441 330.992L192.041 329.852C192.716 330.332 193.796 330.677 194.831 330.677C196.166 330.677 196.721 330.272 196.721 329.597C196.721 327.812 191.696 329.357 191.696 326.192C191.696 324.767 192.971 323.807 195.011 323.807C196.046 323.807 197.216 324.077 197.906 324.527L197.291 325.667C196.571 325.202 195.776 325.037 194.996 325.037C193.736 325.037 193.121 325.502 193.121 326.132C193.121 328.007 198.161 326.477 198.161 329.567C198.161 331.007 196.841 331.922 194.726 331.922Z" fill="white"/>
<path d="M154.088 98.8905L312.913 244.679L41.9619 234.727" stroke="white"/>
<path d="M259.854 404.625L313.027 244.926L542.713 350.59V395.007" stroke="white"/>
<path d="M556.644 131.441L313.366 244.678" stroke="white"/>
<circle cx="338.798" cy="427.055" r="41.1806" fill="#7F54C8" stroke="white"/>
<g clip-path="url(#clip0_202_365)">
<path d="M349.458 417.375C349.562 417.987 349.613 418.641 349.613 419.339C349.613 425.896 344.769 433.728 338.794 433.728C332.818 433.728 327.974 425.896 327.974 419.339C327.974 418.615 328.034 417.935 328.146 417.297" stroke="white" stroke-linecap="round" stroke-linejoin="round"/>
<path d="M348.733 407.966C355.313 408.69 359.778 410.112 359.778 411.749C359.778 414.118 350.383 416.039 338.794 416.039C327.206 416.039 317.811 414.118 317.811 411.749C317.811 410.086 322.059 408.733 328.812 408.018" stroke="white" stroke-linecap="round" stroke-linejoin="round"/>
<path d="M328.976 410.741L329.537 404.787C329.537 402.762 331.583 401.117 334.114 401.117H343.474C346.004 401.117 348.051 402.762 348.051 404.787L348.612 410.741" stroke="white" stroke-linecap="round" stroke-linejoin="round"/>
<path d="M343.837 431.927C353.068 434.115 359.915 441.904 359.915 447.746C354.579 449.124 347.679 449.986 340.555 450.141C336.229 450.236 331.825 450.072 327.628 449.598C324.105 449.202 320.729 448.59 317.681 447.746C317.681 441.921 324.485 434.167 333.673 431.953" stroke="white" stroke-linecap="round" stroke-linejoin="round"/>
<path d="M328.018 434.589V449.495" stroke="white" stroke-linecap="round" stroke-linejoin="round"/>
<path d="M349.579 434.339V449.245" stroke="white" stroke-linecap="round" stroke-linejoin="round"/>
<path d="M331.911 432.565V440.715H345.676V432.694" stroke="white" stroke-linecap="round" stroke-linejoin="round"/>
<path d="M320.461 426.353C320.461 426.353 329.511 429.963 339.156 427.757" stroke="white" stroke-linecap="round" stroke-linejoin="round"/>
<path d="M322.456 424.466L323.872 427.283" stroke="white" stroke-linecap="round" stroke-linejoin="round"/>
<path d="M325.038 424.965L326.601 427.972" stroke="white" stroke-linecap="round" stroke-linejoin="round"/>
<path d="M326.635 428.058L324.295 430.514" stroke="white" stroke-linecap="round" stroke-linejoin="round"/>
<path d="M323.89 427.361L321.55 429.816" stroke="white" stroke-linecap="round" stroke-linejoin="round"/>
</g>
<circle cx="598.486" cy="311.995" r="41.1806" fill="#7F54C8" stroke="white"/>
<g clip-path="url(#clip1_202_365)">
<path d="M609.146 302.315C609.25 302.927 609.302 303.581 609.302 304.279C609.302 310.836 604.458 318.668 598.482 318.668C592.506 318.668 587.662 310.836 587.662 304.279C587.662 303.556 587.723 302.875 587.835 302.237" stroke="white" stroke-linecap="round" stroke-linejoin="round"/>
<path d="M608.422 292.906C615.002 293.63 619.466 295.052 619.466 296.689C619.466 299.058 610.071 300.979 598.483 300.979C586.894 300.979 577.499 299.058 577.499 296.689C577.499 295.026 581.748 293.673 588.5 292.958" stroke="white" stroke-linecap="round" stroke-linejoin="round"/>
<path d="M588.664 295.681L589.225 289.727C589.225 287.702 591.272 286.057 593.802 286.057H603.163C605.693 286.057 607.739 287.702 607.739 289.727L608.301 295.681" stroke="white" stroke-linecap="round" stroke-linejoin="round"/>
<path d="M603.525 316.867C612.756 319.056 619.604 326.844 619.604 332.686C614.267 334.064 607.368 334.926 600.244 335.081C595.918 335.176 591.514 335.012 587.317 334.538C583.794 334.142 580.417 333.53 577.369 332.686C577.369 326.862 584.174 319.107 593.362 316.893" stroke="white" stroke-linecap="round" stroke-linejoin="round"/>
<path d="M587.706 319.529V334.435" stroke="white" stroke-linecap="round" stroke-linejoin="round"/>
<path d="M609.268 319.28V334.185" stroke="white" stroke-linecap="round" stroke-linejoin="round"/>
<path d="M591.6 317.505V325.655H605.364V317.634" stroke="white" stroke-linecap="round" stroke-linejoin="round"/>
<path d="M580.149 311.293C580.149 311.293 589.199 314.903 598.845 312.697" stroke="white" stroke-linecap="round" stroke-linejoin="round"/>
<path d="M582.145 309.406L583.561 312.223" stroke="white" stroke-linecap="round" stroke-linejoin="round"/>
<path d="M584.727 309.906L586.29 312.912" stroke="white" stroke-linecap="round" stroke-linejoin="round"/>
<path d="M586.324 312.999L583.983 315.454" stroke="white" stroke-linecap="round" stroke-linejoin="round"/>
<path d="M583.578 312.301L581.238 314.756" stroke="white" stroke-linecap="round" stroke-linejoin="round"/>
</g>
<circle cx="42.5146" cy="317.239" r="41.1806" fill="#91C757" stroke="white"/>
<path d="M21.7554 311.365C21.55 312.529 21.4425 313.781 21.4327 315.11C21.3936 338.089 35.2494 341.629 41.2239 341.482V296.952" stroke="white" stroke-linecap="round" stroke-linejoin="round"/>
<path d="M41.2323 297.031C40.0491 314.631 21.5976 316.558 21.5976 316.558C20.9425 300.795 30.7109 296.923 41.2323 296.923" stroke="white" stroke-linecap="round" stroke-linejoin="round"/>
<path d="M21.2663 318.885C21.2663 318.885 18.3426 316.665 18.147 320.792C17.9906 324.038 19.8191 327.695 22.3223 324.811" stroke="white" stroke-linecap="round" stroke-linejoin="round"/>
<path d="M44.2158 297.295H52.674C57.6707 297.295 61.7189 301.617 61.7189 306.956V327.617C61.7189 335.234 55.9399 341.414 48.8018 341.414H44.2061" stroke="white" stroke-linecap="round" stroke-linejoin="round"/>
<path d="M61.3663 312.656H43.8633" stroke="white" stroke-linecap="round" stroke-linejoin="round"/>
<path d="M44.04 329.582H51.3639C52.6351 329.582 53.6618 330.717 53.6618 332.105C53.6618 333.503 52.6351 334.628 51.3639 334.628H44.04" stroke="white" stroke-linecap="round" stroke-linejoin="round"/>
<path d="M45.5654 334.286V329.582" stroke="white" stroke-linecap="round" stroke-linejoin="round"/>
<path d="M49.4668 334.315V329.612" stroke="white" stroke-linecap="round" stroke-linejoin="round"/>
<path d="M62.4229 312.656C64.887 312.656 66.8915 314.221 66.8915 316.157V320.186C66.8915 322.122 64.8967 323.686 62.4229 323.686" stroke="white" stroke-linecap="round" stroke-linejoin="round"/>
<path d="M44.1865 297.246V292.787" stroke="white" stroke-linecap="round" stroke-linejoin="round"/>
<path d="M44.1285 292.425C45.2248 292.425 46.1135 291.536 46.1135 290.44C46.1135 289.344 45.2248 288.455 44.1285 288.455C43.0323 288.455 42.1436 289.344 42.1436 290.44C42.1436 291.536 43.0323 292.425 44.1285 292.425Z" stroke="white" stroke-linecap="round" stroke-linejoin="round"/>
<path d="M50.2389 323.706C52.1614 323.706 53.7199 322.147 53.7199 320.224C53.7199 318.302 52.1614 316.743 50.2389 316.743C48.3163 316.743 46.7578 318.302 46.7578 320.224C46.7578 322.147 48.3163 323.706 50.2389 323.706Z" stroke="white" stroke-linecap="round" stroke-linejoin="round"/>
<path d="M50.2398 321.368C50.8716 321.368 51.3838 320.856 51.3838 320.224C51.3838 319.593 50.8716 319.08 50.2398 319.08C49.6079 319.08 49.0957 319.593 49.0957 320.224C49.0957 320.856 49.6079 321.368 50.2398 321.368Z" stroke="white" stroke-linecap="round" stroke-linejoin="round"/>
<path d="M33.2637 329.797C33.2637 329.797 33.1952 334.579 40.4409 334.139" stroke="white" stroke-linecap="round" stroke-linejoin="round"/>
<path d="M34.1153 321.985C34.9794 321.985 35.6798 321.297 35.6798 320.449C35.6798 319.602 34.9794 318.914 34.1153 318.914C33.2512 318.914 32.5508 319.602 32.5508 320.449C32.5508 321.297 33.2512 321.985 34.1153 321.985Z" fill="white"/>
<circle cx="100.277" cy="129.747" r="41.1806" fill="#91C757" stroke="white"/>
<path d="M79.5181 123.873C79.3127 125.037 79.2052 126.288 79.1954 127.618C79.1563 150.597 93.0121 154.137 98.9866 153.99V109.46" stroke="white" stroke-linecap="round" stroke-linejoin="round"/>
<path d="M98.995 109.538C97.8118 127.139 79.3603 129.065 79.3603 129.065C78.7051 113.303 88.4736 109.431 98.995 109.431" stroke="white" stroke-linecap="round" stroke-linejoin="round"/>
<path d="M79.029 131.393C79.029 131.393 76.1053 129.173 75.9097 133.299C75.7533 136.546 77.5818 140.203 80.085 137.318" stroke="white" stroke-linecap="round" stroke-linejoin="round"/>
<path d="M101.979 109.802H110.437C115.433 109.802 119.482 114.124 119.482 119.463V140.125C119.482 147.742 113.703 153.922 106.565 153.922H101.969" stroke="white" stroke-linecap="round" stroke-linejoin="round"/>
<path d="M119.129 125.164H101.626" stroke="white" stroke-linecap="round" stroke-linejoin="round"/>
<path d="M101.803 142.09H109.127C110.398 142.09 111.425 143.224 111.425 144.613C111.425 146.011 110.398 147.136 109.127 147.136H101.803" stroke="white" stroke-linecap="round" stroke-linejoin="round"/>
<path d="M103.328 146.793V142.09" stroke="white" stroke-linecap="round" stroke-linejoin="round"/>
<path d="M107.229 146.823V142.119" stroke="white" stroke-linecap="round" stroke-linejoin="round"/>
<path d="M120.186 125.164C122.65 125.164 124.654 126.728 124.654 128.665V132.693C124.654 134.629 122.659 136.194 120.186 136.194" stroke="white" stroke-linecap="round" stroke-linejoin="round"/>
<path d="M101.949 109.753V105.294" stroke="white" stroke-linecap="round" stroke-linejoin="round"/>
<path d="M101.891 104.933C102.988 104.933 103.876 104.044 103.876 102.948C103.876 101.851 102.988 100.963 101.891 100.963C100.795 100.963 99.9062 101.851 99.9062 102.948C99.9062 104.044 100.795 104.933 101.891 104.933Z" stroke="white" stroke-linecap="round" stroke-linejoin="round"/>
<path d="M108.002 136.213C109.924 136.213 111.483 134.655 111.483 132.732C111.483 130.81 109.924 129.251 108.002 129.251C106.079 129.251 104.521 130.81 104.521 132.732C104.521 134.655 106.079 136.213 108.002 136.213Z" stroke="white" stroke-linecap="round" stroke-linejoin="round"/>
<path d="M108.002 133.876C108.634 133.876 109.147 133.364 109.147 132.732C109.147 132.1 108.634 131.588 108.002 131.588C107.371 131.588 106.858 132.1 106.858 132.732C106.858 133.364 107.371 133.876 108.002 133.876Z" stroke="white" stroke-linecap="round" stroke-linejoin="round"/>
<path d="M91.0264 142.305C91.0264 142.305 90.9579 147.087 98.2036 146.647" stroke="white" stroke-linecap="round" stroke-linejoin="round"/>
<path d="M91.878 134.492C92.7421 134.492 93.4425 133.805 93.4425 132.957C93.4425 132.109 92.7421 131.422 91.878 131.422C91.0139 131.422 90.3135 132.109 90.3135 132.957C90.3135 133.805 91.0139 134.492 91.878 134.492Z" fill="white"/>
<circle cx="492.299" cy="85.3489" r="41.1806" fill="#9B88BB" stroke="white"/>
<path d="M508.427 56.6677H481.115V73.2248H508.427V56.6677Z" stroke="white" stroke-linecap="round" stroke-linejoin="round"/>
<path d="M508.72 100.468L511.197 82.5239C511.285 81.9118 510.711 81.3723 509.962 81.3723H479.555C478.819 81.3723 478.233 81.9118 478.32 82.5239L480.354 97.5158L480.579 99.1343L480.803 100.763L482.163 110.827C482.225 111.356 482.762 111.75 483.398 111.75H506.144C506.78 111.75 507.304 111.356 507.379 110.827L508.163 104.988" stroke="white" stroke-linecap="round" stroke-linejoin="round"/>
<path d="M490.723 80.8734C490.723 78.64 492.532 76.8308 494.765 76.8308C496.999 76.8308 498.808 78.64 498.808 80.8734" stroke="white" stroke-linecap="round" stroke-linejoin="round"/>
<path d="M494.765 73.2997V76.8182" stroke="white" stroke-linecap="round" stroke-linejoin="round"/>
<path d="M510.573 91.1794C512.644 91.429 514.528 89.9442 514.778 87.8605C515.028 85.7769 513.543 83.9053 511.459 83.6558" stroke="white" stroke-linecap="round" stroke-linejoin="round"/>
<path d="M498.136 98.9806L501.267 97.2245L501.31 93.6421L498.738 92.1163C500.209 91.4695 501.952 91.5139 503.441 92.3945C505.892 93.8513 506.7 97.0057 505.255 99.4602C503.81 101.915 500.644 102.719 498.19 101.274C496.786 100.45 495.929 99.051 495.713 97.5598L498.144 98.9965L498.136 98.9806Z" stroke="white" stroke-linecap="round" stroke-linejoin="round"/>
<path d="M502.71 101.935C504.997 104.161 507.939 104.575 510.099 104.503C511.308 104.461 512.523 104.142 513.749 103.536C517.359 101.758 519.187 98.04 519.134 94.4275C519.11 93.2784 518.768 90.0488 514.939 87.3871" stroke="white" stroke-linecap="round" stroke-linejoin="round"/>
<path d="M513.034 91.3875C513.712 92.095 514.233 92.9685 514.55 93.7221C515.425 95.8102 515.072 97.7283 513.442 99.5026C512.883 100.115 512.282 100.554 511.664 100.819C510.392 101.361 507.547 101.563 505.201 99.9952" stroke="white" stroke-linecap="round" stroke-linejoin="round"/>
<path d="M478.969 91.1794C476.898 91.429 475.014 89.9442 474.765 87.8605C474.515 85.7769 476 83.9053 478.084 83.6558" stroke="white" stroke-linecap="round" stroke-linejoin="round"/>
<path d="M469.574 66.8614L470.285 70.38L473.692 71.5154L475.937 69.5315C476.1 71.1286 475.526 72.7756 474.228 73.9234C472.094 75.8075 468.838 75.6078 466.954 73.4743C465.07 71.3407 465.27 68.0842 467.403 66.2002C468.626 65.1271 470.21 64.7279 471.695 64.9899L469.574 66.8614Z" stroke="white" stroke-linecap="round" stroke-linejoin="round"/>
<path d="M466.342 73.1002C464.995 74.3729 463.585 75.9949 462.999 78.0786C462.674 79.2389 462.612 80.5116 462.824 81.8466C463.423 85.8268 466.43 88.6841 469.898 89.7197C471.009 90.0441 473.666 90.4308 475.039 89.8195" stroke="white" stroke-linecap="round" stroke-linejoin="round"/>
<path d="M475.002 85.5522C473.966 85.8766 472.856 85.9515 471.957 85.8891C469.462 85.7269 467.753 84.4293 466.804 81.9464C466.48 81.0979 466.343 80.2869 466.38 79.5508C466.467 78.0286 467.341 76.5687 468.526 74.9093" stroke="white" stroke-linecap="round" stroke-linejoin="round"/>
<path d="M489.138 66.687C490.743 66.687 492.045 65.3854 492.045 63.7798C492.045 62.1743 490.743 60.8727 489.138 60.8727C487.532 60.8727 486.23 62.1743 486.23 63.7798C486.23 65.3854 487.532 66.687 489.138 66.687Z" stroke="white" stroke-linecap="round" stroke-linejoin="round"/>
<path d="M500.393 66.687C501.998 66.687 503.3 65.3854 503.3 63.7798C503.3 62.1743 501.998 60.8727 500.393 60.8727C498.787 60.8727 497.485 62.1743 497.485 63.7798C497.485 65.3854 498.787 66.687 500.393 66.687Z" stroke="white" stroke-linecap="round" stroke-linejoin="round"/>
<path d="M493.243 69.3571H496.288" stroke="white" stroke-linecap="round" stroke-linejoin="round"/>
<path d="M498.967 219.328H498.955C498.955 219.256 498.979 219.197 498.979 219.125C498.979 215.713 489.152 212.948 477.015 212.948C464.878 212.948 455.051 215.713 455.051 219.125C455.051 219.197 455.051 219.268 455.075 219.328H455.063V264.968C455.063 264.968 455.063 264.98 455.063 264.992C455.063 265.004 455.063 265.004 455.063 265.016V265.076C455.23 268.451 464.985 271.168 477.015 271.168C489.044 271.168 498.799 268.451 498.967 265.076V265.016C498.967 265.016 498.967 265.004 498.967 264.992C498.967 264.98 498.967 264.98 498.967 264.968V219.328Z" fill="#D8D0E4"/>
<path d="M455.057 219.328V264.968C455.057 264.968 455.057 264.98 455.057 264.992C455.057 265.004 455.057 265.004 455.057 265.016V265.075C455.224 268.451 464.979 271.168 477.009 271.168C489.038 271.168 498.793 268.451 498.961 265.075V265.016C498.961 265.016 498.961 265.004 498.961 264.992C498.961 264.98 498.961 264.98 498.961 264.968V219.328" fill="#D8D0E4"/>
<path d="M455.057 219.328V264.968C455.057 264.968 455.057 264.98 455.057 264.992C455.057 265.004 455.057 265.004 455.057 265.016V265.075C455.224 268.451 464.979 271.168 477.009 271.168C489.038 271.168 498.793 268.451 498.961 265.075V265.016C498.961 265.016 498.961 265.004 498.961 264.992C498.961 264.98 498.961 264.98 498.961 264.968V219.328" stroke="black" stroke-linecap="round" stroke-linejoin="round"/>
<path d="M477.021 225.301C489.151 225.301 498.985 222.536 498.985 219.125C498.985 215.714 489.151 212.948 477.021 212.948C464.89 212.948 455.057 215.714 455.057 219.125C455.057 222.536 464.89 225.301 477.021 225.301Z" fill="#D8D0E4" stroke="black" stroke-linecap="round" stroke-linejoin="round"/>
<path d="M498.973 249.942C498.973 253.354 489.146 256.119 477.009 256.119C464.872 256.119 455.045 253.354 455.045 249.942" fill="#D8D0E4"/>
<path d="M498.973 249.942C498.973 253.354 489.146 256.119 477.009 256.119C464.872 256.119 455.045 253.354 455.045 249.942" stroke="black" stroke-linecap="round" stroke-linejoin="round"/>
<path d="M498.973 257.479C498.973 260.891 489.146 263.656 477.009 263.656C464.872 263.656 455.045 260.891 455.045 257.479" fill="#D8D0E4"/>
<path d="M498.973 257.479C498.973 260.891 489.146 263.656 477.009 263.656C464.872 263.656 455.045 260.891 455.045 257.479" stroke="black" stroke-linecap="round" stroke-linejoin="round"/>
<path d="M498.973 227.331C498.973 230.742 489.146 233.507 477.009 233.507C464.872 233.507 455.045 230.742 455.045 227.331" fill="#D8D0E4"/>
<path d="M498.973 227.331C498.973 230.742 489.146 233.507 477.009 233.507C464.872 233.507 455.045 230.742 455.045 227.331" stroke="black" stroke-linecap="round" stroke-linejoin="round"/>
<path d="M498.973 234.868C498.973 238.279 489.146 241.044 477.009 241.044C464.872 241.044 455.045 238.279 455.045 234.868" fill="#D8D0E4"/>
<path d="M498.973 234.868C498.973 238.279 489.146 241.044 477.009 241.044C464.872 241.044 455.045 238.279 455.045 234.868" stroke="black" stroke-linecap="round" stroke-linejoin="round"/>
<path d="M498.973 242.405C498.973 245.816 489.146 248.581 477.009 248.581C464.872 248.581 455.045 245.816 455.045 242.405" fill="#D8D0E4"/>
<path d="M498.973 242.405C498.973 245.816 489.146 248.581 477.009 248.581C464.872 248.581 455.045 245.816 455.045 242.405" stroke="black" stroke-linecap="round" stroke-linejoin="round"/>
<path d="M491.85 218.59C491.85 218.67 491.816 218.79 491.667 218.955C491.516 219.123 491.269 219.309 490.909 219.501C490.191 219.886 489.118 220.248 487.751 220.558C485.023 221.176 481.231 221.563 477.025 221.563C472.819 221.563 469.027 221.176 466.299 220.558C464.932 220.248 463.859 219.886 463.141 219.501C462.781 219.309 462.534 219.123 462.383 218.955C462.234 218.79 462.2 218.67 462.2 218.59C462.2 218.51 462.234 218.39 462.383 218.225C462.534 218.058 462.781 217.872 463.141 217.679C463.859 217.294 464.932 216.932 466.299 216.622C469.027 216.004 472.819 215.617 477.025 215.617C481.231 215.617 485.023 216.004 487.751 216.622C489.118 216.932 490.191 217.294 490.909 217.679C491.269 217.872 491.516 218.058 491.667 218.225C491.816 218.39 491.85 218.51 491.85 218.59Z" fill="#D8D0E4" stroke="black"/>
<circle cx="506.567" cy="253.404" r="20.0283" fill="#D8D0E4" stroke="black"/>
<circle cx="506.568" cy="253.404" r="14.8248" fill="#D8D0E4" stroke="black"/>
<path d="M509.494 247.42C508.647 246.9 508.012 246.573 506.716 246.573C504.784 246.573 503.495 248.28 503.693 249.743C503.892 251.206 504.534 251.757 506.446 252.649C508.949 253.811 509.962 254.478 510.078 256.679C510.232 259.624 507.556 260.234 505.548 260.093C504.297 260.003 503.308 259.169 503.052 258.328" stroke="black"/>
<path d="M507.646 244.469L505.625 262.339" stroke="black"/>
<path d="M129.612 206.347H129.6C129.6 206.275 129.624 206.215 129.624 206.143C129.624 202.732 119.797 199.967 107.66 199.967C95.5232 199.967 85.6963 202.732 85.6963 206.143C85.6963 206.215 85.6963 206.287 85.7203 206.347H85.7083V251.986C85.7083 251.986 85.7083 251.998 85.7083 252.01C85.7083 252.022 85.7083 252.022 85.7083 252.034V252.094C85.8758 255.469 95.631 258.186 107.66 258.186C119.69 258.186 129.445 255.469 129.612 252.094V252.034C129.612 252.034 129.612 252.022 129.612 252.01C129.612 251.998 129.612 251.998 129.612 251.986V206.347Z" fill="#D8D0E4"/>
<path d="M85.7021 206.346V251.986C85.7021 251.986 85.7021 251.998 85.7021 252.01C85.7021 252.022 85.7021 252.022 85.7021 252.034V252.094C85.8697 255.469 95.6248 258.186 107.654 258.186C119.684 258.186 129.439 255.469 129.606 252.094V252.034C129.606 252.034 129.606 252.022 129.606 252.01C129.606 251.998 129.606 251.998 129.606 251.986V206.346" fill="#D8D0E4"/>
<path d="M85.7021 206.346V251.986C85.7021 251.986 85.7021 251.998 85.7021 252.01C85.7021 252.022 85.7021 252.022 85.7021 252.034V252.094C85.8697 255.469 95.6248 258.186 107.654 258.186C119.684 258.186 129.439 255.469 129.606 252.094V252.034C129.606 252.034 129.606 252.022 129.606 252.01C129.606 251.998 129.606 251.998 129.606 251.986V206.346" stroke="black" stroke-linecap="round" stroke-linejoin="round"/>
<path d="M107.666 212.319C119.797 212.319 129.63 209.554 129.63 206.143C129.63 202.732 119.797 199.967 107.666 199.967C95.5358 199.967 85.7021 202.732 85.7021 206.143C85.7021 209.554 95.5358 212.319 107.666 212.319Z" fill="#D8D0E4" stroke="black" stroke-linecap="round" stroke-linejoin="round"/>
<path d="M129.618 236.961C129.618 240.372 119.791 243.137 107.654 243.137C95.5174 243.137 85.6904 240.372 85.6904 236.961" fill="#D8D0E4"/>
<path d="M129.618 236.961C129.618 240.372 119.791 243.137 107.654 243.137C95.5174 243.137 85.6904 240.372 85.6904 236.961" stroke="black" stroke-linecap="round" stroke-linejoin="round"/>
<path d="M129.618 244.498C129.618 247.909 119.791 250.674 107.654 250.674C95.5174 250.674 85.6904 247.909 85.6904 244.498" fill="#D8D0E4"/>
<path d="M129.618 244.498C129.618 247.909 119.791 250.674 107.654 250.674C95.5174 250.674 85.6904 247.909 85.6904 244.498" stroke="black" stroke-linecap="round" stroke-linejoin="round"/>
<path d="M129.618 214.349C129.618 217.761 119.791 220.526 107.654 220.526C95.5174 220.526 85.6904 217.761 85.6904 214.349" fill="#D8D0E4"/>
<path d="M129.618 214.349C129.618 217.761 119.791 220.526 107.654 220.526C95.5174 220.526 85.6904 217.761 85.6904 214.349" stroke="black" stroke-linecap="round" stroke-linejoin="round"/>
<path d="M129.618 221.886C129.618 225.298 119.791 228.063 107.654 228.063C95.5174 228.063 85.6904 225.298 85.6904 221.886" fill="#D8D0E4"/>
<path d="M129.618 221.886C129.618 225.298 119.791 228.063 107.654 228.063C95.5174 228.063 85.6904 225.298 85.6904 221.886" stroke="black" stroke-linecap="round" stroke-linejoin="round"/>
<path d="M129.618 229.424C129.618 232.835 119.791 235.6 107.654 235.6C95.5174 235.6 85.6904 232.835 85.6904 229.424" fill="#D8D0E4"/>
<path d="M129.618 229.424C129.618 232.835 119.791 235.6 107.654 235.6C95.5174 235.6 85.6904 232.835 85.6904 229.424" stroke="black" stroke-linecap="round" stroke-linejoin="round"/>
<path d="M122.496 205.609C122.496 205.689 122.463 205.809 122.314 205.974C122.162 206.141 121.915 206.327 121.556 206.52C120.837 206.905 119.765 207.267 118.397 207.577C115.67 208.195 111.877 208.582 107.671 208.582C103.465 208.582 99.673 208.195 96.9457 207.577C95.578 207.267 94.5055 206.905 93.7871 206.52C93.4275 206.327 93.1806 206.141 93.0291 205.974C92.8803 205.809 92.8467 205.689 92.8467 205.609C92.8467 205.529 92.8803 205.409 93.0291 205.244C93.1806 205.076 93.4275 204.89 93.7871 204.698C94.5055 204.313 95.578 203.95 96.9457 203.64C99.673 203.022 103.465 202.636 107.671 202.636C111.877 202.636 115.67 203.022 118.397 203.64C119.765 203.95 120.837 204.313 121.556 204.698C121.915 204.89 122.162 205.076 122.314 205.244C122.463 205.409 122.496 205.529 122.496 205.609Z" fill="#D8D0E4" stroke="black"/>
<circle cx="137.214" cy="240.422" r="20.0283" fill="#D8D0E4" stroke="black"/>
<circle cx="137.214" cy="240.422" r="14.8248" fill="#D8D0E4" stroke="black"/>
<path d="M140.14 234.438C139.294 233.919 138.658 233.591 137.362 233.591C135.431 233.591 134.141 235.298 134.34 236.761C134.539 238.224 135.18 238.776 137.093 239.668C139.595 240.829 140.609 241.497 140.724 243.698C140.878 246.643 138.203 247.252 136.194 247.111C134.943 247.021 133.955 246.187 133.698 245.347" stroke="black"/>
<path d="M138.293 231.487L136.271 249.357" stroke="black"/>
<path d="M285.915 96.5543H285.903C285.903 96.4825 285.927 96.4226 285.927 96.3508C285.927 92.9395 276.1 90.1746 263.963 90.1746C251.826 90.1746 241.999 92.9395 241.999 96.3508C241.999 96.4226 241.999 96.4944 242.023 96.5543H242.011V142.194C242.011 142.194 242.011 142.206 242.011 142.218C242.011 142.23 242.011 142.23 242.011 142.242V142.302C242.179 145.677 251.934 148.394 263.963 148.394C275.992 148.394 285.747 145.677 285.915 142.302V142.242C285.915 142.242 285.915 142.23 285.915 142.218C285.915 142.206 285.915 142.206 285.915 142.194V96.5543Z" fill="#D8D0E4"/>
<path d="M242.006 96.5541V142.194C242.006 142.194 242.006 142.206 242.006 142.218C242.006 142.23 242.006 142.23 242.006 142.242V142.301C242.173 145.677 251.929 148.394 263.958 148.394C275.987 148.394 285.742 145.677 285.91 142.301V142.242C285.91 142.242 285.91 142.23 285.91 142.218C285.91 142.206 285.91 142.206 285.91 142.194V96.5541" fill="#D8D0E4"/>
<path d="M242.006 96.5541V142.194C242.006 142.194 242.006 142.206 242.006 142.218C242.006 142.23 242.006 142.23 242.006 142.242V142.301C242.173 145.677 251.929 148.394 263.958 148.394C275.987 148.394 285.742 145.677 285.91 142.301V142.242C285.91 142.242 285.91 142.23 285.91 142.218C285.91 142.206 285.91 142.206 285.91 142.194V96.5541" stroke="black" stroke-linecap="round" stroke-linejoin="round"/>
<path d="M263.97 102.527C276.1 102.527 285.934 99.7619 285.934 96.3508C285.934 92.9398 276.1 90.1746 263.97 90.1746C251.839 90.1746 242.006 92.9398 242.006 96.3508C242.006 99.7619 251.839 102.527 263.97 102.527Z" fill="#D8D0E4" stroke="black" stroke-linecap="round" stroke-linejoin="round"/>
<path d="M285.921 127.168C285.921 130.58 276.094 133.345 263.957 133.345C251.82 133.345 241.993 130.58 241.993 127.168" fill="#D8D0E4"/>
<path d="M285.921 127.168C285.921 130.58 276.094 133.345 263.957 133.345C251.82 133.345 241.993 130.58 241.993 127.168" stroke="black" stroke-linecap="round" stroke-linejoin="round"/>
<path d="M285.921 134.706C285.921 138.117 276.094 140.882 263.957 140.882C251.82 140.882 241.993 138.117 241.993 134.706" fill="#D8D0E4"/>
<path d="M285.921 134.706C285.921 138.117 276.094 140.882 263.957 140.882C251.82 140.882 241.993 138.117 241.993 134.706" stroke="black" stroke-linecap="round" stroke-linejoin="round"/>
<path d="M285.921 104.557C285.921 107.968 276.094 110.733 263.957 110.733C251.82 110.733 241.993 107.968 241.993 104.557" fill="#D8D0E4"/>
<path d="M285.921 104.557C285.921 107.968 276.094 110.733 263.957 110.733C251.82 110.733 241.993 107.968 241.993 104.557" stroke="black" stroke-linecap="round" stroke-linejoin="round"/>
<path d="M285.921 112.094C285.921 115.505 276.094 118.27 263.957 118.27C251.82 118.27 241.993 115.505 241.993 112.094" fill="#D8D0E4"/>
<path d="M285.921 112.094C285.921 115.505 276.094 118.27 263.957 118.27C251.82 118.27 241.993 115.505 241.993 112.094" stroke="black" stroke-linecap="round" stroke-linejoin="round"/>
<path d="M285.921 119.631C285.921 123.043 276.094 125.807 263.957 125.807C251.82 125.807 241.993 123.043 241.993 119.631" fill="#D8D0E4"/>
<path d="M285.921 119.631C285.921 123.043 276.094 125.807 263.957 125.807C251.82 125.807 241.993 123.043 241.993 119.631" stroke="black" stroke-linecap="round" stroke-linejoin="round"/>
<path d="M278.798 95.8162C278.798 95.8962 278.764 96.0162 278.616 96.181C278.464 96.3488 278.217 96.5346 277.858 96.7273C277.139 97.1122 276.067 97.4744 274.699 97.7843C271.972 98.4024 268.179 98.7892 263.973 98.7892C259.767 98.7892 255.975 98.4024 253.247 97.7843C251.88 97.4744 250.807 97.1122 250.089 96.7273C249.729 96.5346 249.482 96.3488 249.331 96.181C249.182 96.0162 249.148 95.8962 249.148 95.8162C249.148 95.7361 249.182 95.6162 249.331 95.4513C249.482 95.2835 249.729 95.0977 250.089 94.905C250.807 94.5201 251.88 94.158 253.247 93.848C255.975 93.2299 259.767 92.8431 263.973 92.8431C268.179 92.8431 271.972 93.2299 274.699 93.848C276.067 94.158 277.139 94.5201 277.858 94.905C278.217 95.0977 278.464 95.2835 278.616 95.4513C278.764 95.6162 278.798 95.7361 278.798 95.8162Z" fill="#D8D0E4" stroke="black"/>
<circle cx="293.517" cy="130.63" r="20.0283" fill="#D8D0E4" stroke="black"/>
<circle cx="293.516" cy="130.63" r="14.8248" fill="#D8D0E4" stroke="black"/>
<path d="M296.443 124.646C295.596 124.126 294.961 123.799 293.665 123.799C291.733 123.799 290.444 125.506 290.643 126.969C290.842 128.432 291.483 128.984 293.395 129.876C295.898 131.037 296.912 131.704 297.027 133.905C297.181 136.85 294.505 137.46 292.497 137.319C291.246 137.229 290.258 136.395 290.001 135.554" stroke="black"/>
<path d="M294.595 121.695L292.574 139.565" stroke="black"/>
<path d="M260.096 404.865V446.143" stroke="white"/>
<defs>
<clipPath id="clip0_202_365">
<rect width="43.0983" height="49.9033" fill="white" transform="translate(317.249 400.686)"/>
</clipPath>
<clipPath id="clip1_202_365">
<rect width="43.0983" height="49.9033" fill="white" transform="translate(576.938 285.626)"/>
</clipPath>
</defs>
</svg>
