<svg width="714" height="356" viewBox="0 0 714 356" fill="none" xmlns="http://www.w3.org/2000/svg">
<path d="M31.1619 15.2482H39.8869V17.9982H31.1619V15.2482ZM31.4369 24.6982H28.1869V7.19824H40.9619V9.92324H31.4369V24.6982ZM51.5904 24.6982V21.9982L51.4154 21.4232V16.6982C51.4154 15.7816 51.1404 15.0732 50.5904 14.5732C50.0404 14.0566 49.2071 13.7982 48.0904 13.7982C47.3404 13.7982 46.5988 13.9149 45.8654 14.1482C45.1488 14.3816 44.5404 14.7066 44.0404 15.1232L42.8154 12.8482C43.5321 12.2982 44.3821 11.8899 45.3654 11.6232C46.3654 11.3399 47.3988 11.1982 48.4654 11.1982C50.3988 11.1982 51.8904 11.6649 52.9404 12.5982C54.0071 13.5149 54.5404 14.9399 54.5404 16.8732V24.6982H51.5904ZM47.3904 24.8732C46.3904 24.8732 45.5154 24.7066 44.7654 24.3732C44.0154 24.0232 43.4321 23.5482 43.0154 22.9482C42.6154 22.3316 42.4154 21.6399 42.4154 20.8732C42.4154 20.1232 42.5904 19.4482 42.9404 18.8482C43.3071 18.2482 43.8988 17.7732 44.7154 17.4232C45.5321 17.0732 46.6154 16.8982 47.9654 16.8982H51.8404V18.9732H48.1904C47.1238 18.9732 46.4071 19.1482 46.0404 19.4982C45.6738 19.8316 45.4904 20.2482 45.4904 20.7482C45.4904 21.3149 45.7154 21.7649 46.1654 22.0982C46.6154 22.4316 47.2404 22.5982 48.0404 22.5982C48.8071 22.5982 49.4904 22.4232 50.0904 22.0732C50.7071 21.7232 51.1488 21.2066 51.4154 20.5232L51.9404 22.3982C51.6404 23.1816 51.0988 23.7899 50.3154 24.2232C49.5488 24.6566 48.5738 24.8732 47.3904 24.8732ZM58.551 24.6982V11.3482H61.526V15.0232L61.176 13.9482C61.576 13.0482 62.201 12.3649 63.051 11.8982C63.9176 11.4316 64.9926 11.1982 66.276 11.1982V14.1732C66.1426 14.1399 66.0176 14.1232 65.901 14.1232C65.7843 14.1066 65.6676 14.0982 65.551 14.0982C64.3676 14.0982 63.426 14.4482 62.726 15.1482C62.026 15.8316 61.676 16.8566 61.676 18.2232V24.6982H58.551ZM85.777 11.1982C86.8436 11.1982 87.7853 11.4066 88.602 11.8232C89.4353 12.2399 90.0853 12.8816 90.552 13.7482C91.0186 14.5982 91.252 15.6982 91.252 17.0482V24.6982H88.127V17.4482C88.127 16.2649 87.8686 15.3816 87.352 14.7982C86.8353 14.2149 86.0936 13.9232 85.127 13.9232C84.4436 13.9232 83.8353 14.0732 83.302 14.3732C82.7853 14.6732 82.377 15.1149 82.077 15.6982C81.7936 16.2816 81.652 17.0232 81.652 17.9232V24.6982H78.527V17.4482C78.527 16.2649 78.2686 15.3816 77.752 14.7982C77.2353 14.2149 76.4936 13.9232 75.527 13.9232C74.8436 13.9232 74.2353 14.0732 73.702 14.3732C73.1853 14.6732 72.777 15.1149 72.477 15.6982C72.1936 16.2816 72.052 17.0232 72.052 17.9232V24.6982H68.927V11.3482H71.902V14.8982L71.377 13.8482C71.827 12.9816 72.477 12.3232 73.327 11.8732C74.1936 11.4232 75.177 11.1982 76.277 11.1982C77.527 11.1982 78.6103 11.5066 79.527 12.1232C80.4603 12.7399 81.077 13.6732 81.377 14.9232L80.152 14.4982C80.5853 13.4982 81.302 12.6982 82.302 12.0982C83.302 11.4982 84.4603 11.1982 85.777 11.1982ZM101.545 24.8732C100.061 24.8732 98.7614 24.5816 97.6447 23.9982C96.5447 23.3982 95.6864 22.5816 95.0697 21.5482C94.4697 20.5149 94.1697 19.3399 94.1697 18.0232C94.1697 16.6899 94.4614 15.5149 95.0447 14.4982C95.6447 13.4649 96.4614 12.6566 97.4947 12.0732C98.5447 11.4899 99.7364 11.1982 101.07 11.1982C102.37 11.1982 103.528 11.4816 104.545 12.0482C105.561 12.6149 106.361 13.4149 106.945 14.4482C107.528 15.4816 107.82 16.6982 107.82 18.0982C107.82 18.2316 107.811 18.3816 107.795 18.5482C107.795 18.7149 107.786 18.8732 107.77 19.0232H96.6447V16.9482H106.12L104.895 17.5982C104.911 16.8316 104.753 16.1566 104.42 15.5732C104.086 14.9899 103.628 14.5316 103.045 14.1982C102.478 13.8649 101.82 13.6982 101.07 13.6982C100.303 13.6982 99.6281 13.8649 99.0447 14.1982C98.4781 14.5316 98.0281 14.9982 97.6947 15.5982C97.3781 16.1816 97.2197 16.8732 97.2197 17.6732V18.1732C97.2197 18.9732 97.4031 19.6816 97.7697 20.2982C98.1364 20.9149 98.6531 21.3899 99.3197 21.7232C99.9864 22.0566 100.753 22.2232 101.62 22.2232C102.37 22.2232 103.045 22.1066 103.645 21.8732C104.245 21.6399 104.778 21.2732 105.245 20.7732L106.92 22.6982C106.32 23.3982 105.561 23.9399 104.645 24.3232C103.745 24.6899 102.711 24.8732 101.545 24.8732ZM110.821 24.6982V11.3482H113.796V15.0232L113.446 13.9482C113.846 13.0482 114.471 12.3649 115.321 11.8982C116.188 11.4316 117.263 11.1982 118.546 11.1982V14.1732C118.413 14.1399 118.288 14.1232 118.171 14.1232C118.055 14.1066 117.938 14.0982 117.821 14.0982C116.638 14.0982 115.696 14.4482 114.996 15.1482C114.296 15.8316 113.946 16.8566 113.946 18.2232V24.6982H110.821ZM125.445 24.8732C124.328 24.8732 123.253 24.7316 122.22 24.4482C121.203 24.1482 120.395 23.7899 119.795 23.3732L120.995 20.9982C121.595 21.3816 122.311 21.6982 123.145 21.9482C123.978 22.1982 124.811 22.3232 125.645 22.3232C126.628 22.3232 127.336 22.1899 127.77 21.9232C128.22 21.6566 128.445 21.2982 128.445 20.8482C128.445 20.4816 128.295 20.2066 127.995 20.0232C127.695 19.8232 127.303 19.6732 126.82 19.5732C126.336 19.4732 125.795 19.3816 125.195 19.2982C124.611 19.2149 124.02 19.1066 123.42 18.9732C122.836 18.8232 122.303 18.6149 121.82 18.3482C121.336 18.0649 120.945 17.6899 120.645 17.2232C120.345 16.7566 120.195 16.1399 120.195 15.3732C120.195 14.5232 120.436 13.7899 120.92 13.1732C121.403 12.5399 122.078 12.0566 122.945 11.7232C123.828 11.3732 124.87 11.1982 126.07 11.1982C126.97 11.1982 127.878 11.2982 128.795 11.4982C129.711 11.6982 130.47 11.9816 131.07 12.3482L129.87 14.7232C129.236 14.3399 128.595 14.0816 127.945 13.9482C127.311 13.7982 126.678 13.7232 126.045 13.7232C125.095 13.7232 124.386 13.8649 123.92 14.1482C123.47 14.4316 123.245 14.7899 123.245 15.2232C123.245 15.6232 123.395 15.9232 123.695 16.1232C123.995 16.3232 124.386 16.4816 124.87 16.5982C125.353 16.7149 125.886 16.8149 126.47 16.8982C127.07 16.9649 127.661 17.0732 128.245 17.2232C128.828 17.3732 129.361 17.5816 129.845 17.8482C130.345 18.0982 130.745 18.4566 131.045 18.9232C131.345 19.3899 131.495 19.9982 131.495 20.7482C131.495 21.5816 131.245 22.3066 130.745 22.9232C130.261 23.5399 129.57 24.0232 128.67 24.3732C127.77 24.7066 126.695 24.8732 125.445 24.8732ZM146.445 24.9482C145.228 24.9482 144.137 24.7482 143.17 24.3482C142.203 23.9482 141.445 23.3982 140.895 22.6982C140.345 21.9982 140.07 21.1899 140.07 20.2732C140.07 19.4399 140.253 18.6899 140.62 18.0232C140.987 17.3566 141.57 16.7232 142.37 16.1232C143.17 15.5066 144.195 14.8899 145.445 14.2732C146.428 13.7899 147.195 13.3649 147.745 12.9982C148.312 12.6316 148.703 12.2816 148.92 11.9482C149.153 11.6149 149.27 11.2649 149.27 10.8982C149.27 10.3982 149.095 9.99824 148.745 9.69824C148.395 9.38158 147.895 9.22324 147.245 9.22324C146.545 9.22324 145.995 9.39824 145.595 9.74824C145.212 10.0816 145.02 10.5232 145.02 11.0732C145.02 11.3566 145.07 11.6316 145.17 11.8982C145.287 12.1649 145.487 12.4649 145.77 12.7982C146.053 13.1316 146.462 13.5566 146.995 14.0732L156.245 22.9482L154.52 24.9732L144.52 15.3732C143.953 14.8232 143.495 14.3149 143.145 13.8482C142.795 13.3816 142.545 12.9316 142.395 12.4982C142.245 12.0482 142.17 11.5899 142.17 11.1232C142.17 10.3066 142.378 9.58991 142.795 8.97324C143.212 8.33991 143.803 7.85657 144.57 7.52324C145.337 7.17324 146.228 6.99824 147.245 6.99824C148.195 6.99824 149.012 7.15658 149.695 7.47324C150.395 7.77324 150.937 8.21491 151.32 8.79824C151.72 9.36491 151.92 10.0482 151.92 10.8482C151.92 11.5482 151.745 12.1982 151.395 12.7982C151.045 13.3816 150.495 13.9399 149.745 14.4732C149.012 15.0066 148.028 15.5649 146.795 16.1482C145.878 16.5982 145.153 17.0232 144.62 17.4232C144.087 17.8232 143.703 18.2232 143.47 18.6232C143.237 19.0232 143.12 19.4649 143.12 19.9482C143.12 20.4316 143.262 20.8566 143.545 21.2232C143.845 21.5899 144.262 21.8816 144.795 22.0982C145.328 22.2982 145.953 22.3982 146.67 22.3982C147.737 22.3982 148.703 22.1649 149.57 21.6982C150.453 21.2149 151.195 20.4982 151.795 19.5482C152.395 18.5982 152.828 17.4232 153.095 16.0232L155.62 16.8482C155.27 18.5316 154.662 19.9816 153.795 21.1982C152.945 22.3982 151.895 23.3232 150.645 23.9732C149.395 24.6232 147.995 24.9482 146.445 24.9482ZM178.255 7.19824H181.505V24.6982H178.255V7.19824ZM169.205 24.6982H165.955V7.19824H169.205V24.6982ZM178.505 17.1982H168.93V14.4232H178.505V17.1982ZM191.895 24.8732C190.528 24.8732 189.311 24.5816 188.245 23.9982C187.178 23.3982 186.336 22.5816 185.72 21.5482C185.103 20.5149 184.795 19.3399 184.795 18.0232C184.795 16.6899 185.103 15.5149 185.72 14.4982C186.336 13.4649 187.178 12.6566 188.245 12.0732C189.311 11.4899 190.528 11.1982 191.895 11.1982C193.278 11.1982 194.503 11.4899 195.57 12.0732C196.653 12.6566 197.495 13.4566 198.095 14.4732C198.711 15.4899 199.02 16.6732 199.02 18.0232C199.02 19.3399 198.711 20.5149 198.095 21.5482C197.495 22.5816 196.653 23.3982 195.57 23.9982C194.503 24.5816 193.278 24.8732 191.895 24.8732ZM191.895 22.1982C192.661 22.1982 193.345 22.0316 193.945 21.6982C194.545 21.3649 195.011 20.8816 195.345 20.2482C195.695 19.6149 195.87 18.8732 195.87 18.0232C195.87 17.1566 195.695 16.4149 195.345 15.7982C195.011 15.1649 194.545 14.6816 193.945 14.3482C193.345 14.0149 192.67 13.8482 191.92 13.8482C191.153 13.8482 190.47 14.0149 189.87 14.3482C189.286 14.6816 188.82 15.1649 188.47 15.7982C188.12 16.4149 187.945 17.1566 187.945 18.0232C187.945 18.8732 188.12 19.6149 188.47 20.2482C188.82 20.8816 189.286 21.3649 189.87 21.6982C190.47 22.0316 191.145 22.1982 191.895 22.1982ZM202.008 24.6982V6.14824H205.133V24.6982H202.008ZM214.885 24.8732C213.601 24.8732 212.443 24.5899 211.41 24.0232C210.393 23.4399 209.593 22.6399 209.01 21.6232C208.426 20.6066 208.135 19.4066 208.135 18.0232C208.135 16.6399 208.426 15.4399 209.01 14.4232C209.593 13.4066 210.393 12.6149 211.41 12.0482C212.443 11.4816 213.601 11.1982 214.885 11.1982C216.001 11.1982 217.001 11.4482 217.885 11.9482C218.768 12.4316 219.468 13.1732 219.985 14.1732C220.501 15.1732 220.76 16.4566 220.76 18.0232C220.76 19.5732 220.51 20.8566 220.01 21.8732C219.51 22.8732 218.818 23.6232 217.935 24.1232C217.051 24.6232 216.035 24.8732 214.885 24.8732ZM215.26 22.1982C216.01 22.1982 216.676 22.0316 217.26 21.6982C217.86 21.3649 218.335 20.8816 218.685 20.2482C219.051 19.6149 219.235 18.8732 219.235 18.0232C219.235 17.1566 219.051 16.4149 218.685 15.7982C218.335 15.1649 217.86 14.6816 217.26 14.3482C216.676 14.0149 216.01 13.8482 215.26 13.8482C214.51 13.8482 213.835 14.0149 213.235 14.3482C212.651 14.6816 212.176 15.1649 211.81 15.7982C211.46 16.4149 211.285 17.1566 211.285 18.0232C211.285 18.8732 211.46 19.6149 211.81 20.2482C212.176 20.8816 212.651 21.3649 213.235 21.6982C213.835 22.0316 214.51 22.1982 215.26 22.1982ZM219.31 24.6982V21.5482L219.435 17.9982L219.185 14.4482V6.14824H222.285V24.6982H219.31ZM232.673 24.8732C231.189 24.8732 229.889 24.5816 228.773 23.9982C227.673 23.3982 226.814 22.5816 226.198 21.5482C225.598 20.5149 225.298 19.3399 225.298 18.0232C225.298 16.6899 225.589 15.5149 226.173 14.4982C226.773 13.4649 227.589 12.6566 228.623 12.0732C229.673 11.4899 230.864 11.1982 232.198 11.1982C233.498 11.1982 234.656 11.4816 235.673 12.0482C236.689 12.6149 237.489 13.4149 238.073 14.4482C238.656 15.4816 238.948 16.6982 238.948 18.0982C238.948 18.2316 238.939 18.3816 238.923 18.5482C238.923 18.7149 238.914 18.8732 238.898 19.0232H227.773V16.9482H237.248L236.023 17.5982C236.039 16.8316 235.881 16.1566 235.548 15.5732C235.214 14.9899 234.756 14.5316 234.173 14.1982C233.606 13.8649 232.948 13.6982 232.198 13.6982C231.431 13.6982 230.756 13.8649 230.173 14.1982C229.606 14.5316 229.156 14.9982 228.823 15.5982C228.506 16.1816 228.348 16.8732 228.348 17.6732V18.1732C228.348 18.9732 228.531 19.6816 228.898 20.2982C229.264 20.9149 229.781 21.3899 230.448 21.7232C231.114 22.0566 231.881 22.2232 232.748 22.2232C233.498 22.2232 234.173 22.1066 234.773 21.8732C235.373 21.6399 235.906 21.2732 236.373 20.7732L238.048 22.6982C237.448 23.3982 236.689 23.9399 235.773 24.3232C234.873 24.6899 233.839 24.8732 232.673 24.8732ZM241.949 24.6982V11.3482H244.924V15.0232L244.574 13.9482C244.974 13.0482 245.599 12.3649 246.449 11.8982C247.316 11.4316 248.391 11.1982 249.674 11.1982V14.1732C249.541 14.1399 249.416 14.1232 249.299 14.1232C249.183 14.1066 249.066 14.0982 248.949 14.0982C247.766 14.0982 246.824 14.4482 246.124 15.1482C245.424 15.8316 245.074 16.8566 245.074 18.2232V24.6982H241.949ZM256.572 24.8732C255.456 24.8732 254.381 24.7316 253.347 24.4482C252.331 24.1482 251.522 23.7899 250.922 23.3732L252.122 20.9982C252.722 21.3816 253.439 21.6982 254.272 21.9482C255.106 22.1982 255.939 22.3232 256.772 22.3232C257.756 22.3232 258.464 22.1899 258.897 21.9232C259.347 21.6566 259.572 21.2982 259.572 20.8482C259.572 20.4816 259.422 20.2066 259.122 20.0232C258.822 19.8232 258.431 19.6732 257.947 19.5732C257.464 19.4732 256.922 19.3816 256.322 19.2982C255.739 19.2149 255.147 19.1066 254.547 18.9732C253.964 18.8232 253.431 18.6149 252.947 18.3482C252.464 18.0649 252.072 17.6899 251.772 17.2232C251.472 16.7566 251.322 16.1399 251.322 15.3732C251.322 14.5232 251.564 13.7899 252.047 13.1732C252.531 12.5399 253.206 12.0566 254.072 11.7232C254.956 11.3732 255.997 11.1982 257.197 11.1982C258.097 11.1982 259.006 11.2982 259.922 11.4982C260.839 11.6982 261.597 11.9816 262.197 12.3482L260.997 14.7232C260.364 14.3399 259.722 14.0816 259.072 13.9482C258.439 13.7982 257.806 13.7232 257.172 13.7232C256.222 13.7232 255.514 13.8649 255.047 14.1482C254.597 14.4316 254.372 14.7899 254.372 15.2232C254.372 15.6232 254.522 15.9232 254.822 16.1232C255.122 16.3232 255.514 16.4816 255.997 16.5982C256.481 16.7149 257.014 16.8149 257.597 16.8982C258.197 16.9649 258.789 17.0732 259.372 17.2232C259.956 17.3732 260.489 17.5816 260.972 17.8482C261.472 18.0982 261.872 18.4566 262.172 18.9232C262.472 19.3899 262.622 19.9982 262.622 20.7482C262.622 21.5816 262.372 22.3066 261.872 22.9232C261.389 23.5399 260.697 24.0232 259.797 24.3732C258.897 24.7066 257.822 24.8732 256.572 24.8732Z" fill="#211433"/>
<path d="M303.962 97.7567C306.522 97.7567 308.282 99.2367 308.282 102.257V108.357H306.862V102.397C306.862 100.177 305.702 99.0367 303.702 99.0367C301.442 99.0367 300.022 100.437 300.022 102.837V108.357H298.602V97.8367H299.962V99.7767C300.722 98.4967 302.142 97.7567 303.962 97.7567ZM316.476 108.457C313.396 108.457 311.116 106.217 311.116 103.097C311.116 99.9767 313.396 97.7567 316.476 97.7567C319.556 97.7567 321.816 99.9767 321.816 103.097C321.816 106.217 319.556 108.457 316.476 108.457ZM316.476 107.197C318.716 107.197 320.376 105.557 320.376 103.097C320.376 100.637 318.716 98.9967 316.476 98.9967C314.236 98.9967 312.556 100.637 312.556 103.097C312.556 105.557 314.236 107.197 316.476 107.197ZM337.835 97.7567C340.395 97.7567 342.075 99.2367 342.075 102.257V108.357H340.655V102.397C340.655 100.177 339.535 99.0367 337.635 99.0367C335.475 99.0367 334.115 100.437 334.115 102.837V108.357H332.695V102.397C332.695 100.177 331.575 99.0367 329.655 99.0367C327.515 99.0367 326.135 100.437 326.135 102.837V108.357H324.715V97.8367H326.075V99.7567C326.815 98.4967 328.175 97.7567 329.935 97.7567C331.675 97.7567 333.035 98.4967 333.675 99.9767C334.435 98.6167 335.935 97.7567 337.835 97.7567ZM346.646 95.5367C346.066 95.5367 345.606 95.0767 345.606 94.5167C345.606 93.9767 346.066 93.5167 346.646 93.5167C347.226 93.5167 347.686 93.9567 347.686 94.4967C347.686 95.0767 347.246 95.5367 346.646 95.5367ZM345.926 108.357V97.8367H347.346V108.357H345.926ZM356.657 97.7567C359.217 97.7567 360.977 99.2367 360.977 102.257V108.357H359.557V102.397C359.557 100.177 358.397 99.0367 356.397 99.0367C354.137 99.0367 352.717 100.437 352.717 102.837V108.357H351.297V97.8367H352.657V99.7767C353.417 98.4967 354.837 97.7567 356.657 97.7567ZM368.513 97.7567C371.233 97.7567 372.773 99.1167 372.773 101.837V108.357H371.413V106.717C370.773 107.797 369.533 108.457 367.793 108.457C365.413 108.457 363.953 107.217 363.953 105.397C363.953 103.777 364.993 102.417 368.013 102.417H371.353V101.777C371.353 99.9767 370.333 98.9967 368.373 98.9967C367.013 98.9967 365.733 99.4767 364.873 100.237L364.233 99.1767C365.293 98.2767 366.853 97.7567 368.513 97.7567ZM368.013 107.337C369.613 107.337 370.793 106.577 371.353 105.197V103.477H368.053C366.013 103.477 365.353 104.277 365.353 105.357C365.353 106.577 366.333 107.337 368.013 107.337ZM381.669 106.697L382.169 107.717C381.609 108.217 380.769 108.457 379.949 108.457C377.969 108.457 376.869 107.337 376.869 105.397V99.0367H374.989V97.8367H376.869V95.5367H378.289V97.8367H381.489V99.0367H378.289V105.317C378.289 106.557 378.929 107.237 380.109 107.237C380.689 107.237 381.269 107.057 381.669 106.697ZM385.474 95.5367C384.894 95.5367 384.434 95.0767 384.434 94.5167C384.434 93.9767 384.894 93.5167 385.474 93.5167C386.054 93.5167 386.514 93.9567 386.514 94.4967C386.514 95.0767 386.074 95.5367 385.474 95.5367ZM384.754 108.357V97.8367H386.174V108.357H384.754ZM394.426 108.457C391.346 108.457 389.066 106.217 389.066 103.097C389.066 99.9767 391.346 97.7567 394.426 97.7567C397.506 97.7567 399.766 99.9767 399.766 103.097C399.766 106.217 397.506 108.457 394.426 108.457ZM394.426 107.197C396.666 107.197 398.326 105.557 398.326 103.097C398.326 100.637 396.666 98.9967 394.426 98.9967C392.186 98.9967 390.506 100.637 390.506 103.097C390.506 105.557 392.186 107.197 394.426 107.197ZM408.025 97.7567C410.585 97.7567 412.345 99.2367 412.345 102.257V108.357H410.925V102.397C410.925 100.177 409.765 99.0367 407.765 99.0367C405.505 99.0367 404.085 100.437 404.085 102.837V108.357H402.665V97.8367H404.025V99.7767C404.785 98.4967 406.205 97.7567 408.025 97.7567ZM419.02 108.457C417.28 108.457 415.6 107.897 414.74 107.157L415.38 106.037C416.22 106.697 417.64 107.217 419.12 107.217C421.12 107.217 421.94 106.537 421.94 105.497C421.94 102.757 415.12 104.917 415.12 100.757C415.12 99.0367 416.6 97.7567 419.28 97.7567C420.64 97.7567 422.12 98.1367 423 98.7367L422.38 99.8767C421.46 99.2367 420.36 98.9767 419.28 98.9767C417.38 98.9767 416.54 99.7167 416.54 100.717C416.54 103.557 423.36 101.417 423.36 105.457C423.36 107.277 421.76 108.457 419.02 108.457Z" fill="#211433"/>
<path d="M303.962 97.7567C306.522 97.7567 308.282 99.2367 308.282 102.257V108.357H306.862V102.397C306.862 100.177 305.702 99.0367 303.702 99.0367C301.442 99.0367 300.022 100.437 300.022 102.837V108.357H298.602V97.8367H299.962V99.7767C300.722 98.4967 302.142 97.7567 303.962 97.7567ZM316.476 108.457C313.396 108.457 311.116 106.217 311.116 103.097C311.116 99.9767 313.396 97.7567 316.476 97.7567C319.556 97.7567 321.816 99.9767 321.816 103.097C321.816 106.217 319.556 108.457 316.476 108.457ZM316.476 107.197C318.716 107.197 320.376 105.557 320.376 103.097C320.376 100.637 318.716 98.9967 316.476 98.9967C314.236 98.9967 312.556 100.637 312.556 103.097C312.556 105.557 314.236 107.197 316.476 107.197ZM337.835 97.7567C340.395 97.7567 342.075 99.2367 342.075 102.257V108.357H340.655V102.397C340.655 100.177 339.535 99.0367 337.635 99.0367C335.475 99.0367 334.115 100.437 334.115 102.837V108.357H332.695V102.397C332.695 100.177 331.575 99.0367 329.655 99.0367C327.515 99.0367 326.135 100.437 326.135 102.837V108.357H324.715V97.8367H326.075V99.7567C326.815 98.4967 328.175 97.7567 329.935 97.7567C331.675 97.7567 333.035 98.4967 333.675 99.9767C334.435 98.6167 335.935 97.7567 337.835 97.7567ZM346.646 95.5367C346.066 95.5367 345.606 95.0767 345.606 94.5167C345.606 93.9767 346.066 93.5167 346.646 93.5167C347.226 93.5167 347.686 93.9567 347.686 94.4967C347.686 95.0767 347.246 95.5367 346.646 95.5367ZM345.926 108.357V97.8367H347.346V108.357H345.926ZM356.657 97.7567C359.217 97.7567 360.977 99.2367 360.977 102.257V108.357H359.557V102.397C359.557 100.177 358.397 99.0367 356.397 99.0367C354.137 99.0367 352.717 100.437 352.717 102.837V108.357H351.297V97.8367H352.657V99.7767C353.417 98.4967 354.837 97.7567 356.657 97.7567ZM368.513 97.7567C371.233 97.7567 372.773 99.1167 372.773 101.837V108.357H371.413V106.717C370.773 107.797 369.533 108.457 367.793 108.457C365.413 108.457 363.953 107.217 363.953 105.397C363.953 103.777 364.993 102.417 368.013 102.417H371.353V101.777C371.353 99.9767 370.333 98.9967 368.373 98.9967C367.013 98.9967 365.733 99.4767 364.873 100.237L364.233 99.1767C365.293 98.2767 366.853 97.7567 368.513 97.7567ZM368.013 107.337C369.613 107.337 370.793 106.577 371.353 105.197V103.477H368.053C366.013 103.477 365.353 104.277 365.353 105.357C365.353 106.577 366.333 107.337 368.013 107.337ZM381.669 106.697L382.169 107.717C381.609 108.217 380.769 108.457 379.949 108.457C377.969 108.457 376.869 107.337 376.869 105.397V99.0367H374.989V97.8367H376.869V95.5367H378.289V97.8367H381.489V99.0367H378.289V105.317C378.289 106.557 378.929 107.237 380.109 107.237C380.689 107.237 381.269 107.057 381.669 106.697ZM385.474 95.5367C384.894 95.5367 384.434 95.0767 384.434 94.5167C384.434 93.9767 384.894 93.5167 385.474 93.5167C386.054 93.5167 386.514 93.9567 386.514 94.4967C386.514 95.0767 386.074 95.5367 385.474 95.5367ZM384.754 108.357V97.8367H386.174V108.357H384.754ZM394.426 108.457C391.346 108.457 389.066 106.217 389.066 103.097C389.066 99.9767 391.346 97.7567 394.426 97.7567C397.506 97.7567 399.766 99.9767 399.766 103.097C399.766 106.217 397.506 108.457 394.426 108.457ZM394.426 107.197C396.666 107.197 398.326 105.557 398.326 103.097C398.326 100.637 396.666 98.9967 394.426 98.9967C392.186 98.9967 390.506 100.637 390.506 103.097C390.506 105.557 392.186 107.197 394.426 107.197ZM408.025 97.7567C410.585 97.7567 412.345 99.2367 412.345 102.257V108.357H410.925V102.397C410.925 100.177 409.765 99.0367 407.765 99.0367C405.505 99.0367 404.085 100.437 404.085 102.837V108.357H402.665V97.8367H404.025V99.7767C404.785 98.4967 406.205 97.7567 408.025 97.7567ZM419.02 108.457C417.28 108.457 415.6 107.897 414.74 107.157L415.38 106.037C416.22 106.697 417.64 107.217 419.12 107.217C421.12 107.217 421.94 106.537 421.94 105.497C421.94 102.757 415.12 104.917 415.12 100.757C415.12 99.0367 416.6 97.7567 419.28 97.7567C420.64 97.7567 422.12 98.1367 423 98.7367L422.38 99.8767C421.46 99.2367 420.36 98.9767 419.28 98.9767C417.38 98.9767 416.54 99.7167 416.54 100.717C416.54 103.557 423.36 101.417 423.36 105.457C423.36 107.277 421.76 108.457 419.02 108.457Z" fill="#211433"/>
<path d="M593.09 24.9482C587.665 24.9482 583.665 21.1232 583.665 15.9482C583.665 10.7732 587.665 6.94824 593.09 6.94824C598.515 6.94824 602.515 10.7482 602.515 15.9482C602.515 21.1482 598.515 24.9482 593.09 24.9482ZM593.09 22.0982C596.615 22.0982 599.24 19.5232 599.24 15.9482C599.24 12.3732 596.615 9.79824 593.09 9.79824C589.565 9.79824 586.94 12.3732 586.94 15.9482C586.94 19.5232 589.565 22.0982 593.09 22.0982ZM613.06 11.1982C616.96 11.1982 619.835 13.8982 619.835 18.0232C619.835 22.1732 616.96 24.8732 613.06 24.8732C611.36 24.8732 609.86 24.2982 608.785 23.0732V29.5482H605.66V11.3482H608.635V13.0982C609.685 11.8232 611.235 11.1982 613.06 11.1982ZM612.71 22.1982C614.96 22.1982 616.66 20.5732 616.66 18.0232C616.66 15.4732 614.96 13.8482 612.71 13.8482C610.46 13.8482 608.735 15.4732 608.735 18.0232C608.735 20.5732 610.46 22.1982 612.71 22.1982ZM635.349 18.0982C635.349 18.3482 635.324 18.7232 635.299 19.0232H624.824C625.199 20.9732 626.824 22.2232 629.149 22.2232C630.649 22.2232 631.824 21.7482 632.774 20.7732L634.449 22.6982C633.249 24.1232 631.374 24.8732 629.074 24.8732C624.599 24.8732 621.699 21.9982 621.699 18.0232C621.699 14.0482 624.624 11.1982 628.599 11.1982C632.499 11.1982 635.349 13.9232 635.349 18.0982ZM628.599 13.6982C626.574 13.6982 625.099 14.9982 624.799 16.9482H632.374C632.124 15.0232 630.649 13.6982 628.599 13.6982ZM641.326 13.2982C642.226 11.8982 643.851 11.1982 646.076 11.1982V14.1732C645.801 14.1232 645.576 14.0982 645.351 14.0982C642.976 14.0982 641.476 15.4982 641.476 18.2232V24.6982H638.351V11.3482H641.326V13.2982ZM653.754 11.1982C657.604 11.1982 659.829 13.0232 659.829 16.8732V24.6982H656.879V23.0732C656.129 24.2232 654.679 24.8732 652.679 24.8732C649.629 24.8732 647.704 23.1982 647.704 20.8732C647.704 18.6482 649.204 16.8982 653.254 16.8982H656.704V16.6982C656.704 14.8732 655.604 13.7982 653.379 13.7982C651.879 13.7982 650.329 14.2982 649.329 15.1232L648.104 12.8482C649.529 11.7482 651.604 11.1982 653.754 11.1982ZM653.329 22.5982C654.854 22.5982 656.179 21.8982 656.704 20.5232V18.9732H653.479C651.354 18.9732 650.779 19.7732 650.779 20.7482C650.779 21.8732 651.729 22.5982 653.329 22.5982ZM670.989 21.7482L671.864 23.9732C671.114 24.5732 669.989 24.8732 668.864 24.8732C665.939 24.8732 664.264 23.3232 664.264 20.3732V13.9482H662.064V11.4482H664.264V8.39824H667.389V11.4482H670.964V13.9482H667.389V20.2982C667.389 21.5982 668.039 22.2982 669.239 22.2982C669.889 22.2982 670.514 22.1232 670.989 21.7482ZM679.995 24.8732C675.895 24.8732 672.895 22.0232 672.895 18.0232C672.895 14.0232 675.895 11.1982 679.995 11.1982C684.145 11.1982 687.12 14.0232 687.12 18.0232C687.12 22.0232 684.145 24.8732 679.995 24.8732ZM679.995 22.1982C682.27 22.1982 683.97 20.5732 683.97 18.0232C683.97 15.4732 682.27 13.8482 679.995 13.8482C677.745 13.8482 676.045 15.4732 676.045 18.0232C676.045 20.5732 677.745 22.1982 679.995 22.1982ZM693.084 13.2982C693.984 11.8982 695.609 11.1982 697.834 11.1982V14.1732C697.559 14.1232 697.334 14.0982 697.109 14.0982C694.734 14.0982 693.234 15.4982 693.234 18.2232V24.6982H690.109V11.3482H693.084V13.2982ZM704.658 24.8732C702.433 24.8732 700.208 24.2232 699.008 23.3732L700.208 20.9982C701.383 21.7732 703.183 22.3232 704.858 22.3232C706.833 22.3232 707.658 21.7732 707.658 20.8482C707.658 18.2982 699.408 20.6982 699.408 15.3732C699.408 12.8482 701.683 11.1982 705.283 11.1982C707.058 11.1982 709.083 11.6232 710.283 12.3482L709.083 14.7232C707.808 13.9732 706.533 13.7232 705.258 13.7232C703.358 13.7232 702.458 14.3482 702.458 15.2232C702.458 17.9232 710.708 15.5232 710.708 20.7482C710.708 23.2482 708.408 24.8732 704.658 24.8732Z" fill="#211433"/>
<circle cx="5.75342" cy="79.3618" r="5.18701" fill="#CDE6B2" stroke="#211433"/>
<circle cx="20.7534" cy="79.3618" r="5.18701" fill="#CDE6B2" stroke="#211433"/>
<circle cx="35.7534" cy="79.3618" r="5.18701" fill="#CDE6B2" stroke="#211433"/>
<circle cx="50.7534" cy="79.3618" r="5.18701" fill="#CDE6B2" stroke="#211433"/>
<circle cx="65.7534" cy="79.3618" r="5.18701" fill="#CDE6B2" stroke="#211433"/>
<circle cx="5.75342" cy="95.1118" r="5.18701" fill="#CDE6B2" stroke="#211433"/>
<circle cx="20.7534" cy="95.1118" r="5.18701" fill="#CDE6B2" stroke="#211433"/>
<circle cx="35.7534" cy="95.1118" r="5.18701" fill="#CDE6B2" stroke="#211433"/>
<circle cx="50.7534" cy="95.1118" r="5.18701" fill="#CDE6B2" stroke="#211433"/>
<circle cx="65.7534" cy="95.1118" r="5.18701" fill="#CDE6B2" stroke="#211433"/>
<circle cx="5.75342" cy="110.862" r="5.18701" fill="#CDE6B2" stroke="#211433"/>
<circle cx="20.7534" cy="110.862" r="5.18701" fill="#CDE6B2" stroke="#211433"/>
<circle cx="35.7534" cy="110.862" r="5.18701" fill="#CDE6B2" stroke="#211433"/>
<circle cx="50.7534" cy="110.862" r="5.18701" fill="#CDE6B2" stroke="#211433"/>
<circle cx="65.7534" cy="110.862" r="5.18701" fill="#CDE6B2" stroke="#211433"/>
<circle cx="5.75342" cy="126.612" r="5.18701" fill="#CDE6B2" stroke="#211433"/>
<circle cx="20.7534" cy="126.612" r="5.18701" fill="#CDE6B2" stroke="#211433"/>
<circle cx="35.7534" cy="126.612" r="5.18701" fill="#CDE6B2" stroke="#211433"/>
<circle cx="50.7534" cy="126.612" r="5.18701" fill="#CDE6B2" stroke="#211433"/>
<circle cx="65.7534" cy="126.612" r="5.18701" fill="#CDE6B2" stroke="#211433"/>
<circle cx="5.75342" cy="142.362" r="5.18701" fill="#CDE6B2" stroke="#211433"/>
<circle cx="20.7534" cy="142.362" r="5.18701" fill="#CDE6B2" stroke="#211433"/>
<circle cx="35.7534" cy="142.362" r="5.18701" fill="#CDE6B2" stroke="#211433"/>
<circle cx="50.7534" cy="142.362" r="5.18701" fill="#CDE6B2" stroke="#211433"/>
<circle cx="65.7534" cy="142.362" r="5.18701" fill="#CDE6B2" stroke="#211433"/>
<circle cx="5.75342" cy="172.755" r="5.18701" fill="#91C757" stroke="#211433"/>
<circle cx="20.7534" cy="172.755" r="5.18701" fill="#91C757" stroke="#211433"/>
<circle cx="35.7534" cy="172.755" r="5.18701" fill="#91C757" stroke="#211433"/>
<circle cx="50.7534" cy="172.755" r="5.18701" fill="#91C757" stroke="#211433"/>
<circle cx="65.7534" cy="172.755" r="5.18701" fill="#91C757" stroke="#211433"/>
<circle cx="5.75342" cy="188.505" r="5.18701" fill="#91C757" stroke="#211433"/>
<circle cx="20.7534" cy="188.505" r="5.18701" fill="#91C757" stroke="#211433"/>
<circle cx="35.7534" cy="188.505" r="5.18701" fill="#91C757" stroke="#211433"/>
<circle cx="50.7534" cy="188.505" r="5.18701" fill="#91C757" stroke="#211433"/>
<circle cx="65.7534" cy="188.505" r="5.18701" fill="#91C757" stroke="#211433"/>
<circle cx="5.75342" cy="204.255" r="5.18701" fill="#91C757" stroke="#211433"/>
<circle cx="20.7534" cy="204.255" r="5.18701" fill="#91C757" stroke="#211433"/>
<circle cx="35.7534" cy="204.255" r="5.18701" fill="#91C757" stroke="#211433"/>
<circle cx="50.7534" cy="204.255" r="5.18701" fill="#91C757" stroke="#211433"/>
<circle cx="65.7534" cy="204.255" r="5.18701" fill="#91C757" stroke="#211433"/>
<circle cx="5.75342" cy="220.005" r="5.18701" fill="#91C757" stroke="#211433"/>
<circle cx="20.7534" cy="220.005" r="5.18701" fill="#91C757" stroke="#211433"/>
<circle cx="35.7534" cy="220.005" r="5.18701" fill="#91C757" stroke="#211433"/>
<circle cx="50.7534" cy="220.005" r="5.18701" fill="#91C757" stroke="#211433"/>
<circle cx="65.7534" cy="220.005" r="5.18701" fill="#91C757" stroke="#211433"/>
<circle cx="5.75342" cy="235.755" r="5.18701" fill="#91C757" stroke="#211433"/>
<circle cx="20.7534" cy="235.755" r="5.18701" fill="#91C757" stroke="#211433"/>
<circle cx="35.7534" cy="235.755" r="5.18701" fill="#91C757" stroke="#211433"/>
<circle cx="50.7534" cy="235.755" r="5.18701" fill="#91C757" stroke="#211433"/>
<circle cx="65.7534" cy="235.755" r="5.18701" fill="#91C757" stroke="#211433"/>
<circle cx="5.75342" cy="265.755" r="5.18701" fill="#BA9FE7" stroke="#211433"/>
<circle cx="20.7534" cy="265.755" r="5.18701" fill="#BA9FE7" stroke="#211433"/>
<circle cx="35.7534" cy="265.755" r="5.18701" fill="#BA9FE7" stroke="#211433"/>
<circle cx="50.7534" cy="265.755" r="5.18701" fill="#BA9FE7" stroke="#211433"/>
<circle cx="65.7534" cy="265.755" r="5.18701" fill="#BA9FE7" stroke="#211433"/>
<circle cx="5.75342" cy="281.505" r="5.18701" fill="#BA9FE7" stroke="#211433"/>
<circle cx="20.7534" cy="281.505" r="5.18701" fill="#BA9FE7" stroke="#211433"/>
<circle cx="35.7534" cy="281.505" r="5.18701" fill="#BA9FE7" stroke="#211433"/>
<circle cx="50.7534" cy="281.505" r="5.18701" fill="#BA9FE7" stroke="#211433"/>
<circle cx="65.7534" cy="281.505" r="5.18701" fill="#BA9FE7" stroke="#211433"/>
<circle cx="5.75342" cy="297.255" r="5.18701" fill="#BA9FE7" stroke="#211433"/>
<circle cx="20.7534" cy="297.255" r="5.18701" fill="#BA9FE7" stroke="#211433"/>
<circle cx="35.7534" cy="297.255" r="5.18701" fill="#BA9FE7" stroke="#211433"/>
<circle cx="50.7534" cy="297.255" r="5.18701" fill="#BA9FE7" stroke="#211433"/>
<circle cx="65.7534" cy="297.255" r="5.18701" fill="#BA9FE7" stroke="#211433"/>
<circle cx="5.75342" cy="343.005" r="5.18701" fill="#BA9FE7" stroke="#211433"/>
<circle cx="20.7534" cy="343.005" r="5.18701" fill="#BA9FE7" stroke="#211433"/>
<circle cx="35.7534" cy="343.005" r="5.18701" fill="#BA9FE7" stroke="#211433"/>
<circle cx="50.7534" cy="343.005" r="5.18701" fill="#BA9FE7" stroke="#211433"/>
<circle cx="65.7534" cy="343.005" r="5.18701" fill="#BA9FE7" stroke="#211433"/>
<circle cx="5.75342" cy="328.755" r="5.18701" fill="#BA9FE7" stroke="#211433"/>
<circle cx="20.7534" cy="328.755" r="5.18701" fill="#BA9FE7" stroke="#211433"/>
<circle cx="35.7534" cy="328.755" r="5.18701" fill="#BA9FE7" stroke="#211433"/>
<circle cx="50.7534" cy="328.755" r="5.18701" fill="#BA9FE7" stroke="#211433"/>
<circle cx="65.7534" cy="328.755" r="5.18701" fill="#BA9FE7" stroke="#211433"/>
<circle cx="97.7212" cy="157.755" r="5.18701" fill="#91C757" stroke="#211433"/>
<circle cx="112.721" cy="157.755" r="5.18701" fill="#91C757" stroke="#211433"/>
<circle cx="127.721" cy="157.755" r="5.18701" fill="#91C757" stroke="#211433"/>
<circle cx="142.721" cy="157.755" r="5.18701" fill="#91C757" stroke="#211433"/>
<circle cx="157.721" cy="157.755" r="5.18701" fill="#91C757" stroke="#211433"/>
<circle cx="173.007" cy="157.755" r="5.18701" fill="#91C757" stroke="#211433"/>
<circle cx="188.007" cy="157.755" r="5.18701" fill="#91C757" stroke="#211433"/>
<circle cx="173.007" cy="172.505" r="5.18701" fill="#91C757" stroke="#211433"/>
<circle cx="188.007" cy="172.505" r="5.18701" fill="#91C757" stroke="#211433"/>
<circle cx="97.7212" cy="172.505" r="5.18701" fill="#91C757" stroke="#211433"/>
<circle cx="112.721" cy="172.505" r="5.18701" fill="#91C757" stroke="#211433"/>
<circle cx="127.721" cy="172.505" r="5.18701" fill="#91C757" stroke="#211433"/>
<circle cx="142.721" cy="172.505" r="5.18701" fill="#91C757" stroke="#211433"/>
<circle cx="157.721" cy="172.505" r="5.18701" fill="#91C757" stroke="#211433"/>
<circle cx="97.7212" cy="204.255" r="5.18701" fill="#91C757" stroke="#211433"/>
<circle cx="112.721" cy="204.255" r="5.18701" fill="#91C757" stroke="#211433"/>
<circle cx="127.721" cy="204.255" r="5.18701" fill="#91C757" stroke="#211433"/>
<circle cx="97.7212" cy="220.005" r="5.18701" fill="#91C757" stroke="#211433"/>
<circle cx="112.721" cy="220.005" r="5.18701" fill="#91C757" stroke="#211433"/>
<circle cx="127.721" cy="220.005" r="5.18701" fill="#91C757" stroke="#211433"/>
<circle cx="97.7212" cy="235.755" r="5.18701" fill="#91C757" stroke="#211433"/>
<circle cx="112.721" cy="235.755" r="5.18701" fill="#91C757" stroke="#211433"/>
<circle cx="127.721" cy="235.755" r="5.18701" fill="#91C757" stroke="#211433"/>
<circle cx="159.471" cy="204.255" r="5.18701" fill="#91C757" stroke="#211433"/>
<circle cx="174.471" cy="204.255" r="5.18701" fill="#91C757" stroke="#211433"/>
<circle cx="189.471" cy="204.255" r="5.18701" fill="#91C757" stroke="#211433"/>
<circle cx="159.471" cy="220.005" r="5.18701" fill="#91C757" stroke="#211433"/>
<circle cx="174.471" cy="220.005" r="5.18701" fill="#91C757" stroke="#211433"/>
<circle cx="189.471" cy="220.005" r="5.18701" fill="#91C757" stroke="#211433"/>
<circle cx="159.471" cy="235.755" r="5.18701" fill="#91C757" stroke="#211433"/>
<circle cx="174.471" cy="235.755" r="5.18701" fill="#91C757" stroke="#211433"/>
<circle cx="189.471" cy="235.755" r="5.18701" fill="#91C757" stroke="#211433"/>
<circle cx="97.0073" cy="78.4912" r="5.18701" fill="#CDE6B2" stroke="#211433"/>
<circle cx="112.007" cy="78.4912" r="5.18701" fill="#CDE6B2" stroke="#211433"/>
<circle cx="127.007" cy="78.4912" r="5.18701" fill="#CDE6B2" stroke="#211433"/>
<circle cx="142.007" cy="78.4912" r="5.18701" fill="#CDE6B2" stroke="#211433"/>
<circle cx="157.007" cy="78.4912" r="5.18701" fill="#CDE6B2" stroke="#211433"/>
<circle cx="97.0073" cy="94.2412" r="5.18701" fill="#CDE6B2" stroke="#211433"/>
<circle cx="112.007" cy="94.2412" r="5.18701" fill="#CDE6B2" stroke="#211433"/>
<circle cx="127.007" cy="94.2412" r="5.18701" fill="#CDE6B2" stroke="#211433"/>
<circle cx="142.007" cy="94.2412" r="5.18701" fill="#CDE6B2" stroke="#211433"/>
<circle cx="157.007" cy="94.2412" r="5.18701" fill="#CDE6B2" stroke="#211433"/>
<circle cx="97.0073" cy="109.991" r="5.18701" fill="#CDE6B2" stroke="#211433"/>
<circle cx="112.007" cy="109.991" r="5.18701" fill="#CDE6B2" stroke="#211433"/>
<circle cx="127.007" cy="109.991" r="5.18701" fill="#CDE6B2" stroke="#211433"/>
<circle cx="142.007" cy="109.991" r="5.18701" fill="#CDE6B2" stroke="#211433"/>
<circle cx="157.007" cy="109.991" r="5.18701" fill="#CDE6B2" stroke="#211433"/>
<circle cx="97.0073" cy="125.741" r="5.18701" fill="#CDE6B2" stroke="#211433"/>
<circle cx="112.007" cy="125.741" r="5.18701" fill="#CDE6B2" stroke="#211433"/>
<circle cx="127.007" cy="125.741" r="5.18701" fill="#CDE6B2" stroke="#211433"/>
<circle cx="142.007" cy="125.741" r="5.18701" fill="#CDE6B2" stroke="#211433"/>
<circle cx="157.007" cy="125.741" r="5.18701" fill="#CDE6B2" stroke="#211433"/>
<circle cx="97.0073" cy="141.491" r="5.18701" fill="#CDE6B2" stroke="#211433"/>
<circle cx="112.007" cy="141.491" r="5.18701" fill="#CDE6B2" stroke="#211433"/>
<circle cx="127.007" cy="141.491" r="5.18701" fill="#CDE6B2" stroke="#211433"/>
<circle cx="142.007" cy="141.491" r="5.18701" fill="#CDE6B2" stroke="#211433"/>
<circle cx="157.007" cy="141.491" r="5.18701" fill="#CDE6B2" stroke="#211433"/>
<circle cx="173.007" cy="78.4912" r="5.18701" fill="#CDE6B2" stroke="#211433"/>
<circle cx="188.007" cy="78.4912" r="5.18701" fill="#CDE6B2" stroke="#211433"/>
<circle cx="173.007" cy="94.2412" r="5.18701" fill="#CDE6B2" stroke="#211433"/>
<circle cx="188.007" cy="94.2412" r="5.18701" fill="#CDE6B2" stroke="#211433"/>
<circle cx="173.007" cy="109.991" r="5.18701" fill="#CDE6B2" stroke="#211433"/>
<circle cx="188.007" cy="109.991" r="5.18701" fill="#CDE6B2" stroke="#211433"/>
<circle cx="173.007" cy="125.741" r="5.18701" fill="#CDE6B2" stroke="#211433"/>
<circle cx="188.007" cy="125.741" r="5.18701" fill="#CDE6B2" stroke="#211433"/>
<circle cx="173.007" cy="141.491" r="5.18701" fill="#CDE6B2" stroke="#211433"/>
<circle cx="188.007" cy="141.491" r="5.18701" fill="#CDE6B2" stroke="#211433"/>
<circle cx="97.0073" cy="265.491" r="5.18701" fill="#BA9FE7" stroke="#211433"/>
<circle cx="112.007" cy="265.491" r="5.18701" fill="#BA9FE7" stroke="#211433"/>
<circle cx="127.007" cy="265.491" r="5.18701" fill="#BA9FE7" stroke="#211433"/>
<circle cx="142.007" cy="265.491" r="5.18701" fill="#BA9FE7" stroke="#211433"/>
<circle cx="157.007" cy="265.491" r="5.18701" fill="#BA9FE7" stroke="#211433"/>
<circle cx="97.0073" cy="281.241" r="5.18701" fill="#BA9FE7" stroke="#211433"/>
<circle cx="112.007" cy="281.241" r="5.18701" fill="#BA9FE7" stroke="#211433"/>
<circle cx="127.007" cy="281.241" r="5.18701" fill="#BA9FE7" stroke="#211433"/>
<circle cx="142.007" cy="281.241" r="5.18701" fill="#BA9FE7" stroke="#211433"/>
<circle cx="157.007" cy="281.241" r="5.18701" fill="#BA9FE7" stroke="#211433"/>
<circle cx="97.0073" cy="296.991" r="5.18701" fill="#BA9FE7" stroke="#211433"/>
<circle cx="112.007" cy="296.991" r="5.18701" fill="#BA9FE7" stroke="#211433"/>
<circle cx="127.007" cy="296.991" r="5.18701" fill="#BA9FE7" stroke="#211433"/>
<circle cx="142.007" cy="296.991" r="5.18701" fill="#BA9FE7" stroke="#211433"/>
<circle cx="157.007" cy="296.991" r="5.18701" fill="#BA9FE7" stroke="#211433"/>
<circle cx="97.0073" cy="312.741" r="5.18701" fill="#BA9FE7" stroke="#211433"/>
<circle cx="112.007" cy="312.741" r="5.18701" fill="#BA9FE7" stroke="#211433"/>
<circle cx="127.007" cy="312.741" r="5.18701" fill="#BA9FE7" stroke="#211433"/>
<circle cx="142.007" cy="312.741" r="5.18701" fill="#BA9FE7" stroke="#211433"/>
<circle cx="157.007" cy="312.741" r="5.18701" fill="#BA9FE7" stroke="#211433"/>
<circle cx="173.007" cy="265.491" r="5.18701" fill="#BA9FE7" stroke="#211433"/>
<circle cx="188.007" cy="265.491" r="5.18701" fill="#BA9FE7" stroke="#211433"/>
<circle cx="173.007" cy="281.241" r="5.18701" fill="#BA9FE7" stroke="#211433"/>
<circle cx="188.007" cy="281.241" r="5.18701" fill="#BA9FE7" stroke="#211433"/>
<circle cx="173.007" cy="296.991" r="5.18701" fill="#BA9FE7" stroke="#211433"/>
<circle cx="188.007" cy="296.991" r="5.18701" fill="#BA9FE7" stroke="#211433"/>
<circle cx="173.007" cy="312.741" r="5.18701" fill="#BA9FE7" stroke="#211433"/>
<circle cx="188.007" cy="312.741" r="5.18701" fill="#BA9FE7" stroke="#211433"/>
<circle cx="97.0073" cy="328.491" r="5.18701" fill="#BA9FE7" stroke="#211433"/>
<circle cx="112.007" cy="328.491" r="5.18701" fill="#BA9FE7" stroke="#211433"/>
<circle cx="127.007" cy="328.491" r="5.18701" fill="#BA9FE7" stroke="#211433"/>
<circle cx="142.007" cy="328.491" r="5.18701" fill="#BA9FE7" stroke="#211433"/>
<circle cx="157.007" cy="328.491" r="5.18701" fill="#BA9FE7" stroke="#211433"/>
<circle cx="173.007" cy="328.491" r="5.18701" fill="#BA9FE7" stroke="#211433"/>
<circle cx="188.007" cy="328.491" r="5.18701" fill="#BA9FE7" stroke="#211433"/>
<circle cx="97.0073" cy="343.005" r="5.18701" fill="#BA9FE7" stroke="#211433"/>
<circle cx="112.007" cy="343.005" r="5.18701" fill="#BA9FE7" stroke="#211433"/>
<circle cx="127.007" cy="343.005" r="5.18701" fill="#BA9FE7" stroke="#211433"/>
<circle cx="142.007" cy="343.005" r="5.18701" fill="#BA9FE7" stroke="#211433"/>
<circle cx="157.007" cy="343.005" r="5.18701" fill="#BA9FE7" stroke="#211433"/>
<circle cx="173.007" cy="343.005" r="5.18701" fill="#BA9FE7" stroke="#211433"/>
<circle cx="188.007" cy="343.005" r="5.18701" fill="#BA9FE7" stroke="#211433"/>
<rect x="591.225" y="92.6133" width="122.146" height="46.0009" rx="3.5" fill="#CDE6B2" stroke="#211433"/>
<rect x="591.225" y="187.119" width="122.146" height="46.0009" rx="3.5" fill="#91C757" stroke="#211433"/>
<rect x="591.225" y="284.404" width="122.146" height="46.0009" rx="3.5" fill="#BA9FE7" stroke="#211433"/>
<path d="M584.283 209.39C560.365 209.625 545.358 198.265 536.321 190.973C534.336 189.579 527.611 183.565 516.281 175.077C499.867 162.78 466.57 159.033 443.121 158.096L193.597 158.096" stroke="#211433"/>
<path d="M194.94 203.772L583.149 210.646" stroke="#211433"/>
<path d="M578.492 209.545C554.675 209.644 539.731 204.862 530.731 201.792C528.755 201.205 522.059 198.674 510.776 195.1C494.431 189.924 461.274 188.346 437.923 187.952L71.125 187.952" stroke="#211433"/>
<path d="M578.645 211.126C548.687 210.952 537.522 226.866 514.184 238.983C492.346 250.321 472.018 248.971 449.955 249.496L136.204 249.496C131.438 249.496 127.575 245.633 127.575 240.868V240.868" stroke="#211433"/>
<path d="M590.893 210.582L576.299 217.78L576.299 203.383L590.893 210.582Z" fill="#211433"/>
<path d="M581.54 305.868C557.226 306.107 541.97 294.509 532.783 287.064C530.766 285.641 523.93 279.5 512.412 270.834C495.726 258.279 461.877 254.453 438.04 253.496L68.5891 253.496C66.7072 253.496 65.1816 255.022 65.1816 256.904V256.904L65.1816 260.069" stroke="#211433"/>
<path d="M193.657 312.56L580.729 306.331" stroke="#211433"/>
<path d="M580.459 306.922C557.882 306.703 543.716 317.359 535.185 324.199C533.312 325.507 526.964 331.148 516.269 339.111C500.775 350.646 469.344 354.161 447.21 355.04L72.732 355.04C68.7633 355.04 65.546 351.823 65.5461 347.854V347.854" stroke="#211433"/>
<path d="M591.399 306.582L576.806 313.78L576.806 299.383L591.399 306.582Z" fill="#211433"/>
<path d="M193.492 141.711L462.069 141.711C479.166 141.208 503.445 139.2 515.413 132.609C523.674 128.06 528.577 124.836 530.025 124.089C536.614 120.181 547.556 114.093 564.996 114.218L590.563 114.218" stroke="#211433"/>
<path d="M584.283 113.588C561.54 113.834 547.269 101.888 538.676 94.2208C536.789 92.7549 530.394 86.4305 519.621 77.505C504.012 64.5744 472.35 60.6337 450.052 59.6485L79.8935 59.6485C71.9858 59.6485 65.5753 66.0591 65.5754 73.9669V73.9669" stroke="#211433"/>
<path d="M591.06 113.779L576.466 106.58L576.466 120.978L591.06 113.779Z" fill="#211433"/>
</svg>
