<svg width="547" height="416" viewBox="0 0 547 416" fill="none" xmlns="http://www.w3.org/2000/svg">
<path d="M1.48764 4.91211C1.48764 2.97911 3.05464 1.41211 4.98764 1.41211H542.312C544.245 1.41211 545.812 2.97912 545.812 4.91211V48.2511C545.812 50.1841 544.245 51.7511 542.312 51.7511H4.98763C3.05464 51.7511 1.48764 50.1841 1.48764 48.2511V4.91211Z" fill="#CDE6B2" stroke="#211433"/>
<path d="M2.68872 5.86127C16.1955 5.86127 22.8028 17.0821 29.1925 27.9305C35.1559 38.0569 40.7873 47.6257 51.8673 47.6257C62.9474 47.6257 68.5836 38.0569 74.547 27.9305C80.9309 17.0821 87.5372 5.86127 101.045 5.86127C114.553 5.86127 121.159 17.0821 127.549 27.9305C133.512 38.0569 139.144 47.6257 150.228 47.6257C161.313 47.6257 166.94 38.0569 172.903 27.9305C179.291 17.0821 185.893 5.86127 199.405 5.86127C212.917 5.86127 219.519 17.0821 225.904 27.9305C231.872 38.0569 237.504 47.6257 248.584 47.6257C259.664 47.6257 265.295 38.0569 271.263 27.9305C277.647 17.0821 284.254 5.86127 297.761 5.86127C311.269 5.86127 317.875 17.0821 324.265 27.9305C330.229 38.0569 335.86 47.6257 346.94 47.6257C358.02 47.6257 363.656 38.0569 369.62 27.9305C376.007 17.0821 382.61 5.86127 396.121 5.86127C409.633 5.86127 416.236 17.0821 422.625 27.9305C428.589 38.0569 434.22 47.6257 445.3 47.6257C456.38 47.6257 462.016 38.0569 467.98 27.9305C474.363 17.0821 480.97 5.86127 494.482 5.86127C507.993 5.86127 514.596 17.0821 520.981 27.9305C526.949 38.0569 532.58 47.6257 543.66 47.6257" stroke="#83BB46" stroke-width="2" stroke-miterlimit="10"/>
<path d="M57.8231 1.61554V52.1695" stroke="black" stroke-dasharray="2 2"/>
<path d="M116.454 1.61554V52.1695" stroke="black" stroke-dasharray="2 2"/>
<path d="M496.954 1.61554V52.1695" stroke="black" stroke-dasharray="2 2"/>
<path d="M440.717 1.61554V52.1695" stroke="black" stroke-dasharray="2 2"/>
<path d="M384.479 1.61554V52.1695" stroke="black" stroke-dasharray="2 2"/>
<path d="M1.48764 105.422C1.48764 103.489 3.05464 101.922 4.98764 101.922H542.312C544.245 101.922 545.812 103.489 545.812 105.422V148.761C545.812 150.694 544.245 152.261 542.312 152.261H4.98763C3.05464 152.261 1.48764 150.694 1.48764 148.761V105.422Z" fill="#F4F1F7" stroke="#211433"/>
<path d="M57.8231 102.125V152.679" stroke="black" stroke-dasharray="2 2"/>
<path d="M116.454 102.125V152.679" stroke="black" stroke-dasharray="2 2"/>
<path d="M496.954 102.125V152.679" stroke="black" stroke-dasharray="2 2"/>
<path d="M440.717 102.125V152.679" stroke="black" stroke-dasharray="2 2"/>
<path d="M384.479 102.125V152.679" stroke="black" stroke-dasharray="2 2"/>
<path d="M1.48764 256.186C1.48764 254.253 3.05464 252.686 4.98764 252.686H542.312C544.245 252.686 545.812 254.253 545.812 256.186V299.525C545.812 301.458 544.245 303.025 542.312 303.025H4.98763C3.05464 303.025 1.48764 301.458 1.48764 299.525V256.186Z" fill="#F4F1F7" stroke="#211433"/>
<path d="M57.8231 252.889V303.443" stroke="black" stroke-dasharray="2 2"/>
<path d="M116.454 252.889V303.443" stroke="black" stroke-dasharray="2 2"/>
<path d="M496.954 252.889V303.443" stroke="black" stroke-dasharray="2 2"/>
<path d="M440.717 252.889V303.443" stroke="black" stroke-dasharray="2 2"/>
<path d="M384.479 252.889V303.443" stroke="black" stroke-dasharray="2 2"/>
<path d="M1.48764 368.661C1.48764 366.728 3.05464 365.161 4.98764 365.161H542.312C544.245 365.161 545.812 366.728 545.812 368.661V412C545.812 413.933 544.245 415.5 542.312 415.5H4.98763C3.05464 415.5 1.48764 413.933 1.48764 412V368.661Z" fill="#F4F1F7" stroke="#211433"/>
<path d="M57.8231 365.364V415.918" stroke="black" stroke-dasharray="2 2"/>
<path d="M116.454 365.364V415.918" stroke="black" stroke-dasharray="2 2"/>
<path d="M496.954 365.364V415.918" stroke="black" stroke-dasharray="2 2"/>
<path d="M440.717 365.364V415.918" stroke="black" stroke-dasharray="2 2"/>
<path d="M384.479 365.364V415.918" stroke="black" stroke-dasharray="2 2"/>
<path d="M236.905 133.09C236.055 133.09 235.305 132.915 234.655 132.565C234.015 132.215 233.515 131.735 233.155 131.125C232.805 130.515 232.63 129.815 232.63 129.025C232.63 128.235 232.8 127.535 233.14 126.925C233.49 126.315 233.965 125.84 234.565 125.5C235.175 125.15 235.86 124.975 236.62 124.975C237.39 124.975 238.07 125.145 238.66 125.485C239.25 125.825 239.71 126.305 240.04 126.925C240.38 127.535 240.55 128.25 240.55 129.07C240.55 129.13 240.545 129.2 240.535 129.28C240.535 129.36 240.53 129.435 240.52 129.505H233.755V128.47H239.77L239.185 128.83C239.195 128.32 239.09 127.865 238.87 127.465C238.65 127.065 238.345 126.755 237.955 126.535C237.575 126.305 237.13 126.19 236.62 126.19C236.12 126.19 235.675 126.305 235.285 126.535C234.895 126.755 234.59 127.07 234.37 127.48C234.15 127.88 234.04 128.34 234.04 128.86V129.1C234.04 129.63 234.16 130.105 234.4 130.525C234.65 130.935 234.995 131.255 235.435 131.485C235.875 131.715 236.38 131.83 236.95 131.83C237.42 131.83 237.845 131.75 238.225 131.59C238.615 131.43 238.955 131.19 239.245 130.87L240.04 131.8C239.68 132.22 239.23 132.54 238.69 132.76C238.16 132.98 237.565 133.09 236.905 133.09ZM241.175 133L244.595 128.56L244.58 129.295L241.325 125.05H242.93L245.42 128.32H244.805L247.295 125.05H248.87L245.57 129.325L245.585 128.56L249.035 133H247.4L244.775 129.52L245.36 129.61L242.78 133H241.175ZM253.336 133.09C252.536 133.09 251.916 132.875 251.476 132.445C251.036 132.015 250.816 131.4 250.816 130.6V123.31H252.256V130.54C252.256 130.97 252.361 131.3 252.571 131.53C252.791 131.76 253.101 131.875 253.501 131.875C253.951 131.875 254.326 131.75 254.626 131.5L255.076 132.535C254.856 132.725 254.591 132.865 254.281 132.955C253.981 133.045 253.666 133.09 253.336 133.09ZM249.466 126.235V125.05H254.536V126.235H249.466ZM260.093 133.09C259.243 133.09 258.493 132.915 257.843 132.565C257.203 132.215 256.703 131.735 256.343 131.125C255.993 130.515 255.818 129.815 255.818 129.025C255.818 128.235 255.988 127.535 256.328 126.925C256.678 126.315 257.153 125.84 257.753 125.5C258.363 125.15 259.048 124.975 259.808 124.975C260.578 124.975 261.258 125.145 261.848 125.485C262.438 125.825 262.898 126.305 263.228 126.925C263.568 127.535 263.738 128.25 263.738 129.07C263.738 129.13 263.733 129.2 263.723 129.28C263.723 129.36 263.718 129.435 263.708 129.505H256.943V128.47H262.958L262.373 128.83C262.383 128.32 262.278 127.865 262.058 127.465C261.838 127.065 261.533 126.755 261.143 126.535C260.763 126.305 260.318 126.19 259.808 126.19C259.308 126.19 258.863 126.305 258.473 126.535C258.083 126.755 257.778 127.07 257.558 127.48C257.338 127.88 257.228 128.34 257.228 128.86V129.1C257.228 129.63 257.348 130.105 257.588 130.525C257.838 130.935 258.183 131.255 258.623 131.485C259.063 131.715 259.568 131.83 260.138 131.83C260.608 131.83 261.033 131.75 261.413 131.59C261.803 131.43 262.143 131.19 262.433 130.87L263.228 131.8C262.868 132.22 262.418 132.54 261.878 132.76C261.348 132.98 260.753 133.09 260.093 133.09ZM269.983 124.975C270.633 124.975 271.203 125.1 271.693 125.35C272.193 125.6 272.583 125.98 272.863 126.49C273.143 127 273.283 127.645 273.283 128.425V133H271.843V128.59C271.843 127.82 271.653 127.24 271.273 126.85C270.903 126.46 270.378 126.265 269.698 126.265C269.188 126.265 268.743 126.365 268.363 126.565C267.983 126.765 267.688 127.06 267.478 127.45C267.278 127.84 267.178 128.325 267.178 128.905V133H265.738V125.05H267.118V127.195L266.893 126.625C267.153 126.105 267.553 125.7 268.093 125.41C268.633 125.12 269.263 124.975 269.983 124.975ZM278.228 133.09C277.568 133.09 276.938 133 276.338 132.82C275.748 132.64 275.283 132.42 274.943 132.16L275.543 131.02C275.883 131.25 276.303 131.445 276.803 131.605C277.303 131.765 277.813 131.845 278.333 131.845C279.003 131.845 279.483 131.75 279.773 131.56C280.073 131.37 280.223 131.105 280.223 130.765C280.223 130.515 280.133 130.32 279.953 130.18C279.773 130.04 279.533 129.935 279.233 129.865C278.943 129.795 278.618 129.735 278.258 129.685C277.898 129.625 277.538 129.555 277.178 129.475C276.818 129.385 276.488 129.265 276.188 129.115C275.888 128.955 275.648 128.74 275.468 128.47C275.288 128.19 275.198 127.82 275.198 127.36C275.198 126.88 275.333 126.46 275.603 126.1C275.873 125.74 276.253 125.465 276.743 125.275C277.243 125.075 277.833 124.975 278.513 124.975C279.033 124.975 279.558 125.04 280.088 125.17C280.628 125.29 281.068 125.465 281.408 125.695L280.793 126.835C280.433 126.595 280.058 126.43 279.668 126.34C279.278 126.25 278.888 126.205 278.498 126.205C277.868 126.205 277.398 126.31 277.088 126.52C276.778 126.72 276.623 126.98 276.623 127.3C276.623 127.57 276.713 127.78 276.893 127.93C277.083 128.07 277.323 128.18 277.613 128.26C277.913 128.34 278.243 128.41 278.603 128.47C278.963 128.52 279.323 128.59 279.683 128.68C280.043 128.76 280.368 128.875 280.658 129.025C280.958 129.175 281.198 129.385 281.378 129.655C281.568 129.925 281.663 130.285 281.663 130.735C281.663 131.215 281.523 131.63 281.243 131.98C280.963 132.33 280.568 132.605 280.058 132.805C279.548 132.995 278.938 133.09 278.228 133.09ZM283.463 133V125.05H284.903V133H283.463ZM284.183 123.52C283.903 123.52 283.668 123.43 283.478 123.25C283.298 123.07 283.208 122.85 283.208 122.59C283.208 122.32 283.298 122.095 283.478 121.915C283.668 121.735 283.903 121.645 284.183 121.645C284.463 121.645 284.693 121.735 284.873 121.915C285.063 122.085 285.158 122.3 285.158 122.56C285.158 122.83 285.068 123.06 284.888 123.25C284.708 123.43 284.473 123.52 284.183 123.52ZM291.057 133.09C290.257 133.09 289.547 132.915 288.927 132.565C288.307 132.215 287.817 131.735 287.457 131.125C287.097 130.505 286.917 129.805 286.917 129.025C286.917 128.235 287.097 127.535 287.457 126.925C287.817 126.315 288.307 125.84 288.927 125.5C289.547 125.15 290.257 124.975 291.057 124.975C291.847 124.975 292.552 125.15 293.172 125.5C293.802 125.84 294.292 126.315 294.642 126.925C295.002 127.525 295.182 128.225 295.182 129.025C295.182 129.815 295.002 130.515 294.642 131.125C294.292 131.735 293.802 132.215 293.172 132.565C292.552 132.915 291.847 133.09 291.057 133.09ZM291.057 131.83C291.567 131.83 292.022 131.715 292.422 131.485C292.832 131.255 293.152 130.93 293.382 130.51C293.612 130.08 293.727 129.585 293.727 129.025C293.727 128.455 293.612 127.965 293.382 127.555C293.152 127.135 292.832 126.81 292.422 126.58C292.022 126.35 291.567 126.235 291.057 126.235C290.547 126.235 290.092 126.35 289.692 126.58C289.292 126.81 288.972 127.135 288.732 127.555C288.492 127.965 288.372 128.455 288.372 129.025C288.372 129.585 288.492 130.08 288.732 130.51C288.972 130.93 289.292 131.255 289.692 131.485C290.092 131.715 290.547 131.83 291.057 131.83ZM301.419 124.975C302.069 124.975 302.639 125.1 303.129 125.35C303.629 125.6 304.019 125.98 304.299 126.49C304.579 127 304.719 127.645 304.719 128.425V133H303.279V128.59C303.279 127.82 303.089 127.24 302.709 126.85C302.339 126.46 301.814 126.265 301.134 126.265C300.624 126.265 300.179 126.365 299.799 126.565C299.419 126.765 299.124 127.06 298.914 127.45C298.714 127.84 298.614 128.325 298.614 128.905V133H297.174V125.05H298.554V127.195L298.329 126.625C298.589 126.105 298.989 125.7 299.529 125.41C300.069 125.12 300.699 124.975 301.419 124.975Z" fill="#211433"/>
<path d="M243.62 32.7102V24.6402H245.855V26.9202L245.54 26.2602C245.78 25.6902 246.165 25.2602 246.695 24.9702C247.225 24.6702 247.87 24.5202 248.63 24.5202V26.6802C248.53 26.6702 248.44 26.6652 248.36 26.6652C248.28 26.6552 248.195 26.6502 248.105 26.6502C247.465 26.6502 246.945 26.8352 246.545 27.2052C246.155 27.5652 245.96 28.1302 245.96 28.9002V32.7102H243.62ZM253.967 32.8302C253.047 32.8302 252.237 32.6502 251.537 32.2902C250.847 31.9302 250.312 31.4402 249.932 30.8202C249.552 30.1902 249.362 29.4752 249.362 28.6752C249.362 27.8652 249.547 27.1502 249.917 26.5302C250.297 25.9002 250.812 25.4102 251.462 25.0602C252.112 24.7002 252.847 24.5202 253.667 24.5202C254.457 24.5202 255.167 24.6902 255.797 25.0302C256.437 25.3602 256.942 25.8402 257.312 26.4702C257.682 27.0902 257.867 27.8352 257.867 28.7052C257.867 28.7952 257.862 28.9002 257.852 29.0202C257.842 29.1302 257.832 29.2352 257.822 29.3352H251.267V27.9702H256.592L255.692 28.3752C255.692 27.9552 255.607 27.5902 255.437 27.2802C255.267 26.9702 255.032 26.7302 254.732 26.5602C254.432 26.3802 254.082 26.2902 253.682 26.2902C253.282 26.2902 252.927 26.3802 252.617 26.5602C252.317 26.7302 252.082 26.9752 251.912 27.2952C251.742 27.6052 251.657 27.9752 251.657 28.4052V28.7652C251.657 29.2052 251.752 29.5952 251.942 29.9352C252.142 30.2652 252.417 30.5202 252.767 30.7002C253.127 30.8702 253.547 30.9552 254.027 30.9552C254.457 30.9552 254.832 30.8902 255.152 30.7602C255.482 30.6302 255.782 30.4352 256.052 30.1752L257.297 31.5252C256.927 31.9452 256.462 32.2702 255.902 32.5002C255.342 32.7202 254.697 32.8302 253.967 32.8302ZM263.325 32.8302C262.455 32.8302 261.68 32.6552 261 32.3052C260.32 31.9452 259.785 31.4502 259.395 30.8202C259.015 30.1902 258.825 29.4752 258.825 28.6752C258.825 27.8652 259.015 27.1502 259.395 26.5302C259.785 25.9002 260.32 25.4102 261 25.0602C261.68 24.7002 262.455 24.5202 263.325 24.5202C264.175 24.5202 264.915 24.7002 265.545 25.0602C266.175 25.4102 266.64 25.9152 266.94 26.5752L265.125 27.5502C264.915 27.1702 264.65 26.8902 264.33 26.7102C264.02 26.5302 263.68 26.4402 263.31 26.4402C262.91 26.4402 262.55 26.5302 262.23 26.7102C261.91 26.8902 261.655 27.1452 261.465 27.4752C261.285 27.8052 261.195 28.2052 261.195 28.6752C261.195 29.1452 261.285 29.5452 261.465 29.8752C261.655 30.2052 261.91 30.4602 262.23 30.6402C262.55 30.8202 262.91 30.9102 263.31 30.9102C263.68 30.9102 264.02 30.8252 264.33 30.6552C264.65 30.4752 264.915 30.1902 265.125 29.8002L266.94 30.7902C266.64 31.4402 266.175 31.9452 265.545 32.3052C264.915 32.6552 264.175 32.8302 263.325 32.8302ZM272.025 32.8302C271.165 32.8302 270.4 32.6502 269.73 32.2902C269.07 31.9302 268.545 31.4402 268.155 30.8202C267.775 30.1902 267.585 29.4752 267.585 28.6752C267.585 27.8652 267.775 27.1502 268.155 26.5302C268.545 25.9002 269.07 25.4102 269.73 25.0602C270.4 24.7002 271.165 24.5202 272.025 24.5202C272.875 24.5202 273.635 24.7002 274.305 25.0602C274.975 25.4102 275.5 25.8952 275.88 26.5152C276.26 27.1352 276.45 27.8552 276.45 28.6752C276.45 29.4752 276.26 30.1902 275.88 30.8202C275.5 31.4402 274.975 31.9302 274.305 32.2902C273.635 32.6502 272.875 32.8302 272.025 32.8302ZM272.025 30.9102C272.415 30.9102 272.765 30.8202 273.075 30.6402C273.385 30.4602 273.63 30.2052 273.81 29.8752C273.99 29.5352 274.08 29.1352 274.08 28.6752C274.08 28.2052 273.99 27.8052 273.81 27.4752C273.63 27.1452 273.385 26.8902 273.075 26.7102C272.765 26.5302 272.415 26.4402 272.025 26.4402C271.635 26.4402 271.285 26.5302 270.975 26.7102C270.665 26.8902 270.415 27.1452 270.225 27.4752C270.045 27.8052 269.955 28.2052 269.955 28.6752C269.955 29.1352 270.045 29.5352 270.225 29.8752C270.415 30.2052 270.665 30.4602 270.975 30.6402C271.285 30.8202 271.635 30.9102 272.025 30.9102ZM278.014 32.7102V24.6402H280.249V26.9202L279.934 26.2602C280.174 25.6902 280.559 25.2602 281.089 24.9702C281.619 24.6702 282.264 24.5202 283.024 24.5202V26.6802C282.924 26.6702 282.834 26.6652 282.754 26.6652C282.674 26.6552 282.589 26.6502 282.499 26.6502C281.859 26.6502 281.339 26.8352 280.939 27.2052C280.549 27.5652 280.354 28.1302 280.354 28.9002V32.7102H278.014ZM287.822 32.8302C287.062 32.8302 286.377 32.6602 285.767 32.3202C285.157 31.9702 284.672 31.4852 284.312 30.8652C283.962 30.2452 283.787 29.5152 283.787 28.6752C283.787 27.8252 283.962 27.0902 284.312 26.4702C284.672 25.8502 285.157 25.3702 285.767 25.0302C286.377 24.6902 287.062 24.5202 287.822 24.5202C288.502 24.5202 289.097 24.6702 289.607 24.9702C290.117 25.2702 290.512 25.7252 290.792 26.3352C291.072 26.9452 291.212 27.7252 291.212 28.6752C291.212 29.6152 291.077 30.3952 290.807 31.0152C290.537 31.6252 290.147 32.0802 289.637 32.3802C289.137 32.6802 288.532 32.8302 287.822 32.8302ZM288.227 30.9102C288.607 30.9102 288.952 30.8202 289.262 30.6402C289.572 30.4602 289.817 30.2052 289.997 29.8752C290.187 29.5352 290.282 29.1352 290.282 28.6752C290.282 28.2052 290.187 27.8052 289.997 27.4752C289.817 27.1452 289.572 26.8902 289.262 26.7102C288.952 26.5302 288.607 26.4402 288.227 26.4402C287.837 26.4402 287.487 26.5302 287.177 26.7102C286.867 26.8902 286.617 27.1452 286.427 27.4752C286.247 27.8052 286.157 28.2052 286.157 28.6752C286.157 29.1352 286.247 29.5352 286.427 29.8752C286.617 30.2052 286.867 30.4602 287.177 30.6402C287.487 30.8202 287.837 30.9102 288.227 30.9102ZM290.342 32.7102V31.0602L290.387 28.6602L290.237 26.2752V21.5802H292.577V32.7102H290.342Z" fill="#211433"/>
<path d="M218.983 273.566C221.308 273.566 223.003 275.186 223.003 277.616C223.003 280.061 221.308 281.681 218.983 281.681C217.858 281.681 216.868 281.246 216.208 280.391V284.501H214.768V273.641H216.148V274.901C216.793 274.016 217.813 273.566 218.983 273.566ZM218.863 280.421C220.393 280.421 221.548 279.311 221.548 277.616C221.548 275.936 220.393 274.826 218.863 274.826C217.348 274.826 216.193 275.936 216.193 277.616C216.193 279.311 217.348 280.421 218.863 280.421ZM226.373 274.976C226.883 274.046 227.873 273.566 229.268 273.566V274.961C229.148 274.946 229.043 274.946 228.938 274.946C227.393 274.946 226.433 275.891 226.433 277.631V281.591H224.993V273.641H226.373V274.976ZM234.374 281.681C231.989 281.681 230.234 279.986 230.234 277.616C230.234 275.246 231.989 273.566 234.374 273.566C236.759 273.566 238.499 275.246 238.499 277.616C238.499 279.986 236.759 281.681 234.374 281.681ZM234.374 280.421C235.904 280.421 237.044 279.311 237.044 277.616C237.044 275.921 235.904 274.826 234.374 274.826C232.844 274.826 231.689 275.921 231.689 277.616C231.689 279.311 232.844 280.421 234.374 280.421ZM243.896 281.681C241.511 281.681 239.756 279.986 239.756 277.616C239.756 275.246 241.511 273.566 243.896 273.566C246.281 273.566 248.021 275.246 248.021 277.616C248.021 279.986 246.281 281.681 243.896 281.681ZM243.896 280.421C245.426 280.421 246.566 279.311 246.566 277.616C246.566 275.921 245.426 274.826 243.896 274.826C242.366 274.826 241.211 275.921 241.211 277.616C241.211 279.311 242.366 280.421 243.896 280.421ZM252.922 271.556C252.067 271.556 251.632 272.036 251.632 272.951V273.641H253.942V274.826H251.662V281.591H250.222V274.826H248.872V273.641H250.222V272.936C250.222 271.391 251.152 270.371 252.847 270.371C253.462 270.371 254.062 270.521 254.467 270.836L254.032 271.931C253.732 271.706 253.342 271.556 252.922 271.556ZM257.58 281.681C256.26 281.681 254.955 281.276 254.295 280.751L254.895 279.611C255.57 280.091 256.65 280.436 257.685 280.436C259.02 280.436 259.575 280.031 259.575 279.356C259.575 277.571 254.55 279.116 254.55 275.951C254.55 274.526 255.825 273.566 257.865 273.566C258.9 273.566 260.07 273.836 260.76 274.286L260.145 275.426C259.425 274.961 258.63 274.796 257.85 274.796C256.59 274.796 255.975 275.261 255.975 275.891C255.975 277.766 261.015 276.236 261.015 279.326C261.015 280.766 259.695 281.681 257.58 281.681ZM262.305 278.096V276.851H266.34V278.096H262.305ZM272.109 281.681C269.724 281.681 267.969 279.986 267.969 277.616C267.969 275.246 269.724 273.566 272.109 273.566C274.494 273.566 276.234 275.246 276.234 277.616C276.234 279.986 274.494 281.681 272.109 281.681ZM272.109 280.421C273.639 280.421 274.779 279.311 274.779 277.616C274.779 275.921 273.639 274.826 272.109 274.826C270.579 274.826 269.424 275.921 269.424 277.616C269.424 279.311 270.579 280.421 272.109 280.421ZM281.135 271.556C280.28 271.556 279.845 272.036 279.845 272.951V273.641H282.155V274.826H279.875V281.591H278.435V274.826H277.085V273.641H278.435V272.936C278.435 271.391 279.365 270.371 281.06 270.371C281.675 270.371 282.275 270.521 282.68 270.836L282.245 271.931C281.945 271.706 281.555 271.556 281.135 271.556ZM282.857 278.096V276.851H286.892V278.096H282.857ZM291.389 281.681C290.069 281.681 288.764 281.276 288.104 280.751L288.704 279.611C289.379 280.091 290.459 280.436 291.494 280.436C292.829 280.436 293.384 280.031 293.384 279.356C293.384 277.571 288.359 279.116 288.359 275.951C288.359 274.526 289.634 273.566 291.674 273.566C292.709 273.566 293.879 273.836 294.569 274.286L293.954 275.426C293.234 274.961 292.439 274.796 291.659 274.796C290.399 274.796 289.784 275.261 289.784 275.891C289.784 277.766 294.824 276.236 294.824 279.326C294.824 280.766 293.504 281.681 291.389 281.681ZM300.839 273.566C303.164 273.566 304.859 275.186 304.859 277.616C304.859 280.061 303.164 281.681 300.839 281.681C299.714 281.681 298.724 281.246 298.064 280.391V284.501H296.624V273.641H298.004V274.901C298.649 274.016 299.669 273.566 300.839 273.566ZM300.719 280.421C302.249 280.421 303.404 279.311 303.404 277.616C303.404 275.936 302.249 274.826 300.719 274.826C299.204 274.826 298.049 275.936 298.049 277.616C298.049 279.311 299.204 280.421 300.719 280.421ZM309.67 273.566C311.845 273.566 313.075 274.616 313.075 276.791V281.591H311.71V280.541C311.23 281.261 310.345 281.681 309.1 281.681C307.3 281.681 306.16 280.721 306.16 279.341C306.16 278.066 306.985 277.016 309.355 277.016H311.635V276.731C311.635 275.516 310.93 274.811 309.505 274.811C308.56 274.811 307.6 275.141 306.985 275.666L306.385 274.586C307.21 273.926 308.395 273.566 309.67 273.566ZM309.34 280.571C310.42 280.571 311.275 280.076 311.635 279.161V278.051H309.415C307.99 278.051 307.585 278.606 307.585 279.281C307.585 280.076 308.245 280.571 309.34 280.571ZM319.249 281.681C316.804 281.681 315.049 279.986 315.049 277.616C315.049 275.246 316.804 273.566 319.249 273.566C320.674 273.566 321.859 274.151 322.489 275.261L321.394 275.966C320.884 275.186 320.104 274.826 319.234 274.826C317.674 274.826 316.504 275.921 316.504 277.616C316.504 279.341 317.674 280.421 319.234 280.421C320.104 280.421 320.884 280.061 321.394 279.281L322.489 279.971C321.859 281.081 320.674 281.681 319.249 281.681ZM331.421 277.661C331.421 277.781 331.406 277.961 331.391 278.096H324.941C325.121 279.491 326.246 280.421 327.821 280.421C328.751 280.421 329.531 280.106 330.116 279.461L330.911 280.391C330.191 281.231 329.096 281.681 327.776 281.681C325.211 281.681 323.501 279.986 323.501 277.616C323.501 275.261 325.196 273.566 327.491 273.566C329.786 273.566 331.421 275.216 331.421 277.661ZM327.491 274.781C326.111 274.781 325.091 275.711 324.941 277.061H330.041C329.891 275.726 328.886 274.781 327.491 274.781Z" fill="#211433"/>
<path d="M245.214 391.333C245.214 391.453 245.199 391.633 245.184 391.768H238.734C238.914 393.163 240.039 394.093 241.614 394.093C242.544 394.093 243.324 393.778 243.909 393.133L244.704 394.063C243.984 394.903 242.889 395.353 241.569 395.353C239.004 395.353 237.294 393.658 237.294 391.288C237.294 388.933 238.989 387.238 241.284 387.238C243.579 387.238 245.214 388.888 245.214 391.333ZM241.284 388.453C239.904 388.453 238.884 389.383 238.734 390.733H243.834C243.684 389.398 242.679 388.453 241.284 388.453ZM251.458 387.238C253.393 387.238 254.758 388.348 254.758 390.688V395.263H253.318V390.853C253.318 389.293 252.538 388.528 251.173 388.528C249.643 388.528 248.653 389.443 248.653 391.168V395.263H247.213V387.313H248.593V388.513C249.178 387.703 250.198 387.238 251.458 387.238ZM260.932 395.353C258.487 395.353 256.732 393.658 256.732 391.288C256.732 388.918 258.487 387.238 260.932 387.238C262.357 387.238 263.542 387.823 264.172 388.933L263.077 389.638C262.567 388.858 261.787 388.498 260.917 388.498C259.357 388.498 258.187 389.593 258.187 391.288C258.187 393.013 259.357 394.093 260.917 394.093C261.787 394.093 262.567 393.733 263.077 392.953L264.172 393.643C263.542 394.753 262.357 395.353 260.932 395.353ZM269.324 395.353C266.939 395.353 265.184 393.658 265.184 391.288C265.184 388.918 266.939 387.238 269.324 387.238C271.709 387.238 273.449 388.918 273.449 391.288C273.449 393.658 271.709 395.353 269.324 395.353ZM269.324 394.093C270.854 394.093 271.994 392.983 271.994 391.288C271.994 389.593 270.854 388.498 269.324 388.498C267.794 388.498 266.639 389.593 266.639 391.288C266.639 392.983 267.794 394.093 269.324 394.093ZM281.501 384.133H282.941V395.263H281.561V394.003C280.916 394.903 279.896 395.353 278.726 395.353C276.401 395.353 274.706 393.718 274.706 391.288C274.706 388.858 276.401 387.238 278.726 387.238C279.851 387.238 280.841 387.658 281.501 388.513V384.133ZM278.846 394.093C280.361 394.093 281.516 392.983 281.516 391.288C281.516 389.593 280.361 388.498 278.846 388.498C277.316 388.498 276.161 389.593 276.161 391.288C276.161 392.983 277.316 394.093 278.846 394.093ZM286.385 385.783C285.83 385.783 285.41 385.378 285.41 384.853C285.41 384.328 285.83 383.908 286.385 383.908C286.94 383.908 287.36 384.313 287.36 384.823C287.36 385.363 286.955 385.783 286.385 385.783ZM285.665 395.263V387.313H287.105V395.263H285.665ZM294.1 387.238C296.035 387.238 297.4 388.348 297.4 390.688V395.263H295.96V390.853C295.96 389.293 295.18 388.528 293.815 388.528C292.285 388.528 291.295 389.443 291.295 391.168V395.263H289.855V387.313H291.235V388.513C291.82 387.703 292.84 387.238 294.1 387.238ZM306.349 387.313H307.714V394.183C307.714 396.988 306.289 398.263 303.589 398.263C302.134 398.263 300.664 397.858 299.794 397.078L300.484 395.968C301.219 396.598 302.374 397.003 303.544 397.003C305.419 397.003 306.274 396.133 306.274 394.333V393.703C305.584 394.528 304.549 394.933 303.409 394.933C301.114 394.933 299.374 393.373 299.374 391.078C299.374 388.783 301.114 387.238 303.409 387.238C304.594 387.238 305.674 387.673 306.349 388.543V387.313ZM303.574 393.673C305.164 393.673 306.304 392.608 306.304 391.078C306.304 389.533 305.164 388.498 303.574 388.498C301.969 388.498 300.829 389.533 300.829 391.078C300.829 392.608 301.969 393.673 303.574 393.673Z" fill="#211433"/>
<path d="M269.023 200.729C270.175 200.729 271.122 201.625 271.122 202.853C271.122 204.133 270.175 204.977 269.023 204.977C267.872 204.977 266.925 204.133 266.925 202.853C266.925 201.625 267.872 200.729 269.023 200.729Z" fill="#211433"/>
<path d="M255.701 200.729C256.853 200.729 257.8 201.625 257.8 202.853C257.8 204.133 256.853 204.977 255.701 204.977C254.55 204.977 253.603 204.133 253.603 202.853C253.603 201.625 254.55 200.729 255.701 200.729Z" fill="#211433"/>
<path d="M242.38 200.729C243.531 200.729 244.478 201.625 244.478 202.853C244.478 204.133 243.531 204.977 242.38 204.977C241.228 204.977 240.281 204.133 240.281 202.853C240.281 201.625 241.228 200.729 242.38 200.729Z" fill="#211433"/>
<path d="M517.894 152.978V252.728" stroke="#211433"/>
<circle cx="517.894" cy="202.853" r="8.7732" transform="rotate(-45 517.894 202.853)" fill="white" stroke="#211433"/>
<path d="M511.403 196.362L524.385 209.344" stroke="#211433"/>
<path d="M524.467 196.447L511.32 209.26" stroke="#211433"/>
<path d="M517.894 363.57L520.781 358.57H515.007L517.894 363.57ZM517.394 302.983V359.07H518.394V302.983H517.394Z" fill="#211433"/>
<path d="M467.34 152.978V252.728" stroke="#211433"/>
<circle cx="467.34" cy="202.853" r="8.7732" transform="rotate(-45 467.34 202.853)" fill="white" stroke="#211433"/>
<path d="M460.849 196.362L473.831 209.344" stroke="#211433"/>
<path d="M473.914 196.447L460.766 209.26" stroke="#211433"/>
<path d="M467.34 363.57L470.227 358.57H464.453L467.34 363.57ZM466.84 302.983V359.07H467.84V302.983H466.84Z" fill="#211433"/>
<path d="M147.564 152.978V252.728" stroke="#211433"/>
<circle cx="147.564" cy="202.853" r="8.7732" transform="rotate(-45 147.564 202.853)" fill="white" stroke="#211433"/>
<path d="M141.073 196.362L154.055 209.344" stroke="#211433"/>
<path d="M154.138 196.447L140.99 209.26" stroke="#211433"/>
<path d="M144.872 363.57L147.759 358.57H141.985L144.872 363.57ZM144.372 302.983V359.07H145.372V302.983H144.372Z" fill="#211433"/>
<path d="M33.2943 152.978V252.728" stroke="#211433"/>
<circle cx="33.2943" cy="202.853" r="8.7732" transform="rotate(-45 33.2943 202.853)" fill="white" stroke="#211433"/>
<path d="M26.8036 196.362L39.785 209.344" stroke="#211433"/>
<path d="M39.8677 196.447L26.7206 209.26" stroke="#211433"/>
<path d="M34.4908 363.57L37.3776 358.57H31.6041L34.4908 363.57ZM33.9908 302.983V359.07H34.9908V302.983H33.9908Z" fill="#211433"/>
<path d="M412 152.978V252.728" stroke="#211433"/>
<circle cx="412" cy="202.853" r="8.7732" transform="rotate(-45 412 202.853)" fill="white" stroke="#211433"/>
<path d="M405.509 196.362L418.491 209.344" stroke="#211433"/>
<path d="M418.573 196.447L405.426 209.26" stroke="#211433"/>
<path d="M412 363.57L414.887 358.57H409.113L412 363.57ZM411.5 302.983V359.07H412.5V302.983H411.5Z" fill="#211433"/>
<path d="M273.65 99.1338L276.537 94.1338H270.763L273.65 99.1338ZM273.15 52.9056V94.6338H274.15V52.9056H273.15Z" fill="#83BB46"/>
<path d="M87.4378 152.978V252.728" stroke="#211433"/>
<circle cx="87.4378" cy="202.853" r="8.7732" transform="rotate(-45 87.4378 202.853)" fill="white" stroke="#211433"/>
<path d="M80.9471 196.362L93.9285 209.344" stroke="#211433"/>
<path d="M94.0113 196.447L80.8641 209.26" stroke="#211433"/>
<path d="M87.4378 363.57L90.3246 358.57H84.5511L87.4378 363.57ZM86.9378 302.983V359.07H87.9378V302.983H86.9378Z" fill="#211433"/>
</svg>
