<svg width="714" height="132" viewBox="0 0 714 132" fill="none" xmlns="http://www.w3.org/2000/svg">
<rect x="641.057" y="60.377" width="72" height="41.9061" rx="3.5" fill="#9B88BB" stroke="#F4F1F7"/>
<rect x="551.875" y="60.377" width="72" height="41.9061" rx="3.5" fill="#CDE6B2" stroke="#F4F1F7"/>
<path d="M3.44281 45.33C3.69501 43.1346 5.20822 38.7437 9.24344 38.7437C13.2787 38.7437 333.849 38.7437 351.924 38.7437C353.899 38.6146 357.85 37.194 357.85 32.5448" stroke="#F4F1F7"/>
<path d="M712.443 45.33C712.191 43.1346 710.677 38.7437 706.642 38.7437C702.607 38.7437 382.036 38.7437 363.962 38.7437C361.986 38.6146 358.035 37.194 358.035 32.5448" stroke="#F4F1F7"/>
<rect x="0.942871" y="60.377" width="521" height="41.9061" rx="3.5" fill="#F4F1F7" stroke="#F4F1F7"/>
<rect x="2.2334" y="61.377" width="60.9595" height="39.9375" rx="2.5" fill="#F4F1F7" stroke="#9B88BB" stroke-dasharray="2 2"/>
<path d="M585.299 87.5001C581.661 87.5001 578.941 84.9331 578.941 81.3801C578.941 77.8271 581.661 75.2601 585.316 75.2601C587.254 75.2601 588.92 75.9571 590.025 77.2491L588.597 78.5921C587.73 77.6571 586.659 77.1981 585.418 77.1981C582.953 77.1981 581.168 78.9321 581.168 81.3801C581.168 83.8281 582.953 85.5621 585.418 85.5621C586.659 85.5621 587.73 85.1031 588.597 84.1511L590.025 85.5111C588.92 86.8031 587.254 87.5001 585.299 87.5001Z" fill="#211433"/>
<path d="M595.553 90.4301C593.893 90.4301 592.633 89.1301 592.633 86.8301C592.633 84.5301 593.893 83.2301 595.553 83.2301C597.223 83.2301 598.483 84.5301 598.483 86.8301C598.483 89.1301 597.223 90.4301 595.553 90.4301ZM595.553 89.3001C596.513 89.3001 597.173 88.5201 597.173 86.8301C597.173 85.1401 596.513 84.3601 595.553 84.3601C594.603 84.3601 593.943 85.1401 593.943 86.8301C593.943 88.5201 594.603 89.3001 595.553 89.3001Z" fill="#211433"/>
<path d="M682.074 75.9301H684.182L680.238 87.8301H677.892L674.951 79.0241L671.959 87.8301H669.596L665.652 75.9301H667.947L670.905 84.9741L673.982 75.9301H676.022L679.031 85.0251L682.074 75.9301Z" fill="#211433"/>
<path d="M688.053 90.9301C686.393 90.9301 685.133 89.6301 685.133 87.3301C685.133 85.0301 686.393 83.7301 688.053 83.7301C689.723 83.7301 690.983 85.0301 690.983 87.3301C690.983 89.6301 689.723 90.9301 688.053 90.9301ZM688.053 89.8001C689.013 89.8001 689.673 89.0201 689.673 87.3301C689.673 85.6401 689.013 84.8601 688.053 84.8601C687.103 84.8601 686.443 85.6401 686.443 87.3301C686.443 89.0201 687.103 89.8001 688.053 89.8001Z" fill="#211433"/>
<path d="M18.2551 86.6461C16.4621 86.6461 15.1751 85.4031 15.1751 83.6651C15.1751 81.9271 16.4621 80.6951 18.2551 80.6951C19.3001 80.6951 20.1691 81.1241 20.6311 81.9381L19.8281 82.4551C19.4541 81.8831 18.8821 81.6191 18.2441 81.6191C17.1001 81.6191 16.2421 82.4221 16.2421 83.6651C16.2421 84.9301 17.1001 85.7221 18.2441 85.7221C18.8821 85.7221 19.4541 85.4581 19.8281 84.8861L20.6311 85.3921C20.1691 86.2061 19.3001 86.6461 18.2551 86.6461ZM25.0361 80.6951C26.4551 80.6951 27.4561 81.5091 27.4561 83.2251V86.5801H26.4001V83.3461C26.4001 82.2021 25.8281 81.6411 24.8271 81.6411C23.7051 81.6411 22.9791 82.3121 22.9791 83.5771V86.5801H21.9231V78.4181H22.9791V81.5751C23.4191 81.0141 24.1451 80.6951 25.0361 80.6951ZM33.7884 80.7501H34.8444V86.5801H33.8434V85.7001C33.4144 86.3051 32.6884 86.6461 31.8634 86.6461C30.3564 86.6461 29.3554 85.8211 29.3554 84.1051V80.7501H30.4114V83.9841C30.4114 85.1281 30.9834 85.7001 31.9844 85.7001C33.0844 85.7001 33.7884 85.0181 33.7884 83.7641V80.7501ZM39.9678 80.6951C41.3868 80.6951 42.3878 81.5091 42.3878 83.2251V86.5801H41.3318V83.3461C41.3318 82.2021 40.7598 81.6411 39.7588 81.6411C38.6368 81.6411 37.9108 82.3121 37.9108 83.5771V86.5801H36.8548V80.7501H37.8668V81.6301C38.2958 81.0361 39.0438 80.6951 39.9678 80.6951ZM48.7971 86.5801L46.6081 83.8631L45.3981 84.9851V86.5801H44.3421V78.4181H45.3981V83.6541L48.5771 80.7501H49.8531L47.4001 83.1591L50.0951 86.5801H48.7971Z" fill="#9B88BB"/>
<rect x="459.733" y="61.377" width="60.9595" height="39.9375" rx="2.5" fill="#F4F1F7" stroke="#9B88BB" stroke-dasharray="2 2"/>
<path d="M475.755 86.6461C473.962 86.6461 472.675 85.4031 472.675 83.6651C472.675 81.9271 473.962 80.6951 475.755 80.6951C476.8 80.6951 477.669 81.1241 478.131 81.9381L477.328 82.4551C476.954 81.8831 476.382 81.6191 475.744 81.6191C474.6 81.6191 473.742 82.4221 473.742 83.6651C473.742 84.9301 474.6 85.7221 475.744 85.7221C476.382 85.7221 476.954 85.4581 477.328 84.8861L478.131 85.3921C477.669 86.2061 476.8 86.6461 475.755 86.6461ZM482.536 80.6951C483.955 80.6951 484.956 81.5091 484.956 83.2251V86.5801H483.9V83.3461C483.9 82.2021 483.328 81.6411 482.327 81.6411C481.205 81.6411 480.479 82.3121 480.479 83.5771V86.5801H479.423V78.4181H480.479V81.5751C480.919 81.0141 481.645 80.6951 482.536 80.6951ZM491.288 80.7501H492.344V86.5801H491.343V85.7001C490.914 86.3051 490.188 86.6461 489.363 86.6461C487.856 86.6461 486.855 85.8211 486.855 84.1051V80.7501H487.911V83.9841C487.911 85.1281 488.483 85.7001 489.484 85.7001C490.584 85.7001 491.288 85.0181 491.288 83.7641V80.7501ZM497.468 80.6951C498.887 80.6951 499.888 81.5091 499.888 83.2251V86.5801H498.832V83.3461C498.832 82.2021 498.26 81.6411 497.259 81.6411C496.137 81.6411 495.411 82.3121 495.411 83.5771V86.5801H494.355V80.7501H495.367V81.6301C495.796 81.0361 496.544 80.6951 497.468 80.6951ZM506.297 86.5801L504.108 83.8631L502.898 84.9851V86.5801H501.842V78.4181H502.898V83.6541L506.077 80.7501H507.353L504.9 83.1591L507.595 86.5801H506.297Z" fill="#9B88BB"/>
<rect x="401.733" y="61.377" width="60.9595" height="39.9375" rx="2.5" fill="#F4F1F7" stroke="#9B88BB" stroke-dasharray="2 2"/>
<path d="M417.755 86.6461C415.962 86.6461 414.675 85.4031 414.675 83.6651C414.675 81.9271 415.962 80.6951 417.755 80.6951C418.8 80.6951 419.669 81.1241 420.131 81.9381L419.328 82.4551C418.954 81.8831 418.382 81.6191 417.744 81.6191C416.6 81.6191 415.742 82.4221 415.742 83.6651C415.742 84.9301 416.6 85.7221 417.744 85.7221C418.382 85.7221 418.954 85.4581 419.328 84.8861L420.131 85.3921C419.669 86.2061 418.8 86.6461 417.755 86.6461ZM424.536 80.6951C425.955 80.6951 426.956 81.5091 426.956 83.2251V86.5801H425.9V83.3461C425.9 82.2021 425.328 81.6411 424.327 81.6411C423.205 81.6411 422.479 82.3121 422.479 83.5771V86.5801H421.423V78.4181H422.479V81.5751C422.919 81.0141 423.645 80.6951 424.536 80.6951ZM433.288 80.7501H434.344V86.5801H433.343V85.7001C432.914 86.3051 432.188 86.6461 431.363 86.6461C429.856 86.6461 428.855 85.8211 428.855 84.1051V80.7501H429.911V83.9841C429.911 85.1281 430.483 85.7001 431.484 85.7001C432.584 85.7001 433.288 85.0181 433.288 83.7641V80.7501ZM439.468 80.6951C440.887 80.6951 441.888 81.5091 441.888 83.2251V86.5801H440.832V83.3461C440.832 82.2021 440.26 81.6411 439.259 81.6411C438.137 81.6411 437.411 82.3121 437.411 83.5771V86.5801H436.355V80.7501H437.367V81.6301C437.796 81.0361 438.544 80.6951 439.468 80.6951ZM448.297 86.5801L446.108 83.8631L444.898 84.9851V86.5801H443.842V78.4181H444.898V83.6541L448.077 80.7501H449.353L446.9 83.1591L449.595 86.5801H448.297Z" fill="#9B88BB"/>
<rect x="342.233" y="61.377" width="60.9595" height="39.9375" rx="2.5" fill="#F4F1F7" stroke="#9B88BB" stroke-dasharray="2 2"/>
<path d="M358.255 86.6461C356.462 86.6461 355.175 85.4031 355.175 83.6651C355.175 81.9271 356.462 80.6951 358.255 80.6951C359.3 80.6951 360.169 81.1241 360.631 81.9381L359.828 82.4551C359.454 81.8831 358.882 81.6191 358.244 81.6191C357.1 81.6191 356.242 82.4221 356.242 83.6651C356.242 84.9301 357.1 85.7221 358.244 85.7221C358.882 85.7221 359.454 85.4581 359.828 84.8861L360.631 85.3921C360.169 86.2061 359.3 86.6461 358.255 86.6461ZM365.036 80.6951C366.455 80.6951 367.456 81.5091 367.456 83.2251V86.5801H366.4V83.3461C366.4 82.2021 365.828 81.6411 364.827 81.6411C363.705 81.6411 362.979 82.3121 362.979 83.5771V86.5801H361.923V78.4181H362.979V81.5751C363.419 81.0141 364.145 80.6951 365.036 80.6951ZM373.788 80.7501H374.844V86.5801H373.843V85.7001C373.414 86.3051 372.688 86.6461 371.863 86.6461C370.356 86.6461 369.355 85.8211 369.355 84.1051V80.7501H370.411V83.9841C370.411 85.1281 370.983 85.7001 371.984 85.7001C373.084 85.7001 373.788 85.0181 373.788 83.7641V80.7501ZM379.968 80.6951C381.387 80.6951 382.388 81.5091 382.388 83.2251V86.5801H381.332V83.3461C381.332 82.2021 380.76 81.6411 379.759 81.6411C378.637 81.6411 377.911 82.3121 377.911 83.5771V86.5801H376.855V80.7501H377.867V81.6301C378.296 81.0361 379.044 80.6951 379.968 80.6951ZM388.797 86.5801L386.608 83.8631L385.398 84.9851V86.5801H384.342V78.4181H385.398V83.6541L388.577 80.7501H389.853L387.4 83.1591L390.095 86.5801H388.797Z" fill="#9B88BB"/>
<rect x="60.2334" y="61.377" width="60.9595" height="39.9375" rx="2.5" fill="#F4F1F7" stroke="#9B88BB" stroke-dasharray="2 2"/>
<path d="M76.2551 86.6461C74.4621 86.6461 73.1751 85.4031 73.1751 83.6651C73.1751 81.9271 74.4621 80.6951 76.2551 80.6951C77.3001 80.6951 78.1691 81.1241 78.6311 81.9381L77.8281 82.4551C77.4541 81.8831 76.8821 81.6191 76.2441 81.6191C75.1001 81.6191 74.2421 82.4221 74.2421 83.6651C74.2421 84.9301 75.1001 85.7221 76.2441 85.7221C76.8821 85.7221 77.4541 85.4581 77.8281 84.8861L78.6311 85.3921C78.1691 86.2061 77.3001 86.6461 76.2551 86.6461ZM83.0361 80.6951C84.4551 80.6951 85.4561 81.5091 85.4561 83.2251V86.5801H84.4001V83.3461C84.4001 82.2021 83.8281 81.6411 82.8271 81.6411C81.7051 81.6411 80.9791 82.3121 80.9791 83.5771V86.5801H79.9231V78.4181H80.9791V81.5751C81.4191 81.0141 82.1451 80.6951 83.0361 80.6951ZM91.7884 80.7501H92.8444V86.5801H91.8434V85.7001C91.4144 86.3051 90.6884 86.6461 89.8634 86.6461C88.3564 86.6461 87.3554 85.8211 87.3554 84.1051V80.7501H88.4114V83.9841C88.4114 85.1281 88.9834 85.7001 89.9844 85.7001C91.0844 85.7001 91.7884 85.0181 91.7884 83.7641V80.7501ZM97.9678 80.6951C99.3868 80.6951 100.388 81.5091 100.388 83.2251V86.5801H99.3318V83.3461C99.3318 82.2021 98.7598 81.6411 97.7588 81.6411C96.6368 81.6411 95.9108 82.3121 95.9108 83.5771V86.5801H94.8548V80.7501H95.8668V81.6301C96.2958 81.0361 97.0438 80.6951 97.9678 80.6951ZM106.797 86.5801L104.608 83.8631L103.398 84.9851V86.5801H102.342V78.4181H103.398V83.6541L106.577 80.7501H107.853L105.4 83.1591L108.095 86.5801H106.797Z" fill="#9B88BB"/>
<path d="M210.956 81.2291C211.33 80.5471 212.056 80.1951 213.079 80.1951V81.2181C212.991 81.2071 212.914 81.2071 212.837 81.2071C211.704 81.2071 211 81.9001 211 83.1761V86.0801H209.944V80.2501H210.956V81.2291ZM219.596 83.1981C219.596 83.2861 219.585 83.4181 219.574 83.5171H214.844C214.976 84.5401 215.801 85.2221 216.956 85.2221C217.638 85.2221 218.21 84.9911 218.639 84.5181L219.222 85.2001C218.694 85.8161 217.891 86.1461 216.923 86.1461C215.042 86.1461 213.788 84.9031 213.788 83.1651C213.788 81.4381 215.031 80.1951 216.714 80.1951C218.397 80.1951 219.596 81.4051 219.596 83.1981ZM216.714 81.0861C215.702 81.0861 214.954 81.7681 214.844 82.7581H218.584C218.474 81.7791 217.737 81.0861 216.714 81.0861ZM223.603 86.1461C221.81 86.1461 220.523 84.9031 220.523 83.1651C220.523 81.4271 221.81 80.1951 223.603 80.1951C224.648 80.1951 225.517 80.6241 225.979 81.4381L225.176 81.9551C224.802 81.3831 224.23 81.1191 223.592 81.1191C222.448 81.1191 221.59 81.9221 221.59 83.1651C221.59 84.4301 222.448 85.2221 223.592 85.2221C224.23 85.2221 224.802 84.9581 225.176 84.3861L225.979 84.8921C225.517 85.7061 224.648 86.1461 223.603 86.1461ZM229.757 86.1461C228.008 86.1461 226.721 84.9031 226.721 83.1651C226.721 81.4271 228.008 80.1951 229.757 80.1951C231.506 80.1951 232.782 81.4271 232.782 83.1651C232.782 84.9031 231.506 86.1461 229.757 86.1461ZM229.757 85.2221C230.879 85.2221 231.715 84.4081 231.715 83.1651C231.715 81.9221 230.879 81.1191 229.757 81.1191C228.635 81.1191 227.788 81.9221 227.788 83.1651C227.788 84.4081 228.635 85.2221 229.757 85.2221ZM235.255 81.2291C235.629 80.5471 236.355 80.1951 237.378 80.1951V81.2181C237.29 81.2071 237.213 81.2071 237.136 81.2071C236.003 81.2071 235.299 81.9001 235.299 83.1761V86.0801H234.243V80.2501H235.255V81.2291ZM243.07 77.9181H244.126V86.0801H243.114V85.1561C242.641 85.8161 241.893 86.1461 241.035 86.1461C239.33 86.1461 238.087 84.9471 238.087 83.1651C238.087 81.3831 239.33 80.1951 241.035 80.1951C241.86 80.1951 242.586 80.5031 243.07 81.1301V77.9181ZM241.123 85.2221C242.234 85.2221 243.081 84.4081 243.081 83.1651C243.081 81.9221 242.234 81.1191 241.123 81.1191C240.001 81.1191 239.154 81.9221 239.154 83.1651C239.154 84.4081 240.001 85.2221 241.123 85.2221Z" fill="#211433"/>
<path d="M317.244 17.119C316.507 17.119 315.833 16.949 315.221 16.609C314.62 16.269 314.139 15.759 313.776 15.079C313.425 14.3877 313.249 13.515 313.249 12.461C313.249 11.3957 313.419 10.523 313.759 9.843C314.11 9.163 314.586 8.65867 315.187 8.33C315.788 7.99 316.473 7.82 317.244 7.82C318.139 7.82 318.927 8.01267 319.607 8.398C320.298 8.78333 320.842 9.32167 321.239 10.013C321.647 10.7043 321.851 11.5203 321.851 12.461C321.851 13.4017 321.647 14.2233 321.239 14.926C320.842 15.6173 320.298 16.1557 319.607 16.541C318.927 16.9263 318.139 17.119 317.244 17.119ZM312.212 20.298V7.922H314.235V10.064L314.167 12.478L314.337 14.892V20.298H312.212ZM317.006 15.3C317.516 15.3 317.969 15.1867 318.366 14.96C318.774 14.7333 319.097 14.4047 319.335 13.974C319.573 13.5433 319.692 13.039 319.692 12.461C319.692 11.8717 319.573 11.3673 319.335 10.948C319.097 10.5173 318.774 10.1887 318.366 9.962C317.969 9.73533 317.516 9.622 317.006 9.622C316.496 9.622 316.037 9.73533 315.629 9.962C315.221 10.1887 314.898 10.5173 314.66 10.948C314.422 11.3673 314.303 11.8717 314.303 12.461C314.303 13.039 314.422 13.5433 314.66 13.974C314.898 14.4047 315.221 14.7333 315.629 14.96C316.037 15.1867 316.496 15.3 317.006 15.3ZM323.866 17V7.922H325.991V17L323.866 17ZM324.937 6.426C324.541 6.426 324.212 6.30133 323.951 6.052C323.702 5.80267 323.577 5.50233 323.577 5.151C323.577 4.78833 323.702 4.488 323.951 4.25C324.212 4.00067 324.541 3.876 324.937 3.876C325.334 3.876 325.657 3.995 325.906 4.233C326.167 4.45967 326.297 4.74867 326.297 5.1C326.297 5.474 326.173 5.79133 325.923 6.052C325.674 6.30133 325.345 6.426 324.937 6.426ZM333.047 17.119C332.039 17.119 331.155 16.9207 330.395 16.524C329.647 16.116 329.064 15.5607 328.644 14.858C328.236 14.1553 328.032 13.3563 328.032 12.461C328.032 11.5543 328.231 10.7553 328.627 10.064C329.035 9.36133 329.591 8.81167 330.293 8.415C331.007 8.01833 331.818 7.82 332.724 7.82C333.608 7.82 334.396 8.01267 335.087 8.398C335.779 8.78333 336.323 9.32733 336.719 10.03C337.116 10.7327 337.314 11.56 337.314 12.512C337.314 12.6027 337.309 12.7047 337.297 12.818C337.297 12.9313 337.292 13.039 337.28 13.141L329.715 13.141V11.73L336.158 11.73L335.325 12.172C335.337 11.6507 335.229 11.1917 335.002 10.795C334.776 10.3983 334.464 10.0867 334.067 9.86C333.682 9.63333 333.234 9.52 332.724 9.52C332.203 9.52 331.744 9.63333 331.347 9.86C330.962 10.0867 330.656 10.404 330.429 10.812C330.214 11.2087 330.106 11.679 330.106 12.223V12.563C330.106 13.107 330.231 13.5887 330.48 14.008C330.73 14.4273 331.081 14.7503 331.534 14.977C331.988 15.2037 332.509 15.317 333.098 15.317C333.608 15.317 334.067 15.2377 334.475 15.079C334.883 14.9203 335.246 14.671 335.563 14.331L336.702 15.64C336.294 16.116 335.779 16.4843 335.155 16.745C334.543 16.9943 333.841 17.119 333.047 17.119ZM343.52 17.119C342.568 17.119 341.718 16.9207 340.97 16.524C340.234 16.116 339.656 15.5607 339.236 14.858C338.817 14.1553 338.607 13.3563 338.607 12.461C338.607 11.5543 338.817 10.7553 339.236 10.064C339.656 9.36133 340.234 8.81167 340.97 8.415C341.718 8.01833 342.568 7.82 343.52 7.82C344.404 7.82 345.181 8.00133 345.849 8.364C346.529 8.71533 347.045 9.23667 347.396 9.928L345.764 10.88C345.492 10.4493 345.158 10.132 344.761 9.928C344.376 9.724 343.957 9.622 343.503 9.622C342.982 9.622 342.512 9.73533 342.092 9.962C341.673 10.1887 341.344 10.5173 341.106 10.948C340.868 11.3673 340.749 11.8717 340.749 12.461C340.749 13.0503 340.868 13.5603 341.106 13.991C341.344 14.4103 341.673 14.7333 342.092 14.96C342.512 15.1867 342.982 15.3 343.503 15.3C343.957 15.3 344.376 15.198 344.761 14.994C345.158 14.79 345.492 14.4727 345.764 14.042L347.396 14.994C347.045 15.674 346.529 16.201 345.849 16.575C345.181 16.9377 344.404 17.119 343.52 17.119ZM353.368 17.119C352.359 17.119 351.475 16.9207 350.716 16.524C349.968 16.116 349.384 15.5607 348.965 14.858C348.557 14.1553 348.353 13.3563 348.353 12.461C348.353 11.5543 348.551 10.7553 348.948 10.064C349.356 9.36133 349.911 8.81167 350.614 8.415C351.328 8.01833 352.138 7.82 353.045 7.82C353.929 7.82 354.716 8.01267 355.408 8.398C356.099 8.78333 356.643 9.32733 357.04 10.03C357.436 10.7327 357.635 11.56 357.635 12.512C357.635 12.6027 357.629 12.7047 357.618 12.818C357.618 12.9313 357.612 13.039 357.601 13.141H350.036V11.73H356.479L355.646 12.172C355.657 11.6507 355.549 11.1917 355.323 10.795C355.096 10.3983 354.784 10.0867 354.388 9.86C354.002 9.63333 353.555 9.52 353.045 9.52C352.523 9.52 352.064 9.63333 351.668 9.86C351.282 10.0867 350.976 10.404 350.75 10.812C350.534 11.2087 350.427 11.679 350.427 12.223V12.563C350.427 13.107 350.551 13.5887 350.801 14.008C351.05 14.4273 351.401 14.7503 351.855 14.977C352.308 15.2037 352.829 15.317 353.419 15.317C353.929 15.317 354.388 15.2377 354.796 15.079C355.204 14.9203 355.566 14.671 355.884 14.331L357.023 15.64C356.615 16.116 356.099 16.4843 355.476 16.745C354.864 16.9943 354.161 17.119 353.368 17.119ZM369.593 12.376C367.961 12.376 367.349 10.659 366.176 10.659C365.377 10.659 364.884 11.288 364.85 12.274H364.034C364.085 10.574 364.935 9.707 366.142 9.707C367.774 9.707 368.386 11.441 369.559 11.441C370.358 11.441 370.851 10.795 370.885 9.809H371.701C371.65 11.509 370.8 12.376 369.593 12.376ZM372.629 5.1H376.658V17H375.434V6.188H372.629V5.1ZM391.879 5.1H392.916V17H391.709V7.48L387.034 15.487H386.439L381.764 7.531V17H380.557V5.1H381.594L386.762 13.923L391.879 5.1ZM404.29 10.863C405.82 11.203 406.738 12.206 406.738 13.821C406.738 15.844 405.242 17 402.267 17H396.793V5.1L401.927 5.1C404.579 5.1 406.109 6.222 406.109 8.16C406.109 9.52 405.378 10.421 404.29 10.863ZM401.842 6.137L398.051 6.137V10.455H401.842C403.746 10.455 404.851 9.724 404.851 8.296C404.851 6.868 403.746 6.137 401.842 6.137ZM402.25 15.963C404.341 15.963 405.48 15.283 405.48 13.719C405.48 12.172 404.341 11.492 402.25 11.492H398.051V15.963H402.25Z" fill="#F4F1F7"/>
<path d="M579.817 123.784V124.872H577.437V128H576.213V124.872H569.498V123.988L575.805 116.1H577.165L571.079 123.784H576.247V121.03H577.437V123.784H579.817ZM587.924 121.761C589.42 122.254 590.253 123.274 590.253 124.685C590.253 126.793 588.468 128.102 585.629 128.102C582.773 128.102 581.039 126.793 581.039 124.685C581.039 123.257 581.855 122.254 583.334 121.761C582.127 121.285 581.464 120.384 581.464 119.143C581.464 117.205 583.113 115.998 585.629 115.998C588.145 115.998 589.828 117.205 589.828 119.143C589.828 120.384 589.148 121.285 587.924 121.761ZM582.688 119.177C582.688 120.486 583.776 121.319 585.629 121.319C587.482 121.319 588.587 120.486 588.587 119.194C588.587 117.851 587.414 117.035 585.629 117.035C583.827 117.035 582.688 117.851 582.688 119.177ZM585.629 127.065C587.737 127.065 588.995 126.147 588.995 124.668C588.995 123.206 587.737 122.288 585.629 122.288C583.521 122.288 582.28 123.206 582.28 124.668C582.28 126.147 583.521 127.065 585.629 127.065ZM601.803 118.99C604.353 118.99 606.257 120.826 606.257 123.529C606.257 126.232 604.353 128.085 601.803 128.085C600.324 128.085 599.083 127.439 598.352 126.232V128H597.196V115.386H598.403V120.758C599.151 119.602 600.375 118.99 601.803 118.99ZM601.718 127.014C603.605 127.014 605.05 125.62 605.05 123.529C605.05 121.438 603.605 120.044 601.718 120.044C599.814 120.044 598.386 121.438 598.386 123.529C598.386 125.62 599.814 127.014 601.718 127.014Z" fill="#F4F1F7"/>
<path d="M18.7479 121.2C21.2979 121.336 22.5729 122.679 22.5729 124.583C22.5729 126.572 21.1279 128.102 18.2549 128.102C16.5379 128.102 14.8889 127.507 13.9709 126.572L14.5659 125.603C15.3309 126.402 16.7079 126.98 18.2549 126.98C20.2269 126.98 21.3149 126.062 21.3149 124.583C21.3149 123.155 20.3119 122.22 18.1019 122.22H17.2519V121.319L20.5499 117.188H14.4639V116.1H22.1139V116.967L18.7479 121.2ZM25.7956 126.912H32.3406V128H23.9936V127.133L28.9406 122.288C30.2836 120.962 30.5386 120.163 30.5386 119.347C30.5386 117.97 29.5696 117.12 27.7506 117.12C26.3566 117.12 25.2856 117.545 24.5036 118.446L23.6366 117.698C24.5546 116.61 26.0336 115.998 27.8526 115.998C30.2666 115.998 31.7966 117.222 31.7966 119.211C31.7966 120.35 31.4396 121.37 29.8416 122.934L25.7956 126.912ZM43.7319 118.99C46.2819 118.99 48.1859 120.826 48.1859 123.529C48.1859 126.232 46.2819 128.085 43.7319 128.085C42.2529 128.085 41.0119 127.439 40.2809 126.232V128H39.1249V115.386H40.3319V120.758C41.0799 119.602 42.3039 118.99 43.7319 118.99ZM43.6469 127.014C45.5339 127.014 46.9789 125.62 46.9789 123.529C46.9789 121.438 45.5339 120.044 43.6469 120.044C41.7429 120.044 40.3149 121.438 40.3149 123.529C40.3149 125.62 41.7429 127.014 43.6469 127.014Z" fill="#F4F1F7"/>
<path d="M78.7479 121.2C81.2979 121.336 82.5729 122.679 82.5729 124.583C82.5729 126.572 81.1279 128.102 78.2549 128.102C76.5379 128.102 74.8889 127.507 73.9709 126.572L74.5659 125.603C75.3309 126.402 76.7079 126.98 78.2549 126.98C80.2269 126.98 81.3149 126.062 81.3149 124.583C81.3149 123.155 80.3119 122.22 78.1019 122.22H77.2519V121.319L80.5499 117.188H74.4639V116.1H82.1139V116.967L78.7479 121.2ZM85.7956 126.912H92.3406V128H83.9936V127.133L88.9406 122.288C90.2836 120.962 90.5386 120.163 90.5386 119.347C90.5386 117.97 89.5696 117.12 87.7506 117.12C86.3566 117.12 85.2856 117.545 84.5036 118.446L83.6366 117.698C84.5546 116.61 86.0336 115.998 87.8526 115.998C90.2666 115.998 91.7966 117.222 91.7966 119.211C91.7966 120.35 91.4396 121.37 89.8416 122.934L85.7956 126.912ZM103.732 118.99C106.282 118.99 108.186 120.826 108.186 123.529C108.186 126.232 106.282 128.085 103.732 128.085C102.253 128.085 101.012 127.439 100.281 126.232V128H99.1249V115.386H100.332V120.758C101.08 119.602 102.304 118.99 103.732 118.99ZM103.647 127.014C105.534 127.014 106.979 125.62 106.979 123.529C106.979 121.438 105.534 120.044 103.647 120.044C101.743 120.044 100.315 121.438 100.315 123.529C100.315 125.62 101.743 127.014 103.647 127.014Z" fill="#F4F1F7"/>
<path d="M668.817 123.784V124.872H666.437V128H665.213V124.872H658.498V123.988L664.805 116.1H666.165L660.079 123.784H665.247V121.03H666.437V123.784H668.817ZM676.924 121.761C678.42 122.254 679.253 123.274 679.253 124.685C679.253 126.793 677.468 128.102 674.629 128.102C671.773 128.102 670.039 126.793 670.039 124.685C670.039 123.257 670.855 122.254 672.334 121.761C671.127 121.285 670.464 120.384 670.464 119.143C670.464 117.205 672.113 115.998 674.629 115.998C677.145 115.998 678.828 117.205 678.828 119.143C678.828 120.384 678.148 121.285 676.924 121.761ZM671.688 119.177C671.688 120.486 672.776 121.319 674.629 121.319C676.482 121.319 677.587 120.486 677.587 119.194C677.587 117.851 676.414 117.035 674.629 117.035C672.827 117.035 671.688 117.851 671.688 119.177ZM674.629 127.065C676.737 127.065 677.995 126.147 677.995 124.668C677.995 123.206 676.737 122.288 674.629 122.288C672.521 122.288 671.28 123.206 671.28 124.668C671.28 126.147 672.521 127.065 674.629 127.065ZM690.803 118.99C693.353 118.99 695.257 120.826 695.257 123.529C695.257 126.232 693.353 128.085 690.803 128.085C689.324 128.085 688.083 127.439 687.352 126.232V128H686.196V115.386H687.403V120.758C688.151 119.602 689.375 118.99 690.803 118.99ZM690.718 127.014C692.605 127.014 694.05 125.62 694.05 123.529C694.05 121.438 692.605 120.044 690.718 120.044C688.814 120.044 687.386 121.438 687.386 123.529C687.386 125.62 688.814 127.014 690.718 127.014Z" fill="#F4F1F7"/>
</svg>
