<svg width="547" height="397" viewBox="0 0 547 397" fill="none" xmlns="http://www.w3.org/2000/svg">
<path d="M542.312 396.5L4.98767 396.5C3.05469 396.5 1.48767 394.933 1.48767 393L1.48768 349.661C1.48768 347.728 3.05469 346.161 4.98768 346.161L542.312 346.161C544.245 346.161 545.812 347.728 545.812 349.661L545.812 393C545.812 394.933 544.245 396.5 542.312 396.5Z" fill="#F4F1F7" stroke="#211433"/>
<path d="M489.476 396.297L489.476 345.743" stroke="#211433" stroke-dasharray="2 2"/>
<path d="M430.846 396.297L430.846 345.743" stroke="#211433" stroke-dasharray="2 2"/>
<path d="M50.3453 396.297L50.3453 345.743" stroke="#211433" stroke-dasharray="2 2"/>
<path d="M106.583 396.297L106.583 345.743" stroke="#211433" stroke-dasharray="2 2"/>
<path d="M162.82 396.297L162.82 345.743" stroke="#211433" stroke-dasharray="2 2"/>
<path d="M245.214 372.333C245.214 372.453 245.199 372.633 245.184 372.768H238.734C238.914 374.163 240.039 375.093 241.614 375.093C242.544 375.093 243.324 374.778 243.909 374.133L244.704 375.063C243.984 375.903 242.889 376.353 241.569 376.353C239.004 376.353 237.294 374.658 237.294 372.288C237.294 369.933 238.989 368.238 241.284 368.238C243.579 368.238 245.214 369.888 245.214 372.333ZM241.284 369.453C239.904 369.453 238.884 370.383 238.734 371.733H243.834C243.684 370.398 242.679 369.453 241.284 369.453ZM251.458 368.238C253.393 368.238 254.758 369.348 254.758 371.688V376.263H253.318V371.853C253.318 370.293 252.538 369.528 251.173 369.528C249.643 369.528 248.653 370.443 248.653 372.168V376.263H247.213V368.313H248.593V369.513C249.178 368.703 250.198 368.238 251.458 368.238ZM260.932 376.353C258.487 376.353 256.732 374.658 256.732 372.288C256.732 369.918 258.487 368.238 260.932 368.238C262.357 368.238 263.542 368.823 264.172 369.933L263.077 370.638C262.567 369.858 261.787 369.498 260.917 369.498C259.357 369.498 258.187 370.593 258.187 372.288C258.187 374.013 259.357 375.093 260.917 375.093C261.787 375.093 262.567 374.733 263.077 373.953L264.172 374.643C263.542 375.753 262.357 376.353 260.932 376.353ZM269.324 376.353C266.939 376.353 265.184 374.658 265.184 372.288C265.184 369.918 266.939 368.238 269.324 368.238C271.709 368.238 273.449 369.918 273.449 372.288C273.449 374.658 271.709 376.353 269.324 376.353ZM269.324 375.093C270.854 375.093 271.994 373.983 271.994 372.288C271.994 370.593 270.854 369.498 269.324 369.498C267.794 369.498 266.639 370.593 266.639 372.288C266.639 373.983 267.794 375.093 269.324 375.093ZM281.501 365.133H282.941V376.263H281.561V375.003C280.916 375.903 279.896 376.353 278.726 376.353C276.401 376.353 274.706 374.718 274.706 372.288C274.706 369.858 276.401 368.238 278.726 368.238C279.851 368.238 280.841 368.658 281.501 369.513V365.133ZM278.846 375.093C280.361 375.093 281.516 373.983 281.516 372.288C281.516 370.593 280.361 369.498 278.846 369.498C277.316 369.498 276.161 370.593 276.161 372.288C276.161 373.983 277.316 375.093 278.846 375.093ZM286.385 366.783C285.83 366.783 285.41 366.378 285.41 365.853C285.41 365.328 285.83 364.908 286.385 364.908C286.94 364.908 287.36 365.313 287.36 365.823C287.36 366.363 286.955 366.783 286.385 366.783ZM285.665 376.263V368.313H287.105V376.263H285.665ZM294.1 368.238C296.035 368.238 297.4 369.348 297.4 371.688V376.263H295.96V371.853C295.96 370.293 295.18 369.528 293.815 369.528C292.285 369.528 291.295 370.443 291.295 372.168V376.263H289.855V368.313H291.235V369.513C291.82 368.703 292.84 368.238 294.1 368.238ZM306.349 368.313H307.714V375.183C307.714 377.988 306.289 379.263 303.589 379.263C302.134 379.263 300.664 378.858 299.794 378.078L300.484 376.968C301.219 377.598 302.374 378.003 303.544 378.003C305.419 378.003 306.274 377.133 306.274 375.333V374.703C305.584 375.528 304.549 375.933 303.409 375.933C301.114 375.933 299.374 374.373 299.374 372.078C299.374 369.783 301.114 368.238 303.409 368.238C304.594 368.238 305.674 368.673 306.349 369.543V368.313ZM303.574 374.673C305.164 374.673 306.304 373.608 306.304 372.078C306.304 370.533 305.164 369.498 303.574 369.498C301.969 369.498 300.829 370.533 300.829 372.078C300.829 373.608 301.969 374.673 303.574 374.673Z" fill="#211433"/>
<path d="M32.0684 340.747L36.2413 330.999L27.8955 330.999L32.0684 340.747Z" fill="#211433"/>
<path d="M227 237.008C223.528 270.25 188.395 285 158.616 293.25C98.6541 309.862 33.4765 291.5 31.978 335" stroke="#211433"/>
<path d="M520.182 340.747L516.009 330.999L524.354 330.999L520.182 340.747Z" fill="#211433"/>
<path d="M325.25 237.008C328.722 270.25 363.855 285 393.634 293.25C453.596 309.862 518.773 291.5 520.272 335" stroke="#211433"/>
<path d="M133.728 340.747L138.256 330.999L129.2 330.999L133.728 340.747Z" fill="#211433"/>
<path d="M233.875 237.008C229 270.25 213 281 186 292.75C164.75 302 133.374 307.25 133.75 335" stroke="#211433"/>
<path d="M452.647 340.747L448.119 330.999L457.175 330.999L452.647 340.747Z" fill="#211433"/>
<path d="M318.25 238C328.5 287 365.064 302.569 394.895 308.864C418.374 313.82 453.041 316.633 452.625 331.5" stroke="#211433"/>
<path d="M372.656 238.5L174.644 238.5C172.711 238.5 171.144 236.933 171.144 235L171.144 159.661C171.144 157.728 172.711 156.161 174.644 156.161L372.656 156.161C374.589 156.161 376.156 157.728 376.156 159.661L376.156 235C376.156 236.933 374.589 238.5 372.656 238.5Z" fill="#CDE6B2" stroke="#211433"/>
<path d="M267.358 192.062C270.088 192.062 271.738 193.442 271.738 195.722C271.738 198.002 270.088 199.382 267.358 199.382H264.763V202.562H263.263V192.062H267.358ZM267.313 198.077C269.233 198.077 270.238 197.222 270.238 195.722C270.238 194.222 269.233 193.367 267.313 193.367H264.763V198.077H267.313ZM277.108 202.652C274.723 202.652 272.968 200.957 272.968 198.587C272.968 196.217 274.723 194.537 277.108 194.537C279.493 194.537 281.233 196.217 281.233 198.587C281.233 200.957 279.493 202.652 277.108 202.652ZM277.108 201.392C278.638 201.392 279.778 200.282 279.778 198.587C279.778 196.892 278.638 195.797 277.108 195.797C275.578 195.797 274.423 196.892 274.423 198.587C274.423 200.282 275.578 201.392 277.108 201.392ZM286.494 202.682C284.889 202.682 283.314 202.142 282.474 201.362L283.029 200.192C283.809 200.897 285.144 201.407 286.494 201.407C288.309 201.407 289.089 200.702 289.089 199.787C289.089 197.222 282.729 198.842 282.729 194.942C282.729 193.322 283.989 191.942 286.749 191.942C287.979 191.942 289.254 192.272 290.124 192.872L289.629 194.072C288.714 193.487 287.679 193.217 286.749 193.217C284.964 193.217 284.199 193.967 284.199 194.882C284.199 197.447 290.559 195.842 290.559 199.697C290.559 201.302 289.269 202.682 286.494 202.682ZM298.864 202.562V193.367H295.264V192.062H303.949V193.367H300.349V202.562H298.864ZM307.843 194.537C310.018 194.537 311.248 195.587 311.248 197.762V202.562H309.883V201.512C309.403 202.232 308.518 202.652 307.273 202.652C305.473 202.652 304.333 201.692 304.333 200.312C304.333 199.037 305.158 197.987 307.528 197.987H309.808V197.702C309.808 196.487 309.103 195.782 307.678 195.782C306.733 195.782 305.773 196.112 305.158 196.637L304.558 195.557C305.383 194.897 306.568 194.537 307.843 194.537ZM307.513 201.542C308.593 201.542 309.448 201.047 309.808 200.132V199.022H307.588C306.163 199.022 305.758 199.577 305.758 200.252C305.758 201.047 306.418 201.542 307.513 201.542ZM318.128 194.537C320.453 194.537 322.148 196.157 322.148 198.587C322.148 201.017 320.453 202.652 318.128 202.652C316.958 202.652 315.938 202.202 315.293 201.302V202.562H313.913V191.432H315.353V195.812C316.013 194.957 317.003 194.537 318.128 194.537ZM318.008 201.392C319.538 201.392 320.693 200.282 320.693 198.587C320.693 196.892 319.538 195.797 318.008 195.797C316.493 195.797 315.338 196.892 315.338 198.587C315.338 200.282 316.493 201.392 318.008 201.392ZM324.137 202.562V191.432H325.577V202.562H324.137ZM335.512 198.632C335.512 198.752 335.497 198.932 335.482 199.067H329.032C329.212 200.462 330.337 201.392 331.912 201.392C332.842 201.392 333.622 201.077 334.207 200.432L335.002 201.362C334.282 202.202 333.187 202.652 331.867 202.652C329.302 202.652 327.592 200.957 327.592 198.587C327.592 196.232 329.287 194.537 331.582 194.537C333.877 194.537 335.512 196.187 335.512 198.632ZM331.582 195.752C330.202 195.752 329.182 196.682 329.032 198.032H334.132C333.982 196.697 332.977 195.752 331.582 195.752Z" fill="#211433"/>
<circle cx="220.15" cy="197.331" r="22.875" fill="#A2CA77" stroke="#211433"/>
<path d="M213.432 184.931L213.432 184.931C214.773 182.1 216.301 180.152 216.526 179.864C216.532 179.856 216.538 179.849 216.542 179.843L216.7 179.65L216.938 179.759C216.94 179.76 216.943 179.761 216.946 179.763C217.162 179.866 219.48 180.974 222.044 182.99C225.568 185.777 227.805 188.947 228.572 192.145C229.331 195.344 228.771 199.15 226.872 203.156L226.872 203.156C225.531 205.987 224.004 207.936 223.779 208.223C223.772 208.231 223.767 208.238 223.762 208.244L223.605 208.437L223.363 208.326L223.363 208.326L223.359 208.324L223.358 208.324L223.358 208.324L223.355 208.323L223.347 208.319L223.321 208.307C223.298 208.296 223.267 208.281 223.228 208.262C223.15 208.224 223.039 208.169 222.901 208.098C222.624 207.956 222.235 207.748 221.767 207.476C220.83 206.932 219.577 206.135 218.262 205.097C214.736 202.31 212.5 199.14 211.732 195.942C210.965 192.744 211.525 188.946 213.432 184.931Z" fill="#A2CA77" stroke="#211433"/>
<path d="M216.63 179.684C222.815 190.584 225.037 203.627 222.749 215.627" stroke="#211433" stroke-linecap="round" stroke-linejoin="round"/>
<path d="M57.1498 0.921631H490.15C492.083 0.921631 493.65 2.48863 493.65 4.42163V47.7606C493.65 49.6936 492.083 51.2606 490.15 51.2606H57.1498C55.2168 51.2606 53.6498 49.6936 53.6498 47.7606V4.42163C53.6498 2.48864 55.2168 0.921631 57.1498 0.921631Z" fill="#D8D0E4" stroke="#211433"/>
<path d="M90.9729 1.12506V51.679" stroke="#211433" stroke-dasharray="2 2"/>
<path d="M129.604 1.12506V51.679" stroke="#211433" stroke-dasharray="2 2"/>
<path d="M414.973 1.12506V51.679" stroke="#211433" stroke-dasharray="2 2"/>
<path d="M453.604 1.12506V51.679" stroke="#211433" stroke-dasharray="2 2"/>
<path d="M375.973 1.12506V51.679" stroke="#211433" stroke-dasharray="2 2"/>
<path d="M205.678 32.2198V21.0898H207.118V32.2198H205.678ZM213.273 32.3098C210.888 32.3098 209.133 30.6148 209.133 28.2448C209.133 25.8748 210.888 24.1948 213.273 24.1948C215.658 24.1948 217.398 25.8748 217.398 28.2448C217.398 30.6148 215.658 32.3098 213.273 32.3098ZM213.273 31.0498C214.803 31.0498 215.943 29.9398 215.943 28.2448C215.943 26.5498 214.803 25.4548 213.273 25.4548C211.743 25.4548 210.588 26.5498 210.588 28.2448C210.588 29.9398 211.743 31.0498 213.273 31.0498ZM222.794 32.3098C220.409 32.3098 218.654 30.6148 218.654 28.2448C218.654 25.8748 220.409 24.1948 222.794 24.1948C225.179 24.1948 226.919 25.8748 226.919 28.2448C226.919 30.6148 225.179 32.3098 222.794 32.3098ZM222.794 31.0498C224.324 31.0498 225.464 29.9398 225.464 28.2448C225.464 26.5498 224.324 25.4548 222.794 25.4548C221.264 25.4548 220.109 26.5498 220.109 28.2448C220.109 29.9398 221.264 31.0498 222.794 31.0498ZM234.986 32.2198L232.001 28.5148L230.351 30.0448V32.2198H228.911V21.0898H230.351V28.2298L234.686 24.2698H236.426L233.081 27.5548L236.756 32.2198H234.986ZM243.977 24.2698H245.417V32.2198H244.052V31.0198C243.467 31.8448 242.477 32.3098 241.352 32.3098C239.297 32.3098 237.932 31.1848 237.932 28.8448V24.2698H239.372V28.6798C239.372 30.2398 240.152 31.0198 241.517 31.0198C243.017 31.0198 243.977 30.0898 243.977 28.3798V24.2698ZM252.374 24.1948C254.699 24.1948 256.394 25.8148 256.394 28.2448C256.394 30.6898 254.699 32.3098 252.374 32.3098C251.249 32.3098 250.259 31.8748 249.599 31.0198V35.1298H248.159V24.2698H249.539V25.5298C250.184 24.6448 251.204 24.1948 252.374 24.1948ZM252.254 31.0498C253.784 31.0498 254.939 29.9398 254.939 28.2448C254.939 26.5648 253.784 25.4548 252.254 25.4548C250.739 25.4548 249.584 26.5648 249.584 28.2448C249.584 29.9398 250.739 31.0498 252.254 31.0498ZM263.132 22.7398C262.577 22.7398 262.157 22.3348 262.157 21.8098C262.157 21.2848 262.577 20.8648 263.132 20.8648C263.687 20.8648 264.107 21.2698 264.107 21.7798C264.107 22.3198 263.702 22.7398 263.132 22.7398ZM262.412 32.2198V24.2698H263.852V32.2198H262.412ZM270.846 24.1948C272.781 24.1948 274.146 25.3048 274.146 27.6448V32.2198H272.706V27.8098C272.706 26.2498 271.926 25.4848 270.561 25.4848C269.031 25.4848 268.041 26.3998 268.041 28.1248V32.2198H266.601V24.2698H267.981V25.4698C268.566 24.6598 269.586 24.1948 270.846 24.1948ZM282.915 21.0898H284.355V32.2198H282.975V30.9598C282.33 31.8598 281.31 32.3098 280.14 32.3098C277.815 32.3098 276.12 30.6748 276.12 28.2448C276.12 25.8148 277.815 24.1948 280.14 24.1948C281.265 24.1948 282.255 24.6148 282.915 25.4698V21.0898ZM280.26 31.0498C281.775 31.0498 282.93 29.9398 282.93 28.2448C282.93 26.5498 281.775 25.4548 280.26 25.4548C278.73 25.4548 277.575 26.5498 277.575 28.2448C277.575 29.9398 278.73 31.0498 280.26 31.0498ZM287.8 22.7398C287.245 22.7398 286.825 22.3348 286.825 21.8098C286.825 21.2848 287.245 20.8648 287.8 20.8648C288.355 20.8648 288.775 21.2698 288.775 21.7798C288.775 22.3198 288.37 22.7398 287.8 22.7398ZM287.08 32.2198V24.2698H288.52V32.2198H287.08ZM294.734 32.3098C292.289 32.3098 290.534 30.6148 290.534 28.2448C290.534 25.8748 292.289 24.1948 294.734 24.1948C296.159 24.1948 297.344 24.7798 297.974 25.8898L296.879 26.5948C296.369 25.8148 295.589 25.4548 294.719 25.4548C293.159 25.4548 291.989 26.5498 291.989 28.2448C291.989 29.9698 293.159 31.0498 294.719 31.0498C295.589 31.0498 296.369 30.6898 296.879 29.9098L297.974 30.5998C297.344 31.7098 296.159 32.3098 294.734 32.3098ZM306.906 28.2898C306.906 28.4098 306.891 28.5898 306.876 28.7248H300.426C300.606 30.1198 301.731 31.0498 303.306 31.0498C304.236 31.0498 305.016 30.7348 305.601 30.0898L306.396 31.0198C305.676 31.8598 304.581 32.3098 303.261 32.3098C300.696 32.3098 298.986 30.6148 298.986 28.2448C298.986 25.8898 300.681 24.1948 302.976 24.1948C305.271 24.1948 306.906 25.8448 306.906 28.2898ZM302.976 25.4098C301.596 25.4098 300.576 26.3398 300.426 27.6898H305.526C305.376 26.3548 304.371 25.4098 302.976 25.4098ZM311.186 32.3098C309.866 32.3098 308.561 31.9048 307.901 31.3798L308.501 30.2398C309.176 30.7198 310.256 31.0648 311.291 31.0648C312.626 31.0648 313.181 30.6598 313.181 29.9848C313.181 28.1998 308.156 29.7448 308.156 26.5798C308.156 25.1548 309.431 24.1948 311.471 24.1948C312.506 24.1948 313.676 24.4648 314.366 24.9148L313.751 26.0548C313.031 25.5898 312.236 25.4248 311.456 25.4248C310.196 25.4248 309.581 25.8898 309.581 26.5198C309.581 28.3948 314.621 26.8648 314.621 29.9548C314.621 31.3948 313.301 32.3098 311.186 32.3098Z" fill="#211433"/>
<path d="M71.4814 23.6358C71.0374 23.6358 70.7014 23.3118 70.7014 22.8918C70.7014 22.4718 71.0374 22.1358 71.4814 22.1358C71.9254 22.1358 72.2614 22.4598 72.2614 22.8678C72.2614 23.2998 71.9374 23.6358 71.4814 23.6358ZM70.9054 31.2198V24.8598H72.0574V31.2198H70.9054Z" fill="#211433"/>
<path d="M102.481 23.6358C102.037 23.6358 101.701 23.3118 101.701 22.8918C101.701 22.4718 102.037 22.1358 102.481 22.1358C102.925 22.1358 103.261 22.4598 103.261 22.8678C103.261 23.2998 102.937 23.6358 102.481 23.6358ZM101.905 31.2198V24.8598H103.057V31.2198H101.905ZM110.345 26.5518V27.4998H108.161V29.6478H107.153V27.4998H104.969V26.5518H107.153V24.3918H108.161V26.5518H110.345ZM111.034 22.8198H114.118V31.2198H112.93V23.8638H111.034V22.8198Z" fill="#211433"/>
<path d="M299.878 154.747L304.406 144.999L295.35 144.999L299.878 154.747Z" fill="#211433"/>
<path d="M319.628 154.747L324.156 144.999L315.1 144.999L319.628 154.747Z" fill="#211433"/>
<path d="M465.244 51.0077C462.65 84.25 436.4 99 414.15 107.25C369.348 123.862 320.65 105.5 319.53 149" stroke="#211433"/>
<path d="M208.516 154.747L203.988 144.999L213.044 144.999L208.516 154.747Z" fill="#211433"/>
<path d="M65.3998 51.0077C67.4739 84.25 88.4611 99 106.25 107.25C142.07 123.862 181.005 105.5 181.9 149" stroke="#211433"/>
<path d="M422.65 51.0077C421.528 90.2798 396.65 101.75 356.393 108.896C330.65 113.25 302.15 119.25 299.777 149" stroke="#211433"/>
<path d="M284.878 154.747L289.406 144.999L280.35 144.999L284.878 154.747Z" fill="#211433"/>
<path d="M385.025 51.0077C384.734 62.75 385.79 80 372.486 92C361.646 101.777 352.65 104.25 337.15 106.75C314.15 110.5 284.523 121.25 284.9 149" stroke="#211433"/>
<path d="M181.796 154.747L177.268 144.999L186.324 144.999L181.796 154.747Z" fill="#211433"/>
<path d="M108.65 51.0077C108.94 62.75 107.885 80 121.189 92C132.028 101.777 141.025 104.25 156.525 106.75C179.525 110.5 209.151 121.25 208.775 149" stroke="#211433"/>
<path d="M245.241 100.918C252.804 100.918 258.935 94.8301 258.935 87.3204C258.935 79.8106 252.804 73.7228 245.241 73.7228C237.679 73.7228 231.548 79.8106 231.548 87.3204C231.548 94.8301 237.679 100.918 245.241 100.918Z" stroke="#211433"/>
<path d="M265.375 107.543L254.606 96.8495" stroke="#211433"/>
<circle cx="144.65" cy="110.5" r="15.5" fill="#F4F1F7" stroke="#211433"/>
<g clip-path="url(#clip0_206_516)">
<path d="M139.23 107.7V107.44C139.23 104.31 141.53 102.33 144.65 102.33C147.77 102.33 150.07 104.26 150.07 107.43C150.07 112.56 144.7 111.53 144.7 114.99V115.41" stroke="#211433"/>
<path d="M144.806 118.701C145.106 118.701 145.349 118.458 145.349 118.158C145.349 117.858 145.106 117.615 144.806 117.615C144.506 117.615 144.263 117.858 144.263 118.158C144.263 118.458 144.506 118.701 144.806 118.701Z" fill="#211433"/>
</g>
<circle cx="352.4" cy="110.5" r="15.5" fill="#F4F1F7" stroke="#211433"/>
<g clip-path="url(#clip1_206_516)">
<path d="M346.98 107.7V107.44C346.98 104.31 349.28 102.33 352.4 102.33C355.52 102.33 357.82 104.26 357.82 107.43C357.82 112.56 352.45 111.53 352.45 114.99V115.41" stroke="#211433"/>
<path d="M352.556 118.701C352.856 118.701 353.099 118.458 353.099 118.158C353.099 117.858 352.856 117.615 352.556 117.615C352.256 117.615 352.013 117.858 352.013 118.158C352.013 118.458 352.256 118.701 352.556 118.701Z" fill="#211433"/>
</g>
<defs>
<clipPath id="clip0_206_516">
<rect width="11.84" height="17.34" fill="white" transform="translate(138.73 101.83)"/>
</clipPath>
<clipPath id="clip1_206_516">
<rect width="11.84" height="17.34" fill="white" transform="translate(346.48 101.83)"/>
</clipPath>
</defs>
</svg>
